<svg version="1.1" xmlns="http://www.w3.org/2000/svg" xmlns:xlink="http://www.w3.org/1999/xlink" width="220.99897" height="100.29779" viewBox="0,0,220.99897,100.29779"><defs><radialGradient cx="112.375" cy="244.9933" r="45.5" gradientUnits="userSpaceOnUse" id="color-1"><stop offset="0" stop-color="#fff082"/><stop offset="1" stop-color="#ffd183"/></radialGradient><linearGradient x1="46.54017" y1="237.89103" x2="72.84765" y2="232.0753" gradientUnits="userSpaceOnUse" id="color-2"><stop offset="0" stop-color="#9b7522"/><stop offset="1" stop-color="#9b7522" stop-opacity="0"/></linearGradient><linearGradient x1="36.83079" y1="254.7183" x2="62.52772" y2="246.62052" gradientUnits="userSpaceOnUse" id="color-3"><stop offset="0" stop-color="#9b7522"/><stop offset="1" stop-color="#9b7522" stop-opacity="0"/></linearGradient><linearGradient x1="60.12401" y1="221.40251" x2="86.22284" y2="228.09258" gradientUnits="userSpaceOnUse" id="color-4"><stop offset="0" stop-color="#9b7522"/><stop offset="1" stop-color="#9b7522" stop-opacity="0"/></linearGradient><linearGradient x1="79.93288" y1="212.24152" x2="101.31523" y2="228.63363" gradientUnits="userSpaceOnUse" id="color-5"><stop offset="0" stop-color="#9b7522"/><stop offset="1" stop-color="#9b7522" stop-opacity="0"/></linearGradient><linearGradient x1="102.39673" y1="210.85681" x2="113.20233" y2="235.53767" gradientUnits="userSpaceOnUse" id="color-6"><stop offset="0" stop-color="#9b7522"/><stop offset="1" stop-color="#9b7522" stop-opacity="0"/></linearGradient><linearGradient x1="121.13534" y1="218.22404" x2="131.24269" y2="243.19898" gradientUnits="userSpaceOnUse" id="color-7"><stop offset="0" stop-color="#9b7522"/><stop offset="1" stop-color="#9b7522" stop-opacity="0"/></linearGradient><linearGradient x1="135.72437" y1="228.45828" x2="147.03604" y2="252.91135" gradientUnits="userSpaceOnUse" id="color-8"><stop offset="0" stop-color="#9b7522"/><stop offset="1" stop-color="#9b7522" stop-opacity="0"/></linearGradient><linearGradient x1="149.71086" y1="239.79026" x2="162.53921" y2="263.48287" gradientUnits="userSpaceOnUse" id="color-9"><stop offset="0" stop-color="#9b7522"/><stop offset="1" stop-color="#9b7522" stop-opacity="0"/></linearGradient><linearGradient x1="163.80077" y1="251.47918" x2="180.87768" y2="272.3187" gradientUnits="userSpaceOnUse" id="color-10"><stop offset="0" stop-color="#9b7522"/><stop offset="1" stop-color="#9b7522" stop-opacity="0"/></linearGradient><linearGradient x1="181.41902" y1="256.04203" x2="206.293" y2="266.39536" gradientUnits="userSpaceOnUse" id="color-11"><stop offset="0" stop-color="#9b7522"/><stop offset="1" stop-color="#9b7522" stop-opacity="0"/></linearGradient><linearGradient x1="200.04017" y1="255.89103" x2="226.34765" y2="250.0753" gradientUnits="userSpaceOnUse" id="color-12"><stop offset="0" stop-color="#9b7522"/><stop offset="1" stop-color="#9b7522" stop-opacity="0"/></linearGradient><linearGradient x1="215.12619" y1="245.80534" x2="237.93991" y2="231.47215" gradientUnits="userSpaceOnUse" id="color-13"><stop offset="0" stop-color="#9b7522"/><stop offset="1" stop-color="#9b7522" stop-opacity="0"/></linearGradient><linearGradient x1="226.10155" y1="229.80124" x2="245.29809" y2="210.89624" gradientUnits="userSpaceOnUse" id="color-14"><stop offset="0" stop-color="#9b7522"/><stop offset="1" stop-color="#9b7522" stop-opacity="0"/></linearGradient><linearGradient x1="230.85556" y1="211.084" x2="253.12087" y2="195.9129" gradientUnits="userSpaceOnUse" id="color-15"><stop offset="0" stop-color="#9b7522"/><stop offset="1" stop-color="#9b7522" stop-opacity="0"/></linearGradient><linearGradient x1="32.8445" y1="269.77306" x2="53.68101" y2="255.18643" gradientUnits="userSpaceOnUse" id="color-16"><stop offset="0" stop-color="#9b7522"/><stop offset="1" stop-color="#9b7522" stop-opacity="0"/></linearGradient></defs><g transform="translate(-29.87499,-172.57028)"><g data-paper-data="{&quot;isPaintingLayer&quot;:true}" fill-rule="nonzero" stroke="none" stroke-width="0" stroke-linecap="butt" stroke-linejoin="miter" stroke-miterlimit="10" stroke-dasharray="" stroke-dashoffset="0" style="mix-blend-mode: normal"><path d="M237.875,173.9933c0,6.16753 13.94556,1.83468 12.94787,20.60354c-0.77075,14.49969 -14.08854,52.06009 -26.9738,60.96497c-7.97991,5.51484 -17.45219,12.04293 -25.72095,14.06242c-22.22805,5.42877 -41.98533,-3.04429 -47.75313,-10.13093c-7.32509,-9 -41.21991,-33.88824 -51.56388,-34.27023c-5.40298,-0.19952 -24.20561,3.15555 -29.98658,8.02249c-10.32864,8.69559 -15.58815,29.21732 -23.37573,35.91493c-8.13592,6.99719 -15.57381,3.0328 -15.57381,-3.16719c0,-8.51131 9.4286,-33.28606 21.20128,-43.26248c18.40175,-15.59403 35.97393,-18.23752 51.29872,-18.23752c4.92748,0 28.05595,15.71815 36.33277,18.64511c7.22678,2.55563 18.1001,23.81459 27.59083,21.23457c2.25837,-0.61393 6.82283,2.93748 12.55016,3.42717c6.42977,0.54974 20.06483,-1.97831 22.45783,-3.32037c28.5785,-16.02759 36.56841,-82.40246 36.56841,-70.48648z" fill="url(#color-1)"/><path d="M62.91791,243.75345c-1.52878,1.27107 -3.7941,0.5808 -3.7941,0.5808c0,0 -1.47654,-4.54936 -3.85014,-7.75796c-2.18566,-2.95453 -8.47114,-4.44761 -8.47114,-4.44761c0,0 0.82811,-3.66275 2.3453,-5.65764c1.19438,-1.57044 6.88671,-1.44018 6.88671,-1.44018l8.63652,9.43565c0,0 -0.24074,8.02948 -1.75314,9.28694z" data-paper-data="{&quot;index&quot;:null}" fill="url(#color-2)"/><path d="M53.65909,259.12359c-1.41156,1.4001 -3.72863,0.91091 -3.72863,0.91091c0,0 -1.86937,-4.40254 -4.51491,-7.39089c-2.43606,-2.75172 -8.82817,-3.68848 -8.82817,-3.68848c0,0 0.50409,-3.72121 1.8407,-5.84133c1.05222,-1.66902 6.73408,-2.03788 6.73408,-2.03788l9.42984,8.64286c0,0 0.46353,8.01971 -0.93292,9.40481z" data-paper-data="{&quot;index&quot;:null}" fill="url(#color-3)"/><path d="M72.0898,234.0286c-1.938,0.44379 -3.64753,-1.19501 -3.64753,-1.19501c0,0 0.73683,-4.72588 0.06783,-8.66054c-0.61603,-3.6231 -5.55003,-7.7935 -5.55003,-7.7935c0,0 2.3928,-2.89414 4.64729,-3.98899c1.77481,-0.86189 6.79495,1.8247 6.79495,1.8247l3.44523,12.31874c0,0 -3.8405,7.05557 -5.75775,7.49461z" data-paper-data="{&quot;index&quot;:null}" fill="url(#color-4)"/><path d="M85.98643,228.54958c-1.95675,-0.35204 -2.88636,-2.5301 -2.88636,-2.5301c0,0 2.53168,-4.05802 3.45984,-7.93972c0.85466,-3.57434 -2.04784,-9.34601 -2.04784,-9.34601c0,0 3.33633,-1.72348 5.83961,-1.84615c1.97065,-0.09657 5.53447,4.34403 5.53447,4.34403l-1.66345,12.68282c0,0 -6.30048,4.98341 -8.23627,4.63515z" data-paper-data="{&quot;index&quot;:null}" fill="url(#color-5)"/><path d="M99.82067,228.06036c-1.54334,-1.25335 -1.30534,-3.60951 -1.30534,-3.60951c0,0 4.1768,-2.33051 6.86435,-5.28113c2.47474,-2.71698 2.72093,-9.17268 2.72093,-9.17268c0,0 3.7538,0.10231 6.00498,1.20396c1.77219,0.86726 2.74797,6.47685 2.74797,6.47685l-7.58228,10.30194c0,0 -7.92381,1.3205 -9.45062,0.08057z" data-paper-data="{&quot;index&quot;:null}" fill="url(#color-6)"/><path d="M118.07657,235.34836c-1.50749,-1.29625 -1.20333,-3.64479 -1.20333,-3.64479c0,0 4.24067,-2.21214 7.01013,-5.08603c2.55016,-2.64632 2.97777,-9.09255 2.97777,-9.09255c0,0 3.74944,0.20782 5.96875,1.37233c1.74711,0.91674 2.56477,6.55155 2.56477,6.55155l-7.86895,10.08467c0,0 -7.95781,1.09718 -9.44915,-0.18519z" data-paper-data="{&quot;index&quot;:null}" fill="url(#color-7)"/><path d="M133.5032,245.71124c-1.56883,-1.2213 -1.37941,-3.58186 -1.37941,-3.58186c0,0 4.12791,-2.41604 6.75412,-5.42139c2.41826,-2.76738 2.53143,-9.22678 2.53143,-9.22678c0,0 3.75511,0.02497 6.02851,1.08002c1.78968,0.83057 2.88079,6.41887 2.88079,6.41887l-7.36848,10.45593c0,0 -7.89493,1.48343 -9.44696,0.27521z" data-paper-data="{&quot;index&quot;:null}" fill="url(#color-8)"/><path d="M148.58002,257.14882c-1.64259,-1.12013 -1.60212,-3.48794 -1.60212,-3.48794c0,0 3.96765,-2.67107 6.3995,-5.83576c2.23928,-2.9141 1.94566,-9.36781 1.94566,-9.36781c0,0 3.74924,-0.21143 6.08453,0.69843c1.83841,0.71628 3.2791,6.22482 3.2791,6.22482l-6.69575,10.89898c0,0 -7.78591,1.97741 -9.4109,0.86927z" data-paper-data="{&quot;index&quot;:null}" fill="url(#color-9)"/><path d="M165.97262,268.73842c-1.82476,-0.78933 -2.23274,-3.12207 -2.23274,-3.12207c0,0 3.39101,-3.37312 5.18058,-6.94055c1.64786,-3.28495 0.13922,-9.56672 0.13922,-9.56672c0,0 3.64163,-0.91655 6.10683,-0.46467c1.94068,0.35574 4.39698,5.49249 4.39698,5.49249l-4.5141,11.96845c0,0 -7.27155,3.41395 -9.07676,2.63308z" data-paper-data="{&quot;index&quot;:null}" fill="url(#color-10)"/><path d="M191.45638,270.24942c-1.98154,0.1621 -3.43916,-1.7043 -3.43916,-1.7043c0,0 1.40503,-4.57196 1.30555,-8.56184c-0.09161,-3.67395 -4.37856,-8.50704 -4.37856,-8.50704c0,0 2.78205,-2.52224 5.16994,-3.28345c1.87981,-0.59925 6.4642,2.77759 6.4642,2.77759l1.64831,12.68479c0,0 -4.80995,6.43389 -6.77027,6.59426z" data-paper-data="{&quot;index&quot;:null}" fill="url(#color-11)"/><path d="M216.41791,261.75345c-1.52878,1.27107 -3.79409,0.5808 -3.79409,0.5808c0,0 -1.47654,-4.54936 -3.85014,-7.75797c-2.18565,-2.95453 -8.47114,-4.44761 -8.47114,-4.44761c0,0 0.82811,-3.66275 2.3453,-5.65764c1.19438,-1.57044 6.88671,-1.44018 6.88671,-1.44018l8.63652,9.43565c0,0 -0.24074,8.02948 -1.75314,9.28694z" data-paper-data="{&quot;index&quot;:null}" fill="url(#color-12)"/><path d="M232.52154,245.81162c-1.0116,1.71156 -3.37707,1.82426 -3.37707,1.82426c0,0 -2.92198,-3.78667 -6.23727,-6.00884c-3.05277,-2.0462 -9.474,-1.33598 -9.474,-1.33598c0,0 -0.45337,-3.72773 0.30362,-6.11695c0.59593,-1.88087 5.99981,-3.67466 5.99981,-3.67466l11.30905,5.97715c0,0 2.47661,7.64179 1.47585,9.33502z" data-paper-data="{&quot;index&quot;:null}" fill="url(#color-13)"/><path d="M243.09104,226.06556c-0.61976,1.8891 -2.90561,2.50797 -2.90561,2.50797c0,0 -3.66811,-3.0695 -7.38379,-4.52652c-3.42145,-1.34164 -9.5396,0.7332 -9.5396,0.7332c0,0 -1.24461,-3.54295 -1.01927,-6.03907c0.1774,-1.96503 5.06893,-4.87922 5.06893,-4.87922l12.33003,3.40461c0,0 4.06242,6.93017 3.44931,8.79904z" data-paper-data="{&quot;index&quot;:null}" fill="url(#color-14)"/><path d="M248.23913,210.44383c-0.9473,1.74798 -3.30694,1.9485 -3.30694,1.9485c0,0 -3.06069,-3.67547 -6.45626,-5.7729c-3.1267,-1.93134 -9.5171,-0.98298 -9.5171,-0.98298c0,0 -0.59159,-3.70831 0.07609,-6.12401c0.52562,-1.90172 5.85911,-3.89509 5.85911,-3.89509l11.52336,5.55275c0,0 2.75889,7.54447 1.82174,9.27373z" data-paper-data="{&quot;index&quot;:null}" fill="url(#color-15)"/><path d="M48.24625,265.96131c-0.32088,0.61039 -2.1617,0.43085 -3.09709,1.22461c-1.61048,1.36665 -2.50128,3.65416 -2.50128,3.65416c0,0 -2.93303,2.56703 -6.16335,0.62766c-2.97453,-1.7858 -5.4955,-4.81432 -5.4955,-4.81432c0,0 -0.60269,-5.49343 -0.00126,-7.78173c0.47347,-1.80142 5.48428,-3.74673 5.48428,-3.74673l7.94386,5.60406c0,0 4.69432,3.58876 3.83032,5.23229z" data-paper-data="{&quot;index&quot;:null}" fill="url(#color-16)"/></g></g></svg>