<svg version="1.1" xmlns="http://www.w3.org/2000/svg" xmlns:xlink="http://www.w3.org/1999/xlink" width="234.37613" height="87.02733" viewBox="0,0,234.37613,87.02733"><defs><radialGradient cx="112.375" cy="244.9933" r="45.5" gradientUnits="userSpaceOnUse" id="color-1"><stop offset="0" stop-color="#fff082"/><stop offset="1" stop-color="#ffd183"/></radialGradient><linearGradient x1="48.84044" y1="193.05975" x2="62.77192" y2="216.12098" gradientUnits="userSpaceOnUse" id="color-2"><stop offset="0" stop-color="#9b7522"/><stop offset="1" stop-color="#9b7522" stop-opacity="0"/></linearGradient><linearGradient x1="33.94185" y1="183.60637" x2="48.19136" y2="206.47246" gradientUnits="userSpaceOnUse" id="color-3"><stop offset="0" stop-color="#9b7522"/><stop offset="1" stop-color="#9b7522" stop-opacity="0"/></linearGradient><linearGradient x1="65.30709" y1="200.70068" x2="79.22808" y2="223.76824" gradientUnits="userSpaceOnUse" id="color-4"><stop offset="0" stop-color="#9b7522"/><stop offset="1" stop-color="#9b7522" stop-opacity="0"/></linearGradient><linearGradient x1="84.94202" y1="202.70453" x2="95.30072" y2="227.57627" gradientUnits="userSpaceOnUse" id="color-5"><stop offset="0" stop-color="#9b7522"/><stop offset="1" stop-color="#9b7522" stop-opacity="0"/></linearGradient><linearGradient x1="106.39673" y1="207.35681" x2="117.20233" y2="232.03767" gradientUnits="userSpaceOnUse" id="color-6"><stop offset="0" stop-color="#9b7522"/><stop offset="1" stop-color="#9b7522" stop-opacity="0"/></linearGradient><linearGradient x1="118.13534" y1="218.22404" x2="128.24269" y2="243.19898" gradientUnits="userSpaceOnUse" id="color-7"><stop offset="0" stop-color="#9b7522"/><stop offset="1" stop-color="#9b7522" stop-opacity="0"/></linearGradient><linearGradient x1="132.22437" y1="230.45828" x2="143.53604" y2="254.91135" gradientUnits="userSpaceOnUse" id="color-8"><stop offset="0" stop-color="#9b7522"/><stop offset="1" stop-color="#9b7522" stop-opacity="0"/></linearGradient><linearGradient x1="144.5613" y1="242.23577" x2="165.44309" y2="259.26096" gradientUnits="userSpaceOnUse" id="color-9"><stop offset="0" stop-color="#9b7522"/><stop offset="1" stop-color="#9b7522" stop-opacity="0"/></linearGradient><linearGradient x1="161.86505" y1="243.46676" x2="184.85234" y2="257.51992" gradientUnits="userSpaceOnUse" id="color-10"><stop offset="0" stop-color="#9b7522"/><stop offset="1" stop-color="#9b7522" stop-opacity="0"/></linearGradient><linearGradient x1="177.44367" y1="243.33641" x2="204.29932" y2="245.49985" gradientUnits="userSpaceOnUse" id="color-11"><stop offset="0" stop-color="#9b7522"/><stop offset="1" stop-color="#9b7522" stop-opacity="0"/></linearGradient><linearGradient x1="194.04017" y1="239.89103" x2="220.34765" y2="234.0753" gradientUnits="userSpaceOnUse" id="color-12"><stop offset="0" stop-color="#9b7522"/><stop offset="1" stop-color="#9b7522" stop-opacity="0"/></linearGradient><linearGradient x1="210.01857" y1="233.09627" x2="236.76607" y2="225.78494" gradientUnits="userSpaceOnUse" id="color-13"><stop offset="0" stop-color="#9b7522"/><stop offset="1" stop-color="#9b7522" stop-opacity="0"/></linearGradient><linearGradient x1="224.15915" y1="220.37574" x2="247.48366" y2="206.8897" gradientUnits="userSpaceOnUse" id="color-14"><stop offset="0" stop-color="#9b7522"/><stop offset="1" stop-color="#9b7522" stop-opacity="0"/></linearGradient><linearGradient x1="232.85556" y1="208.084" x2="255.12087" y2="192.9129" gradientUnits="userSpaceOnUse" id="color-15"><stop offset="0" stop-color="#9b7522"/><stop offset="1" stop-color="#9b7522" stop-opacity="0"/></linearGradient><linearGradient x1="17.40873" y1="180.26124" x2="36.85707" y2="196.65306" gradientUnits="userSpaceOnUse" id="color-16"><stop offset="0" stop-color="#9b7522"/><stop offset="1" stop-color="#9b7522" stop-opacity="0"/></linearGradient></defs><g transform="translate(-16.49783,-172.02333)"><g data-paper-data="{&quot;isPaintingLayer&quot;:true}" fill-rule="nonzero" stroke="none" stroke-width="0" stroke-linecap="butt" stroke-linejoin="miter" stroke-miterlimit="10" stroke-dasharray="" stroke-dashoffset="0" style="mix-blend-mode: normal"><path d="M237.875,173.9933c0,6.16753 13.94556,1.83468 12.94787,20.60354c-0.77075,14.49969 -7.58854,30.06009 -20.4738,38.96497c-7.97991,5.51484 -16.45219,10.04293 -24.72095,12.06242c-3.69847,0.90328 -13.09132,3.80235 -16.35891,5.39031c-9.02637,4.38657 -19.09691,6.21451 -30.01359,7.01454c-8.88253,0.65095 -26.72357,-5.88549 -28.88063,-8.53578c-7.32509,-9 -19.21991,-26.88824 -29.56388,-27.27023c-5.40298,-0.19952 -16.70561,-7.34445 -26.98658,-5.47751c-10.32864,8.69559 -19.08815,-7.78268 -31.87573,-12.58507c-15.63592,-8.50281 -13.03746,-5.2616 -16.07381,-10.66719c-4.5,-8.01131 -14.0714,-4.78606 -2.29872,-14.76248c9.96637,-8.44571 20.75597,5.81385 37.40587,15.16095c14.0922,7.91123 34.36796,10.60153 41.39285,10.60153c2.32686,0 9.71239,1.00503 16.67612,5.013c5.17004,2.97562 11.54128,9.97912 16.51698,14.79909c2.51478,2.43608 4.67309,4.31439 6.13967,4.83302c7.22678,2.55563 15.1001,10.81459 24.59083,8.23457c1.86911,-0.50811 12.57792,-3.77293 16.01364,-4.0886c0.71553,-0.06574 12.04933,-4.06863 13.03652,-3.98423c6.42977,0.54974 13.56483,-4.47831 15.95783,-5.82037c28.5785,-16.02759 26.56841,-61.40246 26.56841,-49.48648z" fill="url(#color-1)"/><path d="M48.52954,210.45233c-1.69359,-1.04142 -1.76484,-3.4085 -1.76484,-3.4085c0,0 3.83726,-2.85522 6.11714,-6.13107c2.09935,-3.01647 1.50169,-9.44915 1.50169,-9.44915c0,0 3.7351,-0.38802 6.1107,0.4107c1.87015,0.62878 3.56903,6.06324 3.56903,6.06324l-6.17428,11.20264c0,0 -7.68399,2.3424 -9.35944,1.31215z" data-paper-data="{&quot;index&quot;:null}" fill="url(#color-2)"/><path d="M33.87183,201.00158c-1.70785,-1.01786 -1.81187,-3.38372 -1.81187,-3.38372c0,0 3.79735,-2.90809 6.03165,-6.21521c2.05737,-3.04525 1.37068,-9.46904 1.37068,-9.46904c0,0 3.72936,-0.43971 6.1158,0.32603c1.87867,0.60282 3.65265,6.01323 3.65265,6.01323l-6.01854,11.28708c0,0 -7.65082,2.4486 -9.34037,1.44163z" data-paper-data="{&quot;index&quot;:null}" fill="url(#color-3)"/><path d="M64.98828,218.09311c-1.69312,-1.04219 -1.76329,-3.4093 -1.76329,-3.4093c0,0 3.83856,-2.85347 6.11993,-6.1283c2.10072,-3.01551 1.50597,-9.44847 1.50597,-9.44847c0,0 3.73528,-0.38632 6.11051,0.41347c1.86986,0.62963 3.56627,6.06487 3.56627,6.06487l-6.17938,11.19983c0,0 -7.68505,2.33892 -9.36004,1.30789z" data-paper-data="{&quot;index&quot;:null}" fill="url(#color-4)"/><path d="M82.05609,219.85882c-1.52049,-1.28098 -1.24003,-3.63247 -1.24003,-3.63247c0,0 4.21815,-2.2548 6.95849,-5.15646c2.52335,-2.67191 2.88592,-9.12212 2.88592,-9.12212c0,0 3.75134,0.16999 5.98229,1.31207c1.75626,0.89907 2.63071,6.52536 2.63071,6.52536l-7.76685,10.16351c0,0 -7.94633,1.17737 -9.45054,-0.08988z" data-paper-data="{&quot;index&quot;:null}" fill="url(#color-5)"/><path d="M103.82067,224.56036c-1.54334,-1.25335 -1.30534,-3.60951 -1.30534,-3.60951c0,0 4.1768,-2.33051 6.86435,-5.28113c2.47474,-2.71698 2.72093,-9.17268 2.72093,-9.17268c0,0 3.7538,0.10231 6.00498,1.20396c1.77219,0.86726 2.74797,6.47685 2.74797,6.47685l-7.58228,10.30194c0,0 -7.92381,1.3205 -9.45062,0.08057z" data-paper-data="{&quot;index&quot;:null}" fill="url(#color-6)"/><path d="M115.07657,235.34836c-1.50749,-1.29625 -1.20333,-3.64479 -1.20333,-3.64479c0,0 4.24067,-2.21214 7.01013,-5.08603c2.55016,-2.64632 2.97777,-9.09255 2.97777,-9.09255c0,0 3.74944,0.20782 5.96875,1.37233c1.74711,0.91674 2.56477,6.55155 2.56477,6.55155l-7.86895,10.08467c0,0 -7.95781,1.09718 -9.44915,-0.18519z" data-paper-data="{&quot;index&quot;:null}" fill="url(#color-7)"/><path d="M130.0032,247.71124c-1.56883,-1.2213 -1.37941,-3.58186 -1.37941,-3.58186c0,0 4.12791,-2.41604 6.75412,-5.42139c2.41826,-2.76738 2.53143,-9.22678 2.53143,-9.22678c0,0 3.75511,0.02497 6.02851,1.08002c1.78968,0.83057 2.88079,6.41887 2.88079,6.41887l-7.36848,10.45593c0,0 -7.89493,1.48343 -9.44696,0.27521z" data-paper-data="{&quot;index&quot;:null}" fill="url(#color-8)"/><path d="M150.12368,258.71783c-1.94533,-0.41049 -2.80928,-2.61542 -2.80928,-2.61542c0,0 2.65208,-3.98037 3.69609,-7.83253c0.96133,-3.54714 -1.76699,-9.40315 -1.76699,-9.40315c0,0 3.38646,-1.62278 5.89228,-1.67042c1.97266,-0.0375 5.40188,4.50784 5.40188,4.50784l-2.04256,12.6273c0,0 -6.44692,4.79247 -8.3714,4.38637z" data-paper-data="{&quot;index&quot;:null}" fill="url(#color-9)"/><path d="M169.59965,259.04797c-1.98291,-0.14436 -3.13637,-2.21261 -3.13637,-2.21261c0,0 2.09099,-4.3017 2.60589,-8.25948c0.47412,-3.64439 -3.01911,-9.0789 -3.01911,-9.0789c0,0 3.13664,-2.0647 5.61314,-2.44988c1.94958,-0.30322 5.96052,3.73806 5.96052,3.73806l-0.32077,12.78742c0,0 -5.74162,5.61821 -7.70329,5.4754z" data-paper-data="{&quot;index&quot;:null}" fill="url(#color-10)"/><path d="M191.3788,253.74845c-1.83456,0.76627 -3.79742,-0.5586 -3.79742,-0.5586c0,0 -0.07596,-4.78238 -1.40305,-8.5464c-1.22201,-3.46598 -6.79225,-6.73847 -6.79225,-6.73847c0,0 1.86687,-3.25826 3.90285,-4.71986c1.60277,-1.15062 7.00606,0.64496 7.00606,0.64496l5.48602,11.55527c0,0 -2.58729,7.60503 -4.4022,8.3631z" data-paper-data="{&quot;index&quot;:null}" fill="url(#color-11)"/><path d="M210.41791,245.75345c-1.52878,1.27107 -3.79409,0.5808 -3.79409,0.5808c0,0 -1.47654,-4.54936 -3.85014,-7.75797c-2.18565,-2.95453 -8.47114,-4.44761 -8.47114,-4.44761c0,0 0.82811,-3.66275 2.3453,-5.65764c1.19438,-1.57044 6.88671,-1.44018 6.88671,-1.44018l8.63652,9.43565c0,0 -0.24074,8.02948 -1.75314,9.28694z" data-paper-data="{&quot;index&quot;:null}" fill="url(#color-12)"/><path d="M227.15081,238.29246c-1.50706,1.38404 -3.87063,0.78929 -3.87063,0.78929c0,0 -1.74832,-4.60159 -4.35083,-7.77953c-2.39643,-2.92628 -8.93312,-4.14254 -8.93312,-4.14254c0,0 0.66563,-3.80701 2.12409,-5.9345c1.14815,-1.67482 7.00606,-1.8294 7.00606,-1.8294l9.3559,9.26151c0,0 0.15944,8.26594 -1.33147,9.63516z" data-paper-data="{&quot;index&quot;:null}" fill="url(#color-13)"/><path d="M241.54254,221.0206c-1.07376,1.67328 -3.44176,1.69905 -3.44176,1.69905c0,0 -2.781,-3.89139 -6.01248,-6.23376c-2.97559,-2.15689 -9.41857,-1.68286 -9.41857,-1.68286c0,0 -0.31622,-3.74186 0.52797,-6.10168c0.66458,-1.85773 6.13067,-3.45192 6.13067,-3.45192l11.08201,6.38828c0,0 2.19441,7.72755 1.13217,9.38291z" data-paper-data="{&quot;index&quot;:null}" fill="url(#color-14)"/><path d="M250.23913,207.44383c-0.9473,1.74798 -3.30694,1.9485 -3.30694,1.9485c0,0 -3.06069,-3.67547 -6.45626,-5.7729c-3.1267,-1.93134 -9.5171,-0.98298 -9.5171,-0.98298c0,0 -0.59159,-3.70831 0.07609,-6.12401c0.52562,-1.90172 5.85911,-3.89509 5.85911,-3.89509l11.52336,5.55275c0,0 2.75889,7.54447 1.82174,9.27373z" data-paper-data="{&quot;index&quot;:null}" fill="url(#color-15)"/><path d="M25.04788,194.16759c-0.67232,-0.15337 -0.97153,-1.97856 -1.97888,-2.67874c-1.73439,-1.20551 -4.17395,-1.47899 -4.17395,-1.47899c0,0 -3.23415,-2.17544 -2.18938,-5.79547c0.96204,-3.33337 3.2416,-6.54754 3.2416,-6.54754c0,0 5.15443,-1.99321 7.52044,-1.99959c1.8626,-0.00502 5.02946,4.33818 5.02946,4.33818l-3.37611,9.11659c0,0 -2.26289,5.4585 -4.07318,5.04554z" data-paper-data="{&quot;index&quot;:null}" fill="url(#color-16)"/></g></g></svg>