<svg version="1.1" xmlns="http://www.w3.org/2000/svg" xmlns:xlink="http://www.w3.org/1999/xlink" width="210.82586" height="124.602" viewBox="0,0,210.82586,124.602"><defs><radialGradient cx="112.375" cy="244.9933" r="45.5" gradientUnits="userSpaceOnUse" id="color-1"><stop offset="0" stop-color="#fff082"/><stop offset="1" stop-color="#ffd183"/></radialGradient><linearGradient x1="58.878" y1="165.51055" x2="68.44924" y2="190.69582" gradientUnits="userSpaceOnUse" id="color-2"><stop offset="0" stop-color="#9b7522"/><stop offset="1" stop-color="#9b7522" stop-opacity="0"/></linearGradient><linearGradient x1="55.75389" y1="152.82218" x2="41.33839" y2="175.58399" gradientUnits="userSpaceOnUse" id="color-3"><stop offset="0" stop-color="#9b7522"/><stop offset="1" stop-color="#9b7522" stop-opacity="0"/></linearGradient><linearGradient x1="77.80709" y1="172.70068" x2="91.72808" y2="195.76824" gradientUnits="userSpaceOnUse" id="color-4"><stop offset="0" stop-color="#9b7522"/><stop offset="1" stop-color="#9b7522" stop-opacity="0"/></linearGradient><linearGradient x1="103.67845" y1="177.88797" x2="103.45899" y2="204.82972" gradientUnits="userSpaceOnUse" id="color-5"><stop offset="0" stop-color="#9b7522"/><stop offset="1" stop-color="#9b7522" stop-opacity="0"/></linearGradient><linearGradient x1="111.63602" y1="198.44771" x2="103.83855" y2="224.23734" gradientUnits="userSpaceOnUse" id="color-6"><stop offset="0" stop-color="#9b7522"/><stop offset="1" stop-color="#9b7522" stop-opacity="0"/></linearGradient><linearGradient x1="117.3259" y1="216.52105" x2="108.89635" y2="242.11106" gradientUnits="userSpaceOnUse" id="color-7"><stop offset="0" stop-color="#9b7522"/><stop offset="1" stop-color="#9b7522" stop-opacity="0"/></linearGradient><linearGradient x1="124.72437" y1="230.95828" x2="136.03604" y2="255.41135" gradientUnits="userSpaceOnUse" id="color-8"><stop offset="0" stop-color="#9b7522"/><stop offset="1" stop-color="#9b7522" stop-opacity="0"/></linearGradient><linearGradient x1="144.07253" y1="238.81466" x2="159.26659" y2="261.0643" gradientUnits="userSpaceOnUse" id="color-9"><stop offset="0" stop-color="#9b7522"/><stop offset="1" stop-color="#9b7522" stop-opacity="0"/></linearGradient><linearGradient x1="161.86505" y1="243.46676" x2="184.85234" y2="257.51992" gradientUnits="userSpaceOnUse" id="color-10"><stop offset="0" stop-color="#9b7522"/><stop offset="1" stop-color="#9b7522" stop-opacity="0"/></linearGradient><linearGradient x1="177.44367" y1="243.33641" x2="204.29932" y2="245.49985" gradientUnits="userSpaceOnUse" id="color-11"><stop offset="0" stop-color="#9b7522"/><stop offset="1" stop-color="#9b7522" stop-opacity="0"/></linearGradient><linearGradient x1="194.04017" y1="239.89103" x2="220.34765" y2="234.0753" gradientUnits="userSpaceOnUse" id="color-12"><stop offset="0" stop-color="#9b7522"/><stop offset="1" stop-color="#9b7522" stop-opacity="0"/></linearGradient><linearGradient x1="210.01857" y1="233.09627" x2="236.76607" y2="225.78494" gradientUnits="userSpaceOnUse" id="color-13"><stop offset="0" stop-color="#9b7522"/><stop offset="1" stop-color="#9b7522" stop-opacity="0"/></linearGradient><linearGradient x1="224.15915" y1="220.37574" x2="247.48366" y2="206.8897" gradientUnits="userSpaceOnUse" id="color-14"><stop offset="0" stop-color="#9b7522"/><stop offset="1" stop-color="#9b7522" stop-opacity="0"/></linearGradient><linearGradient x1="232.85556" y1="208.084" x2="255.12087" y2="192.9129" gradientUnits="userSpaceOnUse" id="color-15"><stop offset="0" stop-color="#9b7522"/><stop offset="1" stop-color="#9b7522" stop-opacity="0"/></linearGradient><linearGradient x1="47.90873" y1="139.26124" x2="67.35707" y2="155.65306" gradientUnits="userSpaceOnUse" id="color-16"><stop offset="0" stop-color="#9b7522"/><stop offset="1" stop-color="#9b7522" stop-opacity="0"/></linearGradient></defs><g transform="translate(-40.0481,-134.44866)"><g data-paper-data="{&quot;isPaintingLayer&quot;:true}" fill-rule="nonzero" stroke="none" stroke-width="0" stroke-linecap="butt" stroke-linejoin="miter" stroke-miterlimit="10" stroke-dasharray="" stroke-dashoffset="0" style="mix-blend-mode: normal"><path d="M237.875,173.9933c0,6.16753 13.94556,1.83468 12.94787,20.60354c-0.77075,14.49969 -7.58854,30.06009 -20.4738,38.96497c-7.97991,5.51484 -16.45219,10.04293 -24.72095,12.06242c-3.69847,0.90328 -13.09132,3.80235 -16.35891,5.39031c-9.02637,4.38657 -19.09691,6.21451 -30.01359,7.01454c-8.88253,0.65095 -24.22357,-1.88549 -26.38063,-4.53578c-3.30415,-4.05966 -12.6085,-7.24996 -18.84283,-11.27984c-1.84743,-1.19418 -4.55699,-6.46209 -5.97073,-7.84819c-4.39201,-4.30616 -5.45488,-3.98358 -7.25032,-16.1422c-5.40298,-0.19952 5.79439,-23.34445 -7.48658,-23.97751c-7.32864,-6.30441 -18.58815,-3.28268 -31.37573,-8.08507c-15.63592,-8.50281 -17.03746,-14.2616 -20.07381,-19.66719c-2.96544,-5.27935 -2.41406,-14.96395 9.17817,-28.58434c4.4235,-5.19743 8.13414,-3.57345 10.33728,-1.36289c0.78457,0.78721 -0.36841,5.57814 0.68583,4.68475c9.96637,-8.44571 -13.24403,16.81385 3.40587,26.16095c10.08883,5.66378 12.64083,2.72685 22.95635,5.71461c4.09332,1.18558 18.94084,4.88692 20.9365,4.88692c1.27323,0 8.66579,9.43897 9.90115,15.92689c1.02229,5.36887 -0.87828,21.77127 2.27497,23.58611c5.17004,2.97562 8.04128,5.97912 13.01698,10.79909c2.51478,2.43608 8.17309,5.31439 9.63967,5.83302c7.22678,2.55563 12.6001,5.81459 22.09083,3.23457c1.86911,-0.50811 12.57792,-3.77293 16.01364,-4.0886c0.71553,-0.06574 12.04933,-4.06863 13.03652,-3.98423c6.42977,0.54974 13.56483,-4.47831 15.95783,-5.82037c28.5785,-16.02759 26.56841,-61.40246 26.56841,-49.48648z" fill="url(#color-1)"/><path d="M55.45392,182.56558c-1.47944,-1.32818 -1.12515,-3.66968 -1.12515,-3.66968c0,0 4.28698,-2.121 7.11723,-4.93502c2.60614,-2.59121 3.17144,-9.02682 3.17144,-9.02682c0,0 3.74415,0.28791 5.93806,1.4996c1.72712,0.95388 2.42416,6.60487 2.42416,6.60487l-8.0827,9.91418c0,0 -7.97944,0.92683 -9.44304,-0.38711z" data-paper-data="{&quot;index&quot;:null}" fill="url(#color-2)"/><path d="M40.05212,160.30901c0.17575,-1.98038 2.26201,-3.10093 2.26201,-3.10093c0,0 4.26804,2.15886 8.21717,2.73638c3.63642,0.53178 9.12558,-2.87493 9.12558,-2.87493c0,0 2.01476,3.16894 2.36067,5.65124c0.2723,1.95414 -3.832,5.90056 -3.832,5.90056l-12.78074,-0.52327c0,0 -5.52658,-5.82989 -5.3527,-7.78906z" data-paper-data="{&quot;index&quot;:null}" fill="url(#color-3)"/><path d="M77.48828,190.09311c-1.69312,-1.04219 -1.76329,-3.4093 -1.76329,-3.4093c0,0 3.83856,-2.85347 6.11993,-6.1283c2.10072,-3.01551 1.50597,-9.44847 1.50597,-9.44847c0,0 3.73528,-0.38632 6.11051,0.41347c1.86986,0.62963 3.56627,6.06487 3.56627,6.06487l-6.17938,11.19983c0,0 -7.68505,2.33892 -9.36004,1.30789z" data-paper-data="{&quot;index&quot;:null}" fill="url(#color-4)"/><path d="M94.29935,192.53825c-0.89669,-1.77447 0.28306,-3.82784 0.28306,-3.82784c0,0 4.76442,-0.42093 8.42285,-2.01623c3.36875,-1.46899 6.23065,-7.2609 6.23065,-7.2609c0,0 3.3845,1.62683 4.98925,3.552c1.2633,1.51554 -0.13762,7.03435 -0.13762,7.03435l-11.12918,6.30573c0,0 -7.77192,-2.03164 -8.65902,-3.7871z" data-paper-data="{&quot;index&quot;:null}" fill="url(#color-5)"/><path d="M98.51092,209.86392c-0.3607,-1.95517 1.34954,-3.59322 1.34954,-3.59322c0,0 4.69015,0.93778 8.64977,0.43726c3.64608,-0.46089 8.0232,-5.21247 8.0232,-5.21247c0,0 2.78941,2.51409 3.78708,4.81324c0.78538,1.80996 -2.11295,6.71091 -2.11295,6.71091l-12.45451,2.91652c0,0 -6.88529,-4.13803 -7.24213,-6.07226z" data-paper-data="{&quot;index&quot;:null}" fill="url(#color-6)"/><path d="M103.92392,227.61092c-0.3125,-1.96345 1.43753,-3.55893 1.43753,-3.55893c0,0 4.66565,1.05288 8.63639,0.64992c3.65632,-0.37105 8.149,-5.01352 8.149,-5.01352c0,0 2.72672,2.58195 3.66752,4.90495c0.74063,1.82874 -2.27739,6.6569 -2.27739,6.6569l-12.52249,2.60925c0,0 -6.78141,-4.30616 -7.09056,-6.24858z" data-paper-data="{&quot;index&quot;:null}" fill="url(#color-7)"/><path d="M122.5032,248.21124c-1.56883,-1.2213 -1.37941,-3.58186 -1.37941,-3.58186c0,0 4.12791,-2.41604 6.75412,-5.42139c2.41826,-2.76738 2.53143,-9.22678 2.53143,-9.22678c0,0 3.75511,0.02497 6.02851,1.08002c1.78968,0.83057 2.88079,6.41887 2.88079,6.41887l-7.36848,10.45593c0,0 -7.89493,1.48343 -9.44696,0.27521z" data-paper-data="{&quot;index&quot;:null}" fill="url(#color-8)"/><path d="M144.73063,256.19756c-1.74896,-0.94549 -1.9519,-3.30493 -1.9519,-3.30493c0,0 3.67231,-3.06448 5.76623,-6.46221c1.92811,-3.12869 0.97316,-9.51811 0.97316,-9.51811c0,0 3.7077,-0.59541 6.12408,0.06977c1.90226,0.52366 3.90114,5.85509 3.90114,5.85509l-5.54085,11.52908c0,0 -7.54162,2.76667 -9.27183,1.8313z" data-paper-data="{&quot;index&quot;:null}" fill="url(#color-9)"/><path d="M169.59965,259.04797c-1.98291,-0.14436 -3.13637,-2.21261 -3.13637,-2.21261c0,0 2.09099,-4.3017 2.60589,-8.25948c0.47412,-3.64439 -3.01911,-9.0789 -3.01911,-9.0789c0,0 3.13664,-2.0647 5.61314,-2.44988c1.94958,-0.30322 5.96052,3.73806 5.96052,3.73806l-0.32077,12.78742c0,0 -5.74162,5.61821 -7.70329,5.4754z" data-paper-data="{&quot;index&quot;:null}" fill="url(#color-10)"/><path d="M191.3788,253.74845c-1.83456,0.76627 -3.79742,-0.5586 -3.79742,-0.5586c0,0 -0.07596,-4.78238 -1.40305,-8.5464c-1.22201,-3.46598 -6.79225,-6.73847 -6.79225,-6.73847c0,0 1.86687,-3.25826 3.90285,-4.71986c1.60277,-1.15062 7.00606,0.64496 7.00606,0.64496l5.48602,11.55527c0,0 -2.58729,7.60503 -4.4022,8.3631z" data-paper-data="{&quot;index&quot;:null}" fill="url(#color-11)"/><path d="M210.41791,245.75345c-1.52878,1.27107 -3.79409,0.5808 -3.79409,0.5808c0,0 -1.47654,-4.54936 -3.85014,-7.75797c-2.18565,-2.95453 -8.47114,-4.44761 -8.47114,-4.44761c0,0 0.82811,-3.66275 2.3453,-5.65764c1.19438,-1.57044 6.88671,-1.44018 6.88671,-1.44018l8.63652,9.43565c0,0 -0.24074,8.02948 -1.75314,9.28694z" data-paper-data="{&quot;index&quot;:null}" fill="url(#color-12)"/><path d="M227.15081,238.29246c-1.50706,1.38404 -3.87063,0.78929 -3.87063,0.78929c0,0 -1.74832,-4.60159 -4.35083,-7.77953c-2.39643,-2.92628 -8.93312,-4.14254 -8.93312,-4.14254c0,0 0.66563,-3.80701 2.12409,-5.9345c1.14815,-1.67482 7.00606,-1.8294 7.00606,-1.8294l9.3559,9.26151c0,0 0.15944,8.26594 -1.33147,9.63516z" data-paper-data="{&quot;index&quot;:null}" fill="url(#color-13)"/><path d="M241.54254,221.0206c-1.07376,1.67328 -3.44176,1.69905 -3.44176,1.69905c0,0 -2.781,-3.89139 -6.01248,-6.23376c-2.97559,-2.15689 -9.41857,-1.68286 -9.41857,-1.68286c0,0 -0.31622,-3.74186 0.52797,-6.10168c0.66458,-1.85773 6.13067,-3.45192 6.13067,-3.45192l11.08201,6.38828c0,0 2.19441,7.72755 1.13217,9.38291z" data-paper-data="{&quot;index&quot;:null}" fill="url(#color-14)"/><path d="M250.23913,207.44383c-0.9473,1.74798 -3.30694,1.9485 -3.30694,1.9485c0,0 -3.06069,-3.67547 -6.45626,-5.7729c-3.1267,-1.93134 -9.5171,-0.98298 -9.5171,-0.98298c0,0 -0.59159,-3.70831 0.07609,-6.12401c0.52562,-1.90172 5.85911,-3.89509 5.85911,-3.89509l11.52336,5.55275c0,0 2.75889,7.54447 1.82174,9.27373z" data-paper-data="{&quot;index&quot;:null}" fill="url(#color-15)"/><path d="M55.54788,153.16759c-0.67232,-0.15337 -0.97153,-1.97856 -1.97888,-2.67874c-1.73439,-1.20551 -4.17395,-1.47899 -4.17395,-1.47899c0,0 -3.23415,-2.17544 -2.18938,-5.79547c0.96204,-3.33337 3.2416,-6.54754 3.2416,-6.54754c0,0 5.15443,-1.99321 7.52044,-1.99959c1.8626,-0.00502 5.02946,4.33818 5.02946,4.33818l-3.37611,9.11659c0,0 -2.26289,5.4585 -4.07318,5.04554z" data-paper-data="{&quot;index&quot;:null}" fill="url(#color-16)"/></g></g></svg>