<svg version="1.1" xmlns="http://www.w3.org/2000/svg" xmlns:xlink="http://www.w3.org/1999/xlink" width="236.93585" height="91.01277" viewBox="0,0,236.93585,91.01277"><defs><radialGradient cx="98.70885" cy="213.93556" r="45.5" gradientUnits="userSpaceOnUse" id="color-1"><stop offset="0" stop-color="#fff082"/><stop offset="1" stop-color="#ffd183"/></radialGradient><linearGradient x1="37.08387" y1="179.86514" x2="64.02531" y2="179.61056" gradientUnits="userSpaceOnUse" id="color-2"><stop offset="0" stop-color="#9b7522"/><stop offset="1" stop-color="#9b7522" stop-opacity="0"/></linearGradient><linearGradient x1="22.07433" y1="191.84975" x2="48.88992" y2="189.23621" gradientUnits="userSpaceOnUse" id="color-3"><stop offset="0" stop-color="#9b7522"/><stop offset="1" stop-color="#9b7522" stop-opacity="0"/></linearGradient><linearGradient x1="54.60187" y1="172.33367" x2="78.75522" y2="184.27192" gradientUnits="userSpaceOnUse" id="color-4"><stop offset="0" stop-color="#9b7522"/><stop offset="1" stop-color="#9b7522" stop-opacity="0"/></linearGradient><linearGradient x1="74.38117" y1="169.70271" x2="91.91517" y2="190.15912" gradientUnits="userSpaceOnUse" id="color-5"><stop offset="0" stop-color="#9b7522"/><stop offset="1" stop-color="#9b7522" stop-opacity="0"/></linearGradient><linearGradient x1="96.92897" y1="174.07109" x2="102.40184" y2="200.45202" gradientUnits="userSpaceOnUse" id="color-6"><stop offset="0" stop-color="#9b7522"/><stop offset="1" stop-color="#9b7522" stop-opacity="0"/></linearGradient><linearGradient x1="109.87596" y1="188.93416" x2="114.60488" y2="215.45855" gradientUnits="userSpaceOnUse" id="color-7"><stop offset="0" stop-color="#9b7522"/><stop offset="1" stop-color="#9b7522" stop-opacity="0"/></linearGradient><linearGradient x1="120.20333" y1="208.21837" x2="126.21841" y2="234.48099" gradientUnits="userSpaceOnUse" id="color-8"><stop offset="0" stop-color="#9b7522"/><stop offset="1" stop-color="#9b7522" stop-opacity="0"/></linearGradient><linearGradient x1="131.47063" y1="220.13556" x2="139.12679" y2="245.9675" gradientUnits="userSpaceOnUse" id="color-9"><stop offset="0" stop-color="#9b7522"/><stop offset="1" stop-color="#9b7522" stop-opacity="0"/></linearGradient><linearGradient x1="147.6848" y1="230.90709" x2="160.08735" y2="254.82535" gradientUnits="userSpaceOnUse" id="color-10"><stop offset="0" stop-color="#9b7522"/><stop offset="1" stop-color="#9b7522" stop-opacity="0"/></linearGradient><linearGradient x1="163.98009" y1="239.01176" x2="186.17812" y2="254.28114" gradientUnits="userSpaceOnUse" id="color-11"><stop offset="0" stop-color="#9b7522"/><stop offset="1" stop-color="#9b7522" stop-opacity="0"/></linearGradient><linearGradient x1="182.23062" y1="242.71152" x2="209.17207" y2="242.45694" gradientUnits="userSpaceOnUse" id="color-12"><stop offset="0" stop-color="#9b7522"/><stop offset="1" stop-color="#9b7522" stop-opacity="0"/></linearGradient><linearGradient x1="199.07502" y1="235.96054" x2="224.35797" y2="226.65042" gradientUnits="userSpaceOnUse" id="color-13"><stop offset="0" stop-color="#9b7522"/><stop offset="1" stop-color="#9b7522" stop-opacity="0"/></linearGradient><linearGradient x1="213.1203" y1="222.56952" x2="235.80876" y2="208.03886" gradientUnits="userSpaceOnUse" id="color-14"><stop offset="0" stop-color="#9b7522"/><stop offset="1" stop-color="#9b7522" stop-opacity="0"/></linearGradient><linearGradient x1="221.63909" y1="205.23845" x2="246.5586" y2="194.99518" gradientUnits="userSpaceOnUse" id="color-15"><stop offset="0" stop-color="#9b7522"/><stop offset="1" stop-color="#9b7522" stop-opacity="0"/></linearGradient><linearGradient x1="9.81278" y1="201.58102" x2="33.21355" y2="191.61438" gradientUnits="userSpaceOnUse" id="color-16"><stop offset="0" stop-color="#9b7522"/><stop offset="1" stop-color="#9b7522" stop-opacity="0"/></linearGradient></defs><g transform="translate(-8.64193,-164.75619)"><g data-paper-data="{&quot;isPaintingLayer&quot;:true}" fill-rule="nonzero" stroke="none" stroke-width="0" stroke-linecap="butt" stroke-linejoin="miter" stroke-miterlimit="10" stroke-dasharray="" stroke-dashoffset="0" style="mix-blend-mode: normal"><path d="M236.17075,170.39848c-1.27434,6.03444 13.26555,4.67652 8.41136,22.83424c-3.75005,14.02755 -24.54119,48.02572 -38.98833,54.07609c-8.94719,3.74702 -19.56391,8.17708 -28.0715,8.4445c-22.87009,0.71887 -60.42595,-23.53741 -64.60504,-31.66288c-5.30744,-10.3193 -10.77612,-32.31206 -20.81796,-34.82308c-5.24516,-1.31158 -26.16147,-5.36572 -36.60634,-5.66332c-11.90245,6.37385 -23.44608,16.22295 -32.44947,21.16698c-9.40612,5.16516 -13.28768,-2.77253 -12.00664,-8.83873c1.75861,-8.32765 17.15105,-18.64464 30.73103,-25.97331c21.2267,-11.45536 40.53079,-0.88207 55.52489,2.28433c2.27665,0.48078 9.29515,2.99012 15.28049,8.35045c6.68953,5.991 12.26956,32.83091 16.22444,35.24495c6.54279,3.99368 15.65429,15.89201 25.4733,15.32864c1.93377,-0.11095 7.96,1.40203 11.38681,1.80305c0.71367,0.08353 9.28148,-0.15422 10.22992,0.13234c6.17743,1.86639 10.28374,-2.40539 12.9024,-3.22405c31.27343,-9.77684 49.84271,-71.13904 47.38063,-59.4802z" data-paper-data="{&quot;index&quot;:null}" fill="url(#color-1)"/><path d="M51.8969,188.98502c-1.75841,0.92777 -3.83224,-0.21567 -3.83224,-0.21567c0,0 -0.50469,-4.75627 -2.16411,-8.38607c-1.52803,-3.34238 -7.36938,-6.10195 -7.36938,-6.10195c0,0 1.56704,-3.41261 3.46367,-5.05097c1.49309,-1.28976 7.03567,0.01383 7.03567,0.01383l6.50056,11.01652c0,0 -1.8946,7.80647 -3.63418,8.7243z" data-paper-data="{&quot;index&quot;:null}" fill="url(#color-2)"/><path d="M37.62928,199.63704c-1.67039,1.07823 -3.83638,0.12084 -3.83638,0.12084c0,0 -0.91938,-4.69379 -2.89037,-8.16427c-1.81493,-3.19568 -7.87556,-5.43296 -7.87556,-5.43296c0,0 1.26209,-3.53676 3.00792,-5.33495c1.37437,-1.41559 7.00983,-0.60251 7.00983,-0.60251l7.44057,10.40476c0,0 -1.2035,7.94243 -2.85601,9.00911z" data-paper-data="{&quot;index&quot;:null}" fill="url(#color-3)"/><path d="M63.70065,187.15967c-1.98788,0.03379 -3.32191,-1.92287 -3.32191,-1.92287c0,0 1.69739,-4.47166 1.85581,-8.45964c0.14587,-3.6722 -3.81997,-8.77208 -3.81997,-8.77208c0,0 2.93915,-2.33728 5.37121,-2.94269c1.9146,-0.47658 6.27131,3.18929 6.27131,3.18929l0.82559,12.76477c0,0 -5.21545,6.10979 -7.18204,6.14322z" data-paper-data="{&quot;index&quot;:null}" fill="url(#color-4)"/><path d="M76.93451,186.90964c-1.84179,-0.74874 -2.30131,-3.07188 -2.30131,-3.07188c0,0 3.31552,-3.44735 5.02568,-7.05352c1.57475,-3.32062 -0.07258,-9.56746 -0.07258,-9.56746c0,0 3.62044,-0.99694 6.09505,-0.59973c1.94808,0.31269 4.51748,5.39382 4.51748,5.39382l-4.24808,12.06544c0,0 -7.1942,3.57407 -9.01626,2.83336z" data-paper-data="{&quot;index&quot;:null}" fill="url(#color-5)"/><path d="M90.8539,190.37114c-1.25107,-1.54519 -0.53137,-3.80133 -0.53137,-3.80133c0,0 4.5682,-1.41722 7.80741,-3.74885c2.98272,-2.14702 4.55748,-8.41255 4.55748,-8.41255c0,0 3.65166,0.87571 5.62664,2.41873c1.55475,1.21471 1.35043,6.90487 1.35043,6.90487l-9.54725,8.51299c0,0 -8.02567,-0.34521 -9.26333,-1.87385z" data-paper-data="{&quot;index&quot;:null}" fill="url(#color-6)"/><path d="M103.34496,205.05695c-1.20713,-1.57976 -0.42428,-3.81477 -0.42428,-3.81477c0,0 4.60623,-1.2882 7.90974,-3.52784c3.04192,-2.06231 4.79222,-8.28108 4.79222,-8.28108c0,0 3.62559,0.97805 5.55641,2.57598c1.52,1.25794 1.15575,6.94011 1.15575,6.94011l-9.78284,8.24117c0,0 -8.01279,-0.57074 -9.20699,-2.13357z" data-paper-data="{&quot;index&quot;:null}" fill="url(#color-7)"/><path d="M114.46529,224.64009c-1.28263,-1.51909 -0.60956,-3.78958 -0.60956,-3.78958c0,0 4.53804,-1.51099 7.72855,-3.90887c2.93787,-2.208 4.38325,-8.50463 4.38325,-8.50463c0,0 3.66893,0.80031 5.67527,2.30233c1.57945,1.18244 1.49236,6.87559 1.49236,6.87559l-9.36988,8.70783c0,0 -8.03108,-0.17983 -9.29997,-1.68266z" data-paper-data="{&quot;index&quot;:null}" fill="url(#color-8)"/><path d="M126.77756,236.88588c-1.37571,-1.43535 -0.84687,-3.74371 -0.84687,-3.74371c0,0 4.43393,-1.79363 7.46719,-4.38757c2.79307,-2.38853 3.83925,-8.76365 3.83925,-8.76365c0,0 3.71202,0.5678 5.80892,1.94054c1.65074,1.08067 1.92216,6.76802 1.92216,6.76802l-8.80321,9.28031c0,0 -8.02647,0.32601 -9.38744,-1.09397z" data-paper-data="{&quot;index&quot;:null}" fill="url(#color-9)"/><path d="M146.24368,248.24264c-1.6223,-1.14933 -1.53948,-3.51603 -1.53948,-3.51603c0,0 4.01479,-2.59968 6.50285,-5.72037c2.29104,-2.87359 2.11289,-9.33151 2.11289,-9.33151c0,0 3.75242,-0.14434 6.07106,0.80715c1.8253,0.74905 3.16724,6.28247 3.16724,6.28247l-6.88961,10.77748c0,0 -7.82003,1.83784 -9.42495,0.70082z" data-paper-data="{&quot;index&quot;:null}" fill="url(#color-10)"/><path d="M170.86533,254.98649c-1.97228,-0.25082 -3.0128,-2.37812 -3.0128,-2.37812c0,0 2.31937,-4.18299 3.04643,-8.10733c0.66948,-3.6136 -2.52635,-9.22817 -2.52635,-9.22817c0,0 3.24317,-1.89299 5.7368,-2.14438c1.96306,-0.19791 5.7508,4.05329 5.7508,4.05329l-1.00819,12.75164c0,0 -6.03552,5.30122 -7.98668,5.05309z" data-paper-data="{&quot;index&quot;:null}" fill="url(#color-11)"/><path d="M197.04366,251.8314c-1.75841,0.92777 -3.83222,-0.21566 -3.83222,-0.21566c0,0 -0.50469,-4.75627 -2.1641,-8.38608c-1.52802,-3.34237 -7.36938,-6.10195 -7.36938,-6.10195c0,0 1.56704,-3.41261 3.46367,-5.05097c1.49309,-1.28976 7.03567,0.01383 7.03567,0.01383l6.50056,11.01652c0,0 -1.8946,7.80647 -3.63418,8.7243z" data-paper-data="{&quot;index&quot;:null}" fill="url(#color-12)"/><path d="M216.0937,239.56091c-1.34341,1.46561 -3.68112,1.08713 -3.68112,1.08713c0,0 -2.07653,-4.30869 -4.86113,-7.16792c-2.56411,-2.63281 -8.99352,-3.26467 -8.99352,-3.26467c0,0 0.32664,-3.74097 1.56096,-5.92222c0.9717,-1.71715 6.6296,-2.35569 6.6296,-2.35569l9.83002,8.18485c0,0 0.84422,7.9886 -0.4848,9.43853z" data-paper-data="{&quot;index&quot;:null}" fill="url(#color-13)"/><path d="M230.51505,222.42483c-0.99671,1.72028 -3.3611,1.8535 -3.3611,1.8535c0,0 -2.95474,-3.76117 -6.28918,-5.95448c-3.07041,-2.01963 -9.48524,-1.25369 -9.48524,-1.25369c0,0 -0.48571,-3.72366 0.25052,-6.11935c0.57959,-1.88597 5.96769,-3.72659 5.96769,-3.72659l11.3605,5.87877c0,0 2.54285,7.62 1.55682,9.32186z" data-paper-data="{&quot;index&quot;:null}" fill="url(#color-14)"/><path d="M238.77982,208.20389c-1.28803,1.51453 -3.63818,1.22317 -3.63818,1.22317c0,0 -2.23522,-4.22855 -5.12415,-6.98232c-2.66018,-2.5357 -9.10863,-2.92819 -9.10863,-2.92819c0,0 0.18739,-3.75053 1.33979,-5.97614c0.90721,-1.75208 6.53748,-2.60043 6.53748,-2.60043l10.12739,7.81389c0,0 1.14052,7.95172 -0.13371,9.45003z" data-paper-data="{&quot;index&quot;:null}" fill="url(#color-15)"/><path d="M25.66976,201.03383c-0.44007,0.53091 -2.20408,-0.0251 -3.28328,0.55826c-1.8581,1.00441 -3.20233,3.0585 -3.20233,3.0585c0,0 -3.40014,1.90561 -6.16004,-0.65935c-2.54136,-2.36186 -4.38218,-5.84592 -4.38218,-5.84592c0,0 0.54537,-5.49941 1.60663,-7.61407c0.83546,-1.66472 6.14009,-2.53271 6.14009,-2.53271l6.61453,7.12449c0,0 3.85151,4.48126 2.66657,5.9108z" data-paper-data="{&quot;index&quot;:null}" fill="url(#color-16)"/></g></g></svg>