<svg version="1.1" xmlns="http://www.w3.org/2000/svg" xmlns:xlink="http://www.w3.org/1999/xlink" width="215.95992" height="146.09988" viewBox="0,0,215.95992,146.09988"><defs><radialGradient cx="100.34489" cy="220.44807" r="45.5" gradientUnits="userSpaceOnUse" id="color-1"><stop offset="0" stop-color="#fff082"/><stop offset="1" stop-color="#ffd183"/></radialGradient><linearGradient x1="63.91355" y1="282.55974" x2="82.58179" y2="263.13288" gradientUnits="userSpaceOnUse" id="color-2"><stop offset="0" stop-color="#9b7522"/><stop offset="1" stop-color="#9b7522" stop-opacity="0"/></linearGradient><linearGradient x1="44.24661" y1="278.62948" x2="69.11369" y2="268.25959" gradientUnits="userSpaceOnUse" id="color-3"><stop offset="0" stop-color="#9b7522"/><stop offset="1" stop-color="#9b7522" stop-opacity="0"/></linearGradient><linearGradient x1="83.65543" y1="280.31406" x2="96.40061" y2="256.57662" gradientUnits="userSpaceOnUse" id="color-4"><stop offset="0" stop-color="#9b7522"/><stop offset="1" stop-color="#9b7522" stop-opacity="0"/></linearGradient><linearGradient x1="101.45504" y1="270.73631" x2="103.9885" y2="243.91304" gradientUnits="userSpaceOnUse" id="color-5"><stop offset="0" stop-color="#9b7522"/><stop offset="1" stop-color="#9b7522" stop-opacity="0"/></linearGradient><linearGradient x1="117.61641" y1="256.42081" x2="109.97179" y2="230.58546" gradientUnits="userSpaceOnUse" id="color-6"><stop offset="0" stop-color="#9b7522"/><stop offset="1" stop-color="#9b7522" stop-opacity="0"/></linearGradient><linearGradient x1="122.00193" y1="237.20357" x2="113.63389" y2="211.59338" gradientUnits="userSpaceOnUse" id="color-7"><stop offset="0" stop-color="#9b7522"/><stop offset="1" stop-color="#9b7522" stop-opacity="0"/></linearGradient><linearGradient x1="121.9894" y1="215.32812" x2="114.87854" y2="189.34078" gradientUnits="userSpaceOnUse" id="color-8"><stop offset="0" stop-color="#9b7522"/><stop offset="1" stop-color="#9b7522" stop-opacity="0"/></linearGradient><linearGradient x1="126.28689" y1="199.50083" x2="120.82581" y2="173.11746" gradientUnits="userSpaceOnUse" id="color-9"><stop offset="0" stop-color="#9b7522"/><stop offset="1" stop-color="#9b7522" stop-opacity="0"/></linearGradient><linearGradient x1="135.48537" y1="182.34528" x2="135.11158" y2="155.40522" gradientUnits="userSpaceOnUse" id="color-10"><stop offset="0" stop-color="#9b7522"/><stop offset="1" stop-color="#9b7522" stop-opacity="0"/></linearGradient><linearGradient x1="146.01571" y1="167.50162" x2="158.36193" y2="143.55423" gradientUnits="userSpaceOnUse" id="color-11"><stop offset="0" stop-color="#9b7522"/><stop offset="1" stop-color="#9b7522" stop-opacity="0"/></linearGradient><linearGradient x1="160.35094" y1="155.61585" x2="184.21408" y2="143.10759" gradientUnits="userSpaceOnUse" id="color-12"><stop offset="0" stop-color="#9b7522"/><stop offset="1" stop-color="#9b7522" stop-opacity="0"/></linearGradient><linearGradient x1="178.38602" y1="153.6046" x2="205.06726" y2="149.86057" gradientUnits="userSpaceOnUse" id="color-13"><stop offset="0" stop-color="#9b7522"/><stop offset="1" stop-color="#9b7522" stop-opacity="0"/></linearGradient><linearGradient x1="197.09242" y1="158.76793" x2="223.95444" y2="160.8508" gradientUnits="userSpaceOnUse" id="color-14"><stop offset="0" stop-color="#9b7522"/><stop offset="1" stop-color="#9b7522" stop-opacity="0"/></linearGradient><linearGradient x1="212.79054" y1="170.01536" x2="239.59249" y2="167.26546" gradientUnits="userSpaceOnUse" id="color-15"><stop offset="0" stop-color="#9b7522"/><stop offset="1" stop-color="#9b7522" stop-opacity="0"/></linearGradient><linearGradient x1="27.84178" y1="273.3484" x2="53.17457" y2="271.07247" gradientUnits="userSpaceOnUse" id="color-16"><stop offset="0" stop-color="#9b7522"/><stop offset="1" stop-color="#9b7522" stop-opacity="0"/></linearGradient></defs><g transform="translate(-28.43362,-140.44397)"><g data-paper-data="{&quot;isPaintingLayer&quot;:true}" fill-rule="nonzero" stroke="none" stroke-width="0" stroke-linecap="butt" stroke-linejoin="miter" stroke-miterlimit="10" stroke-dasharray="" stroke-dashoffset="0" style="mix-blend-mode: normal"><path d="M242.06242,193.85126c7.67978,9.11106 -37.68485,-36.19002 -69.86592,-30.02618c-2.69466,0.51612 -8.33231,-1.30783 -12.89426,3.25644c-0.70041,0.70077 -8.36337,4.54043 -8.95283,4.95132c-2.83044,1.97293 -7.42617,6.1543 -9.18279,6.97043c-8.9195,4.14401 -11.32605,18.93584 -15.20462,25.54752c-2.34445,3.99652 5.42264,30.28701 2.35869,38.72823c-2.74142,7.55262 -7.74073,13.081 -9.51987,14.58066c-11.71748,9.87673 -23.73272,28.31789 -47.85313,28.25438c-15.43125,-0.04063 -33.87207,-1.85822 -39.35757,-8.36604c-3.99586,-4.74057 -4.32651,-13.5703 6.40394,-13.46373c10.27103,0.10202 25.09886,3.32623 38.6005,3.3182c9.06416,-5.19855 25.58118,-18.65648 29.58376,-22.29122c7.66291,-6.95871 2.08847,-28.9249 1.88885,-40.52736c-0.1572,-9.13583 21.47625,-48.26131 41.97084,-58.43627c7.62391,-3.78505 19.07383,-4.89844 28.72962,-5.82476c15.59133,-1.49573 49.9817,18.64005 59.91599,29.2299c12.85928,13.70784 -0.59612,19.38274 3.37882,24.09849z" data-paper-data="{&quot;index&quot;:null}" fill="url(#color-1)"/><path d="M67.44069,265.52574c1.86121,-0.63598 8.84066,3.34116 8.84066,3.34116l3.55551,12.28736c0,0 -2.85402,4.92688 -4.81672,5.12836c-2.49318,0.25593 -6.05111,-0.94516 -6.05111,-0.94516c0,0 1.99967,-6.14312 0.61618,-9.54787c-1.50246,-3.69753 -4.6167,-7.32773 -4.6167,-7.32773c0,0 0.59082,-2.29328 2.47217,-2.93614z" data-paper-data="{&quot;index&quot;:null}" fill="url(#color-2)"/><path d="M54.27449,264.41539c1.96043,0.15906 6.77467,6.58975 6.77467,6.58975l-1.63986,12.6859c0,0 -4.58213,3.37988 -6.46234,2.78189c-2.38839,-0.75962 -5.17212,-3.28001 -5.17212,-3.28001c0,0 4.28374,-4.83593 4.3729,-8.50995c0.09682,-3.98994 -1.31125,-8.56097 -1.31125,-8.56097c0,0 1.45637,-1.86738 3.43802,-1.70659z" data-paper-data="{&quot;index&quot;:null}" fill="url(#color-3)"/><path d="M91.87762,263.79585l6.73393,10.87543c0,0 -1.42137,5.51355 -3.25726,6.23627c-2.33209,0.91804 -6.08204,0.71976 -6.08204,0.71976c0,0 0.27099,-6.45471 -1.9785,-9.36094c-2.44292,-3.15614 -6.41992,-5.81328 -6.41992,-5.81328c0,0 -0.04878,-2.36765 1.58988,-3.49353c1.62111,-1.11383 9.4139,0.83627 9.4139,0.83627z" data-paper-data="{&quot;index&quot;:null}" fill="url(#color-4)"/><path d="M93.6213,255.20467c1.06175,-1.65566 9.00055,-2.88288 9.00055,-2.88288l10.42694,7.40947c0,0 0.82991,5.63302 -0.58158,7.01162c-1.79298,1.7512 -5.32595,3.02383 -5.32595,3.02383c0,0 -2.25537,-6.05393 -5.45645,-7.85931c-3.47635,-1.96063 -8.17286,-2.86599 -8.17286,-2.86599c0,0 -0.96385,-2.16313 0.1094,-3.83673z" data-paper-data="{&quot;index&quot;:null}" fill="url(#color-5)"/><path d="M104.55914,244.92707c0.36828,-1.93207 7.27796,-6.02926 7.27796,-6.02926l12.43702,2.99022c0,0 2.86925,4.91803 2.07316,6.72331c-1.01126,2.29321 -3.81552,4.79074 -3.81552,4.79074c0,0 -4.34891,-4.77742 -7.99219,-5.25989c-3.95657,-0.52395 -8.6522,0.38604 -8.6522,0.38604c0,0 -1.70051,-1.64815 -1.32824,-3.60115z" data-paper-data="{&quot;index&quot;:null}" fill="url(#color-6)"/><path d="M108.62664,226.08152c0.31382,-1.94167 7.10556,-6.23152 7.10556,-6.23152l12.51618,2.63934c0,0 3.00642,4.83541 2.26139,6.66236c-0.9464,2.32073 -3.67931,4.89613 -3.67931,4.89613c0,0 -4.48151,-4.65325 -8.13693,-5.03309c-3.96976,-0.41249 -8.63793,0.62917 -8.63793,0.62917c0,0 -1.74618,-1.59968 -1.42897,-3.56238z" data-paper-data="{&quot;index&quot;:null}" fill="url(#color-7)"/><path d="M109.17166,203.56786c0.408,-1.92409 7.4006,-5.87808 7.4006,-5.87808l12.37279,3.24576c0,0 2.76735,4.97607 1.93425,6.76458c-1.05828,2.2719 -3.91339,4.71114 -3.91339,4.71114c0,0 -4.24959,-4.86597 -7.88217,-5.42338c-3.94496,-0.60535 -8.65832,0.20775 -8.65832,0.20775c0,0 -1.6662,-1.68283 -1.25378,-3.62774z" data-paper-data="{&quot;index&quot;:null}" fill="url(#color-8)"/><path d="M114.23476,186.95718c0.5283,-1.89459 7.7559,-5.40062 7.7559,-5.40062l12.14396,4.01808c0,0 2.44867,5.14039 1.50464,6.87291c-1.19918,2.20076 -4.20215,4.45547 -4.20215,4.45547c0,0 -3.93488,-5.12381 -7.52517,-5.90874c-3.89904,-0.85245 -8.65423,-0.33764 -8.65423,-0.33764c0,0 -1.55699,-1.78437 -1.02296,-3.69947z" data-paper-data="{&quot;index&quot;:null}" fill="url(#color-9)"/><path d="M126.02251,167.74896c0.87702,-1.76052 8.63718,-3.83665 8.63718,-3.83665l11.16512,6.24187c0,0 1.43249,5.51067 0.17791,7.03343c-1.59368,1.93432 -4.96881,3.58052 -4.96881,3.58052c0,0 -2.89504,-5.7754 -6.27214,-7.22507c-3.66751,-1.57432 -8.43427,-1.96795 -8.43427,-1.96795c0,0 -1.1915,-2.04657 -0.30498,-3.82615z" data-paper-data="{&quot;index&quot;:null}" fill="url(#color-10)"/><path d="M144.53379,150.16948c1.60224,-1.1408 9.42657,0.67863 9.42657,0.67863l6.91496,10.76123c0,0 -1.32891,5.53658 -3.15244,6.28991c-2.31638,0.95695 -6.06914,0.82144 -6.06914,0.82144c0,0 0.16294,-6.45834 -2.13485,-9.32652c-2.4954,-3.11481 -6.5163,-5.70504 -6.5163,-5.70504c0,0 -0.08838,-2.36649 1.5312,-3.51964z" data-paper-data="{&quot;index&quot;:null}" fill="url(#color-11)"/><path d="M169.09524,140.57803c1.96682,-0.01327 7.32585,5.97098 7.32585,5.97098l-0.52234,12.78077c0,0 -4.26846,3.76826 -6.19383,3.33727c-2.44575,-0.54749 -5.43955,-2.81435 -5.43955,-2.81435c0,0 3.84366,-5.1926 3.61065,-8.86029c-0.25306,-3.9831 -2.05612,-8.41321 -2.05612,-8.41321c0,0 1.28721,-1.98777 3.27532,-2.00118z" data-paper-data="{&quot;index&quot;:null}" fill="url(#color-12)"/><path d="M191.68262,142.38859c1.85647,0.64969 4.88792,8.08882 4.88792,8.08882l-4.79476,11.85881c0,0 -5.28794,2.11121 -6.95581,1.05716c-2.11864,-1.33894 -4.1745,-4.48139 -4.1745,-4.48139c0,0 5.36746,-3.5954 6.38287,-7.12744c1.10272,-3.83578 0.89641,-8.6143 0.89641,-8.6143c0,0 1.88129,-1.43835 3.75786,-0.78165z" data-paper-data="{&quot;index&quot;:null}" fill="url(#color-13)"/><path d="M212.49037,150.6746c1.67327,1.03381 3.03356,8.95088 3.03356,8.95088l-7.2334,10.54983c0,0 -5.61828,0.92434 -7.02038,-0.4638c-1.78103,-1.76332 -3.1128,-5.27443 -3.1128,-5.27443c0,0 6.01522,-2.35667 7.76661,-5.5876c1.90199,-3.50878 2.72839,-8.21982 2.72839,-8.21982c0,0 2.14664,-1.00002 3.83802,0.04498z" data-paper-data="{&quot;index&quot;:null}" fill="url(#color-14)"/><path d="M226.49475,159.30122c1.83105,0.71822 4.58395,8.26489 4.58395,8.26489l-5.23215,11.67243c0,0 -5.36275,1.91325 -6.99029,0.79794c-2.06741,-1.41675 -4.00507,-4.63343 -4.00507,-4.63343c0,0 5.49737,-3.39345 6.64334,-6.88531c1.2445,-3.79215 1.21592,-8.57504 1.21592,-8.57504c0,0 1.93343,-1.36746 3.78431,-0.64147z" data-paper-data="{&quot;index&quot;:null}" fill="url(#color-15)"/><path d="M42.07474,266.33657c1.71986,0.69981 0.44348,6.46927 0.44348,6.46927l-2.46216,9.40469c0,0 -5.08505,1.74205 -6.60808,0.66981c-1.93466,-1.36204 -5.01432,-5.95079 -5.01432,-5.95079c0,0 -0.02431,-3.94039 1.0991,-7.2229c1.22002,-3.56477 5.11708,-3.49232 5.11708,-3.49232c0,0 2.15541,1.17493 4.26759,1.18195c1.22677,0.00407 2.51858,-1.31961 3.15731,-1.05971z" data-paper-data="{&quot;index&quot;:null}" fill="url(#color-16)"/></g></g></svg>