<svg version="1.1" xmlns="http://www.w3.org/2000/svg" xmlns:xlink="http://www.w3.org/1999/xlink" width="102.89134" height="104.41424" viewBox="0,0,102.89134,104.41424"><defs><linearGradient x1="194.7994" y1="158.76204" x2="249.06321" y2="183.88519" gradientUnits="userSpaceOnUse" id="color-1"><stop offset="0" stop-color="#240202"/><stop offset="1" stop-color="#240202" stop-opacity="0"/></linearGradient><linearGradient x1="193.12718" y1="164.61454" x2="250.56454" y2="181.24835" gradientUnits="userSpaceOnUse" id="color-2"><stop offset="0" stop-color="#240202"/><stop offset="1" stop-color="#240202" stop-opacity="0"/></linearGradient><linearGradient x1="192.81594" y1="170.6271" x2="251.84104" y2="180.2069" gradientUnits="userSpaceOnUse" id="color-3"><stop offset="0" stop-color="#240202"/><stop offset="1" stop-color="#240202" stop-opacity="0"/></linearGradient><linearGradient x1="192.33739" y1="175.85541" x2="251.69762" y2="183.07325" gradientUnits="userSpaceOnUse" id="color-4"><stop offset="0" stop-color="#240202"/><stop offset="1" stop-color="#240202" stop-opacity="0"/></linearGradient><linearGradient x1="192.54604" y1="181.93854" x2="252.31528" y2="180.10249" gradientUnits="userSpaceOnUse" id="color-5"><stop offset="0" stop-color="#240202"/><stop offset="1" stop-color="#240202" stop-opacity="0"/></linearGradient><linearGradient x1="194.09893" y1="187.75543" x2="253.20964" y2="178.71896" gradientUnits="userSpaceOnUse" id="color-6"><stop offset="0" stop-color="#240202"/><stop offset="1" stop-color="#240202" stop-opacity="0"/></linearGradient><linearGradient x1="195.79799" y1="192.88383" x2="254.59573" y2="181.99534" gradientUnits="userSpaceOnUse" id="color-7"><stop offset="0" stop-color="#240202"/><stop offset="1" stop-color="#240202" stop-opacity="0"/></linearGradient><linearGradient x1="197.81863" y1="198.62535" x2="254.29548" y2="178.97594" gradientUnits="userSpaceOnUse" id="color-8"><stop offset="0" stop-color="#240202"/><stop offset="1" stop-color="#240202" stop-opacity="0"/></linearGradient><linearGradient x1="201.0421" y1="203.71032" x2="254.7345" y2="177.38808" gradientUnits="userSpaceOnUse" id="color-9"><stop offset="0" stop-color="#240202"/><stop offset="1" stop-color="#240202" stop-opacity="0"/></linearGradient><linearGradient x1="284.6218" y1="154.97508" x2="232.05867" y2="183.48565" gradientUnits="userSpaceOnUse" id="color-10"><stop offset="0" stop-color="#240202"/><stop offset="1" stop-color="#240202" stop-opacity="0"/></linearGradient><linearGradient x1="286.66144" y1="160.70988" x2="230.3933" y2="180.94922" gradientUnits="userSpaceOnUse" id="color-11"><stop offset="0" stop-color="#240202"/><stop offset="1" stop-color="#240202" stop-opacity="0"/></linearGradient><linearGradient x1="287.35298" y1="166.69064" x2="229.05339" y2="179.99074" gradientUnits="userSpaceOnUse" id="color-12"><stop offset="0" stop-color="#240202"/><stop offset="1" stop-color="#240202" stop-opacity="0"/></linearGradient><linearGradient x1="288.16181" y1="171.87813" x2="229.37812" y2="182.84224" gradientUnits="userSpaceOnUse" id="color-13"><stop offset="0" stop-color="#240202"/><stop offset="1" stop-color="#240202" stop-opacity="0"/></linearGradient><linearGradient x1="288.33898" y1="177.96226" x2="228.57348" y2="179.91658" gradientUnits="userSpaceOnUse" id="color-14"><stop offset="0" stop-color="#240202"/><stop offset="1" stop-color="#240202" stop-opacity="0"/></linearGradient><linearGradient x1="287.15774" y1="183.86585" x2="227.59327" y2="178.59249" gradientUnits="userSpaceOnUse" id="color-15"><stop offset="0" stop-color="#240202"/><stop offset="1" stop-color="#240202" stop-opacity="0"/></linearGradient><linearGradient x1="285.787" y1="189.09158" x2="226.41753" y2="181.95011" gradientUnits="userSpaceOnUse" id="color-16"><stop offset="0" stop-color="#240202"/><stop offset="1" stop-color="#240202" stop-opacity="0"/></linearGradient><linearGradient x1="284.13418" y1="194.94959" x2="226.52589" y2="178.91775" gradientUnits="userSpaceOnUse" id="color-17"><stop offset="0" stop-color="#240202"/><stop offset="1" stop-color="#240202" stop-opacity="0"/></linearGradient><linearGradient x1="281.23934" y1="200.22857" x2="225.98715" y2="177.36089" gradientUnits="userSpaceOnUse" id="color-18"><stop offset="0" stop-color="#240202"/><stop offset="1" stop-color="#240202" stop-opacity="0"/></linearGradient><linearGradient x1="237.05943" y1="127.54021" x2="237.05943" y2="187.33765" gradientUnits="userSpaceOnUse" id="color-19"><stop offset="0" stop-color="#240202"/><stop offset="1" stop-color="#240202" stop-opacity="0"/></linearGradient><linearGradient x1="231.04596" y1="128.48159" x2="240.08302" y2="187.59221" gradientUnits="userSpaceOnUse" id="color-20"><stop offset="0" stop-color="#240202"/><stop offset="1" stop-color="#240202" stop-opacity="0"/></linearGradient><linearGradient x1="225.45904" y1="130.72525" x2="241.56439" y2="188.31303" gradientUnits="userSpaceOnUse" id="color-21"><stop offset="0" stop-color="#240202"/><stop offset="1" stop-color="#240202" stop-opacity="0"/></linearGradient><linearGradient x1="220.51349" y1="132.4876" x2="238.90304" y2="189.38714" gradientUnits="userSpaceOnUse" id="color-22"><stop offset="0" stop-color="#240202"/><stop offset="1" stop-color="#240202" stop-opacity="0"/></linearGradient><linearGradient x1="215.08095" y1="135.23268" x2="241.85839" y2="188.69952" gradientUnits="userSpaceOnUse" id="color-23"><stop offset="0" stop-color="#240202"/><stop offset="1" stop-color="#240202" stop-opacity="0"/></linearGradient><linearGradient x1="210.45478" y1="139.08577" x2="243.48965" y2="188.92984" gradientUnits="userSpaceOnUse" id="color-24"><stop offset="0" stop-color="#240202"/><stop offset="1" stop-color="#240202" stop-opacity="0"/></linearGradient><linearGradient x1="206.5148" y1="142.78223" x2="241.09881" y2="191.5642" gradientUnits="userSpaceOnUse" id="color-25"><stop offset="0" stop-color="#240202"/><stop offset="1" stop-color="#240202" stop-opacity="0"/></linearGradient><linearGradient x1="202.15355" y1="147.0281" x2="243.71265" y2="190.02316" gradientUnits="userSpaceOnUse" id="color-26"><stop offset="0" stop-color="#240202"/><stop offset="1" stop-color="#240202" stop-opacity="0"/></linearGradient><linearGradient x1="198.89344" y1="152.08967" x2="245.33802" y2="189.75444" gradientUnits="userSpaceOnUse" id="color-27"><stop offset="0" stop-color="#240202"/><stop offset="1" stop-color="#240202" stop-opacity="0"/></linearGradient><linearGradient x1="241.63604" y1="126.34156" x2="241.63604" y2="186.13901" gradientUnits="userSpaceOnUse" id="color-28"><stop offset="0" stop-color="#240202"/><stop offset="1" stop-color="#240202" stop-opacity="0"/></linearGradient><linearGradient x1="247.64951" y1="127.28295" x2="238.61245" y2="186.39357" gradientUnits="userSpaceOnUse" id="color-29"><stop offset="0" stop-color="#240202"/><stop offset="1" stop-color="#240202" stop-opacity="0"/></linearGradient><linearGradient x1="253.23643" y1="129.52661" x2="237.13107" y2="187.11438" gradientUnits="userSpaceOnUse" id="color-30"><stop offset="0" stop-color="#240202"/><stop offset="1" stop-color="#240202" stop-opacity="0"/></linearGradient><linearGradient x1="258.18198" y1="131.28895" x2="239.79243" y2="188.1885" gradientUnits="userSpaceOnUse" id="color-31"><stop offset="0" stop-color="#240202"/><stop offset="1" stop-color="#240202" stop-opacity="0"/></linearGradient><linearGradient x1="263.61452" y1="134.03404" x2="236.83707" y2="187.50088" gradientUnits="userSpaceOnUse" id="color-32"><stop offset="0" stop-color="#240202"/><stop offset="1" stop-color="#240202" stop-opacity="0"/></linearGradient><linearGradient x1="268.24069" y1="137.88712" x2="235.20582" y2="187.73119" gradientUnits="userSpaceOnUse" id="color-33"><stop offset="0" stop-color="#240202"/><stop offset="1" stop-color="#240202" stop-opacity="0"/></linearGradient><linearGradient x1="272.18067" y1="141.58359" x2="237.59665" y2="190.36555" gradientUnits="userSpaceOnUse" id="color-34"><stop offset="0" stop-color="#240202"/><stop offset="1" stop-color="#240202" stop-opacity="0"/></linearGradient><linearGradient x1="276.54192" y1="145.82946" x2="234.98282" y2="188.82452" gradientUnits="userSpaceOnUse" id="color-35"><stop offset="0" stop-color="#240202"/><stop offset="1" stop-color="#240202" stop-opacity="0"/></linearGradient><linearGradient x1="279.80203" y1="150.89102" x2="233.35745" y2="188.55579" gradientUnits="userSpaceOnUse" id="color-36"><stop offset="0" stop-color="#240202"/><stop offset="1" stop-color="#240202" stop-opacity="0"/></linearGradient><linearGradient x1="240.35008" y1="222.68046" x2="240.35008" y2="162.88302" gradientUnits="userSpaceOnUse" id="color-37"><stop offset="0" stop-color="#240202"/><stop offset="1" stop-color="#240202" stop-opacity="0"/></linearGradient><linearGradient x1="234.33662" y1="221.73907" x2="243.37368" y2="162.62845" gradientUnits="userSpaceOnUse" id="color-38"><stop offset="0" stop-color="#240202"/><stop offset="1" stop-color="#240202" stop-opacity="0"/></linearGradient><linearGradient x1="228.74969" y1="219.49541" x2="244.85505" y2="161.90764" gradientUnits="userSpaceOnUse" id="color-39"><stop offset="0" stop-color="#240202"/><stop offset="1" stop-color="#240202" stop-opacity="0"/></linearGradient><linearGradient x1="223.80414" y1="217.73307" x2="242.1937" y2="160.83352" gradientUnits="userSpaceOnUse" id="color-40"><stop offset="0" stop-color="#240202"/><stop offset="1" stop-color="#240202" stop-opacity="0"/></linearGradient><linearGradient x1="218.37161" y1="214.98798" x2="245.14905" y2="161.52114" gradientUnits="userSpaceOnUse" id="color-41"><stop offset="0" stop-color="#240202"/><stop offset="1" stop-color="#240202" stop-opacity="0"/></linearGradient><linearGradient x1="213.74543" y1="211.1349" x2="246.7803" y2="161.29083" gradientUnits="userSpaceOnUse" id="color-42"><stop offset="0" stop-color="#240202"/><stop offset="1" stop-color="#240202" stop-opacity="0"/></linearGradient><linearGradient x1="209.80546" y1="207.43844" x2="244.38947" y2="158.65647" gradientUnits="userSpaceOnUse" id="color-43"><stop offset="0" stop-color="#240202"/><stop offset="1" stop-color="#240202" stop-opacity="0"/></linearGradient><linearGradient x1="205.4442" y1="203.19256" x2="247.00331" y2="160.1975" gradientUnits="userSpaceOnUse" id="color-44"><stop offset="0" stop-color="#240202"/><stop offset="1" stop-color="#240202" stop-opacity="0"/></linearGradient><linearGradient x1="202.18409" y1="198.131" x2="248.62867" y2="160.46623" gradientUnits="userSpaceOnUse" id="color-45"><stop offset="0" stop-color="#240202"/><stop offset="1" stop-color="#240202" stop-opacity="0"/></linearGradient><linearGradient x1="244.9267" y1="223.8791" x2="244.9267" y2="164.08166" gradientUnits="userSpaceOnUse" id="color-46"><stop offset="0" stop-color="#240202"/><stop offset="1" stop-color="#240202" stop-opacity="0"/></linearGradient><linearGradient x1="250.94016" y1="222.93772" x2="241.9031" y2="163.82709" gradientUnits="userSpaceOnUse" id="color-47"><stop offset="0" stop-color="#240202"/><stop offset="1" stop-color="#240202" stop-opacity="0"/></linearGradient><linearGradient x1="256.52709" y1="220.69405" x2="240.42173" y2="163.10628" gradientUnits="userSpaceOnUse" id="color-48"><stop offset="0" stop-color="#240202"/><stop offset="1" stop-color="#240202" stop-opacity="0"/></linearGradient><linearGradient x1="261.47263" y1="218.93171" x2="243.08308" y2="162.03216" gradientUnits="userSpaceOnUse" id="color-49"><stop offset="0" stop-color="#240202"/><stop offset="1" stop-color="#240202" stop-opacity="0"/></linearGradient><linearGradient x1="266.90517" y1="216.18662" x2="240.12773" y2="162.71978" gradientUnits="userSpaceOnUse" id="color-50"><stop offset="0" stop-color="#240202"/><stop offset="1" stop-color="#240202" stop-opacity="0"/></linearGradient><linearGradient x1="271.53135" y1="212.33354" x2="238.49648" y2="162.48947" gradientUnits="userSpaceOnUse" id="color-51"><stop offset="0" stop-color="#240202"/><stop offset="1" stop-color="#240202" stop-opacity="0"/></linearGradient><linearGradient x1="275.47132" y1="208.63708" x2="240.88731" y2="159.85511" gradientUnits="userSpaceOnUse" id="color-52"><stop offset="0" stop-color="#240202"/><stop offset="1" stop-color="#240202" stop-opacity="0"/></linearGradient><linearGradient x1="279.83258" y1="204.3912" x2="238.27347" y2="161.39614" gradientUnits="userSpaceOnUse" id="color-53"><stop offset="0" stop-color="#240202"/><stop offset="1" stop-color="#240202" stop-opacity="0"/></linearGradient><linearGradient x1="283.09268" y1="199.32964" x2="236.6481" y2="161.66487" gradientUnits="userSpaceOnUse" id="color-54"><stop offset="0" stop-color="#240202"/><stop offset="1" stop-color="#240202" stop-opacity="0"/></linearGradient></defs><g transform="translate(-188.86909,-122.90321)"><g data-paper-data="{&quot;isPaintingLayer&quot;:true}" fill-rule="nonzero" stroke="none" stroke-width="0" stroke-linecap="butt" stroke-linejoin="miter" stroke-miterlimit="10" stroke-dasharray="" stroke-dashoffset="0" style="mix-blend-mode: normal"><g><g><g><path d="M248.30952,185.5131l-54.26382,-25.12315c0,0 -2.78183,-2.17537 -2.5549,-2.66552c0.26851,-0.57995 4.06229,-0.59031 4.06229,-0.59031l54.26382,25.12315z" fill="url(#color-1)"/><path d="M250.06553,182.97147l-57.43736,-16.63381c0,0 -2.94455,-2.13221 -2.80243,-2.62298c0.18104,-0.62514 3.80046,-0.82326 3.80046,-0.82326l57.43736,16.63381z" fill="url(#color-2)"/><path d="M251.55364,181.97766l-59.02509,-9.57981c0,0 -3.18037,-1.76123 -3.09852,-2.26556c0.10427,-0.64242 3.67331,-1.27594 3.67331,-1.27594l59.02509,9.57981z" fill="url(#color-3)"/></g><g><path d="M251.48108,184.85406l-59.36023,-7.21784c0,0 -3.31601,-1.21445 -3.25081,-1.75063c0.07714,-0.63442 3.68388,-1.81098 3.68388,-1.81098l59.36023,7.21784z" fill="url(#color-4)"/><path d="M252.37037,181.89557l-59.76925,1.83605c0,0 -3.45757,-1.12334 -3.47326,-1.63403c-0.01998,-0.65052 3.3631,-1.95212 3.3631,-1.95212l59.76925,-1.83605z" fill="url(#color-5)"/><path d="M253.48073,180.49228l-59.11071,9.03648c0,0 -3.56788,-0.69782 -3.64509,-1.20288c-0.09835,-0.64336 3.1029,-2.34376 3.1029,-2.34376l59.11071,-9.03648z" fill="url(#color-6)"/></g><g><path d="M254.92239,183.75927l-58.79775,10.88849c0,0 -3.52751,-0.16576 -3.62586,-0.69686c-0.11637,-0.62841 2.97255,-2.831 2.97255,-2.831l58.79775,-10.88849z" fill="url(#color-7)"/><path d="M254.88496,180.67024l-56.47685,19.64941c0,0 -3.6353,-0.03644 -3.80319,-0.519c-0.21386,-0.61469 2.62422,-2.86961 2.62422,-2.86961l56.47685,-19.64941z" fill="url(#color-8)"/><path d="M255.52417,178.99885l-53.6924,26.32224c0,0 -3.61312,0.40258 -3.83803,-0.05618c-0.28649,-0.58438 2.25869,-3.16537 2.25869,-3.16537l53.6924,-26.32224z" fill="url(#color-9)"/></g></g><g data-paper-data="{&quot;index&quot;:null}"><g><path d="M231.20336,181.90876l52.56312,-28.51056c0,0 3.78682,-0.23002 4.09153,0.33176c0.25753,0.47479 -2.38089,2.82203 -2.38089,2.82203l-52.56312,28.51057z" fill="url(#color-10)"/><path d="M229.78612,179.26118l56.26814,-20.23935c0,0 3.62469,-0.03159 3.84498,0.58083c0.17293,0.48077 -2.63062,2.79526 -2.63062,2.79526l-56.26814,20.23935z" fill="url(#color-11)"/><path d="M228.65439,178.24176l58.29959,-13.3001c0,0 3.60201,0.40613 3.74677,1.04065c0.11364,0.49813 -2.94876,2.45732 -2.94876,2.45732l-58.29959,13.3001z" fill="url(#color-12)"/></g><g><path d="M229.0492,181.07873l58.78369,-10.96411c0,0 3.67404,0.9457 3.79122,1.57395c0.09904,0.53097 -3.13337,1.95307 -3.13337,1.95307l-58.78369,10.96412z" fill="url(#color-13)"/><path d="M228.51485,178.12362l59.7655,-1.95433c0,0 3.45875,1.08465 3.48002,1.73513c0.0167,0.51066 -3.36276,1.8508 -3.36276,1.8508l-59.7655,1.95433z" fill="url(#color-14)"/><path d="M227.75147,176.80556l59.56447,5.27336c0,0 3.30255,1.49418 3.24516,2.14247c-0.04506,0.50894 -3.56156,1.4314 -3.56156,1.4314l-59.56447,-5.27336z" fill="url(#color-15)"/></g><g><path d="M226.63178,180.16902l59.36947,7.14148c0,0 3.22226,2.00247 3.14594,2.63699c-0.06451,0.53626 -3.57443,0.92518 -3.57443,0.92518l-59.36946,-7.14148z" fill="url(#color-16)"/><path d="M227.00685,177.1895l57.60829,16.03184c0,0 2.97525,2.07059 2.80076,2.69759c-0.13698,0.49223 -3.76267,0.75891 -3.76267,0.75891l-57.60829,-16.03184z" fill="url(#color-17)"/><path d="M226.67318,175.70333l55.25219,22.86767c0,0 2.70358,2.41455 2.4547,3.01591c-0.19539,0.47209 -3.82676,0.29922 -3.82676,0.29922l-55.25218,-22.86767z" fill="url(#color-18)"/></g></g><g><g><g><path d="M235.2655,187.33765v-59.79744c0,0 0.80531,-3.43835 1.34544,-3.43835c0.63909,0 2.2424,3.43835 2.2424,3.43835v59.79744z" fill="url(#color-19)"/><path d="M238.3097,187.86333l-9.03706,-59.11062c0,0 0.69778,-3.56789 1.20284,-3.6451c0.64335,-0.09836 2.34379,3.10288 2.34379,3.10288l9.03706,59.11062z" fill="url(#color-20)"/><path d="M239.83676,188.79619l-16.10536,-57.58778c0,0 0.26205,-3.62602 0.7541,-3.76363c0.62678,-0.17529 2.70116,2.79731 2.70116,2.79731l16.10536,57.58777z" fill="url(#color-21)"/></g><g><path d="M237.19606,189.93883l-18.38955,-56.89955c0,0 -0.29111,-3.51938 0.22284,-3.68549c0.60812,-0.19654 3.19113,2.58212 3.19113,2.58212l18.38955,56.89955z" fill="url(#color-22)"/><path d="M240.25439,189.50285l-26.77744,-53.46684c0,0 -0.43327,-3.60957 0.02357,-3.83836c0.58193,-0.29144 3.18444,2.23172 3.18444,2.23172l26.77744,53.46684z" fill="url(#color-23)"/><path d="M241.99433,189.92088l-33.03487,-49.84407c0,0 -0.86576,-3.53089 -0.43987,-3.81315c0.5425,-0.35955 3.43052,1.83106 3.43052,1.83106l33.03487,49.84407z" fill="url(#color-24)"/></g><g><path d="M239.63535,192.60172l-34.58401,-48.78197c0,0 -1.33162,-3.27072 -0.89099,-3.5831c0.52136,-0.36962 3.8179,1.50806 3.8179,1.50806l34.58401,48.78197z" fill="url(#color-25)"/><path d="M242.4228,191.26993l-41.5591,-42.99506c0,0 -1.49426,-3.3142 -1.12689,-3.6693c0.46796,-0.45232 3.70659,1.17575 3.70659,1.17575l41.5591,42.99506z" fill="url(#color-26)"/><path d="M244.20808,191.14778l-46.44458,-37.66477c0,0 -1.88334,-3.10962 -1.56152,-3.50646c0.40994,-0.5055 3.8214,0.71979 3.8214,0.71979l46.44458,37.66477z" fill="url(#color-27)"/></g></g><g data-paper-data="{&quot;index&quot;:null}"><g><path d="M239.84212,186.13901v-59.79744c0,0 1.60331,-3.43835 2.2424,-3.43835c0.54013,0 1.34544,3.43835 1.34544,3.43835v59.79744z" fill="url(#color-28)"/><path d="M236.83913,186.12246l9.03706,-59.11062c0,0 1.70044,-3.20124 2.34379,-3.10288c0.50506,0.07722 1.20284,3.6451 1.20284,3.6451l-9.03706,59.11062z" fill="url(#color-29)"/><path d="M235.40344,186.63123l16.10536,-57.58778c0,0 2.07438,-2.9726 2.70116,-2.79731c0.49205,0.13761 0.75411,3.76363 0.75411,3.76363l-16.10536,57.58778z" fill="url(#color-30)"/></g><g><path d="M238.08544,187.63681l18.38955,-56.89955c0,0 2.58301,-2.77866 3.19113,-2.58212c0.51395,0.16611 0.22284,3.68549 0.22284,3.68549l-18.38955,56.89955z" fill="url(#color-31)"/><path d="M235.23307,186.69756l26.77744,-53.46684c0,0 2.60251,-2.52316 3.18444,-2.23172c0.45684,0.2288 0.02357,3.83836 0.02357,3.83836l-26.77744,53.46684z" fill="url(#color-32)"/><path d="M233.7105,186.74015l33.03487,-49.84407c0,0 2.88802,-2.19061 3.43052,-1.83106c0.42588,0.28226 -0.43987,3.81315 -0.43987,3.81315l-33.03487,49.84407z" fill="url(#color-33)"/></g><g><path d="M236.13319,189.32803l34.58401,-48.78197c0,0 3.29654,-1.87768 3.8179,-1.50806c0.44063,0.31239 -0.89099,3.5831 -0.89099,3.5831l-34.58401,48.78197z" fill="url(#color-34)"/><path d="M233.69297,187.57775l41.5591,-42.99506c0,0 3.23864,-1.62807 3.70659,-1.17575c0.36736,0.3551 -1.12689,3.6693 -1.12689,3.6693l-41.5591,42.99506z" fill="url(#color-35)"/><path d="M232.2275,187.16246l46.44458,-37.66477c0,0 3.41147,-1.22528 3.8214,-0.71978c0.32182,0.39684 -1.56152,3.50646 -1.56152,3.50646l-46.44458,37.66477z" fill="url(#color-36)"/></g></g></g><g data-paper-data="{&quot;index&quot;:null}"><g><g><path d="M242.14401,162.88302v59.79744c0,0 -1.60331,3.43835 -2.2424,3.43835c-0.54013,0 -1.34544,-3.43835 -1.34544,-3.43835v-59.79744z" fill="url(#color-37)"/><path d="M245.147,162.89956l-9.03706,59.11062c0,0 -1.70044,3.20124 -2.34379,3.10288c-0.50506,-0.07722 -1.20284,-3.6451 -1.20284,-3.6451l9.03706,-59.11062z" fill="url(#color-38)"/><path d="M246.58268,162.3908l-16.10536,57.58778c0,0 -2.07438,2.9726 -2.70116,2.79731c-0.49205,-0.13761 -0.75411,-3.76363 -0.75411,-3.76363l16.10536,-57.58778z" fill="url(#color-39)"/></g><g><path d="M243.90068,161.38521l-18.38955,56.89955c0,0 -2.58301,2.77866 -3.19113,2.58212c-0.51395,-0.16611 -0.22284,-3.68549 -0.22284,-3.68549l18.38955,-56.89955z" fill="url(#color-40)"/><path d="M246.75305,162.32447l-26.77744,53.46684c0,0 -2.60251,2.52316 -3.18444,2.23172c-0.45684,-0.2288 -0.02357,-3.83836 -0.02357,-3.83836l26.77744,-53.46684z" fill="url(#color-41)"/><path d="M248.27563,162.28187l-33.03487,49.84407c0,0 -2.88802,2.19061 -3.43052,1.83106c-0.42588,-0.28226 0.43987,-3.81315 0.43987,-3.81315l33.03487,-49.84407z" fill="url(#color-42)"/></g><g><path d="M245.85293,159.69399l-34.58401,48.78197c0,0 -3.29654,1.87768 -3.8179,1.50806c-0.44063,-0.31239 0.89099,-3.5831 0.89099,-3.5831l34.58401,-48.78197z" fill="url(#color-43)"/><path d="M248.29316,161.44427l-41.5591,42.99506c0,0 -3.23864,1.62807 -3.70659,1.17575c-0.36736,-0.3551 1.12689,-3.6693 1.12689,-3.6693l41.5591,-42.99506z" fill="url(#color-44)"/><path d="M249.75862,161.85956l-46.44458,37.66477c0,0 -3.41147,1.22528 -3.8214,0.71978c-0.32182,-0.39684 1.56152,-3.50646 1.56152,-3.50646l46.44458,-37.66477z" fill="url(#color-45)"/></g></g><g data-paper-data="{&quot;index&quot;:null}"><g><path d="M246.72062,164.08166v59.79744c0,0 -0.80531,3.43835 -1.34544,3.43835c-0.63909,0 -2.2424,-3.43835 -2.2424,-3.43835v-59.79744z" fill="url(#color-46)"/><path d="M243.67642,163.55598l9.03706,59.11062c0,0 -0.69778,3.56789 -1.20284,3.6451c-0.64335,0.09836 -2.34379,-3.10288 -2.34379,-3.10288l-9.03706,-59.11062z" fill="url(#color-47)"/><path d="M242.14936,162.62312l16.10536,57.58778c0,0 -0.26206,3.62602 -0.75411,3.76363c-0.62678,0.17529 -2.70116,-2.79731 -2.70116,-2.79731l-16.10536,-57.58778z" fill="url(#color-48)"/></g><g><path d="M244.79007,161.48048l18.38955,56.89955c0,0 0.29111,3.51938 -0.22284,3.68549c-0.60812,0.19654 -3.19113,-2.58212 -3.19113,-2.58212l-18.38955,-56.89955z" fill="url(#color-49)"/><path d="M241.73173,161.91646l26.77744,53.46684c0,0 0.43327,3.60957 -0.02357,3.83836c-0.58193,0.29144 -3.18444,-2.23172 -3.18444,-2.23172l-26.77744,-53.46684z" fill="url(#color-50)"/><path d="M239.9918,161.49842l33.03487,49.84407c0,0 0.86576,3.53089 0.43987,3.81315c-0.5425,0.35955 -3.43052,-1.83106 -3.43052,-1.83106l-33.03487,-49.84407z" fill="url(#color-51)"/></g><g><path d="M242.35077,158.81759l34.58401,48.78197c0,0 1.33162,3.27072 0.89099,3.5831c-0.52136,0.36962 -3.8179,-1.50806 -3.8179,-1.50806l-34.58401,-48.78197z" fill="url(#color-52)"/><path d="M239.56333,160.14937l41.5591,42.99506c0,0 1.49425,3.3142 1.12689,3.6693c-0.46796,0.45232 -3.70659,-1.17575 -3.70659,-1.17575l-41.5591,-42.99506z" fill="url(#color-53)"/><path d="M237.77805,160.27153l46.44458,37.66477c0,0 1.88334,3.10962 1.56152,3.50646c-0.40994,0.5055 -3.8214,-0.71978 -3.8214,-0.71978l-46.44458,-37.66477z" fill="url(#color-54)"/></g></g></g></g></g></g></svg>