<svg version="1.1" xmlns="http://www.w3.org/2000/svg" xmlns:xlink="http://www.w3.org/1999/xlink" width="58.05464" height="130.11403" viewBox="0,0,58.05464,130.11403"><defs><radialGradient cx="220.30343" cy="273.95551" r="21.97894" gradientUnits="userSpaceOnUse" id="color-1"><stop offset="0" stop-color="#fff082"/><stop offset="1" stop-color="#ffd183"/></radialGradient><linearGradient x1="215.86081" y1="276.5036" x2="235.61206" y2="276.05471" gradientUnits="userSpaceOnUse" id="color-2"><stop offset="0" stop-color="#c66a21" stop-opacity="0"/><stop offset="1" stop-color="#c66a21"/></linearGradient><linearGradient x1="219.23112" y1="290.30796" x2="223.84529" y2="287.4397" gradientUnits="userSpaceOnUse" id="color-3"><stop offset="0" stop-color="#6f3939"/><stop offset="1" stop-color="#ffd183"/></linearGradient><linearGradient x1="227.5513" y1="285.39263" x2="231.45202" y2="281.61086" gradientUnits="userSpaceOnUse" id="color-4"><stop offset="0" stop-color="#6f3939"/><stop offset="1" stop-color="#ffd183"/></linearGradient><linearGradient x1="209.99764" y1="288.12091" x2="214.89509" y2="285.76882" gradientUnits="userSpaceOnUse" id="color-5"><stop offset="0" stop-color="#6f3939"/><stop offset="1" stop-color="#ffd183"/></linearGradient><linearGradient x1="224.74861" y1="227.38219" x2="243.51715" y2="227.38219" gradientUnits="userSpaceOnUse" id="color-6"><stop offset="0" stop-color="#bd8946" stop-opacity="0"/><stop offset="1" stop-color="#bd8946"/></linearGradient><linearGradient x1="240.18243" y1="213.87753" x2="232.91182" y2="218.10569" gradientUnits="userSpaceOnUse" id="color-7"><stop offset="0" stop-color="#8b6534" stop-opacity="0"/><stop offset="1" stop-color="#8b6534"/></linearGradient><linearGradient x1="208.54002" y1="227.50351" x2="216.75568" y2="229.2365" gradientUnits="userSpaceOnUse" id="color-8"><stop offset="0" stop-color="#bd8946" stop-opacity="0"/><stop offset="1" stop-color="#bd8946"/></linearGradient></defs><g transform="translate(-196.52389,-165.82948)"><g data-paper-data="{&quot;isPaintingLayer&quot;:true}" fill-rule="nonzero" stroke="none" stroke-width="0" stroke-linecap="butt" stroke-linejoin="miter" stroke-miterlimit="10" stroke-dasharray="" stroke-dashoffset="0" style="mix-blend-mode: normal"><path d="M239.1118,274.19989c-1.53313,2.63813 -12.03177,0.93107 -23.44936,-3.81283c-11.41759,-4.7439 -19.43052,-10.72822 -17.89739,-13.36635c1.53313,-2.63813 12.03177,-0.93107 23.44936,3.81283c11.41759,4.7439 19.43052,10.72822 17.89739,13.36635z" fill="#020713"/><path d="M233.63897,275.43723c0,3.62219 2.96511,8.52145 2.09318,11.53394c-2.05007,7.08293 -8.66856,8.46937 -13.45308,8.46937c-6.81946,0 -18.76853,-11.81594 -18.76853,-23.95458c0,-12.13863 9.97344,-19.5094 16.7929,-19.5094c6.81946,0 13.33554,11.32203 13.33554,23.46067z" fill="url(#color-1)"/><path d="M235.61206,276.05471c0.06249,2.74942 1.6291,11.26707 0.86104,13.51581c-1.59359,4.6657 -9.67189,4.40176 -13.35222,4.4854c-5.45416,0.12396 -7.06793,-9.09837 -7.26006,-17.55232c-0.10632,-4.67803 -6.25627,-17.78707 -4.18654,-20.64334c1.67059,-2.30546 11.27821,5.16704 13.71428,5.11168c5.45416,-0.12396 10.03138,6.62883 10.22352,15.08277z" fill="url(#color-2)"/><g><path d="M202.19753,250.42006l9.14211,-29.84629c0,0 5.34165,-23.26769 8.83916,-33.06638c2.79865,-7.84075 10.52059,-21.17218 10.52059,-21.17218c0,0 6.01933,3.17161 10.64148,4.81278c6.78535,2.40923 13.04432,10.83147 13.22659,13.83893c0.49548,8.17536 -15.80151,79.95296 -15.80151,79.95296z" fill="#ffefda"/><path d="M196.52389,260.40003l6.5051,-12.86717c0,0 14.71487,2.54341 20.40087,4.31757c6.89652,2.15186 18.05199,5.79834 18.05199,5.79834l-2.47182,16.0938c0,0 -10.33746,-7.97493 -16.86385,-9.79291c-2.7617,-0.76929 -11.20513,-3.16887 -15.24384,-3.84366c-6.39326,-1.06819 -10.37845,0.29403 -10.37845,0.29403z" fill="#113a9e"/></g><path d="M223.84529,287.4397c2.37615,3.8225 3.26948,7.56333 1.99531,8.35538c-1.27417,0.79205 -4.23333,-1.66462 -6.60948,-5.48711c-2.37615,-3.8225 -3.26948,-12.50242 -1.99531,-13.29447c1.27417,-0.79205 4.23333,6.6037 6.60948,10.4262z" fill="url(#color-3)"/><path d="M229.97029,282.10477c3.13293,3.23147 6.28118,6.20376 5.20403,7.24806c-1.07715,1.04431 -3.50228,4.21036 -6.63521,0.97889c-3.13293,-3.23147 -6.28118,-16.08193 -5.20403,-17.12624c1.07715,-1.04431 3.50228,5.66782 6.63521,8.89929z" fill="url(#color-4)"/><path d="M214.89509,285.76882c1.94854,4.05719 2.43181,7.87272 1.07942,8.52224c-1.35239,0.64951 -4.02833,-2.11295 -5.97688,-6.17014c-1.94854,-4.05719 -1.89733,-12.7828 -0.54493,-13.43232c1.35239,-0.64951 3.49385,7.02303 5.44239,11.08022z" fill="url(#color-5)"/><path d="M253.88923,184.41212c0,13.63891 -9.63448,77.54368 -14.81726,77.54368c-5.18279,0 -14.32335,-20.9347 -14.32335,-34.57361c0,-13.63891 0.25021,-60.25687 5.433,-60.25687c1.35198,0 14.49099,-2.21109 15.65225,-0.85677c3.29043,3.83743 8.05537,8.0625 8.05537,18.14358z" fill="url(#color-6)"/><path d="M228.60525,174.2206c2.00772,-1.16757 8.16958,22.45887 11.57718,39.65693c0.91957,4.64108 3.4455,9.45803 4.01696,14.04091c1.54614,12.39953 -0.01634,23.08548 -1.48226,23.93797c-2.00773,1.16757 -12.89454,-18.32453 -16.30214,-35.52259c-3.4076,-17.19806 0.18253,-40.94565 2.19026,-42.11322z" data-paper-data="{&quot;index&quot;:null}" fill="url(#color-7)"/><path d="M204.36045,247.31775l12.80431,-51.4823c0,0 2.02682,-8.03811 3.10146,-10.20501c1.16301,-2.34507 4.62029,-8.31226 4.62029,-8.31226l-13.79213,70.74474z" fill="url(#color-8)"/></g></g></svg>