<svg version="1.1" xmlns="http://www.w3.org/2000/svg" xmlns:xlink="http://www.w3.org/1999/xlink" width="100.69773" height="104.61728" viewBox="0,0,100.69773,104.61728"><defs><radialGradient cx="183.66326" cy="247.64406" r="21.97894" gradientUnits="userSpaceOnUse" id="color-1"><stop offset="0" stop-color="#fff082"/><stop offset="1" stop-color="#ffd183"/></radialGradient><linearGradient x1="178.56636" y1="247.14281" x2="194.91588" y2="258.23366" gradientUnits="userSpaceOnUse" id="color-2"><stop offset="0" stop-color="#c66a21" stop-opacity="0"/><stop offset="1" stop-color="#c66a21"/></linearGradient><linearGradient x1="173.30471" y1="260.3426" x2="178.72706" y2="260.68255" gradientUnits="userSpaceOnUse" id="color-3"><stop offset="0" stop-color="#6f3939"/><stop offset="1" stop-color="#ffd183"/></linearGradient><linearGradient x1="182.93331" y1="261.16466" x2="188.30437" y2="260.34664" gradientUnits="userSpaceOnUse" id="color-4"><stop offset="0" stop-color="#6f3939"/><stop offset="1" stop-color="#ffd183"/></linearGradient><linearGradient x1="167.0518" y1="253.20527" x2="172.40551" y2="254.13" gradientUnits="userSpaceOnUse" id="color-5"><stop offset="0" stop-color="#6f3939"/><stop offset="1" stop-color="#ffd183"/></linearGradient><linearGradient x1="214.29862" y1="212.28436" x2="229.58725" y2="223.17085" gradientUnits="userSpaceOnUse" id="color-6"><stop offset="0" stop-color="#bd8946" stop-opacity="0"/><stop offset="1" stop-color="#bd8946"/></linearGradient><linearGradient x1="234.70407" y1="210.23585" x2="226.32901" y2="209.46281" gradientUnits="userSpaceOnUse" id="color-7"><stop offset="0" stop-color="#8b6534" stop-opacity="0"/><stop offset="1" stop-color="#8b6534"/></linearGradient><linearGradient x1="201.02492" y1="202.98156" x2="206.7121" y2="209.15864" gradientUnits="userSpaceOnUse" id="color-8"><stop offset="0" stop-color="#bd8946" stop-opacity="0"/><stop offset="1" stop-color="#bd8946"/></linearGradient></defs><g transform="translate(-166.71312,-166.00789)"><g data-paper-data="{&quot;isPaintingLayer&quot;:true}" fill-rule="nonzero" stroke="none" stroke-width="0" stroke-linecap="butt" stroke-linejoin="miter" stroke-miterlimit="10" stroke-dasharray="" stroke-dashoffset="0" style="mix-blend-mode: normal"><g><path d="M198.84259,258.75273c-2.77909,1.25971 -10.341,-6.22046 -16.88998,-16.70744c-6.54899,-10.48698 -9.60508,-20.00955 -6.82599,-21.26927c2.77909,-1.25971 10.341,6.22046 16.88998,16.70744c6.54899,10.48698 9.60508,20.00955 6.82599,21.26927z" fill="#020713"/><path d="M193.66678,256.58619c-2.10101,2.95059 -2.52743,8.66135 -4.98506,10.60954c-5.77834,4.58055 -11.97388,1.87094 -15.87129,-0.90427c-5.55505,-3.95556 -8.43491,-20.51162 -1.39402,-30.39961c7.04088,-9.88799 19.44047,-10.10714 24.99552,-6.15158c5.55505,3.95556 4.29575,16.95793 -2.74514,26.84593z" fill="url(#color-1)"/><path d="M194.91588,258.23366c-1.54387,2.27589 -5.2083,10.12297 -7.13831,11.50926c-4.00441,2.87628 -10.4318,-2.02446 -13.47827,-4.09106c-4.5148,-3.06265 -0.48004,-11.5111 4.26708,-18.50904c2.62684,-3.87234 5.22092,-18.11802 8.56365,-19.24418c2.6981,-0.90899 6.19001,10.75082 8.20652,12.11874c4.5148,3.06265 4.32646,11.21836 -0.42064,18.21629z" fill="url(#color-2)"/><g><path d="M182.5659,217.97022l24.75908,-19.00966c0,0 17.84743,-15.85522 26.38008,-21.80843c6.82769,-4.76366 20.85065,-11.14425 20.85065,-11.14425c0,0 3.06362,6.07501 5.87682,10.09291c4.12982,5.8983 4.34307,16.38941 2.7471,18.94498c-4.33842,6.94695 -59.2476,55.96325 -59.2476,55.96325z" fill="#ffefda"/><path d="M172.15544,222.80885l12.76245,-6.70823c0,0 10.51128,10.60704 14.11395,15.35035c4.36966,5.75313 11.34167,15.19413 11.34167,15.19413l-11.34856,11.67607c0,0 -3.795,-12.49242 -8.05682,-17.75889c-1.80343,-2.22855 -7.2895,-9.08074 -10.18798,-11.97303c-4.58828,-4.57848 -8.62471,-5.7804 -8.62471,-5.7804z" fill="#113a9e"/></g><path d="M178.72706,260.68255c-0.28162,4.49202 -1.72375,8.05743 -3.22109,7.96355c-1.49734,-0.09387 -2.48288,-3.81148 -2.20126,-8.3035c0.28162,-4.49202 4.58862,-12.08075 6.08596,-11.98688c1.49734,0.09387 -0.38199,7.8348 -0.6636,12.32682z" fill="url(#color-3)"/><path d="M186.81088,259.88952c0.67767,4.44954 1.51815,8.69684 0.03498,8.92273c-1.48317,0.22589 -5.29509,1.39825 -5.97276,-3.05129c-0.67767,-4.44954 4.21158,-16.74349 5.69475,-16.96938c1.48317,-0.22589 -0.43464,6.6484 0.24303,11.09794z" fill="url(#color-4)"/><path d="M172.40551,254.13c-0.76607,4.43517 -2.58556,7.82357 -4.06395,7.56822c-1.47838,-0.25536 -2.05584,-4.05777 -1.28977,-8.49295c0.76607,-4.43517 5.86899,-11.51325 7.34738,-11.25789c1.47838,0.25536 -1.22759,7.74745 -1.99366,12.18262z" fill="url(#color-5)"/><path d="M262.96057,194.18415c-7.91111,11.1101 -52.82653,57.5778 -57.04836,54.57158c-4.22184,-3.00622 0.47532,-25.36127 8.38643,-36.47137c7.91111,-11.1101 35.15518,-48.93941 39.37702,-45.93319c1.10131,0.7842 13.08671,6.60422 13.2471,8.38101c0.45448,5.03451 1.88524,11.24005 -3.96218,19.45198z" fill="url(#color-6)"/><path d="M248.27602,171.21655c2.3127,0.21347 -6.37219,23.03341 -13.57195,39.01929c-1.94294,4.31396 -2.67937,9.70293 -4.87211,13.76756c-5.93275,10.99733 -13.4038,18.79569 -15.0924,18.63982c-2.31271,-0.21347 0.12521,-22.40629 7.32497,-38.39217c7.19976,-15.98588 23.89878,-33.24797 26.21149,-33.0345z" data-paper-data="{&quot;index&quot;:null}" fill="url(#color-7)"/><path d="M186.12725,216.6977l40.29201,-34.50988c0,0 6.31345,-5.37212 8.44572,-6.51391c2.30761,-1.23567 8.58507,-4.09112 8.58507,-4.09112l-52.26965,49.62786z" fill="url(#color-8)"/></g></g></g></svg>