<svg version="1.1" xmlns="http://www.w3.org/2000/svg" xmlns:xlink="http://www.w3.org/1999/xlink" width="128.62856" height="361.61214" viewBox="0,0,128.62856,361.61214"><defs><radialGradient cx="145.06409" cy="216.52191" r="21.97894" gradientUnits="userSpaceOnUse" id="color-1"><stop offset="0" stop-color="#fff082"/><stop offset="1" stop-color="#ffd183"/></radialGradient><linearGradient x1="142.91828" y1="221.1722" x2="141.62118" y2="201.45848" gradientUnits="userSpaceOnUse" id="color-2"><stop offset="0" stop-color="#c66a21" stop-opacity="0"/><stop offset="1" stop-color="#c66a21"/></linearGradient><linearGradient x1="128.87022" y1="219.03413" x2="131.3198" y2="214.18469" gradientUnits="userSpaceOnUse" id="color-3"><stop offset="0" stop-color="#6f3939"/><stop offset="1" stop-color="#ffd183"/></linearGradient><linearGradient x1="133.03159" y1="210.31238" x2="136.45411" y2="206.09293" gradientUnits="userSpaceOnUse" id="color-4"><stop offset="0" stop-color="#6f3939"/><stop offset="1" stop-color="#ffd183"/></linearGradient><linearGradient x1="131.86414" y1="228.03839" x2="133.77455" y2="222.95236" gradientUnits="userSpaceOnUse" id="color-5"><stop offset="0" stop-color="#6f3939"/><stop offset="1" stop-color="#ffd183"/></linearGradient><linearGradient x1="191.06289" y1="207.98119" x2="189.40543" y2="189.28598" gradientUnits="userSpaceOnUse" id="color-6"><stop offset="0" stop-color="#bd8946" stop-opacity="0"/><stop offset="1" stop-color="#bd8946"/></linearGradient><linearGradient x1="203.15182" y1="191.41507" x2="199.58225" y2="199.03066" gradientUnits="userSpaceOnUse" id="color-7"><stop offset="0" stop-color="#8b6534" stop-opacity="0"/><stop offset="1" stop-color="#8b6534"/></linearGradient><linearGradient x1="192.37343" y1="224.13717" x2="189.92168" y2="216.10665" gradientUnits="userSpaceOnUse" id="color-8"><stop offset="0" stop-color="#bd8946" stop-opacity="0"/><stop offset="1" stop-color="#bd8946"/></linearGradient><radialGradient cx="142.17169" cy="171.7524" r="73.0985" gradientUnits="userSpaceOnUse" id="color-9"><stop offset="0" stop-color="#fff6db"/><stop offset="1" stop-color="#f9cdb0"/></radialGradient></defs><g transform="translate(-122.71729,9.05367)"><g data-paper-data="{&quot;isPaintingLayer&quot;:true}" fill-rule="nonzero" stroke-linecap="butt" stroke-linejoin="miter" stroke-miterlimit="10" stroke-dasharray="" stroke-dashoffset="0" style="mix-blend-mode: normal"><path d="M158.05434,214.45569c5.73366,10.95405 8.36119,21.26092 5.86876,23.02103c-2.49243,1.76011 -9.161,-5.69303 -14.89465,-16.64708c-5.73366,-10.95405 -8.36119,-21.26092 -5.86876,-23.02103c2.49243,-1.76011 9.161,5.69303 14.89465,16.64708z" data-paper-data="{&quot;index&quot;:null}" fill="#020713" stroke="none" stroke-width="0"/><path d="M142.41049,203.36932c12.09121,-1.07197 23.94445,4.4188 24.54668,11.21162c0.60223,6.79282 -5.85898,17.37821 -17.95019,18.45017c-12.09121,1.07197 -24.91622,-9.78695 -25.51845,-16.57976c-0.42252,-4.76583 0.37402,-11.4809 7.24823,-14.14845c2.92372,-1.13456 8.06569,1.38631 11.67373,1.06643z" data-paper-data="{&quot;index&quot;:null}" fill="url(#color-1)" stroke="none" stroke-width="0"/><path d="M141.62118,201.45846c8.43788,-0.55518 15.5685,3.40781 15.92668,8.85161c0.15999,2.43144 8.45174,11.34162 6.30282,13.20928c-2.66233,2.31388 -16.26326,-2.65438 -20.9324,-2.34716c-8.43789,0.55519 -17.7667,-0.23784 -18.12488,-5.68164c-0.2417,-3.67334 -1.21801,-11.69677 3.28874,-13.69616c2.17213,-0.96365 10.79485,-0.15535 13.53904,-0.33591z" data-paper-data="{&quot;index&quot;:null}" fill="url(#color-2)" stroke="none" stroke-width="0"/><g data-paper-data="{&quot;index&quot;:null}" stroke="none" stroke-width="0"><path d="M152.41406,197.33535c0,0 70.05797,-22.57203 78.24515,-22.80045c3.01181,-0.08403 11.95387,5.40671 14.95291,11.95279c2.04294,4.45916 5.73373,10.17489 5.73373,10.17489c0,0 -12.59742,8.86907 -20.16038,12.34921c-9.45154,4.34917 -32.1566,11.72473 -32.1566,11.72473l-28.92234,11.74213z" fill="#ffefda"/><path d="M160.04294,228.64759c-1.02881,-3.96334 -4.16466,-12.16187 -5.17483,-14.84485c-2.38723,-6.34034 -11.2439,-15.93315 -11.2439,-15.93315l15.81263,-3.88341c0,0 4.61738,10.78986 7.36986,17.46941c2.26936,5.50711 6.10231,19.93988 6.10231,19.93988l-12.24243,7.61599c0,0 1.00496,-4.08992 -0.62364,-10.36387z" fill="#113a9e"/></g><path d="M142.28895,219.8476c-0.67643,1.33914 -9.40133,1.21583 -13.41874,-0.81347c-4.01739,-2.0293 -6.72579,-4.75995 -6.04936,-6.09909c0.67643,-1.33914 4.48154,-0.77965 8.49894,1.24965c4.0174,2.0293 11.64558,4.32378 10.96915,5.66291z" data-paper-data="{&quot;index&quot;:null}" fill="url(#color-3)" stroke="none" stroke-width="0"/><path d="M145.54346,213.43587c-0.94511,1.16517 -14.02338,-0.83596 -17.5189,-3.67127c-3.49552,-2.83532 -0.556,-5.53057 0.38911,-6.69573c0.9451,-1.16516 4.1838,1.7083 7.67931,4.54362c3.49552,2.83532 10.39558,4.65822 9.45048,5.82339z" data-paper-data="{&quot;index&quot;:null}" fill="url(#color-4)" stroke="none" stroke-width="0"/><path d="M145.29209,227.39499c-0.52755,1.40448 -9.21455,2.22605 -13.42796,0.64341c-4.21342,-1.58264 -7.2014,-4.00418 -6.67385,-5.40864c0.52755,-1.40447 4.37085,-1.26003 8.58427,0.3226c4.21341,1.58263 12.04509,3.03816 11.51755,4.44263z" data-paper-data="{&quot;index&quot;:null}" fill="url(#color-5)" stroke="none" stroke-width="0"/><path d="M231.29165,175.15971c10.04169,-0.89026 14.67105,3.48294 18.78407,6.42163c1.45158,1.03712 0.40944,14.32006 0.52883,15.66676c0.45769,5.16254 -45.95603,9.52862 -59.54166,10.73308c-13.58562,1.20446 -35.24574,-6.05164 -35.70343,-11.21418c-0.45769,-5.16253 62.34658,-20.40283 75.9322,-21.60728z" data-paper-data="{&quot;index&quot;:null}" fill="url(#color-6)" stroke="none" stroke-width="0"/><path d="M201.92094,205.34564c-17.43179,-1.87552 -37.80916,-10.99844 -36.82345,-13.10143c0.7197,-1.53548 11.22592,-4.03553 23.71355,-3.59044c4.61544,0.16451 9.63664,2.25519 14.34079,2.76131c17.43179,1.87552 41.51008,5.92684 40.52438,8.02983c-0.9857,2.10299 -24.32347,7.77626 -41.75526,5.90074z" data-paper-data="{&quot;index&quot;:null}" fill="url(#color-7)" stroke="none" stroke-width="0"/><path d="M171.66877,223.4084l69.25035,-19.98574c0,0 -5.63856,3.97074 -7.87176,5.3363c-2.06353,1.2618 -9.89125,3.99055 -9.89125,3.99055l-50.1504,17.30071z" data-paper-data="{&quot;index&quot;:null}" fill="url(#color-8)" stroke="none" stroke-width="0"/><path d="M137.47956,352.30847v-361.11214h9.38427v361.11214z" fill="url(#color-9)" stroke="#004545" stroke-width="0.5"/></g></g></svg>