<svg version="1.1" xmlns="http://www.w3.org/2000/svg" xmlns:xlink="http://www.w3.org/1999/xlink" width="63.18416" height="63.34356" viewBox="0,0,63.18416,63.34356"><defs><linearGradient x1="211.76376" y1="208.7802" x2="205.44601" y2="191.12627" gradientUnits="userSpaceOnUse" id="color-1"><stop offset="0" stop-color="#bd8946" stop-opacity="0"/><stop offset="1" stop-color="#bd8946"/></linearGradient><linearGradient x1="215.93933" y1="191.02509" x2="215.34599" y2="198.82642" gradientUnits="userSpaceOnUse" id="color-2"><stop offset="0" stop-color="#8b6534" stop-opacity="0"/><stop offset="1" stop-color="#8b6534"/></linearGradient><linearGradient x1="219.00626" y1="220.65262" x2="214.98108" y2="213.5157" gradientUnits="userSpaceOnUse" id="color-3"><stop offset="0" stop-color="#bd8946" stop-opacity="0"/><stop offset="1" stop-color="#bd8946"/></linearGradient></defs><g transform="translate(-184.98689,-168.97036)"><g data-paper-data="{&quot;isPaintingLayer&quot;:true}" fill-rule="nonzero" stroke="none" stroke-width="0" stroke-linecap="butt" stroke-linejoin="miter" stroke-miterlimit="10" stroke-dasharray="" stroke-dashoffset="0" style="mix-blend-mode: normal"><path d="M185.82927,200.36051c0,0 41.97825,-30.16806 47.4599,-31.35919c2.01653,-0.43818 9.37574,3.82239 12.9685,9.80942c2.44738,4.07833 1.79785,10.58644 1.79785,10.58644l-25.11104,28.11417l-16.75072,14.80258z" fill="#ffefda"/><path d="M243.37053,173.0129c1.24861,0.73919 4.27104,13.67444 4.72614,14.94612c1.74459,4.875 -27.69517,17.2651 -36.33292,20.82119c-8.63777,3.55609 -24.97291,0.41667 -26.71751,-4.45833c-1.74459,-4.875 35.48432,-30.59929 44.12209,-34.15537c6.38453,-2.62845 10.66427,0.7519 14.20219,2.8464z" data-paper-data="{&quot;index&quot;:null}" fill="url(#color-1)"/><path d="M218.43696,204.66777c-12.23586,0.24776 -28.19599,-6.17733 -28.03214,-8.33162c0.11963,-1.57292 6.62643,-5.23966 15.17707,-6.28765c3.16033,-0.38734 7.05547,1.04345 10.35744,0.9766c12.23586,-0.24776 29.48627,0.82523 29.32242,2.9795c-0.16384,2.15427 -14.58893,10.41541 -26.8248,10.66318z" fill="url(#color-2)"/><path d="M205.3235,224.32122l38.97622,-33.64102c0,0 -2.46414,4.97259 -3.50277,6.74466c-0.95972,1.63743 -5.22321,5.88767 -5.22321,5.88767l-27.37032,27.05703z" data-paper-data="{&quot;index&quot;:null}" fill="url(#color-3)"/></g></g></svg>