<svg version="1.1" xmlns="http://www.w3.org/2000/svg" xmlns:xlink="http://www.w3.org/1999/xlink" width="99.30878" height="379.9623" viewBox="0,0,99.30878,379.9623"><defs><linearGradient x1="237.87974" y1="294.68927" x2="246.36649" y2="294.68927" gradientUnits="userSpaceOnUse" id="color-1"><stop offset="0" stop-color="#8080ad"/><stop offset="1" stop-color="#8080ad" stop-opacity="0"/></linearGradient><linearGradient x1="248.50051" y1="311.26425" x2="256.35187" y2="311.26425" gradientUnits="userSpaceOnUse" id="color-2"><stop offset="0" stop-color="#8080ad"/><stop offset="1" stop-color="#8080ad" stop-opacity="0"/></linearGradient><linearGradient x1="212.14871" y1="330.25857" x2="217.14818" y2="330.25857" gradientUnits="userSpaceOnUse" id="color-3"><stop offset="0" stop-color="#8080ad"/><stop offset="1" stop-color="#8080ad" stop-opacity="0"/></linearGradient><linearGradient x1="260.65799" y1="287.68927" x2="268.29606" y2="287.68927" gradientUnits="userSpaceOnUse" id="color-4"><stop offset="0" stop-color="#8080ad"/><stop offset="1" stop-color="#8080ad" stop-opacity="0"/></linearGradient><linearGradient x1="287.38323" y1="284.68926" x2="297.56732" y2="284.68926" gradientUnits="userSpaceOnUse" id="color-5"><stop offset="0" stop-color="#8080ad"/><stop offset="1" stop-color="#8080ad" stop-opacity="0"/></linearGradient><linearGradient x1="226.03107" y1="302.68927" x2="236.21517" y2="302.68927" gradientUnits="userSpaceOnUse" id="color-6"><stop offset="0" stop-color="#8080ad"/><stop offset="1" stop-color="#8080ad" stop-opacity="0"/></linearGradient><linearGradient x1="270.65799" y1="298.68927" x2="278.29606" y2="298.68927" gradientUnits="userSpaceOnUse" id="color-7"><stop offset="0" stop-color="#8080ad"/><stop offset="1" stop-color="#8080ad" stop-opacity="0"/></linearGradient><linearGradient x1="217.65799" y1="307.68927" x2="225.29606" y2="307.68927" gradientUnits="userSpaceOnUse" id="color-8"><stop offset="0" stop-color="#8080ad"/><stop offset="1" stop-color="#8080ad" stop-opacity="0"/></linearGradient></defs><g transform="translate(-203.56622,-101.88531)"><g data-paper-data="{&quot;isPaintingLayer&quot;:true}" fill-rule="nonzero" stroke="none" stroke-width="0" stroke-linecap="butt" stroke-linejoin="miter" stroke-miterlimit="10" stroke-dasharray="" stroke-dashoffset="0" style="mix-blend-mode: normal"><path d="M214.949,433.82663c0,0 -11.65259,-29.8796 -11.37801,-57.46393c0.44389,-44.59393 13.78694,-184.53607 13.78694,-184.53607c0,0 5.37744,-74.33333 15.78692,-74.33333c1.62563,0 -0.7387,4.9136 0.97299,2.83192c0.51913,-0.63134 3.04526,-2.8676 3.58021,-3.2799c3.54768,-2.73426 -0.84951,-6.36264 4.01199,-3.74184c3.54697,1.91214 8.0701,-3.68804 12.75574,-3.53736c0.3864,0.01242 -0.78691,-1.93956 0.67295,-0.42355c0.99111,1.02922 6.24264,-9.19814 8.13223,-7.19698c6.31578,6.6887 10.80941,22.53354 11.29119,23.56023c3.14072,11.82389 4.20119,57.12081 4.20119,57.12081c0,0 24.11164,174.02421 24.11164,192.5067c0,41.73933 -22.88485,58.4933 -22.88485,58.4933z" fill="#412a6a"/><path d="M237.87974,436.65997l2.78835,-303.23856c0,0 -0.43346,-19.99592 0.95151,-18.04352c1.44168,2.03233 4.74688,37.34068 4.74688,37.34068v283.94141z" fill="url(#color-1)"/><path d="M248.50051,481.84759l3.29618,-367.20833c0,0 0.52412,-4.52997 1.8054,-2.18409c1.33373,2.44193 2.74977,28.22576 2.74977,28.22576v341.16667z" fill="url(#color-2)"/><path d="M210.48204,422.9933c0,0 -0.32611,-41.79214 -0.05929,-60.99064c0.44692,-32.15712 3.82505,-134.36284 3.82505,-134.36284c0,0 1.48452,-20.21198 2.30039,-19.14296c0.18261,3.77945 0.59999,44.02697 0.59999,44.02697v175.9717c0,0 -3.05435,2.64784 -4.27373,1.64136c-0.91233,-0.75304 -2.39241,-7.14359 -2.39241,-7.14359z" fill="url(#color-3)"/><path d="M259.65799,443.32664l2.24284,-340.5719c0,0 -0.82344,-0.99592 0.42303,0.95648c1.29751,2.03233 2.9722,48.00735 2.9722,48.00735l2,287.27474z" fill="url(#color-4)"/><path d="M284.38323,429.9933l-4.88524,-239.23857c0,0 -1.39575,-1.99592 0.26621,-0.04352c1.06334,4.03233 4.68287,49.00735 4.68287,49.00735l5.68038,180.94141z" fill="url(#color-5)"/><path d="M226.03107,444.65997c0,0 1.23482,-143.51462 1.70374,-198.01323c0.3297,-38.3188 2.17561,-123.892 2.17561,-123.892c0,0 -1.32015,-5.99592 0.34181,-4.04352c1.73001,2.03233 5.96292,42.00735 5.96292,42.00735v283.94141z" fill="url(#color-6)"/><path d="M270.65799,440.65997l-2.09048,-328.23856c0,0 -0.49011,-0.66259 0.75636,1.28981c1.29751,2.03233 5.97219,49.34068 5.97219,49.34068l3,277.60808z" fill="url(#color-7)"/><path d="M217.65799,449.65997l3.90952,-294.90523c0,0 2.50988,-21.32925 3.75635,-19.37685c1.29751,2.03233 -0.0278,30.34069 -0.0278,30.34069v283.94141z" fill="url(#color-8)"/></g></g></svg>