<?xml version="1.0" encoding="UTF-8"?>
<svg id="Layer_1" xmlns="http://www.w3.org/2000/svg" viewBox="0 0 180.61 180.72">
  <defs>
    <style>
      .cls-1 {
        fill: #eb4a00;
      }

      .cls-2 {
        fill: #f36900;
      }

      .cls-3 {
        fill: #fbb929;
      }
    </style>
  </defs>
  <path class="cls-2" d="m33.88,41.93c-2.07-3.32-2.07-7.48,0-10.49,2.54-3.7,7.78-5.08,12.26-2.93.66-.58,2.52-2.02,5.11-2.05,3.32-.03,6.49,2.29,7.95,5.87.21-.11,4.44-2.21,8.44.27,3.45,2.14,3.91,5.95,3.95,6.4.29.06,3.2.69,4.49,3.56,1.19,2.65.03,5.06-.13,5.38,3.74,1.53,6.44,4.8,6.93,8.58.64,4.9-2.5,9.92-7.69,11.78.13,4.24-2.66,8.02-6.66,9.11-3.81,1.04-7.93-.56-10.09-3.96-2.85,4.31-8.43,5.68-12.57,3.42-3.55-1.94-5.48-6.23-4.58-10.49-6.5.1-12.13-4.33-13.46-10.36-1.18-5.34,1.23-11.02,6.04-14.09Z"/>
  <path class="cls-2" d="m110.83,40.2c0-2.3.39-6.44,3.24-9.38,6.29-6.48,21.76-4.19,27.1,4.98,3.21,5.51,1.72,11.73,1.11,13.83,1.53.73,4.4,2.38,6.26,5.65,3.16,5.54,2.38,13.95-3.29,18.27-5.54,4.23-12.47,2.05-13.15,1.82-.5,1.28-1.69,3.8-4.31,5.6-4.01,2.76-10.43,3.2-14.48-.62-3.89-3.66-3.33-9.09-3.24-9.78-3.58-.55-6.5-3.13-7.42-6.54-1.02-3.75.58-7.83,3.95-10-2.18-2.04-3.07-5.11-2.31-7.96.81-3.05,3.38-5.35,6.53-5.87Z"/>
  <path class="cls-2" d="m30.15,127.6c-1.08-4.17-.1-8.51,2.71-11.03,4.02-3.6,11.46-3.22,16.22,2.05,3.03-1.33,6.51-.95,8.97,1.02,3.02,2.41,4.04,6.82,2.31,10.63,2.39,2.01,3.39,5.11,2.53,7.82-.88,2.78-3.35,4-3.82,4.22.12.64.76,4.45-1.78,7.82-.44.58-3.05,4.05-7.42,3.82-4.63-.24-6.94-4.39-7.06-4.62-5.7,3.04-12.41,2.02-15.99-1.91-4.62-5.07-3.83-14.71,3.33-19.83Z"/>
  <path class="cls-2" d="m139.93,130.4c.66-.13,5.36-.97,9.46,2.31,4.17,3.33,4.34,8.19,4.35,8.85,4.29.05,7.97,2.87,8.97,6.76.84,3.22-.2,7.03-3.2,9.25-2.68,1.98-6.32,2.23-9.33.62-.36,4.6-3.59,8.49-8.04,9.69-4.44,1.2-9.19-.53-11.82-4.31-4.37,1.61-9.28-.09-11.64-3.96-2.5-4.08-1.54-9.55,2.31-12.63-.23-.27-2.93-3.55-1.78-7.74.96-3.48,3.87-5,4.35-5.25-1.39-3.57-.35-7.52,2.4-9.6,4.22-3.2,9.59.18,9.86.36,2.84,1.85,3.81,4.71,4.09,5.65Z"/>
  <path class="cls-2" d="m31.17,80.98c-1.08.99-1.89,2.32-2.11,3.77-.22,1.45.19,3.02,1.22,4.08,1.02,1.05,2.67,1.51,4.04,1,.98-.37,1.74-1.16,2.46-1.92,1.01-1.07,2.03-2.15,3.04-3.22.54-.57,1.09-1.17,1.36-1.91.47-1.33-.15-2.89-1.26-3.76-1.12-.88-2.96-1.38-4.31-.75-1.52.71-3.2,1.58-4.44,2.71Z"/>
  <path class="cls-2" d="m81.81,158.8c-1.58-.37-3.3-.09-4.68.76-.93.57-1.72,1.43-1.97,2.49-.29,1.25.23,2.6,1.16,3.48.93.88,2.2,1.34,3.47,1.48,1.52.16,3.14-.12,4.32-1.08,1.17-.95,1.8-2.75,1.46-4.24-.34-1.5-2.42-2.57-3.77-2.88Z"/>
  <path class="cls-2" d="m99.05,83.8c1.24-.44,2.65-.38,3.84.18.82.38,1.26,1.02,1.49,1.32.15.2.62.84.9,1.81.13.44.37,1.48.09,2.76-.13.57-.31,1.42-1.03,2.16-.52.54-1.08.79-1.27.85-.49.15-1.01.2-1.53.23-.82.05-1.65.08-2.47-.07-.81-.15-1.6-.49-2.18-1.09-1.07-1.12-1.11-2.73-1.02-4.18.07-1.1.39-1.78,1.14-2.6.56-.61,1.25-1.09,2.03-1.37Z"/>
  <path class="cls-2" d="m147.01,99.9c-1.25-.44-2.69-.31-3.84.35-.57.33-1.08.79-1.39,1.38-.39.74-.42,1.62-.38,2.45.04.8.14,1.63.59,2.29.46.68,1.23,1.08,2.01,1.35,1.15.39,2.4.53,3.57.23.57-.15,2.09-.64,2.76-2.17.5-1.15.29-2.37-.13-3.2-.37-.72-.91-1.15-1.56-1.66-.52-.41-.96-.77-1.63-1.01Z"/>
  <path class="cls-2" d="m96.76,121.08c1.08-.93,2.44-1.59,3.87-1.66,1.43-.07,2.92.52,3.76,1.67.63.86.86,1.95.9,3.01.08,1.85-.38,3.75-1.45,5.26-1.07,1.51-2.77,2.6-4.61,2.77-1.84.17-3.78-.66-4.81-2.19-1.92-2.87.05-6.88,2.35-8.85Z"/>
  <path class="cls-2" d="m97.15,150.94c3.48-2.59,7.8-1.98,9.6.44,1.52,2.05,1.02,5.11-.36,6.89-2.82,3.67-9.92,2.71-12-.49-.44-.68-.6-1.38-.67-1.87-1.21-.29-2.12-1.22-2.31-2.36-.24-1.44.79-2.57,1.64-3.07,1.23-.71,2.86-.54,4.09.44Z"/>
  <path class="cls-3" d="m33.88,41.93c-4.78,3.05-7.18,8.67-6.07,13.98,1.1-5.98,5.3-10.79,10.82-12.33,6.23-1.74,11.37,1.46,12.22,2,.91-6.2,5.4-10.9,10.71-11.6,5.1-.68,8.94,2.59,9.62,3.18-.19-.59-.54-1.44-1.17-2.32,0,0-.93-1.3-2.36-2.24-3.09-2.01-7.57-1.14-8.13-1.02-4.32.89-8.01,3.91-9.73,7.69-.46,1.02-.71,1.93-.84,2.58-1.29-.67-3.72-1.72-6.93-1.82-3.89-.12-6.81,1.21-8.13,1.91Z"/>
  <path class="cls-3" d="m76.53,46.13h0c.16-.98.16-2.24-.44-3.57-1.29-2.86-4.2-3.5-4.49-3.56-.72-.06-2.06-.08-3.6.49-1.52.56-2.51,1.44-3.02,1.96.31-.14,4.66-2.02,8.4.49,2.06,1.39,2.87,3.39,3.15,4.19Z"/>
  <path class="cls-1" d="m53.92,53.85c0,.47-.07,1.36-.58,2.31-.76,1.41-1.99,2-2.4,2.18,1.06.15,2.61.49,4.31,1.33,1.58.79,2.72,1.73,3.47,2.45.26-.97.76-2.3,1.73-3.65.21-.29,1-1.35,2.35-2.4,1.07-.82,2.09-1.33,2.84-1.64-.61.2-1.49.46-2.58.67-1.44.27-3.11.59-5.11.27-.92-.15-2.39-.51-4.04-1.51Z"/>
  <path class="cls-1" d="m82.89,56.51c-.23-1.74-.92-3.38-1.97-4.78l-.61-.75h0c1.24,4.15.06,8.57-3.01,11.27-3.64,3.19-8.22,2.47-8.84,2.36.38.49.98,1.15,1.87,1.73,1.32.87,2.61,1.12,3.33,1.2-.23.56-1.83,4.26-6.04,5.69-4.47,1.52-8.2-.77-8.66-1.07.12-.29.26-.72.31-1.24.04-.47,0-.86-.04-1.16-1.84,4.19-6.53,6.29-10.66,4.93-3.78-1.24-6.29-5.1-5.86-9.25.37-.37.77-.8,1.16-1.29.69-.87,1.19-1.71,1.56-2.45-1.62.7-5.57,2.12-10.35,1.07-2.2-.49-3.93-1.36-5.13-2.11.72.99,2.25,2.86,4.88,4.2,1.95,1,4.17,1.55,6.51,1.51-.9,4.26,1.02,8.55,4.58,10.49,4.15,2.26,9.72.89,12.57-3.42,2.16,3.4,6.28,5,10.09,3.96,4-1.1,6.79-4.88,6.66-9.11,5.19-1.86,8.33-6.88,7.69-11.78Z"/>
  <path class="cls-3" d="m49.25,59.32c1.93-1.71,4.59-2.27,6.8-1.38,2.89,1.16,4.62,4.62,3.73,8.09-.18-.63-1.23-3.97-4.67-5.78-2.57-1.35-5.02-1.07-5.86-.93Z"/>
  <path class="cls-1" d="m113.32,80.34c4.06,3.83,10.47,3.38,14.48.62,2.62-1.8,3.81-4.32,4.31-5.6.68.23,7.61,2.41,13.15-1.82,3.8-2.9,5.4-7.64,5.09-12.12-2.33,6.48-7.38,11.01-13.04,11.5-2.92.25-5.38-.63-6.98-1.42-1.51,6.22-7.56,9.55-12.31,8.09-3.53-1.08-6.19-4.76-6.44-9.11.65-.27,1.51-.73,2.35-1.51,1.72-1.59,2.26-3.52,2.44-4.36-.39.25-5.15,3.26-9.95,1.07-2.24-1.02-3.5-2.72-4.07-3.63.01.76.15,1.42.3,1.99.92,3.41,3.84,5.98,7.42,6.54-.08.69-.64,6.12,3.24,9.78Z"/>
  <path class="cls-3" d="m149.39,57.02c-.24-.61-.51-1.19-.83-1.75-1.86-3.27-4.74-4.92-6.26-5.65.61-2.1,2.1-8.31-1.11-13.83-5.34-9.17-20.81-11.46-27.1-4.98-2.85,2.94-3.23,7.09-3.24,9.38-3.16.52-5.72,2.82-6.53,5.87-.3,1.13-.34,2.3-.14,3.43l.67,2.08s0,0,0,0c.08-1.04.44-3.74,2.54-6.09,3.65-4.07,9.2-3.32,9.69-3.25-.58-.48-1.5-1.11-2.75-1.56-.89-.31-1.69-.44-2.31-.49.5-1.73,1.76-5.05,4.89-7.29,5.9-4.23,15.25-2.32,20.26,3.25,4.61,5.13,4.1,11.76,3.95,13.2-.49,0-1.06.03-1.69.18-1.86.43-3.1,1.52-3.69,2.13,1.33-.2,3.95-.42,6.98.62,3.69,1.27,5.85,3.67,6.7,4.73Z"/>
  <path class="cls-3" d="m119.1,52.2c.6.03,2.11.2,3.6,1.29,1.55,1.13,2.15,2.6,2.35,3.16.36-.68,1.13-1.88,2.53-2.89,1.65-1.19,3.31-1.47,4.09-1.56-.21-.18-1.71-1.45-3.82-1.11-1.83.3-2.83,1.6-3.02,1.87-.33-.34-.86-.78-1.6-1.07-1.95-.76-3.77.13-4.13.31Z"/>
  <path class="cls-3" d="m102.73,59.17c.65-.91,1.91-2.38,3.97-3.41,3.98-1.99,7.87-.79,8.75-.49-.51-.47-2.15-1.84-4.67-2.05-.81-.06-2.41-.07-4.09.8-2.92,1.52-3.8,4.52-3.97,5.14Z"/>
  <path class="cls-1" d="m105.43,87.77c-.94,1.64-2.54,2.91-4.38,3.35-1.69.4-3.5.09-5.01-.77.15.58.42,1.13.86,1.59.57.6,1.37.94,2.18,1.09.81.15,1.64.12,2.47.07.52-.03,1.04-.08,1.53-.23.19-.06.75-.31,1.27-.85.72-.74.9-1.59,1.03-2.16.18-.83.14-1.55.06-2.09Z"/>
  <path class="cls-1" d="m149.95,102.16c.06.73-.11,1.49-.47,2.13-.62,1.1-1.75,1.86-2.98,2.15-1.23.29-2.53.12-3.71-.34-.43-.17-.86-.38-1.22-.67.09.33.22.65.41.94.46.68,1.23,1.08,2.01,1.35,1.15.39,2.4.53,3.57.23.57-.15,2.09-.64,2.76-2.17.5-1.15.29-2.37-.13-3.2-.08-.15-.16-.28-.25-.41Z"/>
  <path class="cls-1" d="m133.98,138.14c.11.72.47,3.66-1.42,6.4-1.19,1.73-2.73,2.57-3.51,2.93.69.24,1.59.64,2.53,1.29.83.58,1.46,1.19,1.91,1.69.75-.66,1.77-1.37,3.07-1.91,4.21-1.75,8.23-.3,9.42.18.07-.33.23-.91.67-1.47,1.02-1.31,2.68-1.32,2.67-1.6-.02-.54-6.27.69-10.62-2.22-2.63-1.77-4.04-4.02-4.71-5.29Z"/>
  <path class="cls-1" d="m159.08,143.22c1.65,2.41,1.85,5.5.49,7.94-.13.24-1.94,3.37-5.6,3.69-2.37.21-4.12-.88-4.67-1.24-1.36,4.87-5.51,8.19-9.95,8.22-4.69.04-7.65-3.6-8.04-4.09-2.49,2.52-6,3.53-9.11,2.58-2.74-.84-4.21-2.92-4.68-3.65.25,1.3.74,2.24,1.17,2.93,2.37,3.87,7.27,5.57,11.64,3.96,2.63,3.78,7.38,5.51,11.82,4.31,4.45-1.2,7.68-5.1,8.04-9.69,3.01,1.6,6.65,1.36,9.33-.62,3-2.21,4.03-6.03,3.2-9.25-.54-2.1-1.87-3.89-3.64-5.1Z"/>
  <path class="cls-3" d="m152.78,137.2c-.63-1.49-1.67-3.11-3.38-4.48-4.11-3.28-8.8-2.44-9.46-2.31-.27-.93-1.24-3.79-4.09-5.65-.27-.18-5.64-3.56-9.86-.36-2.75,2.08-3.79,6.03-2.4,9.6-.48.24-3.39,1.77-4.35,5.25-.2.73-.29,1.44-.29,2.11.29-.76,1.4-3.43,4.37-5.13,2.84-1.62,5.57-1.32,6.4-1.2-.44-.28-1.05-.61-1.82-.84-1.17-.36-2.19-.36-2.84-.31-.29-3.05,1.03-5.91,3.29-7.11,3.15-1.68,8.02-.07,9.98,4.37-.32.19-.81.54-1.22,1.14-.25.36-.4.71-.49.98,1.02-.47,4.43-1.87,8.71-.84,4.35,1.04,6.78,3.92,7.47,4.79Z"/>
  <path class="cls-1" d="m103.49,127.61c-1.78,1.87-4.46,2.84-7.02,2.52-.83-.1-1.69-.39-2.41-.84.1.22.22.43.35.63,1.03,1.54,2.97,2.36,4.81,2.19,1.84-.17,3.54-1.25,4.61-2.77.97-1.37,1.44-3.06,1.46-4.75-.38,1.11-.99,2.15-1.8,3Z"/>
  <path class="cls-1" d="m93.99,155.52c.12-.06.28-.15.44-.31.19-.18.29-.36.36-.49-.37,0-.98-.06-1.64-.36-.98-.44-1.53-1.14-1.75-1.48,0,.07-.01.16-.01.27,0,.13.01.27.03.41.19,1.13,1.1,2.07,2.31,2.36.06.49.22,1.18.67,1.87,2.08,3.2,9.17,4.16,12,.49.29-.37.53-.8.73-1.26h0c-3.5,2.31-7.55,2.8-10.51,1.08-.7-.41-1.73-1.17-2.62-2.58Z"/>
  <path class="cls-1" d="m83.6,164.6c-1.64.74-3.55.92-5.25.33-1.37-.48-2.56-1.49-3.22-2.77-.23,1.21.29,2.51,1.19,3.36.93.88,2.2,1.34,3.47,1.48,1.52.16,3.14-.12,4.32-1.08.75-.61,1.28-1.57,1.47-2.57-.61.5-1.27.93-1.98,1.25Z"/>
  <path class="cls-3" d="m95.67,122.19c.46-.41,1.98-1.66,4.32-1.84,2.48-.19,4.24.96,4.73,1.3-.1-.2-.21-.39-.34-.57-.84-1.15-2.33-1.74-3.76-1.67-1.43.07-2.78.73-3.87,1.66-.38.32-.74.7-1.08,1.12Z"/>
  <path class="cls-1" d="m41.18,82.78c.12-.34.17-.7.16-1.06-.2.67-.57,1.28-1.12,1.73-1.15.94-2.76,1.08-4,1.89-.83.54-1.44,1.35-2.15,2.04-.71.69-1.6,1.3-2.59,1.27-.84-.02-1.61-.52-2.1-1.21.21.52.51.99.9,1.4,1.02,1.05,2.67,1.51,4.04,1,.98-.37,1.74-1.16,2.46-1.92,1.01-1.07,2.03-2.15,3.04-3.22.54-.57,1.09-1.17,1.36-1.91Z"/>
  <path class="cls-1" d="m59.07,142.32c.47-.22,2.94-1.44,3.82-4.22.21-.67.31-1.36.3-2.05-.2.42-1.26,2.47-3.68,3.25-1.49.48-2.78.24-3.38.09.79,4.08-1.54,7.96-5.02,9.02-2.76.85-5.92-.17-7.95-2.58-4.74,3.08-10.92,2.41-14.66-1.42-3.31-3.39-4.13-8.67-1.99-13.14-3.93,4.69-3.82,11.64.3,16.16,3.59,3.94,10.29,4.95,15.99,1.91.12.23,2.43,4.39,7.06,4.62,4.37.22,6.98-3.25,7.42-3.82,2.54-3.37,1.9-7.18,1.78-7.82Z"/>
  <path class="cls-1" d="m29.91,122.11c-.32,1.75-.24,3.64.24,5.49.3-.17.66-.34,1.07-.49.69-.26,1.31-.38,1.82-.44-.42-.14-1.33-.51-2.09-1.42-1.07-1.3-1.04-2.78-1.02-3.16,0,0-.01.01-.02.02Z"/>
  <path class="cls-3" d="m38.1,127.65c3.05-.25,5.87,1.33,7.02,3.87,1.27,2.81-.08,5.51-.27,5.87.01-.97-.09-3.09-1.38-5.29-1.76-3.01-4.54-4.14-5.38-4.45Z"/>
  <path class="cls-3" d="m63.01,134.51c-.37-1.59-1.28-3.1-2.65-4.24,1.73-3.81.71-8.21-2.31-10.63-2.47-1.97-5.94-2.35-8.97-1.02-4.76-5.27-12.2-5.65-16.22-2.05-.43.38-.81.81-1.15,1.27.92-.48,6.02-3.03,11.9-.96,3.95,1.39,6.18,4.14,7.02,5.29-.08-.52-.24-1.17-.58-1.87-.13-.26-.26-.5-.4-.71.52-.12,4.08-.86,7.11,1.47,2.63,2.02,3.82,5.54,3.02,8.98-.53-.16-1.26-.31-2.13-.31-1.4,0-2.49.42-3.11.71.81-.09,2.97-.22,5.24,1.02,1.79.98,2.79,2.35,3.23,3.04Z"/>
</svg>