<?xml version="1.0" encoding="UTF-8"?>
<svg id="Layer_1" xmlns="http://www.w3.org/2000/svg" viewBox="0 0 180.61 180.72">
  <defs>
    <style>
      .cls-1 {
        fill: #eb4a00;
      }

      .cls-2 {
        fill: #f36900;
      }

      .cls-3 {
        fill: #fdf28e;
      }

      .cls-4 {
        fill: #fdf49f;
      }

      .cls-5 {
        fill: #fdea3a;
      }
    </style>
  </defs>
  <path class="cls-5" d="m75.8,95.52c-15.95-7.52-19.25-9.78-19.02-10.36.16-.41,2.08.06,9.91,1.47,3.98.72,7.26,1.28,9.46,1.64-8.1-4.86-12-7.61-11.69-8.22.27-.54,3.72.53,10.35,3.2-.67-.81-1.6-2.01-2.58-3.56-1.11-1.75-2-3.16-1.69-3.47.44-.43,2.91,1.83,6.93,4.22,2.59,1.55,4.87,2.57,6.43,3.21.69-2.42,1.37-4.84,2.06-7.25-2.65-12.18-3.71-18.35-3.15-18.49.36-.1,1.41,2.4,3.16,7.49.12-.84.3-1.28.53-1.31.99-.13,2.99,7.14,6,21.83-5.57,3.2-11.14,6.4-16.71,9.6Z"/>
  <path class="cls-5" d="m91.62,73.11l4.89,16.18c3.95-1.23,7.91-2.46,11.86-3.69,7.45-3.43,8.94-4.42,8.84-4.67-.09-.22-1.49.19-4.22.71-2.78.53-5.08.82-6.62.98,9.87-13.9,14.41-21.16,13.64-21.78-.75-.6-6.45,4.99-17.11,16.76.58-3.31.99-5.12,1.29-6.18.07-.24.27-.93.09-1.02-.21-.11-.82.64-1.02.89-.86,1.05-2.4,2.79-5.2,5.78-.38-.36-.77-.71-1.16-1.07.18-2.62.39-6.38.49-10.94.14-6.37-.1-6.85-.31-6.89-.54-.11-1.88,2.43-5.46,14.94Z"/>
  <path class="cls-5" d="m93.57,106.85c6.48,13.97,8.41,17.02,8.84,16.85.16-.06.08-.53,0-1.87-.16-2.49-.14-4.54-.09-5.96,2.81,3.57,5.14,6.41,6.8,8.4,1.54,1.84,2.78,3.3,3.2,3.07.46-.26-.33-2.48-.76-3.65-1.15-3.16-2.99-8.03-5.82-14.89,2.46,2.32,5.4,4.91,5.95,4.45.09-.07.14-.24-.18-1.29-.34-1.12-.96-2.72-2.13-4.53,1.57.63,3.92,1.55,6.84,2.58,3.83,1.35,4.81,1.53,4.98,1.24.25-.44-1.47-1.82-2.84-2.98-2.26-1.92-5.32-4.73-8.8-8.62-5.33,2.4-10.66,4.8-15.99,7.2Z"/>
  <path class="cls-5" d="m86.46,111.03c-3.39,5.7-7.41,12.06-8.35,11.6-.36-.17-.15-1.26.27-3.47.47-2.51,1.21-6.45,2.22-11.96-1.57.03-3.14.06-4.71.09-2.36,1.29-5.71,3.17-9.69,5.6-2.77,1.69-3.92,2.47-4.22,2.18-.46-.44,1.09-3.28,9.55-13.47-7.04,1.67-14.8,3.34-15.02,2.62-.09-.31,1.26-.96,3.11-1.87,3.19-1.57,7.69-3.84,13.28-6.85,4.52,5.17,9.03,10.34,13.55,15.52Z"/>
  <path class="cls-4" d="m98.66,80.94c.74.15,1.48.3,2.22.44,6.22-6.31,7.91-7.32,8.26-7.02.36.3-.52,2.01-1.73,4.4-1.13,2.22-2.23,3.97-3.02,5.16-.12,1.21-.75,2.2-1.65,2.5-.97.31-1.93-.26-2.48-.69-.84-.67-1.43-1.6-2.03-2.47-.8-1.16-1.14-1.8-1.23-2.59-.1-.95.19-1.75.41-2.21,2.27-2.07,3.56-2.97,3.87-2.71.34.29-.53,2.02-2.62,5.2Z"/>
  <path class="cls-4" d="m82.49,108.37c-1.6,4.01-2.16,6.14-1.69,6.4.26.14.82-.27,1.69-1.24,0,.27.07.44.18.49.36.17,1.28-.85,2.75-3.07-.98-.86-1.95-1.72-2.93-2.58Z"/>
  <path class="cls-4" d="m86.35,74.31c-.93-4.15-1.24-6.26-.93-6.36.2-.06.66.74,1.38,2.4.12-.94.26-1.41.44-1.42.32-.02.73,1.4,1.24,4.27-.71.37-1.42.74-2.13,1.11Z"/>
  <path class="cls-4" d="m95.73,109.08c2.24,4.1,3.18,5,3.6,4.85.55-.2.11-2.26.76-2.49.86-.31,2.57,2.99,3.07,2.76.54-.25-.14-4.71-.62-7.91-.04-.25-.14-.89.18-1.11.26-.18.69,0,2.4.89,1.36.71,1.68.9,1.95.76.57-.3.04-1.5.67-2.05.83-.73,2.69.58,3.07.13.23-.27-.09-1.15-2.18-3.65-1.25-.07-4.02-.05-6.98,1.51-3.78,2-5.42,5.23-5.91,6.31Z"/>
  <path class="cls-4" d="m71.33,98.1c-.45.19-3.74,1.58-3.55,2.36.16.65,2.65.57,3.38.53.06-.96.12-1.93.18-2.89Z"/>
  <path class="cls-4" d="m72.4,103.7c-1.85,2.59-2.64,4.01-2.35,4.27.26.24,1.43-.52,3.51-2.27-.38-.67-.77-1.33-1.16-2Z"/>
  <path class="cls-4" d="m74.09,93.38c1.29.33,2.65-.08,3.51-1.07,1.2-1.38.75-3.12.71-3.25-2.17-.6-2.97-.46-3.2-.09-.31.49.48,1.29.13,1.73-.31.39-1.1,0-2.89,0-.88,0-1.69,0-1.78.27-.09.26.46.86,3.51,2.4Z"/>
  <path class="cls-2" d="m81.89,109.08c-4.23.52-8.29-1.19-10.13-4.31-2.57-4.35-.71-11.22,5.2-14.36-3.76-3.32-4.07-8.53-1.6-11.29,1.69-1.89,4.6-2.54,7.42-1.87,2.31-4.88,7.23-7.13,10.66-5.96,4.56,1.56,5.84,8.94,5.69,9.02,0,0,0,0,0,0,.61-.14,7.09-1.53,11.86,2.89,4.4,4.08,5.12,11.04,2.4,15.43-.4.65-2.17,3.5-5.29,4.45-.41.13-.75.19-4.4.8h0c-.12.69-.59,3-2.67,4.71-3.16,2.61-7.14,1.43-7.46,1.33-.13.2-2.06,3.15-5.6,3.16-2.59,0-4.98-1.56-6.09-4Z"/>
  <path class="cls-1" d="m93.59,105.97c-.23.17-.91.65-1.87.62-1.55-.04-2.41-1.35-2.49-1.47.3-.07.75-.23,1.2-.58.94-.74,1.15-1.79,1.2-2.09-1.86,1.66-4.41,1.77-5.91.53-1.39-1.15-1.38-3.04-1.38-3.33-.24.33-.94,1.39-.84,2.85.05.8.33,1.42.53,1.78-3.61,1.85-7.88,1.07-10.26-1.69-2.85-3.31-1.49-7.72-1.41-7.96-2.19,3-2.45,7.01-.61,10.13,1.84,3.12,5.9,4.83,10.13,4.31,1.1,2.44,3.5,4.01,6.09,4,3.54,0,5.47-2.96,5.6-3.16.32.1,4.31,1.27,7.46-1.33,2.05-1.7,2.54-3.98,2.66-4.69-.12.2-2.22,3.6-5.97,3.58-2.11,0-3.6-1.09-4.13-1.51Z"/>
  <path class="cls-3" d="m110.99,83.2c-4.76-4.41-11.22-3.04-11.86-2.89.15-.09-1.13-7.47-5.69-9.02-3.43-1.17-8.35,1.08-10.66,5.96-2.82-.68-5.73-.02-7.42,1.87-1.43,1.6-1.93,4.01-1.37,6.41.39-3.42,2.61-6.07,5.34-6.59,1.97-.37,3.62.47,4.27.84,1.02-2.78,3.44-4.74,6.18-4.98,3.47-.31,6.92,2.21,7.82,6.05-.4.22-1.03.65-1.56,1.38-.28.39-.46.76-.58,1.07.7-.26,6.62-2.34,11.6.98,4.93,3.28,6.91,10.49,4.06,17.08.65-.56,1.49-1.47,2.27-2.72,2.72-4.39,2-11.35-2.4-15.43Z"/>
  <path class="cls-3" d="m80.27,90.05c.31-.04,2.99-.33,4.84,1.65,1.04,1.11,1.3,2.38,1.38,2.93.27-.14,1.14-.54,2.22-.31,1.57.33,2.27,1.69,2.35,1.87.02-.09.37-1.56-.71-2.67-1.07-1.1-2.53-.82-2.62-.8-.17-.56-.59-1.64-1.64-2.45-1.55-1.19-3.82-1.26-5.82-.22Z"/>
  <path class="cls-3" d="m104.08,92.9c-1.58-1.73-4.25-2.2-6.49-1.07,3.18.52,4.62,1.74,5.33,2.85,1.52,2.36.95,6.09.98,6.09,0,0,0-.25,0-.49,1.98-2.14,1.99-5.39.18-7.38Z"/>
</svg>