<?xml version="1.0" encoding="UTF-8"?>
<svg id="Layer_1" xmlns="http://www.w3.org/2000/svg" viewBox="0 0 180.61 180.72">
  <defs>
    <style>
      .cls-1 {
        fill: #f9b728;
      }

      .cls-2 {
        fill: #eb4a00;
      }

      .cls-3 {
        fill: #f36900;
      }
    </style>
  </defs>
  <g>
    <path class="cls-3" d="m59.29,43c-.93-2.15-.5-4.61,1.07-6.18,2.4-2.4,5.91-1.12,6.18-1.02,3.07,1.18,3.85,4.35,3.91,4.62.25,0,3.02.02,4.58,2.27,1.32,1.91,1.21,4.61-.36,6.62.75.62,2.42,2.18,3.07,4.71.76,3.01.09,7.49-3.24,9.16-2.86,1.43-5.96-.07-6.44-.31-2.42,2.48-6.34,2.71-8.97.58-2.54-2.05-3.21-5.75-1.51-8.62-2.29-1.19-3.65-3.6-3.47-6.09.21-2.79,2.34-5.17,5.2-5.74Z"/>
    <path class="cls-3" d="m45.4,24.15c-3.91-.63-8.14,1.35-10.07,4.8s-1.35,8.18,1.46,10.98c2.8,2.8,7.46,3.39,10.99,1.6,2.82-1.43,4.82-4.23,5.52-7.28.74-3.22-.56-5.81-3.09-7.89-1.38-1.13-3.04-1.92-4.8-2.21Z"/>
    <path class="cls-3" d="m38.19,66.92c-5.25.88-10.19-2.56-11.15-7.42-1.02-5.17,2.72-10.51,7.51-11.03,4.58-.49,7.84,3.68,8.04,3.96.27-.08,3.11-.88,5.55,1.02,2.67,2.08,2.33,5.42,2.31,5.6,3.55,2.52,4.65,7.17,2.8,10.63-2.37,4.43-8.62,5.05-12.08,2.49-2.28-1.68-2.83-4.36-2.98-5.25Z"/>
    <path class="cls-3" d="m35.83,81.16c.05-1.38-.98-2.68-2.29-3.12-1.31-.45-2.81-.12-3.94.67-1.13.79-1.93,2-2.42,3.29-.33.87-.54,1.82-.4,2.74.13.92.65,1.83,1.47,2.26,1.8.96,3.22-.62,4.23-1.9,1.12-1.42,3.27-1.84,3.35-3.95Z"/>
    <path class="cls-3" d="m107.01,55.76c-2.44,1.93-3.66,4.98-3.11,7.87.69,3.62,4.04,6.42,8.09,6.54.16.43,2.49,6.27,8.44,7.51,5.26,1.1,11.17-1.84,13.06-7.34,1.67-4.83-.22-10.32-4.62-13.25.03-.35.29-4.02-2.67-6.54-3.07-2.61-6.82-1.59-7.11-1.51-2.62-4.25-8.07-4.95-10.97-2.49-2.31,1.96-2.97,5.89-1.11,9.2Z"/>
    <path class="cls-3" d="m127.27,34.11c.67-5.19,3.74-9.65,8.18-11.38,6.59-2.57,14.07,1.69,17.02,7.56,3.32,6.62-.1,13.35-.49,14.09.19.47,2.18,5.76-.67,9.47-3.11,4.06-9.67,3.17-13.42,1.29-4.15-2.09-5.88-5.92-6.4-7.2-4.12-.39-7.26-3.47-7.55-7.02-.34-4.02,3.13-6.65,3.33-6.8Z"/>
    <path class="cls-3" d="m142.29,138.82c0-.32.05-4.74,3.47-6.85,3.44-2.12,7.35-.08,8.44.49,4.7,2.45,5.79,7.62,5.95,8.45,5.02,1.82,6.96,7.54,4.89,11.34-1.95,3.57-7.27,5.12-11.51,2.49-2.44,2.99-6.71,3.7-9.86,1.73-2.93-1.83-4.24-5.56-3.07-8.94-1.41-1.14-2.11-2.94-1.82-4.71.3-1.88,1.67-3.44,3.51-4h0Z"/>
    <path class="cls-3" d="m127.23,143.53c1.53-.22,3.06.39,3.95,1.6,1.03,1.38,1.07,3.31.09,4.8.14.02,1.09.18,1.64,1.07.62.99.22,2.03.18,2.13,1.92.43,3.29,2.02,3.38,3.82.07,1.42-.66,3.04-2.22,3.73-1.34.6-2.95.34-4.09-.67-.74.22-1.86.46-3.2.36-3.26-.26-7.11-2.51-7.95-6.22-.45-1.98.1-3.74.58-4.8-1.99-1.66-2.61-4.4-1.56-6.54.85-1.73,2.82-3.13,5.06-2.85,1.92.24,3.54,1.63,4.13,3.56Z"/>
    <path class="cls-3" d="m26.55,123.47c-.05-.66-.32-4.76,2.71-7.78,3.02-3.01,7.8-3.43,11.33-1.56,3.26,1.73,4.43,4.87,4.71,5.69.12.05,2.86,1.37,3.15,4.31.22,2.21-1.04,4.38-3.15,5.38,1.91,2.01,2.15,5.05.67,7.2-1.3,1.88-3.71,2.78-6.04,2.22-.56.89-2.85,4.3-6.84,4.98-5.64.96-11.92-3.98-12.35-10.09-.28-4.04,2.03-8.03,5.82-10.36Z"/>
    <path class="cls-3" d="m51.7,140.18c.06-.24.75-2.61,2.98-3.38,2.31-.8,4.89.61,5.78,2.58,1.1,2.43-.29,5.89-3.55,7.11,1.27,2.03,1.42,4.52.31,6.45-1.7,2.95-5.68,3.42-8.09,2.31-1.26-.58-3.32-2.15-3.24-3.85,0,0,0-.01,0-.02-.47-.14-3.23-1.02-4.22-3.56-1.25-3.2,1-7.21,4.27-8.36,2.76-.97,5.3.44,5.78.71Z"/>
    <path class="cls-3" d="m59.93,121.5c-.7-.97-1.71-1.77-2.88-1.97-1.01-.17-2.06.12-2.91.69-.85.57-1.5,1.4-1.97,2.3-.75,1.45-1.05,3.17-.64,4.75.41,1.58,1.56,3,3.09,3.55,1.03.37,2.2.35,3.23-.02,2.47-.86,4.37-4.12,3.42-6.67-.34-.91-.77-1.83-1.35-2.62Z"/>
    <path class="cls-3" d="m133.12,119.01c-1.43-.25-2.91-.1-4.29.33-1.29.41-2.52,1.08-3.46,2.05-.94.98-1.57,2.28-1.61,3.64-.04,1.36.55,2.75,1.65,3.55.88.64,1.98.86,3.06,1,1.65.22,3.31.28,4.97.19.74-.04,1.49-.11,2.17-.39,1.58-.65,2.55-2.38,2.63-4.08.06-1.47-.46-3.2-1.36-4.38-.82-1.08-2.47-1.68-3.74-1.91Z"/>
    <path class="cls-3" d="m97.81,124.11c-1.09.04-2.19.46-2.92,1.27-.82.9-1.1,2.22-.81,3.4.29,1.18,1.13,2.19,2.2,2.77,1.07.58,2.34.73,3.53.51.74-.14,1.48-.43,1.97-.99.43-.48.64-1.11.79-1.73.18-.79.27-1.62.1-2.41-.18-.85-.74-1.82-1.58-2.17-1-.4-2.21-.69-3.28-.65Z"/>
    <path class="cls-3" d="m98.47,156.17c-.9.49-1.69,1.21-2.15,2.13-.46.92-.54,2.04-.1,2.97.41.86,1.23,1.47,2.13,1.78.9.31,1.87.34,2.82.27,1.38-.11,2.85-.51,3.68-1.62.63-.84.74-1.73.76-2.11.11-2.06-1.5-3.34-1.59-3.4-1.2-.92-2.55-.82-3.17-.78-1.19.08-2.03.56-2.4.76Z"/>
    <path class="cls-2" d="m34.99,82.17c-.76.87-1.26.81-2.62,1.77-1.45,1.03-1.62,1.69-2.8,2.05-.82.25-1.41.13-1.6.09-.4-.09-.71-.26-.9-.38.25.56.66,1.04,1.19,1.32,1.8.96,3.22-.62,4.23-1.9,1.12-1.42,3.27-1.84,3.35-3.95,0-.21,0-.42-.05-.62-.1.59-.4,1.17-.8,1.63Z"/>
    <path class="cls-2" d="m53.29,34.25c.18-.78.24-1.52.19-2.23-.46.87-3.38,6.21-9.08,7.43-1.03.22-3.68.79-6.58-.44-1.36-.58-2.33-1.37-2.93-1.93.08.2.19.44.32.71.13.26.29.53.47.82.31.48.68.93,1.08,1.34,2.8,2.8,7.46,3.39,10.99,1.6,2.82-1.43,4.82-4.23,5.52-7.28Z"/>
    <path class="cls-1" d="m52.85,29.59c-.56-1.2-1.47-2.27-2.65-3.24-1.38-1.13-3.04-1.92-4.8-2.21-3.91-.63-8.14,1.35-10.07,4.8-.87,1.56-1.23,3.38-1.1,5.17.14-.5,1.74-5.68,6.99-7.48,4.02-1.38,8.58-.23,11.64,2.95Z"/>
    <path class="cls-1" d="m49.85,55.59c-.35-.75-.88-1.51-1.7-2.15-2.44-1.9-5.28-1.1-5.55-1.02-.21-.27-3.46-4.45-8.04-3.96-3.65.39-6.69,3.59-7.48,7.38,1.14-3.09,3.86-5.28,7.03-5.65,4.24-.49,7.06,2.55,7.33,2.85-.27.11-.62.29-.98.58-.57.45-.89.96-1.07,1.29.76-.47,2.24-1.22,4.22-1.33,3.27-.19,5.59,1.51,6.24,2.01Z"/>
    <path class="cls-2" d="m52.44,61c1.11,3.4-.2,6.98-2.92,8.54-2.38,1.37-6.16,1.4-8.04-1.16-1.38-1.86-1.38-4.61.04-6.85-1.01.56-3.99,2.05-7.91,1.56-3.19-.4-5.38-1.9-6.33-2.64.26.75,1.26,3.43,4.13,5.17,1.94,1.18,4.32,1.7,6.77,1.29.14.88.7,3.56,2.98,5.25,3.46,2.56,9.71,1.94,12.08-2.49,1.44-2.69,1.09-6.11-.81-8.68Z"/>
    <path class="cls-1" d="m75.27,43.08c-.07-.13-.16-.26-.24-.39-1.56-2.24-4.33-2.27-4.58-2.27-.06-.27-.84-3.44-3.91-4.62-.26-.1-3.77-1.38-6.18,1.02-1.57,1.57-2,4.03-1.07,6.18-2.48.49-4.41,2.35-5.02,4.65.54-.7,1.63-1.92,3.42-2.78,2.31-1.12,4.43-.99,5.33-.89-.27-.22-.69-.5-1.24-.71-.61-.23-1.15-.3-1.51-.31-.04-.21-.46-2.56,1.2-4.22,1.82-1.82,4.44-1.12,4.8-1.02,2.24.64,3.22,2.56,3.38,2.89-.25.08-.66.24-1.07.58-.27.23-.46.48-.58.67.52-.17,1.13-.31,1.82-.36,2.59-.19,4.59,1,5.44,1.59Z"/>
    <path class="cls-2" d="m74.67,49.31c1.05-1.35,1.45-3.01,1.19-4.54-.19.73-.88,3.02-3.1,4.59-1.17.83-2.33,1.15-3.07,1.29.4.13,1.2.32,2.18.13.71-.14,1.23-.42,1.55-.62,2.01,1.61,2.74,4.21,1.87,6.31-.6,1.44-1.95,2.66-3.69,2.98-2.36.44-4.06-1.02-4.27-1.2-.25.42-.75,1.15-1.64,1.6-1.61.82-3.72.38-5.02-.93-1.77-1.79-1.14-4.32-1.11-4.45.25-.11.54-.27.84-.49.46-.33.8-.69,1.02-.98-.74.17-2.42.45-4.35-.22-1.26-.44-2.14-1.12-2.66-1.59.18.5.52,1.3,1.2,2.09.53.62,1.19,1.15,1.94,1.54-1.7,2.87-1.03,6.57,1.51,8.62,2.64,2.13,6.56,1.9,8.97-.58.48.24,3.58,1.74,6.44.31,3.33-1.67,4.01-6.15,3.24-9.16-.64-2.53-2.31-4.09-3.07-4.71Z"/>
    <path class="cls-2" d="m134.07,67.42c-.38,1.11-1.44,3.72-4.09,5.68-2.93,2.18-7.27,3.17-11.2,1.47-3.35-1.45-4.94-4.23-5.46-5.25.4-.42.95-1.09,1.38-2.05.54-1.21.62-2.3.62-2.93-.14.13-3.33,3.08-7.29,1.91-2.65-.79-3.95-2.92-4.24-3.44.02.29.06.56.11.82.69,3.62,4.04,6.42,8.09,6.54.16.43,2.49,6.27,8.44,7.51,5.26,1.1,11.17-1.84,13.06-7.34.33-.96.52-1.94.58-2.92Z"/>
    <path class="cls-2" d="m107.01,55.76c-.17.13-.33.27-.49.42l5.07-.73c-.88-.2-2.28-.65-3.69-1.69-.89-.65-1.53-1.35-1.97-1.92.01.52.07,1.21,1.08,3.92Z"/>
    <path class="cls-2" d="m125.01,56.74c.59-.14,1.52-.27,2.62-.04.49.1.91.25,1.24.4.03-.5.02-1.09-.08-1.74-.14-.92-.46-2.09-1.2-3.22-.04.55-.19,1.56-.81,2.65-.59,1.02-1.34,1.64-1.78,1.96Z"/>
    <path class="cls-1" d="m107.01,55.76c-1.08.86-1.92,1.93-2.48,3.11.63-.55,2.25-1.83,4.7-2.13,3.49-.43,6.02,1.46,6.53,1.87-.18-.34-1.64-2.99-4.71-3.51-1.95-.33-3.49.38-4.04.67Z"/>
    <path class="cls-1" d="m125.78,50.22c-2.98-2.18-6.41-1.25-6.68-1.17-2.62-4.25-8.07-4.95-10.97-2.49-1.05.89-1.76,2.2-2.05,3.66.5-.71,1.82-2.37,4.09-3.04,3-.88,6.43.31,8.75,3.02.55-.22,1.23-.42,2-.53,2.12-.32,3.87.18,4.86.55Z"/>
    <path class="cls-2" d="m137.49,36.86c.17.57.33,1.27.4,2.09.1,1.14,0,2.12-.13,2.85.59-.23,1.29-.46,2.09-.62,1.73-.35,3.23-.28,4.31-.13-.89-.16-2.36-.54-3.91-1.56-1.37-.89-2.25-1.92-2.75-2.62Z"/>
    <path class="cls-2" d="m134.56,47.45c-.4.13-.88.26-1.42.36-.62.1-1.18.14-1.64.13.52,1.29,2.25,5.12,6.4,7.2,3.74,1.88,10.3,2.77,13.42-1.29,2.59-3.37,1.18-8.05.76-9.22,1,2.7.69,5.56-.93,7.4-2.23,2.53-6.78,1.79-7.95,1.6-1.13-.18-4.24-.84-6.75-3.51-.93-.99-1.51-1.96-1.87-2.67Z"/>
    <path class="cls-2" d="m131.09,33.71c.03-.11-1.6-.3-2.4-1.42-.47-.67-.5-1.45-.47-1.94-.21.54-.41,1.15-.59,1.84-.16.63-.28,1.27-.37,1.93.34-.18.81-.37,1.38-.49,1.3-.26,2.42.18,2.44.09Z"/>
    <path class="cls-1" d="m130.19,26.79h0c.8-.68,2.06-1.59,3.79-2.29.5-.2,2.74-1.07,5.82-.98.8.02,4.49.19,8.31,2.67,2.1,1.36,3.49,2.94,4.35,4.09-2.95-5.87-10.43-10.13-17.02-7.56-1.14.47-3.28,1.54-5.26,4.06Z"/>
    <path class="cls-2" d="m151.98,44.38c.15-.28.72-1.4,1.21-3.05-.4.24-.93.51-1.61.69-1.32.35-2.45.19-3.07.04.56.14,1.46.45,2.35,1.16.5.4.86.81,1.11,1.16Z"/>
    <path class="cls-1" d="m163.01,142.62c-.8-.72-1.75-1.31-2.86-1.71-.16-.83-1.26-5.99-5.95-8.45-1.09-.57-5-2.61-8.44-.49-3.41,2.11-3.47,6.53-3.47,6.85-1.06.32-1.95.97-2.59,1.82.51-.38,1.53-1.01,2.94-1.2.81-.11,1.5-.05,2,.04-.12-.15-.34-.37-.67-.53-.51-.26-.99-.24-1.2-.22.14-.64.88-3.67,3.64-5.2,3.92-2.18,8.24.7,8.8,1.07,3.02,2.01,3.99,5.09,4.27,6.09-.4-.05-.94-.06-1.55.04-.93.16-1.63.53-2.04.8.93-.14,2.3-.24,3.91.04,1.36.24,2.44.67,3.22,1.04Z"/>
    <path class="cls-2" d="m148.85,141.41c.46.5.98,1.24,1.1,2.19.12.92-.18,1.62,0,1.7.24.1.69-1.03,1.83-2.08,1.24-1.14,2.53-1.47,2.47-1.63-.06-.16-1.26.37-2.87.34-1.07-.02-1.94-.28-2.53-.51Z"/>
    <path class="cls-2" d="m138.75,143.01c-.21,1.71.49,3.43,1.85,4.52.11-.24.25-.49.44-.76.7-.93,1.65-1.31,2.13-1.47-.37.05-1.43.15-2.58-.44-1.15-.59-1.68-1.52-1.85-1.86Z"/>
    <path class="cls-2" d="m165.04,152.25c.9-1.64,1.04-3.65.51-5.54,0,.55,0,3.28-2.11,5.36-2.13,2.1-5.35,2.53-7.82,1.51-1.28-.53-2.14-1.35-2.62-1.91-.39.66-1.4,2.16-3.33,3.11-.61.3-2.91,1.43-5.55.49-2.26-.8-3.35-2.6-3.66-3.15.16.59.49,1.51,1.19,2.46.54.74,1.22,1.38,2.02,1.88,3.15,1.96,7.42,1.26,9.86-1.73,4.24,2.63,9.56,1.08,11.51-2.49Z"/>
    <path class="cls-2" d="m138.22,125.29c0-.17,0-.34,0-.51-1.51,1.81-3.13,2.56-3.97,2.88-1.6.6-2.95.55-5.64.44-.96-.04-1.96-.14-3.11-.53-.58-.2-1.04-.42-1.36-.59.28.63.71,1.19,1.27,1.6.88.64,1.98.86,3.06,1,1.65.22,3.31.28,4.97.19.74-.04,1.49-.11,2.17-.39,1.58-.65,2.55-2.38,2.63-4.08Z"/>
    <path class="cls-1" d="m129.38,120.23c1.69-.39,3.46-.55,5.16-.2.83.17,1.64.48,2.36.92-.01-.01-.02-.03-.03-.04-.82-1.08-2.47-1.68-3.74-1.91-1.43-.25-2.91-.1-4.29.33-1.29.41-2.52,1.08-3.46,2.05-.45.47-.84,1.02-1.11,1.61.39-.48.86-.91,1.37-1.26,1.12-.77,2.44-1.21,3.76-1.51Z"/>
    <path class="cls-1" d="m123.1,139.98c-2.25-.28-4.21,1.11-5.06,2.85-.51,1.03-.63,2.2-.39,3.32.05-.35.43-2.81,2.66-4.17,1.89-1.16,4.37-1.06,6.32.24-.2-.29-1.38-1.97-3.52-2.24Z"/>
    <path class="cls-1" d="m131.98,147.62c0-.46-.08-1.5-.8-2.49-.97-1.33-2.59-1.81-3.82-1.69-.84.09-1.5.46-1.55.49-.41.24-.7.51-.89.71.36-.14,2.16-.78,4.18.09,1.95.84,2.72,2.52,2.88,2.89Z"/>
    <path class="cls-2" d="m134.25,160.69c1.54-.68,2.29-2.28,2.22-3.73-.09-1.85-1.49-2.91-1.69-3.05,1.38,1.02,1.72,2.92.84,4.25-.66,1-2.34,1.77-3.78,1.11-1.21-.55-1.58-1.79-1.64-2-.05.09-.1.21-.13.36-.06.3,0,.54.04.67-3.75,1.05-7.55-.27-9.33-3.07-1.63-2.57-.96-5.43-.8-6.05.18-.13.36-.27.53-.4-.23.02-.73.04-1.29-.22-.66-.31-.99-.83-1.1-1.02.14.28.34.62.62.97.24.31.52.59.83.85-.47,1.06-1.02,2.82-.58,4.8.84,3.72,4.69,5.96,7.95,6.22,1.34.11,2.46-.13,3.2-.36,1.14,1,2.74,1.26,4.09.67Z"/>
    <path class="cls-2" d="m131.94,153.05c.15,0,.31,0,.49,0,.25.01.47.05.67.09.04-.12.09-.26.12-.41.04-.22.07-.52.03-.84-.03.14-.1.42-.32.68-.36.42-.86.48-.98.49Z"/>
    <path class="cls-2" d="m131.27,149.93c.27-.42.47-.86.58-1.32-.12.24-.37.64-.8.97-.22.17-.44.28-.62.36.14-.03.32-.06.53-.04.12,0,.22.02.31.04Z"/>
    <path class="cls-2" d="m105.56,158.7c-.09.29-.22.6-.42.91-.54.86-1.26,1.25-1.82,1.56-1.43.78-2.79.8-3.33.8-.88,0-1.94,0-3.04-.68-.39-.24-.71-.52-.98-.81.05.27.13.54.25.79.41.86,1.23,1.47,2.13,1.78.9.31,1.87.34,2.82.27,1.38-.11,2.85-.51,3.68-1.62.63-.84.74-1.73.76-2.11.02-.31,0-.61-.06-.89Z"/>
    <path class="cls-1" d="m105.08,157.42c-.44-.76-1-1.2-1.05-1.24-1.2-.92-2.55-.82-3.17-.78-1.19.08-2.03.56-2.4.76-.89.49-1.68,1.2-2.14,2.11.59-.49,1.74-1.3,3.39-1.64,2.62-.55,4.72.45,5.36.79Z"/>
    <path class="cls-2" d="m102.5,126.38c.04.92-.35,1.87-.99,2.54-.87.91-2.11,1.37-3.36,1.52-1.18.15-2.44.02-3.43-.63-.13-.09-.26-.19-.38-.29.4.86,1.1,1.57,1.94,2.03,1.07.58,2.34.73,3.53.51.74-.14,1.48-.43,1.97-.99.43-.48.64-1.11.79-1.73.18-.79.27-1.62.1-2.41-.04-.18-.09-.36-.16-.55Z"/>
    <path class="cls-2" d="m56.29,128.51c-1.27.06-2.57-.27-3.58-1.03-.59-.45-1.07-1.05-1.37-1.73,0,.51.05,1.02.18,1.52.41,1.58,1.56,3,3.09,3.55,1.03.37,2.2.35,3.23-.02,2.06-.72,3.73-3.12,3.67-5.39-.26.43-.57.82-.92,1.18-1.13,1.14-2.7,1.84-4.31,1.92Z"/>
    <path class="cls-2" d="m57.21,152.94c1.11-1.93.95-4.42-.31-6.45,2.52-.95,3.92-3.22,3.93-5.33-.14.35-1.29,3.07-3.93,3.64-.77.17-1.47.11-2,0-.38,1.05-1.11,2.46-2.53,3.51-3.28,2.43-7.39.87-7.91.67-1.49-.59-2.5-1.47-3.05-2.02.02.13.06.27.11.43.04.14.09.29.14.43.99,2.54,3.75,3.41,4.22,3.56,0,0,0,0,0,.02-.08,1.7,1.98,3.27,3.24,3.85,2.41,1.11,6.39.64,8.09-2.31Z"/>
    <path class="cls-1" d="m45.3,119.82c-.28-.82-1.45-3.96-4.71-5.69-3.53-1.87-8.31-1.45-11.33,1.56-.62.62-1.1,1.28-1.47,1.94.3-.28,4.39-4.02,9.78-2.7,4.2,1.03,6.22,4.4,6.58,5.02-.31.07-.72.2-1.16.44-.34.19-.6.4-.8.58.68.03,1.75.17,2.89.76,2.16,1.1,3.07,3.01,3.35,3.64.03-.17.05-.38.05-.62,0-.21,0-.42-.02-.62-.29-2.94-3.04-4.26-3.15-4.31Z"/>
    <path class="cls-2" d="m38.32,136c0,.2.05.53.22.89.3.6.79.88.98.98-4.49,3.56-10.43,3.78-14.31.84-3.78-2.87-4.07-7.6-4.1-8.36-.28.89-.48,2.08-.38,3.47.43,6.11,6.72,11.06,12.35,10.09,3.99-.68,6.28-4.09,6.84-4.98,2.33.56,4.74-.34,6.04-2.22,1.2-1.73,1.27-4.04.26-5.92h0c.2,2.48-1.12,4.74-3.19,5.61-2.29.96-4.44-.25-4.71-.4Z"/>
    <path class="cls-2" d="m26.55,123.47c.31-.16.75-.34,1.29-.44.97-.18,1.78,0,2.22.13-.39-.15-1.5-.62-2.27-1.82-.55-.87-.67-1.71-.7-2.14-.24.72-.47,1.65-.54,4.28Z"/>
    <path class="cls-1" d="m59.29,137.85c-1.21-1.06-2.98-1.61-4.62-1.04-2.22.77-2.91,3.14-2.98,3.38-.47-.27-3.02-1.68-5.78-.71-.97.34-1.85.94-2.58,1.69.7-.4,2.1-1.08,4-1.16,2.3-.09,4,.75,4.71,1.16.2-.49.85-1.92,2.44-2.85,2.2-1.28,4.43-.59,4.79-.47Z"/>
  </g>
  <path class="cls-3" d="m142.01,71.63c1.19,1.68,3.15,2.73,5.18,3.05,2.03.32,4.13-.05,6.06-.77,1.23-.46,2.48-1.14,3.1-2.3.6-1.12.51-2.51.09-3.72-1.19-3.41-6.14-6.63-9.81-6.04-4.39.71-7.28,6-4.61,9.79Z"/>
  <path class="cls-2" d="m156.35,71.6c.44-.82.51-1.79.35-2.72-2.22,1.84-5.05,2.96-7.94,3.1-2.62.12-5.27-.56-7.52-1.91.17.53.42,1.06.77,1.55,1.19,1.68,3.15,2.73,5.18,3.05s4.13-.05,6.06-.77c1.23-.46,2.48-1.14,3.1-2.3Z"/>
</svg>