<?xml version="1.0" encoding="UTF-8"?>
<svg id="Layer_1" xmlns="http://www.w3.org/2000/svg" viewBox="0 0 180.61 180.72">
  <defs>
    <style>
      .cls-1 {
        fill: #fdf49f;
      }

      .cls-2 {
        fill: #fdea3a;
      }
    </style>
  </defs>
  <path class="cls-2" d="m87.11,70.36c.15.95,1.29,7.9,5.64,9.2.13.04.65.19,1.42.22,4.14.19,7.24-3.22,8.22-4.4-1,1.29-2.22,3.02-3.38,5.2-1.51,2.84-1.36,3.46-1.16,3.78.35.54,1.24.75,5.06.27,1.78-.23,4.08-.59,6.75-1.2-1.27.56-3.21,1.6-5.06,3.47-1.14,1.14-3.96,3.99-3.2,5.96.79,2.04,5.03,2.07,4.98,2.58-.06.55-5.24-.58-6.71,1.6-.91,1.35-.03,3.43.76,5.29,1.9,4.51,5.09,7.36,5.02,7.42-.08.07-3.37-3.75-8.4-6.67-2.96-1.72-4.04-1.68-4.67-1.56-3.65.74-4.81,7.09-4.89,7.56.28-4.43-1.01-7.87-2.98-8.4-1.23-.33-2.75.46-4.18,1.2-1.52.79-2.6,1.72-3.29,2.4.14-.17,2.92-3.79,1.51-7.07-1.37-3.19-5.74-3.75-7.33-3.96-1.3-.17-2.4-.1-3.2,0,1.01-.2,2.48-.59,4.09-1.42,1.82-.94,5.12-2.64,5.42-5.38.2-1.82-1.02-3.3-2.44-5.02-1.89-2.28-4.02-3.55-5.38-4.22,1.2.66,3.08,1.52,5.51,1.87,2.14.31,6.82.99,9.73-2.05,2.23-2.33,2.2-5.57,2.13-6.67Z"/>
  <path class="cls-1" d="m80.84,84.05c.66-.5,3.08,2.78,4.62,2.18,1.65-.64,1.14-5.24,1.91-5.29.42-.03.9,1.3,1.07,1.78.47,1.31.26,1.82.62,2.09.96.73,3.75-2.15,4.35-1.64.53.45-1.34,2.87-.58,3.73.34.39.92.11,2.8.22.97.06,2.55.15,2.62.53.13.69-4.82,1.43-4.98,3.25-.11,1.24,2.07,2.29,1.78,2.85-.26.49-1.95-.34-2.44.22-.95,1.09,3.38,6.28,3.07,6.54-.33.27-5.01-5.6-6.58-4.76-.91.49-.44,3.07-.8,3.11-.42.05-.58-3.54-1.95-3.91-1.67-.45-4.23,4.11-4.71,3.82-.41-.25,1.85-3.3.84-4.93-1.16-1.88-6.03-.81-6.09-1.33-.03-.23.92-.4,2.35-1.16,1.32-.7,2.22-1.17,2.67-1.96,1.13-1.97-1.21-4.86-.58-5.33Z"/>
</svg>