<svg version="1.1" xmlns="http://www.w3.org/2000/svg" xmlns:xlink="http://www.w3.org/1999/xlink" width="156.39896" height="563.28234" viewBox="0,0,156.39896,563.28234"><defs><radialGradient cx="279.28212" cy="299.48429" r="87.90754" gradientUnits="userSpaceOnUse" id="color-1"><stop offset="0" stop-color="#ffffff"/><stop offset="1" stop-color="#594384"/></radialGradient><radialGradient cx="221.90338" cy="423.15096" r="107.71426" gradientUnits="userSpaceOnUse" id="color-2"><stop offset="0" stop-color="#ffffff"/><stop offset="1" stop-color="#594384"/></radialGradient><radialGradient cx="230.35134" cy="71.02665" r="53.12208" gradientUnits="userSpaceOnUse" id="color-3"><stop offset="0" stop-color="#ffffff"/><stop offset="1" stop-color="#594384"/></radialGradient><radialGradient cx="288.69281" cy="15.52665" r="46.21106" gradientUnits="userSpaceOnUse" id="color-4"><stop offset="0" stop-color="#ffffff"/><stop offset="1" stop-color="#594384"/></radialGradient><radialGradient cx="221.10913" cy="16.02665" r="46.0263" gradientUnits="userSpaceOnUse" id="color-5"><stop offset="0" stop-color="#ffffff"/><stop offset="1" stop-color="#594384"/></radialGradient><radialGradient cx="270.78602" cy="67.02665" r="53.55592" gradientUnits="userSpaceOnUse" id="color-6"><stop offset="0" stop-color="#ffffff"/><stop offset="1" stop-color="#594384"/></radialGradient><radialGradient cx="206.09054" cy="168.52665" r="35.0767" gradientUnits="userSpaceOnUse" id="color-7"><stop offset="0" stop-color="#ffffff"/><stop offset="1" stop-color="#594384"/></radialGradient><radialGradient cx="213.0222" cy="229.52665" r="42.27528" gradientUnits="userSpaceOnUse" id="color-8"><stop offset="0" stop-color="#ffffff"/><stop offset="1" stop-color="#594384"/></radialGradient><radialGradient cx="227.46315" cy="218.52665" r="58.34147" gradientUnits="userSpaceOnUse" id="color-9"><stop offset="0" stop-color="#ffffff"/><stop offset="1" stop-color="#594384"/></radialGradient><radialGradient cx="244.21466" cy="124.02665" r="32.05892" gradientUnits="userSpaceOnUse" id="color-10"><stop offset="0" stop-color="#ffffff"/><stop offset="1" stop-color="#594384"/></radialGradient><radialGradient cx="253.16806" cy="152.02665" r="37.30581" gradientUnits="userSpaceOnUse" id="color-11"><stop offset="0" stop-color="#ffffff"/><stop offset="1" stop-color="#594384"/></radialGradient><radialGradient cx="250.56868" cy="237.02665" r="81.51347" gradientUnits="userSpaceOnUse" id="color-12"><stop offset="0" stop-color="#ffffff"/><stop offset="1" stop-color="#594384"/></radialGradient><radialGradient cx="218.22094" cy="331.52665" r="75.98721" gradientUnits="userSpaceOnUse" id="color-13"><stop offset="0" stop-color="#ffffff"/><stop offset="1" stop-color="#594384"/></radialGradient></defs><g transform="translate(-165.89126,-2.77999)"><g data-paper-data="{&quot;isPaintingLayer&quot;:true}" fill-rule="nonzero" stroke="none" stroke-width="0" stroke-linecap="butt" stroke-linejoin="miter" stroke-miterlimit="10" stroke-dasharray="" stroke-dashoffset="0" style="mix-blend-mode: normal"><g><path d="M292.34115,290.7713c0,32.96936 -12.46913,62.6963 -34.9761,62.6963c-1.69175,0 -7.11566,3.45645 -11.55766,10.438c-3.91616,6.15508 -9.07449,20.28906 -13.53581,30.13532c-7.64697,16.87709 -14.73872,32.13885 -20.80713,52.41862c-13.8747,46.36721 -18.84518,106.43484 -24.77377,116.27191c-0.9095,1.5091 -2.21735,-1.27615 -3.47478,-5.52348c-0.87162,-2.94413 -1.71903,-7.28348 -2.39276,-8.51988c-3.09212,-5.67451 -5.0749,-82.52052 1.98152,-129.61515c10.07014,-67.2082 27.89831,-144.1788 29.30804,-162.66366c0.8588,-11.26094 -4.70061,-31.95188 -4.70061,-35.58482c0,-32.96936 10.72198,-30.39085 33.22894,-30.39085c7.43011,0 18.35885,5.86998 29.66644,14.92046c22.94487,18.36481 28.96537,20.82518 38.20758,50.91052c0,0 -1.51796,16.08363 -2.55662,18.29959c-2.63747,5.62703 -13.61726,16.20712 -13.61726,16.20712z" fill="#412a6a"/><path d="M237.57462,359.41557c0,0 17.02187,-6.57724 24.24123,-14.43517c4.07875,-4.43953 7.6099,-11.60705 8.67275,-16.90805c5.4094,-26.97947 9.719,-77.54459 10.2932,-90.53841c0.30878,-6.98743 1.34761,-14.53624 -0.72963,-20.78377c-0.97713,-2.93883 -5.94244,-8.18546 -5.94244,-8.18546c0,0 6.451,2.83711 10.0278,6.52246c3.2985,3.39861 4.88944,4.46584 4.88944,4.46584c0,0 1.72174,4.74738 1.36795,8.3431c-1.8723,19.02859 -7.94762,79.81876 -10.27594,99.86212c-1.4669,12.62786 -4.52159,25.97897 -4.52159,25.97897z" fill="url(#color-1)"/><path d="M198.90205,465.96265l34.81323,-110.98169l21.58695,-2.64168c0,0 -4.10152,4.75337 -8.54283,10.77847c-4.24453,5.75815 -5.33357,11.67784 -6.91522,16.72001c-3.79052,12.08387 -14.36634,42.09667 -22.09411,63.82209c-5.00402,14.06803 -28.83863,120.99446 -28.83863,120.99446c0,0 -1.30912,3.11349 -2.39177,0.08079c-1.86043,-5.21149 0.81697,-26.80334 1.90397,-34.99176c0.88357,-6.65595 10.4784,-63.78069 10.4784,-63.78069z" fill="url(#color-2)"/></g><path d="M184.65843,184.03262c0,0 -11.96602,-16.82091 -18.28773,-44.88487c-1.57468,-6.99044 1.11147,-22.63188 2.5594,-30.23767c1.66325,-8.73685 3.88633,-36.04445 3.88633,-36.04445c0,0 5.76161,-14.61255 13.6281,-26.08914c10.37109,-15.13059 24.40077,-28.50114 33.70947,-32.3555c4.70544,-1.94834 25.82072,-6.45193 31.64595,-8.07142c15.29063,-4.25101 25.69995,-3.52203 30.24146,-3.52203c18.09127,0 40.24881,28.58594 40.24881,28.58594c0,0 -1.10598,3.383 -9.96163,22.80776c-7.72055,16.93495 -42.92068,50.38541 -43.33182,59.42464c-0.37339,8.20916 -6.26679,33.37452 -6.96327,52.75787c-0.29061,8.08785 -0.33932,13.01461 -0.27639,19.54243c0.12338,12.79823 -4.48421,13.40969 -4.48421,13.40969c0,0 -5.52628,5.03459 -17.21055,23.93028c-10.93158,4.91119 -15.89421,21.4259 -24.01932,19.13091c-7.28469,-2.05761 -7.32904,-7.21286 -9.01993,-15.69459c-1.62602,-8.15634 -5.0355,-19.68983 -5.0355,-19.68983z" fill="#412a6a"/><path d="M249.99105,63.52665c0,2.73578 -2.79792,5.87963 -7.05534,9.42751c-0.43919,0.36599 -2.68221,13.21016 -9.53325,23.87284c-2.07735,3.2331 -9.60805,13.33574 -17.06941,20.07102c-6.79585,6.13454 -13.43572,8.96432 -17.77497,11.28805c-8.2161,4.39984 -16.40299,1.60847 -21.20804,-5.0483c-4.08499,-5.65921 -5.40545,-15.0825 -5.63163,-14.92529c-0.14399,0.10009 11.22261,13.34166 14.72326,13.49929c12.49136,0.56243 33.26395,-12.94411 40.26822,-24.76207c5.93944,-10.02134 9.05841,-18.30528 8.58509,-18.02087c-6.17082,3.70799 -12.84006,6.14331 -19.11771,6.77163c-0.68588,0.06865 -16.13194,-0.4562 -20.39265,-1.87924c-9.00569,-3.00781 -10.68071,-5.79456 -12.22198,-5.79456c-2.54131,0 -11.18669,-12.3614 -4.62994,-13.0701c1.87215,-0.20235 7.80776,7.32032 10.44097,8.20566c8.30536,2.79242 8.99436,0.69263 6.92704,-0.66969c-5.59815,-3.68906 -10.01123,-9.55174 -10.45364,-16.5737c-0.41353,-6.56372 4.01637,-15.89288 6.95778,-16.89217c0.85957,-0.29202 -1.23998,6.18282 -1.85365,9.15974c-1.20425,5.84183 -1.62687,11.04257 2.666,15.04443c0.61789,0.57601 2.20169,1.6885 6.45922,2.90317c1.73635,0.49538 11.0136,3.66343 11.44663,3.69035c7.46707,0.46412 11.7361,0.70232 17.67302,0.70232c4.14001,0 10.2923,-8.3257 8.19843,-14.80665c-1.45261,-4.49612 -6.40444,-10.08568 -9.8022,-11.04066c-2.18091,-0.61297 -10.60097,1.09116 -12.91115,4.15223c-3.73618,4.95056 -3.13423,11.14249 -1.75752,12.28413c0.58539,0.48544 -4.98846,-11.88935 -2.11524,-15.70896c2.4294,-3.22959 8.41741,-6.41974 11.93848,-6.90141c3.45971,-0.47328 15.86596,0.14185 17.86558,1.55279c1.33192,0.9398 8.87167,7.50561 9.80769,8.72084c2.15415,2.79673 -0.42908,13.9854 -0.42908,14.7477z" fill="url(#color-3)"/><path d="M312.95362,24.77665c0,1.79492 -14.08615,-6.25 -30.03719,-6.25c-7.83031,0 -19.88148,1.6616 -31.887,4.15933c-12.45079,2.59037 -30.49794,10.00447 -30.49794,9.09067c0,-0.9782 8.43801,-6.3105 21.85283,-10.96058c11.20044,-3.8825 26.92003,-7.28942 34.17808,-7.28942c2.59584,0 20.70792,0.03853 23.10106,0.1108c12.31243,0.37179 13.29015,9.63637 13.29015,11.1392z" fill="url(#color-4)"/><path d="M217.06566,18.02666c0,-5.52285 27.20851,-14.5 37.25767,-14.5c10.04916,0 17.61797,-1.02285 26.86018,0.5c3.65094,0.60157 -30.02656,5.35598 -48.88582,12.42655c-13.51803,5.06808 -21.72267,13.07344 -25.91834,13.07344c-0.9989,0 -15.55693,20.89648 -15.9981,20.7046c-1.71646,-0.74658 -1.6588,-4.20356 4.23904,-11.15211c7.8361,-9.2321 22.44536,-18.21458 22.44536,-21.05249z" fill="url(#color-5)"/><path d="M273.67421,62.27665c0,13.39291 -14.83738,31.25 -16.75151,31.25c-0.30461,0 -17.35155,29.72505 -17.63301,29.20868c-0.95197,-1.7465 7.20186,-15.84219 15.27294,-30.51487c4.53778,-8.24938 11.02464,-18.39089 11.02464,-22.44381c0,-6.32811 1.37343,-17.82411 -0.56517,-25.0985c-0.41481,-1.55655 -4.34131,-5.98848 -4.84846,-7.23321c-0.58737,-1.44158 -6.77274,1.20125 -6.90608,-0.0423c-0.35222,-3.28491 7.68421,-7.37599 8.27625,-7.37599c0.36637,0 12.28022,1.25044 10.90238,2.18959c-2.58759,1.76371 0.42566,9.04241 0.69891,14.74647c0.32592,6.80342 0.52913,9.42327 0.52913,15.31394z" fill="url(#color-6)"/><path d="M214.17747,174.77665c0,9.80305 -0.04251,9.75 -2.59937,22.25c-0.43733,2.13802 -11.2438,-11.43524 -19.77384,-22.42582c-3.9284,-5.06157 -11.50504,-9.46933 -11.80113,-11.33867c-0.28949,-1.82772 5.83355,-0.42987 12.86213,5.03712c5.67904,4.41729 12.55084,13.22687 12.41643,11.59874c-0.21683,-2.62641 -0.34643,-5.11077 -0.34643,-7.12138c0,-6.58364 -9.63255,-18.67424 -17.19973,-27.21914c-3.70037,-4.17848 -13.17303,-9.03086 -10.81572,-9.03086c7.17796,0 37.25767,28.44695 37.25767,38.25z" fill="url(#color-7)"/><path d="M214.17747,263.02665c0,8.83656 -1.76518,-34.43739 -4.04347,-39c-3.39637,-6.80177 -4.42026,-11.93811 -5.16197,-14.37674c-0.51232,-1.68446 -1.19205,-0.51315 -1.19205,-4.12326c0,-8.83656 -14.40695,-14.5 -8.66457,-14.5c3.02614,0 9.43994,6.82134 14.8305,15.51381c2.53944,4.09492 4.73416,20.29949 5.14863,33.47819c0.37523,11.93139 -0.91708,21.0219 -0.91708,23.008z" fill="url(#color-8)"/><path d="M242.48175,194.77665c0,12.28834 -12.34562,60.75 -16.17387,60.75c-2.01074,0 0.91916,-9.59324 0.8635,-20.00808c-0.05031,-9.41403 -3.17405,-19.40786 -3.17405,-25.24192c0,-7.25427 -0.44113,-22.06168 5.19104,-32.97631c3.9084,-7.57414 23.8555,-22.77369 25.42379,-22.77369c1.08266,0 -20.00417,21.97602 -21.80821,27.23994c-0.86729,2.5306 19.17818,-9.9897 18.96389,-7.53343c-0.09471,1.08563 -7.9116,7.31581 -11.79142,11.00536c-6.13227,5.83153 -12.24044,7.31063 -12.24679,8.7834c-0.01212,2.81492 0.91788,18.17696 2.11513,19.66039c2.1378,2.6488 12.63702,-22.40954 12.63702,-18.90566z" fill="url(#color-9)"/><path d="M269.63075,86.52665c0,3.2346 2.13174,12.86648 -4.49477,24.57369c-4.4427,7.84902 -15.48281,17.18139 -20.67154,24.09194c-11.51836,15.34058 -22.6671,29.83437 -23.64413,29.83437c-1.11108,0 8.40167,-7.91175 13.71862,-18.2211c4.60621,-8.93125 5.05462,-20.03617 5.05462,-24.7789c0,-1.52036 -12.29731,7.47379 -16.03779,17.84748c-1.06469,2.95277 8.21258,-5.40168 7.09148,-2.22787c-0.93725,2.65333 -5.95647,10.17003 -6.92507,13.31693c-4.37972,14.22924 -4.5698,26.62039 -4.43637,24.61658c0.15653,-2.35061 -2.09247,-31.62498 3.94515,-44.71921c4.36911,-9.47559 9.42041,-20.59502 11.92137,-24.77154c5.32856,-8.89854 16.8376,-19.56238 17.43809,-19.56238c0.94949,0 -16.69566,21.06697 -16.69103,26.99946c0.00266,3.40219 5.85513,-13.61786 10.10263,-13.91356c1.62192,-0.11291 -7.35798,11.42157 -6.20684,14.20917c0.17092,0.41391 4.57072,7.10987 5.08049,7.12227c2.10518,0.05119 11.87588,-3.4872 16.05138,-9.72659c6.98645,-10.43978 8.7037,-25.74187 8.7037,-24.69075z" fill="url(#color-10)"/><path d="M261.3994,151.52665c0,2.11445 -8.62993,11.24012 -10.34765,13.99545c-5.23651,8.39973 -8.51271,11.50455 -10.0141,11.50455c-0.73147,0 7.86332,-13.1942 11.23726,-20.61559c3.09112,-6.7993 1.15049,-7.9499 -2.70294,-6.556c-1.15835,0.41901 -10.15661,6.52805 -13.14189,10.34859c-5.79126,7.41161 -12.28834,20.50083 -12.28834,18.82299c0,-2.14075 10.25456,-21.89128 18.16682,-29.69267c5.30847,-5.2341 14.1261,-8.76603 15.25946,-11.61499c3.93237,-9.88497 5.9921,-23.19234 7.15281,-23.19234c1.53303,0 -0.52082,13.60796 -3.15425,25.40721c-0.79163,3.54697 -0.16717,9.61422 -0.16717,11.59279z" fill="url(#color-11)"/><path d="M260.96617,224.77665c0,7.1997 -7.11246,14.45233 -7.42861,20.27677c-0.15495,2.85448 2.51275,9.25724 2.24787,11.26107c-0.84269,6.37478 -5.02291,4.71216 -6.0832,4.71216c-0.14075,0 -3.71138,4.83531 -3.29492,8.87526c0.35422,3.43604 0.82744,6.88181 -0.85856,9.71879c-5.22914,8.79894 -10.43165,36.1241 -11.26454,34.44711c-0.79121,-1.59309 -1.24252,-10.62928 1.85102,-24.55934c4.52909,-20.39429 13.35384,-48.4197 12.62835,-55.38604c-0.43907,-4.21615 -5.76491,0.9623 -10.66729,11.78745c-2.64347,5.83716 -5.16382,17.92622 -6.72849,20.64137c-0.36533,0.63396 1.26205,-13.79922 6.01644,-24.80392c3.35451,-7.76448 9.14096,-16.06892 9.14096,-16.47068c0,-21.95332 7.45739,-52.25 9.53103,-52.25c0.87483,0 -8.77754,24.80725 -4.17018,18.08379c0.82044,-1.19726 1.53437,-0.82348 3.46489,-2.22919c3.36814,-2.45251 8.0782,-6.23381 6.57564,-3.89482c-1.17095,1.82278 -10.15736,9.17072 -10.83418,11.02548c-1.2193,3.34138 11.61417,-6.27925 9.88913,-3.87838c-2.18212,3.03702 -11.38233,10.96417 -8.17579,10.2773c1.78008,-0.38131 11.63769,-5.75497 9.64894,-3.45424c-0.98573,1.14035 -9.84033,9.42477 -10.43446,10.78997c-0.73474,1.68829 8.13614,7.3685 11.40029,10.60766c1.56639,1.5544 5.39369,10.71963 5.33652,17.17431c-0.09093,10.26757 -7.59517,34.03276 -6.63979,34.92664c2.51186,2.35015 -1.15109,-48.83421 -1.15109,-47.6785z" fill="url(#color-12)"/><path d="M221.68677,332.52665c0,0.56184 -0.17052,8.82064 -0.44962,11.25871c-0.13114,1.14546 -7.06117,9.00407 -7.11688,11.24022c-0.04566,1.83225 -3.44231,8.75793 -3.24521,13.52752c0.29042,7.0279 2.08517,10.10213 1.12954,12.67278c-0.18278,0.49168 -7.73275,9.74259 -10.94608,18.18356c-3.89068,10.22029 -3.5773,19.95222 -3.93252,20.53516c-0.65458,1.07423 -1.20569,-6.372 1.3321,-16.21615c3.04624,-11.81646 9.26985,-26.42671 8.0674,-25.05314c-7.66211,8.75251 -12.89989,12.17124 -13.31316,13.1831c-1.48969,3.64736 21.55027,-31.0885 15.84382,-27.03238c-4.28931,3.04883 -13.95209,19.85015 -15.03908,18.35496c-1.65503,-2.27656 8.14558,-19.35931 15.69854,-26.50805c1.74937,-1.65575 -16.50048,17.35371 -16.91075,17.35371c-0.57631,0 14.81953,-17.6555 20.62876,-29.56085c2.71828,-5.57083 0.17941,-5.97741 -1.31978,-9.84626c-4.16466,-10.74741 -12.24888,-19.53792 -8.91149,-12.5929c1.58403,3.29634 10.20886,9.28743 13.42236,5.58898c3.81757,-4.39368 2.13638,-19.37743 1.90918,-25.56581c-0.64744,-17.63475 -4.74767,-34.02317 -3.77877,-34.02317c0.93081,0 6.60146,15.50949 8.27647,32.44315c1.19543,12.08531 -1.34481,25.38668 -1.34481,32.05685z" fill="url(#color-13)"/></g></g></svg>