<svg version="1.1" xmlns="http://www.w3.org/2000/svg" xmlns:xlink="http://www.w3.org/1999/xlink" width="190.51351" height="590.09793" viewBox="0,0,190.51351,590.09793"><defs><radialGradient cx="222.88253" cy="50.09471" r="65.44094" gradientUnits="userSpaceOnUse" id="color-1"><stop offset="0" stop-color="#ffffff"/><stop offset="1" stop-color="#594384"/></radialGradient><radialGradient cx="268.88252" cy="112.09471" r="34.24482" gradientUnits="userSpaceOnUse" id="color-2"><stop offset="0" stop-color="#ffffff"/><stop offset="1" stop-color="#594384"/></radialGradient><radialGradient cx="284.61394" cy="52.63149" r="36.47208" gradientUnits="userSpaceOnUse" id="color-3"><stop offset="0" stop-color="#ffffff"/><stop offset="1" stop-color="#594384"/></radialGradient><radialGradient cx="263.28061" cy="50.29815" r="46.05427" gradientUnits="userSpaceOnUse" id="color-4"><stop offset="0" stop-color="#ffffff"/><stop offset="1" stop-color="#594384"/></radialGradient><radialGradient cx="199.84312" cy="91.2137" r="55.31451" gradientUnits="userSpaceOnUse" id="color-5"><stop offset="0" stop-color="#ffffff"/><stop offset="1" stop-color="#594384"/></radialGradient><radialGradient cx="245.72485" cy="157.47066" r="33.48547" gradientUnits="userSpaceOnUse" id="color-6"><stop offset="0" stop-color="#ffffff"/><stop offset="1" stop-color="#594384"/></radialGradient><radialGradient cx="297.50259" cy="126.9121" r="44.82845" gradientUnits="userSpaceOnUse" id="color-7"><stop offset="0" stop-color="#ffffff"/><stop offset="1" stop-color="#594384"/></radialGradient><radialGradient cx="288.84161" cy="243.87449" r="57.73459" gradientUnits="userSpaceOnUse" id="color-8"><stop offset="0" stop-color="#ffffff"/><stop offset="1" stop-color="#594384"/></radialGradient><radialGradient cx="225.49251" cy="248.59285" r="57.73458" gradientUnits="userSpaceOnUse" id="color-9"><stop offset="0" stop-color="#ffffff"/><stop offset="1" stop-color="#594384"/></radialGradient><radialGradient cx="312.84311" cy="300.2137" r="57.00056" gradientUnits="userSpaceOnUse" id="color-10"><stop offset="0" stop-color="#ffffff"/><stop offset="1" stop-color="#594384"/></radialGradient><radialGradient cx="288.61111" cy="394.39388" r="76.04855" gradientUnits="userSpaceOnUse" id="color-11"><stop offset="0" stop-color="#ffffff"/><stop offset="1" stop-color="#594384"/></radialGradient><radialGradient cx="254.07658" cy="523.52302" r="60.60005" gradientUnits="userSpaceOnUse" id="color-12"><stop offset="0" stop-color="#ffffff"/><stop offset="1" stop-color="#594384"/></radialGradient></defs><g transform="translate(-160.38703,2.03294)"><g data-paper-data="{&quot;isPaintingLayer&quot;:true}" fill-rule="nonzero" stroke="none" stroke-width="0" stroke-linecap="butt" stroke-linejoin="miter" stroke-miterlimit="10" stroke-dasharray="" stroke-dashoffset="0" style="mix-blend-mode: normal"><g><path d="M227.27189,178.61041l-66.88486,-133.49249c0,0 13.51151,-19.0266 23.49393,-22.31982c2.51859,-0.83089 25.76835,-12.16795 28.6073,-12.97647c18.3969,-5.23938 30.65688,-3.71572 42.56537,-3.71572c15.15485,0 32.01577,1.55419 49.99948,5.70018c9.35344,2.15636 45.84743,22.30282 45.84743,22.30282c0,0 -22.58184,58.51202 -32.70625,82.7259c-8.77618,20.98941 -24.57549,63.2801 -24.57549,63.2801c0,0 24.79876,32.18217 26.62092,53.22965c-1.26518,1.38506 -0.35434,17.79948 -1.8132,31.38778c-1.54649,14.40452 -3.50842,26.25192 -6.53588,36.18443c-1.17064,3.84064 -10.50059,13.64739 -12.02744,14.87923c-1.30235,1.05072 -10.60428,75.21004 -11.92813,79.9472c-8.63006,30.88123 -19.47989,64.91893 -32.51787,85.65833c-0.80165,1.27518 -13.87345,57.35235 -14.36952,59.41556c-2.80123,11.65057 -7.0832,22.5931 -9.04364,25.92799c-2.63169,4.47677 -4.68396,18.15909 -6.63505,17.03561c-5.12048,8.19897 -14.3044,2.1022 -15.01028,2.1373c-1.76443,0.08772 -18.70834,-35.75933 -20.12489,-60.76426c-1.18038,-20.83598 -4.54282,-65.03235 -8.41981,-83.15117c-2.1976,-10.27032 2.58999,-85.74076 1.69201,-88.61068c-1.81799,-5.81023 10.61581,-81.15617 8.09675,-86.09178c-1.71831,-3.36668 12.80197,-46.20757 12.26452,-48.11782c4.04243,-18.95763 23.40461,-40.57187 23.40461,-40.57187z" fill="#412a6a"/><path d="M226.04955,66.65737c0,14.51198 15.34664,67.20496 12.26127,61.8048c-7.72092,-13.51351 -20.76877,-46.79132 -20.76877,-61.3033c0,-14.51198 -20.82303,-42.13513 -18.60361,-49.8018c0.28291,-0.97727 14.77696,31.58432 20.95689,29.4893c1.82877,-0.61996 9.14478,-4.55305 10.56316,-10.26537c1.1892,-4.78927 1.45036,-15.7567 3.14601,-16.97423c2.74586,-1.97161 1.20694,16.07766 3.97827,13.63587c0.59114,-0.52085 2.68358,-0.44947 2.81833,-3.31912c0.17361,-3.69707 -5.24923,-10.18288 -3.7783,-10.94149c1.17595,-0.60647 7.52411,10.46193 8.11789,9.89346c3.35882,-3.21569 7.28542,-6.31987 11.30273,-9.10814c1.88404,-1.30765 0.44267,-23.52177 1.66278,-21.6934c3.49434,5.23637 7.15014,15.31988 12.10354,16.36548c0.7569,0.15977 2.49741,-4.497 3.21129,-4.59306c4.21952,-0.5678 6.50911,-0.17089 6.75888,0.92366c0.29586,1.2965 -9.72269,5.91732 -22.22358,12.89776c-2.98364,1.66606 -7.36607,8.1817 -10.33788,9.39786c-2.96223,1.21223 -15.20631,11.3383 -16.39521,13.04499c-1.12542,1.61556 1.39667,6.63014 -0.16047,6.79673c-0.58922,0.06303 -3.54538,14.13202 -4.18937,14.20857c-3.06702,0.36455 -1.18475,-13.62131 -2.8748,-15.63034c-1.40108,-1.66553 -4.9458,1.77788 -5.21817,3.08255c-0.89933,4.30797 7.6691,10.94785 7.6691,12.08923z" fill="url(#color-1)"/><path d="M282.88252,93.59471c0,1.13015 -1.79284,19.79059 -4.16564,26.78313c-2.25027,6.63146 -5.27958,12.49893 -9.41556,17.86011c-3.93847,5.10518 -9.03582,9.84449 -9.36334,10.7135c-0.64484,1.71097 9.83329,-14.40043 12.44391,-23.14854c0.21152,-0.7088 1.08174,-1.59421 2.15972,-3.87233c2.5351,-5.35751 6.55257,-24.55361 5.5206,-24.0592c-0.40706,0.19502 -1.32356,10.15683 -4.97625,14.86763c-0.50628,0.65295 -3.35365,1.85886 -3.86891,2.24089c-2.02687,1.50276 -5.69079,2.76162 -6.2303,4.20868c-0.65105,1.74623 4.57189,2.43381 6.41037,3.76987c2.63415,1.91429 -4.37941,2.51531 -4.47111,2.07978c-0.31675,-1.50436 -5.84918,23.75619 -7.49854,23.40192c-0.59908,-0.12867 1.22311,-3.44021 2.11215,-8.76543c1.01247,-6.06454 1.11166,-14.24581 0.29711,-14.56032c-7.21884,-2.78736 -16.29728,-8.48817 -18.67832,-11.45005c-1.00236,-1.24689 12.40644,5.04342 13.22412,4.43035c0.13247,-0.09932 -4.89991,-0.35429 -7.63464,-7.18352c-2.42897,-6.0657 -2.48238,-18.72518 -4.00168,-19.79999c-2.3954,-1.6946 0.44394,18.88518 0.28579,17.8408c-1.43889,-9.50181 -5.89681,-30.67965 -2.83467,-27.12875c5.82704,6.75712 16.6852,37.91963 16.6852,30.77147c0,-2.14974 13.76512,0.59815 16.43779,-3.80832c2.67271,-4.40653 2.91965,-13.30075 2.54981,-16.0679c-0.77875,-5.82662 -4.95495,4.34979 -8.75184,9.19091c-0.86837,1.1072 -3.20997,2.63746 -5.82663,2.85498c-5.08721,0.42289 -4.88074,-4.003 -3.24247,-4.003c1.16895,0 8.50785,-0.18302 8.13786,-2.73467c-0.42172,-2.90838 -3.23164,-5.96235 -1.6093,-7.14187c0.94654,-0.68819 2.44376,3.45587 3.212,2.56489c2.06907,-2.39966 3.01945,-10.05345 5.23312,-10.36832c0.85375,-0.12144 1.99775,1.32154 2.75132,1.61472c3.25259,1.26542 5.10833,4.61678 5.10833,8.89857z" fill="url(#color-2)"/><path d="M326.21584,36.42805c0,1.06942 -7.72206,2.10483 -14.74116,6.32527c-4.8779,2.93298 -11.62839,4.27728 -17.85959,7.54705c-5.73194,3.00778 -11.02446,7.9525 -14.01578,10.45596c-0.78277,0.6551 -3.92826,3.51351 -6.28151,6.19976c-1.06846,1.21965 6.0264,-1.26285 5.57988,-0.33652c-0.90022,1.86758 -9.06011,7.52192 -9.77152,8.93623c-0.97902,1.94632 -2.40662,3.10471 -2.84129,4.07193c-2.19599,4.88649 -1.88013,10.89066 -0.59927,14.43173c1.39375,3.85314 3.80741,5.03525 2.1969,5.03525c-4.45871,0 -8.80976,-15.44765 1.41816,-33.27969c2.57628,-4.49166 5.53767,-5.54644 8.8431,-8.97072c2.4982,-2.58803 5.6217,-7.67298 6.48935,-10.12575c0.60741,-1.71709 7.91607,0.61905 7.91607,0.04283c0,-4.80304 0.5476,2.98326 3.12934,-5.67795c0.38691,-1.29803 0.45624,-4.83071 0.87066,-6.65539c0.15614,-0.68744 13.15242,4.0099 13.8144,4.23649c2.64593,0.90565 0.18642,-1.53425 1.63637,-2.96988c0.22891,-0.22666 -0.45303,-6.64529 -0.01824,-6.54327c2.15777,0.50631 5.2901,1.17121 8.16942,4.02663c2.74969,2.72687 6.06472,0.84076 6.06472,3.25004z" fill="url(#color-3)"/><path d="M255.94729,41.96485c0,-9.33712 2.88778,-13.96923 7.14909,-15.61365c0.31474,-0.12146 -1.32297,6.72212 -0.93337,8.56812c1.19965,5.68418 4.65818,7.04553 5.78428,7.04553c0.60631,0 3.91528,-2.63732 6.69788,-7.9966c0.89369,-1.72125 2.03204,-4.62012 2.61931,-6.63317c1.00959,-3.46068 -2.59238,-14.36954 -1.54442,-14.71565c0.97099,-0.3207 3.65818,5.51915 5.893,9.61914c1.22598,2.24918 2.31582,3.97477 2.91152,3.87247c1.88574,-0.32382 8.0871,-1.23841 9.89491,-1.95513c8.8402,-3.50475 10.24033,-9.91524 9.22902,-5.3014c-0.32526,1.48394 -8.64875,12.16261 -16.19919,15.19678c-4.42683,1.77893 -3.37944,-5.09204 -6.82615,-2.51561c-1.35326,1.01157 -3.83104,8.94471 -4.67587,9.7625c-1.64833,1.59557 -7.42326,9.22035 -8.69411,11.37672c-0.41383,0.70218 -1.63882,10.41388 -4.03043,3.6247c-0.50555,-1.43514 -2.27616,-5.99127 -2.65114,-9.43894c-0.63518,-5.84012 -0.42492,-15.99219 -0.73158,-15.52703c-0.27832,0.42217 -2.08625,3.29318 -2.41591,7.22608c-0.40132,4.78778 0.74547,10.98859 1.38927,14.23076c1.15934,5.83837 3.73814,10.30117 3.51055,11.16964c-3.25565,12.42338 -3.33935,29.67138 -5.70999,34.00472c-0.22746,0.41577 -2.5448,7.12496 -2.88698,6.73403c-0.31069,-0.35496 -3.74444,-2.6665 -3.51525,-5.73917c0.21391,-2.86796 4.09124,-6.39902 3.85356,-9.62105c-0.20865,-2.8284 -1.58319,-5.41867 -2.27247,-7.11323c-0.6664,-1.63828 -1.29573,9.62214 -1.8319,7.83535c-0.94148,-3.13751 -1.59567,-7.54865 -1.65871,-10.11285c-0.04815,-1.95898 0.2289,-12.43767 1.84719,-12.17491c0.81441,0.13223 1.82463,6.49806 2.83287,8.17075c2.04038,3.38501 4.0727,3.02672 4.458,1.24478c2.22757,-10.30198 -1.49298,-30.14669 -1.49298,-35.22371z" fill="url(#color-4)"/><path d="M205.84312,96.4637c5.34879,16.69934 37.91092,45.25 32.25,45.25c-0.78406,0 -4.31746,-5.43491 -7.61308,-5.11022c-7.28799,0.71803 -31.80357,-24.7396 -35.87162,-35.08401c-0.1295,-0.32931 31.94271,33.34879 29.56111,26.75694c-1.1967,-3.31225 -9.6099,-11.73559 -13.11327,-17.02779c-8.24021,-12.44769 -14.24533,-23.43603 -14.35885,-23.80079c-5.21144,-16.74543 -27.35428,-44.20756 -27.35428,-53.48413c0,-4.1759 17.44082,29.6901 18.95083,29.62415c2.25932,-0.09867 -1.18483,-6.64661 -1.59048,-15.84595c-0.46167,-10.4697 1.97892,-23.63549 2.88965,-21.5282c0.842,1.94825 0.3877,20.69339 2.57122,27.40773c2.06396,6.34668 2.29729,11.82399 4.14054,19.10805c1.21131,4.78676 7.53823,17.49007 9.53823,23.73422z" fill="url(#color-5)"/><path d="M247.20257,176.57499c-0.25469,4.82969 15.08821,-14.59887 6.41848,-14.76053c-0.75029,-0.01399 -1.07388,3.42236 -2.75534,6.66316c-2.18559,4.21244 -5.8291,8.48384 -7.09713,8.41697c-2.55576,-0.13478 5.63929,-13.89038 3.33974,-14.32388c-2.07275,-0.39075 -6.96759,7.14957 -9.81901,10.35732c-1.92289,2.16319 -7.82595,-3.09096 -9.54955,-2.69554c-4.7068,1.07983 1.63192,-1.60953 5.0614,-5.13316c2.31273,-2.37622 1.62773,-5.49314 1.69236,-6.71887c0.04324,-0.82004 -10.79495,-2.27887 -14.29568,-6.04373c-7.20032,-7.7436 -13.56875,-17.86246 -11.2002,-18.95476c2.16036,-0.99629 5.0797,8.35713 11.30357,12.92405c7.06298,5.18264 20.55115,8.40422 24.62593,8.6191c4.04412,0.21327 10.92482,-0.63963 17.199,-2.48929c5.47859,-1.61512 10.5135,-4.34604 12.54917,-3.15614c1.3147,0.76848 -12.56977,5.79255 -13.16206,8.41454c-0.38741,1.71499 -3.58938,13.46228 -4.52021,16.94428c-1.35308,5.06156 -9.74149,1.00743 -9.79048,1.93647z" fill="url(#color-6)"/><path d="M255.43628,179.82359c0.48992,-2.82929 23.80831,-15.92541 30.39036,-28.40627c5.99747,-11.37238 10.80025,-27.39581 12.31436,-31.1805c3.05776,-7.64322 4.6763,-23.15193 4.90399,-30.5541c0.09008,-2.92839 -0.53094,-11.31694 -1.15187,-13.45813c-1.42814,-4.92474 -25.68863,5.80952 -25.20845,5.94646c0.54387,0.1551 4.82901,-5.32391 12.63263,-8.14619c7.23977,-2.61836 18.06509,-2.95004 17.90994,5.62534c-0.05124,2.83194 -1.16306,19.48767 -1.77029,22.64607c-2.00318,10.41918 -8.72991,27.71797 -9.66897,33.14105c-3.01481,17.41059 -1.57024,20.61467 -3.33501,20.11138c-0.85101,-0.24269 -23.40278,25.87712 -28.46802,29.72348c-3.69244,2.80391 15.25385,-18.94234 12.2442,-19.09024c-1.42341,-0.06995 -21.29409,16.53623 -20.79287,13.64166z" fill="url(#color-7)"/><path d="M279.34161,259.30741c0,0 -14.01949,42.92092 -14.94381,40.10973c-0.7565,-2.30079 10.88567,-35.52473 12.08585,-41.17005c1.34563,-6.32948 11.35796,-23.3225 11.35796,-27.23337c0,-1.55237 1.55407,-23.24064 1.80935,-27.66882c0.07546,-1.30894 1.56737,20.93659 3.52027,22.83731c0.8484,0.82573 3.40634,-15.23016 3.26753,-16.9789c-0.41132,-5.18195 -9.40013,-18.1999 -9.696,-18.5788c-0.7713,-0.98776 -14.13016,16.45418 -15.50582,20.07506c-2.17663,5.72914 12.60466,-13.12385 12.60466,-13.12385c0,0 -9.40231,17.36282 -10.07103,21.47041c-0.6914,4.24697 -4.13889,20.66744 -2.17803,21.2002c2.83846,0.7712 10.03257,-19.3448 9.01459,-11.97251c-0.9601,6.95315 -13.91125,44.61734 -14.83845,44.71853c-1.52674,0.16662 -4.8696,-27.3009 -3.63004,-43.87099c0.20795,-2.77987 2.21068,19.32464 3.65543,15.08739c1.38156,-4.05191 2.21011,-34.50256 2.30276,-34.89786c0.73795,-3.14835 15.14485,-29.0972 16.24475,-29.0972c2.00911,0 17.5,29.57976 17.5,29.57976c0,0 2.71325,6.98909 5.51785,13.21974c3.04941,6.7745 6.20681,12.24364 6.10206,13.6133c-0.10155,1.32776 -9.21455,36.57576 -10.66866,32.4192c-1.45861,-4.16945 4.16433,-26.6876 4.15701,-38.03155c-0.00448,-6.93957 -5.5577,-12.26562 -6.05157,-10.28882c-4.02236,16.10047 -5.0567,67.51881 -5.0567,67.51881c0,0 -27.79658,42.56076 -30.28991,40.39158c-0.40292,-0.35053 18.62728,-25.43291 22.58035,-36.8678c0.88606,-2.56306 5.18892,-12.65274 6.44614,-22.86855c2.08589,-16.94929 1.04618,-36.49987 0.76889,-39.17266c-0.19986,-1.92656 -1.70198,15.93064 -3.40905,27.79874c-0.66036,4.59107 -0.10407,7.80192 -1.68353,12.66685c-2.49146,7.67397 -11.32073,21.73704 -11.94613,24.80856c-1.58223,7.7708 9.16183,-32.89904 9.49778,-34.58395c2.59072,-12.99345 -21.9835,63.0498 -23.12181,58.31118c-0.66058,-2.74993 14.65726,-59.42066 14.65726,-59.42066z" fill="url(#color-8)"/><path d="M249.64976,327.23066c-1.13831,4.9782 -25.71253,-74.90942 -23.12181,-61.25908c0.33595,1.77008 11.08001,44.49597 9.49778,36.33234c-0.6254,-3.2268 -9.45467,-18.00083 -11.94613,-26.06275c-1.57947,-5.11088 -1.02316,-8.48406 -1.68353,-13.30722c-1.70706,-12.46807 -3.20919,-31.22804 -3.40905,-29.20409c-0.27728,2.80791 -1.317,23.34686 0.76889,41.15303c1.25723,10.73227 5.56008,21.33202 6.44614,24.02467c3.95308,12.01298 22.98327,38.3634 22.58036,38.73165c-2.49333,2.27885 -30.28992,-42.43358 -30.28992,-42.43358c0,0 -1.03434,-54.01778 -5.05669,-70.93221c-0.49386,-2.07674 -6.04708,3.51859 -6.05156,10.80898c-0.00732,11.91745 5.61563,35.574 4.15701,39.95423c-1.4541,4.36668 -10.56711,-32.66327 -10.66865,-34.05816c-0.10476,-1.4389 3.05264,-7.18452 6.10206,-14.30151c2.8046,-6.54563 5.51785,-13.88806 5.51785,-13.88806c0,0 15.49089,-31.07516 17.5,-31.07516c1.0999,0 15.50681,27.26067 16.24476,30.56821c0.09265,0.41529 0.9212,32.40537 2.30276,36.66213c1.44475,4.45146 3.44747,-18.77053 3.65543,-15.85013c1.23956,17.40779 -2.10329,46.26393 -3.63003,46.08889c-0.92719,-0.1063 -13.87835,-39.67462 -14.83845,-46.97927c-1.01797,-7.745 6.17614,13.38795 9.0146,12.57778c1.96086,-0.55968 -1.48662,-17.81028 -2.17802,-22.27198c-0.66872,-4.31525 -10.07103,-22.55584 -10.07103,-22.55584c0,0 14.78129,19.80609 12.60466,13.78732c-1.37566,-3.80394 -14.73451,-22.12766 -15.50582,-21.08996c-0.29587,0.39805 -9.28468,14.07413 -9.696,19.51805c-0.1388,1.83715 2.41914,18.70474 3.26754,17.83727c1.9529,-1.99681 3.44481,-25.36697 3.52027,-23.99185c0.25527,4.65206 1.80935,27.43676 1.80935,29.06763c0,4.10858 10.01234,21.9607 11.35796,28.61015c1.20018,5.93072 12.84235,40.83429 12.08585,43.2514c-0.92432,2.9533 -14.94381,-42.13748 -14.94381,-42.13748c0,0 15.31784,59.53572 14.65726,62.42467z" data-paper-data="{&quot;index&quot;:null}" fill="url(#color-9)"/><path d="M294.84311,344.7137c0,0 -3.60387,0.28006 -3.87058,-7.98805c-0.0682,-2.11417 3.57379,-19.72396 3.80571,-21.6408c0.53929,-4.45721 -1.93513,-7.87116 -1.93513,-7.87116c0,0 12.26493,-5.31507 13.54416,-7.65629c3.92537,-7.18416 13.45584,-68.84371 13.45584,-68.84371c0,0 -2.30254,52.88778 -5.26179,64.56039c-3.03864,11.98576 -13.73821,18.93961 -13.73821,18.93961z" fill="url(#color-10)"/><path d="M241.31458,489.81081c0,0 15.23709,-33.8231 22.48399,-55.63716c9.14872,-27.53878 28.04454,-96.45994 28.04454,-96.45994l4,5.5c0,0 -5.0232,36.96216 -8.87088,54.44833c-2.10934,9.58611 -10.90574,41.22461 -20.45935,63.61945c-6.93662,16.26029 -15.69229,26.22762 -15.69229,26.22762z" fill="url(#color-11)"/><path d="M221.69458,585.35542l30.86433,-120.04681l9.60921,7.26925c0,0 -9.11229,45.52626 -14.18048,62.69846c-4.79578,16.24923 -21.46262,51.23239 -21.46262,51.23239z" fill="url(#color-12)"/></g></g></g></svg>