<svg version="1.1" xmlns="http://www.w3.org/2000/svg" xmlns:xlink="http://www.w3.org/1999/xlink" width="206.69242" height="576.68456" viewBox="0,0,206.69242,576.68456"><defs><radialGradient cx="226.77366" cy="301.44381" r="103.09868" gradientUnits="userSpaceOnUse" id="color-1"><stop offset="0" stop-color="#ffffff"/><stop offset="1" stop-color="#594384"/></radialGradient><radialGradient cx="304.35772" cy="418.9286" r="126.32817" gradientUnits="userSpaceOnUse" id="color-2"><stop offset="0" stop-color="#ffffff"/><stop offset="1" stop-color="#594384"/></radialGradient><radialGradient cx="264.49059" cy="68.92816" r="62.30201" gradientUnits="userSpaceOnUse" id="color-3"><stop offset="0" stop-color="#ffffff"/><stop offset="1" stop-color="#594384"/></radialGradient><radialGradient cx="191.58823" cy="19.45846" r="54.19671" gradientUnits="userSpaceOnUse" id="color-4"><stop offset="0" stop-color="#ffffff"/><stop offset="1" stop-color="#594384"/></radialGradient><radialGradient cx="270.60541" cy="13.20474" r="53.98002" gradientUnits="userSpaceOnUse" id="color-5"><stop offset="0" stop-color="#ffffff"/><stop offset="1" stop-color="#594384"/></radialGradient><radialGradient cx="216.90009" cy="68.9823" r="62.81082" gradientUnits="userSpaceOnUse" id="color-6"><stop offset="0" stop-color="#ffffff"/><stop offset="1" stop-color="#594384"/></radialGradient><radialGradient cx="301.14586" cy="163.65002" r="41.13824" gradientUnits="userSpaceOnUse" id="color-7"><stop offset="0" stop-color="#ffffff"/><stop offset="1" stop-color="#594384"/></radialGradient><radialGradient cx="298.24212" cy="225.1208" r="49.5808" gradientUnits="userSpaceOnUse" id="color-8"><stop offset="0" stop-color="#ffffff"/><stop offset="1" stop-color="#594384"/></radialGradient><radialGradient cx="280.43019" cy="215.60349" r="68.42336" gradientUnits="userSpaceOnUse" id="color-9"><stop offset="0" stop-color="#ffffff"/><stop offset="1" stop-color="#594384"/></radialGradient><radialGradient cx="252.80541" cy="123.12053" r="37.59896" gradientUnits="userSpaceOnUse" id="color-10"><stop offset="0" stop-color="#ffffff"/><stop offset="1" stop-color="#594384"/></radialGradient><radialGradient cx="244.72811" cy="151.91324" r="43.75256" gradientUnits="userSpaceOnUse" id="color-11"><stop offset="0" stop-color="#ffffff"/><stop offset="1" stop-color="#594384"/></radialGradient><radialGradient cx="255.00623" cy="236.34459" r="95.59967" gradientUnits="userSpaceOnUse" id="color-12"><stop offset="0" stop-color="#ffffff"/><stop offset="1" stop-color="#594384"/></radialGradient><radialGradient cx="300.85591" cy="327.26943" r="89.11842" gradientUnits="userSpaceOnUse" id="color-13"><stop offset="0" stop-color="#ffffff"/><stop offset="1" stop-color="#594384"/></radialGradient></defs><g transform="translate(-153.68143,-3.96104)"><g data-paper-data="{&quot;isPaintingLayer&quot;:true}" fill-rule="nonzero" stroke="none" stroke-width="0" stroke-linecap="butt" stroke-linejoin="miter" stroke-miterlimit="10" stroke-dasharray="" stroke-dashoffset="0" style="mix-blend-mode: normal"><g><g data-paper-data="{&quot;index&quot;:null}"><path d="M192.75334,333.10619c0,0 2.78488,-22.95822 -0.77645,-28.3013c-1.40249,-2.10414 -3.04485,-43.50318 -3.04485,-43.50318c8.23716,-30.89932 15.0628,-33.95223 40.31053,-54.54258c12.44248,-10.14726 24.71318,-17.08773 33.3956,-17.83003c26.3004,-2.24854 38.60988,-5.88885 41.41833,26.96067c0.30947,3.61974 -4.42442,24.79088 -2.46162,35.92509c3.22195,18.27683 30.61162,93.18655 48.10409,159.14442c12.25745,46.21849 11.98202,86.94723 8.85211,92.91003c-0.68196,1.29921 -1.30256,38.74049 -2.07029,41.76099c-1.10756,4.35751 -3.90009,28.28432 -5.09143,26.87157c-7.76579,-9.20902 -12.6848,-86.57977 -32.84776,-131.3923c-8.81872,-19.5998 -18.40581,-34.09759 -28.7793,-50.14937c-6.052,-9.36477 -13.28373,-22.93203 -18.38425,-28.6735c-5.78539,-6.5124 -12.41791,-9.41441 -14.3948,-9.2454c-26.30042,2.24854 -20.88089,14.41591 -46.21187,-4.9201z" fill="#412a6a"/><path d="M235.7009,355.13141c0,0 -4.70684,-12.99741 -7.49667,-25.43282c-4.42812,-19.7379 -16.70575,-79.70016 -20.51454,-98.47253c-0.71972,-3.54731 0.88781,-8.44944 0.88781,-8.44944c0,0 1.76817,-1.22229 5.33311,-4.93808c3.86572,-4.02929 11.16233,-7.50057 11.16233,-7.50057c0,0 -5.35526,5.72362 -6.24674,8.74938c-1.89516,6.43235 -0.0382,13.84994 0.91784,20.78112c1.77784,12.88923 11.12114,62.84001 19.74048,89.18099c1.69355,5.17555 6.43041,11.96424 11.57479,15.98015c9.10552,7.10812 29.55662,11.9609 29.55662,11.9609z" fill="url(#color-1)"/><path d="M334.8827,459.28675c0,0 10.07209,58.96154 11.67157,65.50503c1.96773,8.05006 8.43717,35.30195 6.70711,40.68036c-1.00679,3.12984 -5.80478,15.17347 -5.80478,15.17347c0,0 -29.45272,-128.18062 -36.49852,-141.69759c-10.88091,-20.87442 -25.79584,-49.72156 -31.25458,-61.38282c-2.27774,-4.86583 -4.0546,-10.6552 -9.50502,-15.96838c-5.70311,-5.55949 -10.90084,-9.88583 -10.90084,-9.88583l25.45036,0.47545l50.13469,107.10031z" fill="url(#color-2)"/></g><path d="M309.22042,201.60614c0,0 -3.00166,11.83219 -4.20695,20.12133c-1.25338,8.61983 -0.86606,13.76077 -9.20327,16.53867c-9.29906,3.09838 -16.50491,-12.86051 -29.69731,-16.66174c-15.26321,-17.6597 -22.14978,-22.12389 -22.14978,-22.12389c0,0 -5.43626,-0.14892 -6.38229,-12.91296c-0.48253,-6.51038 -0.95913,-11.41437 -1.98767,-19.44379c-2.46502,-19.24331 -11.49541,-43.72843 -12.63102,-51.87045c-1.25043,-8.9653 -45.23282,-38.77753 -55.69722,-54.87961c-12.0029,-18.46944 -13.58347,-21.72965 -13.58347,-21.72965c0,0 23.45703,-30.69567 44.5975,-32.50307c5.30696,-0.45372 17.40863,-2.21998 35.63854,0.48798c6.945,1.03164 32.0028,3.40935 37.66728,4.88051c11.20597,2.91037 28.73924,14.8307 42.14721,28.87017c10.16997,10.64898 18.14743,24.63281 18.14743,24.63281c0,0 4.92394,26.98625 7.61176,35.52518c2.33986,7.43349 6.81115,22.74972 5.56654,29.87207c-4.99661,28.59352 -17.54657,46.54875 -17.54657,46.54875z" data-paper-data="{&quot;index&quot;:null}" fill="#412a6a"/><path d="M240.90181,63.41755c-0.06494,-0.75953 -4.03665,-11.64946 -1.75767,-14.65123c0.99026,-1.30433 9.2415,-8.59952 10.71786,-9.66897c2.21646,-1.60558 16.66132,-3.45791 20.74447,-3.332c4.15556,0.12815 11.42457,2.70848 14.53854,5.68362c3.68286,3.51868 -1.77631,16.40534 -1.1336,15.86318c1.5115,-1.27503 1.68745,-7.50459 -3.10015,-12.0639c-2.9603,-2.81915 -12.94469,-3.67588 -15.44097,-2.84726c-3.88909,1.29096 -9.19939,7.35491 -10.51383,11.97981c-1.89471,6.66658 6.00374,14.34738 10.84152,13.93377c6.93756,-0.59312 11.90582,-1.25695 20.5919,-2.46538c0.50372,-0.07008 11.07474,-4.15346 13.06155,-4.8205c4.87165,-1.6356 6.62762,-2.90228 7.30059,-3.53792c4.67552,-4.41619 3.73865,-9.55581 1.8338,-15.25609c-0.97069,-2.90479 -3.97566,-9.14634 -2.94634,-8.94126c3.52229,0.7018 9.49353,9.55448 9.56942,16.13566c0.08118,7.04064 -4.5763,13.32289 -10.80374,17.55782c-2.29971,1.5639 -1.31571,3.58723 8.15161,-0.02479c3.00161,-1.14519 9.29683,-9.23351 11.50176,-9.21893c7.72223,0.05108 -1.3273,13.23126 -4.29693,13.48514c-1.80104,0.15398 -3.52099,3.09794 -13.78833,6.99453c-4.85761,1.84353 -22.86233,3.9096 -23.66966,3.90972c-7.38924,0.00113 -15.39,-1.75905 -22.91674,-4.83707c-0.57732,-0.23609 3.77299,7.70614 11.56715,17.09768c9.19151,11.07525 34.61576,22.45742 49.16457,20.6491c4.07724,-0.50679 16.23166,-14.8358 16.05488,-14.92114c-0.27769,-0.13404 -1.018,9.38692 -5.30942,15.43366c-5.04787,7.11262 -14.37684,10.71175 -24.35252,7.14873c-5.26855,-1.88177 -13.2686,-4.03792 -21.73242,-9.47122c-9.29267,-5.96538 -18.95322,-15.27895 -21.65611,-18.29276c-8.91404,-9.93948 -12.62923,-22.51287 -13.17362,-22.83366c-5.27721,-3.10965 -8.81451,-5.96255 -9.04756,-8.68838z" data-paper-data="{&quot;index&quot;:null}" fill="url(#color-3)"/><path d="M164.02633,31.0986c-0.12802,-1.49737 0.2253,-10.82595 14.58126,-12.42646c2.79034,-0.31109 23.95184,-2.15896 26.9852,-2.41829c8.48136,-0.72511 27.14063,1.09897 40.55958,3.84839c16.07194,3.29298 26.38636,7.7629 26.46969,8.73755c0.07784,0.91048 -21.64263,-4.67368 -36.4126,-6.01075c-14.24176,-1.28925 -28.46564,-1.74084 -37.61571,-0.95856c-18.63951,1.59358 -34.41452,11.01652 -34.56742,9.22813z" data-paper-data="{&quot;index&quot;:null}" fill="url(#color-4)"/><path d="M275.50077,14.79351c0.24174,2.82759 18.07849,10.3179 28.02175,18.73358c7.4838,6.33407 7.84566,9.77273 5.90349,10.68808c-0.49918,0.23526 -19.29094,-19.13086 -20.4582,-19.03106c-4.90283,0.41917 -15.17225,-6.73742 -31.4004,-10.43657c-22.6402,-5.16075 -62.39888,-6.53335 -58.18384,-7.49748c10.67022,-2.44065 19.60185,-2.17768 31.34475,-3.18163c11.7429,-1.00395 44.30199,5.22232 44.77244,10.72509z" data-paper-data="{&quot;index&quot;:null}" fill="url(#color-5)"/><path d="M213.12047,64.53811c-0.50179,-5.86926 -0.4875,-8.49989 -0.68619,-15.31114c-0.16659,-5.71063 2.7345,-13.26391 -0.43945,-14.76269c-1.69007,-0.79808 12.12529,-3.23422 12.55341,-3.27083c0.69183,-0.05915 10.43125,3.21419 10.29949,6.52235c-0.04988,1.25235 -7.5029,-0.76293 -8.06646,0.73209c-0.4866,1.29087 -4.69736,6.09897 -5.04949,7.6913c-1.64568,7.44162 0.93851,18.75863 1.47756,25.06374c0.34524,4.03819 8.78933,13.49477 14.79464,21.26082c10.6813,13.81301 21.41014,27.04287 20.4465,28.87812c-0.28491,0.54261 -22.73713,-27.37133 -23.09308,-27.3409c-2.23675,0.19123 -21.09604,-16.11864 -22.2369,-29.46287z" data-paper-data="{&quot;index&quot;:null}" fill="url(#color-6)"/><path d="M292.2283,170.68521c-0.83506,-9.76742 31.89122,-41.11606 40.27899,-41.83317c2.75462,-0.23551 -7.90126,5.5456 -11.86938,10.07857c-8.11471,9.26984 -18.34085,22.27882 -17.78003,28.83853c0.17127,2.0033 0.23146,4.49158 0.20181,7.13011c-0.01837,1.63564 7.2612,-7.82844 13.52114,-12.79704c7.74752,-6.1493 14.78349,-8.15379 14.6009,-6.30379c-0.18676,1.89213 -8.66493,7.0408 -12.82428,12.47644c-9.03152,11.80282 -20.50315,26.40636 -21.19631,24.3198c-4.05261,-12.19912 -4.09776,-12.14202 -4.93282,-21.90944z" data-paper-data="{&quot;index&quot;:null}" fill="url(#color-7)"/><path d="M299.7458,258.61445c-0.16918,-1.97888 -2.45367,-10.90724 -3.03156,-22.83275c-0.63829,-13.17221 0.54598,-29.53714 3.16461,-33.87088c5.55866,-9.19942 12.4724,-16.63673 16.00859,-16.93905c6.71023,-0.57369 -9.64251,6.50848 -8.88978,15.31292c0.30752,3.59699 -0.58655,2.49784 -1.04173,4.22736c-0.65899,2.50387 -1.41792,7.72383 -4.80733,14.84019c-2.27362,4.77364 -0.65007,48.06665 -1.40281,39.2622z" data-paper-data="{&quot;index&quot;:null}" fill="url(#color-8)"/><path d="M260.85712,193.44025c-0.29847,-3.49114 14.10491,20.4272 16.37739,17.57445c1.27268,-1.59765 1.05083,-16.99676 0.79688,-19.80024c-0.13288,-1.46678 -7.39655,-2.33027 -15.05913,-7.52797c-4.84804,-3.28853 -14.51314,-8.71512 -14.71629,-9.78734c-0.45964,-2.42593 24.03093,8.04623 22.80189,5.61147c-2.5565,-5.06456 -29.06942,-24.85403 -27.80429,-24.96219c1.83262,-0.15668 26.43647,12.99482 31.6488,20.15097c7.5112,10.31228 8.25707,25.10994 8.87502,32.33784c0.49697,5.81285 -2.30195,16.08243 -1.55882,25.46727c0.82214,10.38255 5.06305,19.64821 2.7134,19.84909c-4.47348,0.38246 -23.02805,-46.66967 -24.07482,-58.91335z" data-paper-data="{&quot;index&quot;:null}" fill="url(#color-9)"/><path d="M219.91117,88.296c-0.08954,-1.0473 3.22064,14.02761 12.27392,23.73147c5.41076,5.79956 17.12968,8.34895 19.58531,8.08763c0.59463,-0.06328 5.16561,-7.17446 5.33008,-7.60395c1.1077,-2.89247 -10.36827,-13.4879 -8.46337,-13.53743c4.98859,-0.12972 13.2773,16.24378 12.99059,12.85369c-0.49994,-5.91139 -22.91367,-25.13896 -21.80414,-25.23382c0.7017,-0.05999 15.05892,9.41528 22.0436,17.74913c3.27826,3.91148 10.12813,14.48585 16.0408,23.4905c8.17065,12.44345 8.0363,41.8361 8.41944,44.16253c0.32661,1.9832 -0.95103,-10.34393 -7.28104,-24.08389c-1.39992,-3.03869 -7.90541,-10.02663 -9.22665,-12.57668c-1.58041,-3.05027 9.97216,4.34697 8.47649,1.5113c-5.25459,-9.96229 -20.39071,-17.6952 -20.2612,-16.18036c0.404,4.72549 1.87395,15.74525 8.01732,24.18386c7.09129,9.74069 18.88132,16.67332 17.58297,16.78432c-1.1417,0.09761 -15.40415,-13.22969 -30.17065,-27.36378c-6.65193,-6.36706 -20.34777,-14.56255 -26.20788,-21.9392c-8.74064,-11.00264 -7.07009,-20.81248 -7.34562,-24.03532z" data-paper-data="{&quot;index&quot;:null}" fill="url(#color-10)"/><path d="M235.06681,152.23739c-0.16854,-1.97138 0.04434,-8.07896 -1.18286,-11.53395c-4.08239,-11.49327 -7.64158,-24.84658 -5.85017,-24.99974c1.35634,-0.11596 4.8968,12.93727 10.334,22.39344c1.56707,2.72538 12.17173,5.36355 18.82078,10.04829c9.91039,6.98256 23.57573,25.63683 23.75809,27.7698c0.14292,1.67174 -8.5642,-10.72082 -15.9629,-17.52691c-3.81388,-3.50841 -14.84915,-8.69628 -16.23843,-8.99804c-4.62165,-1.00386 -6.79135,0.33644 -2.60004,6.80221c4.57478,7.05734 15.74212,19.34493 14.88736,19.41801c-1.75444,0.15 -5.84731,-2.61623 -12.68193,-10.46228c-2.24194,-2.57371 -13.10377,-10.80404 -13.28388,-12.9108z" data-paper-data="{&quot;index&quot;:null}" fill="url(#color-11)"/><path d="M241.81281,225.17789c-0.09845,-1.15151 -0.01869,50.21275 2.71634,47.6202c1.04026,-0.98608 -9.75319,-23.91518 -10.73408,-34.13635c-0.61664,-6.42551 3.075,-15.93979 4.77299,-17.64503c3.53838,-3.55349 13.42055,-10.09929 12.41815,-11.70804c-0.81056,-1.30088 -11.86326,-8.67058 -13.11227,-9.7083c-2.51993,-2.09368 9.45688,2.27563 11.56947,2.47771c3.8055,0.36403 -7.62063,-6.61517 -10.42924,-9.42315c-2.2203,-2.2198 13.59571,6.08374 11.88627,2.87632c-0.94889,-1.7804 -12.07584,-8.20385 -13.59942,-9.90302c-1.95505,-2.18038 3.87097,1.11662 8.01571,3.22373c2.37564,1.20773 3.17806,0.76399 4.23877,1.87493c5.95664,6.23873 -7.43577,-17.51404 -6.41349,-17.60144c2.42314,-0.20717 13.71823,29.23437 15.5883,51.10789c0.03422,0.4003 7.50336,8.09646 12.08466,15.49759c6.49314,10.48972 9.62428,24.70785 9.14338,24.1127c-2.05967,-2.54896 -6.03461,-14.34229 -9.62086,-19.89414c-6.65078,-10.29603 -13.31539,-14.92359 -13.46931,-10.6789c-0.25435,7.0135 12.44509,34.05541 19.4748,53.9231c4.80156,13.57037 5.04392,22.6188 4.25506,24.28515c-0.83042,1.7541 -9.23745,-24.95198 -16.09746,-33.19653c-2.21183,-2.65823 -1.95238,-6.13875 -1.83115,-9.59769c0.14251,-4.06687 -4.44182,-8.52789 -4.60629,-8.51382c-1.239,0.10593 -5.98215,2.18013 -7.5099,-4.08729c-0.48022,-1.97008 2.0917,-8.61609 1.66748,-11.44471c-0.86558,-5.77168 -9.79462,-12.28739 -10.40792,-19.46092z" data-paper-data="{&quot;index&quot;:null}" fill="url(#color-12)"/><path d="M296.89109,328.61204c-0.56819,-6.64593 -4.66964,-19.64517 -4.3022,-31.80598c0.51485,-17.03945 5.8201,-33.05909 6.9078,-33.15208c1.1322,-0.0968 -2.26307,16.64169 -1.51744,34.27702c0.26166,6.18859 -0.42652,21.28583 4.40876,25.28215c4.07017,3.36396 13.63833,-3.46701 15.20855,-6.90962c3.30829,-7.2532 -5.38968,2.31301 -9.34077,13.43742c-1.42231,4.00456 -4.35446,4.66331 -0.70348,9.94232c7.80249,11.28171 27.29719,27.33493 26.62375,27.3925c-0.47942,0.04099 -23.4245,-17.07614 -21.23923,-15.60118c9.43493,6.36818 22.34257,22.40972 20.60251,24.84335c-1.14283,1.59835 -13.86543,-14.17655 -19.13739,-16.78577c-7.01376,-3.47128 22.86841,28.83653 20.81694,25.35126c-0.56912,-0.96689 -6.98092,-3.84992 -16.68002,-11.80514c-1.52212,-1.24845 6.995,12.68693 11.56125,24.15611c3.80409,9.55483 3.79439,17.02906 2.93797,16.02413c-0.46475,-0.54533 -0.92755,-10.2732 -6.34459,-20.06764c-4.47396,-8.08926 -14.08447,-16.55227 -14.33994,-17.02391c-1.33567,-2.46583 0.4997,-5.70819 0.2404,-12.73956c-0.17597,-4.77194 -4.73507,-11.33311 -4.9445,-13.15414c-0.25558,-2.22246 -9.02306,-9.36016 -9.27388,-10.48836c-0.53383,-2.40132 -1.4366,-10.61307 -1.48446,-11.17287z" data-paper-data="{&quot;index&quot;:null}" fill="url(#color-13)"/></g></g></g></svg>