<svg version="1.1" xmlns="http://www.w3.org/2000/svg" xmlns:xlink="http://www.w3.org/1999/xlink" width="217" height="167.21232" viewBox="0,0,217,167.21232"><g transform="translate(-83,-68.78768)"><g data-paper-data="{&quot;isPaintingLayer&quot;:true}" fill-rule="nonzero" stroke-linejoin="miter" stroke-miterlimit="10" stroke-dasharray="" stroke-dashoffset="0" style="mix-blend-mode: normal"><path d="M113,207v-75h104v75z" fill="#40ff62" stroke="none" stroke-width="0" stroke-linecap="butt"/><path d="M83,232v-130h32v130z" fill="#40ff62" stroke="none" stroke-width="0" stroke-linecap="butt"/><path d="M296,100v-1h4v1z" fill="#40ff62" stroke="none" stroke-width="0" stroke-linecap="butt"/><path d="M210,236v-130h32v130z" fill="#40ff62" stroke="none" stroke-width="0" stroke-linecap="butt"/><path d="M158,133v-64.21232c0.13102,0.03476 0.26357,0.0632 0.39818,0.08319c4.02895,0.59843 8.32374,0.56937 12.60182,0.42669v63.70244z" fill="#40ff62" stroke="none" stroke-width="0" stroke-linecap="butt"/><path d="M148,184v-21h37v21z" fill="#00cc25" stroke="none" stroke-width="0" stroke-linecap="butt"/><path d="M151.77561,120.29756l28.5439,-41.29756l-4.85854,55.26585l54.65854,-23.68537l-41.29756,46.76341l47.97805,3.03659l-63.76829,21.2561l15.79024,46.76341l-37.65366,-39.47561l-48.58537,25.50732l43.72683,-54.65854l-58.90976,-45.54878z" fill="#ff0000" stroke="#fbff00" stroke-width="2.5" stroke-linecap="round"/></g></g></svg>