<svg version="1.1" xmlns="http://www.w3.org/2000/svg" xmlns:xlink="http://www.w3.org/1999/xlink" width="80.65662" height="54.99983" viewBox="0,0,80.65662,54.99983"><defs><linearGradient x1="274.73664" y1="206.70377" x2="274.73664" y2="222.63188" gradientUnits="userSpaceOnUse" id="color-1"><stop offset="0" stop-color="#bd8946"/><stop offset="1" stop-color="#bd8946" stop-opacity="0"/></linearGradient><radialGradient cx="240.31956" cy="235.53883" r="21.97894" gradientUnits="userSpaceOnUse" id="color-2"><stop offset="0" stop-color="#fff082"/><stop offset="1" stop-color="#ffd183"/></radialGradient><linearGradient x1="239.68616" y1="230.45667" x2="232.46775" y2="248.8471" gradientUnits="userSpaceOnUse" id="color-3"><stop offset="0" stop-color="#c66a21" stop-opacity="0"/><stop offset="1" stop-color="#c66a21"/></linearGradient><linearGradient x1="225.65175" y1="228.23078" x2="226.51416" y2="233.59489" gradientUnits="userSpaceOnUse" id="color-4"><stop offset="0" stop-color="#6f3939"/><stop offset="1" stop-color="#ffd183"/></linearGradient><linearGradient x1="226.9701" y1="237.80407" x2="228.95076" y2="242.86316" gradientUnits="userSpaceOnUse" id="color-5"><stop offset="0" stop-color="#6f3939"/><stop offset="1" stop-color="#ffd183"/></linearGradient><linearGradient x1="231.23698" y1="220.5597" x2="231.51384" y2="225.98563" gradientUnits="userSpaceOnUse" id="color-6"><stop offset="0" stop-color="#6f3939"/><stop offset="1" stop-color="#ffd183"/></linearGradient></defs><g transform="translate(-217.99649,-199.37286)"><g data-paper-data="{&quot;isPaintingLayer&quot;:true}" fill-rule="nonzero" stroke="none" stroke-width="0" stroke-linecap="butt" stroke-linejoin="miter" stroke-miterlimit="10" stroke-dasharray="" stroke-dashoffset="0" style="mix-blend-mode: normal"><path d="M251.23172,214.30374l16.65048,-14.93088c0,0 14.15088,0.59939 20.02877,5.25333c5.17343,4.09618 10.74214,17.66617 10.74214,17.66617l-27.43718,24.62167z" fill="#ffefda"/><path d="M257.43542,222.63188l-6.0417,-8.78793c0,0 18.20558,-13.73113 23.61755,-13.73113c6.05076,0 17.02661,6.59094 17.02661,6.59094c0,0 -9.08672,-1.94571 -15.89975,-1.75145c-5.9308,0.16911 -9.73953,2.35896 -9.40155,3.79536c0.34358,1.46021 11.19341,-0.87826 17.99774,2.66388c7.81586,4.0687 11.69752,13.96655 11.69752,13.96655c0,0 -7.14971,-7.01595 -14.84031,-9.30121c-5.73418,-1.70391 -12.25687,1.17334 -13.72099,1.07023c-6.91621,-0.48706 -10.43512,5.48476 -10.43512,5.48476z" fill="url(#color-1)"/><path d="M259.91706,231.8828c7.05064,10.1565 10.93881,20.05688 8.68446,22.11312c-2.25435,2.05625 -9.79754,-4.5103 -16.84818,-14.66679c-7.05064,-10.1565 -10.93881,-20.05688 -8.68446,-22.11312c2.25435,-2.05625 9.79754,4.5103 16.84818,14.66679z" data-paper-data="{&quot;index&quot;:null}" fill="#020713"/><g data-paper-data="{&quot;index&quot;:null}"><path d="M233.79972,247.26589c-3.34081,-1.39971 -9.0053,-0.55814 -11.44685,-2.52645c-5.74052,-4.62786 -4.46169,-11.26798 -2.61282,-15.68084c2.63523,-6.28972 18.15075,-12.74458 29.34647,-8.05387c11.19569,4.6907 14.13989,16.73767 11.50467,23.02739c-2.63523,6.28972 -15.59575,7.92448 -26.79146,3.23378z" data-paper-data="{&quot;index&quot;:null}" fill="url(#color-2)"/><path d="M232.46775,248.8471c-2.55999,-1.00482 -11.02137,-2.85135 -12.79863,-4.42873c-3.68746,-3.27275 -0.32234,-10.62154 1.0227,-14.04829c1.99331,-5.07838 11.12285,-3.00303 18.99433,0.0866c4.35572,1.70966 18.82296,1.10314 20.65756,4.11583c1.48081,2.43171 -9.12388,8.40543 -10.01419,10.67366c-1.99331,5.07838 -9.9903,6.69058 -17.86178,3.60095z" data-paper-data="{&quot;index&quot;:null}" fill="url(#color-3)"/><path d="M226.51416,233.59489c-4.44377,0.71445 -8.23923,0.09282 -8.47738,-1.38844c-0.23815,-1.48126 3.17119,-3.26123 7.61496,-3.97568c4.44377,-0.71445 12.79464,1.81578 13.03279,3.29704c0.23815,1.48126 -7.7266,1.35263 -12.17037,2.06708z" data-paper-data="{&quot;index&quot;:null}" fill="url(#color-4)"/><path d="M229.06779,241.30568c-4.1911,1.64084 -8.14908,3.39595 -8.69601,1.99892c-0.54695,-1.39702 -2.52992,-4.85722 1.66118,-6.49806c4.1911,-1.64084 17.2599,0.42124 17.80685,1.81828c0.54695,1.39702 -6.58092,1.04002 -10.77202,2.68085z" data-paper-data="{&quot;index&quot;:null}" fill="url(#color-5)"/><path d="M231.51384,225.98563c-4.49499,0.22936 -8.20089,-0.79933 -8.27735,-2.29766c-0.07646,-1.49833 3.50547,-2.89891 8.00048,-3.12828c4.49499,-0.22936 12.52301,3.18968 12.59947,4.68802c0.07646,1.49833 -7.8276,0.50855 -12.3226,0.73792z" data-paper-data="{&quot;index&quot;:null}" fill="url(#color-6)"/></g><path d="M263.65399,244.25176c-1.89973,-3.62734 -6.81096,-10.90259 -8.40253,-13.28706c-3.76121,-5.63491 -14.56038,-12.9725 -14.56038,-12.9725l14.52218,-7.36386c0,0 6.94116,9.4637 11.13496,15.34627c3.45769,4.85002 10.45987,18.03962 10.45987,18.03962l-10.19937,10.19084c0,0 0.05253,-4.21125 -2.95473,-9.9533z" fill="#113a9e"/></g></g></svg>