<svg version="1.1" xmlns="http://www.w3.org/2000/svg" xmlns:xlink="http://www.w3.org/1999/xlink" width="78.17287" height="53.73836" viewBox="0,0,78.17287,53.73836"><defs><linearGradient x1="279.20886" y1="196.0245" x2="268.09716" y2="207.43654" gradientUnits="userSpaceOnUse" id="color-1"><stop offset="0" stop-color="#bd8946"/><stop offset="1" stop-color="#bd8946" stop-opacity="0"/></linearGradient><radialGradient cx="234.43419" cy="192.6741" r="21.97894" gradientUnits="userSpaceOnUse" id="color-2"><stop offset="0" stop-color="#fff082"/><stop offset="1" stop-color="#ffd183"/></radialGradient><linearGradient x1="237.52578" y1="188.59101" x2="219.52453" y2="196.73155" gradientUnits="userSpaceOnUse" id="color-3"><stop offset="0" stop-color="#c66a21" stop-opacity="0"/><stop offset="1" stop-color="#c66a21"/></linearGradient><linearGradient x1="229.02333" y1="177.20559" x2="225.89914" y2="181.65046" gradientUnits="userSpaceOnUse" id="color-4"><stop offset="0" stop-color="#6f3939"/><stop offset="1" stop-color="#ffd183"/></linearGradient><linearGradient x1="223.28941" y1="184.98429" x2="221.1792" y2="189.99072" gradientUnits="userSpaceOnUse" id="color-5"><stop offset="0" stop-color="#6f3939"/><stop offset="1" stop-color="#ffd183"/></linearGradient><linearGradient x1="238.37646" y1="175.60582" x2="234.78961" y2="179.68649" gradientUnits="userSpaceOnUse" id="color-6"><stop offset="0" stop-color="#6f3939"/><stop offset="1" stop-color="#ffd183"/></linearGradient></defs><g transform="translate(-213.43185,-171.89043)"><g data-paper-data="{&quot;isPaintingLayer&quot;:true}" fill-rule="nonzero" stroke="none" stroke-width="0" stroke-linecap="butt" stroke-linejoin="miter" stroke-miterlimit="10" stroke-dasharray="" stroke-dashoffset="0" style="mix-blend-mode: normal"><g><path d="M257.06639,185.07226l22.34562,0.91809c0,0 9.72056,10.30133 10.68524,17.73625c0.84906,6.54387 -4.62776,20.1512 -4.62776,20.1512l-36.83444,-1.49988z" fill="#ffefda"/><path d="M255.70132,195.36694l1.80189,-10.51109c0,0 22.62284,2.86254 26.50037,6.63801c4.3352,4.22111 7.60114,16.60026 7.60114,16.60026c0,0 -5.15302,-7.73309 -10.16988,-12.34679c-4.36722,-4.01626 -8.62375,-5.10432 -9.38365,-3.8394c-0.7725,1.28589 8.63245,7.17945 11.03651,14.46411c2.76145,8.36758 -1.36235,18.16702 -1.36235,18.16702c0,0 -0.22813,-10.01448 -4.14399,-17.01689c-2.9197,-5.22106 -9.60024,-7.70992 -10.57731,-8.80519c-4.61549,-5.17382 -11.30273,-3.35003 -11.30273,-3.35003z" fill="url(#color-1)"/><path d="M251.02575,203.72619c-2.03375,12.19549 -6.15465,22.00128 -9.2043,21.90185c-3.04965,-0.09943 -3.8732,-10.06642 -1.83946,-22.2619c2.03375,-12.19549 6.15465,-22.00128 9.2043,-21.90185c3.04965,0.09943 3.8732,10.06642 1.83946,22.2619z" data-paper-data="{&quot;index&quot;:null}" fill="#020713"/><g data-paper-data="{&quot;index&quot;:null}"><path d="M221.58193,196.52787c-1.41714,-3.33346 -6.06268,-6.68213 -6.43885,-9.79564c-0.88445,-7.32041 4.66405,-11.18574 9.06719,-13.05762c6.27588,-2.66803 21.89532,3.53112 26.64443,14.7022c4.74909,11.17105 -1.54563,21.85628 -7.82151,24.52432c-6.27588,2.66803 -16.70216,-5.20218 -21.45126,-16.37324z" data-paper-data="{&quot;index&quot;:null}" fill="url(#color-2)"/><path d="M219.52453,196.73155c-1.13318,-2.50582 -5.90735,-9.7316 -6.0803,-12.10159c-0.35884,-4.91726 7.17881,-7.8349 10.53305,-9.35175c4.97091,-2.24795 10.06417,5.60789 13.54849,13.3128c1.92806,4.26354 12.71655,13.92157 11.92929,17.35992c-0.63544,2.77529 -12.40077,-0.34271 -14.621,0.66132c-4.97091,2.24795 -11.82522,-2.17578 -15.30954,-9.88069z" data-paper-data="{&quot;index&quot;:null}" fill="url(#color-3)"/><path d="M225.89914,181.65046c-3.68225,-2.58816 -5.96793,-5.68132 -5.10521,-6.90873c0.86272,-1.22742 4.54715,-0.12431 8.2294,2.46386c3.68225,2.58816 7.90028,10.2267 7.03756,11.45412c-0.86272,1.22742 -6.47951,-4.42108 -10.16176,-7.00924z" data-paper-data="{&quot;index&quot;:null}" fill="url(#color-4)"/><path d="M222.34957,188.95647c-4.14748,-1.74816 -8.20766,-3.25183 -7.62492,-4.63431c0.58271,-1.38249 1.57586,-5.24497 5.72334,-3.49681c4.14748,1.74816 12.07237,12.34259 11.48964,13.72509c-0.58271,1.38249 -5.44058,-3.84581 -9.58805,-5.59398z" data-paper-data="{&quot;index&quot;:null}" fill="url(#color-5)"/><path d="M234.78961,179.68649c-3.38054,-2.97145 -5.31808,-6.29377 -4.3276,-7.42062c0.99048,-1.12685 4.5339,0.36848 7.91446,3.33994c3.38054,2.97145 6.74721,11.02157 5.75673,12.14843c-0.99048,1.12685 -5.96303,-5.0963 -9.34358,-8.06774z" data-paper-data="{&quot;index&quot;:null}" fill="url(#color-6)"/></g><path d="M245.07437,215.19514c1.16939,-3.92417 2.72596,-12.56283 3.24909,-15.38154c1.2362,-6.66113 -1.38228,-19.45199 -1.38228,-19.45199l15.54188,4.85491c0,0 -1.62888,11.62274 -2.72792,18.7631c-0.90611,5.88704 -5.09053,20.22185 -5.09053,20.22185l-14.41685,0.18621c0,0 2.97547,-2.9806 4.8266,-9.19253z" fill="#113a9e"/></g></g></g></svg>