<svg version="1.1" xmlns="http://www.w3.org/2000/svg" xmlns:xlink="http://www.w3.org/1999/xlink" width="51.88137" height="82.47298" viewBox="0,0,51.88137,82.47298"><defs><linearGradient x1="273.01291" y1="210.42922" x2="258.23078" y2="204.49682" gradientUnits="userSpaceOnUse" id="color-1"><stop offset="0" stop-color="#bd8946"/><stop offset="1" stop-color="#bd8946" stop-opacity="0"/></linearGradient><radialGradient cx="259.07104" cy="167.74877" r="21.97894" gradientUnits="userSpaceOnUse" id="color-2"><stop offset="0" stop-color="#fff082"/><stop offset="1" stop-color="#ffd183"/></radialGradient><linearGradient x1="264.02346" y1="169.0538" x2="249.64466" y2="155.50524" gradientUnits="userSpaceOnUse" id="color-3"><stop offset="0" stop-color="#c66a21" stop-opacity="0"/><stop offset="1" stop-color="#c66a21"/></linearGradient><linearGradient x1="271.3163" y1="156.85815" x2="266.01692" y2="155.66066" gradientUnits="userSpaceOnUse" id="color-4"><stop offset="0" stop-color="#6f3939"/><stop offset="1" stop-color="#ffd183"/></linearGradient><linearGradient x1="261.94076" y1="154.51609" x2="256.50797" y2="154.47" gradientUnits="userSpaceOnUse" id="color-5"><stop offset="0" stop-color="#6f3939"/><stop offset="1" stop-color="#ffd183"/></linearGradient><linearGradient x1="276.35526" y1="164.89862" x2="271.21659" y2="163.13468" gradientUnits="userSpaceOnUse" id="color-6"><stop offset="0" stop-color="#6f3939"/><stop offset="1" stop-color="#ffd183"/></linearGradient><linearGradient x1="273.01291" y1="210.42923" x2="258.23078" y2="204.49683" gradientUnits="userSpaceOnUse" id="color-7"><stop offset="0" stop-color="#bd8946"/><stop offset="1" stop-color="#bd8946" stop-opacity="0"/></linearGradient><radialGradient cx="259.07104" cy="167.74878" r="21.97894" gradientUnits="userSpaceOnUse" id="color-8"><stop offset="0" stop-color="#fff082"/><stop offset="1" stop-color="#ffd183"/></radialGradient><linearGradient x1="264.02346" y1="169.05381" x2="249.64466" y2="155.50525" gradientUnits="userSpaceOnUse" id="color-9"><stop offset="0" stop-color="#c66a21" stop-opacity="0"/><stop offset="1" stop-color="#c66a21"/></linearGradient><linearGradient x1="271.3163" y1="156.85816" x2="266.01692" y2="155.66067" gradientUnits="userSpaceOnUse" id="color-10"><stop offset="0" stop-color="#6f3939"/><stop offset="1" stop-color="#ffd183"/></linearGradient><linearGradient x1="261.94076" y1="154.5161" x2="256.50797" y2="154.47" gradientUnits="userSpaceOnUse" id="color-11"><stop offset="0" stop-color="#6f3939"/><stop offset="1" stop-color="#ffd183"/></linearGradient><linearGradient x1="276.35526" y1="164.89863" x2="271.21659" y2="163.13468" gradientUnits="userSpaceOnUse" id="color-12"><stop offset="0" stop-color="#6f3939"/><stop offset="1" stop-color="#ffd183"/></linearGradient></defs><g transform="translate(-231.32134,-144.79106)"><g data-paper-data="{&quot;isPaintingLayer&quot;:true}" fill-rule="nonzero" stroke="none" stroke-width="0" stroke-linecap="butt" stroke-linejoin="miter" stroke-miterlimit="10" stroke-dasharray="" stroke-dashoffset="0" style="mix-blend-mode: normal"><path d="M274.45385,185.78482l7.65519,21.01351c0,0 0.66682,7.11965 -3.55415,12.69445c-1.6897,2.23166 -4.83834,4.69455 -6.69889,5.75847c-5.72831,3.27561 -22.47804,1.56777 -22.47804,1.56777l-12.63128,-34.63346z" fill="#ffefda"/><path d="M264.67459,188.44038l10.40588,-2.33397c0,0 9.86634,26.69441 7.85067,31.717c-2.2536,5.61543 -16.36205,8.66228 -16.36205,8.66228c0,0 5.19006,-7.70828 7.54728,-14.10348c2.05198,-5.56708 1.43823,-9.91739 -0.0207,-10.13871c-1.48312,-0.22499 -3.3539,10.71518 -9.17546,15.7107c-6.68698,5.73815 -17.31843,5.65409 -17.31843,5.65409c0,0 9.17407,-4.02223 14.15926,-10.30837c3.71701,-4.687 3.47613,-11.81203 4.11713,-13.13241c3.02795,-6.2372 -1.2036,-11.72714 -1.2036,-11.72714z" fill="url(#color-1)"/><path d="M255.16497,187.29797c-12.05177,2.7606 -22.68799,2.68164 -23.75666,-0.17636c-1.06867,-2.858 7.83487,-7.41277 19.88663,-10.17338c12.05177,-2.7606 22.68799,-2.68164 23.75666,0.17636c1.06867,2.858 -7.83487,7.41277 -19.88663,10.17338z" data-paper-data="{&quot;index&quot;:null}" fill="#020713"/><g data-paper-data="{&quot;index&quot;:null}"><path d="M250.61601,157.3303c2.54329,-2.57913 3.87199,-8.14952 6.60805,-9.68231c6.43295,-3.60386 12.11903,0.05606 15.52578,3.41547c4.85571,4.78823 5.06742,21.59155 -3.45564,30.23473c-8.52304,8.64315 -20.79982,6.88865 -25.65554,2.10042c-3.5715,-3.52187 -8.97141,-25.86394 -4.88256,-33.16574c0.80967,-1.4459 4.6818,-2.87775 7.43884,-0.27873c2.2493,2.12038 3.40829,8.4032 4.42105,7.37617z" data-paper-data="{&quot;index&quot;:null}" fill="url(#color-2)"/><path d="M249.64466,155.50524c1.886,-2.00156 6.7511,-9.16643 8.87693,-10.22833c4.41067,-2.20323 9.9774,3.65683 12.65665,6.18139c3.9706,3.74133 -1.35572,11.44107 -7.15478,17.59549c-3.20894,3.40557 -8.03436,17.05784 -11.51359,17.63837c-2.80828,0.46858 -10.12804,-10.29678 -11.90149,-11.96783c-1.91591,-1.80528 5.56563,-2.60201 6.93927,-8.50919c0.19918,-0.85654 -1.51352,-6.66135 -1.53074,-7.51336c-0.0304,-1.50447 -1.06282,-5.23622 -2.94763,-6.76279c-2.31885,-1.87811 -6.04739,1.63522 -5.39674,0.62978c0.26262,-0.40582 2.08222,-2.6209 4.19848,-3.28482c1.08478,-0.34032 2.63126,-0.0812 3.28846,0.63936c1.65469,1.8142 4.02601,6.06919 4.48516,5.58191z" data-paper-data="{&quot;index&quot;:null}" fill="url(#color-3)"/><path d="M266.01692,155.66066c0.99203,-4.39015 2.98255,-7.68101 4.44593,-7.35034c1.46339,0.33067 1.84549,4.15767 0.85345,8.54782c-0.99203,4.39015 -6.45049,11.19781 -7.91387,10.86714c-1.46339,-0.33067 1.62245,-7.67448 2.61448,-12.06463z" data-paper-data="{&quot;index&quot;:null}" fill="url(#color-4)"/><path d="M257.90981,155.15869c0.03818,-4.50069 -0.11651,-8.8276 1.38372,-8.81485c1.50022,0.01272 5.45002,-0.53883 5.41184,3.96186c-0.03818,4.50069 -6.81936,15.86121 -8.3196,15.84848c-1.50022,-0.01272 1.48586,-6.4948 1.52405,-10.99548z" data-paper-data="{&quot;index&quot;:null}" fill="url(#color-5)"/><path d="M271.21659,163.13468c1.4613,-4.25702 3.79623,-7.31315 5.21524,-6.82605c1.41901,0.48709 1.38474,4.33296 -0.07656,8.59c-1.4613,4.25702 -7.62437,10.43402 -9.04339,9.94693c-1.41901,-0.48709 2.44342,-7.45384 3.9047,-11.71086z" data-paper-data="{&quot;index&quot;:null}" fill="url(#color-6)"/></g><path d="M242.29411,186.15924c4.07392,-0.41205 12.65491,-2.26028 15.4606,-2.84924c6.63035,-1.39189 17.46216,-8.68122 17.46216,-8.68122l1.42528,16.22001c0,0 -11.36804,2.91702 -18.38935,4.61813c-5.78888,1.40254 -20.63748,2.98848 -20.63748,2.98848l-5.6589,-13.26111c0,0 3.8887,1.61722 10.33768,0.96494z" fill="#113a9e"/><path d="M274.45385,185.78483l7.65519,21.01351c0,0 0.66682,7.11965 -3.55415,12.69445c-1.6897,2.23166 -4.83834,4.69455 -6.69889,5.75847c-5.72831,3.27561 -22.47804,1.56777 -22.47804,1.56777l-12.63128,-34.63346z" fill="#ffefda"/><path d="M264.67459,188.44039l10.40588,-2.33397c0,0 9.86634,26.69441 7.85067,31.717c-2.2536,5.61543 -16.36205,8.66228 -16.36205,8.66228c0,0 5.19006,-7.70828 7.54728,-14.10348c2.05198,-5.56708 1.43823,-9.91739 -0.0207,-10.13871c-1.48312,-0.22499 -3.3539,10.71518 -9.17546,15.7107c-6.68698,5.73815 -17.31843,5.65409 -17.31843,5.65409c0,0 9.17407,-4.02223 14.15926,-10.30837c3.71701,-4.687 3.47613,-11.81203 4.11713,-13.13241c3.02795,-6.2372 -1.2036,-11.72714 -1.2036,-11.72714z" fill="url(#color-7)"/><path d="M255.16497,187.29798c-12.05177,2.7606 -22.68799,2.68164 -23.75666,-0.17636c-1.06867,-2.858 7.83487,-7.41277 19.88663,-10.17338c12.05177,-2.7606 22.68799,-2.68164 23.75666,0.17636c1.06867,2.858 -7.83487,7.41277 -19.88663,10.17338z" data-paper-data="{&quot;index&quot;:null}" fill="#020713"/><g data-paper-data="{&quot;index&quot;:null}"><path d="M250.61601,157.33031c2.54329,-2.57913 3.87199,-8.14952 6.60805,-9.68231c6.43295,-3.60386 12.11903,0.05606 15.52578,3.41547c4.85571,4.78823 5.06742,21.59155 -3.45564,30.23473c-8.52304,8.64315 -20.79982,6.88865 -25.65554,2.10042c-3.5715,-3.52187 -8.97141,-25.86394 -4.88256,-33.16574c0.80967,-1.4459 4.6818,-2.87775 7.43884,-0.27873c2.2493,2.12038 3.40829,8.4032 4.42105,7.37617z" data-paper-data="{&quot;index&quot;:null}" fill="url(#color-8)"/><path d="M249.64466,155.50525c1.886,-2.00156 6.7511,-9.16643 8.87693,-10.22833c4.41067,-2.20323 9.9774,3.65683 12.65665,6.18139c3.9706,3.74133 -1.35572,11.44107 -7.15478,17.59549c-3.20894,3.40557 -8.03436,17.05784 -11.51359,17.63837c-2.80828,0.46858 -10.12804,-10.29678 -11.90149,-11.96783c-1.91591,-1.80528 5.56563,-2.60201 6.93927,-8.50919c0.19918,-0.85654 -1.51352,-6.66135 -1.53074,-7.51336c-0.0304,-1.50447 -1.06282,-5.23622 -2.94763,-6.76279c-2.31885,-1.87811 -6.04739,1.63522 -5.39674,0.62978c0.26262,-0.40582 2.08222,-2.6209 4.19848,-3.28482c1.08478,-0.34032 2.63126,-0.0812 3.28846,0.63936c1.65469,1.8142 4.02601,6.06919 4.48516,5.58191z" data-paper-data="{&quot;index&quot;:null}" fill="url(#color-9)"/><path d="M266.01692,155.66067c0.99203,-4.39015 2.98255,-7.68101 4.44593,-7.35034c1.46339,0.33067 1.84549,4.15767 0.85345,8.54782c-0.99203,4.39015 -6.45049,11.19781 -7.91387,10.86714c-1.46339,-0.33067 1.62245,-7.67448 2.61448,-12.06463z" data-paper-data="{&quot;index&quot;:null}" fill="url(#color-10)"/><path d="M257.90981,155.1587c0.03818,-4.50069 -0.11651,-8.8276 1.38372,-8.81485c1.50022,0.01272 5.45002,-0.53883 5.41184,3.96186c-0.03818,4.50069 -6.81936,15.86121 -8.3196,15.84848c-1.50022,-0.01272 1.48586,-6.4948 1.52405,-10.99548z" data-paper-data="{&quot;index&quot;:null}" fill="url(#color-11)"/><path d="M271.21659,163.13468c1.4613,-4.25702 3.79623,-7.31315 5.21524,-6.82605c1.41901,0.48709 1.38474,4.33296 -0.07656,8.59c-1.4613,4.25702 -7.62437,10.43402 -9.04339,9.94693c-1.41901,-0.48709 2.44342,-7.45384 3.9047,-11.71086z" data-paper-data="{&quot;index&quot;:null}" fill="url(#color-12)"/></g><path d="M242.29411,186.15925c4.07392,-0.41205 12.65491,-2.26028 15.4606,-2.84924c6.63035,-1.39189 17.46216,-8.68122 17.46216,-8.68122l1.42528,16.22001c0,0 -11.36804,2.91702 -18.38935,4.61813c-5.78888,1.40254 -20.63748,2.98848 -20.63748,2.98848l-5.6589,-13.26111c0,0 3.8887,1.61722 10.33768,0.96494z" fill="#113a9e"/></g></g></svg>