<svg version="1.1" xmlns="http://www.w3.org/2000/svg" xmlns:xlink="http://www.w3.org/1999/xlink" width="238.42599" height="91.33408" viewBox="0,0,238.42599,91.33408"><defs><radialGradient cx="-19.01478" cy="137.51803" r="37" gradientUnits="userSpaceOnUse" id="color-1"><stop offset="0" stop-color="#ffffff"/><stop offset="1" stop-color="#594384"/></radialGradient><radialGradient cx="82.30261" cy="219.91176" r="43" gradientUnits="userSpaceOnUse" id="color-2"><stop offset="0" stop-color="#ffffff"/><stop offset="1" stop-color="#594384"/></radialGradient><radialGradient cx="163.741" cy="189.54254" r="26.5" gradientUnits="userSpaceOnUse" id="color-3"><stop offset="0" stop-color="#ffffff"/><stop offset="1" stop-color="#594384"/></radialGradient></defs><g transform="translate(-30.58798,-142.57632)"><g data-paper-data="{&quot;isPaintingLayer&quot;:true}" fill-rule="nonzero" stroke-linecap="butt" stroke-linejoin="miter" stroke-miterlimit="10" stroke-dasharray="" stroke-dashoffset="0" style="mix-blend-mode: normal"><g data-paper-data="{&quot;index&quot;:null}" stroke="#003737" stroke-width="0.5"><path d="M242.05237,194.44623c0.05554,-0.99382 2.19486,-2.38254 4.86557,-3.37918c2.14527,-0.80054 2.74811,-3.45662 4.77458,-3.34336c1.534,0.08573 5.60582,2.29962 8.52532,1.84562c5.73866,-0.89241 8.6114,-1.18504 8.54501,0.00279c-0.05075,0.90814 -6.40489,3.06076 -12.92505,6.07807c-6.34688,2.93713 -11.88869,0.6548 -14.13269,0.5294c-4.54925,-0.25425 0.24711,0.05881 0.34727,-1.73331z" fill="#463d3a"/><path d="M192.90337,184.45657c0.29394,-3.71632 14.16797,-11.55874 24.07814,-10.77492c2.5751,0.20367 1.99575,1.69317 5.38027,3.25778c2.11779,0.97901 4.12839,3.80579 9.71258,5.72195c3.59185,1.2325 10.88906,1.93038 13.25283,2.04151c6.29956,0.29617 6.62346,6.17898 6.48443,7.93672c-0.29394,3.71632 -20.02732,-0.53126 -29.93749,-1.31509c-9.91018,-0.78382 -29.26469,-3.15164 -28.97077,-6.86795z" fill="#ffddd1"/></g><path d="M30.90311,166.42224c1.34468,4.29439 -1.15681,-3.69444 0.00002,0.00001z" fill="url(#color-1)" stroke="none" stroke-width="0"/><path d="M181.09884,167.33591c-0.40588,-2.65385 5.15567,-12.55791 8.93248,-15.01367c4.3811,-2.84866 7.55833,1.86941 15.18123,0.70354c14.19435,-2.17094 26.41186,0.71615 27.28859,6.44849c0.87672,5.73234 -1.36586,11.84262 -14.72288,12.87387c-2.43232,0.18779 -5.27173,3.61291 -9.07145,7.60206c-3.40859,3.57854 -17.14233,9.31897 -19.62996,10.58813c-7.79685,3.97789 -13.50408,-2.31635 -15.91107,-4.46856c-0.49348,-0.44125 -1.1476,-1.74146 0.934,-6.07398c2.17,-4.51654 7.08861,-12.07469 6.9991,-12.65992z" data-paper-data="{&quot;index&quot;:null}" fill="#ffddd1" stroke="#003737" stroke-width="0.5"/><path d="M194.66179,176.64237c-0.27762,-1.81505 -3.43713,-9.02596 -2.73286,-12.35738c0.7256,-3.43231 0.04298,-4.68181 3.09042,-5.1479c6.0053,-0.91847 10.03379,6.07494 10.5974,9.76001c0.42822,2.79989 -2.28299,7.18515 -6.11572,8.78455c-1.21173,0.50566 -2.2948,-0.66973 -3.73734,-0.4491c-1.22348,0.18711 -3.52897,8.14701 -4.29979,8.26497c-3.01264,0.46102 3.64668,-5.92088 3.1979,-8.85518z" data-paper-data="{&quot;index&quot;:null}" fill="#c9927d" stroke="#003737" stroke-width="0"/><path d="M188.22046,192.17606c0,0 -89.59277,32.37197 -104.0245,34.87372c-5.07602,0.87994 -23.37544,-3.36484 -23.37544,-3.36484c0,0 -8.09984,-7.13331 -8.69047,-11.10243c-0.55478,-3.72834 5.24749,-12.03522 5.24749,-12.03522c0,0 18.4908,-9.13904 28.30014,-10.8395c9.07495,-1.57315 26.88514,-2.9884 41.59873,-3.97008c2.61571,-0.17452 9.20677,-2.52482 11.56028,-2.67038c2.58619,-0.15996 5.19543,-0.62386 7.61697,-1.21125c6.32935,-1.53531 11.37614,-3.91427 11.37614,-3.91427c0,0 18.93325,-11.68656 21.95724,-11.04617c7.79703,1.65123 5.62716,7.61337 5.62716,7.61337z" fill="#412a6a" stroke="none" stroke-width="0"/><path d="M75.47736,218.27895c5.40928,-17.11476 37.75287,-31.59133 43.01894,-29.92693c3.51733,1.11169 -14.77245,6.83343 -25.92037,19.34475c-5.54254,6.22041 -13.02369,12.15308 -13.18571,18.11144c-0.59231,21.78349 -15.32734,-7.07165 -20.59343,-8.73604c-5.26609,-1.66439 11.27129,18.32157 16.68057,1.20681z" fill="url(#color-2)" stroke="none" stroke-width="0"/><path d="M135.91597,190.97663c4.73909,-6.1174 17.44164,-0.64251 27.41214,-5.1047c8.88678,-3.97721 21.92968,-19.36697 23.26708,-18.3309c2.83789,2.19849 -8.75266,14.41232 -17.71572,25.98223c-8.96306,11.5699 -35.29259,19.11265 -38.1305,16.91417c-1.59691,-1.23709 26.92059,-12.91821 34.22941,-18.29213c5.67988,-4.17621 -32.9819,3.89081 -29.06242,-1.16864z" fill="url(#color-3)" stroke="none" stroke-width="0"/><g data-paper-data="{&quot;index&quot;:null}" stroke="#003737" stroke-width="0.5"><path d="M221.81621,156.3141c-3.66955,-4.12749 -9.33743,-10.14976 -6.96411,-12.25975c2.37333,-2.11001 11.22002,4.4665 14.88957,8.59402c1.95972,2.20429 10.28135,9.51766 10.62461,11.66157c0.16093,1.00511 -18.60071,18.9266 -20.73395,18.43364c-0.78045,-0.18036 -2.9039,-1.0198 -0.12687,-4.95519c3.75855,-5.32632 12.87747,-14.10763 12.58325,-13.84606c-2.37331,2.11 -6.60294,-3.50073 -10.27248,-7.62824z" fill="#e6a892"/><path d="M217.317,182.89811c-0.57185,-1.55504 1.27567,-3.66556 4.12656,-4.71397c2.85088,-1.04841 5.82539,-4.44034 6.39726,-2.88532c0.57187,1.55505 -11.1092,13.14194 -13.96009,14.19035c-2.85092,1.0484 4.00813,-5.03603 3.43626,-6.59106z" fill="#463d3a"/></g><g data-paper-data="{&quot;index&quot;:null}" stroke="#003737" stroke-width="0.5"><path d="M211.57802,156.85936c-3.85118,-4.42051 -9.78682,-10.87349 -7.46966,-13.09001c1.38491,-1.32476 6.39526,-1.53466 10.07512,1.22794c2.47713,1.85967 3.70582,6.27144 5.25526,8.04993c2.05674,2.36078 10.71595,10.21184 11.14005,12.49204c0.19884,1.06902 -18.07371,19.90963 -20.2433,19.36442c-0.79374,-0.19945 -2.96603,-1.11249 -0.30799,-5.26338c3.59749,-5.61799 12.47613,-14.85042 12.18886,-14.57565c-2.31717,2.21652 -6.78718,-3.78478 -10.63836,-8.20529z" fill="#f4b7a2"/><path d="M211.99673,180.0803c2.83742,-1.08434 5.71438,-4.65611 6.34767,-2.99893c0.63329,1.65718 -10.72766,13.84288 -13.56509,14.92721c-2.83743,1.08434 3.85977,-5.30716 3.22648,-6.96434c-0.63329,-1.65717 1.15351,-3.87961 3.99094,-4.96394z" fill="#463d3a"/></g><g data-paper-data="{&quot;index&quot;:null}" stroke="#003737" stroke-width="0.5"><path d="M202.96287,160.06021c-3.76559,-3.86079 -9.57543,-9.49132 -7.22644,-11.49978c1.67562,-1.4327 5.04061,-6.55817 9.17579,-3.48706c1.66178,1.23417 4.87653,10.3596 5.95599,11.46634c2.01103,2.06186 10.51343,8.88771 10.89747,10.9059c0.18003,0.94617 -18.36671,17.99392 -20.52131,17.54671c-0.78825,-0.16361 -2.93925,-0.93751 -0.21724,-4.67004c3.6841,-5.05176 12.69729,-13.40435 12.4061,-13.15536c-2.34898,2.00847 -6.70474,-3.2459 -10.47033,-7.10669z" fill="#ffc6b3"/><path d="M202.98372,180.67946c2.84854,-1.01167 5.77902,-4.23351 6.38234,-2.77232c0.60332,1.46119 -10.93619,12.4795 -13.78473,13.49117c-2.84854,1.01167 3.94037,-4.78015 3.33705,-6.24134c-0.60332,-1.46119 1.2168,-3.46586 4.06534,-4.47752z" fill="#463d3a"/></g><g data-paper-data="{&quot;index&quot;:null}" stroke="#003737" stroke-width="0.5"><path d="M197.35598,162.7556c-2.95842,-3.39573 -9.94857,-11.0159 -8.16859,-12.71858c0.64983,-0.62161 6.0708,-3.44362 7.66791,-2.60928c2.77754,1.45104 4.77704,7.6966 6.65538,9.85262c1.57993,1.81351 8.11543,10.39136 8.44122,12.14295c0.15273,0.82118 -13.88379,15.2941 -15.55043,14.87528c-0.60973,-0.15321 -2.27843,-0.8546 -0.2366,-4.0432c1.27513,-1.9913 -0.38882,-2.9805 1.52354,-5.16387c2.23215,-2.54847 7.95852,-6.14646 7.83967,-6.03277c-1.77997,1.70267 -5.21374,-2.90738 -8.17212,-6.30312z" fill="#ffd0c1"/><path d="M194.61184,184.40659c-0.48649,-1.27301 0.8861,-2.98024 3.06574,-3.8132c2.17964,-0.83296 4.38965,-3.5767 4.87614,-2.3037c0.48651,1.273 -8.24073,10.63377 -10.42038,11.46673c-2.17965,0.83297 2.96498,-4.07684 2.47849,-5.34984z" fill="#463d3a"/></g></g></g></svg>