<svg version="1.1" xmlns="http://www.w3.org/2000/svg" xmlns:xlink="http://www.w3.org/1999/xlink" width="228.41618" height="90.89816" viewBox="0,0,228.41618,90.89816"><defs><radialGradient cx="31.10596" cy="181.78545" r="37" gradientUnits="userSpaceOnUse" id="color-1"><stop offset="0" stop-color="#ffffff"/><stop offset="1" stop-color="#594384"/></radialGradient><radialGradient cx="132.14957" cy="264.5147" r="43" gradientUnits="userSpaceOnUse" id="color-2"><stop offset="0" stop-color="#ffffff"/><stop offset="1" stop-color="#594384"/></radialGradient><radialGradient cx="213.68822" cy="234.4157" r="26.5" gradientUnits="userSpaceOnUse" id="color-3"><stop offset="0" stop-color="#ffffff"/><stop offset="1" stop-color="#594384"/></radialGradient></defs><g transform="translate(-80.61594,-187.59503)"><g data-paper-data="{&quot;isPaintingLayer&quot;:true}" fill-rule="nonzero" stroke-linecap="butt" stroke-linejoin="miter" stroke-miterlimit="10" stroke-dasharray="" stroke-dashoffset="0" style="mix-blend-mode: normal"><g data-paper-data="{&quot;index&quot;:null}" stroke="#003737" stroke-width="0.5"><path d="M285.4622,227.53725c-0.29548,-0.9505 1.22319,-2.99962 3.3768,-4.86722c1.72991,-1.50015 1.36594,-4.19935 3.30408,-4.80184c1.46714,-0.45608 6.05605,0.19424 8.63249,-1.25197c5.06433,-2.84273 7.6534,-4.12141 8.00655,-2.98535c0.27001,0.86856 -4.93029,5.10716 -9.98377,10.21392c-4.91917,4.97105 -10.90921,4.77063 -13.0554,5.43781c-4.35097,1.35255 0.25207,-0.03131 -0.28075,-1.74532z" fill="#463d3a"/><path d="M235.92279,235.36435c-1.02412,-3.5845 9.23178,-15.78322 18.79041,-18.51421c2.48376,-0.70963 2.46182,0.88842 6.17978,1.17078c2.32643,0.17667 5.19856,2.12195 11.10026,1.9645c3.79607,-0.10128 10.87665,-1.9991 13.13006,-2.72154c6.00544,-1.92532 8.36596,3.47286 8.85034,5.16825c1.02412,3.5845 -18.94879,6.50531 -28.50743,9.23629c-9.55865,2.73099 -28.5193,7.28042 -29.54343,3.69594z" fill="#ffddd1"/></g><path d="M80.92773,210.85503c1.33043,4.29883 -1.14455,-3.69826 0.00002,0.00001z" fill="url(#color-1)" stroke="none" stroke-width="0"/><path d="M231.1196,212.26675c-0.39708,-2.65518 5.19728,-12.54074 8.98222,-14.98397c4.39052,-2.83412 7.55209,1.89446 15.17881,0.75388c14.20147,-2.12386 26.40934,0.80373 27.26706,6.53895c0.85771,5.73522 -1.40512,11.83803 -14.76549,12.82498c-2.43293,0.17972 -5.28368,3.59541 -9.09661,7.57194c-3.42044,3.56722 -17.17314,9.26207 -19.66496,10.52298c-7.81,3.95201 -13.49632,-2.36112 -15.89616,-4.5213c-0.49201,-0.44288 -1.14182,-1.74526 0.95414,-6.07085c2.18497,-4.50932 7.12861,-12.05112 7.04104,-12.63664z" data-paper-data="{&quot;index&quot;:null}" fill="#ffddd1" stroke="#003737" stroke-width="0.5"/><path d="M244.65162,221.61814c-0.2716,-1.81596 -3.40718,-9.03731 -2.69187,-12.36637c0.73698,-3.42988 0.0585,-4.68164 3.10747,-5.13762c6.00831,-0.89855 10.01359,6.10818 10.56498,9.7951c0.41893,2.80129 -2.3068,7.17754 -6.14482,8.76422c-1.2134,0.50164 -2.29257,-0.67734 -3.73583,-0.46149c-1.22409,0.18305 -3.55597,8.13526 -4.32717,8.25067c-3.01415,0.45103 3.66629,-5.90875 3.22725,-8.84453z" data-paper-data="{&quot;index&quot;:null}" fill="#c9927d" stroke="#003737" stroke-width="0"/><path d="M238.15881,237.13038c0,0 -89.69962,32.0747 -104.13957,34.52858c-5.07891,0.8631 -23.36415,-3.44234 -23.36415,-3.44234c0,0 -8.07614,-7.16013 -8.65361,-11.13119c-0.54241,-3.73016 5.28737,-12.01775 5.28737,-12.01775c0,0 18.521,-9.07767 28.33593,-10.7456c9.08012,-1.54305 26.8949,-2.89923 41.61167,-3.83211c2.61627,-0.16585 9.21509,-2.49428 11.56907,-2.63203c2.58671,-0.15138 5.19747,-0.60663 7.62094,-1.18598c6.33441,-1.51431 11.38906,-3.87652 11.38906,-3.87652c0,0 18.9719,-11.62371 21.99375,-10.9733c7.79151,1.67708 5.60188,7.63199 5.60188,7.63199z" fill="#412a6a" stroke="none" stroke-width="0"/><path d="M125.32977,262.85926c5.466,-17.09673 37.85742,-31.46597 43.11794,-29.78411c3.51362,1.12335 -14.79503,6.78441 -25.98438,19.25869c-5.56314,6.202 -13.06392,12.10983 -13.2457,18.06762c-0.66454,21.78141 -15.30381,-7.12244 -20.56435,-8.80428c-5.26054,-1.68184 11.21047,18.35885 16.67648,1.26212z" fill="url(#color-2)" stroke="none" stroke-width="0"/><path d="M185.85859,235.75751c4.75935,-6.10165 17.44367,-0.58467 27.42892,-5.01377c8.89992,-3.94772 21.99378,-19.29414 23.32774,-18.25364c2.83058,2.20789 -8.8004,14.38322 -17.80178,25.92334c-9.00138,11.54011 -35.35577,18.99551 -38.18638,16.78763c-1.5928,-1.24238 26.96328,-12.82887 34.28988,-18.17852c5.6937,-4.15735 -32.99462,3.78142 -29.05838,-1.26501z" fill="url(#color-3)" stroke="none" stroke-width="0"/><g data-paper-data="{&quot;index&quot;:null}" stroke="#003737" stroke-width="0.5"><path d="M271.8733,201.38002c-3.65584,-4.13964 -9.30372,-10.18067 -6.92342,-12.28278c2.38031,-2.10213 11.20515,4.50368 14.86099,8.64335c1.9524,2.21078 10.24973,9.5517 10.58588,11.69674c0.1576,1.00564 -18.66337,18.86481 -20.79496,18.36478c-0.77985,-0.18295 -2.9005,-1.02942 -0.11044,-4.95558c3.77619,-5.31383 12.92418,-14.06485 12.6291,-13.80426c-2.38029,2.10212 -6.5913,-3.52261 -10.24713,-7.66226z" fill="#e6a892"/><path d="M267.28596,227.94897c-0.56669,-1.55693 1.28782,-3.66131 4.14217,-4.70026c2.85434,-1.03895 5.84008,-4.421 6.40679,-2.86409c0.56671,1.55694 -11.15272,13.10503 -14.00707,14.14398c-2.85438,1.03894 4.02481,-5.02271 3.4581,-6.57963z" fill="#463d3a"/></g><g data-paper-data="{&quot;index&quot;:null}" stroke="#003737" stroke-width="0.5"><path d="M261.63336,201.89133c-3.8365,-4.43326 -9.75071,-10.90588 -7.42621,-13.11471c1.3893,-1.32016 6.40031,-1.51344 10.07099,1.26134c2.47095,1.86787 3.685,6.28369 5.22854,8.06731c2.0489,2.36759 10.68203,10.24732 11.09856,12.52891c0.19529,1.06967 -18.13963,19.84959 -20.3074,19.29719c-0.79307,-0.20208 -2.96232,-1.12232 -0.29053,-5.26437c3.6161,-5.60603 12.52531,-14.80897 12.23713,-14.53515c-2.32451,2.20882 -6.77459,-3.80727 -10.61109,-8.24052z" fill="#f4b7a2"/><path d="M261.97506,225.11353c2.841,-1.07492 5.72979,-4.63714 6.35758,-2.97786c0.62779,1.65927 -10.7735,13.80723 -13.61451,14.88215c-2.84101,1.07492 3.87735,-5.29433 3.24956,-6.9536c-0.62779,-1.65926 1.16637,-3.87576 4.00738,-4.95068z" fill="#463d3a"/></g><g data-paper-data="{&quot;index&quot;:null}" stroke="#003737" stroke-width="0.5"><path d="M253.00764,205.06359c-3.75277,-3.87326 -9.5439,-9.52302 -7.18827,-11.52368c1.68036,-1.42714 5.06233,-6.54142 9.1873,-3.45661c1.65768,1.23967 4.84215,10.37571 5.91793,11.48603c2.00418,2.06852 10.4839,8.92252 10.86125,10.94198c0.17689,0.94676 -18.42628,17.93292 -20.57938,17.47856c-0.7877,-0.16622 -2.93612,-0.94725 -0.20175,-4.67073c3.70083,-5.03952 12.74167,-13.36217 12.44966,-13.11415c-2.35563,2.00067 -6.69394,-3.26812 -10.44671,-7.14137z" fill="#ffc6b3"/><path d="M252.96011,225.6828c2.85188,-1.00222 5.79303,-4.21432 6.3915,-2.75114c0.59847,1.46318 -10.97751,12.44317 -13.82939,13.44538c-2.85188,1.00222 3.9562,-4.76706 3.35773,-6.23024c-0.59847,-1.46318 1.22829,-3.46181 4.08017,-4.46401z" fill="#463d3a"/></g><g data-paper-data="{&quot;index&quot;:null}" stroke="#003737" stroke-width="0.5"><path d="M247.39184,207.74038c-2.94714,-3.40552 -9.91199,-11.04883 -8.12637,-12.7456c0.65189,-0.61945 6.08219,-3.42347 7.67652,-2.58384c2.77271,1.46024 4.75149,7.7124 6.62267,9.87464c1.57391,1.81874 8.08093,10.41821 8.40091,12.17087c0.15001,0.82168 -13.93443,15.24798 -15.59967,14.82363c-0.60922,-0.15523 -2.27558,-0.86215 -0.22319,-4.04396c1.28173,-1.98706 -0.37893,-2.98177 1.54066,-5.15879c2.24059,-2.54105 7.97886,-6.12004 7.85963,-6.00674c-1.78561,1.69676 -5.20407,-2.92465 -8.15117,-6.33018z" fill="#ffd0c1"/><path d="M244.57592,229.38215c-0.48227,-1.27462 0.89598,-2.97729 3.07837,-3.80301c2.18239,-0.82573 4.40149,-3.56212 4.88375,-2.28752c0.48229,1.27461 -8.27595,10.60638 -10.45835,11.43211c-2.1824,0.82574 2.97848,-4.06699 2.49622,-5.34159z" fill="#463d3a"/></g></g></g></svg>