<svg version="1.1" xmlns="http://www.w3.org/2000/svg" xmlns:xlink="http://www.w3.org/1999/xlink" width="155.27757" height="155.5833" viewBox="0,0,155.27757,155.5833"><defs><radialGradient cx="396.57714" cy="240.79125" r="42.0524" gradientUnits="userSpaceOnUse" id="color-1"><stop offset="0" stop-color="#ffffff"/><stop offset="1" stop-color="#594384"/></radialGradient><radialGradient cx="342.51783" cy="174.82366" r="25.916" gradientUnits="userSpaceOnUse" id="color-2"><stop offset="0" stop-color="#ffffff"/><stop offset="1" stop-color="#594384"/></radialGradient></defs><g transform="translate(-253.1809,-114.94243)"><g data-paper-data="{&quot;isPaintingLayer&quot;:true}" fill-rule="nonzero" stroke-linecap="butt" stroke-linejoin="miter" stroke-miterlimit="10" stroke-dasharray="" stroke-dashoffset="0" style="mix-blend-mode: normal"><path d="M275.86458,145.67065c-0.56717,1.66122 3.89534,3.13838 -0.3216,1.69864c-2.08007,-0.71019 -7.94129,-0.67602 -12.61598,-5.6685c-4.80233,-5.12878 -9.77161,-9.41284 -9.48421,-10.25463c0.37594,-1.10106 2.87243,0.21887 7.74651,3.13467c2.47965,1.48339 6.98327,0.97156 8.40523,1.45705c1.87844,0.64134 1.44972,3.27021 3.10037,4.78345c2.05491,1.88391 3.48421,3.92812 3.16969,4.84934z" fill="#463d3a" stroke="#003737" stroke-width="0.5"/><path d="M319.90223,161.8043c-1.51214,3.31738 -19.18627,-3.84198 -28.03263,-7.87432c-8.84638,-4.03233 -27.73647,-9.76406 -26.22433,-13.08144c0.71522,-1.56906 3.7837,-6.44591 9.31115,-3.7099c2.07407,1.02664 8.64525,3.89255 12.30158,4.54301c5.68446,1.01128 8.74514,-0.4519 11.02067,-0.28413c3.63661,0.2681 3.84801,-1.28053 6.14669,-0.23274c8.84638,4.03233 16.98901,17.32214 15.47687,20.63954z" fill="#ffddd1" stroke="#003737" stroke-width="0.5"/><path d="M330.8024,142.01066c-0.15004,0.5592 3.81664,8.43568 5.43938,13.05957c1.5566,4.43551 0.78072,5.62887 0.25353,6.00459c-2.57147,1.83267 -8.79705,7.33591 -15.94714,2.6294c-2.28128,-1.50163 -15.01218,-8.56091 -17.93987,-12.4065c-3.26361,-4.28684 -5.65458,-7.92199 -7.99857,-8.36654c-12.87209,-2.44133 -14.39365,-8.62219 -12.92392,-14.09962c1.46973,-5.47744 13.6563,-6.96755 27.21951,-3.32822c7.28394,1.95445 10.88052,-2.2893 14.83212,0.95161c3.40655,2.79389 7.74548,13.01988 7.06506,15.55573z" fill="#ffddd1" stroke="#003737" stroke-width="0.5"/><path d="M316.61655,149.59553c-0.75232,2.80382 5.0331,9.72449 2.15445,8.95183c-0.73654,-0.19771 -2.11999,-8.18318 -3.28907,-8.49686c-1.37838,-0.36987 -2.55777,0.65596 -3.6811,0.0339c-3.55314,-1.96754 -5.71607,-6.52214 -4.99818,-9.19753c0.94483,-3.52121 5.61394,-9.8849 11.35222,-8.34519c2.91193,0.78135 2.11381,1.92233 2.44934,5.33675c0.32568,3.31404 -3.52224,9.98276 -3.98763,11.71709z" fill="#c9927d" stroke="#003737" stroke-width="0"/><path d="M336.84498,151.42334c0,0 59.42572,71.74839 66.50146,84.20295c2.48872,4.3806 4.63459,22.62615 4.63459,22.62615c0,0 -3.88602,9.8139 -7.3436,11.67026c-3.24782,1.74373 -12.81202,-0.84883 -12.81202,-0.84883c0,0 -14.52679,-13.99502 -19.33619,-22.46046c-4.44935,-7.83168 -11.64255,-23.75492 -17.41252,-36.97167c-1.02576,-2.34962 -5.36882,-7.63823 -6.28119,-9.75611c-1.00259,-2.32726 -2.29254,-4.5752 -3.63407,-6.60955c-3.50642,-5.31732 -7.36508,-9.17522 -7.36508,-9.17522c0,0 -17.0177,-13.55961 -17.42851,-16.55451c-1.05916,-7.72202 5.14569,-7.69698 5.14569,-7.69698z" fill="#412a6a" stroke="none" stroke-width="0"/><path d="M397.2209,247.62419c-17.5492,0.3972 -41.16099,-24.9687 -41.28318,-30.36846c-0.08163,-3.60661 10.98933,11.51556 26.08959,17.88351c7.50759,3.16605 14.03559,6.15105 19.60174,4.41969c5.17798,-1.61065 4.85373,5.06163 5.60458,6.4516c1.06339,1.96846 1.97562,10.57383 0.3014,13.80743c-1.78969,3.45664 -6.21135,1.54663 -6.16428,3.62661c0.12222,5.39977 13.39934,-16.21759 -4.14986,-15.82039z" fill="url(#color-1)" stroke="none" stroke-width="0"/><path d="M353.04075,199.9577c-7.19751,-2.33822 -6.36013,-15.83965 -13.76455,-23.53998c-6.59965,-6.86335 -25.0773,-13.77706 -24.56611,-15.35058c1.08472,-3.33896 16.15908,3.28852 29.7718,7.71082c13.61269,4.4223 29.26301,26.15953 28.17829,29.49849c-0.61037,1.87885 -20.79302,-20.50329 -28.15621,-25.45243c-5.72211,-3.84611 14.48957,29.06753 8.53681,27.1337z" fill="url(#color-2)" stroke="none" stroke-width="0"/><g stroke="#003737" stroke-width="0.5"><path d="M292.41208,126.91092c-4.0115,3.61668 -8.72718,8.6147 -10.80674,6.3081c-0.25782,-0.28595 7.65988,9.23195 10.73944,14.81409c2.27534,4.1244 0.1209,4.7116 -0.65711,4.80282c-2.12665,0.24935 -18.43249,-19.19171 -18.16779,-20.15135c0.56463,-2.04694 9.4412,-8.2591 11.58354,-10.19059c4.0115,-3.61668 13.31904,-9.05605 15.39865,-6.74943c2.07959,2.30662 -4.07843,7.54975 -8.08991,11.16637z" fill="#e6a892"/><path d="M293.92148,153.23558c-0.72338,1.44992 5.28823,8.10296 2.63004,6.77676c-2.65817,-1.32619 -12.76404,-13.84717 -12.04066,-15.29708c0.72338,-1.44992 3.24923,2.16753 5.90737,3.49373c2.65817,1.32619 4.22661,3.57667 3.50322,5.02658z" fill="#463d3a"/></g><g stroke="#003737" stroke-width="0.5"><path d="M302.30498,128.54389c-4.21963,3.88188 -9.21103,9.23367 -11.22454,6.82958c-0.24961,-0.29803 7.38591,9.63248 10.27749,15.48078c2.13647,4.32105 -0.07338,4.97452 -0.86639,5.08289c-2.16759,0.29623 -17.89905,-19.98554 -17.59058,-21.00322c0.65789,-2.1707 9.92052,-8.86915 12.174,-10.9423c1.69767,-1.56177 3.36727,-5.71772 5.97537,-7.25846c3.87447,-2.28885 8.72197,-1.54507 9.92542,-0.10819c2.01352,2.40411 -4.45114,8.03705 -8.67076,11.91893z" fill="#f4b7a2"/><path d="M302.74089,156.32474c-0.7941,1.54259 5.02711,8.47665 2.3859,7.117c-2.6412,-1.35966 -12.37144,-14.4282 -11.57734,-15.97077c0.7941,-1.54259 3.20575,2.23916 5.84692,3.59883c2.6412,1.35966 4.13858,3.71238 3.34448,5.25495z" fill="#463d3a"/></g><g stroke="#003737" stroke-width="0.5"><path d="M310.33413,132.58325c-4.0761,3.34707 -8.87601,7.98514 -10.94287,5.77984c-0.25621,-0.27339 7.60487,8.8164 10.64163,14.12364c2.24372,3.92129 0.06956,4.44182 -0.71424,4.51593c-2.14247,0.20258 -18.33357,-18.36605 -18.05665,-19.26634c0.59071,-1.92033 9.59048,-7.63916 11.76736,-9.42668c1.16847,-0.95948 5.27633,-9.48316 7.02455,-10.50378c4.35029,-2.53967 7.06894,2.80486 8.5433,4.37796c2.06686,2.20529 -4.18694,7.05235 -8.26304,10.39941z" fill="#ffc6b3"/><path d="M311.5618,157.41329c-0.74385,1.3553 5.23112,7.71637 2.57128,6.42615c-2.65983,-1.29023 -12.68937,-13.24328 -11.94553,-14.59858c0.74385,-1.3553 3.24521,2.09206 5.90506,3.38228c2.65983,1.29023 4.21306,3.43484 3.46919,4.79015z" fill="#463d3a"/></g><g stroke="#003737" stroke-width="0.5"><path d="M315.49379,135.80725c-3.24141,2.98198 -7.0757,7.09309 -8.62242,5.2463c-0.10328,-0.1233 5.0752,3.99086 6.97033,6.7085c1.6236,2.32828 -0.10033,3.11054 0.9246,5.18348c1.64119,3.31933 -0.05637,3.82131 -0.66555,3.90456c-1.66509,0.22756 -13.74959,-15.35243 -13.51268,-16.13417c0.50536,-1.66746 7.78203,-9.30115 9.51311,-10.8937c2.05804,-1.89334 4.6744,-7.74868 7.53051,-8.85985c1.6423,-0.63893 6.60751,2.68809 7.17221,3.36232c1.54673,1.84678 -6.06871,8.50062 -9.31012,11.4826z" fill="#ffd0c1"/><path d="M315.82864,157.14785c-0.61,1.18497 3.86169,6.51157 1.83279,5.4671c-2.02892,-1.04446 -9.50345,-11.08341 -8.89344,-12.26837c0.61,-1.18497 2.4626,1.72006 4.49149,2.76453c2.02892,1.04446 3.17915,2.85176 2.56915,4.03672z" fill="#463d3a"/></g></g></g></svg>