<svg version="1.1" xmlns="http://www.w3.org/2000/svg" xmlns:xlink="http://www.w3.org/1999/xlink" width="163.98567" height="197.30233" viewBox="0,0,163.98567,197.30233"><defs><radialGradient cx="335.17215" cy="301.69461" r="43" gradientUnits="userSpaceOnUse" id="color-1"><stop offset="0" stop-color="#ffffff"/><stop offset="1" stop-color="#594384"/></radialGradient><radialGradient cx="266.87197" cy="247.466" r="26.5" gradientUnits="userSpaceOnUse" id="color-2"><stop offset="0" stop-color="#ffffff"/><stop offset="1" stop-color="#594384"/></radialGradient></defs><g transform="translate(-186.73711,-134.59762)"><g data-paper-data="{&quot;isPaintingLayer&quot;:true}" fill-rule="nonzero" stroke-linecap="butt" stroke-linejoin="miter" stroke-miterlimit="10" stroke-dasharray="" stroke-dashoffset="0" style="mix-blend-mode: normal"><g data-paper-data="{&quot;index&quot;:null}" stroke="#003737" stroke-width="0.5"><path d="M238.70998,182.62214c-0.75125,0.31404 -2.53728,-0.76452 -4.2245,-2.37415c-1.35527,-1.29297 -3.52532,-0.78813 -4.16564,-2.31998c-0.48471,-1.15959 -0.30944,-4.94689 -1.68615,-6.93342c-2.70612,-3.90477 -3.94735,-5.9145 -3.04944,-6.28983c0.68648,-0.28695 4.53985,3.62075 9.08888,7.34186c4.42815,3.62221 4.72746,8.51583 5.43651,10.21212c1.43745,3.43887 -0.04496,-0.20287 -1.39967,0.3634z" fill="#463d3a"/><path d="M254.33411,216.50444c-2.68409,1.44755 -14.23106,-4.60488 -18.09119,-11.76244c-1.00305,-1.85985 0.2776,-2.1229 -0.14955,-5.14299c-0.26729,-1.88976 0.78268,-4.52601 -0.37926,-9.21364c-0.74738,-3.01516 -3.50677,-8.33911 -4.4796,-10.01267c-2.59262,-4.46012 1.30593,-7.29383 2.57545,-7.97849c2.68408,-1.44755 8.52427,13.99734 12.38442,21.15489c3.86013,7.15756 10.82382,21.50778 8.13974,22.95533z" fill="#ffbca3"/></g><path d="M282.15803,254.78479c-2.21499,1.73419 -18.59071,6.06435 -24.72775,0.81064c-4.36332,-3.73529 -20.33394,-23.68994 -25.05447,-29.71925c-11.36,-14.50956 -12.17999,-27.97036 -8.39018,-30.93753c3.78981,-2.96717 10.29703,-7.7184 21.65702,6.79116c2.50019,3.19336 2.41581,-1.55647 5.2627,4.65378c3.25492,7.10031 10.95541,25.49276 13.11006,28.68962c4.52357,6.71166 20.14471,18.14406 18.14261,19.71157z" fill="#ffddd1" stroke="#003737" stroke-width="0"/><g><path d="M244.38667,202.9177c-1.69684,1.60817 -15.62086,-18.29214 -22.90489,-25.97784c-7.28403,-7.68569 -13.7743,-20.90874 -12.07746,-22.51691c1.69684,-1.60817 7.85511,5.75441 15.13914,13.44011c0.75294,0.79446 11.98544,14.79144 13.14728,16.01261c4.16409,4.37672 3.11427,1.36332 6.08663,7.29733c1.08939,2.17487 5.02462,9.24394 5.34022,10.69987c0.90734,4.18572 -4.06854,0.41704 -4.73092,1.04482z" fill="#ffd0c1" stroke="#003737" stroke-width="0.5"/><path d="M219.63853,161.94641c-0.52011,0.46341 -1.09432,1.1235 -3.5542,-0.87375c-1.91059,-1.55127 -5.62576,-5.53452 -7.06551,-7.1504c-3.29341,-3.69633 -10.85582,-10.53586 -9.93173,-11.35922c0.92409,-0.82336 10.55381,6.71603 13.84723,10.41235c3.29341,3.69633 7.62829,8.14767 6.70421,8.97103z" fill="#000000" stroke="none" stroke-width="0"/></g><g><path d="M235.02524,198.8903c-1.80569,1.71133 -16.62292,-19.46555 -24.3742,-27.64428c-7.75129,-8.17872 -14.6579,-22.25002 -12.85221,-23.96134c1.80569,-1.71133 8.359,6.12355 16.1103,14.30227c0.80124,0.84543 12.75429,15.7403 13.99066,17.0398c4.43121,4.65748 3.31404,1.45078 6.47708,7.76545c1.15928,2.31439 5.34694,9.83693 5.68278,11.38625c0.96553,4.45422 -4.32953,0.4438 -5.03442,1.11185z" fill="#ffd0c1" stroke="#003737" stroke-width="0.5"/><path d="M208.68954,155.29076c-0.55348,0.49314 -1.16452,1.19557 -3.7822,-0.92981c-2.03315,-1.65078 -5.98665,-5.88955 -7.51875,-7.60909c-3.50468,-3.93344 -11.5522,-11.21173 -10.56884,-12.0879c0.98336,-0.87618 11.23082,7.14685 14.73551,11.08029c3.50468,3.93344 8.11764,8.67033 7.13427,9.54651z" fill="#000000" stroke="none" stroke-width="0"/></g><g><path d="M233.91433,204.69574c-1.69685,1.60816 -15.62086,-18.29214 -22.90489,-25.97784c-7.28403,-7.68569 -13.77431,-20.90874 -12.07746,-22.51691c1.69685,-1.60816 7.85511,5.75441 15.13914,13.44011c0.75293,0.79446 11.98544,14.79144 13.14728,16.01261c4.16409,4.37672 3.11426,1.36333 6.08663,7.29734c1.08939,2.17487 5.02462,9.24394 5.34022,10.69987c0.90734,4.18572 -4.06854,0.41704 -4.73092,1.04482z" fill="#ffd0c1" stroke="#003737" stroke-width="0.5"/><path d="M209.1662,163.72444c-0.52011,0.46341 -1.09432,1.1235 -3.5542,-0.87376c-1.91059,-1.55127 -5.62576,-5.53452 -7.06551,-7.1504c-3.29341,-3.69633 -10.85582,-10.53586 -9.93173,-11.35922c0.92409,-0.82336 10.55382,6.71602 13.84723,10.41235c3.29341,3.69633 7.62829,8.14767 6.70421,8.97103z" fill="#000000" stroke="none" stroke-width="0"/></g><g><path d="M231.10039,210.69401c-1.54728,1.46642 -14.24397,-16.6798 -20.88596,-23.68804c-6.64198,-7.00824 -12.56018,-19.06577 -11.0129,-20.53218c1.54728,-1.46642 7.16273,5.2472 13.80472,12.25544c0.68657,0.72443 10.929,13.48767 11.98843,14.6012c3.79705,3.99094 2.83976,1.24316 5.55013,6.65412c0.99337,1.98317 4.58173,8.42914 4.86951,9.75674c0.82736,3.81677 -3.70992,0.38029 -4.31392,0.95273z" fill="#ffd0c1" stroke="#003737" stroke-width="0.5"/><path d="M208.53365,173.33409c-0.47427,0.42257 -0.99786,1.02446 -3.24091,-0.79674c-1.74218,-1.41453 -5.12989,-5.04668 -6.44272,-6.52014c-3.00312,-3.37052 -9.89894,-9.60719 -9.05631,-10.35797c0.84263,-0.75078 9.62356,6.12405 12.62668,9.49457c3.00312,3.37052 6.95591,7.42951 6.11328,8.18029z" fill="#000000" stroke="none" stroke-width="0"/></g><path d="M259.52555,234.20917c-2.76567,4.91339 -27.54567,-20.93403 -30.66148,-22.68786c-3.11581,-1.75384 2.16148,-6.88581 4.92716,-11.7992c1.79209,-3.18378 3.23212,-8.33727 5.71135,-9.01179c1.34686,-0.36644 3.84118,2.67351 4.93801,3.29091c3.11581,1.75384 17.85063,35.29455 15.08496,40.20796z" fill="#ffddd1" stroke="none" stroke-width="0"/><path d="M256.13912,225.30782c0,0 74.91412,58.84458 84.68044,69.76027c3.43508,3.83933 9.52773,21.60915 9.52773,21.60915c0,0 -1.75999,10.64866 -4.81371,13.25204c-2.86848,2.44543 -12.9877,1.92408 -12.9877,1.92408c0,0 -17.54607,-10.84285 -24.18429,-18.26232c-6.14126,-6.864 -16.77556,-21.22078 -25.40188,-33.18074c-1.53355,-2.12618 -7.01828,-6.47171 -8.38837,-8.39084c-1.50556,-2.10885 -3.28112,-4.07627 -5.06202,-5.81905c-4.65484,-4.55526 -9.3459,-7.57578 -9.3459,-7.57578c0,0 -19.94121,-9.86872 -20.99982,-12.77285c-2.72946,-7.48801 3.47694,-8.80565 3.47694,-8.80565z" fill="#412a6a" stroke="none" stroke-width="0"/><path d="M337.29405,308.38399c-17.4523,4.19438 -46.53821,-16.04637 -47.82878,-21.41631c-0.86199,-3.5867 13.47429,9.13041 29.94309,12.22687c8.18799,1.53951 17.12949,4.88821 22.31751,1.95346c18.96715,-10.72932 1.84824,16.77855 3.13881,22.14849c1.29058,5.36995 9.88168,-19.10693 -7.57062,-14.91252z" fill="url(#color-1)" stroke="none" stroke-width="0"/><path d="M282.82702,270.3073c-7.69898,-0.77931 -9.78366,-14.4535 -18.84972,-20.54681c-8.08067,-5.43099 -28.04283,-8.34203 -27.87247,-10.02519c0.36152,-3.5716 16.86059,-0.21015 31.42174,1.26374c14.56113,1.47391 34.90536,19.81103 34.54384,23.38264c-0.20343,2.00975 -25.21672,-15.99113 -33.64624,-19.34387c-6.55079,-2.60551 20.77038,25.91402 14.40288,25.2695z" fill="url(#color-2)" stroke="none" stroke-width="0"/></g></g></svg>