<svg version="1.1" xmlns="http://www.w3.org/2000/svg" xmlns:xlink="http://www.w3.org/1999/xlink" width="240.94975" height="261.38082" viewBox="0,0,240.94975,261.38082"><defs><radialGradient cx="241.76233" cy="218.49773" r="29.39743" gradientUnits="userSpaceOnUse" id="color-1"><stop offset="0" stop-color="#fff082"/><stop offset="1" stop-color="#ffd183"/></radialGradient><linearGradient x1="246.93086" y1="199.09149" x2="246.93086" y2="233.19251" gradientUnits="userSpaceOnUse" id="color-2"><stop offset="0" stop-color="#c48d2e"/><stop offset="1" stop-color="#c48d2e" stop-opacity="0"/></linearGradient><linearGradient x1="343.56519" y1="65.80082" x2="273.62125" y2="65.80082" gradientUnits="userSpaceOnUse" id="color-3"><stop offset="0" stop-color="#ffd183"/><stop offset="1" stop-color="#bf6e2c"/></linearGradient><linearGradient x1="339.56488" y1="69.1814" x2="272.98901" y2="69.1814" gradientUnits="userSpaceOnUse" id="color-4"><stop offset="0" stop-color="#ab4a00"/><stop offset="1" stop-color="#692900"/></linearGradient><radialGradient cx="301.73315" cy="77.82227" r="24.08299" gradientUnits="userSpaceOnUse" id="color-5"><stop offset="0" stop-color="#fff082"/><stop offset="1" stop-color="#ffd183"/></radialGradient><linearGradient x1="299.77651" y1="54.86767" x2="299.77651" y2="102.43669" gradientUnits="userSpaceOnUse" id="color-6"><stop offset="0" stop-color="#ffffff"/><stop offset="1" stop-color="#fffad8"/></linearGradient><linearGradient x1="113.54015" y1="74.91403" x2="184.77385" y2="74.91403" gradientUnits="userSpaceOnUse" id="color-7"><stop offset="0" stop-color="#ffd183"/><stop offset="1" stop-color="#bf6e2c"/></linearGradient><linearGradient x1="117.61423" y1="78.35694" x2="185.41775" y2="78.35694" gradientUnits="userSpaceOnUse" id="color-8"><stop offset="0" stop-color="#ab4a00"/><stop offset="1" stop-color="#692900"/></linearGradient><radialGradient cx="156.14357" cy="87.15715" r="24.52708" gradientUnits="userSpaceOnUse" id="color-9"><stop offset="0" stop-color="#fff082"/><stop offset="1" stop-color="#ffd183"/></radialGradient><linearGradient x1="158.13629" y1="63.77927" x2="158.13629" y2="112.22545" gradientUnits="userSpaceOnUse" id="color-10"><stop offset="0" stop-color="#ffffff"/><stop offset="1" stop-color="#fffad8"/></linearGradient><radialGradient cx="235.36397" cy="121.43808" r="86.14772" gradientUnits="userSpaceOnUse" id="color-11"><stop offset="0" stop-color="#fff082"/><stop offset="1" stop-color="#ffd183"/></radialGradient><linearGradient x1="236.44066" y1="82.20441" x2="236.44066" y2="140.41132" gradientUnits="userSpaceOnUse" id="color-12"><stop offset="0" stop-color="#d2a049" stop-opacity="0"/><stop offset="1" stop-color="#d2a049"/></linearGradient><linearGradient x1="324.5802" y1="142.29568" x2="264.60944" y2="142.29568" gradientUnits="userSpaceOnUse" id="color-13"><stop offset="0" stop-color="#c66a21" stop-opacity="0"/><stop offset="1" stop-color="#c66a21"/></linearGradient><linearGradient x1="152.45682" y1="141.76312" x2="212.42759" y2="141.76312" gradientUnits="userSpaceOnUse" id="color-14"><stop offset="0" stop-color="#c66a21" stop-opacity="0"/><stop offset="1" stop-color="#c66a21"/></linearGradient><linearGradient x1="222.02535" y1="146.56802" x2="222.02535" y2="156.68468" gradientUnits="userSpaceOnUse" id="color-15"><stop offset="0" stop-color="#d0d0d0" stop-opacity="0"/><stop offset="1" stop-color="#d0d0d0"/></linearGradient><linearGradient x1="260.90793" y1="145.84104" x2="260.90793" y2="154.08039" gradientUnits="userSpaceOnUse" id="color-16"><stop offset="0" stop-color="#d0d0d0" stop-opacity="0"/><stop offset="1" stop-color="#d0d0d0"/></linearGradient><radialGradient cx="199.14908" cy="123.15107" r="15.38316" gradientUnits="userSpaceOnUse" id="color-17"><stop offset="0" stop-color="#575757"/><stop offset="1" stop-color="#575757" stop-opacity="0"/></radialGradient><radialGradient cx="203.10873" cy="119.42474" r="5.91902" gradientUnits="userSpaceOnUse" id="color-18"><stop offset="0" stop-color="#ffffff"/><stop offset="1" stop-color="#ffffff" stop-opacity="0"/></radialGradient><radialGradient cx="276.60484" cy="122.23596" r="14.9168" gradientUnits="userSpaceOnUse" id="color-19"><stop offset="0" stop-color="#575757"/><stop offset="1" stop-color="#575757" stop-opacity="0"/></radialGradient><radialGradient cx="280.44444" cy="118.6226" r="5.73958" gradientUnits="userSpaceOnUse" id="color-20"><stop offset="0" stop-color="#ffffff"/><stop offset="1" stop-color="#ffffff" stop-opacity="0"/></radialGradient><linearGradient x1="204.88145" y1="169.71101" x2="204.88145" y2="207.31763" gradientUnits="userSpaceOnUse" id="color-21"><stop offset="0" stop-color="#d0d0d0" stop-opacity="0"/><stop offset="1" stop-color="#d0d0d0"/></linearGradient><linearGradient x1="275.50629" y1="166.49937" x2="278.7124" y2="203.96907" gradientUnits="userSpaceOnUse" id="color-22"><stop offset="0" stop-color="#d0d0d0" stop-opacity="0"/><stop offset="1" stop-color="#d0d0d0"/></linearGradient><linearGradient x1="242.82676" y1="180.25413" x2="242.82676" y2="208.76964" gradientUnits="userSpaceOnUse" id="color-23"><stop offset="0" stop-color="#acacac" stop-opacity="0"/><stop offset="1" stop-color="#acacac"/></linearGradient><linearGradient x1="191.17958" y1="73.10903" x2="197.43942" y2="86.07371" gradientUnits="userSpaceOnUse" id="color-24"><stop offset="0" stop-color="#6f5318" stop-opacity="0"/><stop offset="1" stop-color="#6f5318"/></linearGradient><linearGradient x1="271.05375" y1="71.56245" x2="267.01729" y2="84.19654" gradientUnits="userSpaceOnUse" id="color-25"><stop offset="0" stop-color="#6f5318" stop-opacity="0"/><stop offset="1" stop-color="#6f5318"/></linearGradient><radialGradient cx="164.63357" cy="152.66404" r="9.26946" gradientUnits="userSpaceOnUse" id="color-26"><stop offset="0" stop-color="#9b7522"/><stop offset="1" stop-color="#9b7522" stop-opacity="0"/></radialGradient><radialGradient cx="184.03587" cy="159.13148" r="11.62126" gradientUnits="userSpaceOnUse" id="color-27"><stop offset="0" stop-color="#9b7522"/><stop offset="1" stop-color="#9b7522" stop-opacity="0"/></radialGradient><radialGradient cx="179.03831" cy="179.39389" r="8.17441" gradientUnits="userSpaceOnUse" id="color-28"><stop offset="0" stop-color="#9b7522"/><stop offset="1" stop-color="#9b7522" stop-opacity="0"/></radialGradient><radialGradient cx="166.39741" cy="168.24468" r="8.67416" gradientUnits="userSpaceOnUse" id="color-29"><stop offset="0" stop-color="#9c7f42"/><stop offset="1" stop-color="#9c7f42" stop-opacity="0"/></radialGradient><radialGradient cx="157.43267" cy="162.07122" r="6.06664" gradientUnits="userSpaceOnUse" id="color-30"><stop offset="0" stop-color="#9c7f42"/><stop offset="1" stop-color="#9c7f42" stop-opacity="0"/></radialGradient><radialGradient cx="149.67826" cy="151.19417" r="5.6743" gradientUnits="userSpaceOnUse" id="color-31"><stop offset="0" stop-color="#9c7f42"/><stop offset="1" stop-color="#9c7f42" stop-opacity="0"/></radialGradient><radialGradient cx="296.57603" cy="152.95802" r="6.7714" gradientUnits="userSpaceOnUse" id="color-32"><stop offset="0" stop-color="#9c7f42"/><stop offset="1" stop-color="#9c7f42" stop-opacity="0"/></radialGradient><radialGradient cx="310.21983" cy="159.13148" r="5.82003" gradientUnits="userSpaceOnUse" id="color-33"><stop offset="0" stop-color="#9c7f42"/><stop offset="1" stop-color="#9c7f42" stop-opacity="0"/></radialGradient><radialGradient cx="313.03859" cy="146.49058" r="6.7714" gradientUnits="userSpaceOnUse" id="color-34"><stop offset="0" stop-color="#9c7f42"/><stop offset="1" stop-color="#9c7f42" stop-opacity="0"/></radialGradient><radialGradient cx="318.03616" cy="166.41613" r="4.79886" gradientUnits="userSpaceOnUse" id="color-35"><stop offset="0" stop-color="#9c7f42"/><stop offset="1" stop-color="#9c7f42" stop-opacity="0"/></radialGradient><radialGradient cx="323.03372" cy="154.72186" r="6.7714" gradientUnits="userSpaceOnUse" id="color-36"><stop offset="0" stop-color="#9c7f42"/><stop offset="1" stop-color="#9c7f42" stop-opacity="0"/></radialGradient><linearGradient x1="246.46591" y1="235.25427" x2="246.46591" y2="278.76247" gradientUnits="userSpaceOnUse" id="color-37"><stop offset="0" stop-color="#c48d2e" stop-opacity="0"/><stop offset="1" stop-color="#c48d2e"/></linearGradient><radialGradient cx="240.32258" cy="140.76799" r="10.87705" gradientUnits="userSpaceOnUse" id="color-38"><stop offset="0" stop-color="#905b00"/><stop offset="1" stop-color="#252313"/></radialGradient><radialGradient cx="241.2045" cy="137.53427" r="9.99513" gradientUnits="userSpaceOnUse" id="color-39"><stop offset="0" stop-color="#fff082"/><stop offset="1" stop-color="#fbbd53"/></radialGradient><linearGradient x1="241.2045" y1="138.12222" x2="241.2045" y2="143.11979" gradientUnits="userSpaceOnUse" id="color-40"><stop offset="0" stop-color="#d59527" stop-opacity="0"/><stop offset="1" stop-color="#d59527"/></linearGradient><linearGradient x1="242.23342" y1="130.77286" x2="242.23342" y2="135.47645" gradientUnits="userSpaceOnUse" id="color-41"><stop offset="0" stop-color="#d59527"/><stop offset="1" stop-color="#d59527" stop-opacity="0"/></linearGradient></defs><g transform="translate(-108.76438,-17.97354)"><g data-paper-data="{&quot;isPaintingLayer&quot;:true}" fill-rule="nonzero" stroke-linecap="butt" stroke-linejoin="miter" stroke-miterlimit="10" stroke-dasharray="" stroke-dashoffset="0" style="mix-blend-mode: normal"><path d="M243.82015,278.76641l-40.56846,-97.30944l80.54897,-4.70359c0,0 -17.97192,57.0222 -23.90991,75.86254c-3.52528,11.18518 -8.42727,26.73844 -8.42727,26.73844z" fill="url(#color-1)" stroke="none" stroke-width="0"/><path d="M265.60997,227.90097c-2.93829,13.53238 -3.30668,29.39743 -18.25936,29.39743c-8.44133,0 -7.58527,-3.02084 -12.55051,-6.83396c-0.74874,-0.575 -2.82655,-7.55521 -3.659,-8.98477c-3.42576,-5.88304 -8.34619,-16.74714 -8.34619,-20.04614c0,-1.42876 -17.77044,-31.03802 -17.24479,-32.36425c2.93879,-7.41477 28.69676,10.0222 41.38073,10.0222c13.05909,0 29.41553,-17.69521 31.96672,-9.94734c0.36993,1.12345 -13.03988,37.6159 -13.28761,38.75682z" fill="url(#color-2)" stroke="none" stroke-width="0"/><g data-paper-data="{&quot;index&quot;:null}" stroke="none" stroke-width="0"><path d="M274.51595,72.06103c0.2684,-4.09907 -3.00142,-19.98953 -2.26189,-23.49696c0.64174,-3.0436 5.32592,6.05156 5.28302,5.40306c-0.14456,-2.18518 -0.04853,-9.16337 0.18673,-9.91291c0.67135,-2.13888 2.47654,5.74811 3.06072,3.61258c0.55187,-2.01738 1.99113,-0.76747 2.77576,-2.59465c0.74335,-1.73106 -1.92739,-8.32457 -0.72943,-11.90987c0.79573,-2.38149 6.40129,9.41097 7.31268,6.81192c0.98151,-2.79901 2.30441,-10.25335 3.70489,-11.44468c2.31734,-1.97126 4.84709,3.30411 6.39413,2.27664c1.35974,-0.90308 4.27891,-7.07421 6.30236,-7.93576c2.98359,-1.27037 5.23597,2.92199 7.59938,2.92199c1.81532,0 4.90602,-11.96844 7.33335,-6.2901c0.31344,0.73324 1.24546,5.16937 1.89706,9.17495c0.43126,2.65105 7.47256,-8.87018 7.39753,-7.79465c-0.81216,11.64199 8.37459,-1.34841 11.18738,1.75813c3.0581,3.37747 -5.19224,9.77378 -0.80947,13.74814c0.6734,0.61065 4.39356,0.95628 6.11703,0.95326c3.99777,-0.007 -5.44449,9.25268 -5.32636,10.90661c0.11313,1.58393 5.26157,-0.39912 5.38102,1.12311c0.11024,1.40489 -4.67724,6.25609 -7.4733,9.01257c-3.77904,3.72553 4.23457,3.36144 4.23457,4.81993c0,2.58185 -9.75773,7.93764 -10.1177,10.36891c-0.40066,2.70611 5.75929,2.58712 4.57415,6.51629c-1.2314,4.08252 -9.82329,7.46667 -11.02585,9.54168c-1.3905,2.39929 9.33134,-1.36737 7.13831,1.2245c-1.06845,1.26276 -6.46651,3.77175 -11.39419,6.16378c-3.36302,1.6325 -6.50695,3.21052 -7.90598,4.30075c-1.65609,1.29055 13.15342,-2.16181 12.76235,-0.43991c-0.52773,3.02255 -11.87708,3.44664 -13.05743,4.09468c-0.72584,0.39851 7.89661,2.60887 6.57189,3.25653c-2.01889,0.98704 -19.82328,5.06074 -20.97471,5.06074c-10.98559,0 -10.57704,3.11323 -15.78055,-9.61891c-1.60925,-3.93756 -5.67862,-0.14443 -7.89466,-4.38791c-1.83587,-3.51549 -3.23117,-15.48917 -2.46276,-27.22445z" fill="url(#color-3)"/><path d="M277.34045,57.68546c10.49331,-18.13244 44.42572,-33.70912 55.07614,-30.66457c11.20775,3.20387 8.26378,36.82036 -2.10339,56.55703c-4.5415,8.64595 -12.8981,24.66663 -20.05174,27.44888c-9.17643,3.56897 -17.37632,-7.62526 -23.67434,-9.42562c-11.20775,-3.20387 -19.13997,-16.62172 -8.7728,-36.35839c0.51553,-0.98145 -1.02298,-6.60846 -0.47387,-7.55733z" fill="url(#color-4)"/><path d="M278.0487,63.05249c-0.36559,-5.52633 7.73156,4.89564 8.24929,3.00301c0.36217,-1.32395 0.28705,0.51601 0.80198,-0.68312c0.48784,-1.13605 -1.94468,-9.8818 -1.15849,-12.23474c0.52222,-1.56291 4.20099,3.45702 4.79912,1.75134c1.70999,-4.87641 1.04971,-7.62177 2.67857,-8.70359c0.59844,-0.39745 2.07493,4.51986 4.25971,3.99394c2.9657,-0.71391 9.38969,-8.72884 10.04152,-6.91634c0.63982,1.77911 -6.92719,10.47628 -5.98725,10.47628c1.19135,0 20.37582,-17.72761 21.96882,-14.00107c0.34184,0.79968 -7.79292,7.71198 -7.91656,9.48431c-0.533,7.64032 10.17378,-6.3882 12.01974,-4.34946c1.71806,1.89749 -0.99729,2.87907 -1.71454,7.52832c-0.24934,1.61622 -4.81047,7.85339 -2.61979,7.84955c2.62363,-0.0046 8.32318,0.68245 8.4007,1.76787c0.14276,1.99885 -4.68764,3.90237 -8.51086,7.67145c-2.48008,2.44497 0.64279,6.13902 0.64279,7.09619c0,1.6944 -4.26749,1.27627 -4.50373,2.87185c-0.26294,1.77595 5.81903,2.37764 5.04125,4.95625c-0.80814,2.67925 -8.48612,4.22039 -9.27533,5.58216c-0.91255,1.57459 2.72498,4.54092 1.28575,6.24189c-1.17975,1.3943 -7.00379,-0.33455 -9.26726,1.4293c-1.08685,0.84695 7.27267,2.32008 7.01602,3.79001c-0.34634,1.98362 -9.15418,3.9614 -9.92881,4.3867c-1.20231,0.6601 -2.42252,1.03979 -3.674,1.03979c-7.20955,0 -10.00047,0.68356 -13.4154,-7.6722c-1.05611,-2.58411 -0.66769,-17.76922 -2.12202,-20.5541c-1.99086,-3.81228 -6.95772,-13.48546 -7.1112,-15.80561z" fill="url(#color-5)"/><path d="M280.6348,71.10261c-0.26008,-3.93146 5.50026,3.48277 5.86858,2.13636c0.25765,-0.94187 0.20421,0.36709 0.57053,-0.48597c0.34705,-0.80819 -1.38345,-7.02995 -0.82415,-8.70384c0.37151,-1.11186 2.9886,2.45934 3.41411,1.24591c1.21649,-3.4691 2.589,-6.89594 3.74778,-7.66555c1.57089,-1.04331 2.22062,6.84764 4.07237,6.84764c0.84753,0 7.12652,-11.8746 8.25978,-9.22352c0.24319,0.5689 -1.85946,9.53923 -1.94742,10.80008c-0.37918,5.43536 10.92212,-9.33438 12.23535,-7.88402c1.64712,1.81914 -9.12503,13.16113 -3.08346,13.15055c1.86646,-0.00327 5.92115,-1.72518 5.9763,-0.953c0.10156,1.42199 -3.33481,2.77616 -6.05466,5.4575c-1.76434,1.73936 4.87863,3.26198 4.87863,3.94292c0,1.2054 -7.45726,2.01328 -7.62532,3.14838c-0.18706,1.26341 4.13968,1.69147 3.58636,3.5259c-0.57491,1.90603 -6.03706,3.0024 -6.59851,3.97117c-0.64919,1.12017 1.93856,3.23043 0.91469,4.44051c-0.83928,0.99191 -4.98252,-0.238 -6.59276,1.01681c-0.77319,0.60252 5.17381,1.65052 4.99122,2.69623c-0.24638,1.41115 -6.51232,2.81815 -7.0634,3.12071c-0.85533,0.4696 -1.72339,0.73971 -2.6137,0.73971c-5.1289,0 -7.11437,0.48628 -9.54376,-5.45803c-0.75132,-1.83835 -0.47499,-12.64109 -1.50961,-14.62227c-1.41631,-2.71207 -4.94975,-9.59361 -5.05894,-11.24417z" fill="url(#color-6)"/></g><g stroke="none" stroke-width="0"><path d="M181.35447,109.01613c-2.25691,4.32173 -6.40132,0.45865 -8.04024,4.46882c-5.29947,12.96691 -4.88338,9.79627 -16.07155,9.79627c-1.17266,0 -19.30536,-4.14881 -21.36148,-5.15405c-1.34915,-0.6596 7.4323,-2.91073 6.69307,-3.31658c-1.20212,-0.66 -12.76074,-1.09191 -13.29821,-4.17019c-0.39828,-1.75366 14.68432,1.76237 12.99769,0.44802c-1.42483,-1.11033 -4.62674,-2.71745 -8.05177,-4.38005c-5.01855,-2.43614 -10.51614,-4.99139 -11.6043,-6.27744c-2.23348,-2.63966 8.68607,1.19645 7.26993,-1.24708c-1.22474,-2.11327 -9.97506,-5.55982 -11.22917,-9.71763c-1.207,-4.00162 5.06655,-3.88044 4.65849,-6.63645c-0.36661,-2.4761 -10.30427,-7.93065 -10.30427,-10.56011c0,-1.48539 8.16139,-1.11458 4.31266,-4.90881c-2.84762,-2.8073 -7.72338,-7.74796 -7.61111,-9.17876c0.12165,-1.5503 5.36503,0.46931 5.48025,-1.14382c0.1203,-1.68442 -9.49607,-11.11486 -5.42458,-11.10772c1.75525,0.00307 5.54401,-0.34892 6.22983,-0.97083c4.46359,-4.04765 -3.93889,-10.56191 -0.8244,-14.00165c2.86466,-3.16382 12.22081,10.06611 11.39367,-1.79055c-0.07641,-1.09536 7.09473,10.63831 7.53394,7.93838c0.66362,-4.07944 1.61283,-8.59738 1.93204,-9.34413c2.47209,-5.78305 5.61978,6.40608 7.46857,6.40608c2.40699,0 4.7009,-4.26967 7.73951,-2.97588c2.06076,0.87744 5.03376,7.16236 6.41857,8.0821c1.57556,1.04642 4.15196,-4.32623 6.51203,-2.31862c1.4263,1.21329 2.7736,8.80509 3.77321,11.65571c0.9282,2.64697 6.63712,-9.36293 7.44752,-6.93753c1.22005,3.65141 -1.49993,10.3665 -0.74288,12.12948c0.79909,1.86088 2.2649,0.58791 2.82694,2.64249c0.59496,2.17491 2.43343,-5.85751 3.11716,-3.67919c0.2396,0.76336 0.3374,7.87023 0.19018,10.0957c-0.04369,0.66045 4.72686,-8.60242 5.38043,-5.5027c0.75317,3.57211 -2.57695,19.75558 -2.3036,23.93024c0.78259,11.95168 -0.63845,24.14615 -2.50817,27.72646z" fill="url(#color-7)"/><path d="M180.50346,74.3457c10.55834,20.10061 2.47985,33.76588 -8.93457,37.02883c-6.41416,1.83357 -14.76525,13.23421 -24.11089,9.59943c-7.28555,-2.83356 -15.79625,-19.14964 -20.42149,-27.95503c-10.55834,-20.10061 -13.5566,-54.33697 -2.14218,-57.59993c10.84681,-3.1007 45.40493,12.76321 56.09173,31.23001c0.55924,0.96636 -1.00764,6.69713 -0.48261,7.69668z" fill="url(#color-8)"/><path d="M173.02242,88.21208c-1.48115,2.83624 -1.08557,18.30135 -2.16115,20.93311c-3.4779,8.50983 -6.32028,7.81368 -13.66277,7.81368c-1.27456,0 -2.51727,-0.38669 -3.74175,-1.05897c-0.78892,-0.43314 -9.75918,-2.44739 -10.1119,-4.46759c-0.26138,-1.49704 8.25228,-2.99733 7.14539,-3.8599c-2.30521,-1.79638 -8.23664,-0.03565 -9.43815,-1.45565c-1.46577,-1.73234 2.23883,-4.75337 1.30946,-6.357c-0.80376,-1.38688 -8.62333,-2.95644 -9.44637,-5.6851c-0.79212,-2.62616 5.402,-3.23895 5.13421,-5.04765c-0.24059,-1.625 -4.58678,-1.19916 -4.58678,-2.9248c0,-0.97482 3.18046,-4.73699 0.65464,-7.22704c-3.89372,-3.83859 -8.81319,-5.77721 -8.6678,-7.81291c0.07895,-1.10544 5.8836,-1.80515 8.55561,-1.80047c2.23108,0.00391 -2.41416,-6.34827 -2.66809,-7.9943c-0.73048,-4.73498 -3.4959,-5.73466 -1.74616,-7.66714c1.88,-2.07633 12.7842,12.21087 12.24138,4.42966c-0.12592,-1.80501 -8.41069,-8.84477 -8.06254,-9.6592c1.62237,-3.79526 21.1606,14.25924 22.37392,14.25924c0.95727,0 -6.74927,-8.85754 -6.09765,-10.66946c0.66385,-1.84592 7.20629,6.3168 10.22668,7.04388c2.22507,0.53562 3.72878,-4.47237 4.33826,-4.06758c1.6589,1.10177 0.98645,3.89775 2.72797,8.86408c0.60915,1.73714 4.35576,-3.37536 4.88761,-1.78363c0.80069,2.39633 -1.67669,11.30335 -1.17985,12.46034c0.52442,1.22124 0.44791,-0.65265 0.81677,0.69571c0.52728,1.92752 8.77374,-8.68663 8.40141,-3.05839c-0.15632,2.36293 -5.21476,12.21448 -7.24233,16.09706z" fill="url(#color-9)"/><path d="M172.47874,91.76509c-1.0537,2.01771 -0.77228,13.01965 -1.53745,14.8919c-2.47419,6.05393 -4.49627,5.55868 -9.71975,5.55868c-0.90673,0 -1.79079,-0.27509 -2.6619,-0.75335c-0.56124,-0.30814 -6.94272,-1.74109 -7.19364,-3.17826c-0.18595,-1.065 5.87071,-2.13231 5.08326,-2.74595c-1.63993,-1.27795 -5.85958,-0.02536 -6.71433,-1.03556c-1.04276,-1.23239 1.59271,-3.38156 0.93155,-4.52239c-0.5718,-0.98664 -6.13467,-2.10322 -6.72018,-4.0444c-0.56352,-1.86826 3.843,-2.3042 3.6525,-3.59091c-0.17116,-1.15603 -7.76593,-1.97881 -7.76593,-3.20643c0,-0.69349 6.76547,-2.24419 4.96859,-4.01562c-2.77001,-2.73078 -6.26974,-4.10993 -6.1663,-5.55814c0.05617,-0.78641 4.18562,0.96725 6.0865,0.97058c6.15298,0.01078 -4.81781,-11.54036 -3.14032,-13.39304c1.33744,-1.47711 12.84713,13.56498 12.46096,8.0294c-0.08958,-1.28409 -2.23099,-10.41984 -1.98332,-10.99923c1.15416,-2.69996 7.54893,9.3936 8.41209,9.3936c1.88589,0 2.5476,-8.03646 4.14746,-6.97391c1.18015,0.7838 2.57796,4.27383 3.81688,7.8069c0.43335,1.23581 3.09871,-2.40124 3.47707,-1.26888c0.56961,1.70475 -1.1928,8.04124 -0.83935,8.86434c0.37308,0.8688 0.31865,-0.4643 0.58105,0.49493c0.37511,1.37125 6.24167,-6.1797 5.97679,-2.17575c-0.1112,1.681 -3.7098,8.68943 -5.15222,11.45151z" fill="url(#color-10)"/></g><path d="M321.51169,120.75193c0,0.39278 4.31407,-0.02747 10.24044,3.00659c5.94849,3.04538 13.51255,9.54893 15.23001,12.0009c1.95727,2.79433 -9.48896,-0.77643 -12.64022,0.36381c-3.18763,1.15341 15.43035,8.7682 15.37207,9.24389c-0.23344,1.90517 -13.27646,1.45331 -17.62361,2.82395c-3.26878,1.03063 10.18767,2.68237 9.58825,4.05643c-0.5893,1.35086 -6.82659,3.56675 -9.62197,5.18018c-2.82156,1.62854 4.85257,6.18203 3.94843,7.48112c-1.05667,1.51826 -9.26739,-0.51567 -10.51264,0.95079c-1.44092,1.69689 6.40495,5.70903 4.73679,7.32846c-0.47703,0.46309 -3.58036,-0.90745 -6.54817,-1.06955c-2.6584,-0.1452 -5.20806,0.9116 -5.664,1.31473c-20.50158,18.12658 -54.20196,30.51406 -80.39519,30.51406c-23.99005,0 -52.16533,-9.28178 -71.78689,-23.78066c-1.60062,-1.18274 -6.08405,4.6552 -7.56391,3.40523c-0.76144,-0.64315 2.16968,-11.75163 -1.14533,-10.88224c-4.71613,1.23684 -13.11407,7.6203 -14.07299,6.64849c-1.00343,-1.01692 9.20668,-11.45848 8.29139,-12.50933c-0.83897,-0.96322 0.24567,-1.57924 -2.7197,-1.29399c-6.07455,0.58433 -16.10474,4.83525 -17.26368,2.70382c-0.831,-1.52831 12.55407,-11.90068 11.94198,-13.47623c-0.92617,-2.384 -15.11504,2.25291 -15.49218,-0.18881c-0.23577,-1.52641 12.57763,-12.46908 12.57763,-14.01092c0,-0.19033 -13.97117,2.36229 -12.28309,-1.097c0.70446,-1.44362 8.18599,-2.12504 10.22839,-4.12864c3.34963,-3.28599 -3.43226,-4.0257 -8.10787,-2.80332c-2.3343,0.61027 4.91668,-3.95106 11.41148,-7.91078c2.05292,-1.25162 -4.20099,-3.61902 -2.62575,-4.5681c2.02584,-1.22057 11.61784,-0.86427 11.61878,-0.89511c0.04342,-1.41896 0.39275,-3.95706 0.92508,-6.17651c0.35591,-1.48391 0.79363,-2.50025 1.27642,-4.14665c1.75429,-5.9825 4.10365,-12.52094 5.28554,-15.85983c6.06209,-17.12562 22.91094,-30.46345 43.29248,-37.56516c1.67669,-0.58422 2.78934,-7.00573 4.50981,-7.50418c0.68524,-0.19853 2.71593,4.92358 4.31173,4.06058c2.389,-1.29196 3.94513,-6.93628 4.99216,-7.18101c1.16108,-0.27139 1.40653,8.059 4.02944,5.7985c2.69695,-2.32432 4.24513,-7.59665 5.46296,-7.79212c2.42651,-0.38947 -0.88768,7.53813 1.6915,7.32362c3.03412,-0.25234 20.78618,-15.66793 23.65542,-15.66793c2.17376,0 -9.70378,15.35581 -7.43008,15.49615c1.86117,0.11488 12.09001,-6.77791 14.11304,-6.56647c2.55306,0.26683 -3.08459,7.66683 -0.6733,8.09151c15.18769,2.67486 30.40165,9.11385 40.96506,18.70925c9.03811,8.20988 10.68083,21.23284 14.60121,30.6335c0.3386,0.81193 7.20789,3.42649 7.65265,5.58486c0.55602,2.69829 -5.28834,5.01454 -4.63794,6.00878c1.07072,1.63679 16.32625,1.94917 17.36771,2.6311c1.98912,1.30243 -10.50934,2.39606 -10.50934,5.71424z" fill="url(#color-11)" stroke="none" stroke-width="0"/><path d="M317.2836,119.83312c0,7.9072 -8.02879,17.60256 -24.16637,20.69306c-15.78313,3.02262 -39.51435,-0.47703 -54.19849,-0.14299c-0.82155,0.01869 -1.6477,0.02813 -2.47808,0.02813c-10.70213,0 -36.32675,3.38738 -50.06263,0.90239c-11.95506,-2.16282 -19.24196,-6.97485 -23.83103,-10.81119c-4.70561,-3.93377 0.30772,-14.17881 3.29537,-19.23406c0.40038,-0.67747 4.16009,-11.93456 4.16009,-12.60149c0,-16.0734 35.59027,-16.46256 66.4382,-16.46256c11.04496,0 43.90923,-2.50557 54.7543,1.05426c19.44456,6.38257 26.08864,26.25606 26.08864,36.57445z" fill="url(#color-12)" stroke="none" stroke-width="0"/><path d="M314.58507,93.20197c16.56047,0 9.99513,39.51462 9.99513,49.09371c0,9.57909 -8.72132,26.75166 -25.28179,26.75166c-16.56047,0 -45.86,-33.04718 -45.86,-42.62628c0,-9.57909 44.58619,-33.2191 61.14666,-33.2191z" data-paper-data="{&quot;index&quot;:null}" fill="url(#color-13)" stroke="none" stroke-width="0"/><path d="M223.59861,125.88851c0,9.57909 -29.29953,42.62628 -45.86,42.62628c-16.56047,0 -25.28179,-17.17257 -25.28179,-26.75166c0,-5.71345 -2.33564,-22.07655 -0.70678,-34.35275c1.10206,-8.30591 4.01894,-14.74096 10.70191,-14.74096c16.56047,0 61.14666,23.64 61.14666,33.2191z" fill="url(#color-14)" stroke="none" stroke-width="0"/><path d="M277.61237,101.04506c1.77748,0 8.29193,-3.21778 10.09888,-2.78738c0.97224,0.23158 -2.76024,4.02573 -1.79608,4.29756c1.24997,0.35241 7.48583,-2.4594 8.6998,-1.97744c0.75577,0.30005 -2.90388,4.57795 -1.45239,4.37024c2.23779,-0.32023 4.74555,-2.29095 5.80638,-1.66866c1.14478,0.67154 -1.57971,4.33121 -0.54421,5.08902c0.55173,0.40377 5.20159,-1.23953 5.71617,-0.81584c1.46002,1.20214 -3.99946,2.47807 -2.90423,3.7915c0.47103,0.56488 3.65965,-0.08425 4.72932,1.01972c1.01288,1.04536 -0.08686,3.84493 0.20431,4.39505c0.91739,1.73327 1.42744,3.47829 1.42744,5.1584c0,2.11603 -1.39129,4.13213 -0.74198,6.9334c0.43201,1.86378 3.40573,4.73049 2.3208,5.81636c-0.65475,0.65532 -7.25469,-1.95543 -8.0345,-1.36909c-0.89575,0.67351 5.18558,5.12036 4.14289,5.69067c-1.44146,0.78842 -5.55433,-1.88826 -8.27032,-1.88879c-2.51046,-0.00048 4.44406,6.27221 2.13537,6.69793c-1.00455,0.18524 -8.43964,-5.50508 -10.31771,-5.28825c-1.76814,0.20414 3.52726,7.22763 1.37822,6.48887c-1.75593,-0.60362 -7.27562,-6.03059 -7.89456,-6.03059c-1.39135,0 1.05647,4.41846 -0.28956,4.42509c-1.40942,0.00694 -6.61,-4.39819 -7.94655,-4.40887c-1.88673,-0.01507 -3.68903,-0.06037 -5.37356,-0.17167c-7.41936,-0.49023 -12.55404,-2.26094 -12.55404,-8.36981c0,-9.41674 7.49738,-29.39743 21.46013,-29.39743z" data-paper-data="{&quot;index&quot;:null}" fill="#fff9d9" stroke="none" stroke-width="NaN"/><path d="M220.92689,133.38224c0,6.10886 -5.13469,7.87959 -12.55405,8.36981c-1.68453,0.1113 -3.48684,0.15659 -5.37356,0.17167c-1.33655,0.01068 -6.53713,4.4158 -7.94655,4.40887c-1.34603,-0.00662 1.10179,-4.42509 -0.28956,-4.42509c-0.61894,0 -6.13862,5.42697 -7.89456,6.0306c-2.14904,0.73876 3.14635,-6.28473 1.37821,-6.48887c-1.87807,-0.21684 -9.31315,5.47349 -10.31771,5.28825c-2.30869,-0.42572 4.64583,-6.69841 2.13537,-6.69793c-2.71599,0.00052 -6.82886,2.67721 -8.27032,1.88879c-1.0427,-0.57032 5.03863,-5.01716 4.14289,-5.69067c-0.77981,-0.58634 -7.37976,2.02441 -8.0345,1.36909c-1.08492,-1.08586 1.8888,-3.95258 2.32081,-5.81636c0.64931,-2.80126 -0.74199,-4.81736 -0.74199,-6.9334c0,-1.68012 0.51005,-3.42513 1.42745,-5.1584c0.29117,-0.55012 -0.80858,-3.34968 0.2043,-4.39505c1.06967,-1.10397 4.25829,-0.45484 4.72932,-1.01972c1.09522,-1.31344 -4.36426,-2.58937 -2.90423,-3.79151c0.51458,-0.42369 5.16444,1.21961 5.71617,0.81584c1.0355,-0.75781 -1.68899,-4.41748 -0.54421,-5.08902c1.06082,-0.62229 3.5686,1.34842 5.80638,1.66865c1.45149,0.20771 -2.20816,-4.07019 -1.45239,-4.37024c1.21396,-0.48196 7.44982,2.32985 8.69979,1.97744c0.96416,-0.27183 -2.76832,-4.06598 -1.79608,-4.29756c1.80694,-0.4304 8.3214,2.78738 10.09888,2.78738c13.96275,0 21.46013,19.98069 21.46013,29.39743z" fill="#fff9d9" stroke="none" stroke-width="NaN"/><path d="M305.11379,158.086c2.84655,0.40841 13.37406,1.23076 14.79476,6.57413c1.60403,6.03292 -16.97943,18.23375 -23.21446,21.91314c-7.29478,4.30476 -39.21487,17.29081 -46.74246,19.98094c-6.72202,2.40224 -7.58463,0.77249 -12.01097,0.77249c-5.08935,0 -21.172,-1.25901 -32.40514,-7.27156c-4.48431,-2.40023 -21.11151,-8.38593 -25.01075,-10.55546c-14.19309,-13.04439 -19.99436,-9.72237 -19.18175,-18.09457c0.08195,-0.8443 3.88356,-5.16041 6.61662,-6.67845c2.68104,-1.48914 11.05089,-3.12568 11.63858,-3.39812c3.33589,-1.54641 7.73876,-2.79527 10.00262,-3.8661c6.91325,-3.27005 8.5641,-4.87997 17.64106,-8.23365c18.02561,0.40626 20.11902,-2.31382 30.84573,-2.31382c9.13335,0 18.83869,3.24404 34.9129,1.84244c0.60836,0.17045 5.30696,3.27689 5.86682,3.44001c11.70207,3.40928 13.60896,4.07542 26.24643,5.88858z" fill="#ffffff" stroke="none" stroke-width="0"/><path d="M282.80675,157.26068c0,3.04834 -11.4032,30.97522 -23.85796,34.58784c-2.4707,0.71665 -12.16215,0.84215 -14.71537,0.84215c-3.07547,0 -12.12278,-1.17876 -14.89006,-2.29457c-11.11105,-4.48013 -29.1507,-27.62161 -29.1507,-30.54626c0,-3.65304 30.08667,15.79032 45.51064,15.79032c15.42397,0 37.60346,-21.03253 37.60346,-17.37949z" fill="#8a4b36" stroke="#004141" stroke-width="0"/><path d="M278.72245,150.85895c0,0.68132 4.70203,1.53822 3.95716,4.71104c-1.42292,6.061 -9.4767,16.59945 -15.1996,22.62266c-4.27868,4.5032 -0.81169,2.97514 -3.82732,5.84574c-2.44056,2.32318 -12.98952,3.4646 -14.90488,3.95313c-1.11031,0.2832 -4.75862,0.06685 -5.60356,0.06685c-1.55203,0 -12.75761,-2.26399 -14.84283,-3.10872c-3.76933,-1.52698 -6.7037,-7.34015 -14.56688,-13.65754c-7.58156,-6.09113 -15.66728,-16.1862 -15.66728,-17.99887c0,-4.73269 35.80963,-0.6298 42.87218,-0.6298c7.06255,0 34.28301,-0.93826 34.28301,3.79443z" fill="#303030" stroke="#004141" stroke-width="0.5"/><path d="M263.27918,152.23055c1.54781,0 1.33269,0.83775 1.33269,4.40961c0,3.57186 -2.43064,6.76141 -4.5664,8.96622c-1.07692,1.11173 -1.33268,-8.48108 -1.33268,-12.05295c0,-3.57186 3.01859,-1.32288 4.5664,-1.32288z" data-paper-data="{&quot;index&quot;:null}" fill="#ffffff" stroke="#003131" stroke-width="0.5"/><path d="M228.48868,156.17006c0,0 2.5572,-0.70472 5.41896,-1.22825c2.75883,-0.5047 5.7862,-0.82889 7.84358,-0.82889c2.29079,0 5.95077,-0.04431 9.34935,0.57534c3.17551,0.57897 6.17504,1.82467 6.17504,1.82467c0,0 0.31264,2.8855 0.0005,3.28768c-0.41312,0.5323 -2.05671,-2.94481 -2.05671,-2.94481c0,0 -2.45061,1.89267 -2.36903,2.98694c0.14374,1.92768 -1.37174,-3.67203 -3.07138,-3.60584c-0.79417,0.03092 -2.45091,3.65392 -3.30055,3.66353c-1.13934,0.01289 -1.70279,-3.91895 -2.87126,-3.91157c-0.98007,0.00619 -2.36304,3.60982 -3.2953,3.60982c-1.28747,0 -1.31042,-3.54051 -2.86258,-3.65993c-1.77498,-0.13656 -1.13674,4.17422 -1.86671,4.17422c-0.53509,0 -1.71574,-3.60001 -2.26183,-3.60001c-1.67701,0 -2.77589,2.91429 -2.77589,2.91429c0,0 -1.56723,-1.49856 -2.95467,-1.86973c-0.72323,-0.19349 -1.69711,0.79331 -1.73516,0.59236c-0.09017,-0.47612 2.63362,-1.97977 2.63362,-1.97977z" data-paper-data="{&quot;index&quot;:null}" fill="#bebebe" stroke="#003131" stroke-width="0.5"/><path d="M227.20816,154.70043c0,1.85851 0.37659,5.04609 0.51985,7.6765c0.13207,2.42499 0.06582,4.37644 -0.67663,4.37644c-1.54781,0 -5.44833,-6.71724 -5.44833,-10.2891c0,-3.57186 1.25475,-3.23372 2.80256,-3.23372c1.54781,0 2.80256,-2.10199 2.80256,1.46987z" fill="#ffffff" stroke="#003131" stroke-width="0.5"/><path d="M234.23707,187.04613c0,0 -1.94709,-1.28926 -1.88263,-1.6975c0.0272,-0.1723 0.72337,0.6738 1.24037,0.5079c0.9918,-0.31825 2.11213,-1.60315 2.11213,-1.60315c0,0 0.78553,2.49878 1.98433,2.49878c0.39037,0 1.23435,-3.08673 1.61686,-3.08673c0.52182,0 0.06557,3.69616 1.33441,3.57907c1.10955,-0.1024 1.12596,-3.13811 2.0463,-3.13811c0.66642,0 1.65503,3.08983 2.35563,3.09514c0.83528,0.00633 1.23806,-3.36492 2.05251,-3.35387c0.60736,0.00824 1.79167,3.11468 2.35938,3.14119c1.21498,0.05675 2.29831,-4.74457 2.19556,-3.09173c-0.05832,0.93825 1.69349,2.56107 1.69349,2.56107c0,0 1.17491,-2.98136 1.47023,-2.52495c0.22313,0.34484 -0.00036,2.81893 -0.00036,2.81893c0,0 -2.1442,1.06809 -4.4142,1.56451c-2.42946,0.5313 -5.04578,0.49331 -6.68334,0.49331c-1.47071,0 -3.63481,-0.27797 -5.60695,-0.71071c-2.04572,-0.44889 -3.87372,-1.05313 -3.87372,-1.05313z" fill="#bfbfbf" stroke="#003131" stroke-width="0.5"/><path d="M283.90384,154.19229c0,5.41448 -9.03134,1.80378 -19.79624,1.80378c-6.63351,0 -16.07269,0.33343 -20.9434,-2.05659c-0.67205,-0.32977 -0.31069,-6.52613 -0.81712,-6.90888c-1.77948,-1.34491 -0.9264,0.77931 -0.9264,-0.83831c0,-5.41448 8.72668,-9.80378 19.49158,-9.80378c10.7649,0 19.49158,7.3893 19.49158,12.80378z" fill="#ffffff" stroke="#004141" stroke-width="0.5"/><path d="M242.87495,147.976c0,2.70475 0.69638,5.25855 -1.86746,6.7197c-2.56856,1.46384 -8.72185,2.45831 -14.10925,2.45831c-10.7649,0 -28.6604,4.27633 -28.6604,-1.13815c0,-5.41448 17.8955,-18.46942 28.6604,-18.46942c7.90344,0 13.43009,-0.9715 16.48927,2.42909c1.10758,1.23119 -0.51256,6.56122 -0.51256,8.00046z" fill="#ffffff" stroke="#004141" stroke-width="0.5"/><path d="M241.51693,149.43615c0,0.92348 -1.07937,4.33541 -3.32505,5.40835c-1.80005,0.86002 -6.01581,1.76603 -7.87989,1.9632c-2.84547,0.30097 -6.181,-0.12301 -8.28665,-0.12301c-3.0349,0 -16.15549,2.91512 -20.73267,1.03975c-3.27438,-1.34159 1.24109,-7.33183 1.24109,-8.49688c0,-2.79364 12.68794,-7.14425 17.89391,-7.14425c5.20598,0 21.08926,4.5592 21.08926,7.35284z" fill="url(#color-15)" stroke="none" stroke-width="0"/><path d="M281.88172,155.23064c0,2.27523 -15.56316,-0.35885 -23.19566,-0.35885c-7.63249,0 -13.99449,-0.96712 -13.99449,-3.24235c0,-0.64474 -0.90838,-3.09269 0.25323,-4.47633c2.93759,-3.49908 11.13255,-8.09129 16.60219,-8.09129c4.15768,0 14.78116,0.58877 17.91898,3.202c2.62247,2.18403 -0.58427,5.93098 -0.58427,6.96682z" fill="url(#color-16)" stroke="none" stroke-width="0"/><path d="M218.23978,121.76908c1.10567,2.49561 2.54474,11.94398 1.79291,13.7409c-0.90688,2.1675 -2.48656,0.10492 -5.67703,0.90123c-3.47542,0.86744 -8.19402,2.55654 -12.82173,2.55654c-8.36058,0 -18.3366,-1.25411 -24.28734,-4.51045c-2.87365,-1.5725 -5.20893,-3.05469 -5.20893,-6.14789c0,-9.49856 11.09464,-19.62102 23.49261,-19.62102c12.39796,0 17.74997,1.88647 22.70952,13.08068z" fill="#535353" stroke="none" stroke-width="0"/><path d="M218.8117,130.6331c0,4.32663 1.08751,3.05627 -3.41549,3.626c-3.0823,0.38997 -13.09182,3.15698 -16.96201,3.15698c-9.52423,0 -22.72676,-3.29536 -22.72676,-10.58356c0,-4.2168 4.07453,-8.92687 10.2334,-12.34803c4.48595,-2.49188 10.56788,-3.46133 14.5816,-3.46133c9.52423,0 18.28927,12.32174 18.28927,19.60995z" fill="#ffffff" stroke="#005e5e" stroke-width="0.5"/><path d="M280.88716,108.10045c11.54323,0 21.873,10.02223 21.873,19.42675c0,3.06257 -2.17428,4.53007 -4.84982,6.08701c-5.54049,3.2241 -14.82875,4.46579 -22.61294,4.46579c-4.30868,0 -8.70196,-1.67238 -11.93779,-2.53122c-2.97052,-0.78843 -4.44129,1.25373 -5.28565,-0.89231c-0.69999,-1.77913 0.63986,-11.13395 1.6693,-13.60486c4.61763,-11.08337 9.60067,-12.95117 21.14389,-12.95117z" data-paper-data="{&quot;index&quot;:null}" fill="#535353" stroke="none" stroke-width="0"/><path d="M276.47232,110.25328c3.69331,0 9.28974,0.97447 13.41758,3.47924c5.66723,3.43887 9.41649,8.17332 9.41649,12.41194c0,7.32593 -12.1486,10.63834 -20.91255,10.63834c-3.56125,0 -12.77173,-2.78133 -15.60798,-3.17332c-4.14353,-0.57267 -3.14284,0.70426 -3.14284,-3.64476c0,-7.32593 8.06534,-19.71144 16.82928,-19.71144z" data-paper-data="{&quot;index&quot;:null}" fill="#ffffff" stroke="#005e5e" stroke-width="0.5"/><g><path d="M210.04741,123.11648c0,5.80006 -4.88995,10.50192 -10.922,10.50192c-6.03205,0 -10.922,-4.70187 -10.922,-10.50192c0,-5.80006 4.88995,-10.50192 10.922,-10.50192c6.03205,0 10.922,4.70187 10.922,10.50192z" fill="#c6c6c6" stroke="#001414" stroke-width="0.5"/><path d="M208.57987,124.94999c0.14992,4.15845 -2.75258,4.79026 -4.3651,5.67302c-1.30656,0.71525 -0.88349,2.03662 -4.29472,2.03662c-7.6213,0 -10.45874,-1.21528 -10.45874,-8.7376c0,-7.52232 2.83743,-10.27953 10.45874,-10.27953c7.6213,0 8.39822,4.05148 8.65983,11.30749z" fill="url(#color-17)" stroke="none" stroke-width="0"/><path d="M204.39367,123.81861c0,2.7538 -2.12856,4.9862 -4.75429,4.9862c-2.62572,0 -4.75429,-2.23239 -4.75429,-4.9862c0,-2.7538 2.12856,-4.9862 4.75429,-4.9862c2.62572,0 4.75429,2.23239 4.75429,4.9862z" fill="#171717" stroke="none" stroke-width="0"/><g stroke="none" stroke-width="0"><path d="M208.50548,119.42474c0,3.0515 -2.4162,5.52524 -5.39676,5.52524c-2.98054,0 -5.39676,-2.47374 -5.39676,-5.52524c0,-3.0515 2.4162,-5.52524 5.39676,-5.52524c2.98054,0 5.39676,2.47374 5.39676,5.52524z" fill="url(#color-18)"/><path d="M206.44958,119.16774c0,1.34834 -1.2081,2.44139 -2.69837,2.44139c-1.49027,0 -2.69837,-1.09305 -2.69837,-2.44139c0,-1.34834 1.2081,-2.44139 2.69837,-2.44139c1.49027,0 2.69837,1.09305 2.69837,2.44139z" fill="#ffffff"/></g></g><g><path d="M287.17278,122.20241c0,5.62422 -4.74171,10.18355 -10.59089,10.18355c-5.84918,0 -10.59089,-4.55933 -10.59089,-10.18355c0,-5.62422 4.74171,-10.18355 10.59089,-10.18355c5.84918,0 10.59089,4.55933 10.59089,10.18355z" fill="#c6c6c6" stroke="#001414" stroke-width="0.5"/><path d="M285.74973,123.98034c0.14538,4.03237 -2.66913,4.64505 -4.23277,5.50104c-1.26695,0.69358 -0.85671,1.97488 -4.16453,1.97488c-7.39026,0 -10.14168,-1.17843 -10.14168,-8.47271c0,-7.29428 2.75141,-9.96789 10.14168,-9.96789c7.39026,0 8.14363,3.92866 8.39729,10.96469z" fill="url(#color-19)" stroke="none" stroke-width="0"/><path d="M281.69043,122.88327c0,2.67032 -2.06403,4.83503 -4.61016,4.83503c-2.54611,0 -4.61016,-2.16471 -4.61016,-4.83503c0,-2.67032 2.06403,-4.83503 4.61016,-4.83503c2.54611,0 4.61016,2.16471 4.61016,4.83503z" fill="#171717" stroke="none" stroke-width="0"/><g stroke="none" stroke-width="0"><path d="M285.6776,118.6226c0,2.959 -2.34296,5.35775 -5.23314,5.35775c-2.8902,0 -5.23314,-2.39875 -5.23314,-5.35775c0,-2.959 2.34296,-5.35775 5.23314,-5.35775c2.8902,0 5.23314,2.39875 5.23314,5.35775z" fill="url(#color-20)"/><path d="M283.68402,118.3734c0,1.30746 -1.17147,2.36738 -2.61657,2.36738c-1.44509,0 -2.61657,-1.05991 -2.61657,-2.36738c0,-1.30746 1.17147,-2.36738 2.61657,-2.36738c1.44509,0 2.61657,1.05991 2.61657,2.36738z" fill="#ffffff"/></g></g><path d="M249.53248,204.55488c-0.72587,2.10849 -3.23247,4.19902 -8.76834,3.92403c-13.00473,-0.64599 -36.08509,-7.70461 -44.37634,-10.55897c-11.82067,-4.06941 -37.36487,-18.67847 -34.93379,-25.74016c2.43108,-7.0617 28.68311,10.20885 40.50378,14.27826c4.55609,1.56849 13.02888,3.56726 21.58304,5.83595c13.6394,3.61738 27.4857,7.921 25.99165,12.26088z" fill="url(#color-21)" stroke="none" stroke-width="0"/><path d="M284.84705,188.43618c11.4307,-5.06235 31.11478,-30.00812 34.13904,-23.17939c3.02426,6.82873 -21.18146,23.56234 -32.61216,28.62469c-8.01771,3.55083 -30.41227,12.55143 -43.31458,14.30378c-5.49227,0.74594 -8.16797,-1.12329 -9.07096,-3.16221c-3.02426,-6.82873 22.42796,-4.52452 33.85865,-9.58687z" data-paper-data="{&quot;index&quot;:null}" fill="url(#color-22)" stroke="none" stroke-width="0"/><path d="M283.54221,185.39868c0,4.6463 -7.13554,12.56053 -17.16867,18.26848c-6.97057,3.96563 -15.94808,6.86632 -22.37088,6.86632c-3.38801,0 -14.23571,-0.6466 -19.63538,-2.64745c-8.79891,-3.26044 -12.86402,-9.14363 -18.9837,-14.44753c-7.49172,-6.49304 -3.56624,-27.27902 -3.56624,-30.67585c0,-3.90938 0.75908,19.32092 10.28026,27.03415c3.62783,2.93895 9.33645,7.92045 13.59574,9.24909c7.07809,2.20794 15.29612,3.11297 20.22137,3.11297c2.93434,0 1.40295,-0.04372 8.37341,-1.97467c6.52477,-1.80748 19.05116,-8.89236 22.27186,-12.12628c5.65807,-5.6813 9.77098,-17.46578 10.59926,-24.86425c0.7176,-6.40985 -3.61704,19.61111 -3.61704,22.20501z" fill="url(#color-23)" stroke="none" stroke-width="0"/><path d="M210.05231,71.99015c0.88612,1.83523 3.51586,8.09911 -2.44123,11.84469c-5.66378,3.56116 -22.26252,5.79291 -26.50006,7.83895c-8.69452,4.19804 -3.28519,0.29125 -5.0138,-3.28885c-1.7286,-3.5801 9.11301,-8.58721 17.80753,-12.78525c8.69452,-4.19804 14.41896,-7.18964 16.14756,-3.60954z" fill="url(#color-24)" stroke="none" stroke-width="0"/><path d="M268.88944,74.18614c8.47282,2.70698 19.0086,5.87481 17.89396,9.36362c-1.11464,3.48881 4.32392,6.3542 -4.1489,3.64722c-4.12948,-1.31933 -19.5585,-1.21238 -25.18454,-3.72964c-5.91741,-2.64762 -4.32723,-8.70083 -3.75584,-10.48926c1.11464,-3.48881 6.7225,-1.49892 15.19532,1.20807z" data-paper-data="{&quot;index&quot;:null}" fill="url(#color-25)" stroke="none" stroke-width="0"/><path d="M173.90303,152.66404c0,3.16914 -4.15008,5.73824 -9.26946,5.73824c-5.11938,0 -9.26946,-2.5691 -9.26946,-5.73824c0,-3.16914 4.15008,-5.73824 9.26946,-5.73824c5.11938,0 9.26946,2.5691 9.26946,5.73824z" fill="url(#color-26)" stroke="none" stroke-width="0"/><path d="M194.6935,154.49805c1.26355,2.90636 -2.48373,7.33688 -8.36977,9.89586c-5.88604,2.55897 -11.68193,2.27736 -12.94547,-0.62899c-1.26355,-2.90636 2.48373,-7.33688 8.36977,-9.89585c5.88604,-2.55897 11.68193,-2.27736 12.94548,0.62899z" fill="url(#color-27)" stroke="none" stroke-width="0"/><path d="M176.24104,171.71299c2.0946,-0.76282 5.04499,2.05765 6.58988,6.29969c1.54489,4.24204 1.09926,8.29929 -0.99533,9.06211c-2.0946,0.76282 -5.04499,-2.05765 -6.58988,-6.29969c-1.54489,-4.24204 -1.09926,-8.29929 0.99533,-9.06211z" fill="url(#color-28)" stroke="none" stroke-width="0"/><path d="M169.00508,159.97177c3.07032,0.28309 4.39182,4.21649 2.95164,8.78549c-1.44017,4.569 -5.09665,8.04342 -8.16698,7.76033c-3.07032,-0.28309 -4.39182,-4.21649 -2.95165,-8.78549c1.44017,-4.569 5.09665,-8.04342 8.16698,-7.76033z" fill="url(#color-29)" stroke="none" stroke-width="0"/><path d="M159.85904,156.51093c2.11431,0.42433 2.74197,3.25774 1.40192,6.3286c-1.34005,3.07086 -4.14036,5.2163 -6.25467,4.79198c-2.11431,-0.42433 -2.74197,-3.25774 -1.40192,-6.3286c1.34005,-3.07086 4.14036,-5.2163 6.25467,-4.79198z" fill="url(#color-30)" stroke="none" stroke-width="0"/><path d="M153.73582,147.22757c1.68346,1.11098 1.23155,3.78751 -1.00938,5.9782c-2.24093,2.19069 -5.42227,3.06598 -7.10573,1.955c-1.68346,-1.11098 -1.23155,-3.78751 1.00938,-5.9782c2.24093,-2.19069 5.42227,-3.06598 7.10573,-1.955z" fill="url(#color-31)" stroke="none" stroke-width="0"/><path d="M292.34566,147.67069c1.51834,-1.86768 4.64321,-1.01452 6.97958,1.90559c2.33637,2.92011 2.99952,6.80138 1.48117,8.66906c-1.51834,1.86768 -4.64321,1.01452 -6.97958,-1.90559c-2.33637,-2.92011 -2.99952,-6.80138 -1.48117,-8.66906z" fill="url(#color-32)" stroke="none" stroke-width="0"/><path d="M306.58382,154.58701c1.30502,-1.60527 3.99084,-0.87198 5.99895,1.63786c2.00811,2.50984 2.57809,5.8458 1.27307,7.45107c-1.30502,1.60527 -3.99084,0.87198 -5.99895,-1.63786c-2.00811,-2.50984 -2.57809,-5.8458 -1.27307,-7.45107z" fill="url(#color-33)" stroke="none" stroke-width="0"/><path d="M308.80822,141.20325c1.51834,-1.86768 4.64321,-1.01451 6.97958,1.90559c2.33637,2.92011 2.99952,6.80138 1.48117,8.66906c-1.51834,1.86768 -4.64321,1.01451 -6.97958,-1.90559c-2.33637,-2.92011 -2.99952,-6.80138 -1.48117,-8.66906z" fill="url(#color-34)" stroke="none" stroke-width="0"/><path d="M315.03811,162.66904c1.07604,-1.32361 3.29061,-0.71898 4.94639,1.35048c1.65577,2.06946 2.12574,4.8201 1.0497,6.14371c-1.07604,1.32361 -3.29061,0.71898 -4.94639,-1.35048c-1.65577,-2.06946 -2.12574,-4.8201 -1.0497,-6.14371z" fill="url(#color-35)" stroke="none" stroke-width="0"/><path d="M318.80335,149.43454c1.51834,-1.86768 4.64321,-1.01451 6.97958,1.90559c2.33637,2.92011 2.99952,6.80138 1.48117,8.66906c-1.51834,1.86768 -4.64321,1.01451 -6.97958,-1.90559c-2.33637,-2.92011 -2.99952,-6.80138 -1.48117,-8.66906z" fill="url(#color-36)" stroke="none" stroke-width="0"/><path d="M269.10194,222.90734c0,12.01446 -14.35579,55.85512 -22.63602,55.85512c-2.9626,0 -0.40023,-1.48242 -4.94926,-8.4678c-8.16519,-12.53823 -17.68676,-41.43538 -17.68676,-49.15117c0,-12.01446 14.35579,14.11077 22.63602,14.11077c8.28023,0 22.63602,-24.36138 22.63602,-12.34692z" fill="url(#color-37)" stroke="none" stroke-width="0"/><g stroke="none" stroke-width="0"><path d="M229.15156,140.47402l-0.29397,-4.70359l22.34205,0.88192l3.23372,-0.58795c0,0 -1.14965,5.51171 -4.84602,7.74297c-0.4637,0.2799 0.57278,0.23342 -0.84556,1.76967c-1.89398,2.05144 -6.32345,5.77402 -6.80232,5.77402c-1.70515,0 -4.94945,-2.73667 -6.63849,-5.27497c-1.82667,-2.74512 -6.14939,-5.60208 -6.14939,-5.60208z" fill="url(#color-38)"/><path d="M251.19963,137.53427c0,3.0848 -3.88702,7.64333 -9.40718,7.64333c-5.52016,0 -10.58308,-4.55854 -10.58308,-7.64333c0,-3.0848 4.47497,-5.58551 9.99513,-5.58551c5.52016,0 9.99513,2.50072 9.99513,5.58551z" fill="url(#color-39)"/><path d="M251.05264,139.15113c0,0.91839 0.50123,3.37993 -2.06331,5.12072c-1.28914,0.87506 -5.54985,1.78768 -6.60894,1.78768c-1.36254,0 -2.82113,-0.49046 -5.04546,-1.82906c-2.94406,-1.77173 -6.56653,-4.58721 -6.56653,-5.37332c0,-1.38004 7.85806,0.44096 11.02404,0.44096c3.16597,0 9.26019,-1.52703 9.26019,-0.14699z" fill="url(#color-40)"/><path d="M250.4647,134.00658c0,1.29886 -5.79592,1.46987 -8.23128,1.46987c-2.43537,0 -9.70115,-0.75896 -9.70115,-2.05782c0,-1.29886 7.26579,-2.64577 9.70115,-2.64577c2.43537,0 8.23128,1.93486 8.23128,3.23372z" fill="url(#color-41)"/></g><path d="M258.77919,185.99677c-1.54781,0 -4.5664,2.24898 -4.5664,-1.32288c0,-3.57187 0.25576,-13.16468 1.33268,-12.05295c2.13576,2.20481 4.5664,5.39436 4.5664,8.96622c0,3.57186 0.21512,4.40961 -1.33269,4.40961z" data-paper-data="{&quot;index&quot;:null}" fill="#ffffff" stroke="#003131" stroke-width="0.5"/><path d="M229.05566,185.49678c-1.54781,0 -1.33269,-0.83775 -1.33269,-4.40961c0,-3.57186 2.43064,-6.76141 4.5664,-8.96622c1.07692,-1.11173 1.33268,8.48108 1.33268,12.05295c0,3.57186 -3.01859,1.32288 -4.5664,1.32288z" data-paper-data="{&quot;index&quot;:null}" fill="#ffffff" stroke="#003131" stroke-width="0.5"/></g></g></svg>