<svg version="1.1" xmlns="http://www.w3.org/2000/svg" xmlns:xlink="http://www.w3.org/1999/xlink" width="240.94975" height="261.38082" viewBox="0,0,240.94975,261.38082"><defs><radialGradient cx="241.76233" cy="218.49774" r="29.39743" gradientUnits="userSpaceOnUse" id="color-1"><stop offset="0" stop-color="#fff082"/><stop offset="1" stop-color="#ffd183"/></radialGradient><linearGradient x1="246.93086" y1="199.0915" x2="246.93086" y2="233.19252" gradientUnits="userSpaceOnUse" id="color-2"><stop offset="0" stop-color="#c48d2e"/><stop offset="1" stop-color="#c48d2e" stop-opacity="0"/></linearGradient><linearGradient x1="343.56519" y1="65.80083" x2="273.62125" y2="65.80083" gradientUnits="userSpaceOnUse" id="color-3"><stop offset="0" stop-color="#ffd183"/><stop offset="1" stop-color="#bf6e2c"/></linearGradient><linearGradient x1="339.56488" y1="69.18141" x2="272.98901" y2="69.18141" gradientUnits="userSpaceOnUse" id="color-4"><stop offset="0" stop-color="#ab4a00"/><stop offset="1" stop-color="#692900"/></linearGradient><radialGradient cx="301.73315" cy="77.82228" r="24.08299" gradientUnits="userSpaceOnUse" id="color-5"><stop offset="0" stop-color="#fff082"/><stop offset="1" stop-color="#ffd183"/></radialGradient><linearGradient x1="299.77651" y1="54.86768" x2="299.77651" y2="102.4367" gradientUnits="userSpaceOnUse" id="color-6"><stop offset="0" stop-color="#ffffff"/><stop offset="1" stop-color="#fffad8"/></linearGradient><linearGradient x1="113.54015" y1="74.91404" x2="184.77385" y2="74.91404" gradientUnits="userSpaceOnUse" id="color-7"><stop offset="0" stop-color="#ffd183"/><stop offset="1" stop-color="#bf6e2c"/></linearGradient><linearGradient x1="117.61423" y1="78.35695" x2="185.41775" y2="78.35695" gradientUnits="userSpaceOnUse" id="color-8"><stop offset="0" stop-color="#ab4a00"/><stop offset="1" stop-color="#692900"/></linearGradient><radialGradient cx="156.14357" cy="87.15716" r="24.52708" gradientUnits="userSpaceOnUse" id="color-9"><stop offset="0" stop-color="#fff082"/><stop offset="1" stop-color="#ffd183"/></radialGradient><linearGradient x1="158.13629" y1="63.77928" x2="158.13629" y2="112.22546" gradientUnits="userSpaceOnUse" id="color-10"><stop offset="0" stop-color="#ffffff"/><stop offset="1" stop-color="#fffad8"/></linearGradient><radialGradient cx="235.36397" cy="121.43809" r="86.14772" gradientUnits="userSpaceOnUse" id="color-11"><stop offset="0" stop-color="#fff082"/><stop offset="1" stop-color="#ffd183"/></radialGradient><linearGradient x1="233.94066" y1="71.53775" x2="233.94066" y2="129.74466" gradientUnits="userSpaceOnUse" id="color-12"><stop offset="0" stop-color="#d2a049" stop-opacity="0"/><stop offset="1" stop-color="#d2a049"/></linearGradient><linearGradient x1="321.77678" y1="111.28228" x2="265.64616" y2="132.39735" gradientUnits="userSpaceOnUse" id="color-13"><stop offset="0" stop-color="#c66a21" stop-opacity="0"/><stop offset="1" stop-color="#c66a21"/></linearGradient><linearGradient x1="154.88826" y1="108.84274" x2="211.62359" y2="128.27456" gradientUnits="userSpaceOnUse" id="color-14"><stop offset="0" stop-color="#c66a21" stop-opacity="0"/><stop offset="1" stop-color="#c66a21"/></linearGradient><radialGradient cx="237.82258" cy="124.01562" r="10.87705" gradientUnits="userSpaceOnUse" id="color-15"><stop offset="0" stop-color="#905b00"/><stop offset="1" stop-color="#252313"/></radialGradient><radialGradient cx="204.19929" cy="110.74728" r="20.90408" gradientUnits="userSpaceOnUse" id="color-16"><stop offset="0" stop-color="#575757"/><stop offset="1" stop-color="#575757" stop-opacity="0"/></radialGradient><radialGradient cx="204.072" cy="118.13491" r="8.04331" gradientUnits="userSpaceOnUse" id="color-17"><stop offset="0" stop-color="#ffffff"/><stop offset="1" stop-color="#ffffff" stop-opacity="0"/></radialGradient><radialGradient cx="275.97666" cy="110.69892" r="20.85789" gradientUnits="userSpaceOnUse" id="color-18"><stop offset="0" stop-color="#575757"/><stop offset="1" stop-color="#575757" stop-opacity="0"/></radialGradient><radialGradient cx="275.77541" cy="117.70147" r="8.02555" gradientUnits="userSpaceOnUse" id="color-19"><stop offset="0" stop-color="#ffffff"/><stop offset="1" stop-color="#ffffff" stop-opacity="0"/></radialGradient><linearGradient x1="204.21479" y1="163.71102" x2="204.21479" y2="201.31764" gradientUnits="userSpaceOnUse" id="color-20"><stop offset="0" stop-color="#d0d0d0" stop-opacity="0"/><stop offset="1" stop-color="#d0d0d0"/></linearGradient><linearGradient x1="273.83963" y1="163.83271" x2="277.04573" y2="201.30241" gradientUnits="userSpaceOnUse" id="color-21"><stop offset="0" stop-color="#d0d0d0" stop-opacity="0"/><stop offset="1" stop-color="#d0d0d0"/></linearGradient><linearGradient x1="241.0601" y1="155.85414" x2="241.0601" y2="184.36965" gradientUnits="userSpaceOnUse" id="color-22"><stop offset="0" stop-color="#acacac" stop-opacity="0"/><stop offset="1" stop-color="#acacac"/></linearGradient><linearGradient x1="205.07928" y1="62.35964" x2="207.76616" y2="73.17953" gradientUnits="userSpaceOnUse" id="color-23"><stop offset="0" stop-color="#6f5318" stop-opacity="0"/><stop offset="1" stop-color="#6f5318"/></linearGradient><linearGradient x1="268.1335" y1="62.42055" x2="264.09536" y2="72.96248" gradientUnits="userSpaceOnUse" id="color-24"><stop offset="0" stop-color="#6f5318" stop-opacity="0"/><stop offset="1" stop-color="#6f5318"/></linearGradient><radialGradient cx="162.30023" cy="132.99738" r="9.26946" gradientUnits="userSpaceOnUse" id="color-25"><stop offset="0" stop-color="#9b7522"/><stop offset="1" stop-color="#9b7522" stop-opacity="0"/></radialGradient><radialGradient cx="179.36921" cy="144.13149" r="11.62126" gradientUnits="userSpaceOnUse" id="color-26"><stop offset="0" stop-color="#9b7522"/><stop offset="1" stop-color="#9b7522" stop-opacity="0"/></radialGradient><radialGradient cx="168.37165" cy="147.39389" r="8.17441" gradientUnits="userSpaceOnUse" id="color-27"><stop offset="0" stop-color="#9b7522"/><stop offset="1" stop-color="#9b7522" stop-opacity="0"/></radialGradient><radialGradient cx="165.06408" cy="154.91135" r="8.67416" gradientUnits="userSpaceOnUse" id="color-28"><stop offset="0" stop-color="#9c7f42"/><stop offset="1" stop-color="#9c7f42" stop-opacity="0"/></radialGradient><radialGradient cx="157.09934" cy="150.40455" r="6.06664" gradientUnits="userSpaceOnUse" id="color-29"><stop offset="0" stop-color="#9c7f42"/><stop offset="1" stop-color="#9c7f42" stop-opacity="0"/></radialGradient><radialGradient cx="150.34492" cy="144.52751" r="5.6743" gradientUnits="userSpaceOnUse" id="color-30"><stop offset="0" stop-color="#9c7f42"/><stop offset="1" stop-color="#9c7f42" stop-opacity="0"/></radialGradient><radialGradient cx="295.57603" cy="143.95803" r="6.7714" gradientUnits="userSpaceOnUse" id="color-31"><stop offset="0" stop-color="#9c7f42"/><stop offset="1" stop-color="#9c7f42" stop-opacity="0"/></radialGradient><radialGradient cx="308.21983" cy="145.79815" r="5.82003" gradientUnits="userSpaceOnUse" id="color-32"><stop offset="0" stop-color="#9c7f42"/><stop offset="1" stop-color="#9c7f42" stop-opacity="0"/></radialGradient><radialGradient cx="305.03859" cy="132.15725" r="6.7714" gradientUnits="userSpaceOnUse" id="color-33"><stop offset="0" stop-color="#9c7f42"/><stop offset="1" stop-color="#9c7f42" stop-opacity="0"/></radialGradient><radialGradient cx="319.70283" cy="149.74946" r="4.79886" gradientUnits="userSpaceOnUse" id="color-34"><stop offset="0" stop-color="#9c7f42"/><stop offset="1" stop-color="#9c7f42" stop-opacity="0"/></radialGradient><radialGradient cx="318.03372" cy="133.72187" r="6.7714" gradientUnits="userSpaceOnUse" id="color-35"><stop offset="0" stop-color="#9c7f42"/><stop offset="1" stop-color="#9c7f42" stop-opacity="0"/></radialGradient><linearGradient x1="246.46591" y1="235.25428" x2="246.46591" y2="278.76248" gradientUnits="userSpaceOnUse" id="color-36"><stop offset="0" stop-color="#c48d2e" stop-opacity="0"/><stop offset="1" stop-color="#c48d2e"/></linearGradient><linearGradient x1="212.53532" y1="132.01218" x2="212.53532" y2="143.53607" gradientUnits="userSpaceOnUse" id="color-37"><stop offset="0" stop-color="#aaaaaa" stop-opacity="0"/><stop offset="1" stop-color="#aaaaaa"/></linearGradient><linearGradient x1="265.3172" y1="131.34552" x2="265.3172" y2="142.86941" gradientUnits="userSpaceOnUse" id="color-38"><stop offset="0" stop-color="#9e9e9e" stop-opacity="0"/><stop offset="1" stop-color="#9e9e9e"/></linearGradient><radialGradient cx="239.9545" cy="117.92238" r="9.99513" gradientUnits="userSpaceOnUse" id="color-39"><stop offset="0" stop-color="#fff082"/><stop offset="1" stop-color="#fbbd53"/></radialGradient><linearGradient x1="238.9545" y1="118.51508" x2="238.9545" y2="122.13646" gradientUnits="userSpaceOnUse" id="color-40"><stop offset="0" stop-color="#d59527" stop-opacity="0"/><stop offset="1" stop-color="#d59527"/></linearGradient><linearGradient x1="240.40009" y1="113.43953" x2="240.40009" y2="116.84788" gradientUnits="userSpaceOnUse" id="color-41"><stop offset="0" stop-color="#d59527"/><stop offset="1" stop-color="#d59527" stop-opacity="0"/></linearGradient></defs><g transform="translate(-108.76438,-17.97355)"><g data-paper-data="{&quot;isPaintingLayer&quot;:true}" fill-rule="nonzero" stroke-linecap="butt" stroke-linejoin="miter" stroke-miterlimit="10" stroke-dasharray="" stroke-dashoffset="0" style="mix-blend-mode: normal"><path d="M243.82015,278.76642l-40.56846,-97.30944l80.54897,-4.70359c0,0 -17.97192,57.0222 -23.90991,75.86254c-3.52528,11.18518 -8.42727,26.73844 -8.42727,26.73844z" fill="url(#color-1)" stroke="none" stroke-width="0"/><path d="M265.60997,227.90098c-2.93829,13.53238 -3.30668,29.39743 -18.25936,29.39743c-8.44133,0 -7.58527,-3.02084 -12.55051,-6.83396c-0.74874,-0.575 -2.82655,-7.55521 -3.659,-8.98477c-3.42576,-5.88304 -8.34619,-16.74714 -8.34619,-20.04614c0,-1.42876 -17.77044,-31.03802 -17.24479,-32.36425c2.93879,-7.41477 28.69676,10.0222 41.38073,10.0222c13.05909,0 29.41553,-17.69521 31.96672,-9.94734c0.36993,1.12345 -13.03988,37.6159 -13.28761,38.75682z" fill="url(#color-2)" stroke="none" stroke-width="0"/><g data-paper-data="{&quot;index&quot;:null}" stroke="none" stroke-width="0"><path d="M274.51595,72.06104c0.2684,-4.09907 -3.00142,-19.98953 -2.26189,-23.49696c0.64174,-3.0436 5.32592,6.05156 5.28302,5.40306c-0.14456,-2.18518 -0.04853,-9.16337 0.18673,-9.91291c0.67135,-2.13888 2.47654,5.74811 3.06072,3.61258c0.55187,-2.01738 1.99113,-0.76747 2.77576,-2.59465c0.74335,-1.73106 -1.92739,-8.32457 -0.72943,-11.90987c0.79573,-2.38149 6.40129,9.41097 7.31268,6.81192c0.98151,-2.79901 2.30441,-10.25335 3.70489,-11.44468c2.31734,-1.97126 4.84709,3.30411 6.39413,2.27664c1.35974,-0.90308 4.27891,-7.07421 6.30236,-7.93576c2.98359,-1.27037 5.23597,2.92199 7.59938,2.92199c1.81532,0 4.90602,-11.96844 7.33335,-6.2901c0.31344,0.73324 1.24546,5.16937 1.89706,9.17495c0.43126,2.65105 7.47256,-8.87018 7.39753,-7.79465c-0.81216,11.64199 8.37459,-1.34841 11.18738,1.75813c3.0581,3.37747 -5.19224,9.77378 -0.80947,13.74814c0.6734,0.61065 4.39356,0.95628 6.11703,0.95326c3.99777,-0.007 -5.44449,9.25268 -5.32636,10.90661c0.11313,1.58393 5.26157,-0.39912 5.38102,1.12311c0.11024,1.40489 -4.67724,6.25609 -7.4733,9.01257c-3.77904,3.72553 4.23457,3.36144 4.23457,4.81993c0,2.58185 -9.75773,7.93764 -10.1177,10.36891c-0.40066,2.70611 5.75929,2.58712 4.57415,6.51629c-1.2314,4.08252 -9.82329,7.46667 -11.02585,9.54168c-1.3905,2.39929 9.33134,-1.36737 7.13831,1.2245c-1.06845,1.26276 -6.46651,3.77175 -11.39419,6.16378c-3.36302,1.6325 -6.50695,3.21052 -7.90598,4.30075c-1.65609,1.29055 13.15342,-2.16181 12.76235,-0.43991c-0.52773,3.02255 -11.87708,3.44664 -13.05743,4.09468c-0.72584,0.39851 7.89661,2.60887 6.57189,3.25653c-2.01889,0.98704 -19.82328,5.06074 -20.97471,5.06074c-10.98559,0 -10.57704,3.11323 -15.78055,-9.61891c-1.60925,-3.93756 -5.67862,-0.14443 -7.89466,-4.38791c-1.83587,-3.51549 -3.23117,-15.48917 -2.46276,-27.22445z" fill="url(#color-3)"/><path d="M277.34045,57.68547c10.49331,-18.13244 44.42572,-33.70912 55.07614,-30.66457c11.20775,3.20387 8.26378,36.82036 -2.10339,56.55703c-4.5415,8.64595 -12.8981,24.66663 -20.05174,27.44888c-9.17643,3.56897 -17.37632,-7.62526 -23.67434,-9.42562c-11.20775,-3.20387 -19.13997,-16.62172 -8.7728,-36.35839c0.51553,-0.98145 -1.02298,-6.60846 -0.47387,-7.55733z" fill="url(#color-4)"/><path d="M278.0487,63.0525c-0.36559,-5.52633 7.73156,4.89564 8.24929,3.00301c0.36217,-1.32395 0.28705,0.51601 0.80198,-0.68312c0.48784,-1.13605 -1.94468,-9.8818 -1.15849,-12.23474c0.52222,-1.56291 4.20099,3.45702 4.79912,1.75134c1.70999,-4.87641 1.04971,-7.62177 2.67857,-8.70359c0.59844,-0.39745 2.07493,4.51986 4.25971,3.99394c2.9657,-0.71391 9.38969,-8.72884 10.04152,-6.91634c0.63982,1.77911 -6.92719,10.47628 -5.98725,10.47628c1.19135,0 20.37582,-17.72761 21.96882,-14.00107c0.34184,0.79968 -7.79292,7.71198 -7.91656,9.48431c-0.533,7.64032 10.17378,-6.3882 12.01974,-4.34946c1.71806,1.89749 -0.99729,2.87907 -1.71454,7.52832c-0.24934,1.61622 -4.81047,7.85339 -2.61979,7.84955c2.62363,-0.0046 8.32318,0.68245 8.4007,1.76787c0.14276,1.99885 -4.68764,3.90237 -8.51086,7.67145c-2.48008,2.44497 0.64279,6.13902 0.64279,7.09619c0,1.6944 -4.26749,1.27627 -4.50373,2.87185c-0.26294,1.77595 5.81903,2.37764 5.04125,4.95625c-0.80814,2.67925 -8.48612,4.22039 -9.27533,5.58216c-0.91255,1.57459 2.72498,4.54092 1.28575,6.24189c-1.17975,1.3943 -7.00379,-0.33455 -9.26726,1.4293c-1.08685,0.84695 7.27267,2.32008 7.01602,3.79001c-0.34634,1.98362 -9.15418,3.9614 -9.92881,4.3867c-1.20231,0.6601 -2.42252,1.03979 -3.674,1.03979c-7.20955,0 -10.00047,0.68356 -13.4154,-7.6722c-1.05611,-2.58411 -0.66769,-17.76922 -2.12202,-20.5541c-1.99086,-3.81228 -6.95772,-13.48546 -7.1112,-15.80561z" fill="url(#color-5)"/><path d="M280.6348,71.10262c-0.26008,-3.93146 5.50026,3.48277 5.86858,2.13636c0.25765,-0.94187 0.20421,0.36709 0.57053,-0.48597c0.34705,-0.80819 -1.38345,-7.02995 -0.82415,-8.70384c0.37151,-1.11186 2.9886,2.45934 3.41411,1.24591c1.21649,-3.4691 2.589,-6.89594 3.74778,-7.66555c1.57089,-1.04331 2.22062,6.84764 4.07237,6.84764c0.84753,0 7.12652,-11.8746 8.25978,-9.22352c0.24319,0.5689 -1.85946,9.53923 -1.94742,10.80008c-0.37918,5.43536 10.92212,-9.33438 12.23535,-7.88402c1.64712,1.81914 -9.12503,13.16113 -3.08346,13.15055c1.86646,-0.00327 5.92115,-1.72518 5.9763,-0.953c0.10156,1.42199 -3.33481,2.77616 -6.05466,5.4575c-1.76434,1.73936 4.87863,3.26198 4.87863,3.94292c0,1.2054 -7.45726,2.01328 -7.62532,3.14838c-0.18706,1.26341 4.13968,1.69147 3.58636,3.5259c-0.57491,1.90603 -6.03706,3.0024 -6.59851,3.97117c-0.64919,1.12017 1.93856,3.23043 0.91469,4.44051c-0.83928,0.99191 -4.98252,-0.238 -6.59276,1.01681c-0.77319,0.60252 5.17381,1.65052 4.99122,2.69623c-0.24638,1.41115 -6.51232,2.81815 -7.0634,3.12071c-0.85533,0.4696 -1.72339,0.73971 -2.6137,0.73971c-5.1289,0 -7.11437,0.48628 -9.54376,-5.45803c-0.75132,-1.83835 -0.47499,-12.64109 -1.50961,-14.62227c-1.41631,-2.71207 -4.94975,-9.59361 -5.05894,-11.24417z" fill="url(#color-6)"/></g><g stroke="none" stroke-width="0"><path d="M181.35447,109.01614c-2.25691,4.32173 -6.40132,0.45865 -8.04024,4.46882c-5.29947,12.96691 -4.88338,9.79627 -16.07155,9.79627c-1.17266,0 -19.30536,-4.14881 -21.36148,-5.15405c-1.34915,-0.6596 7.4323,-2.91073 6.69307,-3.31658c-1.20212,-0.66 -12.76074,-1.09191 -13.29821,-4.17019c-0.39828,-1.75366 14.68432,1.76237 12.99769,0.44802c-1.42483,-1.11033 -4.62674,-2.71745 -8.05177,-4.38005c-5.01855,-2.43614 -10.51614,-4.99139 -11.6043,-6.27744c-2.23348,-2.63966 8.68607,1.19645 7.26993,-1.24708c-1.22474,-2.11327 -9.97506,-5.55982 -11.22917,-9.71763c-1.207,-4.00162 5.06655,-3.88044 4.65849,-6.63645c-0.36661,-2.4761 -10.30427,-7.93065 -10.30427,-10.56011c0,-1.48539 8.16139,-1.11458 4.31266,-4.90881c-2.84762,-2.8073 -7.72338,-7.74796 -7.61111,-9.17876c0.12165,-1.5503 5.36503,0.46931 5.48025,-1.14382c0.1203,-1.68442 -9.49607,-11.11486 -5.42458,-11.10772c1.75525,0.00307 5.54401,-0.34892 6.22983,-0.97083c4.46359,-4.04765 -3.93889,-10.56191 -0.8244,-14.00165c2.86466,-3.16382 12.22081,10.06611 11.39367,-1.79055c-0.07641,-1.09536 7.09473,10.63831 7.53394,7.93838c0.66362,-4.07944 1.61283,-8.59738 1.93204,-9.34413c2.47209,-5.78305 5.61978,6.40608 7.46857,6.40608c2.40699,0 4.7009,-4.26967 7.73951,-2.97588c2.06076,0.87744 5.03376,7.16236 6.41857,8.0821c1.57556,1.04642 4.15196,-4.32623 6.51203,-2.31862c1.4263,1.21329 2.7736,8.80509 3.77321,11.65571c0.9282,2.64697 6.63712,-9.36293 7.44752,-6.93753c1.22005,3.65141 -1.49993,10.3665 -0.74288,12.12948c0.79909,1.86088 2.2649,0.58791 2.82694,2.64249c0.59496,2.17491 2.43343,-5.85751 3.11716,-3.67919c0.2396,0.76336 0.3374,7.87023 0.19018,10.0957c-0.04369,0.66045 4.72686,-8.60242 5.38043,-5.5027c0.75317,3.57211 -2.57695,19.75558 -2.3036,23.93024c0.78259,11.95168 -0.63845,24.14615 -2.50817,27.72646z" fill="url(#color-7)"/><path d="M180.50346,74.3457c10.55834,20.10061 2.47985,33.76588 -8.93457,37.02883c-6.41416,1.83357 -14.76525,13.23421 -24.11089,9.59943c-7.28555,-2.83356 -15.79625,-19.14964 -20.42149,-27.95503c-10.55834,-20.10061 -13.5566,-54.33697 -2.14218,-57.59993c10.84681,-3.1007 45.40493,12.76321 56.09173,31.23001c0.55924,0.96636 -1.00764,6.69713 -0.48261,7.69668z" fill="url(#color-8)"/><path d="M173.02242,88.21209c-1.48115,2.83624 -1.08557,18.30135 -2.16115,20.93311c-3.4779,8.50983 -6.32028,7.81368 -13.66277,7.81368c-1.27456,0 -2.51727,-0.38669 -3.74175,-1.05897c-0.78892,-0.43314 -9.75918,-2.44739 -10.1119,-4.46759c-0.26138,-1.49704 8.25228,-2.99733 7.14539,-3.8599c-2.30521,-1.79638 -8.23664,-0.03565 -9.43815,-1.45565c-1.46577,-1.73234 2.23883,-4.75337 1.30946,-6.357c-0.80376,-1.38688 -8.62333,-2.95644 -9.44637,-5.6851c-0.79212,-2.62616 5.402,-3.23895 5.13421,-5.04765c-0.24059,-1.625 -4.58678,-1.19916 -4.58678,-2.9248c0,-0.97482 3.18046,-4.73699 0.65464,-7.22704c-3.89372,-3.83859 -8.81319,-5.77721 -8.6678,-7.81291c0.07895,-1.10544 5.8836,-1.80515 8.55561,-1.80047c2.23108,0.00391 -2.41416,-6.34827 -2.66809,-7.9943c-0.73048,-4.73498 -3.4959,-5.73466 -1.74616,-7.66714c1.88,-2.07633 12.7842,12.21087 12.24138,4.42966c-0.12592,-1.80501 -8.41069,-8.84477 -8.06254,-9.6592c1.62237,-3.79526 21.1606,14.25924 22.37392,14.25924c0.95727,0 -6.74927,-8.85754 -6.09765,-10.66946c0.66385,-1.84592 7.20629,6.3168 10.22668,7.04388c2.22507,0.53562 3.72878,-4.47237 4.33826,-4.06758c1.6589,1.10177 0.98645,3.89775 2.72797,8.86408c0.60915,1.73714 4.35576,-3.37536 4.88761,-1.78363c0.80069,2.39633 -1.67669,11.30335 -1.17985,12.46034c0.52442,1.22124 0.44791,-0.65265 0.81677,0.69571c0.52728,1.92752 8.77374,-8.68663 8.40141,-3.05839c-0.15632,2.36293 -5.21476,12.21448 -7.24233,16.09706z" fill="url(#color-9)"/><path d="M172.47874,91.7651c-1.0537,2.01771 -0.77228,13.01965 -1.53745,14.8919c-2.47419,6.05393 -4.49627,5.55868 -9.71975,5.55868c-0.90673,0 -1.79079,-0.27509 -2.6619,-0.75335c-0.56124,-0.30814 -6.94272,-1.74109 -7.19364,-3.17826c-0.18595,-1.065 5.87071,-2.13231 5.08326,-2.74595c-1.63993,-1.27795 -5.85958,-0.02536 -6.71433,-1.03556c-1.04276,-1.23239 1.59271,-3.38156 0.93155,-4.52239c-0.5718,-0.98664 -6.13467,-2.10322 -6.72018,-4.0444c-0.56352,-1.86826 3.843,-2.3042 3.6525,-3.59091c-0.17116,-1.15603 -7.76593,-1.97881 -7.76593,-3.20643c0,-0.69349 6.76547,-2.24419 4.96859,-4.01562c-2.77001,-2.73078 -6.26974,-4.10993 -6.1663,-5.55814c0.05617,-0.78641 4.18562,0.96725 6.0865,0.97058c6.15298,0.01078 -4.81781,-11.54036 -3.14032,-13.39304c1.33744,-1.47711 12.84713,13.56498 12.46096,8.0294c-0.08958,-1.28409 -2.23099,-10.41984 -1.98332,-10.99923c1.15416,-2.69996 7.54893,9.3936 8.41209,9.3936c1.88589,0 2.5476,-8.03646 4.14746,-6.97391c1.18015,0.7838 2.57796,4.27383 3.81688,7.8069c0.43335,1.23581 3.09871,-2.40124 3.47707,-1.26888c0.56961,1.70475 -1.1928,8.04124 -0.83935,8.86434c0.37308,0.8688 0.31865,-0.4643 0.58105,0.49493c0.37511,1.37125 6.24167,-6.1797 5.97679,-2.17575c-0.1112,1.681 -3.7098,8.68943 -5.15222,11.45151z" fill="url(#color-10)"/></g><path d="M321.51169,120.75194c0,0.39278 4.31407,-0.02747 10.24044,3.00659c5.94849,3.04538 13.51255,9.54893 15.23001,12.0009c1.95727,2.79433 -9.48896,-0.77643 -12.64022,0.36381c-3.18763,1.15341 15.43035,8.7682 15.37207,9.24389c-0.23344,1.90517 -13.27646,1.45331 -17.62361,2.82395c-3.26878,1.03063 10.18767,2.68237 9.58825,4.05643c-0.5893,1.35086 -6.82659,3.56675 -9.62197,5.18018c-2.82156,1.62854 4.85257,6.18203 3.94843,7.48112c-1.05667,1.51826 -9.26739,-0.51567 -10.51264,0.95079c-1.44092,1.69689 6.40495,5.70903 4.73679,7.32846c-0.47703,0.46309 -3.58036,-0.90745 -6.54817,-1.06955c-2.6584,-0.1452 -5.20806,0.9116 -5.664,1.31473c-20.50158,18.12658 -54.20196,30.51406 -80.39519,30.51406c-23.99005,0 -52.16533,-9.28178 -71.78689,-23.78066c-1.60062,-1.18274 -6.08405,4.6552 -7.56391,3.40523c-0.76144,-0.64315 2.16968,-11.75163 -1.14533,-10.88224c-4.71613,1.23684 -13.11407,7.6203 -14.07299,6.64849c-1.00343,-1.01692 9.20668,-11.45848 8.29139,-12.50933c-0.83897,-0.96322 0.24567,-1.57924 -2.7197,-1.29399c-6.07455,0.58433 -16.10474,4.83525 -17.26368,2.70382c-0.831,-1.52831 12.55407,-11.90068 11.94198,-13.47623c-0.92617,-2.384 -15.11504,2.25291 -15.49218,-0.18881c-0.23577,-1.52641 12.57763,-12.46908 12.57763,-14.01092c0,-0.19033 -13.97117,2.36229 -12.28309,-1.097c0.70446,-1.44362 8.18599,-2.12504 10.22839,-4.12864c3.34963,-3.28599 -3.43226,-4.0257 -8.10787,-2.80332c-2.3343,0.61027 4.91668,-3.95106 11.41148,-7.91078c2.05292,-1.25162 -4.20099,-3.61902 -2.62575,-4.5681c2.02584,-1.22057 11.61784,-0.86427 11.61878,-0.89511c0.04342,-1.41896 0.39275,-3.95706 0.92508,-6.17651c0.35591,-1.48391 0.79363,-2.50025 1.27642,-4.14665c1.75429,-5.9825 4.10365,-12.52094 5.28554,-15.85983c6.06209,-17.12562 22.91094,-30.46345 43.29248,-37.56516c1.67669,-0.58422 2.78934,-7.00573 4.50981,-7.50418c0.68524,-0.19853 2.71593,4.92358 4.31173,4.06058c2.389,-1.29196 3.94513,-6.93628 4.99216,-7.18101c1.16108,-0.27139 1.40653,8.059 4.02944,5.7985c2.69695,-2.32432 4.24513,-7.59665 5.46296,-7.79212c2.42651,-0.38947 -0.88768,7.53813 1.6915,7.32362c3.03412,-0.25234 20.78618,-15.66793 23.65542,-15.66793c2.17376,0 -9.70378,15.35581 -7.43008,15.49615c1.86117,0.11488 12.09001,-6.77791 14.11304,-6.56647c2.55306,0.26683 -3.08459,7.66683 -0.6733,8.09151c15.18769,2.67486 30.40165,9.11385 40.96506,18.70925c9.03811,8.20988 10.68083,21.23284 14.60121,30.6335c0.3386,0.81193 7.20789,3.42649 7.65265,5.58486c0.55602,2.69829 -5.28834,5.01454 -4.63794,6.00878c1.07072,1.63679 16.32625,1.94917 17.36771,2.6311c1.98912,1.30243 -10.50934,2.39606 -10.50934,5.71424z" fill="url(#color-11)" stroke="none" stroke-width="0"/><path d="M314.7836,109.16646c0,7.9072 -8.02879,17.60256 -24.16637,20.69306c-15.78313,3.02262 -39.51435,-0.47703 -54.19849,-0.14299c-0.82155,0.01869 -1.6477,0.02813 -2.47808,0.02813c-10.70213,0 -36.32675,3.38738 -50.06263,0.90239c-11.95506,-2.16282 -19.24196,-6.97485 -23.83103,-10.81119c-4.70561,-3.93377 0.30772,-14.17881 3.29537,-19.23406c0.40038,-0.67747 4.16009,-11.93456 4.16009,-12.60149c0,-16.0734 35.59027,-16.46256 66.4382,-16.46256c11.04496,0 43.90923,-2.50557 54.7543,1.05426c19.44456,6.38257 26.08864,26.25606 26.08864,36.57445z" fill="url(#color-12)" stroke="none" stroke-width="0"/><path d="M295.13629,68.8514c15.50004,-5.83077 23.26779,33.46517 26.64048,42.43088c3.3727,8.96571 1.25612,28.10934 -14.24393,33.94011c-15.50004,5.83077 -54.55898,-14.78423 -57.93168,-23.74994c-3.3727,-8.96571 30.03508,-46.79029 45.53512,-52.62105z" data-paper-data="{&quot;index&quot;:null}" fill="url(#color-13)" stroke="none" stroke-width="0"/><path d="M227.33565,116.87604c-3.10383,9.0623 -41.53064,30.83291 -57.19767,25.46696c-15.66703,-5.36595 -18.35355,-24.43795 -15.24972,-33.50024c1.85128,-5.40521 4.94364,-21.64231 10.46238,-32.72842c3.7339,-7.50071 8.5785,-12.64346 14.90093,-10.47803c15.66703,5.36595 50.18792,42.17744 47.08408,51.23975z" fill="url(#color-14)" stroke="none" stroke-width="0"/><path d="M317.78046,151.41933c2.84655,0.40841 4.37406,8.23076 5.79476,13.57413c1.60403,6.03292 -20.6461,17.90042 -26.88112,21.57981c-7.29478,4.30476 -39.21487,17.29081 -46.74246,19.98094c-6.72202,2.40224 -7.58463,0.77249 -12.01097,0.77249c-5.08935,0 -21.172,-1.25901 -32.40514,-7.27156c-4.48431,-2.40023 -21.11151,-8.38593 -25.01075,-10.55546c-14.19309,-13.04439 -19.99436,-9.72237 -19.18175,-18.09457c0.08195,-0.8443 -9.7831,-1.82708 -7.05004,-3.34512c2.68104,-1.48914 -1.28245,-5.45901 -0.69476,-5.73145c3.33589,-1.54641 8.40543,-7.46194 10.66929,-8.53277c6.91325,-3.27005 17.5641,-14.2133 26.64106,-17.56698c18.02561,0.40626 36.45235,10.68618 47.17906,10.68618c9.13335,0 17.83869,-8.08929 33.9129,-9.49089c0.60836,0.17045 19.64029,0.94356 20.20015,1.10667c11.70207,3.40928 6.60896,6.40875 19.24643,8.22191z" fill="#ffffff" stroke="none" stroke-width="0"/><path d="M270.30675,135.01069c0,1.84786 15.28824,-0.38548 16.15033,4.06c0.44559,2.29771 -9.92484,11.50961 -13.59069,13.18833c-0.61597,0.28207 -7.54919,2.64066 -14.11097,3.97443c-3.47177,0.70568 -5.45971,-0.43554 -5.80662,-0.33492c-2.4707,0.71665 -9.66215,-2.10785 -12.21537,-2.10785c-3.07547,0 -15.42278,2.47124 -18.19006,1.35543c-2.01627,-0.81299 -15.16131,-1.99352 -17.40383,-3.3989c-1.73304,-1.08609 -13.69407,-9.52712 -14.51109,-10.76729c-3.95168,-5.99837 12.06422,-5.89629 12.06422,-7.88006c0,-3.65304 23.08667,7.79032 38.51064,7.79032c15.42397,0 29.10346,-9.53253 29.10346,-5.87949z" fill="#8a4b36" stroke="#004141" stroke-width="0"/><path d="M287.55578,138.30807c0,3.28747 -12.42549,12.48665 -30.04719,14.1309c-2.39471,0.22345 -16.51336,-3.69725 -18.33572,-3.69725c-3.34741,0 -12.58957,3.18622 -17.08696,2.5197c-5.29792,-0.78516 -11.15077,-1.40461 -15.93892,-2.99062c-9.64353,-3.19429 -16.4964,-8.01702 -16.4964,-9.96396c0,-3.73422 31.53451,-12.49269 46.76696,-12.49269c15.23246,0 51.13823,8.75969 51.13823,12.49391z" fill="#303030" stroke="#004141" stroke-width="0.5"/><path d="M239.33707,148.19596c0,0 -1.94709,-2.2328 -1.88263,-2.93981c0.0272,-0.2984 0.72337,1.16692 1.24037,0.8796c0.9918,-0.55116 2.11213,-2.77641 2.11213,-2.77641c0,0 0.78553,4.32749 1.98433,4.32749c0.39037,0 1.23435,-5.34573 1.61686,-5.34573c0.52182,0 0.06557,6.40117 1.33441,6.19839c1.10955,-0.17734 1.12596,-5.43471 2.0463,-5.43471c0.66642,0 1.65503,5.35109 2.35563,5.3603c0.83528,0.01097 1.23806,-5.82751 2.05251,-5.80838c0.60736,0.01427 3.39167,5.74051 3.95938,5.78642c1.21498,0.09828 0.69831,-8.56322 0.59556,-5.70076c-0.05832,1.6249 2.29349,7.20632 2.29349,7.20632c0,0 0.57491,-7.93419 0.87023,-7.14376c0.22313,0.59721 -0.00036,4.88195 -0.00036,4.88195c0,0 1.28938,-3.50974 2.73413,-3.10079c1.78773,0.50602 3.70711,4.98844 2.45168,5.4639c-0.9431,0.35719 -3.361,1.31073 -6.06238,1.49617c-4.25749,0.29225 -9.21909,-0.29547 -10.22097,-0.29547c-1.47071,0 -3.03481,-1.52051 -5.00695,-2.26994c-2.04572,-0.77741 -4.47372,-0.78475 -4.47372,-0.78475z" data-paper-data="{&quot;index&quot;:null}" fill="#bbbbbb" stroke="#003131" stroke-width="0.5"/><path d="M219.03707,150.88687c0,0 -4.74709,-3.21493 -4.68263,-3.99188c0.0272,-0.32791 4.92337,-0.24018 5.44037,-0.55591c0.9918,-0.60569 2.11213,-3.05106 2.11213,-3.05106c0,0 0.78553,4.75558 1.98433,4.75558c0.39037,0 1.23435,-5.87455 1.61686,-5.87455c0.52182,0 0.06557,7.0344 1.33441,6.81156c1.10955,-0.19488 1.12596,-5.97233 2.0463,-5.97233c0.66642,0 1.65503,5.88044 2.35563,5.89055c0.83528,0.01205 1.23806,-6.40399 2.05251,-6.38296c0.60736,0.01568 1.79167,5.92774 2.35938,5.97819c1.21498,0.108 2.29831,-9.02969 2.19556,-5.88407c-0.05832,1.78564 1.69349,4.87413 1.69349,4.87413c0,0 1.17491,-5.67401 1.47023,-4.80539c0.22313,0.65628 -0.00036,5.36488 -0.00036,5.36488c0,0 -5.9442,0.89085 -8.2142,1.83561c-2.42946,1.01115 -1.24578,2.08074 -2.88334,2.08074c-1.47071,0 -3.63481,-0.52902 -5.60695,-1.35259c-2.04572,-0.8543 -3.87372,1.04078 -3.87372,1.04078z" data-paper-data="{&quot;index&quot;:null}" fill="#cccccc" stroke="#003131" stroke-width="0.5"/><path d="M239.13707,142.81979c0,0 -0.972,-3.57837 1.07372,-4.37982c1.97214,-0.77261 6.93624,1.23066 8.40695,1.23066c1.63756,0 4.25388,-0.06782 6.68334,0.88076c2.27,0.8863 4.4142,2.79328 4.4142,2.79328c0,0 0.22349,4.41724 0.00036,5.03292c-0.29532,0.81488 -1.47023,-4.50804 -1.47023,-4.50804c0,0 -1.75181,2.89738 -1.69349,4.57254c0.10275,2.95098 -0.98058,-5.62129 -2.19556,-5.51997c-0.56771,0.04733 -1.75202,5.59356 -2.35938,5.60828c-0.81445,0.01973 -1.21723,-5.9993 -2.05251,-5.98799c-0.7006,0.00947 -1.68921,5.52606 -2.35563,5.52606c-0.92034,0 -0.93675,-5.41996 -2.0463,-5.60279c-1.26884,-0.20905 -0.81259,6.39006 -1.33441,6.39006c-0.38251,0 -1.22649,-5.51105 -1.61686,-5.51105c-1.1988,0 -1.98433,4.46132 -1.98433,4.46132c0,0 -1.12033,-2.29406 -2.11213,-2.86226c-0.517,-0.2962 -1.21317,1.21442 -1.24037,0.9068c-0.06446,-0.72887 1.88263,-3.03071 1.88263,-3.03071z" data-paper-data="{&quot;index&quot;:null}" fill="#c5c5c5" stroke="#003131" stroke-width="0.5"/><path d="M226.65156,123.8026l-0.29397,-3.40835c0,0 2.43401,-4.22328 3.40853,-4.19541c3.1887,0.09121 20.18352,0.33447 20.18352,0.33447l3.73372,3.82396c0,0 -2.89965,4.24394 -6.59602,5.86077c-0.4637,0.20282 0.57278,0.16914 -0.84556,1.28235c-1.89398,1.48653 -6.32345,4.18401 -6.80232,4.18401c-1.70515,0 -4.94945,-1.98307 -6.63849,-3.82239c-1.82667,-1.98919 -6.14939,-4.05942 -6.14939,-4.05942z" fill="url(#color-15)" stroke="none" stroke-width="0"/><path d="M261.07918,138.75387c1.54781,0 1.33269,0.98562 1.33269,5.18794c0,4.20232 -2.43064,7.95486 -4.5664,10.54883c-1.07692,1.30796 -1.33268,-9.97806 -1.33268,-14.1804c0,-4.20232 3.01859,-1.55638 4.5664,-1.55638z" data-paper-data="{&quot;index&quot;:null}" fill="#ffffff" stroke="#003131" stroke-width="0.5"/><path d="M218.94861,145.13532c0,0 1.77748,-1.02114 3.78374,-1.85099c1.9341,-0.8 4.07123,-1.40685 5.53779,-1.55923c1.63294,-0.16968 2.23903,-2.70166 4.70152,-2.22206c0.80976,0.15771 4.60929,-0.41373 5.3055,-0.14714c1.28202,0.4909 1.21368,4.05188 1.21368,4.05188c0,0 0.40857,3.38238 0.21195,3.88016c-0.26022,0.65884 -1.45561,-2.49498 -1.45561,-2.49498c0,0 -1.82506,1.58707 -1.69647,2.87251c0.22653,2.26445 -1.21415,-4.23222 -2.42144,-4.02821c-0.56412,0.09531 -1.51191,4.49398 -2.11694,4.56825c-0.81133,0.0996 -1.46602,-4.49912 -2.29847,-4.40386c-0.69823,0.0799 -1.45212,4.43542 -2.11666,4.50448c-0.91774,0.09536 -1.16198,-4.08153 -2.27608,-4.10751c-1.27405,-0.0297 -0.54164,5.01071 -1.06199,5.06478c-0.38143,0.03963 -1.45473,-4.12174 -1.844,-4.08129c-1.19542,0.12421 -1.79116,3.64512 -1.79116,3.64512c0,0 -1.21362,-1.65255 -2.22651,-1.98785c-0.528,-0.17479 -1.15869,1.06198 -1.19875,0.82763c-0.09492,-0.55526 1.7499,-2.53164 1.7499,-2.53164z" data-paper-data="{&quot;index&quot;:null}" fill="#bfbfbf" stroke="#003131" stroke-width="0.5"/><path d="M222.92689,118.59604c0,7.4132 -5.13469,9.56202 -12.55405,10.15691c-1.68453,0.13506 -3.48684,0.19002 -5.37356,0.20832c-1.33655,0.01296 -6.53713,5.35865 -7.94655,5.35024c-1.34603,-0.00803 1.10179,-5.36992 -0.28956,-5.36992c-0.61894,0 -6.13862,6.58572 -7.89456,7.31823c-2.14904,0.8965 3.14635,-7.62663 1.37821,-7.87435c-1.87807,-0.26314 -9.31315,6.64217 -10.31771,6.41738c-2.30869,-0.51662 4.64583,-8.12863 2.13537,-8.12805c-2.71599,0.00063 -6.82886,3.24884 -8.27032,2.29208c-1.0427,-0.69209 5.03863,-6.08841 4.14289,-6.90572c-0.77981,-0.71153 -7.37976,2.45666 -8.0345,1.66141c-1.08492,-1.31771 1.8888,-4.79652 2.32081,-7.05825c0.64931,-3.39938 -0.74199,-5.84595 -0.74199,-8.4138c0,-2.03885 0.51005,-4.15645 1.42745,-6.25981c0.29117,-0.66758 -0.80858,-4.06489 0.2043,-5.33347c1.06967,-1.33969 4.25829,-0.55196 4.72932,-1.23745c1.09522,-1.59388 -4.36426,-3.14224 -2.90423,-4.60106c0.51458,-0.51415 5.16444,1.48002 5.71617,0.99004c1.0355,-0.91962 -1.68899,-5.36069 -0.54421,-6.17561c1.06082,-0.75516 3.5686,1.63633 5.80638,2.02493c1.45149,0.25206 -2.20816,-4.93924 -1.45239,-5.30336c1.21396,-0.58487 7.44982,2.82731 8.69979,2.39966c0.96416,-0.32987 -2.76832,-4.93414 -1.79608,-5.21516c1.80694,-0.5223 8.3214,3.38253 10.09888,3.38253c13.96275,0 21.46013,24.2469 21.46013,35.67428z" fill="#fff9d9" stroke="none" stroke-width="NaN"/><path d="M223.45816,140.31902c0,2.18717 0.37659,5.93843 0.51985,9.034c0.13207,2.85382 0.06582,5.15036 -0.67663,5.15036c-1.54781,0 -5.44833,-7.9051 -5.44833,-12.1086c0,-4.2035 1.25475,-3.80556 2.80256,-3.80556c1.54781,0 2.80256,-2.4737 2.80256,1.7298z" fill="#ffffff" stroke="#003131" stroke-width="0.5"/><path d="M224.05293,102.01528c1.20889,3.31693 2.7823,15.87483 1.96029,18.26312c-0.99154,2.88084 -2.71869,0.13945 -6.207,1.19783c-3.79986,1.15292 -8.95896,3.39791 -14.01869,3.39791c-9.14107,0 -20.04839,-1.66684 -26.55466,-5.99487c-3.14192,-2.09003 -5.6952,-4.06001 -5.6952,-8.17121c0,-12.6246 12.13037,-26.07844 25.68574,-26.07844c13.55536,0 19.407,2.50732 24.82954,17.38563z" fill="#535353" stroke="none" stroke-width="0"/><path d="M225.22491,114.34414c0,5.75056 1.18903,4.06212 -3.73434,4.81934c-3.37004,0.51832 -14.31399,4.19597 -18.54548,4.19597c-10.41335,0 -24.84839,-4.37988 -24.84839,-14.06669c0,-5.60458 4.4549,-11.86477 11.18873,-16.41185c4.90473,-3.31198 11.55443,-4.60048 15.94285,-4.60048c10.41335,0 19.99664,16.37691 19.99664,26.06372z" fill="#ffffff" stroke="#005e5e" stroke-width="0.5"/><g><path d="M193.89922,121.38857c-5.64581,-5.49959 -5.58599,-14.71778 0.13357,-20.58941c5.71957,-5.87162 14.93301,-6.17325 20.57882,-0.67365c5.64581,5.49959 5.58599,14.71778 -0.13357,20.58941c-5.71957,5.87162 -14.93301,6.17325 -20.57882,0.67365z" fill="#c6c6c6" stroke="#001414" stroke-width="0.5"/><path d="M193.50599,118.22154c-4.19001,-3.79708 -2.05287,-7.22148 -1.38318,-9.62815c0.54264,-1.95001 -1.14474,-2.79111 2.08978,-6.11163c7.22649,-7.41862 11.0999,-9.02828 18.42217,-1.89564c7.32226,7.13263 7.3157,12.50898 0.08921,19.92761c-7.22649,7.41862 -11.90688,4.33328 -19.21797,-2.29219z" fill="url(#color-16)" stroke="none" stroke-width="0"/><path d="M198.57661,115.21943c-2.68057,-2.61115 -2.83531,-6.79985 -0.3456,-9.35575c2.4897,-2.55589 6.68101,-2.51111 9.36159,0.10005c2.68057,2.61115 2.83531,6.79985 0.3456,9.35575c-2.4897,2.55589 -6.68101,2.51111 -9.36159,-0.10005z" fill="#171717" stroke="none" stroke-width="0"/><g stroke="none" stroke-width="0"><path d="M198.95481,123.38814c-2.97035,-2.89342 -3.08727,-7.59095 -0.26111,-10.49224c2.82614,-2.90128 7.52514,-2.90765 10.49548,-0.01422c2.97035,2.89342 3.08727,7.59095 0.26111,10.49224c-2.82614,2.90128 -7.52514,2.90765 -10.49548,0.01422z" fill="url(#color-17)"/><path d="M201.15437,121.63059c-1.31248,-1.27849 -1.23094,-3.49089 0.18212,-4.94152c1.41307,-1.45063 3.62256,-1.59019 4.93504,-0.31169c1.31248,1.27849 1.23094,3.49089 -0.18212,4.94152c-1.41307,1.45063 -3.62256,1.59019 -4.93504,0.31169z" fill="#ffffff"/></g></g><path d="M277.9457,83.4676c1.77748,0 8.29193,-3.69872 10.09888,-3.20399c0.97224,0.26619 -2.76024,4.62742 -1.79608,4.93988c1.24997,0.40508 7.48583,-2.82699 8.6998,-2.27299c0.75577,0.3449 -2.90388,5.26218 -1.45239,5.02342c2.23779,-0.36809 4.74555,-2.63336 5.80638,-1.91806c1.14478,0.77191 -1.57971,4.97856 -0.54421,5.84963c0.55173,0.46412 5.20159,-1.42479 5.71617,-0.93778c1.46002,1.38181 -3.99946,2.84845 -2.90423,4.35818c0.47103,0.64931 3.65965,-0.09684 4.72932,1.17213c1.01288,1.2016 -0.08686,4.4196 0.20431,5.05194c0.91739,1.99233 1.42744,3.99816 1.42744,5.92938c0,2.4323 -1.39129,4.74973 -0.74198,7.96968c0.43201,2.14234 3.40573,5.43752 2.3208,6.68568c-0.65475,0.75327 -7.25469,-2.24769 -8.0345,-1.57372c-0.89575,0.77417 5.18558,5.88566 4.14289,6.54121c-1.44146,0.90626 -5.55433,-2.17048 -8.27032,-2.17109c-2.51046,-0.00055 4.44406,7.20967 2.13537,7.69901c-1.00455,0.21293 -8.43964,-6.32788 -10.31771,-6.07864c-1.76814,0.23465 3.52726,8.30788 1.37822,7.45871c-1.75593,-0.69384 -7.27562,-6.93193 -7.89456,-6.93193c-1.39135,0 1.05647,5.07885 -0.28956,5.08647c-1.40942,0.00798 -6.61,-5.05555 -7.94655,-5.06783c-1.88673,-0.01732 -3.68903,-0.06939 -5.37356,-0.19733c-7.41936,-0.5635 -12.55404,-2.59886 -12.55404,-9.62078c0,-10.82418 7.49738,-33.79122 21.46013,-33.79122z" data-paper-data="{&quot;index&quot;:null}" fill="#fff9d9" stroke="none" stroke-width="NaN"/><path d="M280.79632,87.0775c13.08643,0 24.79717,13.02453 24.79717,25.24631c0,3.98001 -2.46496,5.88711 -5.49819,7.91046c-6.28119,4.18992 -16.81118,5.80359 -25.63603,5.80359c-4.8847,0 -9.86531,-2.17337 -13.53374,-3.28948c-3.36764,-1.02462 -5.03504,1.6293 -5.99228,-1.15962c-0.79357,-2.31209 0.7254,-14.46928 1.89247,-17.68039c5.23495,-14.40355 10.88417,-16.83088 23.97059,-16.83088z" data-paper-data="{&quot;index&quot;:null}" fill="#535353" stroke="none" stroke-width="0"/><path d="M276.35811,89.87525c4.18706,0 10.53167,1.26639 15.21136,4.52149c6.42487,4.46903 10.67537,10.62175 10.67537,16.13011c0,9.52052 -13.77273,13.82521 -23.70832,13.82521c-4.03735,0 -14.47916,-3.61451 -17.69459,-4.12393c-4.69747,-0.74422 -3.563,0.91523 -3.563,-4.7366c0,-9.52052 9.14358,-25.61628 19.07916,-25.61628z" data-paper-data="{&quot;index&quot;:null}" fill="#ffffff" stroke="#005e5e" stroke-width="0.5"/><g><path d="M265.5652,120.63726c-5.59346,-5.29707 -5.44139,-14.03623 0.33966,-19.51946c5.78105,-5.48321 15.00191,-5.63411 20.59537,-0.33704c5.59346,5.29707 5.44139,14.03623 -0.33966,19.51946c-5.78105,5.48321 -15.00191,5.63411 -20.59537,0.33704z" fill="#c6c6c6" stroke="#001414" stroke-width="0.5"/><path d="M265.20348,117.62872c-4.15401,-3.66153 -1.98161,-6.87699 -1.28749,-9.149c0.56241,-1.84091 -1.11735,-2.66312 2.15194,-5.76398c7.30417,-6.92787 11.19552,-8.39726 18.44991,-1.52727c7.25439,6.86999 7.19402,11.96737 -0.11015,18.89525c-7.30417,6.92787 -11.95594,3.93396 -19.2042,-2.45501z" fill="url(#color-18)" stroke="none" stroke-width="0"/><path d="M270.30655,114.85666c-2.65572,-2.515 -2.7686,-6.48869 -0.25214,-8.87551c2.51645,-2.3868 6.70934,-2.28292 9.36505,0.23207c2.65572,2.515 2.7686,6.48869 0.25214,8.87551c-2.51645,2.3868 -6.70934,2.28292 -9.36505,-0.23207z" fill="#171717" stroke="none" stroke-width="0"/><g stroke="none" stroke-width="0"><path d="M270.6032,122.60721c-2.94282,-2.78688 -3.01277,-7.24247 -0.15626,-9.95182c2.85653,-2.70937 7.55781,-2.6465 10.50063,0.14038c2.94282,2.78688 3.01277,7.24247 0.15626,9.95182c-2.85653,2.70937 -7.55781,2.6465 -10.50063,-0.14038z" fill="url(#color-19)"/><path d="M272.82139,120.97305c-1.30031,-1.23142 -1.1966,-3.32785 0.23167,-4.68253c1.42826,-1.35468 3.64021,-1.4546 4.94052,-0.22319c1.30031,1.23142 1.1966,3.32785 -0.23167,4.68253c-1.42826,1.35468 -3.64021,1.4546 -4.94052,0.22319z" fill="#ffffff"/></g></g><path d="M258.86582,194.22155c-0.72587,2.10849 -17.89914,14.19902 -23.43501,13.92403c-13.00473,-0.64599 -36.75176,-10.70461 -45.043,-13.55897c-10.20109,-3.51185 -33.31743,-16.19241 -36.07108,-24.32255c-0.43718,-1.29078 6.13753,-3.11673 6.47062,-4.08427c2.43108,-7.0617 1.68311,-14.12449 13.50378,-10.05508c3.76359,1.29566 12.60353,8.35166 23.28171,13.50684c11.43673,5.5214 29.43291,4.5504 39.35806,7.80105c9.91333,3.24678 11.76295,10.71705 10.93492,13.12227z" fill="url(#color-20)" stroke="none" stroke-width="0"/><path d="M272.18039,177.26952c11.4307,-5.06235 46.44811,-23.84145 49.47237,-17.01272c1.38133,3.11903 3.78936,7.93032 -3.05885,13.80616c-8.14506,6.98855 -26.3436,15.06842 -32.55331,17.81853c-8.01771,3.55083 -29.7456,14.55143 -42.64791,16.30378c-5.49227,0.74594 -10.16797,-3.78996 -11.07096,-5.82888c-0.36141,-0.81607 2.85524,-17.34689 3.53646,-18.24462c5.01913,-6.61436 12.92419,-1.7182 22.98886,-6.17558z" data-paper-data="{&quot;index&quot;:null}" fill="url(#color-21)" stroke="none" stroke-width="0"/><path d="M292.10888,147.99869c0,4.6463 -13.8022,22.56053 -23.83533,28.26848c-6.97057,3.96563 -17.61475,8.19965 -24.03755,8.19965c-0.54156,0 -9.27372,-1.01651 -10.14377,-1.05245c-4.57297,-0.18886 -10.95506,-2.24731 -15.49161,-3.92833c-8.79891,-3.26044 -19.19736,-10.14363 -25.31704,-15.44753c-7.49172,-6.49304 -11.69958,-16.67902 -11.69958,-20.07585c0,-3.90938 5.32575,4.42092 14.84693,12.13415c6.67898,5.41073 14.59849,9.44406 24.33559,9.56686c4.34093,0.05475 17.44895,-3.07147 19.88152,-3.07147c2.67888,0 8.7572,3.27914 15.13179,3.22514c7.14391,-0.06051 17.6599,-2.95806 21.18014,-6.49276c2.25842,-2.26769 5.4452,-8.17104 10.51493,-8.9084c7.63161,-1.10997 9.75333,2.48953 10.251,-1.95585c0.7176,-6.40985 -8.2837,3.61111 -8.2837,6.20501z" fill="url(#color-22)" stroke="none" stroke-width="0"/><path d="M219.56116,64.50695c0.38034,1.53162 1.37936,6.69661 -3.73021,8.59005c-4.85798,1.80021 -17.79295,0.85729 -21.32946,1.7355c-7.25617,1.80191 -2.53619,-0.30066 -3.27815,-3.28849c-0.74196,-2.98783 8.26997,-5.06219 15.52614,-6.8641c7.25617,-1.80191 12.06972,-3.1608 12.81168,-0.17297z" fill="url(#color-23)" stroke="none" stroke-width="0"/><path d="M266.16804,64.54596c7.06975,2.70811 15.87039,5.90711 14.75528,8.81819c-1.1151,2.91108 3.36858,5.60777 -3.70118,2.89966c-3.44565,-1.31987 -16.56206,-1.97154 -21.22182,-4.38142c-4.90107,-2.53468 -3.25845,-7.60204 -2.68682,-9.09431c1.1151,-2.91108 5.78478,-0.95022 12.85453,1.75789z" data-paper-data="{&quot;index&quot;:null}" fill="url(#color-24)" stroke="none" stroke-width="0"/><path d="M171.5697,132.99738c0,3.16914 -4.15008,5.73824 -9.26946,5.73824c-5.11938,0 -9.26946,-2.5691 -9.26946,-5.73824c0,-3.16914 4.15008,-5.73824 9.26946,-5.73824c5.11938,0 9.26946,2.5691 9.26946,5.73824z" fill="url(#color-25)" stroke="none" stroke-width="0"/><path d="M190.02684,139.49806c1.26355,2.90636 -2.48373,7.33688 -8.36977,9.89586c-5.88604,2.55897 -11.68193,2.27736 -12.94547,-0.62899c-1.26355,-2.90636 2.48373,-7.33688 8.36977,-9.89585c5.88604,-2.55897 11.68193,-2.27736 12.94548,0.62899z" fill="url(#color-26)" stroke="none" stroke-width="0"/><path d="M165.57438,139.713c2.0946,-0.76282 5.04499,2.05765 6.58988,6.29969c1.54489,4.24204 1.09926,8.29929 -0.99533,9.06211c-2.0946,0.76282 -5.04499,-2.05765 -6.58988,-6.29969c-1.54489,-4.24204 -1.09926,-8.29929 0.99533,-9.06211z" fill="url(#color-27)" stroke="none" stroke-width="0"/><path d="M167.67174,146.63844c3.07032,0.28309 4.39182,4.21649 2.95164,8.78549c-1.44017,4.569 -5.09665,8.04342 -8.16698,7.76033c-3.07032,-0.28309 -4.39182,-4.21649 -2.95165,-8.78549c1.44017,-4.569 5.09665,-8.04342 8.16698,-7.76033z" fill="url(#color-28)" stroke="none" stroke-width="0"/><path d="M159.5257,144.84427c2.11431,0.42433 2.74197,3.25774 1.40192,6.3286c-1.34005,3.07086 -4.14036,5.2163 -6.25467,4.79198c-2.11431,-0.42433 -2.74197,-3.25774 -1.40192,-6.3286c1.34005,-3.07086 4.14036,-5.2163 6.25467,-4.79198z" fill="url(#color-29)" stroke="none" stroke-width="0"/><path d="M154.40249,140.56091c1.68346,1.11098 1.23155,3.78751 -1.00938,5.9782c-2.24093,2.19069 -5.42227,3.06598 -7.10573,1.955c-1.68346,-1.11098 -1.23155,-3.78751 1.00938,-5.9782c2.24093,-2.19069 5.42227,-3.06598 7.10573,-1.955z" fill="url(#color-30)" stroke="none" stroke-width="0"/><path d="M291.34566,138.6707c1.51834,-1.86768 4.64321,-1.01452 6.97958,1.90559c2.33637,2.92011 2.99952,6.80138 1.48117,8.66906c-1.51834,1.86768 -4.64321,1.01452 -6.97958,-1.90559c-2.33637,-2.92011 -2.99952,-6.80138 -1.48117,-8.66906z" fill="url(#color-31)" stroke="none" stroke-width="0"/><path d="M304.58382,141.25368c1.30502,-1.60527 3.99084,-0.87198 5.99895,1.63786c2.00811,2.50984 2.57809,5.8458 1.27307,7.45107c-1.30502,1.60527 -3.99084,0.87198 -5.99895,-1.63786c-2.00811,-2.50984 -2.57809,-5.8458 -1.27307,-7.45107z" fill="url(#color-32)" stroke="none" stroke-width="0"/><path d="M300.80822,126.86992c1.51834,-1.86768 4.64321,-1.01451 6.97958,1.90559c2.33637,2.92011 2.99952,6.80138 1.48117,8.66906c-1.51834,1.86768 -4.64321,1.01451 -6.97958,-1.90559c-2.33637,-2.92011 -2.99952,-6.80138 -1.48117,-8.66906z" fill="url(#color-33)" stroke="none" stroke-width="0"/><path d="M316.70478,146.00238c1.07604,-1.32361 3.29061,-0.71898 4.94639,1.35048c1.65577,2.06946 2.12574,4.8201 1.0497,6.14371c-1.07604,1.32361 -3.29061,0.71898 -4.94639,-1.35048c-1.65577,-2.06946 -2.12574,-4.8201 -1.0497,-6.14371z" fill="url(#color-34)" stroke="none" stroke-width="0"/><path d="M313.80335,128.43455c1.51834,-1.86768 4.64321,-1.01451 6.97958,1.90559c2.33637,2.92011 2.99952,6.80138 1.48117,8.66906c-1.51834,1.86768 -4.64321,1.01451 -6.97958,-1.90559c-2.33637,-2.92011 -2.99952,-6.80138 -1.48117,-8.66906z" fill="url(#color-35)" stroke="none" stroke-width="0"/><path d="M269.10194,222.90735c0,12.01446 -14.35579,55.85512 -22.63602,55.85512c-2.9626,0 -0.40023,-1.48242 -4.94926,-8.4678c-8.16519,-12.53823 -17.68676,-41.43538 -17.68676,-49.15117c0,-12.01446 14.35579,14.11077 22.63602,14.11077c8.28023,0 22.63602,-24.36138 22.63602,-12.34692z" fill="url(#color-36)" stroke="none" stroke-width="0"/><g><path d="M237.36468,136.61602c0,3.08098 0.08471,1.32335 -2.68159,2.98774c-2.77139,1.66746 -16.41058,5.80026 -22.22341,5.80026c-11.61497,0 -20.22183,-2.20028 -20.22183,-8.36791c0,-1.3888 3.76762,-4.88874 5.73546,-6.25022c6.7713,-4.68481 17.98681,-8.38351 26.98637,-8.38351c8.52755,0 8.99062,3.2267 12.29137,7.10031c1.19504,1.40244 1.44697,5.14055 1.44697,6.77998z" fill="#ffffff" stroke="#004141" stroke-width="0.5"/><path d="M237.56609,132.27927c0,1.05193 2.16873,4.93847 -0.25429,6.16065c-1.94219,0.97965 -13.82419,6.01168 -15.83547,6.23628c-3.07017,0.34284 -9.00243,0.85988 -11.27434,0.85988c-3.59908,0 -12.91127,-2.0792 -16.74268,-5.36828c-2.14827,-1.84418 -1.95475,-3.98288 -1.95475,-5.12614c0,-3.18223 13.68986,-8.13801 19.30693,-8.13801c5.61708,0 20.7546,2.19338 20.7546,5.37562z" fill="url(#color-37)" stroke="none" stroke-width="0"/></g><g data-paper-data="{&quot;index&quot;:null}"><path d="M240.15451,136.28268c0,-1.63944 1.1686,-5.54421 2.36363,-6.94665c1.1898,-1.39629 0.71679,-2.35579 2.16026,-3.72256c0.53271,-0.50441 4.45191,-1.39404 4.66103,-1.58565c0.79622,-0.72957 -0.01586,-1.70876 4.30342,-1.70876c8.99956,0 18.46507,3.4487 25.23637,8.13351c1.96784,1.36148 7.73546,4.61141 7.73546,6.00021c0,6.16762 -10.60687,8.61791 -22.22184,8.61791c-5.81283,0 -19.45202,-4.1328 -22.22341,-5.80026c-2.7663,-1.66439 -2.34825,-1.24009 -2.34825,-4.32107z" fill="#ffffff" stroke="#004141" stroke-width="0.5"/><path d="M245.86977,131.94595c0,-3.18223 15.5542,-5.70895 21.17128,-5.70895c5.61707,0 19.30693,4.95577 19.30693,8.13801c0,1.14326 0.19352,3.28196 -1.95475,5.12614c-3.83141,3.28907 -11.72693,5.36828 -15.32601,5.36828c-2.27192,0 -13.12084,-1.26704 -16.19101,-1.60988c-2.01128,-0.2246 -9.47662,-3.67329 -11.41881,-4.65295c-2.42302,-1.22218 0.49571,-6.27538 0.49571,-7.32731z" fill="url(#color-38)" stroke="none" stroke-width="0"/></g><path d="M249.94963,117.92238c0,2.23533 -3.88702,5.53857 -9.40718,5.53857c-5.52016,0 -10.58308,-3.30324 -10.58308,-5.53857c0,-2.23533 4.47497,-4.04742 9.99513,-4.04742c5.52016,0 9.99513,1.81209 9.99513,4.04742z" fill="url(#color-39)" stroke="none" stroke-width="0"/><path d="M248.80264,119.26066c0,0.66549 0.50123,2.44919 -2.06331,3.71062c-1.28914,0.63409 -5.54985,1.2954 -6.60894,1.2954c-1.36254,0 -2.82113,-0.3554 -5.04546,-1.32539c-2.94406,-1.28384 -6.56653,-3.32402 -6.56653,-3.89366c0,-1.00002 7.85806,0.31953 11.02404,0.31953c3.16597,0 9.26019,-1.10653 9.26019,-0.10651z" fill="url(#color-40)" stroke="none" stroke-width="0"/><path d="M248.63137,115.78277c0,0.94119 -5.79592,1.06511 -8.23128,1.06511c-2.43537,0 -9.70115,-0.54996 -9.70115,-1.49115c0,-0.94119 7.26579,-1.9172 9.70115,-1.9172c2.43537,0 8.23128,1.40205 8.23128,2.34324z" fill="url(#color-41)" stroke="none" stroke-width="0"/></g></g></svg>