<svg version="1.1" xmlns="http://www.w3.org/2000/svg" xmlns:xlink="http://www.w3.org/1999/xlink" width="236.94975" height="267.8935" viewBox="0,0,236.94975,267.8935"><defs><radialGradient cx="241.76233" cy="218.49773" r="29.39743" gradientUnits="userSpaceOnUse" id="color-1"><stop offset="0" stop-color="#fff082"/><stop offset="1" stop-color="#ffd183"/></radialGradient><linearGradient x1="246.93086" y1="199.09149" x2="246.93086" y2="233.19251" gradientUnits="userSpaceOnUse" id="color-2"><stop offset="0" stop-color="#c48d2e"/><stop offset="1" stop-color="#c48d2e" stop-opacity="0"/></linearGradient><linearGradient x1="324.49138" y1="53.84058" x2="263.30645" y2="67.38315" gradientUnits="userSpaceOnUse" id="color-3"><stop offset="0" stop-color="#ffd183"/><stop offset="1" stop-color="#bf6e2c"/></linearGradient><linearGradient x1="321.57565" y1="57.93173" x2="263.33701" y2="70.82217" gradientUnits="userSpaceOnUse" id="color-4"><stop offset="0" stop-color="#ab4a00"/><stop offset="1" stop-color="#692900"/></linearGradient><radialGradient cx="289.97331" cy="73.73408" r="21.57698" gradientUnits="userSpaceOnUse" id="color-5"><stop offset="0" stop-color="#fff082"/><stop offset="1" stop-color="#ffd183"/></radialGradient><linearGradient x1="284.29881" y1="51.5927" x2="292.51114" y2="98.26155" gradientUnits="userSpaceOnUse" id="color-6"><stop offset="0" stop-color="#ffffff"/><stop offset="1" stop-color="#fffad8"/></linearGradient><linearGradient x1="118.03305" y1="64.91403" x2="196.61867" y2="64.91403" gradientUnits="userSpaceOnUse" id="color-7"><stop offset="0" stop-color="#ffd183"/><stop offset="1" stop-color="#bf6e2c"/></linearGradient><linearGradient x1="122.52761" y1="68.35694" x2="197.32903" y2="68.35694" gradientUnits="userSpaceOnUse" id="color-8"><stop offset="0" stop-color="#ab4a00"/><stop offset="1" stop-color="#692900"/></linearGradient><radialGradient cx="165.03351" cy="77.15715" r="27.05848" gradientUnits="userSpaceOnUse" id="color-9"><stop offset="0" stop-color="#fff082"/><stop offset="1" stop-color="#ffd183"/></radialGradient><linearGradient x1="167.23189" y1="53.77927" x2="167.23189" y2="102.22545" gradientUnits="userSpaceOnUse" id="color-10"><stop offset="0" stop-color="#ffffff"/><stop offset="1" stop-color="#fffad8"/></linearGradient><radialGradient cx="235.36397" cy="121.43808" r="86.14772" gradientUnits="userSpaceOnUse" id="color-11"><stop offset="0" stop-color="#fff082"/><stop offset="1" stop-color="#ffd183"/></radialGradient><linearGradient x1="258.71306" y1="92.70441" x2="258.71306" y2="150.91132" gradientUnits="userSpaceOnUse" id="color-12"><stop offset="0" stop-color="#d2a049" stop-opacity="0"/><stop offset="1" stop-color="#d2a049"/></linearGradient><linearGradient x1="326.58298" y1="145.24269" x2="293.57191" y2="148.68519" gradientUnits="userSpaceOnUse" id="color-13"><stop offset="0" stop-color="#c66a21" stop-opacity="0"/><stop offset="1" stop-color="#c66a21"/></linearGradient><linearGradient x1="195.45682" y1="144.26312" x2="255.42759" y2="144.26312" gradientUnits="userSpaceOnUse" id="color-14"><stop offset="0" stop-color="#c66a21" stop-opacity="0"/><stop offset="1" stop-color="#c66a21"/></linearGradient><radialGradient cx="278.5152" cy="137.42662" r="13.00429" gradientUnits="userSpaceOnUse" id="color-15"><stop offset="0" stop-color="#905b00"/><stop offset="1" stop-color="#252313"/></radialGradient><linearGradient x1="259.99255" y1="146.48482" x2="259.99255" y2="160.74257" gradientUnits="userSpaceOnUse" id="color-16"><stop offset="0" stop-color="#d0d0d0" stop-opacity="0"/><stop offset="1" stop-color="#d0d0d0"/></linearGradient><linearGradient x1="295.01878" y1="150.4836" x2="295.01878" y2="162.09559" gradientUnits="userSpaceOnUse" id="color-17"><stop offset="0" stop-color="#d0d0d0" stop-opacity="0"/><stop offset="1" stop-color="#d0d0d0"/></linearGradient><radialGradient cx="246.89529" cy="122.32822" r="12.91836" gradientUnits="userSpaceOnUse" id="color-18"><stop offset="0" stop-color="#575757"/><stop offset="1" stop-color="#575757" stop-opacity="0"/></radialGradient><radialGradient cx="250.22049" cy="119.19895" r="4.97063" gradientUnits="userSpaceOnUse" id="color-19"><stop offset="0" stop-color="#ffffff"/><stop offset="1" stop-color="#ffffff" stop-opacity="0"/></radialGradient><radialGradient cx="309.86003" cy="122.23102" r="10.45085" gradientUnits="userSpaceOnUse" id="color-20"><stop offset="0" stop-color="#575757"/><stop offset="1" stop-color="#575757" stop-opacity="0"/></radialGradient><radialGradient cx="312.55009" cy="119.14989" r="4.0212" gradientUnits="userSpaceOnUse" id="color-21"><stop offset="0" stop-color="#ffffff"/><stop offset="1" stop-color="#ffffff" stop-opacity="0"/></radialGradient><linearGradient x1="204.88145" y1="169.71101" x2="204.88145" y2="207.31763" gradientUnits="userSpaceOnUse" id="color-22"><stop offset="0" stop-color="#d0d0d0" stop-opacity="0"/><stop offset="1" stop-color="#d0d0d0"/></linearGradient><linearGradient x1="287.86348" y1="165.98396" x2="290.38607" y2="203.50587" gradientUnits="userSpaceOnUse" id="color-23"><stop offset="0" stop-color="#d0d0d0" stop-opacity="0"/><stop offset="1" stop-color="#d0d0d0"/></linearGradient><linearGradient x1="265.32676" y1="179.75413" x2="265.32676" y2="208.26964" gradientUnits="userSpaceOnUse" id="color-24"><stop offset="0" stop-color="#acacac" stop-opacity="0"/><stop offset="1" stop-color="#acacac"/></linearGradient><linearGradient x1="228.58564" y1="80.31452" x2="228.58564" y2="94.71134" gradientUnits="userSpaceOnUse" id="color-25"><stop offset="0" stop-color="#6f5318" stop-opacity="0"/><stop offset="1" stop-color="#6f5318"/></linearGradient><linearGradient x1="295.01786" y1="80.74044" x2="296.46178" y2="93.80706" gradientUnits="userSpaceOnUse" id="color-26"><stop offset="0" stop-color="#6f5318" stop-opacity="0"/><stop offset="1" stop-color="#6f5318"/></linearGradient><radialGradient cx="183.13357" cy="142.66404" r="9.26946" gradientUnits="userSpaceOnUse" id="color-27"><stop offset="0" stop-color="#9b7522"/><stop offset="1" stop-color="#9b7522" stop-opacity="0"/></radialGradient><radialGradient cx="206.03587" cy="152.13148" r="11.62126" gradientUnits="userSpaceOnUse" id="color-28"><stop offset="0" stop-color="#9b7522"/><stop offset="1" stop-color="#9b7522" stop-opacity="0"/></radialGradient><radialGradient cx="193.87164" cy="173.89389" r="8.17441" gradientUnits="userSpaceOnUse" id="color-29"><stop offset="0" stop-color="#9b7522"/><stop offset="1" stop-color="#9b7522" stop-opacity="0"/></radialGradient><radialGradient cx="183.39741" cy="161.18642" r="8.90954" gradientUnits="userSpaceOnUse" id="color-30"><stop offset="0" stop-color="#9c7f42"/><stop offset="1" stop-color="#9c7f42" stop-opacity="0"/></radialGradient><radialGradient cx="172.59934" cy="153.90455" r="6.06664" gradientUnits="userSpaceOnUse" id="color-31"><stop offset="0" stop-color="#9c7f42"/><stop offset="1" stop-color="#9c7f42" stop-opacity="0"/></radialGradient><radialGradient cx="163.67826" cy="145.36084" r="5.6743" gradientUnits="userSpaceOnUse" id="color-32"><stop offset="0" stop-color="#9c7f42"/><stop offset="1" stop-color="#9c7f42" stop-opacity="0"/></radialGradient><radialGradient cx="314.57603" cy="149.45802" r="6.7714" gradientUnits="userSpaceOnUse" id="color-33"><stop offset="0" stop-color="#9c7f42"/><stop offset="1" stop-color="#9c7f42" stop-opacity="0"/></radialGradient><radialGradient cx="323.21983" cy="154.13148" r="5.82003" gradientUnits="userSpaceOnUse" id="color-34"><stop offset="0" stop-color="#9c7f42"/><stop offset="1" stop-color="#9c7f42" stop-opacity="0"/></radialGradient><radialGradient cx="325.03859" cy="137.99058" r="6.7714" gradientUnits="userSpaceOnUse" id="color-35"><stop offset="0" stop-color="#9c7f42"/><stop offset="1" stop-color="#9c7f42" stop-opacity="0"/></radialGradient><radialGradient cx="332.03616" cy="154.91613" r="4.79886" gradientUnits="userSpaceOnUse" id="color-36"><stop offset="0" stop-color="#9c7f42"/><stop offset="1" stop-color="#9c7f42" stop-opacity="0"/></radialGradient><radialGradient cx="335.03372" cy="143.22186" r="6.7714" gradientUnits="userSpaceOnUse" id="color-37"><stop offset="0" stop-color="#9c7f42"/><stop offset="1" stop-color="#9c7f42" stop-opacity="0"/></radialGradient><linearGradient x1="246.46591" y1="235.25427" x2="246.46591" y2="278.76247" gradientUnits="userSpaceOnUse" id="color-38"><stop offset="0" stop-color="#c48d2e" stop-opacity="0"/><stop offset="1" stop-color="#c48d2e"/></linearGradient><radialGradient cx="281.2045" cy="135.03427" r="9.99513" gradientUnits="userSpaceOnUse" id="color-39"><stop offset="0" stop-color="#fff082"/><stop offset="1" stop-color="#fbbd53"/></radialGradient><linearGradient x1="280.2045" y1="137.12222" x2="280.2045" y2="142.11979" gradientUnits="userSpaceOnUse" id="color-40"><stop offset="0" stop-color="#d59527" stop-opacity="0"/><stop offset="1" stop-color="#d59527"/></linearGradient><linearGradient x1="279.73342" y1="129.27286" x2="279.73342" y2="133.97645" gradientUnits="userSpaceOnUse" id="color-41"><stop offset="0" stop-color="#d59527"/><stop offset="1" stop-color="#d59527" stop-opacity="0"/></linearGradient></defs><g transform="translate(-112.76438,-11.46086)"><g data-paper-data="{&quot;isPaintingLayer&quot;:true}" fill-rule="nonzero" stroke-linecap="butt" stroke-linejoin="miter" stroke-miterlimit="10" stroke-dasharray="" stroke-dashoffset="0" style="mix-blend-mode: normal"><path d="M243.82015,278.76641l-40.56846,-97.30944l80.54897,-4.70359c0,0 -17.97192,57.0222 -23.90991,75.86254c-3.52528,11.18518 -8.42727,26.73844 -8.42727,26.73844z" fill="url(#color-1)" stroke="none" stroke-width="0"/><path d="M265.60997,227.90097c-2.93829,13.53238 -3.30668,29.39743 -18.25936,29.39743c-8.44133,0 -7.58527,-3.02084 -12.55051,-6.83396c-0.74874,-0.575 -2.82655,-7.55521 -3.659,-8.98477c-3.42576,-5.88304 -8.34619,-16.74714 -8.34619,-20.04614c0,-1.42876 -17.77044,-31.03802 -17.24479,-32.36425c2.93879,-7.41477 28.69676,10.0222 41.38073,10.0222c13.05909,0 29.41553,-17.69521 31.96672,-9.94734c0.36993,1.12345 -13.03988,37.6159 -13.28761,38.75682z" fill="url(#color-2)" stroke="none" stroke-width="0"/><g data-paper-data="{&quot;index&quot;:null}" stroke="none" stroke-width="0"><path d="M265.16987,73.35166c-0.47288,-4.07347 -6.07655,-19.03012 -6.03516,-22.61437c0.03593,-3.11026 5.7037,4.90584 5.55422,4.27792c-0.50371,-2.11584 -1.62442,-8.98057 -1.54802,-9.76148c0.21802,-2.22839 3.15876,5.15983 3.30111,2.9516c0.13448,-2.08606 1.60929,-1.13847 1.98021,-3.08299c0.35141,-1.84223 -3.12318,-7.79386 -2.69421,-11.54326c0.28494,-2.49049 7.22438,7.99346 7.57293,5.26713c0.37537,-2.93608 0.24569,-10.5055 1.26512,-11.94545c1.68682,-2.38264 4.81052,2.30309 5.98644,0.99552c1.03355,-1.14926 2.52177,-7.76883 4.14309,-9.00585c2.39064,-1.82401 5.08473,1.85291 7.15217,1.3953c1.58799,-0.35148 2.22541,-12.69186 5.32908,-7.59095c0.40078,0.65868 1.98193,4.8304 3.24346,8.63402c0.83493,2.51738 5.00543,-10.14916 5.12547,-9.07946c1.29942,11.57893 7.09306,-2.94438 10.08992,-0.44124c3.25822,2.72145 -2.85467,10.59415 1.66538,13.64471c0.69449,0.46871 4.00845,0.0875 5.51557,-0.24916c3.49592,-0.78092 -3.1653,10.13175 -2.77642,11.73151c0.37241,1.53205 4.53376,-1.41031 4.90105,0.05998c0.33898,1.35696 -3.01146,7.04331 -4.98149,10.289c-2.66262,4.38673 4.2846,2.47793 4.53639,3.90882c0.44573,2.53299 -7.16542,9.67673 -7.06058,12.13169c0.1167,2.73248 5.4847,1.42305 5.12631,5.50733c-0.37239,4.24369 -7.30408,9.22736 -7.99781,11.49595c-0.80215,2.62312 7.92672,-3.14823 6.45578,-0.18079c-0.71665,1.44574 -5.00556,4.95242 -8.90319,8.25329c-2.66004,2.25276 -5.13783,4.40964 -6.17344,5.75012c-1.2259,1.58678 11.13301,-4.66767 11.08819,-2.90264c0.06017,3.06753 -9.7947,5.68106 -10.71535,6.54538c-0.56614,0.53151 7.35812,1.03056 6.31111,1.92245c-1.59566,1.35926 -16.46714,8.80316 -17.47438,9.0261c-9.60988,2.12703 -8.71502,5.10225 -15.46498,-6.38145c-2.08751,-3.55146 -4.99243,0.9578 -7.66355,-2.77631c-2.21288,-3.0935 -5.50059,-14.57044 -6.85439,-26.23243z" fill="url(#color-3)"/><path d="M265.15886,58.70124c6.04885,-19.82103 33.04278,-41.67295 42.88507,-40.74815c10.35733,0.97319 13.58559,34.52356 7.92404,55.89403c-2.48013,9.36167 -7.02443,26.69719 -12.8019,30.81188c-7.41113,5.27818 -16.51673,-4.11656 -22.33687,-4.66342c-10.35733,-0.97319 -19.61267,-12.60129 -13.95112,-33.97177c0.28153,-1.06269 -2.03576,-6.28534 -1.71923,-7.32257z" fill="url(#color-4)"/><path d="M266.70498,63.82958c-1.27388,-5.35097 7.60853,3.30601 7.73468,1.34895c0.08825,-1.36902 0.34019,0.45067 0.58361,-0.82547c0.23062,-1.20901 -3.40715,-9.31827 -3.12562,-11.77891c0.187,-1.63445 4.27173,2.5782 4.50048,0.78899c0.65398,-5.11522 -0.39757,-7.68078 0.84054,-9.05751c0.45488,-0.5058 2.5954,4.03258 4.41579,3.09359c2.47106,-1.27462 6.70688,-10.38169 7.58999,-8.7297c0.86684,1.62156 -4.25108,11.61928 -3.42884,11.43729c1.04216,-0.23067 14.76368,-21.33731 16.80054,-17.98973c0.43709,0.71836 -5.48562,9.07491 -5.2878,10.83764c0.85277,7.59894 7.79687,-8.23716 9.76363,-6.59442c1.83049,1.52893 -0.37536,3.01768 -0.20014,7.71783c0.06091,1.63391 -2.85225,8.63618 -0.93657,8.20825c2.29428,-0.5125 7.39869,-0.942 7.65389,0.10787c0.46996,1.93338 -3.4269,4.73615 -6.12065,9.17415c-1.7474,2.8789 1.62214,5.89839 1.78738,6.83745c0.29252,1.66234 -3.51274,2.07839 -3.44394,3.68952c0.07659,1.79325 5.5008,1.20596 5.26559,3.88637c-0.24439,2.78502 -6.6948,5.78361 -7.15008,7.27242c-0.52643,1.72148 3.16768,3.92738 2.20234,5.87482c-0.7913,1.59634 -6.18447,1.02786 -7.85998,3.19658c-0.80453,1.04136 6.76246,0.86804 6.79172,2.35985c0.03948,2.01314 -7.32391,5.65887 -7.92811,6.22611c-0.93779,0.8804 -1.93964,1.48916 -3.0344,1.73147c-6.30671,1.39592 -8.63011,2.60692 -13.05993,-4.92952c-1.36998,-2.33073 -3.65176,-17.30369 -5.40475,-19.75428c-2.3997,-3.35467 -8.41455,-11.88311 -8.94936,-14.12964z" fill="url(#color-5)"/><path d="M270.357,71.22664c-0.90624,-3.80671 5.41273,2.3519 5.50249,0.95966c0.06278,-0.97393 0.24201,0.3206 0.41519,-0.58724c0.16406,-0.86009 -2.42385,-6.62906 -2.22358,-8.37956c0.13303,-1.16275 3.03892,1.83415 3.20166,0.56129c0.46524,-3.63899 1.07426,-7.26673 1.95507,-8.24614c1.19405,-1.32772 3.12471,6.2881 4.74457,5.92957c0.74139,-0.1641 4.18404,-13.02973 5.63306,-10.64824c0.31095,0.51105 0.02025,9.71874 0.16098,10.97277c0.60667,5.40592 7.94286,-11.27249 9.34203,-10.10384c1.75491,1.4658 -5.71017,14.67887 -0.42701,13.49872c1.63216,-0.36459 4.88181,-2.83899 5.06337,-2.0921c0.33433,1.37542 -2.43792,3.36931 -4.35426,6.52653c-1.24311,2.04806 4.83083,2.25565 4.94839,2.9237c0.2081,1.18259 -6.17582,3.41906 -6.12687,4.56522c0.05448,1.27572 3.91329,0.85794 3.74596,2.76479c-0.17386,1.98128 -4.76271,4.11448 -5.0866,5.17363c-0.37451,1.22467 2.2535,2.79395 1.56676,4.17938c-0.56293,1.13564 -4.39965,0.73122 -5.59161,2.27406c-0.57234,0.74082 4.81085,0.61753 4.83165,1.67881c0.0281,1.43215 -5.21026,4.02574 -5.6401,4.42927c-0.66715,0.62632 -1.37987,1.0594 -2.15869,1.23178c-4.48661,0.99306 -6.13949,1.85456 -9.29088,-3.50688c-0.97461,-1.65809 -2.59787,-12.30991 -3.84496,-14.05328c-1.70716,-2.38652 -5.98614,-8.45369 -6.36661,-10.05188z" fill="url(#color-6)"/></g><g stroke="none" stroke-width="0"><path d="M192.84639,99.01613c-2.48984,4.32173 -7.06199,0.45865 -8.87006,4.46882c-5.84642,12.96691 -5.38739,9.79627 -17.73027,9.79627c-1.29369,0 -21.29784,-4.14881 -23.56617,-5.15405c-1.48839,-0.6596 8.19938,-2.91073 7.38385,-3.31658c-1.32619,-0.66 -14.07776,-1.09191 -14.6707,-4.17019c-0.43939,-1.75366 16.19987,1.76237 14.33916,0.44802c-1.57188,-1.11033 -5.10426,-2.71745 -8.88278,-4.38005c-5.53651,-2.43614 -11.60149,-4.99139 -12.80196,-6.27744c-2.46399,-2.63966 9.58255,1.19645 8.02025,-1.24708c-1.35114,-2.11327 -11.00457,-5.55982 -12.38812,-9.71763c-1.33157,-4.00162 5.58946,-3.88044 5.13929,-6.63645c-0.40445,-2.4761 -11.36776,-7.93065 -11.36776,-10.56011c0,-1.48539 9.00371,-1.11458 4.75776,-4.90881c-3.14152,-2.8073 -8.5205,-7.74796 -8.39664,-9.17876c0.13421,-1.5503 5.91875,0.46931 6.04586,-1.14382c0.13272,-1.68442 -10.47615,-11.11486 -5.98444,-11.10772c1.93641,0.00307 6.1162,-0.34892 6.8728,-0.97083c4.92427,-4.04765 -4.34542,-10.56191 -0.90949,-14.00165c3.16032,-3.16382 13.4821,10.06611 12.56959,-1.79055c-0.0843,-1.09536 7.82697,10.63831 8.31151,7.93838c0.73211,-4.07944 1.77929,-8.59738 2.13144,-9.34413c2.72723,-5.78305 6.19979,6.40608 8.23939,6.40608c2.65541,0 5.18607,-4.26967 8.53829,-2.97588c2.27345,0.87744 5.55329,7.16236 7.08102,8.0821c1.73817,1.04642 4.58048,-4.32623 7.18413,-2.31862c1.57351,1.21329 3.05986,8.80509 4.16264,11.65571c1.024,2.64697 7.32213,-9.36293 8.21617,-6.93753c1.34597,3.65141 -1.65474,10.3665 -0.81955,12.12948c0.88156,1.86088 2.49866,0.58791 3.1187,2.64249c0.65636,2.17491 2.68458,-5.85751 3.43888,-3.67919c0.26433,0.76336 0.37222,7.87023 0.20981,10.0957c-0.0482,0.66045 5.21471,-8.60242 5.93574,-5.5027c0.8309,3.57211 -2.84291,19.75558 -2.54135,23.93024c0.86336,11.95168 -0.70434,24.14615 -2.76703,27.72646z" fill="url(#color-7)"/><path d="M191.90754,64.3457c11.64805,20.10061 2.73579,33.76588 -9.85669,37.02883c-7.07616,1.83357 -16.28915,13.23421 -26.59934,9.59943c-8.03748,-2.83356 -17.42656,-19.14964 -22.52916,-27.95503c-11.64805,-20.10061 -14.95576,-54.33697 -2.36327,-57.59993c11.96629,-3.1007 50.0911,12.76321 61.88087,31.23001c0.61696,0.96636 -1.11164,6.69713 -0.53242,7.69668z" fill="url(#color-8)"/><path d="M183.6544,78.21208c-1.63402,2.83624 -1.19761,18.30135 -2.3842,20.93311c-3.83685,8.50983 -6.97259,7.81368 -15.07288,7.81368c-1.40611,0 -2.77707,-0.38669 -4.12793,-1.05897c-0.87034,-0.43314 -10.76641,-2.44739 -11.15553,-4.46759c-0.28836,-1.49704 9.10399,-2.99733 7.88285,-3.8599c-2.54313,-1.79638 -9.08673,-0.03565 -10.41225,-1.45565c-1.61705,-1.73234 2.4699,-4.75337 1.44461,-6.357c-0.88671,-1.38688 -9.51333,-2.95644 -10.42132,-5.6851c-0.87387,-2.62616 5.95953,-3.23895 5.6641,-5.04765c-0.26542,-1.625 -5.06017,-1.19916 -5.06017,-2.9248c0,-0.97482 3.50871,-4.73699 0.7222,-7.22704c-4.29558,-3.83859 -9.72279,-5.77721 -9.56239,-7.81291c0.0871,-1.10544 6.49084,-1.80515 9.43862,-1.80047c2.46135,0.00391 -2.66332,-6.34827 -2.94346,-7.9943c-0.80587,-4.73498 -3.85671,-5.73466 -1.92638,-7.66714c2.07403,-2.07633 14.10364,12.21087 13.50479,4.42966c-0.13892,-1.80501 -9.27874,-8.84477 -8.89466,-9.6592c1.78981,-3.79526 23.34455,14.25924 24.6831,14.25924c1.05607,0 -7.44585,-8.85754 -6.72698,-10.66946c0.73236,-1.84592 7.95004,6.3168 11.28216,7.04388c2.45472,0.53562 4.11362,-4.47237 4.78601,-4.06758c1.83011,1.10177 1.08826,3.89775 3.00952,8.86408c0.67202,1.73714 4.80531,-3.37536 5.39205,-1.78363c0.88333,2.39633 -1.84974,11.30335 -1.30162,12.46034c0.57854,1.22124 0.49414,-0.65265 0.90107,0.69571c0.5817,1.92752 9.67926,-8.68663 9.26851,-3.05839c-0.17245,2.36293 -5.75297,12.21448 -7.9898,16.09706z" fill="url(#color-9)"/><path d="M183.0546,81.76509c-1.16245,2.01771 -0.85199,13.01965 -1.69613,14.8919c-2.72955,6.05393 -4.96032,5.55868 -10.72291,5.55868c-1.00031,0 -1.97561,-0.27509 -2.93663,-0.75335c-0.61916,-0.30814 -7.65927,-1.74109 -7.93608,-3.17826c-0.20514,-1.065 6.47662,-2.13231 5.6079,-2.74595c-1.80918,-1.27795 -6.46434,-0.02536 -7.40731,-1.03556c-1.15038,-1.23239 1.75709,-3.38156 1.02769,-4.52239c-0.63081,-0.98664 -6.76782,-2.10322 -7.41376,-4.0444c-0.62168,-1.86826 4.23963,-2.3042 4.02947,-3.59091c-0.18883,-1.15603 -8.56744,-1.97881 -8.56744,-3.20643c0,-0.69349 7.46372,-2.24419 5.48139,-4.01562c-3.0559,-2.73078 -6.91683,-4.10993 -6.80271,-5.55814c0.06197,-0.78641 4.61761,0.96725 6.71468,0.97058c6.78802,0.01078 -5.31505,-11.54036 -3.46443,-13.39304c1.47548,-1.47711 14.17306,13.56498 13.74704,8.0294c-0.09883,-1.28409 -2.46125,-10.41984 -2.18802,-10.99923c1.27328,-2.69996 8.32804,9.3936 9.28029,9.3936c2.08053,0 2.81053,-8.03646 4.57551,-6.97391c1.30195,0.7838 2.84403,4.27383 4.21081,7.8069c0.47808,1.23581 3.41852,-2.40124 3.83593,-1.26888c0.6284,1.70475 -1.31591,8.04124 -0.92598,8.86434c0.41159,0.8688 0.35154,-0.4643 0.64102,0.49493c0.41382,1.37125 6.88586,-6.1797 6.59365,-2.17575c-0.12268,1.681 -4.09268,8.68943 -5.68397,11.45151z" fill="url(#color-10)"/></g><path d="M321.51169,120.75193c0,0.39278 4.31407,-0.02747 10.24044,3.00659c5.94849,3.04538 13.51255,9.54893 15.23001,12.0009c1.95727,2.79433 -9.48896,-0.77643 -12.64022,0.36381c-3.18763,1.15341 15.43035,8.7682 15.37207,9.24389c-0.23344,1.90517 -13.27646,1.45331 -17.62361,2.82395c-3.26878,1.03063 10.18767,2.68237 9.58825,4.05643c-0.5893,1.35086 -6.82659,3.56675 -9.62197,5.18018c-2.82156,1.62854 4.85257,6.18203 3.94843,7.48112c-1.05667,1.51826 -9.26739,-0.51567 -10.51264,0.95079c-1.44092,1.69689 6.40495,5.70903 4.73679,7.32846c-0.47703,0.46309 -3.58036,-0.90745 -6.54817,-1.06955c-2.6584,-0.1452 -5.20806,0.9116 -5.664,1.31473c-20.50158,18.12658 -54.20196,30.51406 -80.39519,30.51406c-23.99005,0 -52.16533,-9.28178 -71.78689,-23.78066c-1.60062,-1.18274 -6.08405,4.6552 -7.56391,3.40523c-0.76144,-0.64315 2.16968,-11.75163 -1.14533,-10.88224c-4.71613,1.23684 -13.11407,7.6203 -14.07299,6.64849c-1.00343,-1.01692 9.20668,-11.45848 8.29139,-12.50933c-0.83897,-0.96322 0.24567,-1.57924 -2.7197,-1.29399c-6.07455,0.58433 -16.10474,4.83525 -17.26368,2.70382c-0.831,-1.52831 12.55407,-11.90068 11.94198,-13.47623c-0.92617,-2.384 -15.11504,2.25291 -15.49218,-0.18881c-0.23577,-1.52641 12.57763,-12.46908 12.57763,-14.01092c0,-0.19033 -13.97117,2.36229 -12.28309,-1.097c0.70446,-1.44362 8.18599,-2.12504 10.22839,-4.12864c3.34963,-3.28599 -3.43226,-4.0257 -8.10787,-2.80332c-2.3343,0.61027 4.91668,-3.95106 11.41148,-7.91078c2.05292,-1.25162 -4.20099,-3.61902 -2.62575,-4.5681c2.02584,-1.22057 11.61784,-0.86427 11.61878,-0.89511c0.04342,-1.41896 0.39275,-3.95706 0.92508,-6.17651c0.35591,-1.48391 0.79363,-2.50025 1.27642,-4.14665c1.75429,-5.9825 4.10365,-12.52094 5.28554,-15.85983c6.06209,-17.12562 22.91094,-30.46345 43.29248,-37.56516c1.67669,-0.58422 2.78934,-7.00573 4.50981,-7.50418c0.68524,-0.19853 2.71593,4.92358 4.31173,4.06058c2.389,-1.29196 3.94513,-6.93628 4.99216,-7.18101c1.16108,-0.27139 1.40653,8.059 4.02944,5.7985c2.69695,-2.32432 4.24513,-7.59665 5.46296,-7.79212c2.42651,-0.38947 -0.88768,7.53813 1.6915,7.32362c3.03412,-0.25234 20.78618,-15.66793 23.65542,-15.66793c2.17376,0 -9.70378,15.35581 -7.43008,15.49615c1.86117,0.11488 12.09001,-6.77791 14.11304,-6.56647c2.55306,0.26683 -3.08459,7.66683 -0.6733,8.09151c15.18769,2.67486 30.40165,9.11385 40.96506,18.70925c9.03811,8.20988 10.68083,21.23284 14.60121,30.6335c0.3386,0.81193 7.20789,3.42649 7.65265,5.58486c0.55602,2.69829 -5.28834,5.01454 -4.63794,6.00878c1.07072,1.63679 16.32625,1.94917 17.36771,2.6311c1.98912,1.30243 -10.50934,2.39606 -10.50934,5.71424z" fill="url(#color-11)" stroke="none" stroke-width="0"/><path d="M330.7836,130.33312c0,7.9072 -7.15757,17.60256 -21.54404,20.69306c-14.07048,3.02262 -35.22658,-0.47703 -48.31732,-0.14299c-0.7324,0.01869 -1.46891,0.02813 -2.20918,0.02813c-9.54082,0 -32.38487,3.38738 -44.63025,0.90239c-10.6578,-2.16282 -17.15398,-6.97485 -21.24509,-10.81119c-4.195,-3.93377 0.27433,-14.17881 2.93778,-19.23406c0.35693,-0.67747 3.70867,-11.93456 3.70867,-12.60149c0,-16.0734 31.72831,-16.46256 59.22888,-16.46256c9.84645,0 39.14457,-2.50557 48.81282,1.05426c17.3346,6.38257 23.25772,26.25606 23.25772,36.57445z" fill="url(#color-12)" stroke="none" stroke-width="0"/><path d="M316.86584,91.44014c9.11576,-0.95062 8.89466,43.19273 9.71715,53.80255c0.82248,10.60982 -2.50372,30.13082 -11.61947,31.08144c-9.11576,0.95062 -28.08127,-33.97063 -28.90376,-44.58046c-0.82248,-10.60982 21.69033,-39.35292 30.80608,-40.30354z" data-paper-data="{&quot;index&quot;:null}" fill="url(#color-13)" stroke="none" stroke-width="0"/><path d="M266.59861,128.38851c0,9.57909 -29.29953,42.62628 -45.86,42.62628c-16.56047,0 -25.28179,-17.17257 -25.28179,-26.75166c0,-5.71345 -2.33564,-22.07655 -0.70678,-34.35275c1.10206,-8.30591 4.01894,-14.74096 10.70191,-14.74096c16.56047,0 61.14666,23.64 61.14666,33.2191z" fill="url(#color-14)" stroke="none" stroke-width="0"/><path d="M259.42689,129.88224c0,6.10886 -5.13469,7.87959 -12.55405,8.36981c-1.68453,0.1113 -3.48684,0.15659 -5.37356,0.17167c-1.33655,0.01068 -6.53713,4.4158 -7.94655,4.40887c-1.34603,-0.00662 1.10179,-4.42509 -0.28956,-4.42509c-0.61894,0 -6.13862,5.42697 -7.89456,6.0306c-2.14904,0.73876 3.14635,-6.28473 1.37821,-6.48887c-1.87807,-0.21684 -9.31315,5.47349 -10.31771,5.28825c-2.30869,-0.42572 4.64583,-6.69841 2.13537,-6.69793c-2.71599,0.00052 -6.82886,2.67721 -8.27032,1.88879c-1.0427,-0.57032 5.03863,-5.01716 4.14289,-5.69067c-0.77981,-0.58634 -7.37976,2.02441 -8.0345,1.36909c-1.08492,-1.08586 1.8888,-3.95258 2.32081,-5.81636c0.64931,-2.80126 -0.74199,-4.81736 -0.74199,-6.9334c0,-1.68012 0.51005,-3.42513 1.42745,-5.1584c0.29117,-0.55012 -0.80858,-3.34968 0.2043,-4.39505c1.06967,-1.10397 4.25829,-0.45484 4.72932,-1.01972c1.09522,-1.31344 -4.36426,-2.58937 -2.90423,-3.79151c0.51458,-0.42369 5.16444,1.21961 5.71617,0.81584c1.0355,-0.75781 -1.68899,-4.41748 -0.54421,-5.08902c1.06082,-0.62229 3.5686,1.34842 5.80638,1.66865c1.45149,0.20771 -2.20816,-4.07019 -1.45239,-4.37024c1.21396,-0.48196 7.44982,2.32985 8.69979,1.97744c0.96416,-0.27183 -2.76832,-4.06598 -1.79608,-4.29756c1.80694,-0.4304 8.3214,2.78738 10.09888,2.78738c13.96275,0 21.46013,19.98069 21.46013,29.39743z" fill="#fff9d9" stroke="none" stroke-width="NaN"/><path d="M314.31423,153.29326c2.96757,0.32398 13.91729,0.79676 15.58771,6.37662c1.88598,6.29992 -16.93988,19.85795 -23.27149,23.97025c-7.40778,4.81125 -40.03784,19.69638 -47.74657,22.81418c-6.88378,2.78414 -7.83854,1.09834 -12.42966,1.26406c-5.27882,0.19054 -22.00658,-0.53459 -33.87939,-6.45253c-4.73967,-2.36246 -22.20637,-8.05014 -26.33069,-10.1913c-15.20199,-13.22017 -21.09686,-9.50086 -20.5624,-18.35736c0.0539,-0.89314 3.83805,-5.58557 6.61693,-7.28823c2.726,-1.67025 11.34716,-3.70887 11.94669,-4.01809c3.40312,-1.75514 7.92389,-3.23655 10.23259,-4.45019c7.05016,-3.70616 8.70317,-5.46516 17.99451,-9.34049c18.71164,-0.24659 20.78278,-3.19251 31.90883,-3.59412c9.47337,-0.34195 19.65952,2.71459 36.28052,0.63519c0.63729,0.15691 5.62524,3.25585 6.21195,3.40685c12.26331,3.15598 14.26572,3.78684 27.44046,5.22515z" fill="#ffffff" stroke="none" stroke-width="0"/><path d="M300.30675,154.35581c0,2.05307 -2.88923,3.60153 -5.42067,9.78121c-2.58356,6.30691 -4.04253,16.44287 -8.31434,22.16309c-1.5259,2.04327 -4.71931,2.65072 -6.62295,3.53773c-2.4707,1.15123 -7.66215,1.35283 -10.21537,1.35283c-3.07547,0 -6.62278,-1.09036 -9.39006,-2.88281c-4.24169,-2.74745 -8.77452,-4.6079 -13.37629,-10.44728c-7.4525,-9.45681 -14.27441,-23.66973 -14.27441,-26.57436c0,-5.86826 23.08667,12.51441 38.51064,12.51441c15.42397,0 29.10346,-15.31311 29.10346,-9.44485z" fill="#8a4b36" stroke="#004141" stroke-width="0"/><path d="M294.22245,163.76599c0,4.10963 -7.42777,17.17205 -16.34672,19.22751c-1.21204,0.27933 -5.19464,0.06594 -6.117,0.06594c-1.69424,0 -5.73935,0.23279 -8.01563,-0.60042c-8.08204,-2.95835 -16.67584,-11.92706 -16.67584,-15.56935c0,-1.10174 -3.16028,-11.72742 -1.77586,-13.56835c4.48141,-5.95917 18.17042,-5.17386 24.0605,-5.17386c7.70967,0 24.87055,10.9504 24.87055,15.61851z" fill="#303030" stroke="#004141" stroke-width="0.5"/><path d="M287.77918,155.73055c1.54781,0 1.33269,0.83775 1.33269,4.40961c0,3.57186 -2.43064,6.76141 -4.5664,8.96622c-1.07692,1.11173 -1.33268,-8.48108 -1.33268,-12.05295c0,-3.57186 3.01859,-1.32288 4.5664,-1.32288z" data-paper-data="{&quot;index&quot;:null}" fill="#ffffff" stroke="#003131" stroke-width="0.5"/><path d="M308.4513,146.7053c0,7.6308 -4.03025,13.81679 -11.8738,13.81679c-4.83332,0 -11.71091,0.46991 -15.25982,-2.89842c-0.48967,-0.46476 -0.22638,-9.19749 -0.59537,-9.73691c-1.29657,-1.89542 -0.675,1.09831 -0.675,-1.18146c0,-7.6308 6.35845,-13.81679 14.20199,-13.81679c7.84354,0 14.20199,6.18599 14.20199,13.81679z" fill="#ffffff" stroke="#004141" stroke-width="0.5"/><path d="M265.04149,159.20043c0,1.85851 0.37659,5.04609 0.51985,7.6765c0.13207,2.42499 0.06582,4.37644 -0.67663,4.37644c-1.54781,0 -5.44833,-6.71724 -5.44833,-10.2891c0,-3.57186 1.25475,-3.23372 2.80256,-3.23372c1.54781,0 2.80256,-2.10199 2.80256,1.46987z" fill="#ffffff" stroke="#003131" stroke-width="0.5"/><path d="M281.98026,148.46914c0,3.81189 0.79091,7.41105 -2.12094,9.47029c-2.91721,2.06304 -9.90573,3.46458 -16.0244,3.46458c-12.2261,0 -30.84708,-7.36189 -30.84708,-14.99269c0,-7.6308 18.62098,-12.6409 30.84708,-12.6409c8.97623,0 15.25306,-1.36916 18.72748,3.4234c1.25792,1.73515 -0.58213,9.24694 -0.58213,11.27531z" fill="#ffffff" stroke="#004141" stroke-width="0.5"/><path d="M265.15666,137.37243l2.54795,-5.75217c0,0 15.97881,-1.29311 20.29077,-1.20798c3.35095,0.06616 3.43262,1.67636 3.43262,1.67636l2.18588,2.85811c0,0 3.07718,2.11469 -1.29318,4.94838c-0.54825,0.35547 -0.97705,2.60351 -2.63945,4.5237c-0.54372,0.62804 -1.26711,2.27966 -2.05794,3.40919c-2.43794,3.48209 -5.51682,7.67159 -5.949,7.68148c-1.48838,0.03409 1.38857,-1.00775 0.44324,-3.66396c-0.34915,-0.98105 -4.43167,-4.28829 -4.99085,-5.11426c-1.22744,-1.81304 -5.06535,-4.31331 -7.68427,-5.6016c-2.16493,-1.06496 -4.28575,-3.75727 -4.28575,-3.75727z" fill="url(#color-15)" stroke="none" stroke-width="0"/><path d="M260.19836,179.86615c0,0 -2.42915,-1.56061 -2.35643,-2.06641c0.03068,-0.21347 0.90579,0.82064 1.54211,0.60671c1.2207,-0.41038 2.58378,-2.018 2.58378,-2.018c0,0 1.01381,3.07575 2.49585,3.05527c0.4826,-0.00667 1.47326,-3.83711 1.94615,-3.84365c0.64511,-0.00891 0.1442,4.56833 1.71083,4.4019c1.36995,-0.14555 1.33839,-3.89878 2.47617,-3.9145c0.82387,-0.01138 2.09884,3.79159 2.96506,3.78619c1.03274,-0.00644 1.4731,-4.1811 2.48017,-4.18135c0.751,-0.00019 2.26819,3.81998 2.97049,3.84305c1.50301,0.0494 2.76029,-5.90483 2.66149,-3.85971c-0.05607,1.16093 2.13736,3.13724 2.13736,3.13724c0,0 1.40158,-3.70583 1.77447,-3.14663c0.28174,0.4225 0.04771,3.48496 0.04771,3.48496c0,0 -2.63256,1.35707 -5.43042,2.00956c-2.99439,0.69833 -6.22952,0.69605 -8.25398,0.72403c-1.81819,0.02512 -4.49835,-0.28156 -6.94384,-0.78285c-2.53673,-0.52 -4.80695,-1.23578 -4.80695,-1.23578z" fill="#ffffff" stroke="#003131" stroke-width="0.5"/><path d="M282.92499,150.52697c0,1.30149 -1.93658,6.11004 -4.57869,7.62217c-2.11781,1.21206 -6.07778,2.15559 -8.27093,2.43347c-3.34778,0.42417 -10.60547,0.15997 -13.08282,0.15997c-6.12499,0 -19.93243,-6.57241 -19.93243,-10.50958c0,-3.93717 14.92774,-10.06862 21.05272,-10.06862c6.12499,0 24.81215,6.42543 24.81215,10.3626z" fill="url(#color-16)" stroke="none" stroke-width="0"/><path d="M306.40715,154.59401c0,1.74909 -1.8237,3.572 -4.68431,4.56475c-2.38368,0.82724 -5.58923,0.97618 -8.10904,0.97618c-5.54376,0 -11.7069,-0.62033 -11.7069,-3.82689c0,-0.90866 0.67354,-2.0253 1.51726,-3.97531c2.13368,-4.93137 8.08599,-11.40332 12.05879,-11.40332c3.01988,0 10.73611,0.82977 13.01523,4.51268c1.9048,3.07803 -0.42437,8.35873 -0.42437,9.81857z" fill="url(#color-17)" stroke="none" stroke-width="0"/><path d="M256.73978,118.26908c1.10567,2.49561 2.54474,11.94398 1.79291,13.7409c-0.90688,2.1675 -2.48656,0.10492 -5.67703,0.90123c-3.47542,0.86744 -8.19402,2.55654 -12.82173,2.55654c-8.36058,0 -18.3366,-1.25411 -24.28734,-4.51045c-2.87365,-1.5725 -5.20893,-3.05469 -5.20893,-6.14789c0,-9.49856 11.09464,-19.62102 23.49261,-19.62102c12.39796,0 17.74997,1.88647 22.70952,13.08068z" fill="#535353" stroke="none" stroke-width="0"/><path d="M257.3117,127.1331c0,4.32663 1.08751,3.05627 -3.41549,3.626c-3.0823,0.38997 -13.09182,3.15698 -16.96201,3.15698c-9.52423,0 -22.72676,-3.29536 -22.72676,-10.58356c0,-4.2168 4.07453,-8.92687 10.2334,-12.34803c4.48595,-2.49188 10.56788,-3.46133 14.5816,-3.46133c9.52423,0 18.28927,12.32174 18.28927,19.60995z" fill="#ffffff" stroke="#005e5e" stroke-width="0.5"/><g><path d="M256.04741,122.29917c0,4.87073 -4.10645,8.81923 -9.172,8.81923c-5.06555,0 -9.172,-3.9485 -9.172,-8.81923c0,-4.87073 4.10645,-8.81923 9.172,-8.81923c5.06555,0 9.172,3.9485 9.172,8.81923z" fill="#c6c6c6" stroke="#001414" stroke-width="0.5"/><path d="M254.81501,123.8389c0.1259,3.49215 -2.31154,4.02273 -3.66569,4.76405c-1.09721,0.60065 -0.74193,1.7103 -3.60659,1.7103c-6.40016,0 -8.78297,-1.02056 -8.78297,-7.3376c0,-6.31704 2.3828,-8.63247 8.78297,-8.63247c6.40016,0 7.0526,3.40232 7.27229,9.49572z" fill="url(#color-18)" stroke="none" stroke-width="0"/><path d="M251.29955,122.8888c0,2.31257 -1.78751,4.18728 -3.99252,4.18728c-2.20501,0 -3.99252,-1.8747 -3.99252,-4.18728c0,-2.31257 1.78751,-4.18728 3.99252,-4.18728c2.20501,0 3.99252,1.8747 3.99252,4.18728z" fill="#171717" stroke="none" stroke-width="0"/><g stroke="none" stroke-width="0"><path d="M254.75254,119.19895c0,2.56257 -2.02906,4.63995 -4.53205,4.63995c-2.50298,0 -4.53205,-2.07738 -4.53205,-4.63995c0,-2.56257 2.02906,-4.63995 4.53205,-4.63995c2.50298,0 4.53205,2.07738 4.53205,4.63995z" fill="url(#color-19)"/><path d="M253.02605,118.98313c0,1.1323 -1.01453,2.05021 -2.26602,2.05021c-1.25149,0 -2.26602,-0.91791 -2.26602,-2.05021c0,-1.1323 1.01453,-2.05021 2.26602,-2.05021c1.25149,0 2.26602,0.91791 2.26602,2.05021z" fill="#ffffff"/></g></g><path d="M302.76266,98.54506c1.21014,0 5.64528,-3.21778 6.87549,-2.78738c0.66192,0.23158 -1.87922,4.02573 -1.2228,4.29756c0.851,0.35241 5.09648,-2.4594 5.92297,-1.97744c0.51454,0.30005 -1.97701,4.57795 -0.98881,4.37024c1.52352,-0.32023 3.23085,-2.29095 3.95308,-1.66866c0.77939,0.67154 -1.07549,4.33121 -0.37051,5.08902c0.37563,0.40377 3.54133,-1.23953 3.89166,-0.81584c0.99401,1.20214 -2.7229,2.47807 -1.97725,3.7915c0.32069,0.56488 2.49155,-0.08425 3.2198,1.01972c0.68959,1.04536 -0.05914,3.84493 0.1391,4.39505c0.62457,1.73327 0.97182,3.47829 0.97182,5.1584c0,2.11603 -0.94721,4.13213 -0.50515,6.9334c0.29412,1.86378 2.31868,4.73049 1.58004,5.81636c-0.44576,0.65532 -4.93911,-1.95543 -5.47002,-1.36909c-0.60984,0.67351 3.53043,5.12036 2.82055,5.69067c-0.98137,0.78842 -3.78148,-1.88826 -5.63057,-1.88879c-1.70916,-0.00048 3.02559,6.27221 1.4538,6.69793c-0.68391,0.18524 -5.74585,-5.50508 -7.02447,-5.28825c-1.20378,0.20414 2.40142,7.22763 0.93832,6.48887c-1.19547,-0.60362 -4.95336,-6.03059 -5.37475,-6.03059c-0.94725,0 0.71926,4.41846 -0.19714,4.42509c-0.95956,0.00694 -4.5002,-4.39819 -5.41014,-4.40887c-1.28452,-0.01507 -2.51155,-0.06037 -3.65841,-0.17167c-5.05122,-0.49023 -8.547,-2.26094 -8.547,-8.36981c0,-9.41674 5.10434,-29.39743 14.61041,-29.39743z" data-paper-data="{&quot;index&quot;:null}" fill="#fff9d9" stroke="none" stroke-width="NaN"/><path d="M304.65178,105.60045c7.85882,0 14.8915,10.02223 14.8915,19.42675c0,3.06257 -1.48029,4.53007 -3.30184,6.08701c-3.77206,3.2241 -10.09566,4.46579 -15.39527,4.46579c-2.93342,0 -5.92444,-1.67238 -8.12745,-2.53122c-2.02238,-0.78843 -3.0237,1.25373 -3.59856,-0.89231c-0.47656,-1.77913 0.43563,-11.13395 1.13649,-13.60486c3.14376,-11.08337 6.5363,-12.95117 14.39511,-12.95117z" data-paper-data="{&quot;index&quot;:null}" fill="#535353" stroke="none" stroke-width="0"/><path d="M302.4008,107.75328c2.51447,0 6.32461,0.97447 9.13491,3.47924c3.85834,3.43887 6.4109,8.17332 6.4109,12.41194c0,7.32593 -8.27097,10.63834 -14.23761,10.63834c-2.42456,0 -8.69521,-2.78133 -10.62617,-3.17332c-2.82098,-0.57267 -2.1397,0.70426 -2.1397,-3.64476c0,-7.32593 5.49102,-19.71144 11.45765,-19.71144z" data-paper-data="{&quot;index&quot;:null}" fill="#ffffff" stroke="#005e5e" stroke-width="0.5"/><g><path d="M317.26402,122.20241c0,4.79579 -3.32208,8.68355 -7.42008,8.68355c-4.09799,0 -7.42008,-3.88776 -7.42008,-8.68355c0,-4.79579 3.32208,-8.68355 7.42008,-8.68355c4.09799,0 7.42008,3.88776 7.42008,8.68355z" fill="#c6c6c6" stroke="#001414" stroke-width="0.5"/><path d="M316.26702,123.71846c0.10186,3.43842 -1.87002,3.96085 -2.96552,4.69076c-0.88763,0.59142 -0.60022,1.68399 -2.91771,1.68399c-5.17768,0 -7.10536,-1.00485 -7.10536,-7.22471c0,-6.21986 1.92767,-8.49966 7.10536,-8.49966c5.17768,0 5.7055,3.34998 5.88322,9.34963z" fill="url(#color-20)" stroke="none" stroke-width="0"/><path d="M313.42304,122.78298c0,2.27699 -1.44608,4.12285 -3.22992,4.12285c-1.78383,0 -3.22992,-1.84586 -3.22992,-4.12285c0,-2.27699 1.44608,-4.12285 3.22992,-4.12285c1.78383,0 3.22992,1.84586 3.22992,4.12285z" fill="#171717" stroke="none" stroke-width="0"/><g stroke="none" stroke-width="0"><path d="M316.21648,119.14989c0,2.52315 -1.6415,4.56857 -3.66639,4.56857c-2.0249,0 -3.66639,-2.04542 -3.66639,-4.56857c0,-2.52315 1.6415,-4.56857 3.66639,-4.56857c2.0249,0 3.66639,2.04542 3.66639,4.56857z" fill="url(#color-21)"/><path d="M314.81976,118.9374c0,1.11488 -0.82075,2.01867 -1.83319,2.01867c-1.01244,0 -1.83319,-0.90379 -1.83319,-2.01867c0,-1.11488 0.82075,-2.01867 1.83319,-2.01867c1.01244,0 1.83319,0.90379 1.83319,2.01867z" fill="#ffffff"/></g></g><path d="M249.53248,204.55488c-0.72587,2.10849 -3.23247,4.19902 -8.76834,3.92403c-13.00473,-0.64599 -36.08509,-7.70461 -44.37634,-10.55897c-4.03798,-1.39012 -21.12716,-11.52716 -25.32285,-16.65368c-8.08665,-9.8807 -2.21155,-17.43709 -0.61094,-22.08648c2.43108,-7.0617 19.18311,14.20885 31.00378,18.27826c11.82067,4.06941 50.50576,20.03513 48.07469,27.09683z" fill="url(#color-22)" stroke="none" stroke-width="0"/><path d="M301.40392,181.49716c11.52108,-4.85315 25.55551,-32.84576 28.45479,-25.96303c2.89928,6.88272 -20.10743,33.17233 -31.62851,38.02549c-0.93537,0.39402 -7.06465,8.35752 -8.35047,8.8715c-9.82305,3.92657 -23.78239,3.29907 -35.21764,4.64037c-5.50495,0.6457 -8.14614,-1.27199 -9.01181,-3.32703c-1.69916,-4.03369 21.02281,-1.97026 33.75136,-6.34289c7.13764,-2.45199 10.31616,-6.13892 12.67929,-9.79607c0.61336,-0.94924 3.84022,-3.69436 4.82297,-4.10833z" data-paper-data="{&quot;index&quot;:null}" fill="url(#color-23)" stroke="none" stroke-width="0"/><path d="M306.04221,184.89868c0,4.6463 -7.13554,12.56053 -17.16867,18.26848c-6.97057,3.96563 -15.94808,6.86632 -22.37088,6.86632c-3.38801,0 -14.23571,-0.6466 -19.63538,-2.64745c-8.79891,-3.26044 -12.86402,-9.14363 -18.9837,-14.44753c-7.49172,-6.49304 -3.56624,-27.27902 -3.56624,-30.67585c0,-3.90938 2.25908,9.82092 11.78026,17.53415c9.65656,7.8229 26.42806,21.36206 34.31711,21.36206c5.68106,0 18.98387,-3.9122 25.64527,-10.60095c5.65807,-5.6813 2.77098,-20.46578 3.59926,-27.86425c0.7176,-6.40985 6.38296,19.61111 6.38296,22.20501z" fill="url(#color-24)" stroke="none" stroke-width="0"/><path d="M246.06748,87.51293c0,2.03796 -0.35543,8.82216 -7.34854,9.60496c-6.64878,0.74426 -22.56673,-4.46324 -27.27236,-4.46324c-9.65496,0 -3.08503,-1.16615 -3.08503,-5.14172c0,-3.97557 11.94026,-3.77059 21.59522,-3.77059c9.65496,0 16.11072,-0.20498 16.11072,3.77059z" fill="url(#color-25)" stroke="none" stroke-width="0"/><path d="M294.5719,84.06823c5.5611,-1.52585 12.41794,-3.59891 12.81666,0.00934c0.39873,3.60825 4.29986,3.62835 -1.26124,5.1542c-2.71037,0.74367 -11.35657,7.98566 -15.26081,8.36093c-4.10643,0.39471 -4.99157,-5.70649 -5.19596,-7.55615c-0.39873,-3.60825 3.34024,-4.44247 8.90135,-5.96832z" data-paper-data="{&quot;index&quot;:null}" fill="url(#color-26)" stroke="none" stroke-width="0"/><path d="M192.40303,142.66404c0,3.16914 -4.15008,5.73824 -9.26946,5.73824c-5.11938,0 -9.26946,-2.5691 -9.26946,-5.73824c0,-3.16914 4.15008,-5.73824 9.26946,-5.73824c5.11938,0 9.26946,2.5691 9.26946,5.73824z" fill="url(#color-27)" stroke="none" stroke-width="0"/><path d="M216.6935,147.49805c1.26355,2.90636 -2.48373,7.33688 -8.36977,9.89586c-5.88604,2.55897 -11.68193,2.27736 -12.94547,-0.62899c-1.26355,-2.90636 2.48373,-7.33688 8.36977,-9.89585c5.88604,-2.55897 11.68193,-2.27736 12.94548,0.62899z" fill="url(#color-28)" stroke="none" stroke-width="0"/><path d="M193.84978,165.71951c2.22917,-0.00596 4.04606,3.64901 4.05814,8.16359c0.01208,4.51458 -1.78524,8.17921 -4.0144,8.18517c-2.22917,0.00596 -4.04606,-3.64901 -4.05814,-8.16359c-0.01208,-4.51458 1.78524,-8.17921 4.0144,-8.18517z" fill="url(#color-29)" stroke="none" stroke-width="0"/><path d="M186.07584,152.68902c3.15364,0.29077 4.511,4.33091 3.03173,9.02389c-1.47925,4.69298 -5.23495,8.26168 -8.3886,7.97091c-3.15364,-0.29077 -4.511,-4.33091 -3.03175,-9.02389c1.47925,-4.69298 5.23495,-8.26168 8.3886,-7.97091z" fill="url(#color-30)" stroke="none" stroke-width="0"/><path d="M175.02571,148.34426c2.11431,0.42433 2.74197,3.25774 1.40192,6.3286c-1.34005,3.07086 -4.14036,5.2163 -6.25467,4.79198c-2.11431,-0.42433 -2.74197,-3.25774 -1.40192,-6.3286c1.34005,-3.07086 4.14036,-5.2163 6.25467,-4.79198z" fill="url(#color-31)" stroke="none" stroke-width="0"/><path d="M167.73582,141.39424c1.68346,1.11098 1.23155,3.78751 -1.00938,5.9782c-2.24093,2.19069 -5.42227,3.06598 -7.10573,1.955c-1.68346,-1.11098 -1.23155,-3.78751 1.00938,-5.9782c2.24093,-2.19069 5.42227,-3.06598 7.10573,-1.955z" fill="url(#color-32)" stroke="none" stroke-width="0"/><path d="M310.34566,144.17069c1.51834,-1.86768 4.64321,-1.01452 6.97958,1.90559c2.33637,2.92011 2.99952,6.80138 1.48117,8.66906c-1.51834,1.86768 -4.64321,1.01452 -6.97958,-1.90559c-2.33637,-2.92011 -2.99952,-6.80138 -1.48117,-8.66906z" fill="url(#color-33)" stroke="none" stroke-width="0"/><path d="M319.58382,149.58701c1.30502,-1.60527 3.99084,-0.87198 5.99895,1.63786c2.00811,2.50984 2.57809,5.8458 1.27307,7.45107c-1.30502,1.60527 -3.99084,0.87198 -5.99895,-1.63786c-2.00811,-2.50984 -2.57809,-5.8458 -1.27307,-7.45107z" fill="url(#color-34)" stroke="none" stroke-width="0"/><path d="M320.80822,132.70325c1.51834,-1.86768 4.64321,-1.01451 6.97958,1.90559c2.33637,2.92011 2.99952,6.80138 1.48117,8.66906c-1.51834,1.86768 -4.64321,1.01451 -6.97958,-1.90559c-2.33637,-2.92011 -2.99952,-6.80138 -1.48117,-8.66906z" fill="url(#color-35)" stroke="none" stroke-width="0"/><path d="M329.03811,151.16904c1.07604,-1.32361 3.29061,-0.71898 4.94639,1.35048c1.65577,2.06946 2.12574,4.8201 1.0497,6.14371c-1.07604,1.32361 -3.29061,0.71898 -4.94639,-1.35048c-1.65577,-2.06946 -2.12574,-4.8201 -1.0497,-6.14371z" fill="url(#color-36)" stroke="none" stroke-width="0"/><path d="M330.80335,137.93454c1.51834,-1.86768 4.64321,-1.01451 6.97958,1.90559c2.33637,2.92011 2.99952,6.80138 1.48117,8.66906c-1.51834,1.86768 -4.64321,1.01451 -6.97958,-1.90559c-2.33637,-2.92011 -2.99952,-6.80138 -1.48117,-8.66906z" fill="url(#color-37)" stroke="none" stroke-width="0"/><path d="M269.10194,222.90734c0,12.01446 -14.35579,55.85512 -22.63602,55.85512c-2.9626,0 -0.40023,-1.48242 -4.94926,-8.4678c-8.16519,-12.53823 -17.68676,-41.43538 -17.68676,-49.15117c0,-12.01446 14.35579,14.11077 22.63602,14.11077c8.28023,0 22.63602,-24.36138 22.63602,-12.34692z" fill="url(#color-38)" stroke="none" stroke-width="0"/><path d="M291.19963,135.03427c0,0.98523 1.27018,3.45411 0.55062,4.54347c-1.53342,2.32149 -4.534,3.76653 -8.29113,3.76653c-5.52016,0 -14.58308,-5.22521 -14.58308,-8.31c0,-3.0848 6.8083,-5.58551 12.32846,-5.58551c5.52016,0 9.99513,2.50072 9.99513,5.58551z" fill="url(#color-39)" stroke="none" stroke-width="0"/><path d="M290.05264,138.15113c0,0.91839 0.50123,3.37993 -2.06331,5.12072c-1.28914,0.87506 -5.54985,1.78768 -6.60894,1.78768c-1.36254,0 -2.82113,-0.49046 -5.04546,-1.82906c-2.94406,-1.77173 -6.56653,-4.58721 -6.56653,-5.37332c0,-1.38004 7.85806,0.44096 11.02404,0.44096c3.16597,0 9.26019,-1.52703 9.26019,-0.14699z" fill="url(#color-40)" stroke="none" stroke-width="0"/><path d="M287.9647,132.50658c0,1.29886 -5.79592,1.46987 -8.23128,1.46987c-2.43537,0 -9.70115,-0.75896 -9.70115,-2.05782c0,-1.29886 7.26579,-2.64577 9.70115,-2.64577c2.43537,0 8.23128,1.93486 8.23128,3.23372z" fill="url(#color-41)" stroke="none" stroke-width="0"/></g></g></svg>