<svg version="1.1" xmlns="http://www.w3.org/2000/svg" xmlns:xlink="http://www.w3.org/1999/xlink" width="221.90677" height="270.23293" viewBox="0,0,221.90677,270.23293"><defs><radialGradient cx="241.76233" cy="218.49773" r="29.39743" gradientUnits="userSpaceOnUse" id="color-1"><stop offset="0" stop-color="#fff082"/><stop offset="1" stop-color="#ffd183"/></radialGradient><linearGradient x1="246.93086" y1="199.09149" x2="246.93086" y2="233.19251" gradientUnits="userSpaceOnUse" id="color-2"><stop offset="0" stop-color="#c48d2e"/><stop offset="1" stop-color="#c48d2e" stop-opacity="0"/></linearGradient><linearGradient x1="317.38382" y1="48.4342" x2="261.08185" y2="75.94939" gradientUnits="userSpaceOnUse" id="color-3"><stop offset="0" stop-color="#ffd183"/><stop offset="1" stop-color="#bf6e2c"/></linearGradient><linearGradient x1="315.50896" y1="53.09509" x2="261.91815" y2="79.28532" gradientUnits="userSpaceOnUse" id="color-4"><stop offset="0" stop-color="#ab4a00"/><stop offset="1" stop-color="#692900"/></linearGradient><radialGradient cx="288.49443" cy="75.8687" r="21.57698" gradientUnits="userSpaceOnUse" id="color-5"><stop offset="0" stop-color="#fff082"/><stop offset="1" stop-color="#ffd183"/></radialGradient><linearGradient x1="277.78515" y1="55.67583" x2="296.71417" y2="99.11678" gradientUnits="userSpaceOnUse" id="color-6"><stop offset="0" stop-color="#ffffff"/><stop offset="1" stop-color="#fffad8"/></linearGradient><linearGradient x1="132.28529" y1="48.64111" x2="204.05324" y2="80.65769" gradientUnits="userSpaceOnUse" id="color-7"><stop offset="0" stop-color="#ffd183"/><stop offset="1" stop-color="#bf6e2c"/></linearGradient><linearGradient x1="134.98725" y1="53.61646" x2="203.2993" y2="84.09132" gradientUnits="userSpaceOnUse" id="color-8"><stop offset="0" stop-color="#ab4a00"/><stop offset="1" stop-color="#692900"/></linearGradient><radialGradient cx="170.22027" cy="78.97054" r="27.05848" gradientUnits="userSpaceOnUse" id="color-9"><stop offset="0" stop-color="#fff082"/><stop offset="1" stop-color="#ffd183"/></radialGradient><linearGradient x1="181.75232" y1="58.51645" x2="162.01485" y2="102.75969" gradientUnits="userSpaceOnUse" id="color-10"><stop offset="0" stop-color="#ffffff"/><stop offset="1" stop-color="#fffad8"/></linearGradient><radialGradient cx="235.36397" cy="121.43808" r="86.14772" gradientUnits="userSpaceOnUse" id="color-11"><stop offset="0" stop-color="#fff082"/><stop offset="1" stop-color="#ffd183"/></radialGradient><linearGradient x1="253.71306" y1="84.20441" x2="253.71306" y2="142.41132" gradientUnits="userSpaceOnUse" id="color-12"><stop offset="0" stop-color="#d2a049" stop-opacity="0"/><stop offset="1" stop-color="#d2a049"/></linearGradient><linearGradient x1="326.58298" y1="136.74269" x2="293.57191" y2="140.18519" gradientUnits="userSpaceOnUse" id="color-13"><stop offset="0" stop-color="#c66a21" stop-opacity="0"/><stop offset="1" stop-color="#c66a21"/></linearGradient><linearGradient x1="196.45682" y1="144.38328" x2="256.42759" y2="144.38328" gradientUnits="userSpaceOnUse" id="color-14"><stop offset="0" stop-color="#c66a21" stop-opacity="0"/><stop offset="1" stop-color="#c66a21"/></linearGradient><radialGradient cx="280.0152" cy="143.42662" r="13.00429" gradientUnits="userSpaceOnUse" id="color-15"><stop offset="0" stop-color="#905b00"/><stop offset="1" stop-color="#252313"/></radialGradient><linearGradient x1="255.43803" y1="152.48482" x2="255.43803" y2="166.74257" gradientUnits="userSpaceOnUse" id="color-16"><stop offset="0" stop-color="#d0d0d0" stop-opacity="0"/><stop offset="1" stop-color="#d0d0d0"/></linearGradient><linearGradient x1="297.01878" y1="156.4836" x2="297.01878" y2="168.09559" gradientUnits="userSpaceOnUse" id="color-17"><stop offset="0" stop-color="#d0d0d0" stop-opacity="0"/><stop offset="1" stop-color="#d0d0d0"/></linearGradient><radialGradient cx="246.33867" cy="121.83316" r="15.11555" gradientUnits="userSpaceOnUse" id="color-18"><stop offset="0" stop-color="#575757"/><stop offset="1" stop-color="#575757" stop-opacity="0"/></radialGradient><radialGradient cx="250.22943" cy="118.17166" r="5.81605" gradientUnits="userSpaceOnUse" id="color-19"><stop offset="0" stop-color="#ffffff"/><stop offset="1" stop-color="#ffffff" stop-opacity="0"/></radialGradient><radialGradient cx="300.11274" cy="123.273" r="12.21142" gradientUnits="userSpaceOnUse" id="color-20"><stop offset="0" stop-color="#575757"/><stop offset="1" stop-color="#575757" stop-opacity="0"/></radialGradient><radialGradient cx="303.25597" cy="119.67281" r="4.69862" gradientUnits="userSpaceOnUse" id="color-21"><stop offset="0" stop-color="#ffffff"/><stop offset="1" stop-color="#ffffff" stop-opacity="0"/></radialGradient><linearGradient x1="204.88145" y1="169.71101" x2="204.88145" y2="207.31763" gradientUnits="userSpaceOnUse" id="color-22"><stop offset="0" stop-color="#d0d0d0" stop-opacity="0"/><stop offset="1" stop-color="#d0d0d0"/></linearGradient><linearGradient x1="287.86348" y1="165.98396" x2="290.38607" y2="203.50587" gradientUnits="userSpaceOnUse" id="color-23"><stop offset="0" stop-color="#d0d0d0" stop-opacity="0"/><stop offset="1" stop-color="#d0d0d0"/></linearGradient><linearGradient x1="237.08564" y1="73.31452" x2="237.08564" y2="87.71134" gradientUnits="userSpaceOnUse" id="color-24"><stop offset="0" stop-color="#6f5318" stop-opacity="0"/><stop offset="1" stop-color="#6f5318"/></linearGradient><linearGradient x1="297.51786" y1="76.74044" x2="298.96178" y2="89.80706" gradientUnits="userSpaceOnUse" id="color-25"><stop offset="0" stop-color="#6f5318" stop-opacity="0"/><stop offset="1" stop-color="#6f5318"/></linearGradient><radialGradient cx="183.13357" cy="142.66404" r="9.26946" gradientUnits="userSpaceOnUse" id="color-26"><stop offset="0" stop-color="#9b7522"/><stop offset="1" stop-color="#9b7522" stop-opacity="0"/></radialGradient><radialGradient cx="206.03587" cy="152.13148" r="11.62126" gradientUnits="userSpaceOnUse" id="color-27"><stop offset="0" stop-color="#9b7522"/><stop offset="1" stop-color="#9b7522" stop-opacity="0"/></radialGradient><radialGradient cx="193.87164" cy="173.89389" r="8.17441" gradientUnits="userSpaceOnUse" id="color-28"><stop offset="0" stop-color="#9b7522"/><stop offset="1" stop-color="#9b7522" stop-opacity="0"/></radialGradient><radialGradient cx="183.39741" cy="161.18642" r="8.90954" gradientUnits="userSpaceOnUse" id="color-29"><stop offset="0" stop-color="#9c7f42"/><stop offset="1" stop-color="#9c7f42" stop-opacity="0"/></radialGradient><radialGradient cx="172.59934" cy="153.90455" r="6.06664" gradientUnits="userSpaceOnUse" id="color-30"><stop offset="0" stop-color="#9c7f42"/><stop offset="1" stop-color="#9c7f42" stop-opacity="0"/></radialGradient><radialGradient cx="163.67826" cy="145.36084" r="5.6743" gradientUnits="userSpaceOnUse" id="color-31"><stop offset="0" stop-color="#9c7f42"/><stop offset="1" stop-color="#9c7f42" stop-opacity="0"/></radialGradient><radialGradient cx="314.57603" cy="149.45802" r="6.7714" gradientUnits="userSpaceOnUse" id="color-32"><stop offset="0" stop-color="#9c7f42"/><stop offset="1" stop-color="#9c7f42" stop-opacity="0"/></radialGradient><radialGradient cx="323.21983" cy="154.13148" r="5.82003" gradientUnits="userSpaceOnUse" id="color-33"><stop offset="0" stop-color="#9c7f42"/><stop offset="1" stop-color="#9c7f42" stop-opacity="0"/></radialGradient><radialGradient cx="325.03859" cy="137.99058" r="6.7714" gradientUnits="userSpaceOnUse" id="color-34"><stop offset="0" stop-color="#9c7f42"/><stop offset="1" stop-color="#9c7f42" stop-opacity="0"/></radialGradient><radialGradient cx="332.03616" cy="154.91613" r="4.79886" gradientUnits="userSpaceOnUse" id="color-35"><stop offset="0" stop-color="#9c7f42"/><stop offset="1" stop-color="#9c7f42" stop-opacity="0"/></radialGradient><radialGradient cx="335.03372" cy="143.22186" r="6.7714" gradientUnits="userSpaceOnUse" id="color-36"><stop offset="0" stop-color="#9c7f42"/><stop offset="1" stop-color="#9c7f42" stop-opacity="0"/></radialGradient><linearGradient x1="246.46591" y1="235.25427" x2="246.46591" y2="278.76247" gradientUnits="userSpaceOnUse" id="color-37"><stop offset="0" stop-color="#c48d2e" stop-opacity="0"/><stop offset="1" stop-color="#c48d2e"/></linearGradient><radialGradient cx="282.2045" cy="140.03427" r="9.99513" gradientUnits="userSpaceOnUse" id="color-38"><stop offset="0" stop-color="#fff082"/><stop offset="1" stop-color="#fbbd53"/></radialGradient><linearGradient x1="282.2045" y1="143.12222" x2="282.2045" y2="148.11979" gradientUnits="userSpaceOnUse" id="color-39"><stop offset="0" stop-color="#d59527" stop-opacity="0"/><stop offset="1" stop-color="#d59527"/></linearGradient><linearGradient x1="281.73342" y1="135.27286" x2="281.73342" y2="139.97645" gradientUnits="userSpaceOnUse" id="color-40"><stop offset="0" stop-color="#d59527"/><stop offset="1" stop-color="#d59527" stop-opacity="0"/></linearGradient><linearGradient x1="271.29661" y1="171.21484" x2="271.29661" y2="199.21484" gradientUnits="userSpaceOnUse" id="color-41"><stop offset="0" stop-color="#acacac" stop-opacity="0"/><stop offset="1" stop-color="#acacac"/></linearGradient></defs><g transform="translate(-127.80736,-9.12144)"><g data-paper-data="{&quot;isPaintingLayer&quot;:true}" fill-rule="nonzero" stroke-linecap="butt" stroke-linejoin="miter" stroke-miterlimit="10" stroke-dasharray="" stroke-dashoffset="0" style="mix-blend-mode: normal"><path d="M243.82015,278.76641l-40.56846,-97.30944l80.54897,-4.70359c0,0 -17.97192,57.0222 -23.90991,75.86254c-3.52528,11.18518 -8.42727,26.73844 -8.42727,26.73844z" fill="url(#color-1)" stroke="none" stroke-width="0"/><path d="M265.60997,227.90097c-2.93829,13.53238 -3.30668,29.39743 -18.25936,29.39743c-8.44133,0 -7.58527,-3.02084 -12.55051,-6.83396c-0.74874,-0.575 -2.82655,-7.55521 -3.659,-8.98477c-3.42576,-5.88304 -8.34619,-16.74714 -8.34619,-20.04614c0,-1.42876 -17.77044,-31.03802 -17.24479,-32.36425c2.93879,-7.41477 28.69676,10.0222 41.38073,10.0222c13.05909,0 29.41553,-17.69521 31.96672,-9.94734c0.36993,1.12345 -13.03988,37.6159 -13.28761,38.75682z" fill="url(#color-2)" stroke="none" stroke-width="0"/><g data-paper-data="{&quot;index&quot;:null}" stroke="none" stroke-width="0"><path d="M264.29316,81.31437c-1.41509,-3.84894 -10.3704,-17.0741 -11.17081,-20.56808c-0.69456,-3.03193 6.69522,3.43125 6.40264,2.8559c-0.98591,-1.93868 -3.68542,-8.34907 -3.79431,-9.12612c-0.31071,-2.21737 4.28084,4.27504 3.9013,2.09502c-0.35854,-2.05941 1.29738,-1.48416 1.20189,-3.46143c-0.09047,-1.87326 -4.86404,-6.84395 -5.32643,-10.58937c-0.30713,-2.48785 8.89766,6.07608 8.59705,3.34405c-0.32373,-2.94222 -2.22513,-10.27009 -1.57187,-11.90897c1.08094,-2.71181 5.21651,1.11058 6.05295,-0.43631c0.73517,-1.35961 0.62932,-8.14359 1.91528,-9.72637c1.89615,-2.33383 5.37748,0.60865 7.27992,-0.3211c1.46126,-0.71412 -0.81343,-12.85979 3.40004,-8.6291c0.54409,0.54631 3.05957,4.23082 5.17802,7.63246c1.40207,2.25134 2.48542,-11.04004 2.853,-10.02833c3.97891,10.95118 6.20463,-4.52586 9.70499,-2.79543c3.80563,1.88135 -0.29028,10.96818 4.81917,12.87351c0.78505,0.29275 3.91716,-0.85509 5.30328,-1.53584c3.21525,-1.57907 -0.7007,10.59153 0.05255,12.05546c0.72135,1.40197 4.07652,-2.43432 4.77841,-1.09119c0.64779,1.2396 -1.27551,7.55316 -2.42934,11.17036c-1.55948,4.88886 4.74626,1.4039 5.32663,2.73582c1.02739,2.35779 -4.69596,11.08739 -4.01825,13.44929c0.75432,2.62889 5.66547,0.09697 6.27501,4.15138c0.63332,4.21266 -4.93615,10.68308 -5.07845,13.0511c-0.16455,2.73809 6.96722,-4.91956 6.2333,-1.68989c-0.35757,1.5735 -3.70439,5.98829 -6.71911,10.11124c-2.05748,2.81381 -3.96028,5.49167 -4.6526,7.03765c-0.81954,1.83004 9.72771,-7.14862 10.09811,-5.42231c0.77795,2.96785 -8.18905,7.81985 -8.8813,8.87599c-0.42569,0.64947 7.39458,-0.72397 6.58596,0.38861c-1.23235,1.69559 -13.94311,12.41983 -14.86996,12.87279c-8.84295,4.32161 -7.27524,7.00396 -16.53032,-2.57627c-2.86224,-2.96279 -4.62853,2.10201 -8.10094,-0.90145c-2.87671,-2.4882 -8.76452,-12.8739 -12.81578,-23.89307z" fill="url(#color-3)"/><path d="M260.84633,67.07519c1.23128,-20.68685 22.34708,-48.26042 32.13173,-49.66984c10.29668,-1.48317 21.30383,30.37419 20.81245,52.47642c-0.21525,9.68223 -0.56691,27.60002 -5.21816,32.95499c-5.96646,6.86917 -17.02152,-0.12788 -22.80757,0.70557c-10.29668,1.48317 -22.02112,-7.64982 -21.52974,-29.75206c0.02443,-1.09908 -3.45315,-5.63255 -3.38872,-6.71509z" fill="url(#color-4)"/><path d="M263.55213,71.69785c-2.49337,-4.90293 8.17169,1.42928 7.83531,-0.50278c-0.2353,-1.35153 0.4364,0.35831 0.37372,-0.93933c-0.05938,-1.22938 -5.49763,-8.25923 -5.80107,-10.71727c-0.20156,-1.63272 4.75727,1.50439 4.56,-0.28857c-0.56399,-5.12592 -2.18794,-7.37329 -1.30726,-9.002c0.32356,-0.59838 3.46881,3.31137 5.01819,1.97161c2.10318,-1.81863 4.08487,-11.66514 5.3308,-10.26636c1.22298,1.37302 -1.4073,12.29223 -0.65068,11.92246c0.95899,-0.46867 9.34739,-24.20482 12.11258,-21.42834c0.59338,0.59581 -3.20417,10.10838 -2.59843,11.77554c2.61125,7.18697 5.64743,-9.83608 7.94462,-8.70045c2.13803,1.05696 0.34288,3.02154 1.61559,7.54949c0.44243,1.57405 -0.74715,9.06425 1.01473,8.19895c2.11008,-1.03631 6.97137,-2.65102 7.46569,-1.69029c0.91031,1.76923 -2.22049,5.40779 -3.79821,10.35379c-1.02344,3.20843 2.96031,5.3534 3.34119,6.22751c0.67425,1.54736 -2.92729,2.8443 -2.48253,4.39435c0.49504,1.72527 5.63021,-0.11784 6.03023,2.54297c0.41563,2.76465 -5.15156,7.19249 -5.24496,8.74655c-0.10799,1.79693 4.00045,3.07488 3.51879,5.19441c-0.39482,1.7374 -5.77089,2.4497 -6.89101,4.9509c-0.53785,1.20101 6.77742,-0.74225 7.15575,0.70109c0.51054,1.94773 -5.79238,7.21878 -6.24669,7.91191c-0.70514,1.07579 -1.53627,1.90255 -2.54366,2.39486c-5.80339,2.83616 -7.77795,4.55832 -13.85181,-1.72893c-1.87842,-1.9444 -7.60832,-15.96454 -9.88718,-17.93562c-3.11957,-2.69827 -10.96691,-9.57809 -12.01371,-11.63652z" fill="url(#color-5)"/><path d="M268.83719,78.03203c-1.77379,-3.48798 5.81337,1.01679 5.57408,-0.35767c-0.1674,-0.96149 0.31045,0.2549 0.26588,-0.66824c-0.04224,-0.87458 -3.91103,-5.87566 -4.12691,-7.6243c-0.14339,-1.16152 3.38434,1.07024 3.244,-0.20529c-0.40123,-3.6466 -0.66005,-7.31599 -0.03352,-8.47467c0.84934,-1.57074 4.51237,5.37983 6.00295,4.65138c0.68222,-0.33341 1.01133,-13.64761 2.97848,-11.6724c0.42214,0.42386 2.29913,9.4429 2.73005,10.62894c1.85766,5.11284 5.07744,-12.82098 6.71168,-12.0131c2.04975,1.01331 -2.10809,15.60869 2.7509,13.22234c1.50112,-0.73723 4.07978,-3.90478 4.43145,-3.22131c0.6476,1.25864 -1.57968,3.84712 -2.70206,7.36573c-0.72808,2.28249 5.22512,1.0597 5.49609,1.68155c0.47966,1.1008 -5.20164,4.77217 -4.88524,5.87488c0.35217,1.22736 4.00536,-0.08382 4.28993,1.80909c0.29568,1.96679 -3.66485,5.11676 -3.73129,6.22233c-0.07683,1.27835 2.84594,2.18748 2.50329,3.69533c-0.28087,1.23599 -4.10543,1.74272 -4.90228,3.52209c-0.38262,0.85439 4.82149,-0.52804 5.09063,0.49876c0.36321,1.38561 -4.12072,5.13547 -4.44393,5.62856c-0.50164,0.76532 -1.09291,1.35349 -1.80957,1.70372c-4.12855,2.01765 -5.53327,3.24279 -9.85423,-1.22997c-1.33631,-1.38325 -5.41258,-11.35723 -7.03378,-12.75948c-2.21928,-1.91955 -7.8019,-6.81389 -8.5466,-8.27826z" fill="url(#color-6)"/></g><g stroke="none" stroke-width="0"><path d="M186.71468,110.26441c-4.03455,2.93241 -6.63619,-2.45827 -9.92118,0.46738c-10.62207,9.46008 -8.91111,6.75152 -20.18319,1.72291c-1.18146,-0.52706 -17.75988,-12.46584 -19.42188,-14.30801c-1.09054,-1.20876 8.67391,0.6823 8.09447,-0.0206c-0.94225,-1.14305 -12.41159,-6.7326 -11.69897,-9.7854c0.31319,-1.78053 14.07645,8.20947 12.91264,6.25107c-0.98315,-1.6544 -3.55432,-4.56123 -6.32768,-7.61899c-4.06368,-4.48042 -8.56146,-9.28493 -9.13384,-10.94849c-1.1748,-3.41451 8.26377,4.99668 7.83253,2.12864c-0.37295,-2.4804 -7.78474,-9.56085 -7.35433,-13.92163c0.41425,-4.19696 6.68548,-1.26659 7.39719,-3.96691c0.63943,-2.42606 -7.15053,-11.87397 -6.07926,-14.27531c0.60516,-1.35653 8.67669,2.65032 6.3449,-2.54459c-1.72526,-3.84364 -4.62471,-10.54713 -3.92867,-11.80334c0.75417,-1.36113 5.21407,2.83995 5.98736,1.41856c0.80746,-1.48422 -5.03899,-14.41868 -0.93986,-12.58219c1.76717,0.79172 5.72774,2.17315 6.67208,1.91344c6.14612,-1.6903 0.33459,-11.41598 4.87383,-13.15748c4.17512,-1.6018 8.21143,14.68557 12.20861,3.48577c0.36927,-1.03468 2.81379,12.90417 4.35627,10.63588c2.3306,-3.42726 5.12759,-7.12662 5.75342,-7.66511c4.8467,-4.17024 3.05203,8.37618 4.91468,9.20713c2.42504,1.08184 6.47566,-1.7864 9.00996,0.76088c1.71874,1.72754 2.1535,8.80346 3.17398,10.26582c1.16105,1.66379 5.94565,-2.08478 7.5055,0.80942c0.94269,1.7491 -0.79288,9.28783 -0.94714,12.34042c-0.14324,2.83452 10.50145,-5.56754 10.3298,-2.98832c-0.25842,3.88299 -5.7346,8.793 -5.69012,10.7433c0.04694,2.0586 2.04237,1.55489 1.77156,3.68383c-0.28666,2.25363 4.83809,-4.25562 4.63948,-1.95897c-0.0696,0.80483 -2.86648,7.3391 -3.92148,9.30533c-0.31309,0.58352 8.26702,-5.73159 7.66264,-2.60703c-0.6965,3.60073 -10.6449,16.88346 -12.0703,20.81881c-4.08078,11.26656 -10.48062,21.7644 -13.82302,24.19374z" fill="url(#color-7)"/><path d="M199.98237,78.2193c2.44833,23.10232 -11.25811,31.95112 -24.0875,29.80069c-7.20928,-1.2084 -20.26774,5.44971 -28.20263,-2.07021c-6.18577,-5.86229 -8.11297,-24.58808 -9.18549,-34.70841c-2.44833,-23.10232 8.47916,-55.71611 21.30855,-53.56569c12.19141,2.04349 40.5456,32.06356 43.78899,53.73155c0.16973,1.13388 -3.74368,5.66323 -3.62194,6.81204z" fill="url(#color-8)"/><path d="M186.79592,87.52029c-2.64777,1.92447 -8.54987,16.2257 -10.70572,18.14572c-6.97098,6.20839 -9.55106,4.2951 -16.94861,0.99496c-1.28412,-0.57286 -2.3786,-1.48455 -3.33838,-2.64886c-0.61837,-0.75015 -8.83528,-6.62141 -8.36759,-8.62488c0.34657,-1.48465 9.53532,0.97176 8.77154,-0.31348c-1.59064,-2.67663 -8.28389,-3.73458 -8.91589,-5.57142c-0.77099,-2.24085 4.1922,-3.33473 3.90919,-5.21695c-0.24475,-1.62782 -7.48352,-6.57578 -7.20105,-9.43764c0.27187,-2.75435 6.76209,-0.52998 7.22918,-2.30213c0.41965,-1.59216 -4.13263,-3.15669 -3.42958,-4.73262c0.39715,-0.89025 5.13421,-2.89655 3.60392,-6.30583c-2.35904,-5.25564 -6.5256,-9.23717 -5.54975,-11.03092c0.52991,-0.97405 6.66317,0.99589 9.35331,2.20112c2.24622,1.00635 0.15409,-6.88259 0.56886,-8.49995c1.19312,-4.65252 -1.18576,-6.80841 1.36441,-7.78681c2.74002,-1.05122 7.90525,16.89749 10.5285,9.54735c0.60851,-1.70501 -4.87032,-11.8577 -4.18775,-12.44499c3.18076,-2.73682 15.50994,22.53299 16.73237,23.07833c0.96445,0.43025 -3.19124,-11.12262 -1.79654,-12.48447c1.42087,-1.38741 4.68681,9.00771 7.43363,11.02926c2.02354,1.48923 5.57883,-2.40844 6.02797,-1.76483c1.22247,1.75179 -0.59413,4.00297 -0.86289,9.32119c-0.09401,1.86022 5.76358,-1.1248 5.65093,0.56788c-0.16959,2.54831 -6.29437,9.56913 -6.26517,10.84905c0.0308,1.35099 0.71717,-0.39471 0.53946,1.00246c-0.25406,1.99729 12.37856,-3.9896 9.71044,0.98302c-1.12017,2.08768 -10.23018,8.811 -13.85475,11.44544z" fill="url(#color-9)"/><path d="M184.80062,90.5207c-1.88364,1.36907 -6.08241,11.54302 -7.61609,12.90894c-4.95918,4.41668 -6.79465,3.05555 -12.05731,0.70782c-0.91353,-0.40754 -1.69214,-1.05611 -2.37494,-1.88441c-0.43991,-0.53366 -6.28545,-4.71051 -5.95273,-6.13577c0.24655,-1.05618 6.78347,0.69132 6.24012,-0.22301c-1.13158,-1.90416 -5.8932,-2.6568 -6.34279,-3.96353c-0.54849,-1.59415 2.98234,-2.37234 2.781,-3.71136c-0.17412,-1.15804 -5.32381,-4.67803 -5.12285,-6.71397c0.1934,-1.95946 4.81058,-0.37703 5.14287,-1.63773c0.29853,-1.13267 -7.01799,-5.2976 -6.51784,-6.41872c0.28253,-0.63333 7.73051,0.9913 6.64186,-1.43407c-1.67824,-3.73888 -4.64234,-6.57136 -3.9481,-7.84744c0.37699,-0.69294 3.82294,2.7646 5.73673,3.62201c6.19474,2.77535 -0.15228,-12.70458 2.29259,-13.64257c1.94926,-0.74784 7.41697,18.1624 9.28316,12.9335c0.4329,-1.21295 1.99742,-10.51861 2.483,-10.93642c2.26281,-1.94698 3.7785,11.97159 4.64813,12.35955c1.90003,0.84763 5.84084,-6.19422 7.0198,-4.50478c0.86967,1.24623 0.8561,5.06174 0.66489,8.84514c-0.06688,1.32337 4.10024,-0.80018 4.0201,0.404c-0.12065,1.81287 -4.47783,6.80751 -4.45707,7.71806c0.02192,0.96111 0.5102,-0.2808 0.38377,0.71315c-0.18074,1.42088 8.80615,-2.83821 6.90804,0.69933c-0.79689,1.48518 -7.27778,6.26818 -9.85632,8.14233z" fill="url(#color-10)"/></g><path d="M321.51169,120.75193c0,0.39278 4.31407,-0.02747 10.24044,3.00659c5.94849,3.04538 13.51255,9.54893 15.23001,12.0009c1.95727,2.79433 -9.48896,-0.77643 -12.64022,0.36381c-3.18763,1.15341 15.43035,8.7682 15.37207,9.24389c-0.23344,1.90517 -13.27646,1.45331 -17.62361,2.82395c-3.26878,1.03063 10.18767,2.68237 9.58825,4.05643c-0.5893,1.35086 -6.82659,3.56675 -9.62197,5.18018c-2.82156,1.62854 4.85257,6.18203 3.94843,7.48112c-1.05667,1.51826 -9.26739,-0.51567 -10.51264,0.95079c-1.44092,1.69689 6.40495,5.70903 4.73679,7.32846c-0.47703,0.46309 -3.58036,-0.90745 -6.54817,-1.06955c-2.6584,-0.1452 -5.20806,0.9116 -5.664,1.31473c-20.50158,18.12658 -54.20196,30.51406 -80.39519,30.51406c-23.99005,0 -52.16533,-9.28178 -71.78689,-23.78066c-1.60062,-1.18274 -6.08405,4.6552 -7.56391,3.40523c-0.76144,-0.64315 2.16968,-11.75163 -1.14533,-10.88224c-4.71613,1.23684 -13.11407,7.6203 -14.07299,6.64849c-1.00343,-1.01692 9.20668,-11.45848 8.29139,-12.50933c-0.83897,-0.96322 0.24567,-1.57924 -2.7197,-1.29399c-6.07455,0.58433 -16.10474,4.83525 -17.26368,2.70382c-0.831,-1.52831 12.55407,-11.90068 11.94198,-13.47623c-0.92617,-2.384 -15.11504,2.25291 -15.49218,-0.18881c-0.23577,-1.52641 12.57763,-12.46908 12.57763,-14.01092c0,-0.19033 -13.97117,2.36229 -12.28309,-1.097c0.70446,-1.44362 8.18599,-2.12504 10.22839,-4.12864c3.34963,-3.28599 -3.43226,-4.0257 -8.10787,-2.80332c-2.3343,0.61027 4.91668,-3.95106 11.41148,-7.91078c2.05292,-1.25162 -4.20099,-3.61902 -2.62575,-4.5681c2.02584,-1.22057 11.61784,-0.86427 11.61878,-0.89511c0.04342,-1.41896 0.39275,-3.95706 0.92508,-6.17651c0.35591,-1.48391 0.79363,-2.50025 1.27642,-4.14665c1.75429,-5.9825 4.10365,-12.52094 5.28554,-15.85983c6.06209,-17.12562 22.91094,-30.46345 43.29248,-37.56516c1.67669,-0.58422 2.78934,-7.00573 4.50981,-7.50418c0.68524,-0.19853 2.71593,4.92358 4.31173,4.06058c2.389,-1.29196 3.94513,-6.93628 4.99216,-7.18101c1.16108,-0.27139 1.40653,8.059 4.02944,5.7985c2.69695,-2.32432 4.24513,-7.59665 5.46296,-7.79212c2.42651,-0.38947 -0.88768,7.53813 1.6915,7.32362c3.03412,-0.25234 20.78618,-15.66793 23.65542,-15.66793c2.17376,0 -9.70378,15.35581 -7.43008,15.49615c1.86117,0.11488 12.09001,-6.77791 14.11304,-6.56647c2.55306,0.26683 -3.08459,7.66683 -0.6733,8.09151c15.18769,2.67486 30.40165,9.11385 40.96506,18.70925c9.03811,8.20988 10.68083,21.23284 14.60121,30.6335c0.3386,0.81193 7.20789,3.42649 7.65265,5.58486c0.55602,2.69829 -5.28834,5.01454 -4.63794,6.00878c1.07072,1.63679 16.32625,1.94917 17.36771,2.6311c1.98912,1.30243 -10.50934,2.39606 -10.50934,5.71424z" fill="url(#color-11)" stroke="none" stroke-width="0"/><path d="M325.7836,121.83312c0,7.9072 -7.15757,17.60256 -21.54404,20.69306c-14.07048,3.02262 -35.22658,-0.47703 -48.31732,-0.14299c-0.7324,0.01869 -1.46891,0.02813 -2.20918,0.02813c-9.54082,0 -32.38487,3.38738 -44.63025,0.90239c-10.6578,-2.16282 -17.15398,-6.97485 -21.24509,-10.81119c-4.195,-3.93377 0.27433,-14.17881 2.93778,-19.23406c0.35693,-0.67747 3.70867,-11.93456 3.70867,-12.60149c0,-16.0734 31.72831,-16.46256 59.22888,-16.46256c9.84645,0 39.14457,-2.50557 48.81282,1.05426c17.3346,6.38257 23.25772,26.25606 23.25772,36.57445z" fill="url(#color-12)" stroke="none" stroke-width="0"/><path d="M302.36584,87.44014c9.11576,-0.95062 23.39466,38.69273 24.21715,49.30255c0.82248,10.60982 -1.50372,26.63082 -10.61947,27.58144c-9.11576,0.95062 -29.08127,-30.47063 -29.90376,-41.08046c-0.82248,-10.60982 21.69033,-39.35292 30.80608,-40.30354z" data-paper-data="{&quot;index&quot;:null}" fill="url(#color-13)" stroke="none" stroke-width="0"/><path d="M267.59861,126.20634c0,10.96836 -29.29953,48.80845 -45.86,48.80845c-16.56047,0 -25.28179,-19.66314 -25.28179,-30.6315c0,-6.54208 -2.33564,-25.27835 -0.70678,-39.335c1.10206,-9.51053 4.01894,-16.87887 10.70191,-16.87887c11.52644,0 28.62983,3.11325 42.82653,14.78391c6.20023,5.09701 18.32013,19.91887 18.32013,23.25302z" fill="url(#color-14)" stroke="none" stroke-width="0"/><path d="M259.42689,129.88224c0,6.10886 -5.13469,7.87959 -12.55405,8.36981c-1.68453,0.1113 -3.48684,0.15659 -5.37356,0.17167c-1.33655,0.01068 -6.53713,4.4158 -7.94655,4.40887c-1.34603,-0.00662 1.10179,-4.42509 -0.28956,-4.42509c-0.61894,0 -6.13862,5.42697 -7.89456,6.0306c-2.14904,0.73876 3.14635,-6.28473 1.37821,-6.48887c-1.87807,-0.21684 -9.31315,5.47349 -10.31771,5.28825c-2.30869,-0.42572 4.64583,-6.69841 2.13537,-6.69793c-2.71599,0.00052 -6.82886,2.67721 -8.27032,1.88879c-1.0427,-0.57032 5.03863,-5.01716 4.14289,-5.69067c-0.77981,-0.58634 -7.37976,2.02441 -8.0345,1.36909c-1.08492,-1.08586 1.8888,-3.95258 2.32081,-5.81636c0.64931,-2.80126 -0.74199,-4.81736 -0.74199,-6.9334c0,-1.68012 0.51005,-3.42513 1.42745,-5.1584c0.29117,-0.55012 -0.80858,-3.34968 0.2043,-4.39505c1.06967,-1.10397 4.25829,-0.45484 4.72932,-1.01972c1.09522,-1.31344 -4.36426,-2.58937 -2.90423,-3.79151c0.51458,-0.42369 5.16444,1.21961 5.71617,0.81584c1.0355,-0.75781 -1.68899,-4.41748 -0.54421,-5.08902c1.06082,-0.62229 3.5686,1.34842 5.80638,1.66865c1.45149,0.20771 -2.20816,-4.07019 -1.45239,-4.37024c1.21396,-0.48196 7.44982,2.32985 8.69979,1.97744c0.96416,-0.27183 -2.76832,-4.06598 -1.79608,-4.29756c1.80694,-0.4304 8.3214,2.78738 10.09888,2.78738c13.96275,0 21.46013,19.98069 21.46013,29.39743z" fill="#fff9d9" stroke="none" stroke-width="NaN"/><path d="M314.31423,153.29326c2.96757,0.32398 13.91729,0.79676 15.58771,6.37662c1.88598,6.29992 -16.93988,19.85795 -23.27149,23.97025c-7.40778,4.81125 -40.03784,19.69638 -47.74657,22.81418c-6.88378,2.78414 -7.83854,1.09834 -12.42966,1.26406c-5.27882,0.19054 -22.00658,-0.53459 -33.87939,-6.45253c-4.73967,-2.36246 -22.20637,-8.05014 -26.33069,-10.1913c-15.20199,-13.22017 -21.09686,-9.50086 -20.5624,-18.35736c0.0539,-0.89314 3.83805,-5.58557 6.61693,-7.28823c2.726,-1.67025 11.34716,-3.70887 11.94669,-4.01809c3.40312,-1.75514 7.92389,-3.23655 10.23259,-4.45019c7.05016,-3.70616 8.70317,-5.46516 17.99451,-9.34049c18.71164,-0.24659 20.78278,-3.19251 31.90883,-3.59412c9.47337,-0.34195 19.65952,2.71459 36.28052,0.63519c0.63729,0.15691 5.62524,3.25585 6.21195,3.40685c12.26331,3.15598 14.26572,3.78684 27.44046,5.22515z" fill="#ffffff" stroke="none" stroke-width="0"/><path d="M314.79661,157.71484c0,2.46337 -1.19237,6.35361 -10.06092,8.50393c-6.04385,1.46543 -18.34723,1.58722 -25.71548,1.99607c-4.84056,0.26859 -14.33211,0.10328 -19.99422,-0.33712c-15.4185,-1.19927 -27.54395,-4.43842 -30.98978,-6.51062c-1.37117,-0.82457 -3.23959,-9.71848 -3.23959,-10.65225c0,-4.14214 30.41843,3.5 48.63354,3.5c18.21511,0 41.36646,-0.64214 41.36646,3.5z" fill="#1f1f1f" stroke="none" stroke-width="0"/><path d="M310.4513,152.7053c0,7.6308 -4.03025,13.81679 -11.8738,13.81679c-4.83332,0 -11.71091,0.46991 -15.25982,-2.89842c-0.48967,-0.46476 -0.22638,-9.19749 -0.59537,-9.73691c-1.29657,-1.89542 -0.675,1.09831 -0.675,-1.18146c0,-7.6308 6.35845,-13.81679 14.20199,-13.81679c7.84354,0 14.20199,6.18599 14.20199,13.81679z" fill="#ffffff" stroke="#004141" stroke-width="0.5"/><path d="M280.57957,154.46914c0,3.81189 0.88425,7.41105 -2.37124,9.47029c-3.26148,2.06304 -11.07473,3.46458 -17.91548,3.46458c-13.66893,0 -34.48742,-7.36189 -34.48742,-14.99269c0,-7.6308 20.81849,-12.6409 34.48742,-12.6409c10.03554,0 17.05311,-1.36916 20.93756,3.4234c1.40637,1.73515 -0.65083,9.24694 -0.65083,11.27531z" fill="#ffffff" stroke="#004141" stroke-width="0.5"/><path d="M266.65666,143.37243l2.54795,-5.75217c0,0 15.97881,-1.29311 20.29077,-1.20798c3.35095,0.06616 3.43262,1.67636 3.43262,1.67636l2.18588,2.85811c0,0 3.07718,2.11469 -1.29318,4.94838c-0.54825,0.35547 -0.97705,2.60351 -2.63945,4.5237c-0.54372,0.62804 -1.26711,2.27966 -2.05794,3.40919c-2.43794,3.48209 -5.51682,7.67159 -5.949,7.68148c-1.48838,0.03409 1.38857,-1.00775 0.44324,-3.66396c-0.34915,-0.98105 -4.43167,-4.28829 -4.99085,-5.11426c-1.22744,-1.81304 -5.06535,-4.31331 -7.68427,-5.6016c-2.16493,-1.06496 -4.28575,-3.75727 -4.28575,-3.75727z" fill="url(#color-15)" stroke="none" stroke-width="0"/><path d="M281.07679,156.52697c0,1.30149 -2.16512,6.11004 -5.11903,7.62217c-2.36774,1.21206 -6.79503,2.15559 -9.247,2.43347c-3.74286,0.42417 -11.85705,0.15997 -14.62676,0.15997c-6.84781,0 -22.2847,-6.57241 -22.2847,-10.50958c0,-3.93717 16.6894,-10.06862 23.5372,-10.06862c6.84781,0 27.74029,6.42543 27.74029,10.3626z" fill="url(#color-16)" stroke="none" stroke-width="0"/><path d="M308.40715,160.59401c0,1.74909 -1.8237,3.572 -4.68431,4.56475c-2.38368,0.82724 -5.58923,0.97618 -8.10904,0.97618c-5.54376,0 -11.7069,-0.62033 -11.7069,-3.82689c0,-0.90866 0.67354,-2.0253 1.51726,-3.97531c2.13368,-4.93137 8.08599,-11.40332 12.05879,-11.40332c3.01988,0 10.73611,0.82977 13.01523,4.51268c1.9048,3.07803 -0.42437,8.35873 -0.42437,9.81857z" fill="url(#color-17)" stroke="none" stroke-width="0"/><path d="M256.73978,118.26908c1.10567,2.49561 2.54474,11.94398 1.79291,13.7409c-0.90688,2.1675 -2.48656,0.10492 -5.67703,0.90123c-3.47542,0.86744 -8.19402,2.55654 -12.82173,2.55654c-8.36058,0 -18.3366,-1.25411 -24.28734,-4.51045c-2.87365,-1.5725 -5.20893,-3.05469 -5.20893,-6.14789c0,-9.49856 11.09464,-19.62102 23.49261,-19.62102c12.39796,0 17.74997,1.88647 22.70952,13.08068z" fill="#535353" stroke="none" stroke-width="0"/><path d="M257.3117,127.1331c0,4.32663 1.08751,3.05627 -3.41549,3.626c-3.0823,0.38997 -13.09182,3.15698 -16.96201,3.15698c-9.52423,0 -22.72676,-3.29536 -22.72676,-10.58356c0,-4.2168 4.07453,-8.92687 10.2334,-12.34803c4.48595,-2.49188 10.56788,-3.46133 14.5816,-3.46133c9.52423,0 18.28927,12.32174 18.28927,19.60995z" fill="#ffffff" stroke="#005e5e" stroke-width="0.5"/><g><path d="M257.04741,121.79917c0,5.69916 -4.80489,10.31923 -10.732,10.31923c-5.92711,0 -10.732,-4.62007 -10.732,-10.31923c0,-5.69916 4.80489,-10.31923 10.732,-10.31923c5.92711,0 10.732,4.62007 10.732,10.31923z" fill="#c6c6c6" stroke="#001414" stroke-width="0.5"/><path d="M255.6054,123.60078c0.14731,4.0861 -2.70469,4.70693 -4.28916,5.57433c-1.28383,0.70281 -0.86812,2.00119 -4.22001,2.00119c-7.48872,0 -10.2768,-1.19414 -10.2768,-8.5856c0,-7.39146 2.78807,-10.10071 10.2768,-10.10071c7.48872,0 8.25213,3.981 8.50918,11.11078z" fill="url(#color-18)" stroke="none" stroke-width="0"/><path d="M251.49202,122.48909c0,2.7059 -2.09153,4.89946 -4.67158,4.89946c-2.58004,0 -4.67158,-2.19355 -4.67158,-4.89946c0,-2.7059 2.09153,-4.89946 4.67158,-4.89946c2.58004,0 4.67158,2.19355 4.67158,4.89946z" fill="#171717" stroke="none" stroke-width="0"/><g stroke="none" stroke-width="0"><path d="M255.5323,118.17166c0,2.99842 -2.37417,5.42913 -5.30287,5.42913c-2.92869,0 -5.30287,-2.43071 -5.30287,-5.42913c0,-2.99842 2.37417,-5.42913 5.30287,-5.42913c2.92869,0 5.30287,2.43071 5.30287,5.42913z" fill="url(#color-19)"/><path d="M253.51217,117.91913c0,1.32488 -1.18708,2.39892 -2.65143,2.39892c-1.46435,0 -2.65143,-1.07403 -2.65143,-2.39892c0,-1.32488 1.18708,-2.39892 2.65143,-2.39892c1.46435,0 2.65143,1.07403 2.65143,2.39892z" fill="#ffffff"/></g></g><path d="M302.76266,98.54506c1.21014,0 5.64528,-3.21778 6.87549,-2.78738c0.66192,0.23158 -1.87922,4.02573 -1.2228,4.29756c0.851,0.35241 5.09648,-2.4594 5.92297,-1.97744c0.51454,0.30005 -1.97701,4.57795 -0.98881,4.37024c1.52352,-0.32023 3.23085,-2.29095 3.95308,-1.66866c0.77939,0.67154 -1.07549,4.33121 -0.37051,5.08902c0.37563,0.40377 3.54133,-1.23953 3.89166,-0.81584c0.99401,1.20214 -2.7229,2.47807 -1.97725,3.7915c0.32069,0.56488 2.49155,-0.08425 3.2198,1.01972c0.68959,1.04536 -0.05914,3.84493 0.1391,4.39505c0.62457,1.73327 0.97182,3.47829 0.97182,5.1584c0,2.11603 -0.94721,4.13213 -0.50515,6.9334c0.29412,1.86378 2.31868,4.73049 1.58004,5.81636c-0.44576,0.65532 -4.93911,-1.95543 -5.47002,-1.36909c-0.60984,0.67351 3.53043,5.12036 2.82055,5.69067c-0.98137,0.78842 -3.78148,-1.88826 -5.63057,-1.88879c-1.70916,-0.00048 3.02559,6.27221 1.4538,6.69793c-0.68391,0.18524 -5.74585,-5.50508 -7.02447,-5.28825c-1.20378,0.20414 2.40142,7.22763 0.93832,6.48887c-1.19547,-0.60362 -4.95336,-6.03059 -5.37475,-6.03059c-0.94725,0 0.71926,4.41846 -0.19714,4.42509c-0.95956,0.00694 -4.5002,-4.39819 -5.41014,-4.40887c-1.28452,-0.01507 -2.51155,-0.06037 -3.65841,-0.17167c-5.05122,-0.49023 -8.547,-2.26094 -8.547,-8.36981c0,-9.41674 5.10434,-29.39743 14.61041,-29.39743z" data-paper-data="{&quot;index&quot;:null}" fill="#fff9d9" stroke="none" stroke-width="NaN"/><path d="M304.65178,105.60045c7.85882,0 14.8915,10.02223 14.8915,19.42675c0,3.06257 -1.48029,4.53007 -3.30184,6.08701c-3.77206,3.2241 -10.09566,4.46579 -15.39527,4.46579c-2.93342,0 -5.92444,-1.67238 -8.12745,-2.53122c-2.02238,-0.78843 -3.0237,1.25373 -3.59856,-0.89231c-0.47656,-1.77913 0.43563,-11.13395 1.13649,-13.60486c3.14376,-11.08337 6.5363,-12.95117 14.39511,-12.95117z" data-paper-data="{&quot;index&quot;:null}" fill="#535353" stroke="none" stroke-width="0"/><path d="M302.4008,107.75328c2.51447,0 6.32461,0.97447 9.13491,3.47924c3.85834,3.43887 6.4109,8.17332 6.4109,12.41194c0,7.32593 -8.27097,10.63834 -14.23761,10.63834c-2.42456,0 -8.69521,-2.78133 -10.62617,-3.17332c-2.82098,-0.57267 -2.1397,0.70426 -2.1397,-3.64476c0,-7.32593 5.49102,-19.71144 11.45765,-19.71144z" data-paper-data="{&quot;index&quot;:null}" fill="#ffffff" stroke="#005e5e" stroke-width="0.5"/><g><path d="M308.76402,123.23957c0,5.6037 -3.88172,10.1464 -8.67008,10.1464c-4.78834,0 -8.67008,-4.5427 -8.67008,-10.1464c0,-5.6037 3.88172,-10.1464 8.67008,-10.1464c4.78834,0 8.67008,4.5427 8.67008,10.1464z" fill="#c6c6c6" stroke="#001414" stroke-width="0.5"/><path d="M307.59906,125.01101c0.11902,4.01766 -2.18505,4.6281 -3.4651,5.48097c-1.03716,0.69105 -0.70133,1.96768 -3.40923,1.96768c-6.04992,0 -8.30234,-1.17413 -8.30234,-8.4418c0,-7.26767 2.25241,-9.93153 8.30234,-9.93153c6.04992,0 6.66666,3.91432 6.87432,10.92469z" fill="url(#color-20)" stroke="none" stroke-width="0"/><path d="M304.27598,123.91794c0,2.66058 -1.68969,4.81739 -3.77404,4.81739c-2.08434,0 -3.77404,-2.15682 -3.77404,-4.81739c0,-2.66058 1.68969,-4.81739 3.77404,-4.81739c2.08434,0 3.77404,2.15682 3.77404,4.81739z" fill="#171717" stroke="none" stroke-width="0"/><g stroke="none" stroke-width="0"><path d="M307.54001,119.67281c0,2.9482 -1.91803,5.3382 -4.28404,5.3382c-2.36602,0 -4.28404,-2.39 -4.28404,-5.3382c0,-2.9482 1.91803,-5.3382 4.28404,-5.3382c2.36602,0 4.28404,2.39 4.28404,5.3382z" fill="url(#color-21)"/><path d="M305.908,119.42453c0,1.30269 -0.95902,2.35874 -2.14201,2.35874c-1.183,0 -2.14201,-1.05604 -2.14201,-2.35874c0,-1.30269 0.95902,-2.35874 2.14201,-2.35874c1.183,0 2.14201,1.05604 2.14201,2.35874z" fill="#ffffff"/></g></g><path d="M249.53248,204.55488c-0.72587,2.10849 -3.23247,4.19902 -8.76834,3.92403c-13.00473,-0.64599 -36.08509,-7.70461 -44.37634,-10.55897c-4.03798,-1.39012 -21.12716,-11.52716 -25.32285,-16.65368c-8.08665,-9.8807 -2.21155,-17.43709 -0.61094,-22.08648c2.43108,-7.0617 19.18311,14.20885 31.00378,18.27826c11.82067,4.06941 50.50576,20.03513 48.07469,27.09683z" fill="url(#color-22)" stroke="none" stroke-width="0"/><path d="M301.40392,181.49716c11.52108,-4.85315 25.55551,-32.84576 28.45479,-25.96303c2.89928,6.88272 -20.10743,33.17233 -31.62851,38.02549c-0.93537,0.39402 -7.06465,8.35752 -8.35047,8.8715c-9.82305,3.92657 -23.78239,3.29907 -35.21764,4.64037c-5.50495,0.6457 -8.14614,-1.27199 -9.01181,-3.32703c-1.69916,-4.03369 21.02281,-1.97026 33.75136,-6.34289c7.13764,-2.45199 10.31616,-6.13892 12.67929,-9.79607c0.61336,-0.94924 3.84022,-3.69436 4.82297,-4.10833z" data-paper-data="{&quot;index&quot;:null}" fill="url(#color-23)" stroke="none" stroke-width="0"/><path d="M254.56748,80.51293c0,2.03796 -0.35543,8.82216 -7.34854,9.60496c-6.64878,0.74426 -22.56673,-4.46324 -27.27236,-4.46324c-9.65496,0 -3.08503,-1.16615 -3.08503,-5.14172c0,-3.97557 11.94026,-3.77059 21.59522,-3.77059c9.65496,0 16.11072,-0.20498 16.11072,3.77059z" fill="url(#color-24)" stroke="none" stroke-width="0"/><path d="M297.0719,80.06823c5.5611,-1.52585 12.41794,-3.59891 12.81666,0.00934c0.39873,3.60825 4.29986,3.62835 -1.26124,5.1542c-2.71037,0.74367 -11.35657,7.98566 -15.26081,8.36093c-4.10643,0.39471 -4.99157,-5.70649 -5.19596,-7.55615c-0.39873,-3.60825 3.34024,-4.44247 8.90135,-5.96832z" data-paper-data="{&quot;index&quot;:null}" fill="url(#color-25)" stroke="none" stroke-width="0"/><path d="M192.40303,142.66404c0,3.16914 -4.15008,5.73824 -9.26946,5.73824c-5.11938,0 -9.26946,-2.5691 -9.26946,-5.73824c0,-3.16914 4.15008,-5.73824 9.26946,-5.73824c5.11938,0 9.26946,2.5691 9.26946,5.73824z" fill="url(#color-26)" stroke="none" stroke-width="0"/><path d="M216.6935,147.49805c1.26355,2.90636 -2.48373,7.33688 -8.36977,9.89586c-5.88604,2.55897 -11.68193,2.27736 -12.94547,-0.62899c-1.26355,-2.90636 2.48373,-7.33688 8.36977,-9.89585c5.88604,-2.55897 11.68193,-2.27736 12.94548,0.62899z" fill="url(#color-27)" stroke="none" stroke-width="0"/><path d="M193.84978,165.71951c2.22917,-0.00596 4.04606,3.64901 4.05814,8.16359c0.01208,4.51458 -1.78524,8.17921 -4.0144,8.18517c-2.22917,0.00596 -4.04606,-3.64901 -4.05814,-8.16359c-0.01208,-4.51458 1.78524,-8.17921 4.0144,-8.18517z" fill="url(#color-28)" stroke="none" stroke-width="0"/><path d="M186.07584,152.68902c3.15364,0.29077 4.511,4.33091 3.03173,9.02389c-1.47925,4.69298 -5.23495,8.26168 -8.3886,7.97091c-3.15364,-0.29077 -4.511,-4.33091 -3.03175,-9.02389c1.47925,-4.69298 5.23495,-8.26168 8.3886,-7.97091z" fill="url(#color-29)" stroke="none" stroke-width="0"/><path d="M175.02571,148.34426c2.11431,0.42433 2.74197,3.25774 1.40192,6.3286c-1.34005,3.07086 -4.14036,5.2163 -6.25467,4.79198c-2.11431,-0.42433 -2.74197,-3.25774 -1.40192,-6.3286c1.34005,-3.07086 4.14036,-5.2163 6.25467,-4.79198z" fill="url(#color-30)" stroke="none" stroke-width="0"/><path d="M167.73582,141.39424c1.68346,1.11098 1.23155,3.78751 -1.00938,5.9782c-2.24093,2.19069 -5.42227,3.06598 -7.10573,1.955c-1.68346,-1.11098 -1.23155,-3.78751 1.00938,-5.9782c2.24093,-2.19069 5.42227,-3.06598 7.10573,-1.955z" fill="url(#color-31)" stroke="none" stroke-width="0"/><path d="M310.34566,144.17069c1.51834,-1.86768 4.64321,-1.01452 6.97958,1.90559c2.33637,2.92011 2.99952,6.80138 1.48117,8.66906c-1.51834,1.86768 -4.64321,1.01452 -6.97958,-1.90559c-2.33637,-2.92011 -2.99952,-6.80138 -1.48117,-8.66906z" fill="url(#color-32)" stroke="none" stroke-width="0"/><path d="M319.58382,149.58701c1.30502,-1.60527 3.99084,-0.87198 5.99895,1.63786c2.00811,2.50984 2.57809,5.8458 1.27307,7.45107c-1.30502,1.60527 -3.99084,0.87198 -5.99895,-1.63786c-2.00811,-2.50984 -2.57809,-5.8458 -1.27307,-7.45107z" fill="url(#color-33)" stroke="none" stroke-width="0"/><path d="M320.80822,132.70325c1.51834,-1.86768 4.64321,-1.01451 6.97958,1.90559c2.33637,2.92011 2.99952,6.80138 1.48117,8.66906c-1.51834,1.86768 -4.64321,1.01451 -6.97958,-1.90559c-2.33637,-2.92011 -2.99952,-6.80138 -1.48117,-8.66906z" fill="url(#color-34)" stroke="none" stroke-width="0"/><path d="M329.03811,151.16904c1.07604,-1.32361 3.29061,-0.71898 4.94639,1.35048c1.65577,2.06946 2.12574,4.8201 1.0497,6.14371c-1.07604,1.32361 -3.29061,0.71898 -4.94639,-1.35048c-1.65577,-2.06946 -2.12574,-4.8201 -1.0497,-6.14371z" fill="url(#color-35)" stroke="none" stroke-width="0"/><path d="M330.80335,137.93454c1.51834,-1.86768 4.64321,-1.01451 6.97958,1.90559c2.33637,2.92011 2.99952,6.80138 1.48117,8.66906c-1.51834,1.86768 -4.64321,1.01451 -6.97958,-1.90559c-2.33637,-2.92011 -2.99952,-6.80138 -1.48117,-8.66906z" fill="url(#color-36)" stroke="none" stroke-width="0"/><path d="M269.10194,222.90734c0,12.01446 -14.35579,55.85512 -22.63602,55.85512c-2.9626,0 -0.40023,-1.48242 -4.94926,-8.4678c-8.16519,-12.53823 -17.68676,-41.43538 -17.68676,-49.15117c0,-12.01446 14.35579,14.11077 22.63602,14.11077c8.28023,0 22.63602,-24.36138 22.63602,-12.34692z" fill="url(#color-37)" stroke="none" stroke-width="0"/><path d="M292.19963,140.03427c0,0.98523 1.27018,3.45411 0.55062,4.54347c-1.53342,2.32149 -4.534,3.76653 -8.29113,3.76653c-5.52016,0 -14.58308,-5.22521 -14.58308,-8.31c0,-3.0848 6.8083,-5.58551 12.32846,-5.58551c5.52016,0 9.99513,2.50072 9.99513,5.58551z" fill="url(#color-38)" stroke="none" stroke-width="0"/><path d="M292.05264,144.15113c0,0.91839 0.50123,3.37993 -2.06331,5.12072c-1.28914,0.87506 -5.54985,1.78768 -6.60894,1.78768c-1.36254,0 -2.82113,-0.49046 -5.04546,-1.82906c-2.94406,-1.77173 -6.56653,-4.58721 -6.56653,-5.37332c0,-1.38004 7.85806,0.44096 11.02404,0.44096c3.16597,0 9.26019,-1.52703 9.26019,-0.14699z" fill="url(#color-39)" stroke="none" stroke-width="0"/><path d="M289.9647,138.50658c0,1.29886 -5.79592,1.46987 -8.23128,1.46987c-2.43537,0 -9.70115,-0.75896 -9.70115,-2.05782c0,-1.29886 7.26579,-2.64577 9.70115,-2.64577c2.43537,0 8.23128,1.93486 8.23128,3.23372z" fill="url(#color-40)" stroke="none" stroke-width="0"/><path d="M319.29661,173.21484c0,7.73199 -32.7076,30 -49,30c-5.21581,0 -23.44634,-1.41106 -32.22677,-3.5834c-18.6466,-4.6133 -29.77323,-12.65991 -29.77323,-17.9166c0,-7.73199 46.7076,-10.5 63,-10.5c16.2924,0 48,-5.73199 48,2z" fill="url(#color-41)" stroke="none" stroke-width="0"/></g></g></svg>