<svg version="1.1" xmlns="http://www.w3.org/2000/svg" xmlns:xlink="http://www.w3.org/1999/xlink" width="271.94692" height="258.23292" viewBox="0,0,271.94692,258.23292"><defs><radialGradient cx="241.76233" cy="218.49773" r="29.39743" gradientUnits="userSpaceOnUse" id="color-1"><stop offset="0" stop-color="#fff082"/><stop offset="1" stop-color="#ffd183"/></radialGradient><linearGradient x1="246.43086" y1="198.59149" x2="246.43086" y2="232.69251" gradientUnits="userSpaceOnUse" id="color-2"><stop offset="0" stop-color="#c48d2e"/><stop offset="1" stop-color="#c48d2e" stop-opacity="0"/></linearGradient><linearGradient x1="327.38382" y1="62.4342" x2="271.08185" y2="89.94939" gradientUnits="userSpaceOnUse" id="color-3"><stop offset="0" stop-color="#ffd183"/><stop offset="1" stop-color="#bf6e2c"/></linearGradient><linearGradient x1="325.50896" y1="67.09509" x2="271.91815" y2="93.28532" gradientUnits="userSpaceOnUse" id="color-4"><stop offset="0" stop-color="#ab4a00"/><stop offset="1" stop-color="#692900"/></linearGradient><radialGradient cx="298.49443" cy="89.8687" r="21.57698" gradientUnits="userSpaceOnUse" id="color-5"><stop offset="0" stop-color="#fff082"/><stop offset="1" stop-color="#ffd183"/></radialGradient><linearGradient x1="287.78515" y1="69.67583" x2="306.71417" y2="113.11678" gradientUnits="userSpaceOnUse" id="color-6"><stop offset="0" stop-color="#ffffff"/><stop offset="1" stop-color="#fffad8"/></linearGradient><linearGradient x1="142.28529" y1="60.64111" x2="214.05324" y2="92.65769" gradientUnits="userSpaceOnUse" id="color-7"><stop offset="0" stop-color="#ffd183"/><stop offset="1" stop-color="#bf6e2c"/></linearGradient><linearGradient x1="144.98725" y1="65.61646" x2="213.2993" y2="96.09132" gradientUnits="userSpaceOnUse" id="color-8"><stop offset="0" stop-color="#ab4a00"/><stop offset="1" stop-color="#692900"/></linearGradient><radialGradient cx="180.22027" cy="90.97054" r="27.05848" gradientUnits="userSpaceOnUse" id="color-9"><stop offset="0" stop-color="#fff082"/><stop offset="1" stop-color="#ffd183"/></radialGradient><linearGradient x1="191.75232" y1="70.51645" x2="172.01485" y2="114.75969" gradientUnits="userSpaceOnUse" id="color-10"><stop offset="0" stop-color="#ffffff"/><stop offset="1" stop-color="#fffad8"/></linearGradient><radialGradient cx="234.69559" cy="115.96175" r="90.41809" gradientUnits="userSpaceOnUse" id="color-11"><stop offset="0" stop-color="#fff082"/><stop offset="1" stop-color="#ffd183"/></radialGradient><linearGradient x1="241.40861" y1="69.20441" x2="241.40861" y2="127.41132" gradientUnits="userSpaceOnUse" id="color-12"><stop offset="0" stop-color="#d2a049" stop-opacity="0"/><stop offset="1" stop-color="#d2a049"/></linearGradient><linearGradient x1="331.62491" y1="117.24269" x2="271.84745" y2="120.68519" gradientUnits="userSpaceOnUse" id="color-13"><stop offset="0" stop-color="#c66a21" stop-opacity="0"/><stop offset="1" stop-color="#c66a21"/></linearGradient><linearGradient x1="173.12349" y1="122.38328" x2="233.09426" y2="122.38328" gradientUnits="userSpaceOnUse" id="color-14"><stop offset="0" stop-color="#c66a21" stop-opacity="0"/><stop offset="1" stop-color="#c66a21"/></linearGradient><radialGradient cx="214.9771" cy="99.63369" r="19.34092" gradientUnits="userSpaceOnUse" id="color-15"><stop offset="0" stop-color="#575757"/><stop offset="1" stop-color="#575757" stop-opacity="0"/></radialGradient><radialGradient cx="221.80086" cy="99.22134" r="7.44186" gradientUnits="userSpaceOnUse" id="color-16"><stop offset="0" stop-color="#ffffff"/><stop offset="1" stop-color="#ffffff" stop-opacity="0"/></radialGradient><radialGradient cx="282.35205" cy="102.95323" r="18.19735" gradientUnits="userSpaceOnUse" id="color-17"><stop offset="0" stop-color="#575757"/><stop offset="1" stop-color="#575757" stop-opacity="0"/></radialGradient><radialGradient cx="288.36417" cy="101.40913" r="7.00184" gradientUnits="userSpaceOnUse" id="color-18"><stop offset="0" stop-color="#ffffff"/><stop offset="1" stop-color="#ffffff" stop-opacity="0"/></radialGradient><linearGradient x1="204.88145" y1="169.71101" x2="204.88145" y2="207.31763" gradientUnits="userSpaceOnUse" id="color-19"><stop offset="0" stop-color="#d0d0d0" stop-opacity="0"/><stop offset="1" stop-color="#d0d0d0"/></linearGradient><linearGradient x1="286.86348" y1="160.48396" x2="289.38607" y2="198.00587" gradientUnits="userSpaceOnUse" id="color-20"><stop offset="0" stop-color="#d0d0d0" stop-opacity="0"/><stop offset="1" stop-color="#d0d0d0"/></linearGradient><linearGradient x1="207.1143" y1="54.32579" x2="213.76935" y2="67.09211" gradientUnits="userSpaceOnUse" id="color-21"><stop offset="0" stop-color="#6f5318" stop-opacity="0"/><stop offset="1" stop-color="#6f5318"/></linearGradient><linearGradient x1="284.29097" y1="55.77155" x2="272.34127" y2="65.56456" gradientUnits="userSpaceOnUse" id="color-22"><stop offset="0" stop-color="#6f5318" stop-opacity="0"/><stop offset="1" stop-color="#6f5318"/></linearGradient><radialGradient cx="184.63357" cy="140.66404" r="9.26946" gradientUnits="userSpaceOnUse" id="color-23"><stop offset="0" stop-color="#9b7522"/><stop offset="1" stop-color="#9b7522" stop-opacity="0"/></radialGradient><radialGradient cx="206.03587" cy="152.13148" r="11.62126" gradientUnits="userSpaceOnUse" id="color-24"><stop offset="0" stop-color="#9b7522"/><stop offset="1" stop-color="#9b7522" stop-opacity="0"/></radialGradient><radialGradient cx="193.87164" cy="173.89389" r="8.17441" gradientUnits="userSpaceOnUse" id="color-25"><stop offset="0" stop-color="#9b7522"/><stop offset="1" stop-color="#9b7522" stop-opacity="0"/></radialGradient><radialGradient cx="183.39741" cy="161.18642" r="8.90954" gradientUnits="userSpaceOnUse" id="color-26"><stop offset="0" stop-color="#9c7f42"/><stop offset="1" stop-color="#9c7f42" stop-opacity="0"/></radialGradient><radialGradient cx="172.59934" cy="153.90455" r="6.06664" gradientUnits="userSpaceOnUse" id="color-27"><stop offset="0" stop-color="#9c7f42"/><stop offset="1" stop-color="#9c7f42" stop-opacity="0"/></radialGradient><radialGradient cx="163.67826" cy="145.36084" r="5.6743" gradientUnits="userSpaceOnUse" id="color-28"><stop offset="0" stop-color="#9c7f42"/><stop offset="1" stop-color="#9c7f42" stop-opacity="0"/></radialGradient><radialGradient cx="314.57603" cy="149.45802" r="6.7714" gradientUnits="userSpaceOnUse" id="color-29"><stop offset="0" stop-color="#9c7f42"/><stop offset="1" stop-color="#9c7f42" stop-opacity="0"/></radialGradient><radialGradient cx="323.21983" cy="154.13148" r="5.82003" gradientUnits="userSpaceOnUse" id="color-30"><stop offset="0" stop-color="#9c7f42"/><stop offset="1" stop-color="#9c7f42" stop-opacity="0"/></radialGradient><radialGradient cx="325.03859" cy="137.99058" r="6.7714" gradientUnits="userSpaceOnUse" id="color-31"><stop offset="0" stop-color="#9c7f42"/><stop offset="1" stop-color="#9c7f42" stop-opacity="0"/></radialGradient><radialGradient cx="332.03616" cy="154.91613" r="4.79886" gradientUnits="userSpaceOnUse" id="color-32"><stop offset="0" stop-color="#9c7f42"/><stop offset="1" stop-color="#9c7f42" stop-opacity="0"/></radialGradient><radialGradient cx="335.03372" cy="143.22186" r="6.7714" gradientUnits="userSpaceOnUse" id="color-33"><stop offset="0" stop-color="#9c7f42"/><stop offset="1" stop-color="#9c7f42" stop-opacity="0"/></radialGradient><linearGradient x1="246.46591" y1="235.25427" x2="246.46591" y2="278.76247" gradientUnits="userSpaceOnUse" id="color-34"><stop offset="0" stop-color="#c48d2e" stop-opacity="0"/><stop offset="1" stop-color="#c48d2e"/></linearGradient><radialGradient cx="260.7045" cy="106.03427" r="9.99513" gradientUnits="userSpaceOnUse" id="color-35"><stop offset="0" stop-color="#fff082"/><stop offset="1" stop-color="#fbbd53"/></radialGradient><linearGradient x1="259.79661" y1="141.21484" x2="259.79661" y2="169.21484" gradientUnits="userSpaceOnUse" id="color-36"><stop offset="0" stop-color="#acacac" stop-opacity="0"/><stop offset="1" stop-color="#acacac"/></linearGradient><radialGradient cx="255.0152" cy="107.42662" r="13.00429" gradientUnits="userSpaceOnUse" id="color-37"><stop offset="0" stop-color="#905b00"/><stop offset="1" stop-color="#252313"/></radialGradient><linearGradient x1="230.43803" y1="116.48482" x2="230.43803" y2="130.74257" gradientUnits="userSpaceOnUse" id="color-38"><stop offset="0" stop-color="#d0d0d0" stop-opacity="0"/><stop offset="1" stop-color="#d0d0d0"/></linearGradient><linearGradient x1="272.51878" y1="118.4836" x2="272.51878" y2="130.09559" gradientUnits="userSpaceOnUse" id="color-39"><stop offset="0" stop-color="#d0d0d0" stop-opacity="0"/><stop offset="1" stop-color="#d0d0d0"/></linearGradient><linearGradient x1="257.2045" y1="107.12222" x2="257.2045" y2="112.11979" gradientUnits="userSpaceOnUse" id="color-40"><stop offset="0" stop-color="#d59527" stop-opacity="0"/><stop offset="1" stop-color="#d59527"/></linearGradient><linearGradient x1="256.73342" y1="99.27286" x2="256.73342" y2="103.97645" gradientUnits="userSpaceOnUse" id="color-41"><stop offset="0" stop-color="#d59527"/><stop offset="1" stop-color="#d59527" stop-opacity="0"/></linearGradient></defs><g transform="translate(-121.80736,-21.12144)"><g data-paper-data="{&quot;isPaintingLayer&quot;:true}" fill-rule="nonzero" stroke-linejoin="miter" stroke-miterlimit="10" stroke-dasharray="" stroke-dashoffset="0" style="mix-blend-mode: normal"><path d="M243.82015,278.76641l-40.56846,-97.30944l80.54897,-4.70359c0,0 -17.97192,57.0222 -23.90991,75.86254c-3.52528,11.18518 -8.42727,26.73844 -8.42727,26.73844z" fill="url(#color-1)" stroke="none" stroke-width="0" stroke-linecap="butt"/><path d="M265.10997,227.40097c-2.93829,13.53238 -3.30668,29.39743 -18.25936,29.39743c-8.44133,0 -7.58527,-3.02084 -12.55051,-6.83396c-0.74874,-0.575 -2.82655,-7.55521 -3.659,-8.98477c-3.42576,-5.88304 -8.34619,-16.74714 -8.34619,-20.04614c0,-0.46451 -1.34294,-7.2076 -8.14464,-13.89621c-6.27402,-6.16971 -17.93838,-12.14392 -20.37485,-16.5218c-3.04668,-5.47432 11.07758,-1.44891 11.27469,-1.94624c2.93879,-7.41477 28.69676,10.0222 41.38073,10.0222c13.05909,0 29.41553,-17.69521 31.96672,-9.94734c0.14283,0.43375 -4.76842,3.13978 -7.18318,10.04795c-3.83965,10.98451 -5.95234,28.00845 -6.10443,28.70887z" fill="url(#color-2)" stroke="none" stroke-width="0" stroke-linecap="butt"/><g data-paper-data="{&quot;index&quot;:null}" stroke="none" stroke-width="0" stroke-linecap="butt"><path d="M274.29316,95.31437c-1.41509,-3.84894 -10.3704,-17.0741 -11.17081,-20.56808c-0.69456,-3.03193 6.69522,3.43125 6.40264,2.8559c-0.98591,-1.93868 -3.68542,-8.34907 -3.79431,-9.12612c-0.31071,-2.21737 4.28084,4.27504 3.9013,2.09502c-0.35854,-2.05941 1.29738,-1.48416 1.20189,-3.46143c-0.09047,-1.87326 -4.86404,-6.84395 -5.32643,-10.58937c-0.30713,-2.48785 8.89766,6.07608 8.59705,3.34405c-0.32373,-2.94222 -2.22513,-10.27009 -1.57187,-11.90897c1.08094,-2.71181 5.21651,1.11058 6.05295,-0.43631c0.73517,-1.35961 0.62932,-8.14359 1.91528,-9.72637c1.89615,-2.33383 5.37748,0.60865 7.27992,-0.3211c1.46126,-0.71412 -0.81343,-12.85979 3.40004,-8.6291c0.54409,0.54631 3.05957,4.23082 5.17802,7.63246c1.40207,2.25134 2.48542,-11.04004 2.853,-10.02833c3.97891,10.95118 6.20463,-4.52586 9.70499,-2.79543c3.80563,1.88135 -0.29028,10.96818 4.81917,12.87351c0.78505,0.29275 3.91716,-0.85509 5.30328,-1.53584c3.21525,-1.57907 -0.7007,10.59153 0.05255,12.05546c0.72135,1.40197 4.07652,-2.43432 4.77841,-1.09119c0.64779,1.2396 -1.27551,7.55316 -2.42934,11.17036c-1.55948,4.88886 4.74626,1.4039 5.32663,2.73582c1.02739,2.35779 -4.69596,11.08739 -4.01825,13.44929c0.75432,2.62889 5.66547,0.09697 6.27501,4.15138c0.63332,4.21266 -4.93615,10.68308 -5.07845,13.0511c-0.16455,2.73809 6.96722,-4.91956 6.2333,-1.68989c-0.35757,1.5735 -3.70439,5.98829 -6.71911,10.11124c-2.05748,2.81381 -3.96028,5.49167 -4.6526,7.03765c-0.81954,1.83004 9.72771,-7.14862 10.09811,-5.42231c0.77795,2.96785 -8.18905,7.81985 -8.8813,8.87599c-0.42569,0.64947 7.39458,-0.72397 6.58596,0.38861c-1.23235,1.69559 -13.94311,12.41983 -14.86996,12.87279c-8.84295,4.32161 -7.27524,7.00396 -16.53032,-2.57627c-2.86224,-2.96279 -4.62853,2.10201 -8.10094,-0.90145c-2.87671,-2.4882 -8.76452,-12.8739 -12.81578,-23.89307z" fill="url(#color-3)"/><path d="M270.84633,81.07519c1.23128,-20.68685 22.34708,-48.26042 32.13173,-49.66984c10.29668,-1.48317 21.30383,30.37419 20.81245,52.47642c-0.21525,9.68223 -0.56691,27.60002 -5.21816,32.95499c-5.96646,6.86917 -17.02152,-0.12788 -22.80757,0.70557c-10.29668,1.48317 -22.02112,-7.64982 -21.52974,-29.75206c0.02443,-1.09908 -3.45315,-5.63255 -3.38872,-6.71509z" fill="url(#color-4)"/><path d="M273.55213,85.69785c-2.49337,-4.90293 8.17169,1.42928 7.83531,-0.50278c-0.2353,-1.35153 0.4364,0.35831 0.37372,-0.93933c-0.05938,-1.22938 -5.49763,-8.25923 -5.80107,-10.71727c-0.20156,-1.63272 4.75727,1.50439 4.56,-0.28857c-0.56399,-5.12592 -2.18794,-7.37329 -1.30726,-9.002c0.32356,-0.59838 3.46881,3.31137 5.01819,1.97161c2.10318,-1.81863 4.08487,-11.66514 5.3308,-10.26636c1.22298,1.37302 -1.4073,12.29223 -0.65068,11.92246c0.95899,-0.46867 9.34739,-24.20482 12.11258,-21.42834c0.59338,0.59581 -3.20417,10.10838 -2.59843,11.77554c2.61125,7.18697 5.64743,-9.83608 7.94462,-8.70045c2.13803,1.05696 0.34288,3.02154 1.61559,7.54949c0.44243,1.57405 -0.74715,9.06425 1.01473,8.19895c2.11008,-1.03631 6.97137,-2.65102 7.46569,-1.69029c0.91031,1.76923 -2.22049,5.40779 -3.79821,10.35379c-1.02344,3.20843 2.96031,5.3534 3.34119,6.22751c0.67425,1.54736 -2.92729,2.8443 -2.48253,4.39435c0.49504,1.72527 5.63021,-0.11784 6.03023,2.54297c0.41563,2.76465 -5.15156,7.19249 -5.24496,8.74655c-0.10799,1.79693 4.00045,3.07488 3.51879,5.19441c-0.39482,1.7374 -5.77089,2.4497 -6.89101,4.9509c-0.53785,1.20101 6.77742,-0.74225 7.15575,0.70109c0.51054,1.94773 -5.79238,7.21878 -6.24669,7.91191c-0.70514,1.07579 -1.53627,1.90255 -2.54366,2.39486c-5.80339,2.83616 -7.77795,4.55832 -13.85181,-1.72893c-1.87842,-1.9444 -7.60832,-15.96454 -9.88718,-17.93562c-3.11957,-2.69827 -10.96691,-9.57809 -12.01371,-11.63652z" fill="url(#color-5)"/><path d="M278.83719,92.03203c-1.77379,-3.48798 5.81337,1.01679 5.57408,-0.35767c-0.1674,-0.96149 0.31045,0.2549 0.26588,-0.66824c-0.04224,-0.87458 -3.91103,-5.87566 -4.12691,-7.6243c-0.14339,-1.16152 3.38434,1.07024 3.244,-0.20529c-0.40123,-3.6466 -0.66005,-7.31599 -0.03352,-8.47467c0.84934,-1.57074 4.51237,5.37983 6.00295,4.65138c0.68222,-0.33341 1.01133,-13.64761 2.97848,-11.6724c0.42214,0.42386 2.29913,9.4429 2.73005,10.62894c1.85766,5.11284 5.07744,-12.82098 6.71168,-12.0131c2.04975,1.01331 -2.10809,15.60869 2.7509,13.22234c1.50112,-0.73723 4.07978,-3.90478 4.43145,-3.22131c0.6476,1.25864 -1.57968,3.84712 -2.70206,7.36573c-0.72808,2.28249 5.22512,1.0597 5.49609,1.68155c0.47966,1.1008 -5.20164,4.77217 -4.88524,5.87488c0.35217,1.22736 4.00536,-0.08382 4.28993,1.80909c0.29568,1.96679 -3.66485,5.11676 -3.73129,6.22233c-0.07683,1.27835 2.84594,2.18748 2.50329,3.69533c-0.28087,1.23599 -4.10543,1.74272 -4.90228,3.52209c-0.38262,0.85439 4.82149,-0.52804 5.09063,0.49876c0.36321,1.38561 -4.12072,5.13547 -4.44393,5.62856c-0.50164,0.76532 -1.09291,1.35349 -1.80957,1.70372c-4.12855,2.01765 -5.53327,3.24279 -9.85423,-1.22997c-1.33631,-1.38325 -5.41258,-11.35723 -7.03378,-12.75948c-2.21928,-1.91955 -7.8019,-6.81389 -8.5466,-8.27826z" fill="url(#color-6)"/></g><g stroke="none" stroke-width="0" stroke-linecap="butt"><path d="M196.71468,122.26441c-4.03455,2.93241 -6.63619,-2.45827 -9.92118,0.46738c-10.62207,9.46008 -8.91111,6.75152 -20.18319,1.72291c-1.18146,-0.52706 -17.75988,-12.46584 -19.42188,-14.30801c-1.09054,-1.20876 8.67391,0.6823 8.09447,-0.0206c-0.94225,-1.14305 -12.41159,-6.7326 -11.69897,-9.7854c0.31319,-1.78053 14.07645,8.20947 12.91264,6.25107c-0.98315,-1.6544 -3.55432,-4.56123 -6.32768,-7.61899c-4.06368,-4.48042 -8.56146,-9.28493 -9.13384,-10.94849c-1.1748,-3.41451 8.26377,4.99668 7.83253,2.12864c-0.37295,-2.4804 -7.78474,-9.56085 -7.35433,-13.92163c0.41425,-4.19696 6.68548,-1.26659 7.39719,-3.96691c0.63943,-2.42606 -7.15053,-11.87397 -6.07926,-14.27531c0.60516,-1.35653 8.67669,2.65032 6.3449,-2.54459c-1.72526,-3.84364 -4.62471,-10.54713 -3.92867,-11.80334c0.75417,-1.36113 5.21407,2.83995 5.98736,1.41856c0.80746,-1.48422 -5.03899,-14.41868 -0.93986,-12.58219c1.76717,0.79172 5.72774,2.17315 6.67208,1.91344c6.14612,-1.6903 0.33459,-11.41598 4.87383,-13.15748c4.17512,-1.6018 8.21143,14.68557 12.20861,3.48577c0.36927,-1.03468 2.81379,12.90417 4.35627,10.63588c2.3306,-3.42726 5.12759,-7.12662 5.75342,-7.66511c4.8467,-4.17024 3.05203,8.37618 4.91468,9.20713c2.42504,1.08184 6.47566,-1.7864 9.00996,0.76088c1.71874,1.72754 2.1535,8.80346 3.17398,10.26582c1.16105,1.66379 5.94565,-2.08478 7.5055,0.80942c0.94269,1.7491 -0.79288,9.28783 -0.94714,12.34042c-0.14324,2.83452 10.50145,-5.56754 10.3298,-2.98832c-0.25842,3.88299 -5.7346,8.793 -5.69012,10.7433c0.04694,2.0586 2.04237,1.55489 1.77156,3.68383c-0.28666,2.25363 4.83809,-4.25562 4.63948,-1.95897c-0.0696,0.80483 -2.86648,7.3391 -3.92148,9.30533c-0.31309,0.58352 8.26702,-5.73159 7.66264,-2.60703c-0.6965,3.60073 -10.6449,16.88346 -12.0703,20.81881c-4.08078,11.26656 -10.48062,21.7644 -13.82302,24.19374z" fill="url(#color-7)"/><path d="M209.98237,90.2193c2.44833,23.10232 -11.25811,31.95112 -24.0875,29.80069c-7.20928,-1.2084 -20.26774,5.44971 -28.20263,-2.07021c-6.18577,-5.86229 -8.11297,-24.58808 -9.18549,-34.70841c-2.44833,-23.10232 8.47916,-55.71611 21.30855,-53.56569c12.19141,2.04349 40.5456,32.06356 43.78899,53.73155c0.16973,1.13388 -3.74368,5.66323 -3.62194,6.81204z" fill="url(#color-8)"/><path d="M196.79592,99.52029c-2.64777,1.92447 -8.54987,16.2257 -10.70572,18.14572c-6.97098,6.20839 -9.55106,4.2951 -16.94861,0.99496c-1.28412,-0.57286 -2.3786,-1.48455 -3.33838,-2.64886c-0.61837,-0.75015 -8.83528,-6.62141 -8.36759,-8.62488c0.34657,-1.48465 9.53532,0.97176 8.77154,-0.31348c-1.59064,-2.67663 -8.28389,-3.73458 -8.91589,-5.57142c-0.77099,-2.24085 4.1922,-3.33473 3.90919,-5.21695c-0.24475,-1.62782 -7.48352,-6.57578 -7.20105,-9.43764c0.27187,-2.75435 6.76209,-0.52998 7.22918,-2.30213c0.41965,-1.59216 -4.13263,-3.15669 -3.42958,-4.73262c0.39715,-0.89025 5.13421,-2.89655 3.60392,-6.30583c-2.35904,-5.25564 -6.5256,-9.23717 -5.54975,-11.03092c0.52991,-0.97405 6.66317,0.99589 9.35331,2.20112c2.24622,1.00635 0.15409,-6.88259 0.56886,-8.49995c1.19312,-4.65252 -1.18576,-6.80841 1.36441,-7.78681c2.74002,-1.05122 7.90525,16.89749 10.5285,9.54735c0.60851,-1.70501 -4.87032,-11.8577 -4.18775,-12.44499c3.18076,-2.73682 15.50994,22.53299 16.73237,23.07833c0.96445,0.43025 -3.19124,-11.12262 -1.79654,-12.48447c1.42087,-1.38741 4.68681,9.00771 7.43363,11.02926c2.02354,1.48923 5.57883,-2.40844 6.02797,-1.76483c1.22247,1.75179 -0.59413,4.00297 -0.86289,9.32119c-0.09401,1.86022 5.76358,-1.1248 5.65093,0.56788c-0.16959,2.54831 -6.29437,9.56913 -6.26517,10.84905c0.0308,1.35099 0.71717,-0.39471 0.53946,1.00246c-0.25406,1.99729 12.37856,-3.9896 9.71044,0.98302c-1.12017,2.08768 -10.23018,8.811 -13.85475,11.44544z" fill="url(#color-9)"/><path d="M194.80062,102.5207c-1.88364,1.36907 -6.08241,11.54302 -7.61609,12.90894c-4.95918,4.41668 -6.79465,3.05555 -12.05731,0.70782c-0.91353,-0.40754 -1.69214,-1.05611 -2.37494,-1.88441c-0.43991,-0.53366 -6.28545,-4.71051 -5.95273,-6.13577c0.24655,-1.05618 6.78347,0.69132 6.24012,-0.22301c-1.13158,-1.90416 -5.8932,-2.6568 -6.34279,-3.96353c-0.54849,-1.59415 2.98234,-2.37234 2.781,-3.71136c-0.17412,-1.15804 -5.32381,-4.67803 -5.12285,-6.71397c0.1934,-1.95946 4.81058,-0.37703 5.14287,-1.63773c0.29853,-1.13267 -7.01799,-5.2976 -6.51784,-6.41872c0.28253,-0.63333 7.73051,0.9913 6.64186,-1.43407c-1.67824,-3.73888 -4.64234,-6.57136 -3.9481,-7.84744c0.37699,-0.69294 3.82294,2.7646 5.73673,3.62201c6.19474,2.77535 -0.15228,-12.70458 2.29259,-13.64257c1.94926,-0.74784 7.41697,18.1624 9.28316,12.9335c0.4329,-1.21295 1.99742,-10.51861 2.483,-10.93642c2.26281,-1.94698 3.7785,11.97159 4.64813,12.35955c1.90003,0.84763 5.84084,-6.19422 7.0198,-4.50478c0.86967,1.24623 0.8561,5.06174 0.66489,8.84514c-0.06688,1.32337 4.10024,-0.80018 4.0201,0.404c-0.12065,1.81287 -4.47783,6.80751 -4.45707,7.71806c0.02192,0.96111 0.5102,-0.2808 0.38377,0.71315c-0.18074,1.42088 8.80615,-2.83821 6.90804,0.69933c-0.79689,1.48518 -7.27778,6.26818 -9.85632,8.14233z" fill="url(#color-10)"/></g><path d="M332.46068,113.09732c0,0.41885 11.87491,0.50389 18.09505,3.73933c1.6231,0.84426 -11.33317,4.07051 -9.61848,5.27254c4.88097,3.42164 9.57549,7.18949 10.90946,9.12445c2.05429,2.9798 -9.95933,-0.82796 -13.2668,0.38796c-3.34564,1.22996 16.19524,9.35017 16.13407,9.85743c-0.24501,2.03162 -13.93458,1.54977 -18.49722,3.01138c-3.43081,1.09904 10.69268,2.86041 10.06354,4.32566c-0.61851,1.44052 -7.16499,3.80348 -10.09893,5.524c-2.96143,1.73663 5.09311,6.59235 4.14416,7.97766c-1.10905,1.61903 -9.72678,-0.5499 -11.03376,1.0139c-1.51235,1.80952 6.72245,6.08795 4.97159,7.81487c-0.50068,0.49383 -3.75784,-0.96768 -6.87277,-1.14054c-2.79018,-0.15484 -5.46623,0.97211 -5.94477,1.40199c-21.51785,19.32968 -56.88877,32.53935 -84.38041,32.53935c-25.17925,0 -54.75118,-9.89783 -75.34539,-25.35904c-1.67996,-1.26124 -6.38564,4.96418 -7.93886,3.63124c-0.79918,-0.68584 2.27723,-12.53161 -1.2021,-11.60452c-4.94991,1.31893 -13.76414,8.12608 -14.77059,7.08977c-1.05317,-1.08442 9.66306,-12.21901 8.7024,-13.3396c-0.88056,-1.02715 0.25785,-1.68406 -2.85452,-1.37988c-6.37567,0.62311 -16.90306,5.15618 -18.11945,2.88328c-0.87219,-1.62975 13.17638,-12.69056 12.53395,-14.37068c-0.97208,-2.54223 -15.8643,2.40244 -16.26013,-0.20134c-0.24746,-1.62772 13.20111,-13.29668 13.20111,-14.94086c0,-0.20296 -14.66373,2.51908 -12.89197,-1.16981c0.73938,-1.53944 8.59177,-2.26608 10.73542,-4.40267c3.51567,-3.50409 -3.6024,-4.2929 -8.50978,-2.98938c-2.45001,0.65078 5.1604,-4.2133 11.97715,-8.43584c2.15468,-1.33469 -4.40923,-3.85922 -2.75591,-4.8713c2.12626,-1.30158 12.19374,-0.92163 12.19473,-0.95452c0.04557,-1.51314 0.41222,-4.2197 0.97094,-6.58646c0.37355,-1.5824 0.83297,-2.6662 1.33969,-4.42187c1.84125,-6.37957 4.30707,-13.35198 5.54755,-16.91248c6.36259,-18.26229 24.04664,-32.48538 45.4385,-40.05845c1.7598,-0.623 2.92761,-7.47072 4.73336,-8.00225c0.71921,-0.21171 2.85056,5.25037 4.52546,4.33009c2.50742,-1.37771 4.14069,-7.39666 5.23962,-7.65763c1.21864,-0.2894 1.47625,8.59389 4.22918,6.18336c2.83064,-2.47859 4.45556,-8.10086 5.73376,-8.3093c2.54679,-0.41532 -0.93168,8.03845 1.77535,7.80971c3.18452,-0.26909 21.81656,-16.70785 24.82803,-16.70785c2.28151,0 -10.1848,16.37501 -7.79839,16.52467c1.95343,0.1225 12.68932,-7.22778 14.81263,-7.0023c2.67962,0.28454 -3.23749,8.1757 -0.70668,8.62856c15.94055,2.8524 31.90867,9.71876 42.99571,19.95103c9.48613,8.75479 23.80513,25.30804 27.91984,35.33265c0.35538,0.86582 9.66433,3.12073 10.13114,5.42235c0.58358,2.87738 -20.24447,3.21462 -19.56183,4.27485c1.1238,1.74543 17.13555,2.07854 18.22863,2.80573c2.08772,1.38888 -3.6833,0.42235 -3.6833,3.96076z" fill="url(#color-11)" stroke="none" stroke-width="0" stroke-linecap="butt"/><path d="M323.2836,106.83312c0,7.9072 -8.13128,17.60256 -24.47488,20.69306c-15.98462,3.02262 -40.01879,-0.47703 -54.89039,-0.14299c-0.83204,0.01869 -1.66874,0.02813 -2.50972,0.02813c-10.83875,0 -36.79049,3.38738 -50.70173,0.90239c-12.10768,-2.16282 -19.4876,-6.97485 -24.13526,-10.81119c-4.76569,-3.93377 0.31165,-14.17881 3.33743,-19.23406c0.40549,-0.67747 4.2132,-11.93456 4.2132,-12.60149c0,-16.0734 36.04462,-16.46256 67.28635,-16.46256c11.18596,0 44.46978,-2.50557 55.4533,1.05426c19.69279,6.38257 26.42169,26.25606 26.42169,36.57445z" fill="url(#color-12)" stroke="none" stroke-width="0" stroke-linecap="butt"/><path d="M287.77177,67.94014c16.5071,-0.95062 42.36377,38.69273 43.85316,49.30255c1.48937,10.60982 -2.72298,26.63082 -19.23006,27.58144c-16.5071,0.95062 -52.66126,-30.47063 -54.15065,-41.08046c-1.48937,-10.60982 39.27752,-39.35292 55.7846,-40.30354z" data-paper-data="{&quot;index&quot;:null}" fill="url(#color-13)" stroke="none" stroke-width="0" stroke-linecap="butt"/><path d="M244.26528,104.20634c0,10.96836 -29.29953,48.80845 -45.86,48.80845c-16.56047,0 -25.28179,-19.66314 -25.28179,-30.6315c0,-6.54208 -2.33564,-25.27835 -0.70678,-39.335c1.10206,-9.51053 4.01894,-16.87887 10.70191,-16.87887c11.52644,0 28.62983,3.11325 42.82653,14.78391c6.20023,5.09701 18.32013,19.91887 18.32013,23.25302z" fill="url(#color-14)" stroke="none" stroke-width="0" stroke-linecap="butt"/><path d="M319.81423,137.79326c2.96757,0.32398 13.91729,0.79676 15.58771,6.37662c1.88598,6.29992 -7.93988,24.85795 -14.27149,28.97025c-7.40778,4.81125 -36.03784,22.69638 -43.74657,25.81418c-6.88378,2.78414 -11.83854,33.09834 -16.42966,33.26406c-0.92295,0.03331 -8.04303,43.2788 -9.32657,42.80446c-6.05765,-2.23866 -16.75585,-65.87374 -26.55282,-70.75699c-4.73967,-2.36246 -37.70637,-19.05014 -41.83069,-21.1913c-15.20199,-13.22017 -12.59686,-17.00086 -12.0624,-25.85736c0.0539,-0.89314 -3.16195,-5.58557 -0.38307,-7.28823c2.726,-1.67025 7.34716,-11.70887 7.94669,-12.01809c3.40312,-1.75514 16.92389,-5.73655 19.23259,-6.95019c7.05016,-3.70616 10.70317,5.03484 19.99451,1.15951c18.71164,-0.24659 20.78278,-3.19251 31.90883,-3.59412c9.47337,-0.34195 19.65952,2.71459 36.28052,0.63519c0.63729,0.15691 5.62524,3.25585 6.21195,3.40685c12.26331,3.15598 14.26572,3.78684 27.44046,5.22515z" fill="#ffffff" stroke="none" stroke-width="0" stroke-linecap="butt"/><path d="M300.29661,126.71484c0,2.46337 3.30763,0.35361 -3.56092,10.00393c-1.95337,0.47363 -12.08288,3.12792 -15.67299,2.45683c-7.51793,-1.40531 -18.55565,-7.73747 -23.54249,-7.46076c-4.84056,0.26859 -20.83211,5.60328 -32.49422,8.66288c-3.77932,-0.29396 -9.5003,-0.12036 -12.26032,-0.47615c-8.50007,-1.09572 -8.12825,-5.4702 -10.72946,-7.03447c-1.37117,-0.82457 2.26041,-8.21848 2.26041,-9.15225c0,-4.14214 30.41843,3.5 48.63354,3.5c18.21511,0 41.36646,-0.64214 41.36646,3.5z" fill="#1f1f1f" stroke="none" stroke-width="0" stroke-linecap="butt"/><path d="M235.53149,98.56376c2.22918,6.31385 -2.7846,10.14231 -10.78403,13.53643c-1.81623,0.77062 -3.78638,1.51885 -5.8606,2.26871c-1.46937,0.5312 -5.59447,7.10809 -7.1506,7.64944c-1.48614,0.517 -0.40026,-5.00237 -1.93394,-4.46089c-0.68225,0.24088 -4.78621,7.9981 -6.5015,9.30536c-2.09929,1.59991 1.17485,-7.72011 -0.84866,-7.24298c-2.14931,0.50679 -8.2685,9.28164 -9.44342,9.48113c-2.70021,0.45849 2.67676,-8.73124 -0.09033,-7.75373c-2.99363,1.05754 -6.55047,5.42469 -8.42709,5.1708c-1.35748,-0.18366 3.72324,-7.14644 2.4901,-7.49395c-1.07354,-0.30253 -7.39594,4.96439 -8.35679,4.54189c-1.59214,-0.70007 0.63968,-4.82029 0.43577,-6.91474c-0.30648,-3.14796 -2.57579,-4.69024 -3.34796,-6.87729c-0.61309,-1.7365 -0.68764,-3.73856 -0.30888,-5.88703c0.12021,-0.6819 -2.11362,-3.1474 -1.3786,-4.62204c0.77624,-1.55731 4.52791,-2.12734 4.841,-2.89449c0.72797,-1.78375 -5.75559,-0.97778 -4.58487,-2.78847c0.41261,-0.63817 6.13778,-0.74935 6.59861,-1.38139c0.86489,-1.18623 -3.47375,-3.90839 -2.45691,-5.04799c0.94226,-1.05602 4.4257,0.00484 7.00925,-0.53508c1.67576,-0.35021 -3.91929,-3.3474 -3.1957,-3.95165c1.16227,-0.97058 9.06208,-0.49128 10.31132,-1.34198c0.96359,-0.65618 -4.53522,-3.12505 -3.54803,-3.74277c1.83472,-1.14806 10.18977,-0.3576 12.14908,-1.04935c15.39106,-5.434 30.94653,12.29934 34.38279,22.03207z" fill="#fff9d9" stroke="none" stroke-width="NaN" stroke-linecap="butt"/><path d="M228.33175,87.60667c2.12945,2.14905 7.16353,11.35441 6.9905,13.50423c-0.20871,2.59317 -2.70263,1.07616 -5.92889,3.14085c-3.5144,2.24911 -8.09932,5.83126 -13.20041,7.63227c-9.21582,3.25376 -20.66997,5.84002 -28.4177,4.79031c-3.74143,-0.5069 -6.85646,-1.12999 -7.9852,-4.32698c-3.46612,-9.81729 5.06966,-24.59722 18.73587,-29.42224c13.6662,-4.82502 20.25408,-4.95814 29.80584,4.68156z" fill="#535353" stroke="none" stroke-width="0" stroke-linecap="butt"/><path d="M232.19674,96.54556c1.57883,4.47181 2.31402,2.73559 -2.44171,5.07691c-3.2553,1.60262 -13.27903,8.35797 -17.54512,9.86417c-10.4985,3.70663 -26.25409,5.43883 -28.91362,-2.09393c-1.53875,-4.3583 1.23383,-10.81214 6.7743,-16.745c4.03553,-4.32133 10.38584,-7.69027 14.81014,-9.25233c10.4985,-3.70663 24.65648,5.61742 27.31602,13.15019z" fill="#ffffff" stroke="#005e5e" stroke-width="0.5" stroke-linecap="butt"/><g stroke-linecap="butt"><path d="M225.53166,108.37179c-4.66817,5.60229 -13.17569,6.20816 -19.00205,1.35327c-5.82637,-4.85489 -6.7653,-13.33211 -2.09712,-18.9344c4.66817,-5.60229 13.17569,-6.20816 19.00205,-1.35327c5.82637,4.85489 6.7653,13.33211 2.09712,18.9344z" fill="#c6c6c6" stroke="#001414" stroke-width="0.5"/><path d="M222.63847,108.96163c-3.20211,4.13731 -6.51416,2.41152 -8.78218,1.96634c-1.83768,-0.36072 -2.49254,1.2561 -5.78745,-1.48943c-7.36143,-6.134 -9.12401,-9.59155 -3.06967,-16.85738c6.05433,-7.26583 11.01416,-7.64532 18.3756,-1.51132c7.36143,6.134 4.85104,10.67264 -0.73627,17.89179z" fill="url(#color-15)" stroke="none" stroke-width="0"/><path d="M219.50559,104.49957c-2.2164,2.65991 -6.06912,3.10301 -8.60532,0.9897c-2.53619,-2.11331 -2.79544,-5.98275 -0.57904,-8.64267c2.2164,-2.65991 6.06912,-3.10301 8.60532,-0.9897c2.53619,2.11331 2.79544,5.98275 0.57904,8.64267z" fill="#171717" stroke="none" stroke-width="0"/><g stroke="none" stroke-width="0"><path d="M227.01359,103.56491c-2.456,2.94746 -6.78081,3.39217 -9.65973,0.99328c-2.87891,-2.39889 -3.22175,-6.73297 -0.76574,-9.68042c2.456,-2.94746 6.78081,-3.39217 9.65973,-0.99328c2.87891,2.39889 3.22175,6.73297 0.76574,9.68042z" fill="url(#color-16)"/><path d="M225.23465,101.66199c-1.08521,1.30236 -3.13185,1.38581 -4.57132,0.18636c-1.43946,-1.19945 -1.72663,-3.22756 -0.64141,-4.52993c1.08521,-1.30236 3.13185,-1.38581 4.57132,-0.18636c1.43946,1.19945 1.72663,3.22756 0.64141,4.52993z" fill="#ffffff"/></g></g><path d="M293.73792,78.65241c1.80991,0.54723 9.72109,-0.47758 11.39008,0.48406c0.89801,0.51741 -4.40937,2.9415 -3.53558,3.49433c1.13281,0.71671 8.59911,-0.01153 9.64381,0.8161c0.65039,0.51525 -4.77494,3.41733 -3.21448,3.66859c2.40578,0.38736 5.74194,-0.69654 6.57498,0.21611c0.89897,0.98487 -3.32862,3.59263 -2.5752,4.6251c0.40144,0.55012 5.78874,0.43405 6.14443,0.99149c1.00924,1.58162 -5.05656,1.10245 -4.46297,2.67658c0.25529,0.677 3.75986,1.04734 4.41061,2.41633c0.61621,1.29631 -1.61543,3.59427 -1.53741,4.20199c0.24576,1.91476 0.0721,3.71518 -0.59514,5.29745c-0.84036,1.9928 -3.0577,3.46316 -3.50905,6.30119c-0.30029,1.88824 1.58918,5.50351 0.05322,6.19213c-0.92694,0.41558 -6.61043,-4.07502 -7.63733,-3.76291c-1.17957,0.35852 3.24666,6.41863 1.95846,6.63472c-1.78087,0.29873 -4.90574,-3.48828 -7.67106,-4.32495c-2.55606,-0.77334 2.03417,7.27511 -0.4857,6.96527c-1.09643,-0.13481 -6.40729,-7.78276 -8.40573,-8.15675c-1.88147,-0.3521 0.72121,7.89264 -1.17363,6.53528c-1.54824,-1.10906 -5.01333,-7.9193 -5.64357,-8.10986c-1.41672,-0.42835 -0.67901,4.48639 -2.05223,4.07824c-1.43789,-0.42738 -4.98387,-6.17705 -6.34055,-6.59858c-1.91516,-0.59505 -3.73234,-1.19258 -5.4034,-1.81601c-7.36,-2.74585 -11.88512,-5.99424 -9.45904,-11.74734c3.73977,-8.86833 19.30906,-25.37721 33.5265,-21.07855z" data-paper-data="{&quot;index&quot;:null}" fill="#fff9d9" stroke="none" stroke-width="NaN" stroke-linecap="butt"/><path d="M293.75458,84.65117c10.90453,3.55377 16.97009,16.17252 13.50503,25.02935c-1.12839,2.88421 -3.72307,3.59686 -6.82421,4.23942c-6.42184,1.3306 -15.65367,-0.35956 -23.00716,-2.75605c-4.07028,-1.3265 -7.60429,-4.25403 -10.34465,-6.05906c-2.51567,-1.65704 -4.65748,-0.18661 -4.66442,-2.46762c-0.00574,-1.89102 4.70672,-10.28854 6.5896,-12.29863c8.44576,-9.01629 13.84127,-9.2412 24.74579,-5.68743z" data-paper-data="{&quot;index&quot;:null}" fill="#535353" stroke="none" stroke-width="0" stroke-linecap="butt"/><path d="M289.4417,85.66073c3.61365,1.13705 8.71749,3.77772 11.80043,7.40744c4.23266,4.98335 6.09432,10.59635 4.4768,14.58812c-2.79568,6.89929 -15.94629,6.27864 -24.5212,3.58052c-3.48444,-1.09639 -11.43485,-6.55134 -14.06033,-7.79369c-3.83561,-1.81497 -3.34381,-0.30433 -1.68416,-4.40007c2.79568,-6.89929 15.41353,-16.08045 23.98843,-13.38233z" data-paper-data="{&quot;index&quot;:null}" fill="#ffffff" stroke="#005e5e" stroke-width="0.5" stroke-linecap="butt"/><g stroke-linecap="butt"><path d="M293.89597,108.69299c-2.83918,5.66844 -10.3128,7.67311 -16.69282,4.47751c-6.37999,-3.19558 -9.25041,-10.3813 -6.41123,-16.04975c2.83918,-5.66844 10.3128,-7.67311 16.69282,-4.47751c6.37999,3.19558 9.25041,10.3813 6.41123,16.04975z" fill="#c6c6c6" stroke="#001414" stroke-width="0.5"/><path d="M291.44625,109.70744c-1.87701,4.14351 -5.25624,3.22334 -7.3939,3.23181c-1.73204,0.00687 -1.9314,1.52237 -5.53941,-0.28479c-8.06092,-4.03751 -10.46716,-6.7284 -6.78491,-14.08004c3.68225,-7.35164 8.03304,-8.54309 16.09398,-4.50558c8.06092,4.03751 6.89943,8.40865 3.62424,15.6386z" fill="url(#color-17)" stroke="none" stroke-width="0"/><path d="M287.57239,106.38403c-1.34801,2.69132 -4.69213,3.74541 -7.46932,2.35438c-2.77718,-1.39102 -3.93576,-4.70041 -2.58775,-7.39172c1.34801,-2.69132 4.69213,-3.74541 7.46932,-2.35438c2.77718,1.39102 3.93576,4.70041 2.58775,7.39172z" fill="#171717" stroke="none" stroke-width="0"/><g stroke="none" stroke-width="0"><path d="M294.07223,104.26815c-1.49374,2.98226 -5.26025,4.11985 -8.41272,2.54086c-3.15249,-1.579 -4.49714,-5.27663 -3.0034,-8.2589c1.49374,-2.98226 5.26025,-4.11985 8.41272,-2.54086c3.15249,1.579 4.49714,5.27663 3.0034,8.2589z" fill="url(#color-18)"/><path d="M292.02354,102.92786c-0.66002,1.31774 -2.47288,1.74598 -4.0491,0.95649c-1.57623,-0.7895 -2.31896,-2.49775 -1.65894,-3.8155c0.66002,-1.31774 2.47288,-1.74598 4.0491,-0.95649c1.57623,0.7895 2.31896,2.49775 1.65894,3.8155z" fill="#ffffff"/></g></g><path d="M271.03248,202.05488c-0.72587,2.10849 -24.73247,6.69902 -30.26834,6.42403c-13.00473,-0.64599 -35.58509,-13.20461 -43.87634,-16.05897c-4.03798,-1.39012 -23.12716,-13.52716 -27.32285,-18.65368c-8.08665,-9.8807 -0.71155,-9.93709 0.88906,-14.58648c2.43108,-7.0617 19.18311,14.20885 31.00378,18.27826c11.82067,4.06941 67.50576,6.03513 65.07469,13.09683z" fill="url(#color-19)" stroke="none" stroke-width="0" stroke-linecap="butt"/><path d="M311.40392,157.99716c11.52108,-4.85315 14.55551,-14.84576 17.45479,-7.96303c2.89928,6.88272 -7.60743,31.17233 -19.12851,36.02549c-0.93537,0.39402 -23.56465,11.85752 -24.85047,12.3715c-2.87571,1.14951 -15.07729,4.03727 -19.16164,4.75168c-9.86723,1.72592 -13.46844,0.44005 -21.556,1.38869c-5.50495,0.6457 1.35386,-4.27199 0.48819,-6.32703c-1.69916,-4.03369 3.02281,-6.97026 15.75136,-11.34289c7.13764,-2.45199 20.31616,-2.63892 22.67929,-6.29607c0.61336,-0.94924 8.34022,-6.69436 9.32297,-7.10833z" data-paper-data="{&quot;index&quot;:null}" fill="url(#color-20)" stroke="none" stroke-width="0" stroke-linecap="butt"/><path d="M225.94377,52.62783c0.94206,1.80715 3.76294,7.98731 -2.07632,11.91408c-5.55174,3.73342 -22.07412,6.47389 -26.24681,8.6491c-8.56149,4.46308 -3.2747,0.392 -5.11244,-3.13332c-1.83774,-3.52532 8.84499,-8.86303 17.40648,-13.32611c8.56149,-4.46308 14.19136,-7.62907 16.02909,-4.10375z" fill="url(#color-21)" stroke="none" stroke-width="0" stroke-linecap="butt"/><path d="M280.50798,57.65948c6.60374,3.12462 14.94072,6.8494 11.6409,9.55366c-3.29982,2.70427 0.22592,5.62372 -6.37783,2.4991c-3.21853,-1.52288 -18.42835,-3.13214 -22.3582,-5.79014c-4.13337,-2.79564 1.25456,-7.52542 2.94613,-8.91168c3.29982,-2.70427 7.54526,-0.47557 14.14901,2.64906z" data-paper-data="{&quot;index&quot;:null}" fill="url(#color-22)" stroke="none" stroke-width="0" stroke-linecap="butt"/><path d="M193.90303,140.66404c0,3.16914 -4.15008,5.73824 -9.26946,5.73824c-5.11938,0 -9.26946,-2.5691 -9.26946,-5.73824c0,-3.16914 4.15008,-5.73824 9.26946,-5.73824c5.11938,0 9.26946,2.5691 9.26946,5.73824z" fill="url(#color-23)" stroke="none" stroke-width="0" stroke-linecap="butt"/><path d="M216.6935,147.49805c1.26355,2.90636 -2.48373,7.33688 -8.36977,9.89586c-5.88604,2.55897 -11.68193,2.27736 -12.94547,-0.62899c-1.26355,-2.90636 2.48373,-7.33688 8.36977,-9.89585c5.88604,-2.55897 11.68193,-2.27736 12.94548,0.62899z" fill="url(#color-24)" stroke="none" stroke-width="0" stroke-linecap="butt"/><path d="M193.84978,165.71951c2.22917,-0.00596 4.04606,3.64901 4.05814,8.16359c0.01208,4.51458 -1.78524,8.17921 -4.0144,8.18517c-2.22917,0.00596 -4.04606,-3.64901 -4.05814,-8.16359c-0.01208,-4.51458 1.78524,-8.17921 4.0144,-8.18517z" fill="url(#color-25)" stroke="none" stroke-width="0" stroke-linecap="butt"/><path d="M186.07584,152.68902c3.15364,0.29077 4.511,4.33091 3.03173,9.02389c-1.47925,4.69298 -5.23495,8.26168 -8.3886,7.97091c-3.15364,-0.29077 -4.511,-4.33091 -3.03175,-9.02389c1.47925,-4.69298 5.23495,-8.26168 8.3886,-7.97091z" fill="url(#color-26)" stroke="none" stroke-width="0" stroke-linecap="butt"/><path d="M175.02571,148.34426c2.11431,0.42433 2.74197,3.25774 1.40192,6.3286c-1.34005,3.07086 -4.14036,5.2163 -6.25467,4.79198c-2.11431,-0.42433 -2.74197,-3.25774 -1.40192,-6.3286c1.34005,-3.07086 4.14036,-5.2163 6.25467,-4.79198z" fill="url(#color-27)" stroke="none" stroke-width="0" stroke-linecap="butt"/><path d="M167.73582,141.39424c1.68346,1.11098 1.23155,3.78751 -1.00938,5.9782c-2.24093,2.19069 -5.42227,3.06598 -7.10573,1.955c-1.68346,-1.11098 -1.23155,-3.78751 1.00938,-5.9782c2.24093,-2.19069 5.42227,-3.06598 7.10573,-1.955z" fill="url(#color-28)" stroke="none" stroke-width="0" stroke-linecap="butt"/><path d="M310.34566,144.17069c1.51834,-1.86768 4.64321,-1.01452 6.97958,1.90559c2.33637,2.92011 2.99952,6.80138 1.48117,8.66906c-1.51834,1.86768 -4.64321,1.01452 -6.97958,-1.90559c-2.33637,-2.92011 -2.99952,-6.80138 -1.48117,-8.66906z" fill="url(#color-29)" stroke="none" stroke-width="0" stroke-linecap="butt"/><path d="M319.58382,149.58701c1.30502,-1.60527 3.99084,-0.87198 5.99895,1.63786c2.00811,2.50984 2.57809,5.8458 1.27307,7.45107c-1.30502,1.60527 -3.99084,0.87198 -5.99895,-1.63786c-2.00811,-2.50984 -2.57809,-5.8458 -1.27307,-7.45107z" fill="url(#color-30)" stroke="none" stroke-width="0" stroke-linecap="butt"/><path d="M320.80822,132.70325c1.51834,-1.86768 4.64321,-1.01451 6.97958,1.90559c2.33637,2.92011 2.99952,6.80138 1.48117,8.66906c-1.51834,1.86768 -4.64321,1.01451 -6.97958,-1.90559c-2.33637,-2.92011 -2.99952,-6.80138 -1.48117,-8.66906z" fill="url(#color-31)" stroke="none" stroke-width="0" stroke-linecap="butt"/><path d="M329.03811,151.16904c1.07604,-1.32361 3.29061,-0.71898 4.94639,1.35048c1.65577,2.06946 2.12574,4.8201 1.0497,6.14371c-1.07604,1.32361 -3.29061,0.71898 -4.94639,-1.35048c-1.65577,-2.06946 -2.12574,-4.8201 -1.0497,-6.14371z" fill="url(#color-32)" stroke="none" stroke-width="0" stroke-linecap="butt"/><path d="M330.80335,137.93454c1.51834,-1.86768 4.64321,-1.01451 6.97958,1.90559c2.33637,2.92011 2.99952,6.80138 1.48117,8.66906c-1.51834,1.86768 -4.64321,1.01451 -6.97958,-1.90559c-2.33637,-2.92011 -2.99952,-6.80138 -1.48117,-8.66906z" fill="url(#color-33)" stroke="none" stroke-width="0" stroke-linecap="butt"/><path d="M269.10194,222.90734c0,12.01446 -14.35579,55.85512 -22.63602,55.85512c-2.9626,0 -0.40023,-1.48242 -4.94926,-8.4678c-8.16519,-12.53823 -17.68676,-41.43538 -17.68676,-49.15117c0,-12.01446 12.85579,-0.38923 21.13602,-0.38923c8.28023,0 24.13602,-9.86138 24.13602,2.15308z" fill="url(#color-34)" stroke="none" stroke-width="0" stroke-linecap="butt"/><path d="M270.69963,106.03427c0,0.98523 1.27018,3.45411 0.55062,4.54347c-1.53342,2.32149 -4.534,3.76653 -8.29113,3.76653c-5.52016,0 -14.58308,-5.22521 -14.58308,-8.31c0,-3.0848 6.8083,-5.58551 12.32846,-5.58551c5.52016,0 9.99513,2.50072 9.99513,5.58551z" fill="url(#color-35)" stroke="none" stroke-width="0" stroke-linecap="butt"/><path d="M295.29661,153.71484c0,7.73199 -28.2076,37.5 -44.5,37.5c-5.21581,0 1.05366,-3.91106 -7.72677,-6.0834c-0.75129,-0.18588 -9.1399,-10.51244 -10.11428,-10.93476c-4.09653,-1.77553 -8.70924,-1.24355 -12.00857,-3.0647c-15.39322,-8.49669 -26.65038,-20.76269 -26.65038,-24.91714c0,-5.14951 22.21744,1.40279 40.86959,0.00819c9.35408,-0.6994 19.18874,-5.00819 24.63041,-5.00819c5.63917,0 18.1251,6.8133 25.5038,6.23588c6.67602,-0.52243 4.61739,1.82429 8.47543,0.27752c4.1975,-1.68287 1.52077,3.35219 1.52077,5.9866z" fill="url(#color-36)" stroke="none" stroke-width="0" stroke-linecap="butt"/><g stroke-linecap="butt"><path d="M301.4513,121.7053c0,7.6308 -1.50635,11.31679 -13.19573,11.31679c-7.20318,0 -26.45298,-5.03009 -31.74198,-8.39842c-0.72976,-0.46476 0.66262,-5.19749 0.11271,-5.73691c-1.9323,-1.89542 -1.00596,1.09831 -1.00596,-1.18146c0,-7.6308 9.47611,-13.81679 21.16548,-13.81679c11.68937,0 24.16548,9.68599 24.16548,17.31679z" fill="#ffffff" stroke="#004141" stroke-width="0.5"/><path d="M256.07957,117.96914c0,3.81189 0.88425,7.41105 -2.37124,9.47029c-3.26148,2.06304 -8.57473,2.46458 -15.41548,2.46458c-3.77173,0 -10.97361,3.777 -15.08108,4.01782c-10.77821,0.63192 -20.40634,-1.48531 -20.40634,-7.01051c0,-7.6308 19.31849,-23.6409 32.98742,-23.6409c10.03554,0 17.05311,-1.36916 20.93756,3.4234c1.40637,1.73515 -0.65083,9.24694 -0.65083,11.27531z" fill="#ffffff" stroke="#004141" stroke-width="0.5"/><path d="M241.65666,107.37243l2.54795,-5.75217c0,0 15.97881,-1.29311 20.29077,-1.20798c3.35095,0.06616 3.43262,1.67636 3.43262,1.67636l2.18588,2.85811c0,0 3.07718,2.11469 -1.29318,4.94838c-0.54825,0.35547 -0.97705,2.60351 -2.63945,4.5237c-0.54372,0.62804 -3.01711,2.52966 -3.80794,3.65919c-2.43794,3.48209 -3.76682,7.42159 -4.199,7.43148c-1.48838,0.03409 -0.36143,5.49225 -1.30676,2.83604c-0.26311,-0.73929 -0.15252,-3.74075 -1.06061,-6.88393c-0.29695,-1.02785 -2.04244,-4.52679 -2.18024,-4.73033c-1.22744,-1.81304 -5.06535,-4.31331 -7.68427,-5.6016c-2.16493,-1.06496 -4.28575,-3.75727 -4.28575,-3.75727z" fill="url(#color-37)" stroke="none" stroke-width="0"/><path d="M258.07679,119.52697c0,1.30149 -4.16512,7.11004 -7.11903,8.62217c-2.36774,1.21206 0.70497,0.15559 -1.747,0.43347c-3.74286,0.42417 -13.35705,3.65997 -16.12676,3.65997c-0.7894,0 -9.44208,2.13914 -10.81517,2.33512c-5.07854,0.72486 -11.67235,-1.27271 -15.55382,-3.15662c-4.17262,-2.02523 -1.91571,-9.38347 -1.91571,-11.18808c0,-3.93717 16.6894,-10.06862 23.5372,-10.06862c6.84781,0 27.74029,6.42543 27.74029,10.3626z" fill="url(#color-38)" stroke="none" stroke-width="0"/><path d="M295.40715,123.59401c0,1.74909 2.6763,6.072 -0.18431,7.06475c-2.38368,0.82724 -6.08923,2.47618 -8.60904,2.47618c-5.54376,0 -27.2069,-5.62033 -27.2069,-8.82689c0,-0.90866 0.67354,-2.0253 1.51726,-3.97531c2.13368,-4.93137 8.08599,-11.40332 12.05879,-11.40332c3.01988,0 10.73611,0.82977 13.01523,4.51268c1.9048,3.07803 -0.42437,8.35873 -0.42437,9.81857z" fill="url(#color-39)" stroke="none" stroke-width="0"/><path d="M267.05264,108.15113c0,0.91839 0.50123,3.37993 -2.06331,5.12072c-1.28914,0.87506 -5.54985,1.78768 -6.60894,1.78768c-1.36254,0 -2.82113,-0.49046 -5.04546,-1.82906c-2.94406,-1.77173 -6.56653,-4.58721 -6.56653,-5.37332c0,-1.38004 7.85806,0.44096 11.02404,0.44096c3.16597,0 9.26019,-1.52703 9.26019,-0.14699z" fill="url(#color-40)" stroke="none" stroke-width="0"/><path d="M264.9647,102.50658c0,1.29886 -5.79592,1.46987 -8.23128,1.46987c-2.43537,0 -9.70115,-0.75896 -9.70115,-2.05782c0,-1.29886 7.26579,-2.64577 9.70115,-2.64577c2.43537,0 8.23128,1.93486 8.23128,3.23372z" fill="url(#color-41)" stroke="none" stroke-width="0"/></g><path d="M125.1875,85.50791l98.5,22l-101.5,-20" fill="none" stroke="none" stroke-width="0" stroke-linecap="round"/><g fill="none" stroke="#002222" stroke-width="1" stroke-linecap="round"><path d="M131.87147,87.54286c0,0 2.49945,-2.21577 5.6451,-2.49059c5.44394,-0.4756 7.60779,-2.19115 13.83569,-2.01814c1.21444,0.03374 8.9979,-0.04663 9.96988,0.17149c5.13211,1.15171 11.51268,-0.11286 20.61928,3.13474c23.94651,8.53982 56.31286,25.07607 56.31286,25.07607"/><path d="M127.4425,141.95303c0,0 1.21734,-3.11046 3.89336,-4.78664c4.63118,-2.90084 5.77731,-5.41315 11.40174,-8.09318c1.09676,-0.5226 7.99104,-4.13613 8.95581,-4.38421c5.09403,-1.30988 10.20022,-5.33949 19.78714,-6.59171c25.20954,-3.2928 61.5555,-3.29666 61.5555,-3.29666"/><path d="M125.03209,114.44807c0,0 1.85972,-2.77458 4.83434,-3.83397c5.14795,-1.8334 6.80909,-4.03929 12.87926,-5.44279c1.18368,-0.27368 8.69519,-2.31475 9.69076,-2.34885c5.25667,-0.18006 11.11195,-3.01316 20.74326,-2.16762c25.32627,2.22342 60.81715,10.06089 60.81715,10.06089"/></g><g data-paper-data="{&quot;index&quot;:null}" fill="none" stroke="#002222" stroke-width="1" stroke-linecap="round"><path d="M280.03209,110.0831c0,0 32.36636,-16.53625 56.31286,-25.07607c9.1066,-3.2476 15.48717,-1.98304 20.61928,-3.13474c0.97198,-0.21813 8.75545,-0.13776 9.96988,-0.17149c6.22791,-0.17301 8.39175,1.54254 13.83569,2.01814c3.14565,0.27482 5.6451,2.49058 5.6451,2.49058"/><path d="M285.25032,113.46729c0,0 36.34596,0.00385 61.55549,3.29666c9.58692,1.25222 14.69311,5.28183 19.78714,6.59171c0.96477,0.24809 7.85906,3.86161 8.95582,4.38421c5.62443,2.68003 6.77056,5.19234 11.40174,8.09318c2.67602,1.67618 3.89336,4.78664 3.89336,4.78664"/><path d="M284.28951,109.38239c0,0 35.49088,-7.83747 60.81715,-10.06089c9.63131,-0.84555 15.4866,1.98757 20.74326,2.16762c0.99558,0.0341 8.50708,2.07516 9.69076,2.34885c6.07016,1.4035 7.73131,3.6094 12.87926,5.4428c2.97461,1.05939 4.83434,3.83397 4.83434,3.83397"/></g></g></g></svg>