<svg version="1.1" xmlns="http://www.w3.org/2000/svg" xmlns:xlink="http://www.w3.org/1999/xlink" width="225.5423" height="310.16794" viewBox="0,0,225.5423,310.16794"><defs><linearGradient x1="243.92249" y1="161.81465" x2="243.92249" y2="215.41495" gradientUnits="userSpaceOnUse" id="color-1"><stop offset="0" stop-color="#e8a4a4"/><stop offset="1" stop-color="#e8a4a4" stop-opacity="0"/></linearGradient><linearGradient x1="248.88548" y1="107.22175" x2="248.88548" y2="120.45639" gradientUnits="userSpaceOnUse" id="color-2"><stop offset="0" stop-color="#ffb570" stop-opacity="0"/><stop offset="1" stop-color="#ffb570"/></linearGradient><linearGradient x1="195.9469" y1="108.54521" x2="195.9469" y2="121.77985" gradientUnits="userSpaceOnUse" id="color-3"><stop offset="0" stop-color="#ffb570" stop-opacity="0"/><stop offset="1" stop-color="#ffb570"/></linearGradient><radialGradient cx="201.40619" cy="107.93075" r="5.90832" gradientUnits="userSpaceOnUse" id="color-4"><stop offset="0" stop-color="#f4feff"/><stop offset="1" stop-color="#f4feff" stop-opacity="0"/></radialGradient><radialGradient cx="251.69784" cy="107.93075" r="5.90832" gradientUnits="userSpaceOnUse" id="color-5"><stop offset="0" stop-color="#f4feff"/><stop offset="1" stop-color="#f4feff" stop-opacity="0"/></radialGradient><linearGradient x1="203.83279" y1="132.24722" x2="211.99415" y2="132.24722" gradientUnits="userSpaceOnUse" id="color-6"><stop offset="0" stop-color="#e8a4a4"/><stop offset="1" stop-color="#e8a4a4" stop-opacity="0"/></linearGradient><linearGradient x1="210.11924" y1="129.49001" x2="210.11924" y2="134.56328" gradientUnits="userSpaceOnUse" id="color-7"><stop offset="0" stop-color="#e8a4a4" stop-opacity="0"/><stop offset="1" stop-color="#e8a4a4"/></linearGradient><linearGradient x1="217.61887" y1="133.90155" x2="217.61887" y2="134.78386" gradientUnits="userSpaceOnUse" id="color-8"><stop offset="0" stop-color="#e8a4a4" stop-opacity="0"/><stop offset="1" stop-color="#e8a4a4"/></linearGradient><linearGradient x1="216.61453" y1="132.13952" x2="216.41744" y2="135.88416" gradientUnits="userSpaceOnUse" id="color-9"><stop offset="0" stop-color="#003e3e"/><stop offset="1" stop-color="#e8a4a4"/></linearGradient><linearGradient x1="204.93568" y1="131.91635" x2="204.93568" y2="135.00444" gradientUnits="userSpaceOnUse" id="color-10"><stop offset="0" stop-color="#003e3e"/><stop offset="1" stop-color="#e8a4a4"/></linearGradient><linearGradient x1="217.61887" y1="146.69504" x2="217.61887" y2="154.61708" gradientUnits="userSpaceOnUse" id="color-11"><stop offset="0" stop-color="#e8d3d3"/><stop offset="1" stop-color="#cacaca"/></linearGradient><linearGradient x1="171.85776" y1="152.27413" x2="183.08981" y2="144.86576" gradientUnits="userSpaceOnUse" id="color-12"><stop offset="0" stop-color="#f1c8c8"/><stop offset="1" stop-color="#f1c8c8" stop-opacity="0"/></linearGradient><linearGradient x1="215.85426" y1="172.5026" x2="215.85426" y2="182.208" gradientUnits="userSpaceOnUse" id="color-13"><stop offset="0" stop-color="#f1c8c8" stop-opacity="0"/><stop offset="1" stop-color="#f1c8c8"/></linearGradient><linearGradient x1="254.8413" y1="131.69578" x2="254.8413" y2="144.26869" gradientUnits="userSpaceOnUse" id="color-14"><stop offset="0" stop-color="#f1c8c8" stop-opacity="0"/><stop offset="1" stop-color="#f1c8c8"/></linearGradient><linearGradient x1="180.231" y1="126.56735" x2="180.231" y2="149.06625" gradientUnits="userSpaceOnUse" id="color-15"><stop offset="0" stop-color="#f1c8c8" stop-opacity="0"/><stop offset="1" stop-color="#f1c8c8"/></linearGradient><linearGradient x1="252.85611" y1="140.46373" x2="252.85611" y2="151.71318" gradientUnits="userSpaceOnUse" id="color-16"><stop offset="0" stop-color="#f1c8c8" stop-opacity="0"/><stop offset="1" stop-color="#f1c8c8"/></linearGradient></defs><g transform="translate(-146.74762,58.04407)"><g data-paper-data="{&quot;isPaintingLayer&quot;:true}" fill-rule="nonzero" stroke-linecap="butt" stroke-linejoin="miter" stroke-miterlimit="10" stroke-dasharray="" stroke-dashoffset="0" style="mix-blend-mode: normal"><g data-paper-data="{&quot;index&quot;:null}"><path d="M158.5997,83.62831c5.30113,-3.59109 14.70696,0.56033 23.30431,9.50232c2.44374,2.5417 4.82215,5.47045 7.02241,8.71846c9.94105,14.67489 12.48094,30.30985 5.67301,34.92168c-2.61369,1.77056 -8.17588,5.80344 -14.5999,3.56263c-10.3088,-3.59588 -22.83695,-16.05113 -28.96146,-25.09208c-9.94105,-14.67489 0.7537,-27.00119 7.56163,-31.61302z" fill="#ffe8e8" stroke="#6a0000" stroke-width="0.5"/><path d="M179.68306,118.09419c5.61294,10.05108 9.72111,11.6911 5.09442,14.27483c-4.62669,2.58373 -19.54486,-4.79321 -25.1578,-14.84429c-1.64818,-2.95139 -3.74833,-7.92743 -3.90608,-11.68035c-0.37948,-9.0278 4.14606,-17.31274 7.41417,-19.13779c2.51539,-1.4047 13.0796,7.62581 15.85208,14.15167c2.32708,5.47748 -1.85815,12.64931 0.7032,17.23592z" fill="#e8b2b2" stroke="none" stroke-width="0"/><path d="M159.51296,91.61851c0.59742,-0.07323 0.34785,-0.55024 0.74054,1.74986c0.43462,2.5457 1.50713,7.89779 2.11882,7.89779c0.72666,0 1.76464,-7.38614 3.15782,-9.94716c1.8331,-3.36971 4.03919,-2.01512 4.54912,-0.65658c0.56438,1.50361 -1.75135,12.5988 -1.75135,14.57413c0,1.07039 -4.42308,6.72041 -3.59428,8.70751c3.13293,7.51132 15.35695,15.44572 13.18939,15.44572c-1.55816,0 -9.96923,-2.18145 -14.93944,-8.43081c-3.77295,-4.74395 -6.56685,-18.80835 -6.56685,-21.01628c0,-2.94301 1.39197,-8.11527 3.09622,-8.32419z" fill="#ffe8e8" stroke="#6a0000" stroke-width="0.5"/><path d="M170.77388,107.18451c1.57236,-2.40974 3.48935,-6.58009 4.99851,-6.58009c3.10645,0 3.30866,7.85647 3.30866,12.24205c0,1.59135 -4.9637,-1.2279 -5.53464,0.0146c-1.00249,2.18169 6.85215,12.22745 4.8729,12.22745c-3.10645,0 -11.58031,-7.19474 -11.58031,-11.58031c0,-2.25498 2.27071,-3.77327 3.93487,-6.32369z" fill="#ffe8e8" stroke="#6a0000" stroke-width="0.5"/></g><path d="M226.05572,226.91828l-13.89638,-71.67296l62.20282,-1.9852c0,0 -7.48663,16.30848 -7.66926,24.49015c-0.05785,2.59161 -0.02165,9.89735 0.83192,14.07066c1.26308,6.17552 3.52868,9.42828 3.52868,12.39257c0,11.84274 -10.10362,28.45448 -10.10362,28.45448c0,0 -7.8408,19.20588 -15.33606,19.20588c-8.48405,0 -19.55811,-24.95559 -19.55811,-24.95559z" fill="#ffe8e8" stroke="#6a0000" stroke-width="0.5"/><path d="M267.74484,188.6148c0,10.88581 -5.76909,20.25575 -14.05532,24.45136c-2.98046,1.50911 -6.28658,2.34879 -9.76703,2.34879c-3.57728,0 -10.9408,16.97972 -13.98544,15.39047c-8.15311,-4.25579 -9.83692,-31.41374 -9.83692,-42.19062c0,-14.80131 10.66563,-26.80015 23.82236,-26.80015c8.37524,0 20.37315,-15.65143 24.62078,-8.29919c2.425,4.19745 -0.79843,29.72017 -0.79843,35.09934z" fill="url(#color-1)" stroke="none" stroke-width="0"/><path d="M298.59156,99.4784c0,24.85452 13.72611,19.37084 -0.21307,44.1034c-0.37624,0.66757 -23.26212,23.4888 -24.08393,24.04279c-11.27758,7.60229 -47.35435,18.45801 -58.50414,18.45801c-11.65384,0 -25.27998,-11.85248 -33.35998,-20.52236c-7.80505,-8.37486 -6.74388,-8.60083 -12.46519,-17.65857c-6.67399,-10.56597 -1.89654,-34.86947 -1.89654,-48.42327c0,-30.59191 2.67448,-57.10797 29.73848,-65.32003c5.84714,-1.7742 29.1194,-2.03878 35.52294,-2.03878c13.6177,0 40.61191,3.61758 51.07351,10.98081c17.22783,12.12554 14.18791,33.23211 14.18791,56.37801z" fill="#ffe8e8" stroke="#6a0000" stroke-width="0.5"/><path d="M278.33256,98.95009c0,12.97399 -18.91243,21.5063 -34.07921,21.5063c-8.45135,0 -14.02584,-1.28051 -19.06341,-6.41721c-4.00286,-4.08162 -1.78115,-9.34455 -1.78115,-15.08908c0,-12.97399 12.29511,-23.49149 27.46188,-23.49149c15.16678,0 27.46188,10.5175 27.46188,23.49149z" fill="#f1c8c8" stroke="none" stroke-width="0"/><path d="M210.83588,97.62663c0,8.96877 -3.42065,24.31053 -7.61606,29.06483c-1.63063,1.84786 -0.15608,-3.13903 -2.26497,-4.07282c-0.53526,-0.23701 -5.76297,0.04352 -6.4417,0.04352c-4.68929,0 -14.13541,-3.57002 -18.45307,-7.7658c-5.10438,-4.96029 -2.28121,-10.0431 -2.28121,-17.26973c0,-13.33946 3.66336,-21.5063 13.89638,-21.5063c10.23301,0 23.16063,8.16683 23.16063,21.5063z" fill="#f1c8c8" stroke="none" stroke-width="0"/><path d="M277.67083,102.58962c0,6.94383 -17.76734,18.5285 -25.80755,18.5285c-8.04022,0 -25.14582,0.98824 -25.14582,-5.95559c0,-6.94383 17.1056,-19.19023 25.14582,-19.19023c8.04022,0 25.80755,-0.32651 25.80755,6.61732z" fill="#ffffff" stroke="#6a0000" stroke-width="0.5"/><path d="M189.88389,95.31057c5.42976,0 16.9816,12.24641 16.9816,19.19023c0,6.94383 -11.55183,5.95559 -16.9816,5.95559c-5.42976,0 -17.42848,-11.58467 -17.42848,-18.5285c0,-6.94383 11.99871,-6.61732 17.42848,-6.61732z" data-paper-data="{&quot;index&quot;:null}" fill="#ffffff" stroke="#6a0000" stroke-width="0.5"/><path d="M207.85808,86.70805c0,2.92372 -14.37,-7.27905 -19.85196,-7.27905c-5.48197,0 -13.89638,9.54104 -13.89638,6.61732c0,-2.02016 3.98732,-9.52243 8.66921,-13.14853c2.09408,-1.62185 4.85645,-1.40958 6.55063,-1.40958c1.2071,0 6.75136,2.58138 8.47196,3.54242c6.09338,3.40343 10.05654,9.39749 10.05654,11.67743z" fill="#322929" stroke="none" stroke-width="0"/><path d="M240.77458,76.20492c2.6315,-0.92067 11.11097,-3.39363 12.95711,-3.39363c2.59109,0 6.8159,-0.20336 10.01861,1.35037c7.16054,3.47382 13.2588,10.66099 13.2588,12.5963c0,2.80093 -12.8691,-6.33939 -21.25328,-6.33939c-8.38419,0 -30.36183,9.77426 -30.36183,6.97333c0,-2.18417 6.0613,-7.92649 15.38059,-11.18698z" data-paper-data="{&quot;index&quot;:null}" fill="#322929" stroke="none" stroke-width="0"/><g stroke="none" stroke-width="0"><path d="M259.73547,108.30893c0.83637,6.9085 -3.63959,12.95861 -9.99733,13.51332c-6.35775,0.5547 -12.18974,-4.59606 -13.02612,-11.50456c-0.83637,-6.9085 3.63959,-12.95861 9.99734,-13.51332c6.35775,-0.5547 12.18974,4.59605 13.02611,11.50455z" fill="#322929"/><path d="M259.14233,113.83907c0,3.65464 -4.59215,6.61732 -10.25685,6.61732c-5.66471,0 -10.25685,-2.96268 -10.25685,-6.61732c0,-3.65464 4.59214,-6.61732 10.25685,-6.61732c5.6647,0 10.25685,2.96268 10.25685,6.61732z" fill="url(#color-2)"/></g><g stroke="none" stroke-width="0"><path d="M206.80263,108.97447c0.78871,6.51481 -3.43218,12.22016 -9.42763,12.74325c-5.99545,0.52309 -11.4951,-4.33415 -12.28381,-10.84896c-0.78871,-6.51481 3.43218,-12.22015 9.42763,-12.74325c5.99545,-0.52309 11.4951,4.33415 12.28381,10.84896z" fill="#322929"/><path d="M206.20375,115.16253c0,3.65464 -4.59214,6.61732 -10.25685,6.61732c-5.66471,0 -10.25685,-2.96268 -10.25685,-6.61732c0,-3.65464 4.59214,-6.61732 10.25685,-6.61732c5.66471,0 10.25685,2.96268 10.25685,6.61732z" fill="url(#color-3)"/></g><path d="M204.21856,112.18474c0,3.47191 -2.81455,6.28646 -6.28646,6.28646c-3.47191,0 -6.28646,-2.81455 -6.28646,-6.28646c0,-3.47191 2.81455,-6.28646 6.28646,-6.28646c3.47191,0 6.28646,2.81455 6.28646,6.28646z" fill="#06040b" stroke="none" stroke-width="0"/><path d="M254.5102,110.86127c0,3.47191 -2.81454,6.28646 -6.28646,6.28646c-3.47191,0 -6.28646,-2.81455 -6.28646,-6.28646c0,-3.47191 2.81455,-6.28646 6.28646,-6.28646c3.47192,0 6.28646,2.81455 6.28646,6.28646z" fill="#06040b" stroke="none" stroke-width="0"/><g stroke="none" stroke-width="0"><path d="M207.19635,107.93075c0,3.26308 -2.59234,5.90832 -5.79016,5.90832c-3.19781,0 -5.79016,-2.64525 -5.79016,-5.90832c0,-3.26308 2.59234,-5.90832 5.79016,-5.90832c3.19781,0 5.79016,2.64525 5.79016,5.90832z" fill="url(#color-4)"/><path d="M205.06936,108.52158c0,1.37049 -1.21681,2.4815 -2.71783,2.4815c-1.50102,0 -2.71783,-1.111 -2.71783,-2.4815c0,-1.37049 1.21681,-2.4815 2.71783,-2.4815c1.50101,0 2.71783,1.111 2.71783,2.4815z" fill="#ffffff"/></g><g stroke="none" stroke-width="0"><path d="M257.488,107.93075c0,3.26308 -2.59234,5.90832 -5.79016,5.90832c-3.19781,0 -5.79016,-2.64525 -5.79016,-5.90832c0,-3.26308 2.59234,-5.90832 5.79016,-5.90832c3.19781,0 5.79016,2.64525 5.79016,5.90832z" fill="url(#color-5)"/><path d="M255.361,108.52158c0,1.37049 -1.21682,2.4815 -2.71783,2.4815c-1.50101,0 -2.71783,-1.111 -2.71783,-2.4815c0,-1.37049 1.21681,-2.4815 2.71783,-2.4815c1.50101,0 2.71783,1.111 2.71783,2.4815z" fill="#ffffff"/></g><g><path d="M279.27025,101.80754c0,1.65901 -9.69234,-2.62049 -17.43289,-2.74469c-0.1056,-0.00169 -0.45498,-0.02282 -0.94492,-0.05511c-1.83516,-0.12095 -5.64229,-0.39857 -5.99599,-0.39857c-3.10507,0 -10.38936,2.04911 -15.73796,5.56513c-7.34683,4.82961 -13.70913,14.75761 -13.70913,13.73539c0,-0.92224 3.73202,-10.07239 10.24547,-15.6559c5.96208,-5.11088 14.57649,-6.7327 18.09873,-6.7327c3.03874,0 8.51799,-0.85066 12.61242,0.08814c5.83625,1.33817 12.86427,5.1602 12.86427,6.19832z" fill="#000000" stroke="none" stroke-width="0"/><path d="M278.42831,101.64835c0.6446,2.01417 -0.36639,-0.14874 -2.51313,-1.17774c-4.23264,-2.02882 -12.88047,-5.38177 -21.95917,-3.75404c-2.62524,0.47068 -5.47192,0.99812 -8.88148,2.25397c-4.45896,1.64237 -11.17521,6.42298 -13.09962,8.5768c-4.27388,4.78338 -4.01598,11.61429 -5.08338,8.27901c-1.91553,-5.98541 9.16817,-19.66423 22.85146,-22.11751c13.6833,-2.45329 26.76979,1.9541 28.68532,7.93952z" fill="#ffe8e8" stroke="#6a0000" stroke-width="0.5"/></g><g data-paper-data="{&quot;index&quot;:null}"><path d="M180.54826,94.12544c2.76877,-0.88074 6.474,-0.08268 8.52889,-0.08268c2.38184,0 8.20716,1.52153 12.2389,6.31631c4.40459,5.2382 6.92828,13.82245 6.92828,14.68765c0,0.959 -4.30237,-8.35499 -9.27051,-12.88591c-3.61688,-3.29858 -8.54273,-5.22095 -10.64247,-5.22095c-0.23918,0 -2.81369,0.26045 -4.05466,0.37392c-0.33131,0.03029 -0.56757,0.05012 -0.63898,0.05171c-5.23438,0.11651 -11.78863,4.13135 -11.78863,2.57494c0,-0.97392 4.75255,-4.55956 8.6992,-5.81498z" fill="#000000" stroke="none" stroke-width="0"/><path d="M191.81627,92.34258c9.25305,2.30156 16.74818,15.1344 15.45284,20.74964c-0.72181,3.12901 -0.5474,-3.27944 -3.43753,-7.76698c-1.30134,-2.02062 -5.84308,-6.50556 -8.85836,-8.04636c-2.30565,-1.17818 -4.23065,-1.673 -6.00592,-2.11457c-6.13928,-1.52705 -11.98719,1.61852 -14.84944,3.52187c-1.45169,0.96535 -2.13535,2.9945 -1.69945,1.10489c1.29533,-5.61524 10.14481,-9.75005 19.39786,-7.44849z" fill="#ffe8e8" stroke="#6a0000" stroke-width="0.5"/></g><path d="M223.90533,126.40192c0,2.30736 -0.98175,6.36391 -4.75492,9.51264c-2.00397,1.67232 -6.69562,3.722 -8.25914,3.722c-4.5074,0 -8.16137,-2.86392 -8.16137,-6.39675c0,-0.68233 0.35689,-6.63357 0.60932,-7.25018c0.52267,-1.27672 -0.05503,2.00985 1.22958,2.53486c1.30727,0.53426 4.48816,-1.68142 6.32247,-1.68142c1.63347,0 5.2493,3.29701 7.22719,3.16903c3.47992,-0.22518 5.78687,-5.86272 5.78687,-3.61018z" fill="#f1c8c8" stroke="none" stroke-width="0"/><path d="M211.99415,132.24722c0,2.61916 0.81995,6.72761 -1.43375,6.72761c-1.2084,0 -3.49626,0.36288 -4.94936,-1.13654c-1.25697,-1.29703 -1.77825,-4.37627 -1.77825,-5.59107c0,-1.12308 -0.32582,-4.58133 0.23562,-5.39375c0.7479,-1.08225 2.55774,0.65134 3.84507,0.65134c2.25369,0 4.08068,2.12325 4.08068,4.74241z" fill="url(#color-6)" stroke="none" stroke-width="0"/><path d="M214.64108,132.02664c0,0.74646 -0.79534,1.94571 -1.71014,3.5216c-0.57138,0.98429 -1.16348,2.19317 -1.87859,2.80717c-0.28874,0.24791 -0.59753,0.39884 -0.93311,0.39884c-1.08942,0 -2.30944,-2.55771 -3.09009,-3.81694c-1.00887,-1.62737 -1.43174,-2.12086 -1.43174,-2.91067c0,-1.40095 2.02449,-2.53664 4.52183,-2.53664c2.49734,0 4.52184,1.1357 4.52184,2.53664z" fill="url(#color-7)" stroke="none" stroke-width="0"/><path d="M217.61888,134.78386c-0.79184,0 -1.43375,-0.19751 -1.43375,-0.44115c0,-0.24364 0.64191,-0.44116 1.43375,-0.44116c0.79184,0 1.43375,0.19751 1.43375,0.44116c0,0.24364 -0.64191,0.44115 -1.43375,0.44115z" fill="url(#color-8)" stroke="none" stroke-width="0"/><path d="M219.48967,134.16835c-0.05443,1.03406 -1.4299,1.80224 -3.07222,1.71581c-1.64231,-0.08644 -2.92956,-0.99478 -2.87513,-2.02882c0.05443,-1.03406 1.4299,-1.80225 3.07222,-1.71581c1.64231,0.08644 2.92956,0.99478 2.87513,2.02882z" fill="url(#color-9)" stroke="none" stroke-width="0"/><path d="M206.70029,133.4604c0,0.85275 -0.79005,1.54405 -1.76461,1.54405c-0.97457,0 -1.76462,-0.69129 -1.76462,-1.54405c0,-0.85275 0.79005,-1.54405 1.76462,-1.54405c0.97457,0 1.76461,0.69129 1.76461,1.54405z" fill="url(#color-10)" stroke="none" stroke-width="0"/><path d="M242.43383,145.81273c0,0.97457 -18.75131,8.16136 -31.54256,8.16136c-8.62255,0 -12.93648,-3.68676 -16.27024,-6.24457c-1.61176,-1.23661 -4.68461,-2.04033 -4.68461,-2.35794c0,-0.5703 5.47856,1.30954 11.48899,2.05227c4.26066,0.52651 3.93921,-0.06707 9.24529,-0.06707c1.74116,0 12.03996,1.11753 13.67133,1.14528c10.3533,0.17611 18.09182,-3.53123 18.09182,-2.68932z" fill="#d66464" stroke="#6a0000" stroke-width="0.5"/><path d="M210.22953,154.41525c0,0 -6.72101,-2.22564 -7.23418,-2.65986c-1.37035,-1.15952 -7.10336,-5.06035 -7.10336,-5.06035c0,0 2.55413,0.82226 7.0497,1.20579c4.55327,0.38846 11.05824,0.33825 12.58169,0.33825c1.17017,0 8.19037,1.38953 12.13175,1.10288c9.09882,-0.66173 11.6906,-1.10288 11.6906,-1.10288l-8.8231,3.74981c0,0 -6.81552,2.05924 -10.06488,2.44775c-3.49683,0.4181 -10.22824,-0.0214 -10.22824,-0.0214z" fill="url(#color-11)" stroke="#6a0000" stroke-width="0.5"/><path d="M228.75803,155.849c0,2.13188 -11.62755,9.59512 -17.5359,9.59512c-5.90835,0 -15.33013,-10.11017 -15.33013,-12.24205c0,-2.13188 6.77486,6.72761 12.6832,6.72761c2.20768,0 6.68629,0.01494 10.04895,-0.96041c5.63675,-1.63494 10.13388,-4.45556 10.13388,-3.12027z" fill="#f1c8c8" stroke="none" stroke-width="0"/><path d="M191.91291,143.32172c5.39948,8.18631 17.84995,38.09763 14.74831,40.14339c-1.69908,1.12067 -10.80147,-5.22807 -19.17487,-13.14323c-6.91212,-6.53384 -13.18695,-14.3459 -15.62859,-18.04776c-1.56032,-2.36565 -2.88055,-5.25701 -3.89432,-8.84943c-2.49437,-8.83913 -3.13335,-19.69281 -0.92801,-21.1474c0.69112,-0.45584 2.23214,10.90707 3.24115,11.10646c0.95109,0.18795 3.34091,7.04498 4.4736,7.74225c1.13442,0.69834 8.44034,3.6301 10.95674,3.39392c4.26821,-0.4006 4.2795,-4.11902 6.206,-1.19821z" fill="url(#color-12)" stroke="none" stroke-width="0"/><path d="M259.41829,167.87047c0,1.37884 -9.93345,7.55366 -19.7774,11.72532c-9.28996,3.9369 -18.37956,5.92087 -22.90432,5.92087c-2.18481,0 -5.34656,0.14225 -7.89391,-0.68766c-8.31843,-2.7101 -16.47989,-9.39234 -16.47989,-11.4441c0,-1.01502 -2.37876,-6.68162 0.65334,-6.75299c4.97386,-0.11707 17.04831,5.87068 22.83815,5.87068c9.31935,0 43.56403,-7.3122 43.56403,-4.63213z" fill="url(#color-13)" stroke="none" stroke-width="0"/><path d="M288.20364,131.03405c0,3.47191 -25.20879,21.5063 -39.97965,21.5063c-8.57214,0 -11.98848,-2.41033 -15.01241,-6.22277c-0.77471,-0.97672 -3.79523,-4.2774 -5.23655,-6.0611c-2.62693,-3.25095 -3.51825,-7.61987 -3.51825,-8.56069c0,-3.47191 15.61368,0 30.38453,0c14.77086,0 33.36233,-4.13364 33.36233,-0.66173z" fill="url(#color-14)" stroke="none" stroke-width="0"/><path d="M200.7447,132.85381c0,3.41435 -5.13941,6.79319 -9.10316,11.82702c-0.60218,0.76475 -4.18947,-0.28163 -4.80228,0.74046c-2.6934,4.49227 2.49007,19.52653 0.00907,19.52653c-2.6224,0 -5.38601,-2.15435 -8.5969,-6.36957c-5.06743,-6.65247 -9.9316,-13.3188 -9.9316,-17.12192c0,-1.22957 -0.85157,-8.00772 -0.89861,-11.26038c-0.05717,-3.95306 0.42743,-8.07456 1.38917,-9.14234c2.24546,-2.49304 7.62378,5.51374 11.42062,5.51374c6.7611,0 20.5137,0.07356 20.5137,6.28646z" fill="url(#color-15)" stroke="none" stroke-width="0"/><path d="M296.37692,118.61067c0,1.12371 0.7508,9.47636 -5.23824,21.41769c-3.01296,6.00744 -11.44233,17.37588 -15.04084,20.20063c-9.02264,7.08257 -32.0183,15.96828 -36.14551,15.96828c-4.01326,0 -4.09308,-11.52125 -5.46047,-20.84439c-0.45842,-3.12562 -1.35524,-6.88521 -2.20052,-8.70182c-2.31604,-4.97747 -6.73169,-11.86943 -6.73169,-13.13551c0,-3.10645 18.2512,6.94819 27.29645,6.94819c9.04525,0 43.52081,-24.95951 43.52081,-21.85306z" fill="url(#color-16)" stroke="none" stroke-width="0"/><path d="M336.45345,66.2151c0,3.20644 3.23319,33.60201 -14.82364,47.35747c-2.52954,1.92697 -21.41183,34.10994 -30.63441,22.55091c-3.97108,-4.97711 4.96531,-21.20463 5.89464,-36.61962c1.19525,-19.8258 -5.22704,-39.82259 -9.95363,-48.81363c-3.17693,-6.04324 -17.7994,-12.45823 -19.69661,-13.80001c-13.36588,-9.45284 -31.77971,11.59273 -41.34927,11.59273c-3.00622,0 -10.0158,-0.55287 -18.14555,-3.96861c-6.96388,-2.9259 -15.10206,-8.92146 -18.2918,-7.58445c-18.55741,7.77849 -20.51614,46.17537 -22.65298,40.67149c-0.38489,-0.99136 -4.8181,-30.97894 3.80655,-37.90311c2.35477,-1.8905 8.50189,-14.5115 15.39489,-23.02112c2.85633,-3.52623 10.77862,-7.99243 10.77862,-8.0854c0,-7.40065 38.57606,-21.35378 62.87946,-21.35378c10.64022,0 48.09493,12.31996 58.916,23.44184c13.8954,14.28168 17.87772,51.37471 17.87772,55.5353z" fill="#322929" stroke="none" stroke-width="0"/><path d="M343.75966,-13.6274c-0.58096,7.38526 -12.51707,3.50032 -22.63761,2.70419c-10.12053,-0.79614 -30.54189,14.49665 -29.96093,7.1114c0.58096,-7.38525 25.20509,-25.42543 35.32562,-24.62929c10.12053,0.79614 17.85388,7.42845 17.27292,14.8137z" fill="#322929" stroke="none" stroke-width="0"/><g fill="#322929" stroke="none" stroke-width="0"><path d="M346.58601,4.18721c0.0816,0.61125 28.48603,3.60179 23.66129,4.20124c-4.61293,0.57313 -26.6669,-2.54619 -25.41362,-1.63c2.51144,1.83595 27.92695,4.75413 24.64316,5.74318c-3.20387,0.96498 -25.23504,-3.3831 -29.27323,-2.84405c-12.40285,1.65562 -22.2378,2.74117 -22.70626,-0.76819c-0.46845,-3.50936 34.88933,-16.05238 47.29218,-17.70801c4.9702,-0.66346 -19.19977,4.43517 -20.3196,6.32022c-0.66171,1.11388 20.83209,-4.35426 24.25944,-3.72817c2.06192,0.37666 -20.18177,4.56387 -21.61189,6.07178c-1.14455,1.20679 17.28561,-3.21571 21.5365,-2.84168c0.95175,0.08374 6.20664,2.618 1.38859,4.27594c-1.93203,0.66483 -17.48578,0.38105 -17.14047,0.9832c0.31683,0.55247 10.1789,-1.27616 12.51534,-0.84687c6.23833,1.14619 8.4131,4.22712 5.76704,4.95886c-3.77584,1.04417 -24.61521,-2.31301 -24.59845,-2.18744z"/><path d="M338.48759,18.47557c-0.38752,0.55836 19.46023,16.13409 15.27204,14.43221c-4.00431,-1.62715 -18.82647,-14.40014 -18.5292,-13.04452c0.59567,2.71651 18.17615,16.85976 14.89701,16.19664c-3.19934,-0.64697 -17.09741,-14.4567 -20.63035,-15.84932c-10.851,-4.27726 -19.28776,-7.86266 -17.06286,-11.06838c2.2249,-3.20572 38.92935,2.32045 49.78035,6.59771c4.34833,1.71403 -18.17852,-5.02564 -20.43844,-3.93267c-1.33539,0.64583 19.3862,5.84321 21.58543,7.94866c1.32308,1.26666 -19.0359,-5.36631 -21.25854,-4.73709c-1.77882,0.50358 15.79283,5.18703 18.8174,7.45537c0.67718,0.50787 2.88783,5.07773 -2.07595,4.28103c-1.99046,-0.31947 -13.85732,-7.69469 -14.03337,-7.02314c-0.16153,0.61615 8.8444,3.5807 10.3418,5.01811c3.99807,3.83791 3.41402,7.46104 0.81981,6.87112c-3.70184,-0.8418 -17.40551,-13.26044 -17.48511,-13.14574z"/></g><g data-paper-data="{&quot;index&quot;:null}" fill="#322929" stroke="none" stroke-width="0"><path d="M242.84787,-46.25274c0.40446,-2.37402 4.14224,-0.8721 6.36252,4.37453c0.83156,1.96501 0.31743,10.70351 0.9765,10.90967c0.71834,0.22469 -1.97225,-13.17054 -1.53263,-14.91986c1.09629,-4.36242 4.70054,-0.13429 4.93855,0.67728c1.06305,3.6248 -1.00881,20.07785 0.15019,18.94236c1.44818,-1.41881 2.67719,-21.13596 3.40862,-19.40154c1.21579,2.88296 -1.54365,22.10888 -0.41357,21.40163c1.91248,-1.19689 3.85453,-22.68847 3.88072,-18.31602c0.06538,10.91121 -8.3955,42.97113 -12.34612,42.9948c-3.95061,0.02367 -4.25369,-8.60074 -4.31907,-19.51195c-0.02128,-3.55254 -8.19416,-22.04481 -7.61715,-24.92893c0.5914,-2.95606 7.70095,18.63289 10.11409,20.5774c1.20423,0.97037 -5.61394,-17.69153 -5.68539,-21.74447c-0.07472,-4.23906 7.57159,19.92185 8.25969,19.91773c0.14136,-0.00085 -6.75411,-17.58497 -6.17697,-20.97261z"/><path d="M217.2665,-30.03797c-1.04851,-2.16799 2.86701,-3.11432 7.72018,-0.13044c1.81765,1.11755 6.47075,8.53201 7.12712,8.31736c0.71539,-0.23395 -9.25019,-9.58056 -9.90749,-11.26023c-1.63917,-4.18876 3.74988,-2.83752 4.41473,-2.31478c2.96949,2.33481 10.83157,16.93561 11.11635,15.33826c0.35583,-1.9959 -10.08707,-18.76558 -8.48479,-17.77771c2.66332,1.64205 11.57483,18.89996 12.08461,17.66813c0.86273,-2.08467 -10.0294,-20.71316 -7.47031,-17.16773c6.38605,8.84744 18.10347,39.86562 14.90009,42.17781c-3.20338,2.31219 -8.45575,-4.53507 -14.84181,-13.38251c-2.07921,-2.8806 -19.46749,-13.19602 -20.67153,-15.87955c-1.23408,-2.75047 17.08558,10.70382 20.17927,10.88673c1.54384,0.09127 -14.8397,-11.14853 -17.25019,-14.40752c-2.52117,-3.40864 17.72835,11.82855 18.28631,11.42582c0.11462,-0.08274 -15.70633,-10.4 -17.20252,-13.49365z"/></g><g data-paper-data="{&quot;index&quot;:null}" fill="#322929" stroke="none" stroke-width="0"><path d="M261.47739,-36.02541c0.63963,0.25373 16.53816,-19.48081 14.92908,-15.5583c-1.53843,3.75029 -14.66835,18.66201 -13.19394,18.19521c2.95455,-0.9354 17.41893,-18.46849 16.89644,-15.49949c-0.50977,2.89675 -14.8403,17.15846 -16.15027,20.46072c-4.02342,10.14253 -7.43784,18.06806 -11.11014,16.61131c-3.6723,-1.45676 0.08733,-34.4005 4.11075,-44.54303c1.6123,-4.06442 -4.3831,16.66514 -3.03586,18.47486c0.79608,1.06937 5.2071,-17.84607 7.38687,-20.09066c1.31137,-1.35038 -4.704,17.46695 -3.86994,19.31482c0.66751,1.47888 4.71217,-14.60331 7.01903,-17.59457c0.51649,-0.66973 5.41016,-3.30028 4.84735,1.16244c-0.22568,1.78954 -7.59719,13.29313 -6.84628,13.34466c0.68896,0.04727 3.38339,-8.28133 4.87178,-9.81021c3.97405,-4.08212 8.00208,-4.12408 7.51677,-1.76526c-0.69251,3.36594 -13.50304,17.2454 -13.37164,17.29752z"/><path d="M271.86696,-22.59993c0.37361,0.57786 24.77415,-6.26524 21.18723,-4.0049c-3.42945,2.1611 -22.77628,6.68369 -21.30469,7.15931c2.9489,0.95308 24.90387,-4.92969 22.75519,-2.81517c-2.09639,2.06306 -22.04366,5.35949 -25.02703,7.28834c-9.16309,5.92424 -16.54351,10.39658 -18.68849,7.07891c-2.14498,-3.31767 20.03699,-27.96286 29.20007,-33.8871c3.67193,-2.37402 -13.24167,11.02708 -13.19491,13.28273c0.02763,1.33287 14.5981,-11.5105 17.67591,-12.07323c1.85165,-0.33855 -13.96835,11.49377 -14.36165,13.48263c-0.31475,1.59172 12.31298,-9.15706 15.92764,-10.25406c0.80931,-0.24561 6.32114,0.45249 3.27269,3.75999c-1.22242,1.3263 -13.90192,6.4157 -13.32034,6.89347c0.53361,0.43836 7.56166,-4.78008 9.66106,-5.16124c5.60545,-1.0177 8.90998,1.28598 7.14573,2.92519c-2.51752,2.33908 -21.00515,6.20643 -20.9284,6.32514z"/></g><g data-paper-data="{&quot;index&quot;:null}" fill="#322929" stroke="none" stroke-width="0"><path d="M343.52781,33.72951c-0.48416,0.48897 11.43866,22.85103 8.46085,19.83311c-2.84707,-2.88543 -11.41836,-20.8099 -11.5669,-19.27051c-0.29766,3.08476 10.16211,23.26448 7.63554,21.61995c-2.46508,-1.6045 -9.96774,-20.3787 -12.4922,-22.87832c-7.75358,-7.6773 -13.70632,-13.92527 -10.92661,-16.73259c2.77971,-2.80733 31.613,13.5654 39.36658,21.24269c3.1071,3.07652 -13.61315,-10.56506 -15.80615,-10.03506c-1.29584,0.31318 14.37655,11.78605 15.58703,14.67124c0.72824,1.73576 -14.22499,-11.17459 -16.25192,-11.13165c-1.62218,0.03436 11.58733,10.05956 13.4349,13.35436c0.41366,0.73769 0.91535,6.27086 -2.96957,4.0037c-1.55784,-0.90912 -9.2511,-12.20007 -9.59285,-11.52947c-0.31356,0.61529 6.29224,6.3589 7.11529,8.32749c2.19757,5.25618 0.65718,8.97828 -1.32262,7.60715c-2.82509,-1.95654 -10.57194,-19.18255 -10.6714,-19.0821z"/><path d="M327.10412,38.02474c-0.67806,0.11718 -3.94772,25.24733 -4.62107,21.06143c-0.64378,-4.00213 2.77959,-23.57339 1.76517,-22.40602c-2.03278,2.33927 -5.22722,24.84313 -6.33022,22.03752c-1.07615,-2.73733 3.71061,-22.38032 3.10562,-25.88103c-1.85814,-10.75203 -3.0794,-19.29492 0.81358,-19.9677c3.89298,-0.67278 17.8703,29.3948 19.72845,40.14684c0.74461,4.30866 -4.95376,-16.50451 -7.0472,-17.34571c-1.23702,-0.49707 4.86678,17.94187 4.17796,20.99394c-0.4144,1.83615 -5.09824,-17.35597 -6.77376,-18.49743c-1.34094,-0.91352 3.59746,14.91708 3.18971,18.67247c-0.0913,0.84081 -2.89417,5.63784 -4.74196,1.53684c-0.74095,-1.64449 -0.45263,-15.30423 -1.12015,-14.95648c-0.61245,0.31906 1.43333,8.83025 0.961,10.91104c-1.2611,5.55576 -4.67579,7.69275 -5.4922,5.42713c-1.16499,-3.23295 2.52436,-21.75691 2.38506,-21.73284z"/></g><g><path d="M339.95846,129.46857c-6.12451,9.04094 -18.65266,21.4962 -28.96147,25.09208c-6.42402,2.2408 -11.98621,-1.79208 -14.5999,-3.56263c-6.80793,-4.61183 -4.26805,-20.2468 5.673,-34.92168c2.20027,-3.24801 4.57868,-6.17676 7.02241,-8.71845c8.59735,-8.94199 18.00318,-13.09341 23.30431,-9.50232c6.80793,4.61183 17.50269,16.93814 7.56164,31.61302z" fill="#ffe8e8" stroke="#6a0000" stroke-width="0.5"/><path d="M312.01666,115.08551c2.77248,-6.52586 13.3367,-15.55637 15.85209,-14.15167c3.26811,1.82505 7.79366,10.10999 7.41417,19.13779c-0.15776,3.75291 -2.25791,8.72896 -3.90609,11.68035c-5.61294,10.05108 -20.53112,17.42802 -25.15781,14.84429c-4.62669,-2.58373 -0.51851,-4.22376 5.09443,-14.27483c2.56135,-4.5866 -1.62388,-11.75844 0.7032,-17.23592z" fill="#e8b2b2" stroke="none" stroke-width="0"/><path d="M334.57979,114.16993c0,2.20793 -2.79391,16.27232 -6.56685,21.01628c-4.97021,6.24935 -13.38128,8.43081 -14.93944,8.43081c-2.16756,0 10.05646,-7.93439 13.18939,-15.44572c0.82881,-1.9871 -3.59428,-7.63712 -3.59428,-8.70751c0,-1.97534 -2.31574,-13.07053 -1.75135,-14.57413c0.50993,-1.35854 2.71602,-2.71312 4.54912,0.65658c1.39318,2.56102 2.43116,9.94716 3.15782,9.94716c0.61169,0 1.68419,-5.3521 2.11881,-7.89779c0.39269,-2.3001 0.14312,-1.82309 0.74054,-1.74986c1.70425,0.20892 3.09623,5.38117 3.09623,8.32419z" fill="#ffe8e8" stroke="#6a0000" stroke-width="0.5"/><path d="M324.15751,127.73544c0,4.38558 -8.47386,11.58031 -11.58031,11.58031c-1.97925,0 5.87539,-10.04575 4.8729,-12.22745c-0.57093,-1.2425 -5.53463,1.57674 -5.53463,-0.0146c0,-4.38558 0.20221,-12.24205 3.30866,-12.24205c1.50917,0 3.42616,4.17034 4.99852,6.58008c1.66416,2.55042 3.93486,4.06871 3.93486,6.3237z" fill="#ffe8e8" stroke="#6a0000" stroke-width="0.5"/></g></g></g></svg>