<svg version="1.1" xmlns="http://www.w3.org/2000/svg" xmlns:xlink="http://www.w3.org/1999/xlink" width="291.75666" height="310.16793" viewBox="0,0,291.75666,310.16793"><defs><linearGradient x1="245.36507" y1="149.81465" x2="245.36507" y2="203.41495" gradientUnits="userSpaceOnUse" id="color-1"><stop offset="0" stop-color="#e8a4a4"/><stop offset="1" stop-color="#e8a4a4" stop-opacity="0"/></linearGradient><linearGradient x1="240.40208" y1="95.22175" x2="240.40208" y2="108.45639" gradientUnits="userSpaceOnUse" id="color-2"><stop offset="0" stop-color="#ffb570" stop-opacity="0"/><stop offset="1" stop-color="#ffb570"/></linearGradient><linearGradient x1="292.84066" y1="95.29521" x2="292.84066" y2="108.52985" gradientUnits="userSpaceOnUse" id="color-3"><stop offset="0" stop-color="#ffb570" stop-opacity="0"/><stop offset="1" stop-color="#ffb570"/></linearGradient><radialGradient cx="296.54804" cy="95.93075" r="5.90832" gradientUnits="userSpaceOnUse" id="color-4"><stop offset="0" stop-color="#f4feff"/><stop offset="1" stop-color="#f4feff" stop-opacity="0"/></radialGradient><radialGradient cx="245.92306" cy="96.93075" r="5.90832" gradientUnits="userSpaceOnUse" id="color-5"><stop offset="0" stop-color="#f4feff"/><stop offset="1" stop-color="#f4feff" stop-opacity="0"/></radialGradient><linearGradient x1="285.45477" y1="120.24722" x2="277.29341" y2="120.24722" gradientUnits="userSpaceOnUse" id="color-6"><stop offset="0" stop-color="#e8a4a4"/><stop offset="1" stop-color="#e8a4a4" stop-opacity="0"/></linearGradient><linearGradient x1="279.16832" y1="117.49001" x2="279.16832" y2="122.56328" gradientUnits="userSpaceOnUse" id="color-7"><stop offset="0" stop-color="#e8a4a4" stop-opacity="0"/><stop offset="1" stop-color="#e8a4a4"/></linearGradient><linearGradient x1="271.66869" y1="121.90155" x2="271.66869" y2="122.78386" gradientUnits="userSpaceOnUse" id="color-8"><stop offset="0" stop-color="#e8a4a4" stop-opacity="0"/><stop offset="1" stop-color="#e8a4a4"/></linearGradient><linearGradient x1="272.67303" y1="120.13952" x2="272.87012" y2="123.88416" gradientUnits="userSpaceOnUse" id="color-9"><stop offset="0" stop-color="#003e3e"/><stop offset="1" stop-color="#e8a4a4"/></linearGradient><linearGradient x1="284.35188" y1="119.91635" x2="284.35188" y2="123.00444" gradientUnits="userSpaceOnUse" id="color-10"><stop offset="0" stop-color="#003e3e"/><stop offset="1" stop-color="#e8a4a4"/></linearGradient><linearGradient x1="236.43145" y1="128.46373" x2="236.43145" y2="139.71318" gradientUnits="userSpaceOnUse" id="color-11"><stop offset="0" stop-color="#f1c8c8" stop-opacity="0"/><stop offset="1" stop-color="#f1c8c8"/></linearGradient><linearGradient x1="317.4298" y1="140.27413" x2="306.19775" y2="132.86576" gradientUnits="userSpaceOnUse" id="color-12"><stop offset="0" stop-color="#f1c8c8"/><stop offset="1" stop-color="#f1c8c8" stop-opacity="0"/></linearGradient><linearGradient x1="273.4333" y1="160.5026" x2="273.4333" y2="170.208" gradientUnits="userSpaceOnUse" id="color-13"><stop offset="0" stop-color="#f1c8c8" stop-opacity="0"/><stop offset="1" stop-color="#f1c8c8"/></linearGradient><linearGradient x1="234.44626" y1="119.69578" x2="234.44626" y2="132.26869" gradientUnits="userSpaceOnUse" id="color-14"><stop offset="0" stop-color="#f1c8c8" stop-opacity="0"/><stop offset="1" stop-color="#f1c8c8"/></linearGradient><linearGradient x1="309.55656" y1="115.81735" x2="309.55656" y2="138.31625" gradientUnits="userSpaceOnUse" id="color-15"><stop offset="0" stop-color="#f1c8c8" stop-opacity="0"/><stop offset="1" stop-color="#f1c8c8"/></linearGradient><linearGradient x1="274.41869" y1="138.02838" x2="274.41869" y2="149.95041" gradientUnits="userSpaceOnUse" id="color-16"><stop offset="0" stop-color="#e8d3d3"/><stop offset="1" stop-color="#cacaca"/></linearGradient><radialGradient cx="276.0152" cy="116.42662" r="13.00429" gradientUnits="userSpaceOnUse" id="color-17"><stop offset="0" stop-color="#905b00"/><stop offset="1" stop-color="#252313"/></radialGradient><linearGradient x1="253.10469" y1="125.15148" x2="253.10469" y2="139.40923" gradientUnits="userSpaceOnUse" id="color-18"><stop offset="0" stop-color="#d0d0d0" stop-opacity="0"/><stop offset="1" stop-color="#d0d0d0"/></linearGradient><linearGradient x1="294.68544" y1="129.15026" x2="294.68544" y2="140.76225" gradientUnits="userSpaceOnUse" id="color-19"><stop offset="0" stop-color="#d0d0d0" stop-opacity="0"/><stop offset="1" stop-color="#d0d0d0"/></linearGradient><radialGradient cx="279.87116" cy="112.70093" r="9.99513" gradientUnits="userSpaceOnUse" id="color-20"><stop offset="0" stop-color="#fff082"/><stop offset="1" stop-color="#fbbd53"/></radialGradient><linearGradient x1="279.87116" y1="115.78888" x2="279.87116" y2="120.78645" gradientUnits="userSpaceOnUse" id="color-21"><stop offset="0" stop-color="#d59527" stop-opacity="0"/><stop offset="1" stop-color="#d59527"/></linearGradient><linearGradient x1="279.40008" y1="107.93952" x2="279.40008" y2="112.64311" gradientUnits="userSpaceOnUse" id="color-22"><stop offset="0" stop-color="#d59527"/><stop offset="1" stop-color="#d59527" stop-opacity="0"/></linearGradient></defs><g transform="translate(-116.99762,70.04406)"><g data-paper-data="{&quot;isPaintingLayer&quot;:true}" fill-rule="nonzero" stroke-linejoin="miter" stroke-miterlimit="10" stroke-dasharray="" stroke-dashoffset="0" style="mix-blend-mode: normal"><g><g data-paper-data="{&quot;index&quot;:null}" stroke-linecap="butt"><path d="M330.68786,71.6283c6.80793,4.61183 17.50268,16.93813 7.56163,31.61302c-6.12451,9.04095 -18.65266,21.4962 -28.96146,25.09208c-6.42402,2.24081 -11.98621,-1.79207 -14.5999,-3.56263c-6.80793,-4.61183 -4.26804,-20.24679 5.67301,-34.92168c2.20026,-3.24801 4.57867,-6.17676 7.02241,-8.71846c8.59735,-8.94199 18.00318,-13.09341 23.30431,-9.50232z" fill="#ffe8e8" stroke="#6a0000" stroke-width="0.5"/><path d="M309.60451,106.09418c2.56135,-4.58661 -1.62388,-11.75844 0.7032,-17.23592c2.77248,-6.52586 13.33669,-15.55637 15.85208,-14.15167c3.26811,1.82505 7.79365,10.10999 7.41417,19.13779c-0.15775,3.75292 -2.2579,8.72896 -3.90608,11.68035c-5.61294,10.05108 -20.53111,17.42802 -25.1578,14.84429c-4.62669,-2.58373 -0.51852,-4.22375 5.09442,-14.27483z" fill="#e8b2b2" stroke="none" stroke-width="0"/><path d="M329.77461,79.6185c1.70425,0.20892 3.09622,5.38118 3.09622,8.32419c0,2.20793 -2.7939,16.27233 -6.56685,21.01628c-4.97021,6.24936 -13.38128,8.43081 -14.93944,8.43081c-2.16756,0 10.05646,-7.9344 13.18939,-15.44572c0.8288,-1.9871 -3.59428,-7.63712 -3.59428,-8.70751c0,-1.97533 -2.31573,-13.07052 -1.75135,-14.57413c0.50993,-1.35854 2.71602,-2.71313 4.54912,0.65658c1.39318,2.56102 2.43116,9.94716 3.15782,9.94716c0.61169,0 1.6842,-5.35209 2.11882,-7.89779c0.39269,-2.3001 0.14312,-1.82309 0.74054,-1.74986z" fill="#ffe8e8" stroke="#6a0000" stroke-width="0.5"/><path d="M318.51369,95.18452c1.66416,2.55042 3.93487,4.06871 3.93487,6.32369c0,4.38557 -8.47386,11.58031 -11.58031,11.58031c-1.97925,0 5.87539,-10.04576 4.8729,-12.22745c-0.57094,-1.2425 -5.53464,1.57675 -5.53464,-0.0146c0,-4.38558 0.20221,-12.24205 3.30866,-12.24205c1.50916,0 3.42615,4.17035 4.99851,6.58009z" fill="#ffe8e8" stroke="#6a0000" stroke-width="0.5"/></g><path d="M263.23185,214.91827c0,0 -11.07406,24.95559 -19.55811,24.95559c-7.49526,0 -15.33606,-19.20588 -15.33606,-19.20588c0,0 -10.10362,-16.61174 -10.10362,-28.45448c0,-2.96429 2.2656,-6.21705 3.52868,-12.39257c0.85357,-4.17331 0.88977,-11.47905 0.83192,-14.07066c-0.18263,-8.18167 -7.66926,-24.49015 -7.66926,-24.49015l62.20282,1.9852l-13.89638,71.67296z" data-paper-data="{&quot;index&quot;:null}" fill="#ffe8e8" stroke="#6a0000" stroke-width="0.5" stroke-linecap="butt"/><path d="M220.74429,141.51546c4.24763,-7.35224 16.24554,8.29919 24.62078,8.29919c13.15673,0 23.82236,11.99884 23.82236,26.80015c0,10.77688 -1.68381,37.93483 -9.83692,42.19062c-3.04464,1.58925 -10.40816,-15.39047 -13.98544,-15.39047c-3.48045,0 -6.78657,-0.83968 -9.76703,-2.34879c-8.28623,-4.19561 -14.05532,-13.56555 -14.05532,-24.45136c0,-5.37917 -3.22343,-30.90189 -0.79843,-35.09934z" data-paper-data="{&quot;index&quot;:null}" fill="url(#color-1)" stroke="none" stroke-width="0" stroke-linecap="butt"/><path d="M190.69601,87.47841c0,-23.1459 -3.03992,-44.25247 14.18791,-56.37801c10.4616,-7.36323 37.45581,-10.98081 51.07351,-10.98081c6.40354,0 29.6758,0.26458 35.52294,2.03878c27.064,8.21206 29.73848,34.72812 29.73848,65.32003c0,13.5538 4.77745,37.8573 -1.89654,48.42327c-5.72131,9.05774 -4.66014,9.28371 -12.46519,17.65857c-8.08,8.66988 -21.70614,20.52236 -33.35998,20.52236c-11.14979,0 -47.22656,-10.85572 -58.50414,-18.45801c-0.82181,-0.55399 -23.70769,-23.37522 -24.08393,-24.04279c-13.93918,-24.73256 -0.21307,-19.24888 -0.21307,-44.1034z" data-paper-data="{&quot;index&quot;:null}" fill="#ffe8e8" stroke="#6a0000" stroke-width="0.5" stroke-linecap="butt"/><path d="M210.95501,86.9501c0,-12.97399 12.2951,-23.49149 27.46188,-23.49149c15.16677,0 27.46188,10.5175 27.46188,23.49149c0,5.74453 2.22171,11.00746 -1.78115,15.08908c-5.03757,5.1367 -10.61206,6.41721 -19.06341,6.41721c-15.16678,0 -34.07921,-8.53231 -34.07921,-21.5063z" data-paper-data="{&quot;index&quot;:null}" fill="#f1c8c8" stroke="none" stroke-width="0" stroke-linecap="butt"/><path d="M301.61231,64.12033c10.23302,0 13.89638,8.16684 13.89638,21.5063c0,7.22663 2.82317,12.30944 -2.28121,17.26973c-4.31766,4.19578 -13.76378,7.7658 -18.45307,7.7658c-0.67873,0 -5.90644,-0.28053 -6.4417,-0.04352c-2.10889,0.93379 -0.63434,5.92068 -2.26497,4.07282c-4.19541,-4.7543 -7.61606,-20.09606 -7.61606,-29.06483c0,-13.33947 12.92762,-21.5063 23.16063,-21.5063z" data-paper-data="{&quot;index&quot;:null}" fill="#f1c8c8" stroke="none" stroke-width="0" stroke-linecap="butt"/><path d="M237.42428,83.9723c8.04022,0 25.14582,12.2464 25.14582,19.19023c0,6.94383 -17.1056,5.95559 -25.14582,5.95559c-8.04021,0 -25.80755,-11.58467 -25.80755,-18.5285c0,-6.94383 17.76733,-6.61732 25.80755,-6.61732z" data-paper-data="{&quot;index&quot;:null}" fill="#ffffff" stroke="#6a0000" stroke-width="0.5" stroke-linecap="butt"/><path d="M316.83215,89.92789c0,6.94383 -11.99872,18.5285 -17.42848,18.5285c-5.42977,0 -16.9816,0.98824 -16.9816,-5.95559c0,-6.94382 11.55184,-19.19023 16.9816,-19.19023c5.42977,0 17.42848,-0.32651 17.42848,6.61732z" data-paper-data="{&quot;index&quot;:null}" fill="#ffffff" stroke="#6a0000" stroke-width="0.5" stroke-linecap="butt"/><path d="M281.42948,74.70806c0,-2.27994 3.96316,-8.274 10.05654,-11.67743c1.7206,-0.96104 7.26486,-3.54242 8.47196,-3.54242c1.69418,0 4.45655,-0.21227 6.55063,1.40958c4.68189,3.6261 8.66921,11.12837 8.66921,13.14853c0,2.92372 -8.41441,-6.61732 -13.89638,-6.61732c-5.48196,0 -19.85196,10.20277 -19.85196,7.27905z" data-paper-data="{&quot;index&quot;:null}" fill="#322929" stroke="none" stroke-width="0" stroke-linecap="butt"/><path d="M263.89357,75.3919c0,2.80093 -21.97764,-6.97333 -30.36183,-6.97333c-8.38418,0 -21.25328,9.14032 -21.25328,6.33939c0,-1.93531 6.09826,-9.12248 13.2588,-12.5963c3.20271,-1.55373 7.42752,-1.35037 10.01861,-1.35037c1.84614,0 10.32561,2.47296 12.95711,3.39363c9.31929,3.26049 15.38059,9.00281 15.38059,11.18698z" data-paper-data="{&quot;index&quot;:null}" fill="#322929" stroke="none" stroke-width="0" stroke-linecap="butt"/><g data-paper-data="{&quot;index&quot;:null}" stroke="none" stroke-width="0" stroke-linecap="butt"><path d="M229.55209,96.30892c0.83637,-6.9085 6.66836,-12.05925 13.02611,-11.50455c6.35775,0.55471 10.83371,6.60482 9.99734,13.51332c-0.83638,6.9085 -6.66837,12.05926 -13.02612,11.50456c-6.35774,-0.55471 -10.8337,-6.60482 -9.99733,-13.51332z" fill="#322929"/><path d="M240.40208,95.22175c5.66471,0 10.25685,2.96268 10.25685,6.61732c0,3.65464 -4.59214,6.61732 -10.25685,6.61732c-5.6647,0 -10.25685,-2.96268 -10.25685,-6.61732c0,-3.65464 4.59215,-6.61732 10.25685,-6.61732z" fill="url(#color-2)"/></g><g data-paper-data="{&quot;index&quot;:null}" stroke="none" stroke-width="0" stroke-linecap="butt"><path d="M294.76874,86.12551c5.99545,0.5231 10.21634,6.22844 9.42763,12.74325c-0.78871,6.51481 -6.28836,11.37205 -12.28381,10.84896c-5.99545,-0.52309 -10.21634,-6.22844 -9.42763,-12.74325c0.78871,-6.51481 6.28836,-11.37205 12.28381,-10.84896z" fill="#322929"/><path d="M292.84066,95.29521c5.66471,0 10.25685,2.96268 10.25685,6.61732c0,3.65464 -4.59214,6.61732 -10.25685,6.61732c-5.66471,0 -10.25685,-2.96268 -10.25685,-6.61732c0,-3.65464 4.59214,-6.61732 10.25685,-6.61732z" fill="url(#color-3)"/></g><path d="M295.35546,92.89828c3.47191,0 6.28646,2.81455 6.28646,6.28646c0,3.47191 -2.81455,6.28646 -6.28646,6.28646c-3.47191,0 -6.28646,-2.81455 -6.28646,-6.28646c0,-3.47191 2.81455,-6.28646 6.28646,-6.28646z" data-paper-data="{&quot;index&quot;:null}" fill="#06040b" stroke="none" stroke-width="0" stroke-linecap="butt"/><path d="M244.31382,92.57481c3.47191,0 6.28646,2.81455 6.28646,6.28646c0,3.47191 -2.81455,6.28646 -6.28646,6.28646c-3.47192,0 -6.28646,-2.81455 -6.28646,-6.28646c0,-3.47191 2.81454,-6.28646 6.28646,-6.28646z" data-paper-data="{&quot;index&quot;:null}" fill="#06040b" stroke="none" stroke-width="0" stroke-linecap="butt"/><g data-paper-data="{&quot;index&quot;:null}" stroke="none" stroke-width="0" stroke-linecap="butt"><path d="M296.54804,90.02243c3.19782,0 5.79016,2.64524 5.79016,5.90832c0,3.26307 -2.59235,5.90832 -5.79016,5.90832c-3.19782,0 -5.79016,-2.64524 -5.79016,-5.90832c0,-3.26307 2.59235,-5.90832 5.79016,-5.90832z" fill="url(#color-4)"/><path d="M295.6027,94.04008c1.50102,0 2.71783,1.11101 2.71783,2.4815c0,1.3705 -1.21681,2.4815 -2.71783,2.4815c-1.50102,0 -2.71783,-1.11101 -2.71783,-2.4815c0,-1.3705 1.21682,-2.4815 2.71783,-2.4815z" fill="#ffffff"/></g><g data-paper-data="{&quot;index&quot;:null}" stroke="none" stroke-width="0" stroke-linecap="butt"><path d="M245.92306,91.02243c3.19782,0 5.79016,2.64524 5.79016,5.90832c0,3.26307 -2.59235,5.90832 -5.79016,5.90832c-3.19782,0 -5.79016,-2.64524 -5.79016,-5.90832c0,-3.26307 2.59235,-5.90832 5.79016,-5.90832z" fill="url(#color-5)"/><path d="M244.97773,95.04008c1.50102,0 2.71783,1.11101 2.71783,2.4815c0,1.3705 -1.21682,2.4815 -2.71783,2.4815c-1.50101,0 -2.71783,-1.11101 -2.71783,-2.4815c0,-1.3705 1.21682,-2.4815 2.71783,-2.4815z" fill="#ffffff"/></g><g data-paper-data="{&quot;index&quot;:null}" stroke-linecap="butt"><path d="M210.01731,89.80755c0,-1.03812 7.02802,-4.86015 12.86427,-6.19832c4.09443,-0.9388 9.57368,-0.08814 12.61242,-0.08814c3.52224,0 12.13665,1.62182 18.09873,6.7327c6.51345,5.58351 10.24547,14.73366 10.24547,15.6559c0,1.02222 -6.3623,-8.90578 -13.70913,-13.73539c-5.3486,-3.51602 -12.63289,-5.56513 -15.73796,-5.56513c-0.3537,0 -4.16083,0.27762 -5.99599,0.39857c-0.48994,0.03229 -0.83932,0.05342 -0.94492,0.05511c-7.74055,0.1242 -17.43289,4.4037 -17.43289,2.74469z" fill="#000000" stroke="none" stroke-width="0"/><path d="M210.85925,89.64836c1.91553,-5.98542 15.00202,-10.39281 28.68532,-7.93952c13.68329,2.45328 24.76699,16.1321 22.85146,22.11751c-1.0674,3.33528 -0.8095,-3.49563 -5.08338,-8.27901c-1.92441,-2.15382 -8.64066,-6.93443 -13.09962,-8.5768c-3.40956,-1.25585 -6.25624,-1.78329 -8.88148,-2.25397c-9.0787,-1.62773 -17.72653,1.72522 -21.95917,3.75404c-2.14674,1.029 -3.15773,3.19191 -2.51313,1.17774z" fill="#ffe8e8" stroke="#6a0000" stroke-width="0.5"/></g><g data-paper-data="{&quot;index&quot;:null}" stroke-linecap="butt"><path d="M308.73928,82.12545c3.94665,1.25542 8.6992,4.84106 8.6992,5.81498c0,1.55641 -6.55425,-2.45843 -11.78863,-2.57494c-0.07141,-0.00159 -0.30767,-0.02142 -0.63898,-0.05171c-1.24097,-0.11347 -3.81548,-0.37392 -4.05466,-0.37392c-2.09974,0 -7.02559,1.92237 -10.64247,5.22095c-4.96814,4.53092 -9.27051,13.84491 -9.27051,12.88591c0,-0.8652 2.52369,-9.44945 6.92828,-14.68765c4.03174,-4.79478 9.85706,-6.31631 12.2389,-6.31631c2.05489,0 5.76012,-0.79806 8.52889,0.08268z" fill="#000000" stroke="none" stroke-width="0"/><path d="M316.86915,87.79107c0.4359,1.88961 -0.24776,-0.13954 -1.69945,-1.10489c-2.86225,-1.90335 -8.71016,-5.04892 -14.84944,-3.52187c-1.77527,0.44157 -3.70027,0.93639 -6.00592,2.11457c-3.01528,1.5408 -7.55702,6.02574 -8.85836,8.04636c-2.89013,4.48754 -2.71572,10.89599 -3.43753,7.76698c-1.29534,-5.61524 6.19979,-18.44808 15.45284,-20.74964c9.25305,-2.30156 18.10253,1.83325 19.39786,7.44849z" fill="#ffe8e8" stroke="#6a0000" stroke-width="0.5"/></g><path d="M271.1691,118.0121c1.97789,0.12798 5.59372,-3.16903 7.22719,-3.16903c1.83431,0 5.0152,2.21568 6.32247,1.68142c1.28461,-0.52501 0.70691,-3.81158 1.22958,-2.53486c0.25243,0.61661 0.60932,6.56785 0.60932,7.25018c0,3.53283 -3.65397,6.39675 -8.16137,6.39675c-1.56352,0 -6.25517,-2.04968 -8.25914,-3.722c-3.77317,-3.14873 -4.75492,-7.20528 -4.75492,-9.51264c0,-2.25254 2.30695,3.385 5.78687,3.61018z" data-paper-data="{&quot;index&quot;:null}" fill="#f1c8c8" stroke="none" stroke-width="0" stroke-linecap="butt"/><path d="M277.2934,120.24722c0,-2.61916 1.82699,-4.74241 4.08068,-4.74241c1.28733,0 3.09717,-1.73359 3.84507,-0.65134c0.56144,0.81242 0.23562,4.27067 0.23562,5.39375c0,1.2148 -0.52128,4.29404 -1.77825,5.59107c-1.4531,1.49942 -3.74096,1.13654 -4.94936,1.13654c-2.2537,0 -1.43375,-4.10845 -1.43375,-6.72761z" data-paper-data="{&quot;index&quot;:null}" fill="url(#color-6)" stroke="none" stroke-width="0" stroke-linecap="butt"/><path d="M279.16832,117.49c2.49734,0 4.52183,1.13569 4.52183,2.53664c0,0.78981 -0.42287,1.2833 -1.43174,2.91067c-0.78065,1.25923 -2.00067,3.81694 -3.09009,3.81694c-0.33558,0 -0.64437,-0.15093 -0.93311,-0.39884c-0.71511,-0.614 -1.30721,-1.82288 -1.87859,-2.80717c-0.9148,-1.57589 -1.71014,-2.77514 -1.71014,-3.5216c0,-1.40094 2.0245,-2.53664 4.52184,-2.53664z" data-paper-data="{&quot;index&quot;:null}" fill="url(#color-7)" stroke="none" stroke-width="0" stroke-linecap="butt"/><path d="M270.23493,122.34271c0,-0.24365 0.64191,-0.44116 1.43375,-0.44116c0.79184,0 1.43375,0.19752 1.43375,0.44116c0,0.24364 -0.64191,0.44115 -1.43375,0.44115c-0.79184,0 -1.43375,-0.19751 -1.43375,-0.44115z" data-paper-data="{&quot;index&quot;:null}" fill="url(#color-8)" stroke="none" stroke-width="0" stroke-linecap="butt"/><path d="M272.67302,120.13953c1.64232,-0.08644 3.01779,0.68175 3.07222,1.71581c0.05443,1.03404 -1.23282,1.94238 -2.87513,2.02882c-1.64232,0.08643 -3.01779,-0.68175 -3.07222,-1.71581c-0.05443,-1.03404 1.23282,-1.94238 2.87513,-2.02882z" data-paper-data="{&quot;index&quot;:null}" fill="url(#color-9)" stroke="none" stroke-width="0" stroke-linecap="butt"/><path d="M284.35188,119.91635c0.97457,0 1.76462,0.6913 1.76462,1.54405c0,0.85276 -0.79005,1.54405 -1.76462,1.54405c-0.97456,0 -1.76461,-0.6913 -1.76461,-1.54405c0,-0.85276 0.79004,-1.54405 1.76461,-1.54405z" data-paper-data="{&quot;index&quot;:null}" fill="url(#color-10)" stroke="none" stroke-width="0" stroke-linecap="butt"/><path d="M246.85371,133.81274c0,-0.84191 7.73852,2.86543 18.09182,2.68932c1.63137,-0.02775 11.93017,-1.14528 13.67133,-1.14528c5.30608,0 4.98463,0.59358 9.24529,0.06707c6.01043,-0.74273 11.48899,-2.62257 11.48899,-2.05227c0,0.31761 -3.07285,1.12133 -4.68461,2.35794c-3.33376,2.55781 -7.64769,6.24457 -16.27024,6.24457c-12.79125,0 -31.54256,-7.18679 -31.54256,-8.16136z" data-paper-data="{&quot;index&quot;:null}" fill="#d66464" stroke="#6a0000" stroke-width="0.5" stroke-linecap="butt"/><path d="M192.91065,106.61068c0,-3.10645 34.47556,21.85306 43.52081,21.85306c9.04525,0 27.29645,-10.05464 27.29645,-6.94819c0,1.26608 -4.41565,8.15804 -6.73169,13.13551c-0.84528,1.81661 -1.7421,5.5762 -2.20052,8.70182c-1.36739,9.32314 -2.69721,24.09439 -6.71047,24.09439c-2.49149,0 -16.18114,-3.46914 -26.64422,-8.96606c-6.86928,-3.60886 -10.92538,-8.94521 -14.50129,-11.75222c-3.59851,-2.82475 -7.52788,-5.69319 -10.54084,-11.70063c-5.98904,-11.94133 -3.48824,-27.29398 -3.48824,-28.41769z" data-paper-data="{&quot;index&quot;:null}" fill="url(#color-11)" stroke="none" stroke-width="0" stroke-linecap="butt"/><path d="M269.99675,153.96927c3.36266,0.97535 7.84127,0.96041 10.04895,0.96041c5.90834,0 12.6832,-8.85949 12.6832,-6.72761c0,2.13188 -9.42178,12.24205 -15.33013,12.24205c-5.90835,0 -17.5359,-7.46324 -17.5359,-9.59512c0,-1.33529 4.49713,1.48533 10.13388,3.12027z" data-paper-data="{&quot;index&quot;:null}" fill="#f1c8c8" stroke="none" stroke-width="0" stroke-linecap="butt"/><path d="M297.37464,131.32171c1.9265,-2.92081 1.93779,0.79761 6.206,1.19821c2.5164,0.23618 9.82232,-2.69558 10.95674,-3.39392c1.13269,-0.69727 3.52251,-7.5543 4.4736,-7.74225c1.00901,-0.19939 2.55003,-11.5623 3.24115,-11.10646c2.20534,1.45459 1.56636,12.30827 -0.92801,21.1474c-1.01377,3.59242 -2.334,6.48378 -3.89432,8.84943c-2.44164,3.70186 -8.71647,11.51392 -15.62859,18.04776c-8.3734,7.91516 -17.47579,14.2639 -19.17487,13.14323c-3.10164,-2.04576 9.34883,-31.95708 14.74831,-40.14339z" data-paper-data="{&quot;index&quot;:null}" fill="url(#color-12)" stroke="none" stroke-width="0" stroke-linecap="butt"/><path d="M229.86927,155.87046c0,-2.68007 34.24468,4.63213 43.56403,4.63213c5.78984,0 17.86429,-5.98775 22.83815,-5.87068c3.0321,0.07137 0.65334,5.73797 0.65334,6.75299c0,2.05176 -8.16146,8.734 -16.47989,11.4441c-2.54735,0.82991 -5.7091,0.68766 -7.89391,0.68766c-4.52476,0 -13.61436,-1.98397 -22.90432,-5.92087c-9.84395,-4.17166 -19.7774,-10.34648 -19.7774,-11.72532z" data-paper-data="{&quot;index&quot;:null}" fill="url(#color-13)" stroke="none" stroke-width="0" stroke-linecap="butt"/><path d="M201.08392,119.03406c0,-3.47191 18.59147,0.66173 33.36233,0.66173c14.77085,0 30.38453,-3.47191 30.38453,0c0,0.94082 -0.89132,5.30974 -3.51825,8.56069c-1.44132,1.7837 -4.46184,5.08438 -5.23655,6.0611c-3.02393,3.81244 -6.44027,6.22277 -15.01241,6.22277c-14.77086,0 -39.97965,-18.03439 -39.97965,-21.5063z" data-paper-data="{&quot;index&quot;:null}" fill="url(#color-14)" stroke="none" stroke-width="0" stroke-linecap="butt"/><path d="M289.04285,122.10381c0,-6.2129 13.7526,-6.28646 20.5137,-6.28646c3.79684,0 9.17516,-8.00678 11.42062,-5.51374c0.96174,1.06778 1.44634,5.18928 1.38917,9.14234c-0.04704,3.25266 -0.89861,10.03081 -0.89861,11.26038c0,3.80312 -4.86417,10.46945 -9.9316,17.12192c-3.21089,4.21522 -5.9745,6.36957 -8.5969,6.36957c-2.481,0 2.70247,-15.03426 0.00907,-19.52653c-0.61281,-1.02209 -4.2001,0.02429 -4.80228,-0.74046c-3.96375,-5.03383 -9.10316,-8.41267 -9.10316,-11.82702z" data-paper-data="{&quot;index&quot;:null}" fill="url(#color-15)" stroke="none" stroke-width="0" stroke-linecap="butt"/><path d="M306.8042,125.84001c0,2.39269 -0.12503,5.36944 -2.67508,9.193c-0.89151,1.33675 -0.32388,4.97143 -2.56629,5.70162c-3.78593,1.23281 -9.68615,5.70822 -14.85097,8.16606c-2.88315,1.37204 -5.07821,1.4119 -7.65474,1.6039c-1.45257,0.10824 -5.93787,0.55424 -7.9208,0.15967c-4.46701,-0.88888 1.14892,-0.51748 -2.67872,-0.91731c-7.5187,-0.7854 -17.52054,-5.38725 -23.06478,-8.08944c-5.55342,-2.70666 -14.8944,-8.01414 -16.57752,-9.37347c-1.33839,-1.08091 -3.35201,-7.24277 -3.35201,-8.46683c0,-5.42985 29.69116,4.58808 47.47076,4.58808c17.77961,0 33.87016,-12.76402 33.87016,-7.33417z" fill="#1f1f1f" stroke="none" stroke-width="0" stroke-linecap="butt"/><path d="M281.80805,149.64666c0,0 -6.73141,0.66141 -10.22824,0.0322c-3.24936,-0.58468 -13.06488,-3.68367 -13.06488,-3.68367l-11.0731,-6.14317c0,0 4.84178,0.16389 13.9406,1.15975c3.94138,0.43139 16.12825,-4.98199 17.29842,-4.98199c1.52345,0 5.86175,4.39779 10.41502,3.8132c4.49557,-0.57718 9.7997,-1.06462 9.7997,-1.06462c0,0 -1.65365,1.99816 -3.61867,3.26327c-2.48559,1.60025 -5.71937,3.37762 -6.48469,4.35217c-0.51317,0.65346 -6.98418,3.25288 -6.98418,3.25288z" data-paper-data="{&quot;index&quot;:null}" fill="url(#color-16)" stroke="#6a0000" stroke-width="0.5" stroke-linecap="butt"/><path d="M263.07854,149.29775l-4.33333,-11.33333c0,0 2.18588,-2.08055 3.28428,-2.1283c1.38853,-0.06037 4.38239,1.79497 4.38239,1.79497l-2.66667,11.66667z" fill="#ffffff" stroke="#6a0000" stroke-width="0.5" stroke-linecap="butt"/><path d="M152.83412,54.21511c0,-4.16059 3.98232,-41.25362 17.87772,-55.5353c10.82107,-11.12188 48.27578,-23.44184 58.916,-23.44184c24.3034,0 62.87946,13.95313 62.87946,21.35378c0,0.09297 7.92229,4.55917 10.77862,8.0854c6.893,8.50962 13.04012,21.13062 15.39489,23.02112c8.62465,6.92417 4.19144,36.91175 3.80655,37.90311c-2.13684,5.50388 -4.09557,-32.893 -22.65298,-40.67149c-3.18974,-1.33701 -11.32792,4.65855 -18.2918,7.58445c-8.12975,3.41574 -15.13933,3.96861 -18.14555,3.96861c-9.56956,0 -27.98339,-21.04557 -41.34927,-11.59273c-1.89721,1.34178 -16.51968,7.75677 -19.69661,13.80001c-4.72659,8.99104 -11.14888,28.98783 -9.95363,48.81363c0.92933,15.41499 9.86572,31.64251 5.89464,36.61962c-9.22258,11.55903 -28.10487,-20.62394 -30.63441,-22.55091c-18.05683,-13.75546 -14.82364,-44.15103 -14.82364,-47.35747z" data-paper-data="{&quot;index&quot;:null}" fill="#322929" stroke="none" stroke-width="0" stroke-linecap="butt"/><path d="M162.80082,-40.4411c10.12053,-0.79614 34.74466,17.24404 35.32562,24.62929c0.58096,7.38525 -19.8404,-7.90754 -29.96093,-7.1114c-10.12054,0.79613 -22.05665,4.68107 -22.63761,-2.70419c-0.58096,-7.38525 7.15239,-14.01756 17.27292,-14.8137z" data-paper-data="{&quot;index&quot;:null}" fill="#322929" stroke="none" stroke-width="0" stroke-linecap="butt"/><g data-paper-data="{&quot;index&quot;:null}" fill="#322929" stroke="none" stroke-width="0" stroke-linecap="butt"><path d="M142.70153,-7.81278c0.01676,-0.12557 -20.82261,3.23161 -24.59845,2.18744c-2.64606,-0.73174 -0.47129,-3.81267 5.76704,-4.95886c2.33644,-0.42929 12.19851,1.39934 12.51534,0.84687c0.34531,-0.60215 -15.20844,-0.31837 -17.14047,-0.9832c-4.81805,-1.65794 0.43684,-4.1922 1.38859,-4.27594c4.25089,-0.37403 22.68105,4.04847 21.5365,2.84168c-1.43012,-1.50791 -23.67381,-5.69512 -21.61189,-6.07178c3.42735,-0.62609 24.92115,4.84205 24.25944,3.72817c-1.11983,-1.88505 -25.2898,-6.98368 -20.3196,-6.32022c12.40285,1.65563 47.76063,14.19865 47.29218,17.70801c-0.46846,3.50936 -10.30341,2.42381 -22.70626,0.76819c-4.03819,-0.53905 -26.06936,3.80903 -29.27323,2.84405c-3.28379,-0.98905 22.13172,-3.90723 24.64316,-5.74318c1.25328,-0.91619 -20.80069,2.20313 -25.41362,1.63c-4.82474,-0.59945 23.57969,-3.58999 23.66129,-4.20124z"/><path d="M150.79995,6.47556c-0.0796,-0.1147 -13.78327,12.30394 -17.48511,13.14574c-2.59421,0.58992 -3.17826,-3.03321 0.81981,-6.87112c1.4974,-1.43741 10.50333,-4.40196 10.3418,-5.01811c-0.17605,-0.67155 -12.04291,6.70367 -14.03337,7.02314c-4.96378,0.7967 -2.75313,-3.77316 -2.07595,-4.28103c3.02457,-2.26834 20.59622,-6.95179 18.8174,-7.45537c-2.22264,-0.62922 -22.58162,6.00375 -21.25854,4.73709c2.19923,-2.10545 22.92082,-7.30283 21.58543,-7.94866c-2.25992,-1.09297 -24.78677,5.6467 -20.43844,3.93267c10.851,-4.27726 47.55545,-9.80343 49.78035,-6.59771c2.2249,3.20572 -6.21186,6.79112 -17.06286,11.06838c-3.53294,1.39262 -17.43101,15.20235 -20.63035,15.84932c-3.27914,0.66312 14.30134,-13.48013 14.89701,-16.19664c0.29727,-1.35562 -14.52489,11.41737 -18.5292,13.04452c-4.18819,1.70188 15.65956,-13.87385 15.27204,-14.43221z"/></g><g data-paper-data="{&quot;index&quot;:null}" fill="#322929" stroke="none" stroke-width="0" stroke-linecap="butt"><path d="M246.43971,-58.25272c0.57714,3.38764 -6.31833,20.97176 -6.17697,20.97261c0.6881,0.00412 8.33441,-24.15679 8.25969,-19.91773c-0.07145,4.05294 -6.88962,22.71484 -5.68539,21.74447c2.41314,-1.94451 9.52269,-23.53346 10.11409,-20.5774c0.57701,2.88412 -7.59587,21.37639 -7.61715,24.92893c-0.06538,10.91121 -0.36846,19.53562 -4.31907,19.51195c-3.95062,-0.02367 -12.4115,-32.08359 -12.34612,-42.9948c0.02619,-4.37245 1.96824,17.11913 3.88072,18.31602c1.13008,0.70725 -1.62936,-18.51867 -0.41357,-21.40163c0.73143,-1.73442 1.96044,17.98273 3.40862,19.40154c1.159,1.13549 -0.91286,-15.31756 0.15019,-18.94236c0.23801,-0.81157 3.84226,-5.0397 4.93855,-0.67728c0.43962,1.74932 -2.25097,15.14455 -1.53263,14.91986c0.65907,-0.20616 0.14494,-8.94466 0.9765,-10.90967c2.22028,-5.24663 5.95806,-6.74855 6.36252,-4.37453z"/><path d="M272.02104,-42.03798c-1.49619,3.09365 -17.31714,13.41091 -17.20252,13.49365c0.55796,0.40273 20.80748,-14.83446 18.28631,-11.42582c-2.41049,3.25899 -18.79403,14.49879 -17.25019,14.40752c3.09369,-0.18291 21.41335,-13.6372 20.17927,-10.88673c-1.20404,2.68353 -18.59232,12.99895 -20.67153,15.87955c-6.38606,8.84744 -11.63843,15.6947 -14.84181,13.38251c-3.20338,-2.31219 8.51404,-33.33037 14.90009,-42.17781c2.55909,-3.54543 -8.33304,15.08306 -7.47031,17.16773c0.50978,1.23183 9.42129,-16.02608 12.08461,-17.66813c1.60228,-0.98787 -8.84062,15.78181 -8.48479,17.77771c0.28478,1.59735 8.14686,-13.00345 11.11635,-15.33826c0.66485,-0.52274 6.0539,-1.87398 4.41473,2.31478c-0.6573,1.67967 -10.62288,11.02628 -9.90749,11.26023c0.65637,0.21465 5.30947,-7.19981 7.12712,-8.31736c4.85317,-2.98388 8.76869,-2.03755 7.72018,0.13044z"/></g><g data-paper-data="{&quot;index&quot;:null}" fill="#322929" stroke="none" stroke-width="0" stroke-linecap="butt"><path d="M227.81017,-48.02539c0.1314,-0.05212 -12.67913,-13.93158 -13.37164,-17.29752c-0.48531,-2.35882 3.54272,-2.31686 7.51677,1.76526c1.48839,1.52888 4.18282,9.85748 4.87178,9.81021c0.75091,-0.05153 -6.6206,-11.55512 -6.84628,-13.34466c-0.56281,-4.46272 4.33086,-1.83217 4.84735,-1.16244c2.30686,2.99126 6.35152,19.07345 7.01903,17.59457c0.83406,-1.84787 -5.18131,-20.6652 -3.86994,-19.31482c2.17977,2.24459 6.59079,21.16003 7.38687,20.09066c1.34724,-1.80972 -4.64816,-22.53928 -3.03586,-18.47486c4.02342,10.14253 7.78305,43.08627 4.11075,44.54303c-3.6723,1.45675 -7.08672,-6.46878 -11.11014,-16.61131c-1.30997,-3.30226 -15.6405,-17.56397 -16.15027,-20.46072c-0.52249,-2.969 13.94189,14.56409 16.89644,15.49949c1.47441,0.4668 -11.65551,-14.44492 -13.19394,-18.19521c-1.60908,-3.92251 14.28945,15.81203 14.92908,15.5583z"/><path d="M217.42059,-34.59992c0.07675,-0.11871 -18.41088,-3.98606 -20.9284,-6.32514c-1.76425,-1.63921 1.54028,-3.94289 7.14573,-2.92519c2.0994,0.38116 9.12745,5.5996 9.66106,5.16124c0.58158,-0.47777 -12.09792,-5.56717 -13.32034,-6.89347c-3.04845,-3.3075 2.46338,-4.0056 3.27269,-3.75999c3.61466,1.097 16.24239,11.84578 15.92764,10.25406c-0.3933,-1.98886 -16.2133,-13.82118 -14.36165,-13.48263c3.07781,0.56273 17.64828,13.4061 17.67591,12.07323c0.04676,-2.25565 -16.86684,-15.65675 -13.19491,-13.28273c9.16308,5.92424 31.34505,30.56943 29.20007,33.8871c-2.14498,3.31767 -9.5254,-1.15467 -18.68849,-7.07891c-2.98337,-1.92885 -22.93064,-5.22528 -25.02703,-7.28834c-2.14868,-2.11452 19.80629,3.76825 22.75519,2.81517c1.47159,-0.47562 -17.87524,-4.99821 -21.30469,-7.15931c-3.58692,-2.26034 20.81362,4.58276 21.18723,4.0049z"/></g><g data-paper-data="{&quot;index&quot;:null}" fill="#322929" stroke="none" stroke-width="0" stroke-linecap="butt"><path d="M145.75978,21.7295c-0.09946,-0.10045 -7.84631,17.12556 -10.6714,19.0821c-1.9798,1.37113 -3.52019,-2.35097 -1.32262,-7.60715c0.82305,-1.96859 7.42885,-7.7122 7.11529,-8.32749c-0.34175,-0.6706 -8.03501,10.62035 -9.59285,11.52947c-3.88492,2.26716 -3.38323,-3.26601 -2.96957,-4.0037c1.84757,-3.2948 15.05708,-13.32 13.4349,-13.35436c-2.02693,-0.04294 -16.98016,12.86741 -16.25192,11.13165c1.21048,-2.88519 16.88287,-14.35806 15.58703,-14.67124c-2.193,-0.53 -18.91325,13.11158 -15.80615,10.03506c7.75358,-7.67729 36.58687,-24.05002 39.36658,-21.24269c2.77971,2.80732 -3.17303,9.05529 -10.92661,16.73259c-2.52446,2.49962 -10.02712,21.27382 -12.4922,22.87832c-2.52657,1.64453 7.9332,-18.53519 7.63554,-21.61995c-0.14854,-1.53939 -8.71983,16.38508 -11.5669,19.27051c-2.97781,3.01792 8.94501,-19.34414 8.46085,-19.83311z"/><path d="M162.18345,26.02474c-0.1393,-0.02407 3.55005,18.49989 2.38506,21.73284c-0.81641,2.26562 -4.2311,0.12863 -5.4922,-5.42713c-0.47233,-2.08079 1.57345,-10.59198 0.961,-10.91104c-0.66752,-0.34775 -0.3792,13.31199 -1.12015,14.95648c-1.84779,4.101 -4.65066,-0.69603 -4.74196,-1.53684c-0.40775,-3.75539 4.53065,-19.58599 3.18971,-18.67247c-1.67552,1.14146 -6.35936,20.33358 -6.77376,18.49743c-0.68882,-3.05207 5.41498,-21.49101 4.17796,-20.99394c-2.09344,0.8412 -7.79181,21.65437 -7.0472,17.34571c1.85815,-10.75204 15.83547,-40.81962 19.72845,-40.14684c3.89298,0.67278 2.67172,9.21567 0.81358,19.9677c-0.60499,3.50071 4.18177,23.1437 3.10562,25.88103c-1.103,2.80561 -4.29744,-19.69825 -6.33022,-22.03752c-1.01442,-1.16737 2.40895,18.40389 1.76517,22.40602c-0.67335,4.1859 -3.94301,-20.94425 -4.62107,-21.06143z"/></g><path d="M290.74521,146.96441l-4.33334,-11.33334c0,0 2.18588,-2.08055 3.28428,-2.1283c1.38853,-0.06037 4.38239,1.79496 4.38239,1.79496l-2.66667,11.66667z" fill="#ffffff" stroke="#6a0000" stroke-width="0.5" stroke-linecap="butt"/><g data-paper-data="{&quot;index&quot;:null}" stroke-linecap="butt"><path d="M149.32911,117.46859c-9.94105,-14.67488 0.75371,-27.00119 7.56164,-31.61302c5.30113,-3.59109 14.70696,0.56033 23.30431,9.50232c2.44373,2.54169 4.82214,5.47044 7.02241,8.71845c9.94105,14.67488 12.48093,30.30985 5.673,34.92168c-2.61369,1.77055 -8.17588,5.80343 -14.5999,3.56263c-10.30881,-3.59588 -22.83696,-16.05114 -28.96147,-25.09208z" fill="#ffe8e8" stroke="#6a0000" stroke-width="0.5"/><path d="M177.27091,103.08552c2.32708,5.47748 -1.85815,12.64932 0.7032,17.23592c5.61294,10.05107 9.72112,11.6911 5.09443,14.27483c-4.62669,2.58373 -19.54487,-4.79321 -25.15781,-14.84429c-1.64818,-2.95139 -3.74833,-7.92744 -3.90609,-11.68035c-0.37949,-9.0278 4.14606,-17.31274 7.41417,-19.13779c2.51539,-1.4047 13.07961,7.62581 15.85209,14.15167z" fill="#e8b2b2" stroke="none" stroke-width="0"/><path d="M154.70778,102.16994c0,-2.94302 1.39198,-8.11527 3.09623,-8.32419c0.59742,-0.07323 0.34785,-0.55024 0.74054,1.74986c0.43462,2.54569 1.50712,7.89779 2.11881,7.89779c0.72666,0 1.76464,-7.38614 3.15782,-9.94716c1.8331,-3.3697 4.03919,-2.01512 4.54912,-0.65658c0.56439,1.5036 -1.75135,12.59879 -1.75135,14.57413c0,1.07039 -4.42309,6.72041 -3.59428,8.70751c3.13293,7.51133 15.35695,15.44572 13.18939,15.44572c-1.55816,0 -9.96923,-2.18146 -14.93944,-8.43081c-3.77294,-4.74396 -6.56685,-18.80835 -6.56685,-21.01628z" fill="#ffe8e8" stroke="#6a0000" stroke-width="0.5"/><path d="M165.13005,115.73543c0,-2.25499 2.2707,-3.77328 3.93486,-6.3237c1.57236,-2.40974 3.48935,-6.58008 4.99852,-6.58008c3.10645,0 3.30866,7.85647 3.30866,12.24205c0,1.59134 -4.9637,-1.2279 -5.53463,0.0146c-1.00249,2.1817 6.85215,12.22745 4.8729,12.22745c-3.10645,0 -11.58031,-7.19473 -11.58031,-11.58031z" fill="#ffe8e8" stroke="#6a0000" stroke-width="0.5"/></g><g><path d="M308.11796,125.37196c0,7.6308 -4.03025,13.81679 -11.8738,13.81679c-4.83332,0 -11.71091,0.46991 -15.25982,-2.89842c-0.48967,-0.46476 -0.22638,-9.19749 -0.59537,-9.73691c-1.29657,-1.89542 -0.675,1.09831 -0.675,-1.18146c0,-7.6308 6.35845,-13.81679 14.20199,-13.81679c7.84354,0 14.20199,6.18599 14.20199,13.81679z" fill="#ffffff" stroke="#004141" stroke-width="0.5" stroke-linecap="butt"/><path d="M278.24623,127.1358c0,3.81189 0.88425,7.41105 -2.37124,9.47029c-3.26148,2.06304 -11.07473,3.46458 -17.91548,3.46458c-13.66893,0 -34.48742,-7.36189 -34.48742,-14.99269c0,-7.6308 20.81849,-12.6409 34.48742,-12.6409c10.03554,0 17.05311,-1.36916 20.93756,3.4234c1.40637,1.73515 -0.65083,9.24694 -0.65083,11.27531z" fill="#ffffff" stroke="#004141" stroke-width="0.5" stroke-linecap="butt"/><path d="M264.40666,114.62243l0.79795,-4.00217c0,0 15.97881,-1.29311 20.29077,-1.20798c3.35095,0.06616 3.43262,1.67636 3.43262,1.67636l2.18588,2.85811c0,0 3.07718,2.11469 -1.29318,4.94838c-0.54825,0.35547 -0.97705,2.60351 -2.63945,4.5237c-0.54372,0.62804 -2.51711,1.52966 -3.30794,2.65919c-2.43794,3.48209 -4.26682,8.42159 -4.699,8.43148c-1.48838,0.03409 1.38857,2.99225 0.44324,0.33604c-0.34915,-0.98105 -1.18167,-8.03829 -1.74085,-8.86426c-1.22744,-1.81304 -3.81535,-4.31331 -6.43427,-5.6016c-2.16493,-1.06496 -4.53575,-4.00727 -4.53575,-4.00727z" fill="url(#color-17)" stroke="none" stroke-width="0" stroke-linecap="butt"/><path d="M278.74345,129.19363c0,1.30149 -2.16512,6.11004 -5.11903,7.62217c-2.36774,1.21206 -6.79503,2.15559 -9.247,2.43347c-3.74286,0.42417 -11.85705,0.15997 -14.62676,0.15997c-6.84781,0 -22.2847,-6.57241 -22.2847,-10.50958c0,-3.93717 16.6894,-10.06862 23.5372,-10.06862c6.84781,0 27.74029,6.42543 27.74029,10.3626z" fill="url(#color-18)" stroke="none" stroke-width="0" stroke-linecap="butt"/><path d="M306.07381,133.26067c0,1.74909 -1.8237,3.572 -4.68431,4.56475c-2.38368,0.82724 -5.58923,0.97618 -8.10904,0.97618c-5.54376,0 -11.7069,-0.62033 -11.7069,-3.82689c0,-0.90866 0.67354,-2.0253 1.51726,-3.97531c0.48102,-1.11173 1.15611,-2.30176 1.95885,-3.47829c2.75801,-4.04224 7.02277,-7.92503 10.09994,-7.92503c3.01988,0 10.73611,0.82977 13.01523,4.51268c1.9048,3.07803 -0.42437,8.35873 -0.42437,9.81857z" fill="url(#color-19)" stroke="none" stroke-width="0" stroke-linecap="butt"/><path d="M289.86629,112.70093c0,0.98523 1.27018,3.45411 0.55062,4.54347c-1.53342,2.32149 -4.534,3.76653 -8.29113,3.76653c-5.52016,0 -14.58308,-5.22521 -14.58308,-8.31c0,-3.0848 6.8083,-5.58551 12.32846,-5.58551c5.52016,0 9.99513,2.50072 9.99513,5.58551z" fill="url(#color-20)" stroke="none" stroke-width="0" stroke-linecap="butt"/><path d="M289.7193,116.81779c0,0.91839 0.50123,3.37993 -2.06331,5.12072c-1.28914,0.87506 -5.54985,1.78768 -6.60894,1.78768c-1.36254,0 -2.82113,-0.49046 -5.04546,-1.82906c-2.94406,-1.77173 -6.56653,-4.58721 -6.56653,-5.37332c0,-1.38004 7.85806,0.44096 11.02404,0.44096c3.16597,0 9.26019,-1.52703 9.26019,-0.14699z" fill="url(#color-21)" stroke="none" stroke-width="0" stroke-linecap="butt"/><path d="M287.63136,111.17324c0,1.29886 -5.79592,1.46987 -8.23128,1.46987c-2.43537,0 -9.70115,-0.75896 -9.70115,-2.05782c0,-1.29886 7.26579,-2.64577 9.70115,-2.64577c2.43537,0 8.23128,1.93486 8.23128,3.23372z" fill="url(#color-22)" stroke="none" stroke-width="0" stroke-linecap="butt"/><g fill="none" stroke="#002222" stroke-width="1" stroke-linecap="round"><path d="M146.87146,96.20953c0,0 2.49945,-2.21577 5.6451,-2.49059c5.44394,-0.4756 7.60779,-2.19115 13.83569,-2.01814c1.21444,0.03374 8.9979,-0.04663 9.96988,0.17149c5.13211,1.15171 11.51268,-0.11286 20.61928,3.13474c23.94651,8.53982 56.31286,25.07607 56.31286,25.07607"/><path d="M142.44249,150.6197c0,0 1.21734,-3.11046 3.89336,-4.78664c4.63118,-2.90084 5.77731,-5.41315 11.40174,-8.09318c1.09676,-0.5226 7.99104,-4.13613 8.95581,-4.38421c5.09403,-1.30988 10.20022,-5.33949 19.78714,-6.59171c25.20954,-3.2928 61.5555,-3.29666 61.5555,-3.29666"/><path d="M140.03208,123.11474c0,0 1.85972,-2.77458 4.83434,-3.83397c5.14795,-1.8334 6.80909,-4.03929 12.87926,-5.44279c1.18368,-0.27368 8.69519,-2.31475 9.69076,-2.34885c5.25667,-0.18006 11.11195,-3.01316 20.74326,-2.16762c25.32627,2.22342 60.81715,10.06089 60.81715,10.06089"/></g><g data-paper-data="{&quot;index&quot;:null}" fill="none" stroke="#002222" stroke-width="1" stroke-linecap="round"><path d="M295.03209,118.74977c0,0 32.36636,-16.53625 56.31286,-25.07607c9.1066,-3.2476 15.48717,-1.98304 20.61928,-3.13474c0.97198,-0.21813 8.75545,-0.13776 9.96988,-0.17149c6.22791,-0.17301 8.39175,1.54254 13.83569,2.01814c3.14565,0.27482 5.6451,2.49058 5.6451,2.49058"/><path d="M300.25032,122.13396c0,0 36.34596,0.00385 61.55549,3.29666c9.58692,1.25222 14.69311,5.28183 19.78714,6.59171c0.96477,0.24809 7.85906,3.86161 8.95582,4.38421c5.62443,2.68003 6.77056,5.19234 11.40174,8.09318c2.67602,1.67618 3.89336,4.78664 3.89336,4.78664"/><path d="M299.28951,118.04906c0,0 35.49088,-7.83747 60.81715,-10.06089c9.63131,-0.84555 15.4866,1.98757 20.74326,2.16762c0.99558,0.0341 8.50708,2.07516 9.69076,2.34885c6.07016,1.4035 7.73131,3.6094 12.87926,5.4428c2.97461,1.05939 4.83434,3.83397 4.83434,3.83397"/></g></g><path d="M268.593,140.168l2.62438,9.62269c0,0 -2.85436,-0.78777 -3.83034,-0.82722c-0.77206,-0.0312 -2.30849,-1.39057 -2.30849,-1.39057l3.04586,-7.40489z" data-paper-data="{&quot;index&quot;:null}" fill="#ffffff" stroke="#6a0000" stroke-width="0.5" stroke-linecap="butt"/><path d="M286.593,139.16801l1.87438,8.2004c0,0 -2.10436,1.3041 -3.08034,1.26166c-0.77206,-0.03357 -2.30849,0.50404 -2.30849,0.50404l3.04587,-9.9661z" data-paper-data="{&quot;index&quot;:null}" fill="#ffffff" stroke="#6a0000" stroke-width="0.5" stroke-linecap="butt"/></g></g></g></svg>