<svg version="1.1" xmlns="http://www.w3.org/2000/svg" xmlns:xlink="http://www.w3.org/1999/xlink" width="58.21422" height="125.21164" viewBox="0,0,58.21422,125.21164"><defs><radialGradient cx="263.87377" cy="273.95551" r="21.97894" gradientUnits="userSpaceOnUse" id="color-1"><stop offset="0" stop-color="#fff082"/><stop offset="1" stop-color="#ffd183"/></radialGradient><linearGradient x1="268.31639" y1="276.5036" x2="248.56514" y2="276.05471" gradientUnits="userSpaceOnUse" id="color-2"><stop offset="0" stop-color="#c66a21" stop-opacity="0"/><stop offset="1" stop-color="#c66a21"/></linearGradient><linearGradient x1="261.17275" y1="232.38552" x2="242.43836" y2="233.51695" gradientUnits="userSpaceOnUse" id="color-3"><stop offset="0" stop-color="#bd8946" stop-opacity="0"/><stop offset="1" stop-color="#bd8946"/></linearGradient><linearGradient x1="264.94608" y1="290.30796" x2="260.33191" y2="287.4397" gradientUnits="userSpaceOnUse" id="color-4"><stop offset="0" stop-color="#6f3939"/><stop offset="1" stop-color="#ffd183"/></linearGradient><linearGradient x1="256.6259" y1="285.39263" x2="252.72518" y2="281.61086" gradientUnits="userSpaceOnUse" id="color-5"><stop offset="0" stop-color="#6f3939"/><stop offset="1" stop-color="#ffd183"/></linearGradient><linearGradient x1="274.17956" y1="288.12091" x2="269.28211" y2="285.76882" gradientUnits="userSpaceOnUse" id="color-6"><stop offset="0" stop-color="#6f3939"/><stop offset="1" stop-color="#ffd183"/></linearGradient><linearGradient x1="245.46692" y1="218.81662" x2="252.73753" y2="223.04478" gradientUnits="userSpaceOnUse" id="color-7"><stop offset="0" stop-color="#8b6534" stop-opacity="0"/><stop offset="1" stop-color="#8b6534"/></linearGradient><linearGradient x1="274.66339" y1="227.44316" x2="266.65155" y2="229.95529" gradientUnits="userSpaceOnUse" id="color-8"><stop offset="0" stop-color="#bd8946" stop-opacity="0"/><stop offset="1" stop-color="#bd8946"/></linearGradient></defs><g transform="translate(-229.43909,-170.73188)"><g data-paper-data="{&quot;isPaintingLayer&quot;:true}" fill-rule="nonzero" stroke="none" stroke-width="0" stroke-linecap="butt" stroke-linejoin="miter" stroke-miterlimit="10" stroke-dasharray="" stroke-dashoffset="0" style="mix-blend-mode: normal"><path d="M245.41125,264.93988c0,0 -16.29699,-71.7776 -15.80151,-79.95296c0.18227,-3.00746 6.44124,-11.4297 13.22659,-13.83893c4.62215,-1.64117 10.64148,2.10194 10.64148,2.10194l19.35975,47.32384l9.14211,29.84629z" fill="#ffefda"/><path d="M262.96279,260.83354c11.41759,-4.7439 21.91623,-6.45096 23.44936,-3.81283c1.53313,2.63813 -6.4798,8.62245 -17.89739,13.36635c-11.41759,4.7439 -21.91623,6.45096 -23.44936,3.81283c-1.53313,-2.63813 6.4798,-8.62245 17.89739,-13.36635z" data-paper-data="{&quot;index&quot;:null}" fill="#020713"/><path d="M250.53822,275.43723c0,-12.13864 6.51608,-23.46067 13.33554,-23.46067c6.81946,0 16.7929,7.37077 16.7929,19.5094c0,12.13864 -11.94907,23.95458 -18.76853,23.95458c-4.78452,0 -11.40301,-1.38644 -13.45308,-8.46937c-0.87193,-3.01249 2.09318,-7.91175 2.09318,-11.53394z" data-paper-data="{&quot;index&quot;:null}" fill="url(#color-1)"/><path d="M248.56512,276.05471c0.19214,-8.45394 4.76936,-15.20673 10.22352,-15.08277c2.43607,0.05536 12.04369,-7.41714 13.71428,-5.11168c2.06973,2.85627 -4.08022,15.96531 -4.18654,20.64334c-0.19213,8.45395 -1.8059,17.67628 -7.26006,17.55232c-3.68033,-0.08364 -11.75863,0.1803 -13.35222,-4.4854c-0.76806,-2.24874 0.79855,-10.76639 0.86104,-13.51581z" data-paper-data="{&quot;index&quot;:null}" fill="url(#color-2)"/><path d="M236.44174,172.6541c1.07751,-1.42185 14.32592,-0.00684 15.67543,-0.08835c5.17336,-0.31243 8.23338,46.20566 9.05558,59.81977c0.8222,13.61411 -7.03974,35.06175 -12.2131,35.37419c-5.17336,0.31243 -18.64269,-62.89531 -19.46488,-76.50942c-0.60772,-10.06275 3.89384,-14.56737 6.94697,-18.59618z" data-paper-data="{&quot;index&quot;:null}" fill="url(#color-3)"/><path d="M277.27486,260.106c-4.03871,0.67479 -12.48214,3.07437 -15.24384,3.84366c-6.52639,1.81798 -16.86385,9.79291 -16.86385,9.79291l-2.47182,-16.0938c0,0 11.15547,-3.64648 18.05199,-5.79834c5.686,-1.77416 20.40087,-4.31757 20.40087,-4.31757l6.5051,12.86717c0,0 -3.98519,-1.36222 -10.37845,-0.29403z" fill="#113a9e"/><path d="M266.94139,277.0135c1.27417,0.79205 0.38084,9.47197 -1.99531,13.29447c-2.37615,3.82249 -5.33531,6.27916 -6.60948,5.48711c-1.27417,-0.79205 -0.38084,-4.53288 1.99531,-8.35538c2.37615,-3.8225 5.33531,-11.21825 6.60948,-10.4262z" data-paper-data="{&quot;index&quot;:null}" fill="url(#color-4)"/><path d="M260.84211,273.20548c1.07715,1.04431 -2.0711,13.89477 -5.20403,17.12624c-3.13293,3.23147 -5.55806,0.06542 -6.63521,-0.97889c-1.07715,-1.0443 2.0711,-4.01659 5.20403,-7.24806c3.13293,-3.23147 5.55806,-9.9436 6.63521,-8.89929z" data-paper-data="{&quot;index&quot;:null}" fill="url(#color-5)"/><path d="M274.7245,274.6886c1.3524,0.64952 1.40361,9.37513 -0.54493,13.43232c-1.94855,4.05719 -4.62449,6.81965 -5.97688,6.17014c-1.35239,-0.64952 -0.86912,-4.46505 1.07942,-8.52224c1.94854,-4.05719 4.09,-11.72973 5.44239,-11.08022z" data-paper-data="{&quot;index&quot;:null}" fill="url(#color-6)"/><path d="M259.23436,221.27292c-3.4076,17.19805 -14.29442,36.69016 -16.30215,35.52258c-1.46592,-0.85249 -3.02839,-11.53845 -1.48225,-23.93797c0.57146,-4.58288 3.09738,-9.39984 4.01696,-14.04091c3.4076,-17.19805 9.56946,-40.8245 11.57718,-39.65693c2.00772,1.16757 5.59786,24.91517 2.19026,42.11323z" fill="url(#color-7)"/><path d="M274.09048,248.15273l-20.50643,-69.09795c0,0 4.01306,5.60851 5.39539,7.83137c1.2773,2.05397 4.0649,9.86092 4.0649,9.86092l17.67771,50.01876z" data-paper-data="{&quot;index&quot;:null}" fill="url(#color-8)"/></g></g></svg>