<svg version="1.1" xmlns="http://www.w3.org/2000/svg" xmlns:xlink="http://www.w3.org/1999/xlink" width="92.54479" height="103.83281" viewBox="0,0,92.54479,103.83281"><defs><radialGradient cx="315.13797" cy="256.25703" r="21.97894" gradientUnits="userSpaceOnUse" id="color-1"><stop offset="0" stop-color="#fff082"/><stop offset="1" stop-color="#ffd183"/></radialGradient><linearGradient x1="320.25837" y1="256.15166" x2="303.09971" y2="265.9442" gradientUnits="userSpaceOnUse" id="color-2"><stop offset="0" stop-color="#c66a21" stop-opacity="0"/><stop offset="1" stop-color="#c66a21"/></linearGradient><linearGradient x1="291.40329" y1="222.02218" x2="275.93041" y2="232.64514" gradientUnits="userSpaceOnUse" id="color-3"><stop offset="0" stop-color="#bd8946" stop-opacity="0"/><stop offset="1" stop-color="#bd8946"/></linearGradient><linearGradient x1="324.48291" y1="269.71899" x2="319.05051" y2="269.63836" gradientUnits="userSpaceOnUse" id="color-4"><stop offset="0" stop-color="#6f3939"/><stop offset="1" stop-color="#ffd183"/></linearGradient><linearGradient x1="314.81957" y1="269.79357" x2="309.5279" y2="268.56242" gradientUnits="userSpaceOnUse" id="color-5"><stop offset="0" stop-color="#6f3939"/><stop offset="1" stop-color="#ffd183"/></linearGradient><linearGradient x1="331.26933" y1="263.08688" x2="325.86012" y2="263.59459" gradientUnits="userSpaceOnUse" id="color-6"><stop offset="0" stop-color="#6f3939"/><stop offset="1" stop-color="#ffd183"/></linearGradient><linearGradient x1="270.9513" y1="218.48603" x2="279.36106" y2="218.36334" gradientUnits="userSpaceOnUse" id="color-7"><stop offset="0" stop-color="#8b6534" stop-opacity="0"/><stop offset="1" stop-color="#8b6534"/></linearGradient><linearGradient x1="300.41848" y1="210.8351" x2="294.84654" y2="217.11634" gradientUnits="userSpaceOnUse" id="color-8"><stop offset="0" stop-color="#bd8946" stop-opacity="0"/><stop offset="1" stop-color="#bd8946"/></linearGradient></defs><g transform="translate(-238.83044,-175.26133)"><g data-paper-data="{&quot;isPaintingLayer&quot;:true}" fill-rule="nonzero" stroke="none" stroke-width="0" stroke-linecap="butt" stroke-linejoin="miter" stroke-miterlimit="10" stroke-dasharray="" stroke-dashoffset="0" style="mix-blend-mode: normal"><g><path d="M294.66959,258.0436c0,0 -50.95191,-53.11797 -54.7398,-60.37978c-1.39345,-2.67139 -0.36908,-13.11455 4.20474,-18.67562c3.11566,-3.78819 10.20311,-3.68183 10.20311,-3.68183l40.97645,30.58229l23.21398,20.86841z" fill="#ffefda"/><path d="M307.59585,245.48055c7.34079,-9.94881 15.45881,-16.82145 18.13209,-15.35048c2.67329,1.47097 -1.11046,10.72853 -8.45125,20.67734c-7.34079,9.94881 -15.45881,16.82145 -18.13209,15.35048c-2.67329,-1.47097 1.11046,-10.72853 8.45125,-20.67734z" data-paper-data="{&quot;index&quot;:null}" fill="#020713"/><path d="M304.47253,264.39833c-6.25469,-10.40314 -6.50416,-23.46398 -0.65969,-26.97785c5.84446,-3.51387 18.18992,-2.33595 24.44461,8.06718c6.25469,10.40314 2.10243,26.68674 -3.74203,30.20061c-4.10046,2.46533 -10.48708,4.68743 -15.89368,-0.32649c-2.29952,-2.1325 -2.28279,-7.85914 -4.1492,-10.96345z" data-paper-data="{&quot;index&quot;:null}" fill="url(#color-1)"/><path d="M303.0997,265.94421c-4.1914,-7.34426 -3.74812,-15.49009 0.99011,-18.19423c2.1163,-1.20779 6.49993,-12.56246 9.11961,-11.44742c3.24557,1.38143 4.72961,15.78512 7.04894,19.84911c4.19142,7.34426 7.56038,16.07958 2.82214,18.78371c-3.19724,1.82469 -9.98456,6.21341 -13.75441,3.03591c-1.81696,-1.53147 -4.86323,-9.63856 -6.22638,-12.02708z" data-paper-data="{&quot;index&quot;:null}" fill="url(#color-2)"/><path d="M239.43025,183.57392c0.19082,-1.77377 12.27418,-7.3876 13.38874,-8.15282c4.27272,-2.93345 30.86468,35.35708 38.58429,46.60108c7.71961,11.244 12.03307,33.67625 7.76035,36.6097c-4.27272,2.93345 -48.38544,-44.29694 -56.10504,-55.54095c-5.70588,-8.31091 -4.16902,-14.49101 -3.62834,-19.517z" data-paper-data="{&quot;index&quot;:null}" fill="url(#color-3)"/><path d="M319.48681,237.48243c-3.11358,2.65935 -9.1134,9.06651 -11.08386,11.14884c-4.65654,4.92092 -9.40677,17.08225 -9.40677,17.08225l-10.41109,-12.51916c0,0 7.68161,-8.87323 12.48333,-14.27101c3.95888,-4.45034 15.25938,-14.21226 15.25938,-14.21226l12.20513,7.67562c0,0 -4.11733,0.886 -9.04612,5.09573z" fill="#113a9e"/><path d="M319.34269,257.29715c1.50012,0.02226 5.20703,7.9215 5.14023,12.42185c-0.06681,4.50034 -1.33703,8.13054 -2.83715,8.10828c-1.50012,-0.02226 -2.66205,-3.68856 -2.59525,-8.18891c0.0668,-4.50035 -1.20794,-12.36348 0.29218,-12.34121z" data-paper-data="{&quot;index&quot;:null}" fill="url(#color-4)"/><path d="M312.15328,257.17636c1.46125,0.33998 5.38459,12.97537 4.36467,17.35914c-1.01992,4.38377 -4.7297,2.91998 -6.19095,2.58c-1.46124,-0.33997 -0.29465,-4.5095 0.72528,-8.89327c1.01992,-4.38377 -0.36024,-11.38584 1.101,-11.04587z" data-paper-data="{&quot;index&quot;:null}" fill="url(#color-5)"/><path d="M324.81507,251.29424c1.49372,-0.1402 6.03367,7.3115 6.45427,11.79265c0.42059,4.48115 -0.44934,8.22749 -1.94305,8.36769c-1.49371,0.14019 -3.04557,-3.37884 -3.46617,-7.85998c-0.4206,-4.48115 -2.53875,-12.16016 -1.04504,-12.30036z" data-paper-data="{&quot;index&quot;:null}" fill="url(#color-6)"/><path d="M284.01603,213.49718c5.94126,16.49503 6.65469,38.80997 4.33239,38.84384c-1.6956,0.02474 -8.54085,-8.32832 -13.60488,-19.75173c-1.87167,-4.22211 -2.18893,-9.65191 -3.79224,-14.10326c-5.94126,-16.49503 -12.83441,-39.91857 -10.51213,-39.95245c2.32229,-0.03388 17.63559,18.46856 23.57686,34.9636z" fill="url(#color-7)"/><path d="M310.59853,228.87897l-53.17876,-48.65244c0,0 6.32921,2.73883 8.65928,3.93161c2.15303,1.10215 8.56478,6.35655 8.56478,6.35655l40.92351,33.75861z" data-paper-data="{&quot;index&quot;:null}" fill="url(#color-8)"/></g></g></g></svg>