<svg version="1.1" xmlns="http://www.w3.org/2000/svg" xmlns:xlink="http://www.w3.org/1999/xlink" width="52.54058" height="66.31671" viewBox="0,0,52.54058,66.31671"><defs><linearGradient x1="261.17275" y1="212.87048" x2="242.43836" y2="213.64379" gradientUnits="userSpaceOnUse" id="color-1"><stop offset="0" stop-color="#bd8946" stop-opacity="0"/><stop offset="1" stop-color="#bd8946"/></linearGradient><linearGradient x1="245.46692" y1="203.59651" x2="252.73753" y2="206.48634" gradientUnits="userSpaceOnUse" id="color-2"><stop offset="0" stop-color="#8b6534" stop-opacity="0"/><stop offset="1" stop-color="#8b6534"/></linearGradient><linearGradient x1="274.66339" y1="209.49251" x2="266.65155" y2="211.20949" gradientUnits="userSpaceOnUse" id="color-3"><stop offset="0" stop-color="#bd8946" stop-opacity="0"/><stop offset="1" stop-color="#bd8946"/></linearGradient></defs><g transform="translate(-229.43909,-170.73187)"><g data-paper-data="{&quot;isPaintingLayer&quot;:true}" fill-rule="nonzero" stroke="none" stroke-width="0" stroke-linecap="butt" stroke-linejoin="miter" stroke-miterlimit="10" stroke-dasharray="" stroke-dashoffset="0" style="mix-blend-mode: normal"><path d="M245.41125,235.12051c0,0 -16.29699,-49.05806 -15.80151,-54.6457c0.18227,-2.05552 6.44124,-7.81189 13.22659,-9.45854c4.62215,-1.1217 10.64148,1.43662 10.64148,1.43662l19.35975,32.34457l9.14211,20.39914z" fill="#ffefda"/><path d="M236.44174,172.04567c1.07751,-0.9718 14.32592,-0.00467 15.67543,-0.06038c5.17336,-0.21354 8.23338,31.58033 9.05558,40.8852c0.8222,9.30488 -7.03974,23.96376 -12.2131,24.17731c-5.17336,0.21354 -18.64269,-42.98725 -19.46488,-52.29213c-0.60772,-6.87762 3.89384,-9.95641 6.94697,-12.70999z" data-paper-data="{&quot;index&quot;:null}" fill="url(#color-1)"/><path d="M259.23436,205.27532c-3.4076,11.7544 -14.29442,25.07674 -16.30215,24.27873c-1.46592,-0.58265 -3.02839,-7.88622 -1.48225,-16.36096c0.57146,-3.13228 3.09738,-6.42454 4.01696,-9.59658c3.4076,-11.7544 9.56946,-27.90245 11.57718,-27.10444c2.00772,0.798 5.59786,17.02885 2.19026,28.78326z" fill="url(#color-2)"/><path d="M274.09048,223.64695l-20.50643,-47.22659c0,0 4.01306,3.83327 5.39539,5.35253c1.2773,1.40383 4.0649,6.73967 4.0649,6.73967l17.67771,34.18648z" data-paper-data="{&quot;index&quot;:null}" fill="url(#color-3)"/></g></g></svg>