<svg version="1.1" xmlns="http://www.w3.org/2000/svg" xmlns:xlink="http://www.w3.org/1999/xlink" width="717.26861" height="749.41209" viewBox="0,0,717.26861,749.41209"><defs><linearGradient x1="240" y1="-18" x2="240" y2="432.81486" gradientUnits="userSpaceOnUse" id="color-1"><stop offset="0" stop-color="#fb8989"/><stop offset="1" stop-color="#e3e3e3"/></linearGradient><linearGradient x1="270.59309" y1="-12.68768" x2="270.59309" y2="416.74175" gradientUnits="userSpaceOnUse" id="color-2"><stop offset="0" stop-color="#c00000"/><stop offset="1" stop-color="#c00000" stop-opacity="0"/></linearGradient><linearGradient x1="200.97747" y1="-43.83623" x2="330.7307" y2="104.39703" gradientUnits="userSpaceOnUse" id="color-3"><stop offset="0" stop-color="#ffffff"/><stop offset="1" stop-color="#ffffff" stop-opacity="0"/></linearGradient><radialGradient cx="284.10661" cy="157.36239" r="193.20584" gradientUnits="userSpaceOnUse" id="color-4"><stop offset="0" stop-color="#d53d3d"/><stop offset="1" stop-color="#d53d3d" stop-opacity="0"/></radialGradient><radialGradient cx="277.0976" cy="207.1702" r="193.20585" gradientUnits="userSpaceOnUse" id="color-5"><stop offset="0" stop-color="#d53d3d"/><stop offset="1" stop-color="#d53d3d" stop-opacity="0"/></radialGradient><radialGradient cx="262.33483" cy="155.48049" r="119.681" gradientUnits="userSpaceOnUse" id="color-6"><stop offset="0" stop-color="#e32626"/><stop offset="1" stop-color="#e32626" stop-opacity="0"/></radialGradient><radialGradient cx="264.33183" cy="214.53454" r="119.681" gradientUnits="userSpaceOnUse" id="color-7"><stop offset="0" stop-color="#e32626"/><stop offset="1" stop-color="#e32626" stop-opacity="0"/></radialGradient><radialGradient cx="269.33183" cy="263.49421" r="107.61233" gradientUnits="userSpaceOnUse" id="color-8"><stop offset="0" stop-color="#e32626"/><stop offset="1" stop-color="#e32626" stop-opacity="0"/></radialGradient><radialGradient cx="277.53615" cy="345.27671" r="83.74468" gradientUnits="userSpaceOnUse" id="color-9"><stop offset="0" stop-color="#e32626"/><stop offset="1" stop-color="#e32626" stop-opacity="0"/></radialGradient><radialGradient cx="267.31982" cy="81.30202" r="107.61233" gradientUnits="userSpaceOnUse" id="color-10"><stop offset="0" stop-color="#e32626"/><stop offset="1" stop-color="#e32626" stop-opacity="0"/></radialGradient><radialGradient cx="270.81832" cy="95.31103" r="107.61233" gradientUnits="userSpaceOnUse" id="color-11"><stop offset="0" stop-color="#e32626"/><stop offset="1" stop-color="#e32626" stop-opacity="0"/></radialGradient><radialGradient cx="363.33183" cy="297.99421" r="107.61233" gradientUnits="userSpaceOnUse" id="color-12"><stop offset="0" stop-color="#e32626"/><stop offset="1" stop-color="#e32626" stop-opacity="0"/></radialGradient><linearGradient x1="232.61783" y1="-28.74182" x2="339.44489" y2="136.77851" gradientUnits="userSpaceOnUse" id="color-13"><stop offset="0" stop-color="#7be7ff"/><stop offset="1" stop-color="#7be7ff" stop-opacity="0"/></linearGradient><linearGradient x1="95.98862" y1="-7.79436" x2="243.37508" y2="122.91994" gradientUnits="userSpaceOnUse" id="color-14"><stop offset="0" stop-color="#fffac1"/><stop offset="1" stop-color="#fffac1" stop-opacity="0"/></linearGradient><linearGradient x1="266.875" y1="430.25456" x2="266.875" y2="233.25457" gradientUnits="userSpaceOnUse" id="color-15"><stop offset="0" stop-color="#00ff81"/><stop offset="1" stop-color="#00ff81" stop-opacity="0"/></linearGradient><linearGradient x1="197.57374" y1="99.3413" x2="275.15727" y2="190.87241" gradientUnits="userSpaceOnUse" id="color-16"><stop offset="0" stop-color="#ffffff"/><stop offset="1" stop-color="#ffffff" stop-opacity="0"/></linearGradient></defs><g transform="translate(130.38342,237.80743)"><g data-paper-data="{&quot;isPaintingLayer&quot;:true}" fill-rule="nonzero" stroke="none" stroke-width="0" stroke-linecap="butt" stroke-linejoin="miter" stroke-miterlimit="10" stroke-dasharray="" stroke-dashoffset="0" style="mix-blend-mode: normal"><path d="M-12,432.81486v-450.81486h504v450.81486z" fill="url(#color-1)"/><path d="M-11.68919,416.74175v-429.42943h564.56456v429.42943z" fill="url(#color-2)"/><path d="M-69.58988,257.4675l-13.94032,-15.31816l506.1051,-479.95677l129.75323,148.23326z" fill="url(#color-3)"/><path d="M447.77027,157.36239c0,147.81773 -73.27472,267.64767 -163.66366,267.64767c-90.38895,0 -163.66366,-119.82994 -163.66366,-267.64767c0,-147.81773 73.27472,-267.64767 163.66366,-267.64767c90.38895,0 163.66366,119.82994 163.66366,267.64767z" fill="url(#color-4)"/><path d="M440.76126,207.1702c0,168.13451 -73.27472,304.43446 -163.66366,304.43446c-90.38894,0 -163.66366,-136.29996 -163.66366,-304.43446c0,-168.13451 73.27471,-304.43446 163.66366,-304.43446c90.38894,0 163.66366,136.29995 163.66366,304.43446z" fill="url(#color-5)"/><path d="M351.67417,155.48049c0,58.8772 -39.99858,106.60661 -89.33934,106.60661c-49.34075,0 -89.33934,-47.7294 -89.33934,-106.60661c0,-58.8772 39.99858,-106.60661 89.33934,-106.60661c49.34075,0 89.33934,47.7294 89.33934,106.60661z" fill="url(#color-6)"/><path d="M353.67117,214.53454c0,58.8772 -39.99858,106.60661 -89.33934,106.60661c-49.34075,0 -89.33934,-47.7294 -89.33934,-106.60661c0,-58.8772 39.99858,-106.6066 89.33934,-106.6066c49.34076,0 89.33934,47.7294 89.33934,106.6066z" fill="url(#color-7)"/><path d="M349.66216,263.49421c0,45.37928 -35.96511,82.16645 -80.33033,82.16645c-44.36522,0 -80.33033,-36.78717 -80.33033,-82.16645c0,-45.37928 35.96511,-82.16645 80.33033,-82.16645c44.36522,0 80.33033,36.78717 80.33033,82.16645z" fill="url(#color-8)"/><path d="M340.04979,345.27671c0,35.31448 -27.98831,63.94252 -62.51363,63.94252c-34.52532,0 -62.51363,-28.62804 -62.51363,-63.94252c0,-35.31448 27.98831,-63.94251 62.51363,-63.94251c34.52532,0 62.51363,28.62804 62.51363,63.94251z" fill="url(#color-9)"/><path d="M347.65015,81.30202c0,45.37928 -35.96512,82.16645 -80.33033,82.16645c-44.36522,0 -80.33033,-36.78718 -80.33033,-82.16645c0,-45.37928 35.96512,-82.16645 80.33033,-82.16645c44.36521,0 80.33033,36.78717 80.33033,82.16645z" fill="url(#color-10)"/><path d="M351.14865,95.31103c0,45.37928 -35.96512,82.16645 -80.33033,82.16645c-44.36522,0 -80.33033,-36.78717 -80.33033,-82.16645c0,-45.37928 35.96512,-82.16645 80.33033,-82.16645c44.36521,0 80.33033,36.78717 80.33033,82.16645z" fill="url(#color-11)"/><path d="M443.66216,297.99421c0,72.16509 -35.96511,130.66645 -80.33033,130.66645c-44.36522,0 -80.33033,-58.50136 -80.33033,-130.66645c0,-72.16509 35.96511,-130.66645 80.33033,-130.66645c44.36522,0 80.33033,58.50136 80.33033,130.66645z" fill="url(#color-12)"/><path d="M-66.11946,265.89344l1.04597,0.44777c0,0 274.41932,-242.79358 302.85255,-275.55727c59.26342,-68.28944 47.49056,-163.29754 47.49056,-163.29754l301.61557,149.5938c0,0 -27.35992,-65.98565 -138.39745,-18.25934c-45.34958,19.49222 -514.60719,307.07259 -514.60719,307.07259z" fill="url(#color-13)"/><path d="M-92.50434,283.07949l-6.91497,-70.5423c0,0 -45.64015,84.03662 18.49769,11.71822c33.19661,-37.43072 144.91427,-191.39683 213.48596,-311.31141c59.27647,-103.65959 158.83221,-141.06991 158.83221,-141.06991l13.87089,67.36331z" fill="url(#color-14)"/><path d="M561.375,233.25457v197h-589v-197z" data-paper-data="{&quot;index&quot;:null}" fill="url(#color-15)"/><path d="M-130.38342,284.80558l4.02785,-11.10033c0,0 4.30654,26.12596 20.51832,17.71656c75.67339,-39.25345 652.36174,-366.75421 652.36174,-366.75421l33.01233,236.3563z" fill="url(#color-16)"/></g></g></svg>