<svg version="1.1" xmlns="http://www.w3.org/2000/svg" xmlns:xlink="http://www.w3.org/1999/xlink" width="145.54742" height="270.90808" viewBox="0,0,145.54742,270.90808"><defs><radialGradient cx="196.05142" cy="202.89927" r="37" gradientUnits="userSpaceOnUse" id="color-1"><stop offset="0" stop-color="#ffffff"/><stop offset="1" stop-color="#594384"/></radialGradient><radialGradient cx="157.67855" cy="306.0855" r="47.95574" gradientUnits="userSpaceOnUse" id="color-2"><stop offset="0" stop-color="#ffffff"/><stop offset="1" stop-color="#594384"/></radialGradient><radialGradient cx="234.07316" cy="365.75137" r="29.55412" gradientUnits="userSpaceOnUse" id="color-3"><stop offset="0" stop-color="#ffffff"/><stop offset="1" stop-color="#594384"/></radialGradient></defs><g transform="translate(-122.57952,-157.41102)"><g data-paper-data="{&quot;isPaintingLayer&quot;:true}" fill-rule="nonzero" stroke-linecap="butt" stroke-linejoin="miter" stroke-miterlimit="10" stroke-dasharray="" stroke-dashoffset="0" style="mix-blend-mode: normal"><path d="M160.25763,310.29974c0,0 -36.4168,0.90699 -36.24171,-8.58137c0.03284,-1.77932 8.36,-5.60254 14.88699,-16.30791c6.97199,-11.43526 12.17198,-27.73606 12.17198,-27.73606c0,0 3.67588,-13.80056 12.16815,-24.03336c0.87944,-2.57684 9.83578,-12.92691 10.82954,-15.78516c2.70921,-7.79222 5.58872,-6.99972 7.34031,-16.53076c1.86248,-10.1345 2.58032,-13.50417 4.99718,-18.39209c5.06931,-10.25233 22.24117,-21.93195 22.24117,-21.93195c0,0 22.37874,-5.30375 27.00097,-3.01826c4.92074,2.4331 20.70205,8.70021 20.70205,8.70021c0,0 4.55871,9.93215 1.9355,15.2374c-1.2915,2.61195 -0.94868,2.03445 -8.92965,10.27945c-2.64087,2.72823 -27.38678,31.45073 -30.02493,33.91964c-3.53836,3.31138 -13.90989,10.86078 -16.67358,14.56765c-2.94144,3.94528 -1.87709,6.06892 -4.7673,10.27379c-11.38759,16.5674 -26.23487,32.16926 -32.99769,43.21335c-6.05632,9.89033 -4.63898,16.12545 -4.63898,16.12545z" data-paper-data="{&quot;index&quot;:null}" fill="#412a6a" stroke="none" stroke-width="0"/><path d="M178.00515,217.5223c6.35873,-7.65435 13.08639,-21.62303 18.04627,-21.62303c12.70255,0 35,0.14873 35,6.5c0,6.35127 -10.29745,0.5 -23,0.5c-3.70258,0 -10.40983,-0.18933 -16.63853,5.05323c-15.14029,12.74325 -34.36147,41.94676 -34.36147,37.44677c0,-3.87133 11.02736,-15.92807 20.95373,-27.87697z" data-paper-data="{&quot;index&quot;:null}" fill="url(#color-1)" stroke="none" stroke-width="0"/><path d="M254.2301,379.99824c2.29982,0 0.9403,8.15394 0.9403,13.17999c0,5.02605 -7.23754,21.02521 -9.53736,21.02521c-0.24067,0 -4.35316,7.13834 -5.20982,7.62245c-0.79217,0.44766 -1.01972,-2.92531 -1.21968,-3.07188c-0.71741,-0.52584 2.28887,-6.93532 5.06387,-13.57882c1.78543,-4.27438 2.5746,-9.72815 2.5746,-11.99696c0,-5.02605 5.08827,-13.17999 7.38809,-13.17999z" data-paper-data="{&quot;index&quot;:null}" fill="#e6a892" stroke="#003737" stroke-width="0.5"/><path d="M228.90255,411.30834c0.06465,-1.10738 -9.12277,-1.23517 10.05742,-0.64512c2.3783,0.07316 7.22107,2.2264 10.38027,-0.38071c3.3365,-2.75342 4.46997,-11.27786 5.36704,-12.01638c4.12351,-3.39471 0.80528,13.88019 0.69422,15.7822c-0.11105,1.90201 -4.28119,3.11888 -9.31428,2.71794c-1.63108,-0.12992 -23.99343,-1.46072 -26.94978,-2.42775c-2.67001,-0.87337 0.09486,-1.74618 3.04434,-2.82501c1.20884,-0.44217 2.31265,-0.87692 3.59425,-1.22389c2.813,-0.76155 3.09727,1.51949 3.12651,1.01871z" data-paper-data="{&quot;index&quot;:null}" fill="#f1c1b0" stroke="#003737" stroke-width="0.5"/><path d="M229.19519,416.3181c0,-1.10995 -9.17357,-0.50726 9.99654,-1.44294c2.37704,-0.11604 7.33402,1.64732 10.33403,-1.20482c3.16838,-3.01221 3.80266,-11.60697 4.65463,-12.41508c3.91621,-3.71455 1.61195,13.78403 1.61195,15.69046c0,1.90643 -4.0896,3.4519 -9.13438,3.4519c-1.63486,0 -24.02291,0.44956 -27.02874,-0.28027c-2.71469,-0.65913 -0.00707,-1.74967 2.87273,-3.06041c1.18028,-0.5372 2.25622,-1.05868 3.51463,-1.5067c2.76212,-0.98335 3.17861,1.26982 3.17861,0.76787z" data-paper-data="{&quot;index&quot;:null}" fill="#d59d89" stroke="#003737" stroke-width="0.5"/><path d="M228.92653,420.39761c0,-1.10995 -9.17357,-0.50726 9.99654,-1.44294c2.37704,-0.11604 7.33402,1.64732 10.33403,-1.20482c3.16838,-3.01221 3.80266,-11.60697 4.65463,-12.41508c3.91621,-3.71455 1.61195,13.78403 1.61195,15.69046c0,1.90643 -4.0896,3.4519 -9.13438,3.4519c-1.63486,0 -24.02291,0.44956 -27.02874,-0.28027c-2.71469,-0.65913 -0.00707,-1.74967 2.87273,-3.06041c1.18028,-0.5372 2.25622,-1.05868 3.51463,-1.5067c2.76212,-0.98335 3.17861,1.26982 3.17861,0.76787z" data-paper-data="{&quot;index&quot;:null}" fill="#f1c1b0" stroke="#003737" stroke-width="0.5"/><path d="M250.94588,385.89567c2.08778,-6.67422 6.15278,-11.07218 9.07943,-9.82311c2.92665,1.24907 3.60668,7.67216 1.5189,14.34638c-2.08779,6.67421 -5.34681,21.74168 -8.27346,20.49261c-2.92665,-1.24907 -4.41265,-18.34168 -2.32487,-25.0159z" data-paper-data="{&quot;index&quot;:null}" fill="#f1c1b0" stroke="#003737" stroke-width="0.5"/><path d="M254.44905,398.7448c0,-3.21939 0.79214,-13.09912 1.98599,-16.51055c2.53379,-7.24028 6.87712,-7.33895 9.29765,-7.33895c3.56102,0 1.61195,13.79739 1.61195,23.84949c0,3.10602 -5.75408,18.46598 -7.87071,22.59779c-4.73349,9.24004 -18.68368,6.27264 -21.14437,6.27264c-0.56268,0 -4.98966,-1.71229 -7.6703,-3.84702c-3.42755,-2.72953 -5.02344,-8.66018 -3.02217,-10.0746c1.11663,-0.78919 6.61493,6.48797 11.61564,7.45682c1.6047,0.31089 5.62342,-0.83063 6.37975,-1.09877c2.94891,-1.04546 5.28433,-0.38181 6.54429,-2.05186c1.38128,-1.83085 0.47751,-8.13336 1.41327,-10.05451c1.18239,-2.42749 0.85901,-7.23654 0.85901,-9.20049z" data-paper-data="{&quot;index&quot;:null}" fill="#ffddd1" stroke="#003737" stroke-width="0.5"/><path d="M252.06774,389.02238c0,0 0.30359,7.06943 -8.54276,6.20479c-3.43095,-0.33536 -19.63676,-19.12628 -19.63676,-19.12628c0,0 -4.56719,-4.22601 -10.78182,-7.98594c-2.37762,-1.43849 -4.99638,-2.80878 -7.69278,-3.84808c-2.45381,-0.9458 -8.6728,-5.66035 -11.3957,-6.72507c-15.31651,-5.98911 -33.7802,-13.48005 -42.90178,-18.20301c-9.85972,-5.10516 -26.45125,-21.03833 -26.45125,-21.03833c0,0 -3.37824,-10.78367 -1.53519,-14.56192c1.96209,-4.02226 12.97295,-8.8855 12.97295,-8.8855c0,0 20.88626,1.63647 25.98836,4.27823c14.50587,7.51084 98.89873,72.0471 98.89873,72.0471z" data-paper-data="{&quot;index&quot;:null}" fill="#412a6a" stroke="none" stroke-width="0"/><path d="M149.8718,305.52786c0,-20.01789 39.56588,-49.62861 45.72524,-49.62861c6.15936,0 -32.34224,19.57347 -39.03374,42.93712c-1.83029,6.39058 4.13121,15.2138 7.93449,23.6914c7.64967,17.05132 25.17597,29.28297 21.062,29.28297c-6.15936,0 -35.68799,-26.26496 -35.68799,-46.28286z" data-paper-data="{&quot;index&quot;:null}" fill="url(#color-2)" stroke="none" stroke-width="0"/><path d="M204.966,354.87442c-2.46751,-6.69754 35.93414,14.87506 31.29778,8.52508c-5.96604,-8.1711 -32.36556,-30.17747 -30.25163,-30.95629c3.75673,-1.38406 29.22047,15.48619 34.86318,30.80209c5.6427,15.31592 13.86308,32.19966 10.10635,33.58372c-1.77042,0.65227 -10.46778,-20.0969 -18.58127,-27.31309c-9.10289,-8.09616 -24.45092,-6.54344 -27.43441,-14.64149z" data-paper-data="{&quot;index&quot;:null}" fill="url(#color-3)" stroke="none" stroke-width="0"/></g></g></svg>