<svg version="1.1" xmlns="http://www.w3.org/2000/svg" xmlns:xlink="http://www.w3.org/1999/xlink" width="136.15746" height="313.2331" viewBox="0,0,136.15746,313.2331"><defs><radialGradient cx="196.05142" cy="202.89927" r="37" gradientUnits="userSpaceOnUse" id="color-1"><stop offset="0" stop-color="#ffffff"/><stop offset="1" stop-color="#594384"/></radialGradient><radialGradient cx="156.35005" cy="309.56337" r="47.95574" gradientUnits="userSpaceOnUse" id="color-2"><stop offset="0" stop-color="#ffffff"/><stop offset="1" stop-color="#594384"/></radialGradient><radialGradient cx="191.30331" cy="408.12989" r="29.55412" gradientUnits="userSpaceOnUse" id="color-3"><stop offset="0" stop-color="#ffffff"/><stop offset="1" stop-color="#594384"/></radialGradient></defs><g transform="translate(-122.94598,-157.41102)"><g data-paper-data="{&quot;isPaintingLayer&quot;:true}" fill-rule="nonzero" stroke-linecap="butt" stroke-linejoin="miter" stroke-miterlimit="10" stroke-dasharray="" stroke-dashoffset="0" style="mix-blend-mode: normal"><path d="M160.25763,310.29974c0,0 -36.4168,0.90699 -36.24171,-8.58137c0.03284,-1.77932 8.36,-5.60254 14.88699,-16.30791c6.97199,-11.43526 12.17198,-27.73606 12.17198,-27.73606c0,0 3.67588,-13.80056 12.16815,-24.03336c0.87944,-2.57684 9.83578,-12.92691 10.82954,-15.78516c2.70921,-7.79222 5.58872,-6.99972 7.34031,-16.53076c1.86248,-10.1345 2.58032,-13.50417 4.99718,-18.39209c5.06931,-10.25233 22.24117,-21.93195 22.24117,-21.93195c0,0 22.37874,-5.30375 27.00097,-3.01826c4.92074,2.4331 20.70205,8.70021 20.70205,8.70021c0,0 4.55871,9.93215 1.9355,15.2374c-1.2915,2.61195 -0.94868,2.03445 -8.92965,10.27945c-2.64087,2.72823 -27.38678,31.45073 -30.02493,33.91964c-3.53836,3.31138 -13.90989,10.86078 -16.67358,14.56765c-2.94144,3.94528 -1.87709,6.06892 -4.7673,10.27379c-11.38759,16.5674 -26.23487,32.16926 -32.99769,43.21335c-6.05632,9.89033 -4.63898,16.12545 -4.63898,16.12545z" data-paper-data="{&quot;index&quot;:null}" fill="#412a6a" stroke="none" stroke-width="0"/><path d="M178.00515,217.5223c6.35873,-7.65435 13.08639,-21.62303 18.04627,-21.62303c12.70255,0 35,0.14873 35,6.5c0,6.35127 -10.29745,0.5 -23,0.5c-3.70258,0 -10.40983,-0.18933 -16.63853,5.05323c-15.14029,12.74325 -34.36147,41.94676 -34.36147,37.44677c0,-3.87133 11.02736,-15.92807 20.95373,-27.87697z" data-paper-data="{&quot;index&quot;:null}" fill="url(#color-1)" stroke="none" stroke-width="0"/><path d="M201.01448,430.82281c1.95925,1.20437 -3.46901,7.43888 -6.10106,11.72064c-2.63205,4.28176 -17.17627,14.12152 -19.13552,12.91714c-0.20503,-0.12603 -7.44673,3.80159 -8.43005,3.76539c-0.90929,-0.03348 0.66322,-3.02612 0.56962,-3.2557c-0.3358,-0.82366 5.58182,-4.70966 11.42496,-8.91614c3.75945,-2.70641 7.28779,-6.93928 8.47592,-8.87211c2.63205,-4.28176 11.23688,-8.56359 13.19613,-7.35922z" data-paper-data="{&quot;index&quot;:null}" fill="#e6a892" stroke="#003737" stroke-width="0.5"/><path d="M163.04107,444.23278c0.63499,-0.90954 -7.12498,-5.82968 8.9059,4.71729c1.9878,1.3078 4.98581,5.67824 9.04247,5.11162c4.28433,-0.59842 9.71403,-7.26693 10.86501,-7.42631c5.29062,-0.7326 -6.58276,12.24644 -7.67342,13.80863c-1.09065,1.56219 -5.28051,0.41504 -9.3583,-2.56226c-1.3215,-0.96485 -19.6754,-13.80931 -21.68754,-16.18133c-1.81725,-2.14227 0.99525,-1.43792 4.07292,-0.8124c1.26138,0.25636 2.42941,0.46403 3.70292,0.83959c2.79524,0.82434 1.84288,2.91646 2.13004,2.50515z" data-paper-data="{&quot;index&quot;:null}" fill="#f1c1b0" stroke="#003737" stroke-width="0.5"/><path d="M160.66686,448.65391c0.58126,-0.94558 -7.54945,-5.23617 9.27184,4.00574c2.0858,1.14595 5.38529,5.24406 9.43465,4.38533c4.27663,-0.90692 9.31789,-7.89676 10.46689,-8.13904c5.28152,-1.11363 -5.84519,12.58696 -6.84355,14.21108c-0.99836,1.62412 -5.29168,0.79908 -9.5894,-1.84278c-1.39276,-0.85615 -20.70089,-12.19736 -22.8794,-14.39321c-1.96751,-1.98315 0.91025,-1.49427 4.05,-1.10281c1.28682,0.16044 2.47652,0.27964 3.78319,0.55697c2.86805,0.60874 2.04292,2.74636 2.30578,2.31874z" data-paper-data="{&quot;index&quot;:null}" fill="#d59d89" stroke="#003737" stroke-width="0.5"/><path d="M158.30162,451.98861c0.58126,-0.94558 -7.54945,-5.23617 9.27184,4.00574c2.0858,1.14595 5.38529,5.24406 9.43465,4.38533c4.27663,-0.90692 9.31789,-7.89676 10.46689,-8.13904c5.28152,-1.11363 -5.84519,12.58696 -6.84355,14.21108c-0.99836,1.62412 -5.29168,0.79908 -9.5894,-1.84278c-1.39276,-0.85615 -20.70089,-12.19736 -22.8794,-14.39321c-1.96751,-1.98315 0.91025,-1.49427 4.05,-1.10281c1.28682,0.16044 2.47652,0.27964 3.78319,0.55697c2.86805,0.60874 2.04292,2.74636 2.30578,2.31874z" data-paper-data="{&quot;index&quot;:null}" fill="#f1c1b0" stroke="#003737" stroke-width="0.5"/><path d="M195.12823,434.12703c5.27377,-4.59253 11.03993,-6.21045 12.87907,-3.61372c1.83914,2.59673 -0.94518,8.42477 -6.21896,13.01731c-5.27378,4.59252 -15.94073,15.72203 -17.77987,13.12529c-1.83914,-2.59673 5.84599,-17.93636 11.11976,-22.5289z" data-paper-data="{&quot;index&quot;:null}" fill="#f1c1b0" stroke="#003737" stroke-width="0.5"/><path d="M191.38379,446.90794c1.68593,-2.74264 7.5346,-10.7445 10.33816,-13.02555c5.95017,-4.8412 9.70199,-2.65074 11.76407,-1.38315c3.03368,1.86484 -5.85219,12.59834 -11.11628,21.16187c-1.62656,2.64606 -14.57227,12.71813 -18.53921,15.12964c-8.87136,5.39288 -19.20176,-4.44054 -21.29806,-5.72916c-0.47936,-0.29466 -3.35407,-4.07172 -4.51983,-7.29412c-1.49058,-4.12027 0.25563,-10.00841 2.70125,-10.16535c1.36456,-0.08756 2.23773,8.99131 5.99053,12.43546c1.20426,1.1052 5.22566,2.23725 6.01041,2.4049c3.05971,0.65365 4.70174,2.44203 6.6497,1.67911c2.13551,-0.83638 4.66608,-6.67886 6.46934,-7.82548c2.27853,-1.44882 4.52144,-5.71507 5.54993,-7.38818z" data-paper-data="{&quot;index&quot;:null}" fill="#ffddd1" stroke="#003737" stroke-width="0.5"/><path d="M194.44656,437.37822c0,0 -3.44349,6.18153 -10.52703,0.81227c-2.74725,-2.08242 -6.71277,-26.57735 -6.71277,-26.57735c0,0 -1.67777,-5.99195 -5.0031,-12.44957c-1.27222,-2.47058 -2.78558,-5.00935 -4.53842,-7.3068c-1.59514,-2.09075 -4.42426,-9.36392 -6.18637,-11.6969c-9.91197,-13.12318 -21.71859,-29.1739 -27.01607,-37.97426c-5.72616,-9.51251 -11.51682,-31.77488 -11.51682,-31.77488c0,0 2.76923,-10.95588 6.31795,-13.20946c3.77791,-2.39911 15.70501,-0.776 15.70501,-0.776c0,0 16.93632,12.33187 19.89943,17.2543c8.42447,13.99504 46.52354,113.16936 46.52354,113.16936z" data-paper-data="{&quot;index&quot;:null}" fill="#412a6a" stroke="none" stroke-width="0"/><path d="M149.99139,305.00006c4.54557,-7.39465 13.34825,-15.6431 15.49265,-29.14823c2.80102,-17.64039 -1.52107,-40.01255 1.4509,-38.18565c5.24725,3.22554 10.19692,48.7379 -7.73876,65.13752c-4.90588,4.48574 -4.44774,15.12429 -5.64723,24.33819c-2.41259,18.53225 6.11283,38.13076 2.60808,35.97635c-5.24725,-3.22554 -16.64865,-41.06462 -6.16565,-58.11816z" data-paper-data="{&quot;index&quot;:null}" fill="url(#color-2)" stroke="none" stroke-width="0"/><path d="M172.20256,383.62079c1.40527,-6.99792 22.82302,31.49031 22.19861,23.65269c-0.8035,-10.08538 -11.76931,-42.65785 -9.56057,-42.21432c3.92522,0.78823 16.78351,28.49512 13.56997,44.49793c-3.21356,16.00283 -5.0522,34.69119 -8.97742,33.90296c-1.84983,-0.37146 1.60671,-22.60262 -1.5263,-32.99907c-3.51508,-11.66425 -17.40341,-18.37894 -15.7043,-26.84018z" data-paper-data="{&quot;index&quot;:null}" fill="url(#color-3)" stroke="none" stroke-width="0"/></g></g></svg>