<svg version="1.1" xmlns="http://www.w3.org/2000/svg" xmlns:xlink="http://www.w3.org/1999/xlink" width="186.33421" height="177.54201" viewBox="0,0,186.33421,177.54201"><defs><radialGradient cx="184.33526" cy="207.75098" r="37" gradientUnits="userSpaceOnUse" id="color-1"><stop offset="0" stop-color="#ffffff"/><stop offset="1" stop-color="#594384"/></radialGradient><radialGradient cx="82.36528" cy="271.85848" r="43" gradientUnits="userSpaceOnUse" id="color-2"><stop offset="0" stop-color="#ffffff"/><stop offset="1" stop-color="#594384"/></radialGradient><radialGradient cx="122.74785" cy="194.89259" r="26.5" gradientUnits="userSpaceOnUse" id="color-3"><stop offset="0" stop-color="#ffffff"/><stop offset="1" stop-color="#594384"/></radialGradient></defs><g transform="translate(-67.69705,-125.31635)"><g data-paper-data="{&quot;isPaintingLayer&quot;:true}" fill-rule="nonzero" stroke-linecap="butt" stroke-linejoin="miter" stroke-miterlimit="10" stroke-dasharray="" stroke-dashoffset="0" style="mix-blend-mode: normal"><path d="M102.61201,298.42797c0,0 -14.19816,4.91136 -17.29829,2.28037c-6.40222,-5.43338 -4.03195,-21.37028 -1.75261,-27.34409c0.63442,-1.6627 9.76472,-2.43479 19.53593,-10.29164c10.43739,-8.39253 20.85817,-21.96321 20.85817,-21.96321c0,0 8.13897,-11.73561 19.59866,-18.48131c1.70134,-2.12579 13.63736,-8.82439 15.5417,-11.17612c5.19164,-6.41135 7.63164,-4.68914 12.51222,-13.06104c5.18958,-8.90198 7.00782,-11.8284 10.93933,-15.60679c8.24627,-7.9251 31.36475,-17.59232 31.36475,-17.59232c0,0 29.41751,-0.18743 32.99051,3.53038c3.80375,3.95792 6.01166,14.79756 6.01166,14.79756c0,0 3.14626,21.3375 -1.12093,25.43848c-2.10088,2.01905 3.44117,4.87518 -6.86328,9.92434c-3.4097,1.67074 -42.73868,14.268 -46.05787,15.69572c-4.45178,1.9149 -16.76915,5.49886 -20.62633,8.04856c-4.10526,2.7137 -3.82433,5.07246 -7.96945,8.04773c-16.332,11.72271 -35.59108,21.36362 -45.69903,29.45912c-9.05198,7.24977 -14.73928,13.16725 -14.73928,13.16725z" data-paper-data="{&quot;index&quot;:null}" fill="#412a6a" stroke="none" stroke-width="0"/><path d="M133.2317,234.50314c1.31311,-3.64183 15.77628,-11.24346 29.16713,-19.11709c8.57804,-5.04377 19.6449,-15.90242 24.31075,-14.22008c11.94952,4.30857 32.87469,12.01154 30.72041,17.98629c-2.15428,5.97475 -9.85659,-3.02243 -21.80611,-7.331c-3.48309,-1.25588 -9.7285,-3.709 -17.36617,-0.88994c-18.56512,6.85238 -46.55234,27.80504 -45.026,23.57181z" data-paper-data="{&quot;index&quot;:null}" fill="url(#color-1)" stroke="none" stroke-width="0"/><path d="M182.81002,151.00298c-0.51837,-0.84974 0.45471,-3.20736 2.08783,-5.54379c1.31182,-1.87674 0.30057,-4.40567 2.03325,-5.46265c1.31161,-0.80011 5.92056,-1.28856 8.06651,-3.31945c4.21815,-3.99198 6.41719,-5.86346 7.03675,-4.84783c0.47367,0.77648 -3.5359,6.15534 -7.19137,12.34034c-3.55832,6.02063 -9.41637,7.2871 -11.33504,8.45754c-3.88973,2.37282 0.23683,-0.09184 -0.69792,-1.62416z" data-paper-data="{&quot;index&quot;:null}" fill="#463d3a" stroke="#003737" stroke-width="0.5"/><path d="M142.43307,176.8788c-2.24547,-2.97578 2.9333,-18.04803 10.86871,-24.03594c2.06197,-1.55594 2.6166,-0.05705 6.18707,-1.1316c2.23414,-0.67238 5.61389,0.10896 11.06353,-2.16181c3.50529,-1.4606 9.4285,-5.77937 11.27096,-7.26435c4.91021,-3.95752 9.05523,0.2295 10.11729,1.63699c2.24547,2.97579 -15.33816,12.88862 -23.27357,18.87653c-7.93542,5.98791 -23.98853,17.05597 -26.234,14.08019z" data-paper-data="{&quot;index&quot;:null}" fill="#ffddd1" stroke="#003737" stroke-width="0.5"/><path d="M127.16074,159.54017c-1.24187,-2.38022 0.82002,-13.55027 3.60037,-17.09493c3.22521,-4.11181 7.75686,-0.6739 14.59377,-4.24104c12.73079,-6.64226 25.22568,-7.85903 27.90813,-2.71775c2.68245,5.14128 2.53518,11.64844 -9.7716,16.94154c-2.24106,0.96387 -3.82102,5.1229 -6.12743,10.12606c-2.06901,4.48818 -13.21018,14.35945 -15.15407,16.36453c-6.09263,6.28445 -13.52794,2.17272 -16.50136,0.91401c-0.6096,-0.25806 -1.64887,-1.27706 -1.07934,-6.04984c0.59372,-4.97549 2.8054,-13.71773 2.53154,-14.24262z" data-paper-data="{&quot;index&quot;:null}" fill="#ffddd1" stroke="#003737" stroke-width="0.5"/><path d="M143.00367,163.96335c-0.84936,-1.6279 -6.16998,-7.43056 -6.58028,-10.8108c-0.42272,-3.48262 -1.47256,-4.44441 1.26066,-5.87046c5.3861,-2.81018 11.45874,2.50579 13.18317,5.8109c1.31021,2.51119 0.1619,7.53738 -2.94815,10.28974c-0.98325,0.87017 -2.3881,0.10793 -3.68189,0.78297c-1.09732,0.57252 -0.70631,8.85035 -1.39763,9.21112c-2.70194,1.41001 1.53723,-6.78174 0.16412,-9.41349z" data-paper-data="{&quot;index&quot;:null}" fill="#c9927d" stroke="#003737" stroke-width="0"/><path d="M140.3909,175.28499c0,0 6.18793,-1.40182 6.84418,6.54108c0.2545,3.08056 -13.7232,20.39147 -13.7232,20.39147c0,0 -2.99554,4.70705 -5.31565,10.79269c-0.88764,2.32829 -1.67642,4.85835 -2.16077,7.40381c-0.44076,2.31645 -3.60234,8.55907 -4.10485,11.13199c-2.82666,14.47286 -6.47339,31.96305 -9.17678,40.76767c-2.92215,9.51712 -14.31689,26.7099 -14.31689,26.7099c0,0 -8.9714,4.71005 -12.6002,3.69019c-3.86316,-1.08573 -9.91972,-10.01936 -9.91972,-10.01936c0,0 -1.90665,-18.68827 -0.39452,-23.61308c4.29915,-14.00182 47.69537,-98.80498 47.69537,-98.80498z" data-paper-data="{&quot;index&quot;:null}" fill="#412a6a" stroke="none" stroke-width="0"/><path d="M83.12561,278.83502c-17.65969,3.21104 0.08472,22.13351 -0.9033,16.69975c-0.98802,-5.43376 -27.75795,-23.68507 -6.07328,-21.52959c5.93133,0.58957 12.75884,-6.08496 19.62767,-10.80008c13.81552,-9.48369 21.79485,-26.90737 22.45477,-23.27805c0.98802,5.43375 -17.44616,35.69691 -35.10585,38.90796z" data-paper-data="{&quot;index&quot;:null}" fill="url(#color-2)" stroke="none" stroke-width="0"/><path d="M117.8213,222.31555c-5.51273,3.25117 7.35854,-34.08702 2.50034,-28.97825c-6.25151,6.57393 -21.4307,33.39348 -22.45686,31.65351c-1.82362,-3.09216 8.97462,-28.26228 21.5811,-35.69706c12.60649,-7.43477 26.18263,-17.39505 28.00625,-14.3029c0.85941,1.45722 -16.05027,12.45835 -21.11488,20.77356c-5.6822,9.32923 -1.85045,22.6201 -8.51593,26.55113z" data-paper-data="{&quot;index&quot;:null}" fill="url(#color-3)" stroke="none" stroke-width="0"/><g data-paper-data="{&quot;index&quot;:null}" stroke="#003737" stroke-width="0.5"><path d="M162.13016,135.94944c-4.80666,-2.71989 -12.11681,-6.58697 -10.55286,-9.3508c1.56395,-2.76384 12.06143,0.60028 16.86809,3.32019c2.567,1.45257 12.80575,5.6837 13.82354,7.60159c0.47716,0.89915 -11.48494,23.92277 -13.66301,24.14577c-0.79684,0.08158 -3.07764,-0.02648 -1.72165,-4.64821c1.83526,-6.25526 7.62647,-17.51262 7.43258,-17.16998c-1.56394,2.76383 -7.38002,-1.17866 -12.18668,-3.89857z" fill="#e6a892"/><path d="M166.46484,162.56078c-1.04378,-1.28674 0.02242,-3.88113 2.38144,-5.79472c2.35901,-1.91359 4.07753,-6.08487 5.12131,-4.79814c1.04379,1.28674 -6.26522,16.02722 -8.62424,17.94081c-2.35903,1.9136 2.16527,-6.06121 1.12149,-7.34794z" fill="#463d3a"/></g><g data-paper-data="{&quot;index&quot;:null}" stroke="#003737" stroke-width="0.5"><path d="M152.61775,139.77459c-5.07326,-2.93847 -12.776,-7.1266 -11.29963,-9.97309c0.88239,-1.70127 5.55597,-3.51933 9.93123,-2.0944c2.94523,0.9592 5.53394,4.73704 7.57505,5.91926c2.70938,1.5693 13.4414,6.20016 14.57974,8.22089c0.53369,0.94737 -10.6685,24.6827 -12.89785,24.868c-0.8156,0.0678 -3.1664,-0.09412 -1.99267,-4.88133c1.58857,-6.47922 7.00658,-18.08582 6.82355,-17.73294c-1.47637,2.8465 -7.64617,-1.38791 -12.71943,-4.32638z" fill="#f4b7a2"/><path d="M158.34707,167.60126c-1.13493,-1.36353 -0.16236,-4.0442 2.1723,-5.98744c2.33465,-1.94324 3.90273,-6.25318 5.03766,-4.88963c1.13493,1.36353 -5.67762,16.56721 -8.01228,18.51045c-2.33466,1.94324 1.93724,-6.26983 0.80231,-7.63338z" fill="#463d3a"/></g><g data-paper-data="{&quot;index&quot;:null}" stroke="#003737" stroke-width="0.5"><path d="M145.49959,145.58818c-4.81134,-2.43647 -12.12921,-5.88694 -10.55548,-8.54683c1.1226,-1.89739 2.65035,-7.83537 7.5562,-6.26566c1.97149,0.63081 7.96317,8.22737 9.34241,8.92581c2.56951,1.3012 12.82177,5.01256 13.83751,6.79829c0.47619,0.83719 -11.56495,22.96452 -13.74845,23.23771c-0.79883,0.09995 -3.08451,0.06282 -1.71501,-4.34916c1.85355,-5.97136 7.68327,-16.78884 7.48818,-16.45909c-1.57372,2.65989 -7.39399,-0.9046 -12.20533,-3.34107z" fill="#ffc6b3"/><path d="M152.18378,165.09397c2.36866,-1.87807 4.10049,-5.87415 5.14371,-4.68639c1.04322,1.18776 -6.31562,15.34442 -8.68428,17.22248c-2.36866,1.87807 2.18386,-5.79716 1.14064,-6.98492c-1.04322,-1.18776 0.03127,-3.67311 2.39993,-5.55117z" fill="#463d3a"/></g><g data-paper-data="{&quot;index&quot;:null}" stroke="#003737" stroke-width="0.5"><path d="M141.06483,149.95115c-3.89717,-2.25726 -12.9751,-7.20908 -11.84099,-9.3957c0.41404,-0.79829 4.63192,-5.22097 6.41298,-4.94762c3.09746,0.4754 7.0083,5.73946 9.48268,7.17265c2.08128,1.20551 11.03849,7.21057 11.91294,8.76284c0.40995,0.72774 -8.19529,18.96066 -9.90783,19.103c-0.62653,0.05208 -2.43236,-0.0723 -1.53073,-3.74972c0.56307,-2.29656 -1.3313,-2.69486 -0.22729,-5.37914c1.28863,-3.13315 5.54471,-8.38887 5.46898,-8.24287c-1.13411,2.1866 -5.8736,-1.06616 -9.77076,-3.32343z" fill="#ffd0c1"/><path d="M147.13465,166.72754c1.79342,-1.49274 2.99799,-4.80353 3.86982,-3.75609c0.87184,1.04743 -4.36141,12.72654 -6.15484,14.21929c-1.79343,1.49275 1.48814,-4.81634 0.61631,-5.86378c-0.87183,-1.04744 -0.12472,-3.10667 1.66871,-4.59942z" fill="#463d3a"/></g></g></g></svg>