<svg version="1.1" xmlns="http://www.w3.org/2000/svg" xmlns:xlink="http://www.w3.org/1999/xlink" width="209.86689" height="130.10052" viewBox="0,0,209.86689,130.10052"><defs><radialGradient cx="186.9172" cy="172.36749" r="37" gradientUnits="userSpaceOnUse" id="color-1"><stop offset="0" stop-color="#ffffff"/><stop offset="1" stop-color="#594384"/></radialGradient><radialGradient cx="66.69218" cy="179.68817" r="43" gradientUnits="userSpaceOnUse" id="color-2"><stop offset="0" stop-color="#ffffff"/><stop offset="1" stop-color="#594384"/></radialGradient><radialGradient cx="139.05144" cy="131.53593" r="26.5" gradientUnits="userSpaceOnUse" id="color-3"><stop offset="0" stop-color="#ffffff"/><stop offset="1" stop-color="#594384"/></radialGradient></defs><g transform="translate(-51.03745,-82.61354)"><g data-paper-data="{&quot;isPaintingLayer&quot;:true}" fill-rule="nonzero" stroke-linecap="butt" stroke-linejoin="miter" stroke-miterlimit="10" stroke-dasharray="" stroke-dashoffset="0" style="mix-blend-mode: normal"><path d="M71.708,212.71406c0,0 -14.81361,-2.50324 -16.27123,-6.29906c-3.01019,-7.83893 6.71602,-20.68431 11.58212,-24.83194c1.3544,-1.15441 9.73555,2.54893 22.07832,0.3438c13.18428,-2.35549 28.83849,-9.26213 28.83849,-9.26213c0,0 12.77173,-6.39142 26.0628,-6.81152c2.51268,-1.04881 16.19907,-1.19903 18.99826,-2.34867c7.63121,-3.13419 8.94568,-0.45244 17.24466,-5.45601c8.82442,-5.32039 11.82381,-7.01556 17.08611,-8.44427c11.03757,-2.99669 35.95954,-0.38612 35.95954,-0.38612c0,0 25.90013,13.95021 27.25117,18.92647c1.43829,5.29764 -1.82545,15.86744 -1.82545,15.86744c0,0 -7.47738,20.23059 -13.18898,21.78127c-2.81201,0.76345 0.68006,5.92845 -10.78342,5.41434c-3.79322,-0.17012 -44.34372,-7.98782 -47.94092,-8.32774c-4.82466,-0.4559 -17.35122,-3.22135 -21.95877,-2.835c-4.9039,0.41121 -5.78916,2.61552 -10.85354,3.2371c-19.9539,2.44905 -41.4771,1.66715 -54.22982,3.9201c-11.42046,2.01759 -19.24959,4.48065 -19.24959,4.48065z" data-paper-data="{&quot;index&quot;:null}" fill="#412a6a" stroke="none" stroke-width="0"/><path d="M129.24439,171.31945c2.89946,-2.56522 19.23638,-2.2952 34.76299,-2.77834c9.94619,-0.3095 24.86601,-4.52668 28.15251,-0.81194c8.41694,9.51367 23.08025,26.31206 18.32343,30.52052c-4.75682,4.20847 -7.19775,-7.38104 -15.6147,-16.89471c-2.4534,-2.77308 -6.75595,-7.92196 -14.80965,-9.11318c-19.57638,-2.89552 -54.18486,2.05943 -50.81457,-0.92236z" data-paper-data="{&quot;index&quot;:null}" fill="url(#color-1)" stroke="none" stroke-width="0"/><path d="M212.80695,121.84638c-0.0471,-0.99426 1.93786,-2.59589 4.49175,-3.86223c2.05143,-1.01719 2.37757,-3.72121 4.40493,-3.81723c1.53467,-0.07268 5.81281,1.71016 8.67004,0.95794c5.61627,-1.47858 8.4436,-2.06546 8.49988,-0.8771c0.04303,0.90853 -6.05567,3.704 -12.23048,7.37666c-6.01071,3.57505 -11.75808,1.8755 -14.00305,1.98183c-4.55124,0.21554 0.25185,0.03305 0.16694,-1.75986z" data-paper-data="{&quot;index&quot;:null}" fill="#463d3a" stroke="#003737" stroke-width="0.5"/><path d="M164.96587,125.17614c-0.54233,-3.68826 11.23313,-14.42749 21.06849,-15.87369c2.55567,-0.3758 2.32311,1.2054 5.97133,1.97575c2.28279,0.48202 4.87321,2.78917 10.74412,3.41161c3.77626,0.40036 11.0453,-0.54684 13.37433,-0.9657c6.20693,-1.11629 7.83472,4.5461 8.09123,6.29058c0.54232,3.68827 -19.64134,3.94884 -29.4767,5.39504c-9.83537,1.44619 -29.23048,3.45468 -29.77281,-0.23358z" data-paper-data="{&quot;index&quot;:null}" fill="#ffddd1" stroke="#003737" stroke-width="0.5"/><path d="M159.88545,102.63592c0.05245,-2.6842 7.22095,-11.49522 11.3611,-13.2712c4.80259,-2.06013 7.12902,3.13051 14.83908,3.28117c14.35667,0.28054 25.90319,5.20808 25.7899,11.00596c-0.11329,5.79788 -3.36467,11.43645 -16.70199,10.17563c-2.42872,-0.2296 -5.81046,2.66136 -10.23459,5.94439c-3.96875,2.9451 -18.48002,6.26032 -21.14758,7.08684c-8.36083,2.59055 -12.91156,-4.58448 -14.91643,-7.1155c-0.41103,-0.5189 -0.83394,-1.9116 1.95575,-5.82585c2.90818,-4.0805 9.04322,-10.68955 9.05479,-11.28148z" data-paper-data="{&quot;index&quot;:null}" fill="#ffddd1" stroke="#003737" stroke-width="0.5"/><path d="M171.66339,114.11822c0.03587,-1.83581 -1.84817,-9.47978 -0.5863,-12.64238c1.30009,-3.25839 0.84046,-4.60596 3.92275,-4.54573c6.07397,0.11869 8.85133,7.69647 8.77849,11.42369c-0.05533,2.8319 -3.47442,6.69079 -7.5237,7.61343c-1.28019,0.2917 -2.14705,-1.05113 -3.60607,-1.07963c-1.23746,-0.02418 -4.86614,7.42619 -5.64578,7.41102c-3.04714,-0.0593 4.60264,-5.21256 4.66063,-8.18042z" data-paper-data="{&quot;index&quot;:null}" fill="#c9927d" stroke="#003737" stroke-width="0"/><path d="M163.93883,122.79792c0,0 6.10174,1.73907 2.86647,9.02285c-1.25477,2.82492 -21.82432,11.30652 -21.82432,11.30652c0,0 -4.88668,2.69258 -9.8422,6.91877c-1.89592,1.61689 -3.80191,3.45824 -5.44819,5.45917c-1.49816,1.82092 -7.26729,5.7811 -8.94267,7.79741c-9.42419,11.34189 -21.01561,24.93763 -27.612,31.36549c-7.13018,6.94803 -25.37682,16.5653 -25.37682,16.5653c0,0 -10.13119,-0.17204 -12.82568,-2.80795c-2.8685,-2.80615 -3.89598,-13.55027 -3.89598,-13.55027c0,0 7.29387,-17.31145 10.98352,-20.90683c10.49011,-10.2221 89.25383,-63.8046 89.25383,-63.8046z" data-paper-data="{&quot;index&quot;:null}" fill="#412a6a" stroke="none" stroke-width="0"/><path d="M64.0119,186.17402c-17.03485,-5.65591 -10.54543,19.46005 -8.80515,14.21854c1.74028,-5.2415 -12.98994,-34.09909 5.00145,-21.80352c4.92112,3.36315 14.11388,0.78296 22.40276,-0.05828c16.67172,-1.69201 32.03254,-13.15059 30.87018,-9.64969c-1.74027,5.2415 -32.43437,22.94884 -49.46923,17.29294z" data-paper-data="{&quot;index&quot;:null}" fill="url(#color-2)" stroke="none" stroke-width="0"/><path d="M121.57134,153.23238c-6.39666,0.20746 22.81131,-26.37645 16.09763,-24.22513c-8.63912,2.7683 -34.82511,19.01607 -34.8906,16.99711c-0.11637,-3.58797 21.43448,-20.49056 36.06234,-20.96501c14.62786,-0.47443 31.31822,-2.69944 31.43459,0.88851c0.05484,1.69088 -20.05969,3.22966 -28.49293,8.09519c-9.46163,5.45889 -12.47677,18.95846 -20.21102,19.20933z" data-paper-data="{&quot;index&quot;:null}" fill="url(#color-3)" stroke="none" stroke-width="0"/><g data-paper-data="{&quot;index&quot;:null}" stroke="#003737" stroke-width="0.5"><path d="M201.8857,98.71648c-2.91223,-4.69262 -7.47053,-11.59295 -4.77226,-13.26747c2.69827,-1.67453 10.29438,6.3138 13.2066,11.00644c1.55527,2.50611 8.50838,11.131 8.48116,13.30205c-0.01277,1.01784 -21.55486,15.47872 -23.57284,14.62933c-0.73827,-0.31075 -2.68754,-1.4999 0.7197,-4.90428c4.61151,-4.60764 15.09391,-11.70593 14.7594,-11.49833c-2.69826,1.67453 -5.90952,-4.57509 -8.82174,-9.26773z" fill="#e6a892"/><path d="M192.9206,124.14441c-0.2984,-1.62976 1.88185,-3.39445 4.86975,-3.94152c2.98789,-0.54707 6.49707,-3.3823 6.79548,-1.75254c0.29841,1.62977 -13.18688,11.05581 -16.17478,11.60288c-2.98791,0.54707 4.80795,-4.27905 4.50954,-5.90881z" fill="#463d3a"/></g><g data-paper-data="{&quot;index&quot;:null}" stroke="#003737" stroke-width="0.5"><path d="M191.70442,97.50847c-3.04126,-5.01231 -7.78997,-12.38269 -5.12888,-14.17176c1.59046,-1.06928 6.56326,-0.42199 9.71832,2.92747c2.12384,2.25471 2.58249,6.81137 3.80607,8.82796c1.62419,2.67684 8.81829,11.88911 8.84748,14.20823c0.01369,1.08727 -21.20315,16.5372 -23.24804,15.63012c-0.74812,-0.33184 -2.73296,-1.60183 0.59376,-5.23885c4.50253,-4.9225 14.82506,-12.50626 14.49516,-12.28447c-2.66109,1.78908 -6.04264,-4.88639 -9.0839,-9.8987z" fill="#f4b7a2"/><path d="M183.37982,124.67186c-0.34153,-1.74087 1.79798,-3.62618 4.77872,-4.21095c2.98074,-0.58478 6.42446,-3.61384 6.76599,-1.87295c0.34153,1.74087 -12.93043,11.81151 -15.91118,12.39628c-2.98075,0.58477 4.70798,-4.5715 4.36646,-6.31239z" fill="#463d3a"/></g><g data-paper-data="{&quot;index&quot;:null}" stroke="#003737" stroke-width="0.5"><path d="M182.66974,99.19385c-3.05232,-4.4462 -7.81729,-10.98471 -5.16031,-12.56335c1.89532,-1.12609 6.0848,-5.60291 9.63592,-1.87184c1.42707,1.49939 3.03916,11.03926 3.91416,12.31382c1.6301,2.3745 8.84446,10.54984 8.87884,12.60395c0.01611,0.96301 -21.16528,14.59959 -23.21211,13.79163c-0.74883,-0.29559 -2.73641,-1.42485 0.58204,-4.63872c4.49135,-4.34978 14.79647,-11.04365 14.46709,-10.84794c-2.65697,1.57864 -6.05327,-4.34134 -9.1056,-8.78755z" fill="#ffc6b3"/><path d="M179.17532,119.51485c2.97931,-0.51128 6.41611,-3.1864 6.76152,-1.64375c0.3454,1.54265 -12.90349,10.43255 -15.8828,10.94382c-2.97931,0.51128 4.69757,-4.03846 4.35217,-5.58111c-0.3454,-1.54265 1.78981,-3.20769 4.76912,-3.71896z" fill="#463d3a"/></g><g data-paper-data="{&quot;index&quot;:null}" stroke="#003737" stroke-width="0.5"><path d="M176.68542,100.89399c-2.33624,-3.85034 -7.92508,-12.55058 -5.88089,-13.92492c0.74629,-0.50174 6.56898,-2.35833 8.00048,-1.26394c2.48954,1.90328 3.39509,8.39828 4.8784,10.84294c1.24765,2.05629 6.22523,11.62269 6.24767,13.40418c0.01051,0.8352 -16.28776,12.70348 -17.85859,12.00668c-0.57469,-0.25492 -2.0994,-1.23049 0.45611,-4.02436c1.59592,-1.74478 0.12496,-3.00317 2.38152,-4.82858c2.63391,-2.13066 8.88981,-4.69981 8.75332,-4.60805c-2.04418,1.37432 -4.6418,-3.7536 -6.97803,-7.60395z" fill="#ffd0c1"/><path d="M173.96154,118.52551c2.28973,-0.4492 4.93512,-2.77605 5.19747,-1.43874c0.26237,1.3373 -9.93285,9.07333 -12.22259,9.52253c-2.28974,0.44921 3.61656,-3.51172 3.3542,-4.84903c-0.26236,-1.33731 1.38117,-2.78556 3.67091,-3.23476z" fill="#463d3a"/></g></g></g></svg>