<svg version="1.1" xmlns="http://www.w3.org/2000/svg" xmlns:xlink="http://www.w3.org/1999/xlink" width="319.16483" height="185.2896" viewBox="0,0,319.16483,185.2896"><defs><radialGradient cx="185.88904" cy="180.33604" r="37" gradientUnits="userSpaceOnUse" id="color-1"><stop offset="0" stop-color="#ffffff"/><stop offset="1" stop-color="#594384"/></radialGradient><radialGradient cx="59.42076" cy="212.88931" r="43" gradientUnits="userSpaceOnUse" id="color-2"><stop offset="0" stop-color="#ffffff"/><stop offset="1" stop-color="#594384"/></radialGradient><radialGradient cx="-1.89348" cy="151.28521" r="26.5" gradientUnits="userSpaceOnUse" id="color-3"><stop offset="0" stop-color="#ffffff"/><stop offset="1" stop-color="#594384"/></radialGradient></defs><g transform="translate(59.70131,-48.04007)"><g data-paper-data="{&quot;isPaintingLayer&quot;:true}" fill-rule="nonzero" stroke-linecap="butt" stroke-linejoin="miter" stroke-miterlimit="10" stroke-dasharray="" stroke-dashoffset="0" style="mix-blend-mode: normal"><g data-paper-data="{&quot;index&quot;:null}"><g stroke="#003737" stroke-width="0.5"><path d="M-8.69081,74.87311c-0.99488,-0.03111 -2.43574,-2.13567 -3.49768,-4.78109c-0.853,-2.12496 -3.52308,-2.66237 -3.45964,-4.69101c0.04802,-1.53564 2.16122,-5.66062 1.63564,-8.56808c-1.03311,-5.71501 -1.39622,-8.57969 -0.20711,-8.5425c0.90911,0.02843 3.21717,6.32777 6.39373,12.77185c3.09215,6.27282 0.94664,11.86902 0.8764,14.11542c-0.14242,4.55412 0.05272,-0.24848 -1.74132,-0.30459z" fill="#463d3a"/><path d="M-17.47013,124.25267c-3.72242,-0.20256 -11.90328,-13.87976 -11.36314,-23.80619c0.14035,-2.57933 1.64363,-2.03674 3.12463,-5.45867c0.92669,-2.1412 3.70323,-4.22063 5.48164,-9.85021c1.1439,-3.62104 1.66231,-10.93319 1.71535,-13.29898c0.14134,-6.30493 6.01441,-6.77324 7.77504,-6.67743c3.72242,0.20256 -0.03914,20.03433 -0.57929,29.96076c-0.54015,9.92644 -2.43182,29.33328 -6.15423,29.13074z" fill="#ffddd1"/></g><path d="M75.92232,233.32967c0,0 -15.00075,-0.8287 -16.87424,-4.43743c-3.86904,-7.45255 4.35761,-21.30626 8.72867,-25.9727c1.21661,-1.29882 9.95974,1.44274 21.97796,-2.13064c12.8376,-3.81702 27.61997,-12.43314 27.61997,-12.43314c0,0 11.97571,-7.78137 25.13615,-9.68712c2.37943,-1.32357 15.96292,-3.00542 18.61578,-4.46128c7.23226,-3.969 8.83876,-1.45131 16.52526,-7.35271c8.17316,-6.27507 10.96386,-8.29544 16.03308,-10.30442c10.63259,-4.2138 35.69014,-4.41034 35.69014,-4.41034c0,0 27.29934,10.96225 29.19911,15.75592c2.02246,5.10326 -0.03718,15.97205 -0.03718,15.97205c0,0 -5.16499,20.94065 -10.66702,23.12115c-2.70884,1.07353 1.33964,5.81501 -10.10931,6.58778c-3.78841,0.2557 -44.95928,-2.9721 -48.57193,-2.90707c-4.84537,0.08722 -17.60281,-1.25815 -22.13812,-0.35829c-4.82701,0.95775 -5.45987,3.24733 -10.42279,4.43209c-19.55417,4.66803 -41.02956,6.30116 -53.4498,9.96796c-11.12271,3.28373 -18.62679,6.60798 -18.62679,6.60798z" fill="#412a6a" stroke="none" stroke-width="0"/><path d="M128.46159,185.75264c2.59398,-2.87376 18.85839,-4.43481 34.23325,-6.65353c9.84897,-1.4213 24.20273,-7.28264 27.88454,-3.95927c9.42932,8.51133 25.88145,23.56211 21.62579,28.27676c-4.25566,4.71465 -7.97899,-6.52864 -17.40832,-15.03996c-2.74849,-2.48092 -7.60054,-7.11563 -15.73698,-7.39752c-19.77749,-0.6852 -53.61347,8.11395 -50.59826,4.77352z" fill="url(#color-1)" stroke="none" stroke-width="0"/><path d="M-34.29566,136.4742c-2.64308,0.47095 -12.68077,-4.84564 -15.22856,-8.56098c-2.95542,-4.3098 1.68318,-7.60197 0.33041,-15.19393c-2.51896,-14.13674 0.06714,-26.42148 5.77621,-27.43876c5.70907,-1.01727 11.8726,1.07454 13.23165,14.4022c0.24748,2.42697 3.74132,5.18139 7.8226,8.88197c3.66119,3.31966 9.73725,16.90824 11.06713,19.36394c4.16822,7.69678 -1.98393,13.55691 -4.07636,16.01604c-0.42899,0.50417 -1.71274,1.19003 -6.09509,-0.78451c-4.56848,-2.0584 -12.24517,-6.78986 -12.82803,-6.686z" fill="#ffddd1" stroke="#003737" stroke-width="0.5"/><path d="M-25.32517,122.68674c-1.80768,0.32212 -8.93881,3.65781 -12.28652,3.03559c-3.4491,-0.64107 -4.68145,0.07204 -5.22226,-2.96303c-1.06571,-5.98093 5.82663,-10.17999 9.49675,-10.83395c2.78853,-0.49687 7.23906,2.1058 8.93213,5.89809c0.53527,1.19894 -0.61316,2.31056 -0.35716,3.74724c0.21711,1.21851 8.23124,3.32778 8.3681,4.09547c0.53488,3.00041 -6.00867,-3.50014 -8.93106,-2.97941z" fill="#c9927d" stroke="#003737" stroke-width="0"/><path d="M-15.30804,128.57433c0,0 0.51828,-6.32352 8.29243,-4.56771c3.01511,0.68099 15.33783,19.20649 15.33783,19.20649c0,0 3.59215,4.2692 8.70198,8.30745c1.95497,1.54499 4.13206,3.05616 6.41513,4.28153c2.07767,1.11512 7.08494,6.00319 9.38876,7.25412c12.95916,7.03659 28.55089,15.76032 36.13964,20.97956c8.20286,5.6416 21.18745,21.66759 21.18745,21.66759c0,0 1.80301,9.97095 -0.25809,13.12692c-2.19422,3.35979 -12.53291,6.45867 -12.53291,6.45867c0,0 -18.39998,-3.7852 -22.6447,-6.70456c-12.06825,-8.30006 -79.95538,-75.12929 -79.95538,-75.12929z" fill="#412a6a" stroke="none" stroke-width="0"/><path d="M66.30423,214.25605c-2.23238,17.80988 21.14032,6.55641 15.66035,5.86952c-5.47997,-0.68689 -30.91891,19.37801 -22.35999,-0.66235c2.34108,-5.48157 -1.9789,-13.99638 -4.41725,-21.96304c-4.90435,-16.02362 -19.1334,-28.86062 -15.47321,-28.40184c5.47996,0.68687 28.82249,27.3478 26.59011,45.15768z" fill="url(#color-2)" stroke="none" stroke-width="0"/><path d="M22.79011,164.20844c1.44843,6.23397 -30.31169,-17.24166 -26.89486,-11.07505c4.39674,7.93515 25.43022,30.45823 23.4626,30.91539c-3.49671,0.81244 -24.27039,-17.03669 -27.58268,-31.29249c-3.31228,-14.25581 -8.74306,-30.19398 -5.24636,-31.00643c1.64787,-0.38288 7.07197,19.04754 13.48577,26.37258c7.19596,8.21828 21.0242,8.54844 22.77553,16.08597z" fill="url(#color-3)" stroke="none" stroke-width="0"/><g stroke="#003737" stroke-width="0.5"><path d="M-46.31434,96.03986c-4.0361,3.76983 -9.91733,9.58394 -12.08498,7.26316c-2.16767,-2.32078 4.18954,-11.32635 8.22567,-15.09618c2.15549,-2.01328 9.26223,-10.51204 11.39706,-10.90786c1.00085,-0.18557 19.37781,18.13018 18.9374,20.27488c-0.16113,0.78464 -0.94816,2.92807 -4.95058,0.24855c-5.41704,-3.62658 -14.4197,-12.52704 -14.15098,-12.23933c2.16766,2.32076 -3.33748,6.68694 -7.3736,10.45676z" fill="#e6a892"/><path d="M-19.62783,99.88469c-1.54052,0.60988 -3.69579,-1.18524 -4.81391,-4.00952c-1.11812,-2.82427 -4.5821,-5.71456 -3.04159,-6.32445c1.54053,-0.6099 13.41087,10.78302 14.52899,13.6073c1.11812,2.82431 -5.13297,-3.88321 -6.67348,-3.27332z" fill="#463d3a"/></g><g stroke="#003737" stroke-width="0.5"><path d="M-45.51775,106.26157c-4.32457,3.95861 -10.6298,10.05097 -12.90257,7.78896c-1.35838,-1.35195 -1.69129,-6.35563 0.98008,-10.10224c1.79826,-2.52206 6.17852,-3.85876 7.91841,-5.45142c2.30954,-2.11411 9.94553,-10.96356 12.21462,-11.44355c1.06381,-0.22504 20.34759,17.57919 19.85584,19.76151c-0.17989,0.7984 -1.0393,2.99246 -5.25423,0.43719c-5.70467,-3.4584 -15.15241,-12.10757 -14.87066,-11.82714c2.27277,2.26202 -3.61691,6.8781 -7.94149,10.83671z" fill="#f4b7a2"/><path d="M-22.3141,105.27258c-1.15371,-2.80993 -4.79508,-5.59828 -3.15395,-6.27209c1.64112,-0.67381 14.10222,10.38438 15.25593,13.19432c1.15371,2.80994 -5.40037,-3.72824 -7.0415,-3.05443c-1.64111,0.67381 -3.90677,-1.05786 -5.06048,-3.8678z" fill="#463d3a"/></g><g stroke="#003737" stroke-width="0.5"><path d="M-42.10624,114.79549c-3.76713,3.85929 -9.25324,9.80569 -11.3188,7.50675c-1.47343,-1.63992 -6.68001,-4.87799 -3.71141,-9.08736c1.19298,-1.6916 10.23668,-5.12954 11.31657,-6.23586c2.01184,-2.06107 8.62677,-10.72858 10.63492,-11.16208c0.94146,-0.20322 18.43966,17.91916 18.04551,20.08409c-0.1442,0.79203 -0.86503,2.96139 -4.66329,0.33189c-5.14073,-3.55889 -13.71221,-12.36419 -13.45614,-12.0792c2.06557,2.29893 -3.08022,6.78245 -6.84735,10.64174z" fill="#ffc6b3"/><path d="M-21.49372,114.26815c-1.08134,-2.82283 -4.37419,-5.67328 -2.92826,-6.31231c1.44593,-0.63903 12.74438,10.62634 13.82571,13.44917c1.08134,2.82283 -4.8755,-3.82176 -6.32143,-3.18273c-1.44593,0.63903 -3.4947,-1.1313 -4.57603,-3.95413z" fill="#463d3a"/></g><g stroke="#003737" stroke-width="0.5"><path d="M-39.27393,120.33448c-3.32203,3.04094 -10.76819,10.21617 -12.51409,8.47855c-0.63739,-0.63436 -3.59171,-5.98438 -2.79685,-7.6015c1.38237,-2.81235 7.57693,-4.96466 9.68616,-6.8954c1.77415,-1.624 10.18887,-8.36824 11.93193,-8.73696c0.81718,-0.17286 15.63053,13.50391 15.25278,15.18033c-0.13819,0.61331 -0.79837,2.29874 -4.03617,0.33585c-2.02202,-1.22583 -2.97005,0.46192 -5.19974,-1.39623c-2.60253,-2.16887 -6.3401,-7.80513 -6.22353,-7.68911c1.74588,1.73761 -2.77843,5.28358 -6.10047,8.32449z" fill="#ffd0c1"/><path d="M-17.56207,122.54595c-1.26068,0.51761 -3.00111,-0.81262 -3.88736,-2.97115c-0.88625,-2.15852 -3.68345,-4.30047 -2.42278,-4.81808c1.26067,-0.51763 10.83299,7.97703 11.71924,10.13556c0.88626,2.15853 -4.14844,-2.86394 -5.40911,-2.34633z" fill="#463d3a"/></g></g></g></g></svg>