<svg version="1.1" xmlns="http://www.w3.org/2000/svg" xmlns:xlink="http://www.w3.org/1999/xlink" width="201.42214" height="81.18978" viewBox="0,0,201.42214,81.18978"><defs><radialGradient cx="185.88904" cy="180.33604" r="37" gradientUnits="userSpaceOnUse" id="color-1"><stop offset="0" stop-color="#ffffff"/><stop offset="1" stop-color="#594384"/></radialGradient></defs><g transform="translate(-58.04139,-152.13989)"><g data-paper-data="{&quot;isPaintingLayer&quot;:true}" fill-rule="nonzero" stroke="none" stroke-width="0" stroke-linecap="butt" stroke-linejoin="miter" stroke-miterlimit="10" stroke-dasharray="" stroke-dashoffset="0" style="mix-blend-mode: normal"><path d="M75.92232,233.32967c0,0 -15.00075,-0.8287 -16.87424,-4.43743c-3.86904,-7.45255 4.35761,-21.30626 8.72867,-25.9727c1.21661,-1.29882 9.95974,1.44274 21.97796,-2.13064c12.8376,-3.81702 27.61997,-12.43314 27.61997,-12.43314c0,0 11.97571,-7.78137 25.13615,-9.68712c2.37943,-1.32357 15.96292,-3.00542 18.61578,-4.46128c7.23226,-3.969 8.83876,-1.45131 16.52526,-7.35271c8.17316,-6.27507 10.96386,-8.29544 16.03308,-10.30442c10.63259,-4.2138 35.69014,-4.41034 35.69014,-4.41034c0,0 27.29934,10.96225 29.19911,15.75592c2.02246,5.10326 -0.03718,15.97205 -0.03718,15.97205c0,0 -5.16499,20.94065 -10.66702,23.12115c-2.70884,1.07353 1.33964,5.81501 -10.10931,6.58778c-3.78841,0.2557 -44.95928,-2.9721 -48.57193,-2.90707c-4.84537,0.08722 -17.60281,-1.25815 -22.13812,-0.35829c-4.82701,0.95775 -5.45987,3.24733 -10.42279,4.43209c-19.55417,4.66803 -41.02956,6.30116 -53.4498,9.96796c-11.12271,3.28373 -18.62679,6.60798 -18.62679,6.60798z" fill="#412a6a"/><path d="M128.46159,185.75264c2.59398,-2.87376 18.85839,-4.43481 34.23325,-6.65353c9.84897,-1.4213 24.20273,-7.28264 27.88454,-3.95927c9.42932,8.51133 25.88145,23.56211 21.62579,28.27676c-4.25566,4.71465 -7.97899,-6.52864 -17.40832,-15.03996c-2.74849,-2.48092 -7.60054,-7.11563 -15.73698,-7.39752c-19.77749,-0.6852 -53.61347,8.11395 -50.59826,4.77352z" fill="url(#color-1)"/></g></g></svg>