<svg version="1.1" xmlns="http://www.w3.org/2000/svg" xmlns:xlink="http://www.w3.org/1999/xlink" width="170.50765" height="139.60724" viewBox="0,0,170.50765,139.60724"><defs><radialGradient cx="202.20722" cy="202.91831" r="37" gradientUnits="userSpaceOnUse" id="color-1"><stop offset="0" stop-color="#ffffff"/><stop offset="1" stop-color="#594384"/></radialGradient></defs><g transform="translate(-101.14274,-159.49593)"><g data-paper-data="{&quot;isPaintingLayer&quot;:true}" fill-rule="nonzero" stroke="none" stroke-width="0" stroke-linecap="butt" stroke-linejoin="miter" stroke-miterlimit="10" stroke-dasharray="" stroke-dashoffset="0" style="mix-blend-mode: normal"><path d="M122.85807,295.67991c0,0 -14.06631,5.27717 -17.23348,2.72729c-6.54069,-5.26587 -4.58367,-21.25878 -2.45968,-27.28958c0.59117,-1.67857 9.69844,-2.68668 19.26304,-10.79379c10.21669,-8.65985 20.28277,-22.49565 20.28277,-22.49565c0,0 7.83253,-11.94232 19.1138,-18.98234c1.64576,-2.16911 13.40441,-9.17436 15.24726,-11.57459c5.02397,-6.54356 7.50773,-4.88507 12.17002,-13.38048c4.95746,-9.0333 6.69936,-12.0058 10.53176,-15.88467c8.03841,-8.13585 30.89895,-18.39814 30.89895,-18.39814c0,0 29.4028,-0.94868 33.07082,2.67541c3.90491,3.85816 6.3926,14.63702 6.3926,14.63702c0,0 3.69741,21.24893 -0.46221,25.45898c-2.04793,2.07274 3.56619,4.78449 -6.60414,10.09863c-3.36532,1.75842 -42.35511,15.36929 -45.63624,16.88243c-4.40073,2.02946 -16.62122,5.931 -20.41113,8.57966c-4.03365,2.81903 -3.69177,5.16974 -7.75851,8.25127c-16.02314,12.14145 -35.02626,22.27756 -44.92133,30.63194c-8.86133,7.4816 -14.39358,13.54429 -14.39358,13.54429z" fill="#412a6a"/><path d="M151.81313,230.98407c1.21842,-3.6746 15.48001,-11.64799 28.66262,-19.86553c8.44464,-5.26408 19.22677,-16.4055 23.9346,-14.84447c12.05703,3.99788 33.17453,11.15673 31.17561,17.18522c-1.99893,6.0285 -9.93151,-2.76633 -21.98854,-6.76421c-3.51442,-1.16533 -9.82122,-3.45599 -17.38338,-0.4402c-18.38156,7.33055 -45.81716,29.00049 -44.40088,24.72918z" fill="url(#color-1)"/></g></g></svg>