<svg version="1.1" xmlns="http://www.w3.org/2000/svg" xmlns:xlink="http://www.w3.org/1999/xlink" width="206.58395" height="63.52016" viewBox="0,0,206.58395,63.52016"><defs><radialGradient cx="187.11623" cy="176.07162" r="37" gradientUnits="userSpaceOnUse" id="color-1"><stop offset="0" stop-color="#ffffff"/><stop offset="1" stop-color="#594384"/></radialGradient></defs><g transform="translate(-54.52742,-152.32646)"><g data-paper-data="{&quot;isPaintingLayer&quot;:true}" fill-rule="nonzero" stroke="none" stroke-width="0" stroke-linecap="butt" stroke-linejoin="miter" stroke-miterlimit="10" stroke-dasharray="" stroke-dashoffset="0" style="mix-blend-mode: normal"><path d="M71.18986,214.30876c0,0 -14.76547,-2.77318 -16.15355,-6.59497c-2.86662,-7.89256 7.09241,-20.55829 12.03342,-24.61642c1.37524,-1.12951 9.68741,2.7262 22.06837,0.74669c13.22508,-2.11448 29.00272,-8.73425 29.00272,-8.73425c0,0 12.88626,-6.15726 26.18278,-6.33471c2.53141,-1.00277 16.21824,-0.90318 19.03796,-2.00154c7.68714,-2.99439 8.95245,-0.28909 17.34138,-5.14036c8.92005,-5.15845 11.94989,-6.79859 17.23738,-8.13102c11.09043,-2.79473 35.96058,0.27025 35.96058,0.27025c0,0 25.6412,14.4206 26.90119,19.42068c1.34136,5.32301 -2.11475,15.83147 -2.11475,15.83147c0,0 -7.84538,20.09074 -13.58432,21.53693c-2.82548,0.712 0.57175,5.93988 -10.88044,5.21662c-3.78948,-0.23933 -44.19054,-8.79582 -47.78094,-9.20134c-4.81553,-0.54389 -17.28953,-3.5375 -21.90337,-3.23531c-4.91058,0.32164 -5.83593,2.50943 -10.91081,3.03846c-19.99527,2.08446 -41.50061,0.90987 -54.29234,2.92969c-11.45538,1.80881 -19.32816,4.12857 -19.32816,4.12857z" fill="#412a6a"/><path d="M129.47216,173.97117c2.9458,-2.51188 19.27507,-1.94374 34.80791,-2.14341c9.95018,-0.12791 24.94448,-4.07209 28.16265,-0.29798c8.24191,9.66571 22.59617,26.72892 17.76335,30.84986c-4.83284,4.12095 -7.06184,-7.51118 -15.30375,-17.17689c-2.40237,-2.8174 -6.61023,-8.04395 -14.64086,-9.38195c-19.52027,-3.25233 -54.21342,1.07014 -50.78926,-1.84963z" fill="url(#color-1)"/></g></g></svg>