<svg version="1.1" xmlns="http://www.w3.org/2000/svg" xmlns:xlink="http://www.w3.org/1999/xlink" width="168.1377" height="348.79584" viewBox="0,0,168.1377,348.79584"><defs><radialGradient cx="152.70446" cy="431.54251" r="29.55412" gradientUnits="userSpaceOnUse" id="color-1"><stop offset="0" stop-color="#ffffff"/><stop offset="1" stop-color="#594384"/></radialGradient><radialGradient cx="200.59389" cy="202.74589" r="37" gradientUnits="userSpaceOnUse" id="color-2"><stop offset="0" stop-color="#ffffff"/><stop offset="1" stop-color="#594384"/></radialGradient><radialGradient cx="165.08169" cy="304.43179" r="47.95574" gradientUnits="userSpaceOnUse" id="color-3"><stop offset="0" stop-color="#ffffff"/><stop offset="1" stop-color="#594384"/></radialGradient></defs><g transform="translate(-91.29138,-152.3136)"><g data-paper-data="{&quot;isPaintingLayer&quot;:true}" fill-rule="nonzero" stroke-linecap="butt" stroke-linejoin="miter" stroke-miterlimit="10" stroke-dasharray="" stroke-dashoffset="0" style="mix-blend-mode: normal"><g><path d="M146.13399,441.98861c2.88381,0.49975 -0.59275,10.42883 -1.6849,16.73116c-1.09215,6.30233 -13.6441,24.79151 -16.52792,24.29177c-0.30179,-0.05229 -7.0097,8.00508 -8.18911,8.42598c-1.09061,0.38919 -0.64299,-3.88972 -0.8619,-4.11697c-0.78531,-0.81525 4.37712,-8.19908 9.3004,-15.92657c3.16763,-4.97183 5.34226,-11.63899 5.83528,-14.48393c1.09215,-6.30233 9.24433,-15.42116 12.12812,-14.92143z" data-paper-data="{&quot;index&quot;:null}" fill="#e6a892" stroke="#003737" stroke-width="0.5"/><path d="M107.57135,475.74579c0.32169,-1.37455 -11.17093,-3.53117 12.75152,1.37649c2.96634,0.60854 8.57097,4.36087 13.09889,1.77821c4.78205,-2.7276 8.05568,-13.17038 9.34102,-13.90151c5.90826,-3.36071 -2.00634,17.57981 -2.5589,19.94067c-0.55256,2.36085 -6.04606,2.98057 -12.27009,1.38414c-2.01703,-0.51735 -29.76875,-7.04534 -33.26569,-8.90035c-3.15823,-1.67533 0.49838,-2.16899 4.43126,-2.88085c1.61189,-0.29176 3.09046,-0.59708 4.77289,-0.75365c3.6928,-0.34367 3.55359,2.57837 3.69908,1.95678z" data-paper-data="{&quot;index&quot;:null}" fill="#f1c1b0" stroke="#003737" stroke-width="0.5"/><path d="M106.8497,482.09128c0.24119,-1.3918 -11.3928,-2.62945 12.84854,0.36288c3.00586,0.37102 8.83841,3.65927 13.21998,0.73479c4.62747,-3.08863 7.29044,-13.72805 8.53435,-14.55624c5.71784,-3.80681 -0.97394,17.63453 -1.3882,20.02507c-0.41425,2.39054 -5.87816,3.4398 -12.20399,2.34358c-2.05,-0.35527 -30.22081,-4.65638 -33.83133,-6.22469c-3.26083,-1.4164 0.37135,-2.19551 4.26723,-3.21331c1.59673,-0.41714 3.05919,-0.83725 4.73451,-1.12558c3.67719,-0.63286 3.70983,2.28297 3.81891,1.65356z" data-paper-data="{&quot;index&quot;:null}" fill="#d59d89" stroke="#003737" stroke-width="0.5"/><path d="M105.62636,487.14833c0.24119,-1.3918 -11.3928,-2.62945 12.84854,0.36288c3.00586,0.37102 8.83841,3.65927 13.21998,0.73479c4.62747,-3.08863 7.29043,-13.72805 8.53434,-14.55624c5.71784,-3.80681 -0.97394,17.63453 -1.3882,20.02507c-0.41425,2.39054 -5.87818,3.4398 -12.20399,2.34358c-2.05,-0.35527 -30.22081,-4.65637 -33.83133,-6.22469c-3.26083,-1.4164 0.37134,-2.19551 4.26723,-3.21331c1.59673,-0.41714 3.05919,-0.83725 4.73451,-1.12558c3.67719,-0.63286 3.70985,2.28298 3.81891,1.65358z" data-paper-data="{&quot;index&quot;:null}" fill="#f1c1b0" stroke="#003737" stroke-width="0.5"/><path d="M140.7343,448.66994c4.06823,-7.91534 10.12112,-12.54679 13.51952,-10.3446c3.39841,2.20218 2.85541,10.40409 -1.21282,18.31946c-4.06824,7.91534 -11.42892,26.10079 -14.82733,23.89857c-3.39841,-2.20218 -1.54757,-23.95809 2.52063,-31.87346z" data-paper-data="{&quot;index&quot;:null}" fill="#f1c1b0" stroke="#003737" stroke-width="0.5"/><path d="M142.33497,465.54312c0.69956,-4.03688 3.83969,-16.25329 6.07799,-20.27159c4.75049,-8.52823 10.21819,-7.70818 13.25335,-7.18221c4.46529,0.77379 -0.97684,17.65129 -3.16113,30.25594c-0.67492,3.89474 -11.22782,21.90476 -14.77977,26.62583c-7.94331,10.55782 -24.79111,3.80557 -27.87665,3.27087c-0.70557,-0.12226 -5.88463,-3.23134 -8.78211,-6.49063c-3.70481,-4.16744 -4.41723,-11.95086 -1.60042,-13.28958c1.57168,-0.74694 6.88488,9.57288 12.94488,11.87439c1.94464,0.73853 7.23189,0.18039 8.23856,0.00851c3.92492,-0.67015 6.70916,0.6695 8.65197,-1.15086c2.12987,-1.99561 2.3661,-10.09492 3.95694,-12.30059c2.01013,-2.78698 2.64961,-8.88748 3.07639,-11.35013z" data-paper-data="{&quot;index&quot;:null}" fill="#ffddd1" stroke="#003737" stroke-width="0.5"/><path d="M143.11071,454.35694c0,0 -6.12272,3.54701 -9.45863,-4.69175c-1.29377,-3.19531 7.84045,-26.26679 7.84045,-26.26679c0,0 1.62648,-6.00607 2.07609,-13.25566c0.17202,-2.77357 0.1718,-5.72919 -0.15769,-8.6001c-0.29984,-2.61263 0.99357,-10.30872 0.67432,-13.21491c-1.79578,-16.34748 -3.72027,-36.17974 -3.76532,-46.45142c-0.0487,-11.10289 6.37471,-33.19101 6.37471,-33.19101c0,0 7.98784,-7.9934 12.18997,-8.11239c4.47351,-0.12668 13.88796,7.37387 13.88796,7.37387c0,0 8.23486,19.26398 8.26005,25.00938c0.07165,16.33486 -17.97514,121.03156 -17.97514,121.03156z" data-paper-data="{&quot;index&quot;:null}" fill="#412a6a" stroke="none" stroke-width="0"/><path d="M148.84469,400.71012c4.78983,-5.2918 3.48305,38.73497 6.95929,31.68274c4.47317,-9.07475 11.72955,-42.66879 13.3998,-41.15701c2.96824,2.68669 -0.17147,33.07006 -11.12485,45.17132c-10.9534,12.10127 -22.10064,27.21333 -25.06887,24.52664c-1.39884,-1.26614 12.95198,-18.59317 15.58337,-29.12777c2.95224,-11.81925 -5.54018,-24.69758 0.25124,-31.09593z" data-paper-data="{&quot;index&quot;:null}" fill="url(#color-1)" stroke="none" stroke-width="0"/><path d="M180.93036,314.23312c0,0 -35.89046,6.23545 -37.10813,-3.17608c-0.22835,-1.76492 7.44843,-6.7675 12.33564,-18.314c5.22041,-12.33374 7.97472,-29.2207 7.97472,-29.2207c0,0 1.61318,-14.19032 8.51371,-25.55745c0.49221,-2.67792 7.8346,-14.22908 8.39864,-17.20212c1.5377,-8.10519 4.50227,-7.74334 4.8378,-17.4282c0.35677,-10.29804 0.5729,-13.73653 2.24714,-18.92593c3.51168,-10.88468 18.78595,-24.95532 18.78595,-24.95532c0,0 21.35953,-8.52692 26.26686,-6.94368c5.22425,1.6855 21.75377,5.57156 21.75377,5.57156c0,0 5.96539,9.15661 4.14821,14.78908c-0.89467,2.77306 -0.6402,2.15153 -7.32634,11.47738c-2.21241,3.08588 -22.48064,35.12557 -24.72838,37.95452c-3.01474,3.79429 -12.16757,12.78249 -14.35802,16.85443c-2.33133,4.33384 -0.96718,6.27853 -3.20979,10.86164c-8.83599,18.05771 -21.23585,35.66746 -26.30668,47.58361c-4.54109,10.67127 -2.22507,16.63128 -2.22507,16.63128z" data-paper-data="{&quot;index&quot;:null}" fill="#412a6a" stroke="none" stroke-width="0"/><path d="M184.88611,219.85632c5.16801,-8.50378 9.77535,-23.30776 14.68165,-24.03482c12.56533,-1.86205 34.64372,-4.98345 35.57474,1.2992c0.93102,6.28267 -10.11291,2.00408 -22.67825,3.86612c-3.66258,0.54275 -10.32513,1.33868 -15.71805,7.43764c-13.10873,14.82499 -27.8414,46.53062 -28.50104,42.07923c-0.56749,-3.82951 8.57337,-17.37249 16.64095,-30.6474z" data-paper-data="{&quot;index&quot;:null}" fill="url(#color-2)" stroke="none" stroke-width="0"/><path d="M160.45876,298.11634c6.62097,-5.613 17.55338,-10.71269 23.79387,-22.87998c8.15133,-15.89292 11.00565,-38.49926 13.26156,-35.83824c3.98299,4.69825 -5.47575,49.49118 -27.62419,59.49529c-6.05819,2.7364 -8.93332,12.98932 -12.94046,21.37248c-8.05972,16.86137 -6.05629,38.13978 -8.71663,35.00172c-3.98299,-4.69825 -3.04345,-44.20654 12.22583,-57.15124z" data-paper-data="{&quot;index&quot;:null}" fill="url(#color-3)" stroke="none" stroke-width="0"/></g></g></g></svg>