<svg version="1.1" xmlns="http://www.w3.org/2000/svg" xmlns:xlink="http://www.w3.org/1999/xlink" width="284.24625" height="238.94575" viewBox="0,0,284.24625,238.94575"><defs><radialGradient cx="296.27983" cy="212.5291" r="73.0985" gradientUnits="userSpaceOnUse" id="color-1"><stop offset="0" stop-color="#fff6db"/><stop offset="1" stop-color="#f9cdb0"/></radialGradient><linearGradient x1="223.07605" y1="221.19169" x2="213.83431" y2="234.16455" gradientUnits="userSpaceOnUse" id="color-2"><stop offset="0" stop-color="#bd8946"/><stop offset="1" stop-color="#bd8946" stop-opacity="0"/></linearGradient><radialGradient cx="234.37693" cy="264.6461" r="21.97894" gradientUnits="userSpaceOnUse" id="color-3"><stop offset="0" stop-color="#fff082"/><stop offset="1" stop-color="#ffd183"/></radialGradient><linearGradient x1="237.84156" y1="260.87438" x2="233.05028" y2="280.04094" gradientUnits="userSpaceOnUse" id="color-4"><stop offset="0" stop-color="#c66a21" stop-opacity="0"/><stop offset="1" stop-color="#c66a21"/></linearGradient><linearGradient x1="250.56357" y1="267.20447" x2="246.74882" y2="271.07294" gradientUnits="userSpaceOnUse" id="color-5"><stop offset="0" stop-color="#6f3939"/><stop offset="1" stop-color="#ffd183"/></linearGradient><linearGradient x1="243.93524" y1="274.23663" x2="239.3867" y2="277.20785" gradientUnits="userSpaceOnUse" id="color-6"><stop offset="0" stop-color="#6f3939"/><stop offset="1" stop-color="#ffd183"/></linearGradient><linearGradient x1="250.46549" y1="257.71601" x2="247.09178" y2="261.97459" gradientUnits="userSpaceOnUse" id="color-7"><stop offset="0" stop-color="#6f3939"/><stop offset="1" stop-color="#ffd183"/></linearGradient></defs><g transform="translate(-154.1567,-93.05622)"><g data-paper-data="{&quot;isPaintingLayer&quot;:true}" fill-rule="nonzero" stroke-linecap="butt" stroke-linejoin="miter" stroke-miterlimit="10" stroke-dasharray="" stroke-dashoffset="0" style="mix-blend-mode: normal"><path d="M154.50879,324.43747l277.5383,-231.02916l6.00379,7.21243l-277.5383,231.02916z" fill="url(#color-1)" stroke="#004545" stroke-width="0.5"/><path d="M202.61291,255.98423l-8.06069,-35.97292c0,0 12.40902,-7.8212 18.99925,-8.15568c7.48761,-0.38002 19.36075,7.34236 19.36075,7.34236l4.89807,21.82152z" data-paper-data="{&quot;index&quot;:null}" fill="#ffefda" stroke="none" stroke-width="0"/><path d="M227.9255,244.20298c0,0 0.59892,-6.90555 -5.31668,-10.52175c-1.2523,-0.76553 -4.89536,-6.8935 -10.55427,-8.83279c-7.58965,-2.60094 -17.48359,-1.03509 -17.48359,-1.03509c0,0 8.90435,-5.80924 17.6308,-4.58816c7.59709,1.06303 15.07705,9.26288 16.20412,8.27293c1.1087,-0.97379 -0.72278,-4.96724 -5.45509,-8.54611c-5.43625,-4.11124 -13.96598,-7.79879 -13.96598,-7.79879c0,0 12.76359,1.00028 17.69171,4.51103c4.40785,3.14012 11.26861,24.88677 11.26861,24.88677z" data-paper-data="{&quot;index&quot;:null}" fill="url(#color-2)" stroke="none" stroke-width="0"/><path d="M242.7689,248.12766c0.64302,2.98274 -8.2681,8.79026 -19.90355,12.97146c-11.63544,4.18119 -21.5891,5.15272 -22.23212,2.16998c-0.64302,-2.98274 8.2681,-8.79026 19.90355,-12.97146c11.63544,-4.18119 21.5891,-5.15272 22.23212,-2.16998z" data-paper-data="{&quot;index&quot;:null}" fill="#020713" stroke="none" stroke-width="0"/><g data-paper-data="{&quot;index&quot;:null}" stroke="none" stroke-width="0"><path d="M232.88285,277.98027c-11.84011,-2.67552 -21.44746,-11.52687 -19.94436,-18.17861c1.5031,-6.65175 10.89088,-14.75528 22.73097,-12.07977c11.84013,2.67552 20.73174,16.93511 19.22863,23.58686c-1.05457,4.66685 -3.86571,10.81697 -11.22631,11.25546c-3.1306,0.1865 -7.25582,-3.78556 -10.78892,-4.58394z" data-paper-data="{&quot;index&quot;:null}" fill="url(#color-3)"/><path d="M233.05027,280.04095c-8.20369,-2.05076 -13.78151,-8.00382 -12.45843,-13.29652c0.59094,-2.36396 -4.58014,-13.38234 -1.96316,-14.50369c3.24222,-1.38926 14.67335,7.49885 19.21288,8.63364c8.20369,2.05076 16.8435,5.65757 15.52044,10.95027c-0.89277,3.57138 -2.41589,11.50919 -7.31808,12.0352c-2.36273,0.25352 -10.3256,-3.15196 -12.99363,-3.81892z" data-paper-data="{&quot;index&quot;:null}" fill="url(#color-4)"/><path d="M246.74881,271.07295c-3.20475,-3.16024 -9.76639,-7.67675 -8.71296,-8.745c1.05342,-1.06825 9.32297,1.71627 12.52772,4.87651c3.20476,3.16023 4.94877,6.58811 3.89536,7.65636c-1.05341,1.06825 -4.50535,-0.62764 -7.7101,-3.78788z" data-paper-data="{&quot;index&quot;:null}" fill="url(#color-5)"/><path d="M240.19508,275.87143c-2.46146,-3.76813 -8.47398,-7.61307 -7.21794,-8.43354c1.25605,-0.8205 13.09656,5.08274 15.55801,8.85088c2.46145,3.76814 -1.16126,5.4358 -2.41731,6.25627c-1.25603,0.82051 -3.46133,-2.90546 -5.92277,-6.6736z" data-paper-data="{&quot;index&quot;:null}" fill="url(#color-6)"/><path d="M247.09178,261.97458c-3.52792,-2.79488 -10.53978,-6.5748 -9.60815,-7.75077c0.93164,-1.17598 9.45394,0.69733 12.98187,3.49219c3.52795,2.79488 5.63265,6.0139 4.70103,7.18988c-0.93163,1.17597 -4.5468,-0.13642 -8.07473,-2.93128z" data-paper-data="{&quot;index&quot;:null}" fill="url(#color-7)"/></g><path d="M210.31652,258.20348c-5.78093,2.93183 -8.18159,6.39221 -8.18159,6.39221l-2.39412,-14.21789c0,0 13.35583,-6.67967 18.98604,-8.62363c6.82885,-2.35783 17.97317,-6.03829 17.97317,-6.03829l7.55516,14.42358c0,0 -13.05291,-0.28965 -19.38574,2.11746c-2.67978,1.01861 -10.901,4.09446 -14.5529,5.94653z" data-paper-data="{&quot;index&quot;:null}" fill="#113a9e" stroke="none" stroke-width="0"/></g></g></svg>