<svg version="1.1" xmlns="http://www.w3.org/2000/svg" xmlns:xlink="http://www.w3.org/1999/xlink" width="359.32402" height="81.80585" viewBox="0,0,359.32402,81.80585"><defs><radialGradient cx="281.26482" cy="251.56814" r="73.0985" gradientUnits="userSpaceOnUse" id="color-1"><stop offset="0" stop-color="#fff6db"/><stop offset="1" stop-color="#f9cdb0"/></radialGradient><linearGradient x1="214.36184" y1="220.6194" x2="199.69566" y2="226.83296" gradientUnits="userSpaceOnUse" id="color-2"><stop offset="0" stop-color="#bd8946"/><stop offset="1" stop-color="#bd8946" stop-opacity="0"/></linearGradient><radialGradient cx="201.2374" cy="263.55825" r="21.97894" gradientUnits="userSpaceOnUse" id="color-3"><stop offset="0" stop-color="#fff082"/><stop offset="1" stop-color="#ffd183"/></radialGradient><linearGradient x1="206.164" y1="262.15892" x2="192.04651" y2="275.97955" gradientUnits="userSpaceOnUse" id="color-4"><stop offset="0" stop-color="#c66a21" stop-opacity="0"/><stop offset="1" stop-color="#c66a21"/></linearGradient><linearGradient x1="213.68836" y1="274.21312" x2="208.41281" y2="275.51156" gradientUnits="userSpaceOnUse" id="color-5"><stop offset="0" stop-color="#6f3939"/><stop offset="1" stop-color="#ffd183"/></linearGradient><linearGradient x1="204.35925" y1="276.73375" x2="198.92832" y2="276.88355" gradientUnits="userSpaceOnUse" id="color-6"><stop offset="0" stop-color="#6f3939"/><stop offset="1" stop-color="#ffd183"/></linearGradient><linearGradient x1="218.57289" y1="266.07789" x2="213.46884" y2="267.93962" gradientUnits="userSpaceOnUse" id="color-7"><stop offset="0" stop-color="#6f3939"/><stop offset="1" stop-color="#ffd183"/></linearGradient></defs><g transform="translate(-101.60281,-204.67738)"><g data-paper-data="{&quot;isPaintingLayer&quot;:true}" fill-rule="nonzero" stroke-linecap="butt" stroke-linejoin="miter" stroke-miterlimit="10" stroke-dasharray="" stroke-dashoffset="0" style="mix-blend-mode: normal"><path d="M101.88592,272.68021l357.41915,-51.51244l1.33866,9.28831l-357.41915,51.51244z" fill="url(#color-1)" stroke="#004545" stroke-width="0.5"/><path d="M178.71075,239.54719l11.96772,-34.86832c0,0 14.66722,-0.16614 20.45702,2.99949c6.57818,3.5967 12.65034,16.39261 12.65034,16.39261l-7.2526,21.15584z" data-paper-data="{&quot;index&quot;:null}" fill="#ffefda" stroke="none" stroke-width="0"/><path d="M206.44486,242.76344c0,0 4.12596,-5.56972 0.97947,-11.74798c-0.66609,-1.3079 -0.5613,-8.43622 -4.36712,-13.0514c-5.10431,-6.18981 -14.3535,-10.03615 -14.3535,-10.03615c0,0 10.6279,-0.28703 17.42321,5.3224c5.91589,4.88345 7.99519,15.78592 9.47375,15.53264c1.45445,-0.24913 1.98503,-4.61037 -0.17288,-10.13726c-2.4789,-6.34903 -7.81518,-13.95681 -7.81518,-13.95681c0,0 10.35044,7.53513 12.71084,13.10651c2.1112,4.9832 -3.43004,27.10291 -3.43004,27.10291z" data-paper-data="{&quot;index&quot;:null}" fill="url(#color-2)" stroke="none" stroke-width="0"/><path d="M217.03604,253.87904c-1.01391,2.87788 -11.64668,3.1599 -23.74896,0.62991c-12.10227,-2.52999 -21.09116,-6.91395 -20.07725,-9.79183c1.01391,-2.87788 11.64668,-3.1599 23.74896,-0.62991c12.10227,2.52999 21.09116,6.91395 20.07725,9.79183z" data-paper-data="{&quot;index&quot;:null}" fill="#020713" stroke="none" stroke-width="0"/><g data-paper-data="{&quot;index&quot;:null}" stroke="none" stroke-width="0"><path d="M192.98281,274.13626c-8.68652,-8.47886 -12.23717,-21.05027 -7.47377,-25.93033c4.7634,-4.88007 17.00445,-6.86864 25.69095,1.61019c8.68653,8.47887 8.79568,25.28318 4.03227,30.16324c-3.34199,3.42384 -8.95715,7.19166 -15.45774,3.71128c-2.76482,-1.48027 -4.19964,-7.02427 -6.7917,-9.55438z" data-paper-data="{&quot;index&quot;:null}" fill="url(#color-3)"/><path d="M192.04649,275.97955c-5.91552,-6.04258 -7.55067,-14.03491 -3.65222,-17.85136c1.74122,-1.70461 3.10477,-13.79946 5.92148,-13.38458c3.48968,0.514 8.57489,14.07165 11.84825,17.41532c5.91552,6.04258 11.38787,13.63921 7.48944,17.45568c-2.63056,2.57526 -8.08439,8.54052 -12.53632,6.42192c-2.14571,-1.02112 -7.14674,-8.09178 -9.0706,-10.05697z" data-paper-data="{&quot;index&quot;:null}" fill="url(#color-4)"/><path d="M208.4128,275.51156c-1.07567,-4.37041 -4.30116,-11.65396 -2.84435,-12.01251c1.45681,-0.35855 7.04425,6.34365 8.11992,10.71406c1.07568,4.37041 0.76671,8.204 -0.69009,8.56256c-1.4568,0.35856 -3.50979,-2.8937 -4.58545,-7.26411z" data-paper-data="{&quot;index&quot;:null}" fill="url(#color-5)"/><path d="M200.31678,276.16822c-0.12412,-4.49913 -3.23341,-10.92301 -1.73371,-10.96437c1.49972,-0.04138 8.49657,11.1876 8.62067,15.68674c0.12411,4.49913 -3.8355,4.0231 -5.33521,4.06446c-1.49971,0.0414 -1.42767,-4.28769 -1.55176,-8.78682z" data-paper-data="{&quot;index&quot;:null}" fill="url(#color-6)"/><path d="M213.46884,267.93961c-1.5423,-4.22834 -5.53704,-11.12008 -4.12759,-11.63417c1.40946,-0.5141 7.68934,5.54412 9.23166,9.77245c1.54232,4.22836 1.65,8.07287 0.24056,8.58698c-1.40945,0.51409 -3.8023,-2.4969 -5.34462,-6.72523z" data-paper-data="{&quot;index&quot;:null}" fill="url(#color-7)"/></g><path d="M184.112,245.47148c-6.46026,-0.52903 -10.31737,1.16214 -10.31737,1.16214l5.40467,-13.36674c0,0 14.87618,1.30215 20.69078,2.5939c7.05251,1.56674 18.47418,4.26619 18.47418,4.26619l-1.11533,16.24427c0,0 -10.96901,-7.08119 -17.62473,-8.34623c-2.81643,-0.53529 -11.43114,-2.21934 -15.51217,-2.55354z" data-paper-data="{&quot;index&quot;:null}" fill="#113a9e" stroke="none" stroke-width="0"/></g></g></svg>