<svg version="1.1" xmlns="http://www.w3.org/2000/svg" xmlns:xlink="http://www.w3.org/1999/xlink" width="329.50329" height="173.18404" viewBox="0,0,329.50329,173.18404"><defs><radialGradient cx="238.90421" cy="287.53615" r="73.0985" gradientUnits="userSpaceOnUse" id="color-1"><stop offset="0" stop-color="#fff6db"/><stop offset="1" stop-color="#f9cdb0"/></radialGradient><linearGradient x1="200.90142" y1="224.37271" x2="185.27561" y2="221.28413" gradientUnits="userSpaceOnUse" id="color-2"><stop offset="0" stop-color="#bd8946"/><stop offset="1" stop-color="#bd8946" stop-opacity="0"/></linearGradient><radialGradient cx="165.93993" cy="252.54522" r="21.97894" gradientUnits="userSpaceOnUse" id="color-3"><stop offset="0" stop-color="#fff082"/><stop offset="1" stop-color="#ffd183"/></radialGradient><linearGradient x1="170.80281" y1="254.15207" x2="151.36174" y2="257.66746" gradientUnits="userSpaceOnUse" id="color-4"><stop offset="0" stop-color="#c66a21" stop-opacity="0"/><stop offset="1" stop-color="#c66a21"/></linearGradient><linearGradient x1="170.26507" y1="268.35173" x2="165.17001" y2="266.46554" gradientUnits="userSpaceOnUse" id="color-5"><stop offset="0" stop-color="#6f3939"/><stop offset="1" stop-color="#ffd183"/></linearGradient><linearGradient x1="161.12913" y1="265.20207" x2="156.55013" y2="262.278" gradientUnits="userSpaceOnUse" id="color-6"><stop offset="0" stop-color="#6f3939"/><stop offset="1" stop-color="#ffd183"/></linearGradient><linearGradient x1="178.87358" y1="264.35998" x2="173.60432" y2="263.03625" gradientUnits="userSpaceOnUse" id="color-7"><stop offset="0" stop-color="#6f3939"/><stop offset="1" stop-color="#ffd183"/></linearGradient></defs><g transform="translate(-74.15256,-197.88742)"><g data-paper-data="{&quot;isPaintingLayer&quot;:true}" fill-rule="nonzero" stroke-linecap="butt" stroke-linejoin="miter" stroke-miterlimit="10" stroke-dasharray="" stroke-dashoffset="0" style="mix-blend-mode: normal"><path d="M78.59176,204.33502l324.72993,157.96346l-4.10502,8.43881l-324.72993,-157.96346z" fill="url(#color-1)" stroke="#004545" stroke-width="0.5"/><path d="M160.77165,220.02954l29.47461,-22.14211c0,0 12.23262,8.09432 15.24788,13.96383c3.42584,6.66876 1.26991,20.66727 1.26991,20.66727l-17.87614,13.43925z" data-paper-data="{&quot;index&quot;:null}" fill="#ffefda" stroke="none" stroke-width="0"/><path d="M181.92078,238.25697c0,0 6.54081,-2.29414 7.4041,-9.17354c0.18275,-1.45632 4.27018,-7.29729 3.71051,-13.25303c-0.75063,-7.98776 -6.24703,-16.36221 -6.24703,-16.36221c0,0 8.95731,5.72724 11.43323,14.1837c2.15552,7.36204 -2.24244,17.55249 -0.87656,18.17269c1.3436,0.6101 4.23044,-2.70171 5.54635,-8.48716c1.51166,-6.64605 1.36486,-15.93759 1.36486,-15.93759c0,0 4.33756,12.04555 3.16427,17.98148c-1.04943,5.30925 -18.05012,20.50673 -18.05012,20.50673z" data-paper-data="{&quot;index&quot;:null}" fill="url(#color-2)" stroke="none" stroke-width="0"/><path d="M184.44809,253.40102c-2.45435,1.81284 -11.41287,-3.92128 -20.00943,-12.80752c-8.59655,-8.88623 -13.57578,-17.55955 -11.12143,-19.37239c2.45435,-1.81284 11.41287,3.92128 20.00943,12.80752c8.59655,8.88623 13.57578,17.55955 11.12143,19.37239z" data-paper-data="{&quot;index&quot;:null}" fill="#020713" stroke="none" stroke-width="0"/><g data-paper-data="{&quot;index&quot;:null}" stroke="none" stroke-width="0"><path d="M153.1712,256.66734c-2.43075,-11.89278 1.68612,-24.29031 8.36745,-25.6559c6.68133,-1.3656 17.92874,3.85872 20.35949,15.75147c2.43075,11.89279 -6.91016,25.86219 -13.59149,27.22777c-4.6876,0.95809 -11.44966,0.92509 -14.87657,-5.60385c-1.45753,-2.77688 0.46646,-8.17066 -0.25887,-11.71949z" data-paper-data="{&quot;index&quot;:null}" fill="url(#color-3)"/><path d="M151.36172,257.66744c-1.50466,-8.32119 1.62762,-15.85378 6.99612,-16.82451c2.39782,-0.43358 10.31448,-9.67865 12.41289,-7.75442c2.59977,2.38396 -0.80054,16.45902 0.03207,21.06356c1.50466,8.32119 1.77034,17.67986 -3.59817,18.65062c-3.62253,0.65505 -11.48435,2.53131 -13.97996,-1.72076c-1.20281,-2.04939 -1.37359,-10.70822 -1.86294,-13.41447z" data-paper-data="{&quot;index&quot;:null}" fill="url(#color-4)"/><path d="M165.17,266.46554c1.56257,-4.22089 2.9808,-12.05942 4.38776,-11.53855c1.40697,0.52086 2.26989,9.20386 0.70732,13.42475c-1.56256,4.2209 -3.96984,7.22037 -5.37681,6.69952c-1.40696,-0.52085 -1.28083,-4.36481 0.28175,-8.5857z" data-paper-data="{&quot;index&quot;:null}" fill="url(#color-5)"/><path d="M158.10076,262.46521c2.42236,-3.79338 3.45429,-10.85518 4.71873,-10.04772c1.26447,0.80745 0.75329,14.02807 -1.6691,17.82144c-2.42237,3.79337 -5.43239,1.1771 -6.69684,0.36963c-1.26448,-0.80743 1.22481,-4.34999 3.6472,-8.14335z" data-paper-data="{&quot;index&quot;:null}" fill="url(#color-6)"/><path d="M173.60433,263.03624c1.09662,-4.3652 1.65828,-12.31118 3.11335,-11.94563c1.45508,0.36555 3.25253,8.90417 2.15592,13.26938c-1.09662,4.36523 -3.16519,7.60758 -4.62026,7.24205c-1.45506,-0.36555 -1.74563,-4.20057 -0.64902,-8.56577z" data-paper-data="{&quot;index&quot;:null}" fill="url(#color-7)"/></g><path d="M161.91706,227.96419c-5.04994,-4.06361 -9.19144,-4.82867 -9.19144,-4.82867l11.97514,-8.02971c0,0 11.5815,9.42683 15.66899,13.75934c4.95772,5.25487 12.89586,13.89937 12.89586,13.89937l-10.04004,12.81865c0,0 -5.10429,-12.01702 -9.90293,-16.79949c-2.0306,-2.02373 -8.21544,-8.25246 -11.40555,-10.81949z" data-paper-data="{&quot;index&quot;:null}" fill="#113a9e" stroke="none" stroke-width="0"/></g></g></svg>