<svg version="1.1" xmlns="http://www.w3.org/2000/svg" xmlns:xlink="http://www.w3.org/1999/xlink" width="51.88137" height="82.47298" viewBox="0,0,51.88137,82.47298"><defs><linearGradient x1="191.51113" y1="215.42923" x2="206.29326" y2="209.49683" gradientUnits="userSpaceOnUse" id="color-1"><stop offset="0" stop-color="#bd8946"/><stop offset="1" stop-color="#bd8946" stop-opacity="0"/></linearGradient><radialGradient cx="205.453" cy="172.74878" r="21.97894" gradientUnits="userSpaceOnUse" id="color-2"><stop offset="0" stop-color="#fff082"/><stop offset="1" stop-color="#ffd183"/></radialGradient><linearGradient x1="200.50058" y1="174.05381" x2="214.87938" y2="160.50525" gradientUnits="userSpaceOnUse" id="color-3"><stop offset="0" stop-color="#c66a21" stop-opacity="0"/><stop offset="1" stop-color="#c66a21"/></linearGradient><linearGradient x1="193.20774" y1="161.85816" x2="198.50712" y2="160.66067" gradientUnits="userSpaceOnUse" id="color-4"><stop offset="0" stop-color="#6f3939"/><stop offset="1" stop-color="#ffd183"/></linearGradient><linearGradient x1="202.58328" y1="159.5161" x2="208.01607" y2="159.47" gradientUnits="userSpaceOnUse" id="color-5"><stop offset="0" stop-color="#6f3939"/><stop offset="1" stop-color="#ffd183"/></linearGradient><linearGradient x1="188.16878" y1="169.89863" x2="193.30745" y2="168.13468" gradientUnits="userSpaceOnUse" id="color-6"><stop offset="0" stop-color="#6f3939"/><stop offset="1" stop-color="#ffd183"/></linearGradient></defs><g transform="translate(-181.32133,-149.79107)"><g data-paper-data="{&quot;isPaintingLayer&quot;:true}" fill-rule="nonzero" stroke="none" stroke-width="0" stroke-linecap="butt" stroke-linejoin="miter" stroke-miterlimit="10" stroke-dasharray="" stroke-dashoffset="0" style="mix-blend-mode: normal"><path d="M227.77736,197.18557l-12.63128,34.63346c0,0 -16.74973,1.70784 -22.47804,-1.56777c-1.86055,-1.06392 -5.00919,-3.52681 -6.69889,-5.75847c-4.22097,-5.5748 -3.55415,-12.69445 -3.55415,-12.69445l7.65519,-21.01351z" data-paper-data="{&quot;index&quot;:null}" fill="#ffefda"/><path d="M199.84947,193.44037c0,0 -4.23155,5.48994 -1.2036,11.72714c0.641,1.32038 0.40012,8.44541 4.11713,13.13241c4.98519,6.28614 14.15926,10.30837 14.15926,10.30837c0,0 -10.63145,0.08406 -17.31843,-5.65409c-5.82156,-4.99552 -7.69234,-15.93569 -9.17546,-15.7107c-1.45893,0.22132 -2.07268,4.57163 -0.0207,10.13871c2.35722,6.3952 7.54728,14.10348 7.54728,14.10348c0,0 -14.10845,-3.04685 -16.36205,-8.66228c-2.01567,-5.02259 7.85067,-31.717 7.85067,-31.717l10.40588,2.33397z" data-paper-data="{&quot;index&quot;:null}" fill="url(#color-1)"/><path d="M189.47244,182.1246c1.06867,-2.858 11.70489,-2.93696 23.75666,-0.17636c12.05176,2.76061 20.9553,7.31538 19.88663,10.17338c-1.06867,2.858 -11.70489,2.93696 -23.75666,0.17636c-12.05176,-2.76061 -20.9553,-7.31538 -19.88663,-10.17338z" data-paper-data="{&quot;index&quot;:null}" fill="#020713"/><g data-paper-data="{&quot;index&quot;:null}"><path d="M213.90805,162.33032c1.01276,1.02703 2.17175,-5.25579 4.42105,-7.37617c2.75704,-2.59902 6.62917,-1.16717 7.43884,0.27873c4.08885,7.3018 -1.31106,29.64387 -4.88256,33.16574c-4.85572,4.78823 -17.1325,6.54273 -25.65554,-2.10042c-8.52306,-8.64318 -8.31135,-25.4465 -3.45564,-30.23473c3.40675,-3.35941 9.09283,-7.01933 15.52578,-3.41547c2.73606,1.53279 4.06476,7.10318 6.60805,9.68231z" data-paper-data="{&quot;index&quot;:null}" fill="url(#color-2)"/><path d="M214.8794,160.50523c0.45915,0.48728 2.83047,-3.76771 4.48516,-5.58191c0.6572,-0.72056 2.20368,-0.97968 3.28846,-0.63936c2.11626,0.66392 3.93586,2.879 4.19848,3.28482c0.65065,1.00544 -3.07789,-2.50789 -5.39674,-0.62978c-1.88481,1.52657 -2.91723,5.25832 -2.94763,6.76279c-0.01722,0.85201 -1.72992,6.65682 -1.53074,7.51336c1.37364,5.90718 8.85518,6.70391 6.93927,8.50919c-1.77345,1.67105 -9.09321,12.43641 -11.90149,11.96783c-3.47923,-0.58053 -8.30465,-14.2328 -11.51359,-17.63837c-5.79906,-6.15442 -11.12538,-13.85416 -7.15478,-17.59549c2.67925,-2.52456 8.24598,-8.38462 12.65665,-6.18139c2.12583,1.0619 6.99093,8.22677 8.87693,10.22833z" data-paper-data="{&quot;index&quot;:null}" fill="url(#color-3)"/><path d="M198.50713,160.66066c0.99203,4.39015 4.07787,11.73396 2.61448,12.06463c-1.46338,0.33067 -6.92184,-6.47699 -7.91387,-10.86714c-0.99204,-4.39015 -0.60994,-8.21715 0.85345,-8.54782c1.46338,-0.33067 3.4539,2.96019 4.44593,7.35034z" data-paper-data="{&quot;index&quot;:null}" fill="url(#color-4)"/><path d="M206.61422,160.15871c0.03819,4.50068 3.02427,10.98276 1.52405,10.99548c-1.50024,0.01273 -8.28142,-11.34779 -8.3196,-15.84848c-0.03818,-4.50069 3.91162,-3.94914 5.41184,-3.96186c1.50023,-0.01275 1.34554,4.31416 1.38372,8.81485z" data-paper-data="{&quot;index&quot;:null}" fill="url(#color-5)"/><path d="M193.30746,168.13471c1.46128,4.25702 5.32371,11.22377 3.9047,11.71086c-1.41902,0.48709 -7.58209,-5.68991 -9.04339,-9.94693c-1.4613,-4.25704 -1.49557,-8.10291 -0.07656,-8.59c1.41901,-0.4871 3.75394,2.56903 5.21524,6.82605z" data-paper-data="{&quot;index&quot;:null}" fill="url(#color-6)"/></g><path d="M222.22994,191.15924c6.44898,0.65228 10.33768,-0.96494 10.33768,-0.96494l-5.6589,13.26111c0,0 -14.8486,-1.58594 -20.63748,-2.98848c-7.02131,-1.70111 -18.38935,-4.61813 -18.38935,-4.61813l1.42528,-16.22001c0,0 10.83181,7.28933 17.46216,8.68122c2.80569,0.58896 11.38668,2.43719 15.4606,2.84924z" data-paper-data="{&quot;index&quot;:null}" fill="#113a9e"/></g></g></svg>