<svg version="1.1" xmlns="http://www.w3.org/2000/svg" xmlns:xlink="http://www.w3.org/1999/xlink" width="77.35659" height="74.09164" viewBox="0,0,77.35659,74.09164"><defs><linearGradient x1="195.35204" y1="204.36292" x2="210.5314" y2="209.18909" gradientUnits="userSpaceOnUse" id="color-1"><stop offset="0" stop-color="#bd8946"/><stop offset="1" stop-color="#bd8946" stop-opacity="0"/></linearGradient><radialGradient cx="233.25988" cy="180.30066" r="21.97894" gradientUnits="userSpaceOnUse" id="color-2"><stop offset="0" stop-color="#fff082"/><stop offset="1" stop-color="#ffd183"/></radialGradient><linearGradient x1="228.60853" y1="178.15717" x2="248.32161" y2="176.85032" gradientUnits="userSpaceOnUse" id="color-3"><stop offset="0" stop-color="#c66a21" stop-opacity="0"/><stop offset="1" stop-color="#c66a21"/></linearGradient><linearGradient x1="230.73966" y1="164.10805" x2="235.5903" y2="166.55523" gradientUnits="userSpaceOnUse" id="color-4"><stop offset="0" stop-color="#6f3939"/><stop offset="1" stop-color="#ffd183"/></linearGradient><linearGradient x1="239.46347" y1="168.2651" x2="243.68461" y2="171.68554" gradientUnits="userSpaceOnUse" id="color-5"><stop offset="0" stop-color="#6f3939"/><stop offset="1" stop-color="#ffd183"/></linearGradient><linearGradient x1="221.73688" y1="167.10641" x2="226.82387" y2="169.01429" gradientUnits="userSpaceOnUse" id="color-6"><stop offset="0" stop-color="#6f3939"/><stop offset="1" stop-color="#ffd183"/></linearGradient></defs><g transform="translate(-182.74802,-157.95233)"><g data-paper-data="{&quot;isPaintingLayer&quot;:true}" fill-rule="nonzero" stroke="none" stroke-width="0" stroke-linecap="butt" stroke-linejoin="miter" stroke-miterlimit="10" stroke-dasharray="" stroke-dashoffset="0" style="mix-blend-mode: normal"><g><path d="M234.93966,213.35685l-31.77763,18.68712c0,0 -14.01011,-9.3374 -16.3462,-15.50877c-0.75876,-2.00446 -1.62144,-5.90773 -1.50552,-8.70451c0.28954,-6.9865 5.33312,-12.05566 5.33312,-12.05566l19.27404,-11.34377z" data-paper-data="{&quot;index&quot;:null}" fill="#ffefda"/><path d="M215.77364,192.70118c0,0 -6.75732,1.54406 -8.38874,8.28272c-0.34536,1.42654 -5.06372,6.77081 -5.17734,12.75171c-0.1524,8.0215 4.36741,16.96092 4.36741,16.96092c0,0 -8.25644,-6.6982 -9.76571,-15.37946c-1.31394,-7.55773 4.20206,-17.18898 2.9146,-17.95885c-1.26647,-0.75731 -4.50741,2.20885 -6.46558,7.80962c-2.24945,6.4339 -3.14845,15.68301 -3.14845,15.68301c0,0 -8.94753,-11.32579 -7.11416,-17.09212c1.63981,-5.15755 26.23375,-19.47797 26.23375,-19.47797l6.5442,8.4204z" data-paper-data="{&quot;index&quot;:null}" fill="url(#color-1)"/><path d="M214.96535,177.36898c2.64264,-1.52534 10.89952,5.17983 18.44226,14.97642c7.54272,9.79659 11.51502,18.97482 8.87238,20.50016c-2.64264,1.52534 -10.89952,-5.17983 -18.44226,-14.97642c-7.54272,-9.79659 -11.51502,-18.97482 -8.87238,-20.50016z" data-paper-data="{&quot;index&quot;:null}" fill="#020713"/><g data-paper-data="{&quot;index&quot;:null}"><path d="M246.41116,177.6406c0.12809,1.43669 5.01907,-2.67371 8.10343,-2.87888c3.7806,-0.25149 5.85739,3.3165 5.56232,4.94718c-1.49009,8.23496 -19.86915,22.03848 -24.86523,22.48391c-6.79253,0.60558 -17.3811,-5.85041 -18.45904,-17.94108c-1.07794,-12.09071 9.77463,-24.92107 16.56715,-25.52665c4.76561,-0.42488 11.48107,0.36834 14.15203,7.24123c1.13601,2.92317 -1.38233,8.06639 -1.06067,11.67426z" data-paper-data="{&quot;index&quot;:null}" fill="url(#color-2)"/><path d="M248.32164,176.85031c0.04429,0.66806 4.5807,-1.10651 7.0115,-1.45369c0.96545,-0.1379 2.32352,0.64595 2.94402,1.5986c1.21051,1.8585 1.20538,4.72511 1.14985,5.2053c-0.13757,1.18968 -0.77946,-3.89299 -3.76337,-3.91899c-2.42538,-0.02113 -5.59588,2.20143 -6.57638,3.34291c-0.55528,0.64644 -5.56942,4.03578 -5.96061,4.82337c-2.69791,5.43166 2.56784,10.80569 -0.05884,10.97981c-2.43137,0.16118 -14.92737,3.8111 -16.79609,1.66311c-2.31519,-2.66119 2.64635,-16.26458 2.33682,-20.93356c-0.55936,-8.4376 0.22907,-17.7668 5.67269,-18.12768c3.67321,-0.24352 11.69617,-1.2238 13.69778,3.28196c0.96473,2.17166 0.16068,10.79477 0.3426,13.53888z" data-paper-data="{&quot;index&quot;:null}" fill="url(#color-3)"/><path d="M235.59032,166.55523c-2.02731,4.0184 -4.31802,11.64773 -5.65749,10.97195c-1.33946,-0.67577 -1.22047,-9.40073 0.80684,-13.41913c2.0273,-4.01841 4.75662,-6.72816 6.09609,-6.05238c1.33946,0.67577 0.78186,4.48117 -1.24545,8.49957z" data-paper-data="{&quot;index&quot;:null}" fill="url(#color-4)"/><path d="M242.16486,171.32516c-2.83358,3.49691 -4.65309,10.39788 -5.81871,9.45335c-1.16565,-0.94454 0.82901,-14.0238 3.66261,-17.52071c2.8336,-3.49691 5.53031,-0.55873 6.69593,0.3858c1.16565,0.94451 -1.70621,4.18465 -4.53981,7.68156z" data-paper-data="{&quot;index&quot;:null}" fill="url(#color-5)"/><path d="M226.82385,169.01432c-1.58056,4.21419 -3.03221,12.0466 -4.43694,11.51974c-1.40474,-0.52686 -2.23059,-9.21345 -0.65005,-13.42765c1.58056,-4.21422 4.00062,-7.2034 5.40535,-6.67654c1.40474,0.52685 1.26219,4.37022 -0.31835,8.58442z" data-paper-data="{&quot;index&quot;:null}" fill="url(#color-6)"/></g><path d="M234.49298,205.17816c4.56094,4.60572 8.59014,5.83166 8.59014,5.83166l-12.80216,6.63212c0,0 -10.44795,-10.66942 -14.0223,-15.43411c-4.33533,-5.77905 -11.25101,-15.26139 -11.25101,-15.26139l11.41786,-11.6083c0,0 3.72055,12.51479 7.95093,17.80655c1.79014,2.23923 7.2353,9.12397 10.11652,12.03347z" data-paper-data="{&quot;index&quot;:null}" fill="#113a9e"/></g></g></g></svg>