<svg version="1.1" xmlns="http://www.w3.org/2000/svg" xmlns:xlink="http://www.w3.org/1999/xlink" width="97.00177" height="271.42227" viewBox="0,0,97.00177,271.42227"><g transform="translate(-148.89859,-12.43001)"><g data-paper-data="{&quot;isPaintingLayer&quot;:true}" fill-rule="nonzero" stroke-linejoin="miter" stroke-miterlimit="10" stroke-dasharray="" stroke-dashoffset="0" style="mix-blend-mode: normal"><path d="M228.8887,54.85211c-1.85696,20.84587 -21.01231,36.17253 -42.78467,34.23304c-21.77236,-1.93949 -37.91698,-20.41068 -36.06002,-41.25656c1.85696,-20.84587 21.01231,-36.17253 42.78467,-34.23304c21.77236,1.93949 37.91698,20.41068 36.06002,41.25656z" fill="#ffffff" stroke="#000000" stroke-width="2" stroke-linecap="butt"/><path d="M188.76979,87.63175l-4.41561,116.40125l-32.22046,77.13073" fill="none" stroke="#000000" stroke-width="2" stroke-linecap="round"/><path d="M217.9541,282.85228l-32.77293,-78.21734" fill="none" stroke="#000000" stroke-width="2" stroke-linecap="round"/><path d="M235.16262,193.21596l-78.87843,-25.62597l32.3699,-59.67824l-36.53966,30.5622l82.71558,39.49465" fill="none" stroke="#000000" stroke-width="2" stroke-linecap="round"/><path d="M237.49577,176.51521c0.20633,-2.31621 2.25125,-4.0266 4.56746,-3.82027c2.31621,0.20633 4.0266,2.25125 3.82027,4.56746c-0.20633,2.31621 -2.25125,4.0266 -4.56746,3.82027c-2.31621,-0.20633 -4.0266,-2.25125 -3.82027,-4.56746z" fill="#ff0000" stroke="none" stroke-width="0.5" stroke-linecap="butt"/><path d="M234.32386,193.14124c0.20633,-2.31621 2.25125,-4.0266 4.56746,-3.82027c2.31621,0.20633 4.0266,2.25125 3.82027,4.56746c-0.20633,2.31621 -2.25125,4.0266 -4.56746,3.82027c-2.31621,-0.20633 -4.0266,-2.25125 -3.82027,-4.56746z" fill="#ff0000" stroke="none" stroke-width="0.5" stroke-linecap="butt"/></g></g></svg>