<svg version="1.1" xmlns="http://www.w3.org/2000/svg" xmlns:xlink="http://www.w3.org/1999/xlink" width="107.29073" height="261.56999" viewBox="0,0,107.29073,261.56999"><g transform="translate(-130.92,0.56999)"><g data-paper-data="{&quot;isPaintingLayer&quot;:true}" fill-rule="nonzero" stroke-linejoin="miter" stroke-miterlimit="10" stroke-dasharray="" stroke-dashoffset="0" style="mix-blend-mode: normal"><path d="M224.8887,41.85211c-1.85696,20.84587 -21.01231,36.17253 -42.78467,34.23304c-21.77236,-1.93949 -37.91698,-20.41068 -36.06002,-41.25656c1.85696,-20.84587 21.01231,-36.17253 42.78467,-34.23304c21.77236,1.93949 37.91698,20.41068 36.06002,41.25656z" fill="#ffffff" stroke="#000000" stroke-width="2" stroke-linecap="butt"/><path d="M182.76979,74.63175l-4.41561,116.40125l-1.5862,3.79712l41.23202,32.16987l-48,33" fill="none" stroke="#000000" stroke-width="2" stroke-linecap="round"/><path d="M229.16262,180.21596l-78.87843,-25.62597l32.3699,-59.67824l-36.53966,30.5622l82.71558,39.49465" fill="none" stroke="#000000" stroke-width="2" stroke-linecap="round"/><path d="M229.80614,166.6264c0.20633,-2.31621 2.25125,-4.0266 4.56746,-3.82027c2.31621,0.20633 4.0266,2.25125 3.82027,4.56746c-0.20633,2.31621 -2.25125,4.0266 -4.56746,3.82027c-2.31621,-0.20633 -4.0266,-2.25125 -3.82027,-4.56746z" fill="#ff0000" stroke="none" stroke-width="0.5" stroke-linecap="butt"/><path d="M228.32386,180.14124c0.20633,-2.31621 2.25125,-4.0266 4.56746,-3.82027c2.31621,0.20633 4.0266,2.25125 3.82027,4.56746c-0.20633,2.31621 -2.25125,4.0266 -4.56746,3.82027c-2.31621,-0.20633 -4.0266,-2.25125 -3.82027,-4.56746z" fill="#ff0000" stroke="none" stroke-width="0.5" stroke-linecap="butt"/><path d="M176.8,194l13.2,36.96l-58.08,29.04" fill="none" stroke="#000000" stroke-width="2" stroke-linecap="round"/></g></g></svg>