<svg version="1.1" xmlns="http://www.w3.org/2000/svg" xmlns:xlink="http://www.w3.org/1999/xlink" width="139.10796" height="271.42227" viewBox="0,0,139.10796,271.42227"><g transform="translate(-142.39204,-12.43002)"><g data-paper-data="{&quot;isPaintingLayer&quot;:true}" fill-rule="nonzero" stroke-linejoin="miter" stroke-miterlimit="10" stroke-dasharray="" stroke-dashoffset="0" style="mix-blend-mode: normal"><path d="M228.88871,54.85212c-1.85696,20.84587 -21.01231,36.17253 -42.78467,34.23304c-21.77236,-1.93949 -37.91698,-20.41068 -36.06002,-41.25656c1.85696,-20.84587 21.01231,-36.17253 42.78467,-34.23304c21.77236,1.93949 37.91698,20.41068 36.06002,41.25656z" fill="#ffffff" stroke="#000000" stroke-width="2" stroke-linecap="butt"/><path d="M188.7698,87.63176l-4.41561,116.40125l-32.22046,77.13073" fill="none" stroke="#000000" stroke-width="2" stroke-linecap="round"/><path d="M217.95411,282.85229l-32.77293,-78.21734" fill="none" stroke="#000000" stroke-width="2" stroke-linecap="round"/><path d="M208,185l-64,-24l44,-58l88,-2" fill="none" stroke="#000000" stroke-width="2" stroke-linecap="round"/><path d="M276.5,102c0,-1.38071 1.11929,-2.5 2.5,-2.5c1.38071,0 2.5,1.11929 2.5,2.5c0,1.38071 -1.11929,2.5 -2.5,2.5c-1.38071,0 -2.5,-1.11929 -2.5,-2.5z" fill="#ff6666" stroke="none" stroke-width="0.5" stroke-linecap="butt"/><path d="M207.5,186c0,-1.38071 1.11929,-2.5 2.5,-2.5c1.38071,0 2.5,1.11929 2.5,2.5c0,1.38071 -1.11929,2.5 -2.5,2.5c-1.38071,0 -2.5,-1.11929 -2.5,-2.5z" fill="#ff6666" stroke="none" stroke-width="0.5" stroke-linecap="butt"/></g></g></svg>