<?xml version="1.0" encoding="UTF-8"?>
<svg id="Layer_1" xmlns="http://www.w3.org/2000/svg" viewBox="0 0 180.61 180.72">
  <defs>
    <style>
      .cls-1 {
        fill: #fab828;
      }

      .cls-2 {
        fill: #eb4a00;
      }

      .cls-3 {
        fill: #f36900;
      }
    </style>
  </defs>
  <path class="cls-3" d="m144.02,143.1c5.36-2.54,8.04-8.45,6.53-13.65-1.25-4.3-5.2-7.51-9.95-8.05.41-1.05,1.1-3.25.76-6.05-.36-2.92-1.65-4.96-2.31-5.87.77-.52,4.4-3.09,5.24-7.82.81-4.53-1.24-9.27-5.24-12.18,3.61-3.54,5.06-8.65,3.73-13.29-1.55-5.41-6.18-7.79-6.98-8.18.9-1.98,3.33-8.03,1.07-14.63-3.06-8.93-12.91-13.66-21.37-13.16-6.97.41-11.77,4.31-13.51,5.87-.94-.56-4.65-2.62-9.37-1.64-3.16.65-5.25,2.34-6.18,3.2-3.6-6.12-9.7-9.1-14.57-7.69-2.65.77-4.4,2.67-5.38,4.05-.08-.66-.4-2.48-1.91-4.05-2.18-2.26-5.09-2.16-5.55-2.13-.41-4.02-2.96-7.29-6.35-8.22-2.88-.8-5.38.37-6.13.76-.18-.21-1.22-1.44-2.89-1.47-.87-.02-1.65.3-2.13.67-1.9,1.45-1.18,5.34-.89,6.94,1.15,6.27,5.48,11.39,8.57,14.4-.35.38-2.09,2.34-1.91,5.2.11,1.75.89,3,1.29,3.56-1.46,1.38-3.86,4.04-5.24,8.09-.71,2.08-.95,3.96-1.02,5.42-5.86.42-10.42,4.39-11.15,9.16-.68,4.43,2.19,7.89,2.71,8.49-.74.74-5.88,6.02-5.24,14.05.69,8.68,7.55,13.17,8.31,13.65-4.3,6.52-3.76,15.04,1.16,20.67,4.37,5.01,11.49,6.93,18.04,4.85.39,8.16,6.35,14.98,14.17,16.4,7.35,1.34,14.86-2.35,18.44-9.11.87.64,6.94,4.93,14.48,2.98,4.67-1.21,7.5-4.2,8.57-5.47,1.03.24,2.32.44,3.82.44,2.45,0,4.44-.54,5.78-1.02.48.8,2.24,3.48,5.73,4.62,4.95,1.63,9.12-1.22,9.6-1.56,3.45,3.41,7.94,4.47,11.11,2.8,1.5-.79,3.49-2.61,3.47-4.93-.03-2.8-2.96-5.68-7.29-6.09Zm-41.19-35.79c-.68.37-2.15,1.3-3.02,3.11-.33.69-.5,1.34-.58,1.87-.71-.42-3.69-2.07-7.6-1.29-3.82.76-5.93,3.34-6.44,4-.13-1.03-.52-3-1.91-5.02-1.17-1.69-2.53-2.68-3.38-3.2.54-.82,2.87-4.54,2.04-9.51-.75-4.52-3.62-7.16-4.44-7.87.48-.09,1.23-.29,1.95-.84,1.68-1.27,1.84-3.29,1.87-3.65.76.47,2.05,1.12,3.78,1.33,3,.37,5.3-.86,6.09-1.33.32,1.17,1.5,4.84,5.15,7.47,2.59,1.86,5.2,2.31,6.49,2.45-.59.87-1.71,2.77-1.91,5.42-.27,3.62,1.35,6.25,1.91,7.07Z"/>
  <path class="cls-2" d="m66.49,44.01c-.08-.66-.4-2.48-1.91-4.05-2.18-2.26-5.09-2.16-5.55-2.13-.41-4.02-2.96-7.29-6.35-8.22-2.88-.8-5.38.37-6.13.76-.18-.21-1.22-1.44-2.89-1.47-.87-.02-1.65.3-2.13.67-1.9,1.45-1.18,5.34-.89,6.94,1.15,6.27,5.48,11.39,8.57,14.4-.35.38-2.09,2.34-1.91,5.2.08,1.21.47,2.18.84,2.85l.45.71,13.6-3.38,6.44-11.11v-3.46c-.92.76-1.63,1.6-2.13,2.31Z"/>
  <path class="cls-2" d="m111.81,148.84c1.03.24,2.32.44,3.82.44,2.45,0,4.44-.54,5.78-1.02.48.8,2.24,3.48,5.73,4.62,4.95,1.63,9.12-1.22,9.6-1.56,3.45,3.41,7.94,4.47,11.11,2.8,1.5-.79,3.49-2.61,3.47-4.93-.03-2.8-2.96-5.68-7.29-6.09,5.36-2.54,8.04-8.45,6.53-13.65-1.25-4.3-5.2-7.51-9.95-8.05.41-1.05,1.1-3.25.76-6.05-.36-2.92-1.65-4.96-2.31-5.87.77-.52,4.4-3.09,5.24-7.82.58-3.27-.32-6.65-2.37-9.37.14,7.37-3.2,13.78-8.65,16.3-2.77,1.28-5.49,1.29-7.38,1.07,1.5,7.08-1.94,13.57-7.11,15.38-4.68,1.64-9.16-1.11-9.86-1.56-.32.68-2.4,4.83-7.24,6.22-3.59,1.03-6.6-.05-7.55-.44.25.47,2.37,4.33,6.93,5.11,3.52.6,7.13-.86,9.37-3.78,1.12.6,3,1.41,5.46,1.64,3.22.31,5.76-.54,7.02-1.07,1.92,3.35,1.76,7.41-.4,10.27-2.48,3.29-6.47,3.46-6.84,3.47-2.75.07-4.72-1.16-5.42-1.64-.23.56-2.8,6.44-9.15,7.82-5.04,1.1-10.39-1.07-13.51-5.51-4.41,7.56-13.08,10.59-19.68,7.82-6.99-2.93-8.55-11.07-8.66-11.69.54-.33,1.14-.75,1.73-1.29,1.64-1.48,2.54-3.13,3.02-4.27-6.68,4.56-15.29,4.54-21.33.09-7.24-5.34-7.14-14.35-7.12-15.21-2.8,6.03-1.8,13.16,2.54,18.14,4.37,5.01,11.49,6.93,18.04,4.85.39,8.16,6.35,14.98,14.17,16.4,7.35,1.34,14.86-2.35,18.44-9.11.87.64,6.94,4.93,14.48,2.98,4.67-1.21,7.5-4.2,8.57-5.47Z"/>
  <path class="cls-2" d="m28.92,100.13c-.29,1.45-.42,3.03-.28,4.75.69,8.68,7.55,13.17,8.31,13.65.83-1.17,2.09-2.68,3.91-4.09,2.6-2.03,5.18-2.97,6.84-3.42-.91.23-7.49,1.78-13.2-2.49-3.96-2.97-5.22-7.03-5.58-8.39Z"/>
  <path class="cls-2" d="m56.5,103.72c-2.37,3.73-1.69,8.52,1.29,11.16,3.45,3.05,9.3,2.63,12.53-1.42-4.08,1.98-8.79,1.22-11.55-1.73-2.96-3.17-2.36-7.44-2.27-8Z"/>
  <path class="cls-2" d="m92.66,83.35c.28-.31.56-.67.84-1.07.6-.86,1.01-1.69,1.29-2.4-.38.44-3.85,4.4-9.37,4.05-4.67-.3-7.42-3.47-7.91-4.05.06.41.2,1.07.62,1.78.34.57.73.96,1.02,1.2-.33.83-1,2.19-2.31,3.47-1.04,1.02-2.1,1.62-2.84,1.96,1.17.37,2.34.74,3.51,1.11.48-.09,1.23-.29,1.95-.84,1.68-1.27,1.84-3.29,1.87-3.65.76.47,2.05,1.12,3.78,1.33,3,.37,5.3-.86,6.09-1.33.32,1.17,1.5,4.84,5.15,7.47,2.59,1.86,5.2,2.31,6.49,2.45,1.69-.25,3.38-.5,5.07-.76.19-.68.38-1.36.58-2.05.25-.87.5-1.75.76-2.62-.91.42-4.51,1.96-8.84.67-5.21-1.56-7.39-5.99-7.73-6.71Z"/>
  <path class="cls-1" d="m140.76,87.47c2.32-3.32,3.11-7.45,2.02-11.27-1.55-5.41-6.18-7.79-6.98-8.18.9-1.98,3.33-8.03,1.07-14.63-3.06-8.93-12.91-13.66-21.37-13.16-6.97.41-11.77,4.31-13.51,5.87-.94-.56-4.65-2.62-9.37-1.64-3.16.65-5.25,2.34-6.18,3.2-2.94-5.9-9.08-9.04-14.57-7.87-6.85,1.46-9.38,8.92-9.55,9.47-.91,2.82-.72,5.32-.49,6.8-1.91-.09-4.81.02-8.09,1.11-2.16.72-3.88,1.66-5.15,2.49-1.64,1.56-3.93,4.22-5.24,8.09-.39,1.14-.64,2.22-.79,3.2.81-1.56,3.64-6.54,9.81-9.29,5.17-2.3,9.84-1.78,11.69-1.47.42-5.6,4.16-10.31,9.29-11.78,6.72-1.93,12.06,2.8,12.35,3.07,1.42-.9,4.94-2.84,9.77-2.8,6.03.05,10.12,3.14,11.33,4.13-.09-.7-.32-1.74-.93-2.85-.37-.68-.79-1.21-1.16-1.6,10.69-5.19,22.22-2.53,27.1,4.71,4,5.93,2.31,13.12,1.87,14.8-.58.04-1.21.11-1.87.22-1.26.21-2.38.52-3.33.84.67.08,7.91,1.1,11.33,7.69,2.57,4.95,1.28,9.75.96,10.83Z"/>
  <path class="cls-1" d="m50.76,90.29c.52-.56,3.05-3.18,7.11-3.33,5.32-.21,8.49,3.99,8.75,4.36,1.04-.34,4.69-1.38,8.35.4,4.28,2.08,6.81,7.17,6.17,12.68.47-1.17,1.35-3.81.8-7.12-.75-4.52-3.62-7.16-4.44-7.87-.74-.46-2.76-1.55-5.51-1.42-2.42.11-4.15,1.11-4.89,1.6-.59-1.01-1.64-2.43-3.38-3.51-.34-.21-4.14-2.5-8.18-1.02-1.62.59-2.6,1.54-2.8,1.73-1.33,1.31-1.82,2.8-2,3.51Z"/>
  <path class="cls-1" d="m85.04,114.06c-.23-1.08-.71-2.57-1.75-4.07-1.17-1.69-2.53-2.68-3.38-3.2-.83-.26-2.06-.55-3.55-.53-1.79.02-3.21.45-4.09.8,1.6.15,4.41.63,7.42,2.36,2.68,1.54,4.4,3.43,5.35,4.65Z"/>
  <path class="cls-1" d="m129.01,94.82c-2.63-2.67-6.28-3.76-9.46-2.76-2.35.74-3.73,2.41-4.31,3.2-.48-.49-2.54-2.5-5.86-2.71-3.64-.23-6.08,1.86-6.53,2.27-.43.66-1.14,1.87-1.55,3.42-.11.43-.36,1.38-.38,2.65,0,.21,0,.39,0,.51.11-.33,1.57-4.58,6.02-5.83,3.07-.86,6.39.03,8.66,2.31.53-.85,1.86-2.71,4.31-3.78,4.42-1.93,8.61.42,9.11.71Z"/>
  <path class="cls-1" d="m80.71,63.53c.59-.39,4.1-2.62,8.62-1.56,3.97.94,6.05,3.79,6.53,4.49.58-.49,3.47-2.82,7.46-2.4,3.8.4,7.11,3.15,8.49,7.02.14-.08,3.21-1.76,6.13-.09,2.28,1.3,3.47,4.06,2.89,6.8,2.15-2.57,2.13-6.26.09-8.62-1.77-2.05-4.75-2.76-7.42-1.73-.32-.64-2.25-4.36-6.71-5.69-5.16-1.54-9.32,1.44-9.77,1.78-1.69-2.97-4.86-4.8-8.26-4.76-5.26.06-7.93,4.56-8.04,4.76Z"/>
  <path class="cls-1" d="m72.27,123.19c1.83-2.6,4.98-3.88,7.95-3.25,3.43.73,6.01,3.88,6.09,7.6-.26-.51-2.55-4.74-7.42-5.56-3.25-.55-5.8.74-6.62,1.2Z"/>
  <path class="cls-3" d="m152.69,82.42c1.02-1.61,2.78-2.5,4.49-2.27,2.37.32,4.08,2.73,3.82,5.11-.22,2.06-1.87,3.79-4.04,4.18-1.84,3.26-5.72,4.28-8.31,2.76-2-1.18-3.35-3.95-2.35-6.54.95-2.46,3.69-3.9,6.4-3.25Z"/>
  <path class="cls-1" d="m157.17,80.15c-1.7-.23-3.47.66-4.49,2.27-2.71-.65-5.45.79-6.4,3.25.6-.49,1.52-1.1,2.75-1.47,2.93-.87,5.45.27,6.18.62-.09-.27-.28-.75-.71-1.2-.38-.4-.78-.61-1.02-.71.55-.66,1.11-.99,1.51-1.16,1.74-.75,3.98-.11,5.77,1.53-.05-.12-1.15-2.8-3.6-3.13Z"/>
  <path class="cls-2" d="m156.95,89.44c2.17-.39,3.81-2.11,4.04-4.16-.1.24-.85,1.92-2.62,2.38-.76.2-1.43.1-1.82,0-.36.44-2.15,2.52-5.24,2.85-2.56.27-4.45-.83-5.02-1.19.15.42.44,1.04.96,1.67.4.49.88.91,1.4,1.21,2.59,1.52,6.47.5,8.31-2.76Z"/>
  <path class="cls-3" d="m34.64,56.24c-1.29,1.05-1.88,2.88-1.44,4.49.19.69.59,1.38,1.25,1.65.45.19.96.15,1.45.12.92-.07,1.85-.13,2.77-.2.58-.04,1.17-.09,1.69-.35,1.12-.57,1.52-2.07,1.17-3.27-.35-1.2-1.57-2.76-2.77-3.18-1.36-.48-3-.15-4.11.75Z"/>
</svg>