<?xml version="1.0" encoding="UTF-8"?>
<svg id="Layer_1" xmlns="http://www.w3.org/2000/svg" viewBox="0 0 180.61 180.72">
  <defs>
    <style>
      .cls-1 {
        fill: #f9b828;
      }

      .cls-2 {
        fill: #eb4a00;
      }

      .cls-3 {
        fill: #f36900;
      }
    </style>
  </defs>
  <path class="cls-3" d="m33.48,28.07c-.65,2.43.42,5.17,2.43,6.68,1.3.98,2.95,1.48,4.57,1.39,2.39-.13,4.67-1.61,5.72-3.75,1.05-2.15.79-4.89-.69-6.77-3.07-3.89-10.72-2.4-12.02,2.45Z"/>
  <path class="cls-3" d="m59.47,43.71c-.14.11-3.15,2.6-2.58,6.31.05.35.52,3.07,2.98,4.49,2.29,1.32,5.36.97,7.64-.93.25.07,3.51.92,6-1.29,1.69-1.5,2.82-4.24,1.69-6.71-.85-1.85-2.74-3.08-4.89-3.25-.04-.71-.26-2.6-1.69-3.87-2.51-2.23-7.44-1.37-8.93,1.47-.77,1.46-.43,3.07-.22,3.78Z"/>
  <path class="cls-3" d="m39.12,52.38c.73-.14,4.03-.71,6.09,1.2,3.21,2.98,1.89,10.57-2.53,12.36-3.37,1.36-7-1.27-7.33-1.51-.48.08-4.86.72-7.29-2-3.29-3.67-1.2-11.45,3.42-12.8,2.5-.73,5.44.5,7.64,2.76Z"/>
  <path class="cls-3" d="m122.25,62.12c-.98-2.14-2.84-3.62-4.89-3.78-3.44-.27-6.95,3.23-6.26,6.36.44,1.99,2.52,3.59,5.11,3.96.92,4.72,4.79,7.77,8.26,7.47,4.87-.42,8.41-7.38,6.04-11.25-1.39-2.27-4.73-3.35-8.26-2.76Z"/>
  <path class="cls-3" d="m108.42,47.98c-.19.23-1.09,1.36-.88,2.84.13.91.69,1.74,1.45,2.26s1.7.75,2.62.73c.35-.01,2.76-.14,3.91-2.23.74-1.33.84-3.24-.15-4.41-1.6-1.9-5.38-1.12-6.95.81Z"/>
  <path class="cls-3" d="m139.01,44.07c-1.13,1.78-.68,3.99.3,5.28.96,1.28,2.54,2,4.13,2.16.96.09,1.95,0,2.81-.44,1.7-.87,2.57-3.18,2.1-5.2-.53-2.24-2.59-3.49-4.37-3.75-.24-.03-3.43-.46-4.97,1.96Z"/>
  <path class="cls-3" d="m133.93,26.54c-1.42,2.42-.74,5.39.5,7.1,1.7,2.36,4.8,3.38,7.7,3.27,1.18-.05,2.37-.27,3.39-.86,1.8-1.04,2.83-3.18,2.78-5.26-.08-3.14-2.17-5.1-2.62-5.49-2.63-2.3-5.84-1.92-6.5-1.82-.89.13-3.78.55-5.25,3.06Z"/>
  <path class="cls-3" d="m145.18,144.99c-.06-.13-1.19-2.65.27-4.8,1.27-1.88,3.68-2.24,5.42-1.78,1.91.5,3.39,2.06,3.87,4.05,2.83-.49,5.57,1,6.58,3.47,1.23,3.02-.61,6.35-3.07,7.47-3.14,1.44-6.81-.97-6.8-1.02,0,0,0,0,0,0,0-.02-2.45.92-4.44.58-.16-.03-3.04-.57-3.78-2.93-.54-1.71.24-3.75,1.95-5.02h0Z"/>
  <path class="cls-3" d="m126.78,151.62c.29-.14,1.72-.81,3.29-.22,1.59.6,2.91,2.33,2.58,4.22-.25,1.43-1.39,2.62-2.89,3.02-1.62,2.22-4.42,3.06-6.66,2.13-2.86-1.18-4.36-5.03-2.71-7.51,1.2-1.82,3.89-2.6,6.4-1.64Z"/>
  <path class="cls-3" d="m127.06,128.23c-.45,1.69.44,3.63,2,4.44.77.4,1.67.54,2.51.36,1.67-.35,2.94-2.02,2.93-3.73-.01-1.64-1.42-3.87-3.2-4.03-1.75-.16-3.79,1.3-4.24,2.96Z"/>
  <path class="cls-3" d="m26.1,130.36c-3.85,2.43-5.62,6.93-4.44,10.89.91,3.05,3.58,5.84,7.11,6.31,4.08.55,8.28-2.12,9.77-6.54,2.83-1.12,4.4-3.96,3.87-6.54-.62-2.97-3.72-4.09-3.87-4.13.42-2.61-.67-5.19-2.75-6.49-2.72-1.7-6.22-.68-8.09,1.42-1.78,2-1.64,4.51-1.6,5.07Z"/>
  <path class="cls-3" d="m51.83,147.65c-1.27-1.72-3.27-2.68-5.2-2.4-2.84.41-4.78,3.37-4.53,6.14.29,3.21,3.41,4.73,3.55,4.8.79,3.1,3.26,5.33,6.04,5.6,3.85.38,7.6-3.07,7.51-7.2-.09-3.78-3.36-6.98-7.38-6.94Z"/>
  <path class="cls-3" d="m51.53,128.7c-.78.93-1.21,2.13-1.33,3.35-.13,1.28.09,2.65.86,3.68.74.99,1.89,1.57,3.02,2.08,1.31.58,2.77,1.11,4.13.7,2.98-.9,3.92-5.87,2.22-8.25-1.93-2.71-6.46-4.47-8.91-1.55Z"/>
  <path class="cls-2" d="m46.19,32.39c.5-1.02.7-2.18.62-3.32-.18.55-.47,1.06-.85,1.51-.45.54-.9.88-1.32,1.16-1.68,1.12-2.55,1.7-3.96,2.01-1.82.4-3.32.06-4.18-.14-.99-.23-1.77-.56-2.31-.82.44.76,1.02,1.43,1.72,1.96,1.3.98,2.95,1.48,4.57,1.39,2.39-.13,4.67-1.61,5.72-3.75Z"/>
  <path class="cls-1" d="m45.56,25.71s-.04-.06-.07-.09c-3.07-3.89-10.72-2.4-12.02,2.45-.06.23-.11.45-.14.68.27-.59.78-1.51,1.69-2.38.08-.08,1.3-1.21,3.07-1.78,3.53-1.13,6.9.78,7.46,1.11Z"/>
  <path class="cls-1" d="m46.66,56.02c-.29-.96-.77-1.81-1.45-2.44-2.06-1.91-5.36-1.34-6.09-1.2-2.2-2.25-5.14-3.48-7.64-2.76-2.36.69-4.05,3.05-4.72,5.68.19-.36,1.93-3.47,5.65-4.04,3.19-.49,5.51,1.24,5.91,1.56-.22.17-.53.46-.8.89-.18.3-.29.58-.36.8.66-.34,2.4-1.11,4.67-.84,2.66.31,4.33,1.86,4.83,2.35Z"/>
  <path class="cls-2" d="m35.97,63.09c-.08-.18-.15-.42-.18-.71-.06-.67.18-1.19.31-1.42-.28.19-3.14,2.07-6.31.84-1.91-.74-2.9-2.22-3.24-2.77.11.78.42,2.18,1.51,3.4,2.43,2.72,6.81,2.08,7.29,2,.33.24,3.96,2.87,7.33,1.51,1.77-.71,3.04-2.35,3.72-4.25-.48.47-2.9,2.75-6.48,2.6-1.83-.08-3.21-.75-3.95-1.2Z"/>
  <path class="cls-3" d="m33.48,28.07c-.65,2.43.42,5.17,2.43,6.68,1.3.98,2.95,1.48,4.57,1.39,2.39-.13,4.67-1.61,5.72-3.75,1.05-2.15.79-4.89-.69-6.77-3.07-3.89-10.72-2.4-12.02,2.45Z"/>
  <path class="cls-3" d="m59.47,43.71c-.14.11-3.15,2.6-2.58,6.31.05.35.52,3.07,2.98,4.49,2.29,1.32,5.36.97,7.64-.93.25.07,3.51.92,6-1.29,1.69-1.5,2.82-4.24,1.69-6.71-.85-1.85-2.74-3.08-4.89-3.25-.04-.71-.26-2.6-1.69-3.87-2.51-2.23-7.44-1.37-8.93,1.47-.77,1.46-.43,3.07-.22,3.78Z"/>
  <path class="cls-3" d="m39.12,52.38c.73-.14,4.03-.71,6.09,1.2,3.21,2.98,1.89,10.57-2.53,12.36-3.37,1.36-7-1.27-7.33-1.51-.48.08-4.86.72-7.29-2-3.29-3.67-1.2-11.45,3.42-12.8,2.5-.73,5.44.5,7.64,2.76Z"/>
  <path class="cls-3" d="m122.25,62.12c-.92-2.52-3.12-4.2-5.42-4.22-3.44-.04-6.55,3.61-5.73,6.8.52,2.03,2.56,3.63,5.11,3.96.9,4.55,4.56,7.6,8.26,7.47,2.39-.08,4.83-1.5,6.13-3.82,1.15-2.07,1.49-5.03-.09-7.42-1.69-2.56-5.06-3.72-8.26-2.76Z"/>
  <path class="cls-3" d="m108.42,47.98c-.19.23-1.09,1.36-.88,2.84.13.91.69,1.74,1.45,2.26s1.7.75,2.62.73c.35-.01,2.76-.14,3.91-2.23.74-1.33.84-3.24-.15-4.41-1.6-1.9-5.38-1.12-6.95.81Z"/>
  <path class="cls-3" d="m139.01,44.07c-1.13,1.78-.68,3.99.3,5.28.96,1.28,2.54,2,4.13,2.16.96.09,1.95,0,2.81-.44,1.7-.87,2.57-3.18,2.1-5.2-.53-2.24-2.59-3.49-4.37-3.75-.24-.03-3.43-.46-4.97,1.96Z"/>
  <path class="cls-3" d="m133.93,26.54c-1.42,2.42-.74,5.39.5,7.1,1.7,2.36,4.8,3.38,7.7,3.27,1.18-.05,2.37-.27,3.39-.86,1.8-1.04,2.83-3.18,2.78-5.26-.08-3.14-2.17-5.1-2.62-5.49-2.63-2.3-5.84-1.92-6.5-1.82-.89.13-3.78.55-5.25,3.06Z"/>
  <path class="cls-3" d="m145.18,144.99c-.06-.13-1.19-2.65.27-4.8,1.27-1.88,3.68-2.24,5.42-1.78,1.91.5,3.39,2.06,3.87,4.05,2.83-.49,5.57,1,6.58,3.47,1.23,3.02-.61,6.35-3.07,7.47-3.14,1.44-6.81-.97-6.8-1.02,0,0,0,0,0,0,0-.02-2.45.92-4.44.58-.16-.03-3.04-.57-3.78-2.93-.54-1.71.24-3.75,1.95-5.02h0Z"/>
  <path class="cls-3" d="m126.78,151.62c.29-.14,1.72-.81,3.29-.22,1.59.6,2.91,2.33,2.58,4.22-.25,1.43-1.39,2.62-2.89,3.02-1.62,2.22-4.42,3.06-6.66,2.13-2.86-1.18-4.36-5.03-2.71-7.51,1.2-1.82,3.89-2.6,6.4-1.64Z"/>
  <path class="cls-3" d="m127.06,128.23c-.45,1.69.44,3.63,2,4.44.77.4,1.67.54,2.51.36,1.67-.35,2.94-2.02,2.93-3.73-.01-1.64-1.42-3.87-3.2-4.03-1.75-.16-3.79,1.3-4.24,2.96Z"/>
  <path class="cls-3" d="m26.1,130.36c-3.85,2.43-5.62,6.93-4.44,10.89.91,3.05,3.58,5.84,7.11,6.31,4.08.55,8.28-2.12,9.77-6.54,2.83-1.12,4.4-3.96,3.87-6.54-.62-2.97-3.72-4.09-3.87-4.13.42-2.61-.67-5.19-2.75-6.49-2.72-1.7-6.22-.68-8.09,1.42-1.78,2-1.64,4.51-1.6,5.07Z"/>
  <path class="cls-3" d="m51.83,147.65c-1.27-1.72-3.27-2.68-5.2-2.4-2.84.41-4.78,3.37-4.53,6.14.29,3.21,3.41,4.73,3.55,4.8.79,3.1,3.26,5.33,6.04,5.6,3.85.38,7.6-3.07,7.51-7.2-.09-3.78-3.36-6.98-7.38-6.94Z"/>
  <path class="cls-3" d="m51.53,128.7c-.78.93-1.21,2.13-1.33,3.35-.13,1.28.09,2.65.86,3.68.74.99,1.89,1.57,3.02,2.08,1.31.58,2.77,1.11,4.13.7,2.98-.9,3.92-5.87,2.22-8.25-1.93-2.71-6.46-4.47-8.91-1.55Z"/>
  <path class="cls-2" d="m46.19,32.39c.5-1.02.7-2.18.62-3.32-.18.55-.47,1.06-.85,1.51-.45.54-.9.88-1.32,1.16-1.68,1.12-2.55,1.7-3.96,2.01-1.82.4-3.32.06-4.18-.14-.99-.23-1.77-.56-2.31-.82.44.76,1.02,1.43,1.72,1.96,1.3.98,2.95,1.48,4.57,1.39,2.39-.13,4.67-1.61,5.72-3.75Z"/>
  <path class="cls-1" d="m45.56,25.71s-.04-.06-.07-.09c-3.07-3.89-10.72-2.4-12.02,2.45-.06.23-.11.45-.14.68.27-.59.78-1.51,1.69-2.38.08-.08,1.3-1.21,3.07-1.78,3.53-1.13,6.9.78,7.46,1.11Z"/>
  <path class="cls-1" d="m46.66,56.02c-.29-.96-.77-1.81-1.45-2.44-2.06-1.91-5.36-1.34-6.09-1.2-2.2-2.25-5.14-3.48-7.64-2.76-2.36.69-4.05,3.05-4.72,5.68.19-.36,1.93-3.47,5.65-4.04,3.19-.49,5.51,1.24,5.91,1.56-.22.17-.53.46-.8.89-.18.3-.29.58-.36.8.66-.34,2.4-1.11,4.67-.84,2.66.31,4.33,1.86,4.83,2.35Z"/>
  <path class="cls-2" d="m35.97,63.09c-.08-.18-.15-.42-.18-.71-.06-.67.18-1.19.31-1.42-.28.19-3.14,2.07-6.31.84-1.91-.74-2.9-2.22-3.24-2.77.11.78.42,2.18,1.51,3.4,2.43,2.72,6.81,2.08,7.29,2,.33.24,3.96,2.87,7.33,1.51,1.77-.71,3.04-2.35,3.72-4.25-.48.47-2.9,2.75-6.48,2.6-1.83-.08-3.21-.75-3.95-1.2Z"/>
  <path class="cls-1" d="m75.01,45.2c-.92-1.64-2.7-2.72-4.7-2.87-.04-.71-.26-2.6-1.69-3.87-2.51-2.23-7.44-1.37-8.93,1.47-.77,1.46-.43,3.07-.22,3.78-.35.23-.79.57-1.2,1.07-.83.99-1.1,2.03-1.2,2.6.11-.27.8-1.83,2.58-2.51,1.53-.58,2.86-.13,3.2,0-.17-.24-.68-.87-1.6-1.16-.63-.2-1.18-.14-1.47-.09.03-2.14,1.07-4.08,2.71-4.85,2.37-1.11,5.91.23,7.29,3.6-.2.05-.47.14-.76.31-.39.23-.65.52-.8.71.68-.1,1.6-.17,2.67,0,2,.31,3.41,1.25,4.12,1.8Z"/>
  <path class="cls-2" d="m67.51,53.58c.25.07,3.51.92,6-1.29,1.2-1.07,2.12-2.76,2.14-4.53h0c-.55,1.17-1.24,1.93-1.7,2.35-.46.43-2.62,2.45-5.11,1.91-.76-.16-1.32-.51-1.64-.76-.21.27-2.02,2.44-5.07,2.4-2.96-.04-4.69-2.13-4.91-2.41.24.66.95,2.28,2.65,3.26,2.29,1.32,5.36.97,7.64-.93Z"/>
  <path class="cls-2" d="m116.79,68.25c.09-.1.18-.23.27-.4.15-.3.2-.57.22-.76-.47.19-1.34.47-2.44.4-1.3-.08-2.24-.59-2.68-.87.35.38.93.91,1.76,1.33.69.35,1.46.59,2.29.69.9,4.55,4.56,7.6,8.26,7.47,2.39-.08,4.83-1.5,6.13-3.82.31-.56.57-1.19.74-1.86-.4.71-1.48,2.39-3.58,3.37-2.45,1.15-5.64,1.05-8.04-.76-2.22-1.68-2.79-4.09-2.93-4.8Z"/>
  <path class="cls-1" d="m130.52,64.87c-1.69-2.56-5.06-3.72-8.26-2.76-.92-2.52-3.12-4.2-5.42-4.22-2.49-.03-4.81,1.88-5.59,4.15.14-.21,1.93-2.68,5.1-2.63,3.38.05,5.11,2.92,5.2,3.07-.19.12-.41.29-.62.53-.44.49-.63,1.02-.71,1.33.77-.45,1.93-.99,3.42-1.2,3.46-.48,6.11,1.2,6.89,1.73Z"/>
  <path class="cls-2" d="m141.31,35.44c-.58,0-2.04-.06-3.82-.62-1.46-.47-2.59-1.11-3.35-1.62.09.16.19.3.29.44,1.7,2.36,4.8,3.38,7.7,3.27,1.18-.05,2.37-.27,3.39-.86.91-.53,1.63-1.33,2.1-2.27-1.19.66-3.43,1.68-6.31,1.66Z"/>
  <path class="cls-1" d="m145.68,25.3c-2.63-2.3-5.84-1.92-6.5-1.82-.89.13-3.78.55-5.25,3.06-.24.42-.43.85-.55,1.29,1.06-1.38,2.62-2.4,4.32-2.83,2.45-.63,5.14-.09,7.28,1.26,1.21.76,2.25,1.76,3.1,2.91-.57-2.19-2.02-3.55-2.39-3.87Z"/>
  <path class="cls-2" d="m146.95,49.07c-1.43.81-3.13,1.02-4.77.94-.86-.04-1.73-.17-2.49-.57-.2-.1-.39-.23-.56-.37.06.09.12.19.19.27.96,1.28,2.54,2,4.13,2.16.96.09,1.95,0,2.81-.44,1.14-.58,1.91-1.82,2.15-3.18-.41.47-.91.87-1.45,1.18Z"/>
  <path class="cls-2" d="m115.52,51.59c.38-.68.59-1.51.57-2.32-.05.51-.27,1-.6,1.39-.47.56-1.11.94-1.77,1.24-.74.33-1.53.58-2.34.66-.81.08-1.65-.02-2.39-.35-.52-.23-.98-.57-1.36-1,.21.76.72,1.43,1.37,1.88.76.52,1.7.75,2.62.73.35-.01,2.76-.14,3.91-2.23Z"/>
  <path class="cls-1" d="m161.42,146.22h0c-.03-.1-.07-.2-.11-.3-1.01-2.46-3.75-3.96-6.58-3.47-.48-1.98-1.96-3.55-3.87-4.05-1.74-.46-4.15-.1-5.42,1.78-1.46,2.15-.33,4.67-.27,4.8-.86.64-1.48,1.47-1.82,2.36.42-.5,1.4-1.5,2.98-1.91.59-.15,1.12-.19,1.56-.18-.2-.14-.55-.34-1.02-.44-.59-.13-1.08-.03-1.33.04-.4-2.06.29-4.08,1.69-4.98,1.98-1.27,5.48-.35,6.98,2.8-.19.08-.45.21-.71.44-.41.37-.59.8-.67,1.02.6-.36,1.48-.75,2.58-.84,3.4-.29,5.75,2.59,6.02,2.92Z"/>
  <path class="cls-2" d="m158.24,153.39c1.81-.83,3.29-2.85,3.44-5.07-.21.62-.81,2.15-2.38,3.2-1.71,1.15-4.1,1.42-6,.4-.9-.48-1.47-1.14-1.78-1.56-.36.27-2.37,1.73-5.02,1.24-1.62-.29-2.69-1.17-3.15-1.6.02.17.04.33.07.5.95,1.94,3.43,2.41,3.58,2.44,1.99.35,4.44-.6,4.44-.58,0,0,0,0,0,0-.01.05,3.66,2.46,6.8,1.02Z"/>
  <path class="cls-2" d="m134.48,128.99c-.51,1.51-1.91,2.71-3.49,2.9-1.49.18-3.02-.54-3.91-1.73.29,1.06,1,2.01,1.98,2.51.77.4,1.67.54,2.51.36,1.67-.35,2.94-2.02,2.93-3.73,0-.1,0-.2-.02-.31Z"/>
  <path class="cls-2" d="m129.76,158.64c1.41-.38,2.49-1.44,2.83-2.75-.43.4-1.37,1.15-2.7,1.29-.32.03-.62.03-.89,0-.09.16-1.56,2.6-4.44,2.71-2.56.1-4.13-1.7-4.32-1.93.19.41.54,1.05,1.17,1.67.48.48,1.05.88,1.69,1.14,2.24.92,5.05.09,6.66-2.13Z"/>
  <path class="cls-1" d="m132.51,153.89c-.4-1.15-1.35-2.09-2.43-2.5-1.57-.59-3,.08-3.29.22-2.51-.95-5.19-.17-6.4,1.64-.36.55-.57,1.16-.65,1.8h0c.11-.28.9-2.24,3.05-2.96,1.66-.56,3.08-.02,3.47.13-.1.13-.21.28-.31.44-.27.43-.45.84-.58,1.2.16-.19,1.49-1.75,3.69-1.69,2.07.05,3.28,1.48,3.46,1.7Z"/>
  <path class="cls-2" d="m61.02,135.16c-.29.24-.62.44-.95.59-1.44.67-3.1.67-4.68.48-1.28-.16-2.57-.44-3.69-1.08-.52-.3-1-.68-1.4-1.13.14.62.38,1.21.76,1.72.74.99,1.89,1.57,3.02,2.08,1.31.58,2.77,1.11,4.13.7,1.42-.43,2.38-1.79,2.81-3.35Z"/>
  <path class="cls-2" d="m59.21,154.59c0-.18-.02-.36-.03-.53-.12.44-.76,2.72-3.03,4-1.93,1.09-4.35,1.08-6.26-.04-2.02-1.18-2.69-3.14-2.84-3.65-.34.11-1.33.4-2.49,0-1.57-.54-2.2-1.91-2.3-2.15.23.68.73,1.92,1.91,2.95.75.65,1.43.99,1.5,1.02.79,3.1,3.26,5.33,6.04,5.6,3.85.38,7.6-3.07,7.51-7.2Z"/>
  <path class="cls-1" d="m50.63,148.81c.72-.16,1.9-.33,3.29-.04,2.44.5,3.92,2.06,4.41,2.64-.33-.58-1.12-1.81-2.66-2.72-1.12-.66-2.43-1.04-3.84-1.03-1.27-1.72-3.27-2.68-5.2-2.4-1.72.25-3.11,1.43-3.89,2.94,1.8-1.61,4.14-2.11,5.93-1.25,1.05.5,1.65,1.34,1.95,1.87Z"/>
  <path class="cls-1" d="m38.55,130.36c.42-2.61-.67-5.19-2.75-6.49-2.72-1.7-6.22-.68-8.09,1.42-1.78,2-1.64,4.51-1.6,5.07.15-.45,1.15-3.37,4.13-4.53.46-.18,3.64-1.42,5.86.53,1.63,1.43,1.65,3.59,1.64,4-.3.04-.67.11-1.07.27-.73.28-1.24.68-1.55.98.47-.04,3.16-.2,5.29,1.78,1.34,1.25,1.79,2.72,1.95,3.37.14-.57.23-1.37.05-2.26-.62-2.97-3.72-4.09-3.87-4.13Z"/>
  <path class="cls-2" d="m34.41,138.72c.1.3.35.9.93,1.42.47.43.96.62,1.24.71-.36.65-1.98,3.38-5.2,4.22-3.53.93-7.55-.78-9.86-4.34.03.13.07.31.13.51.91,3.05,3.58,5.84,7.11,6.31,4.08.55,8.28-2.12,9.77-6.54.98-.39,1.8-.98,2.44-1.69-.53.25-1.85.79-3.56.58-1.5-.18-2.55-.85-3.02-1.2Z"/>
</svg>