<?xml version="1.0" encoding="UTF-8"?>
<svg id="Layer_1" xmlns="http://www.w3.org/2000/svg" viewBox="0 0 180.61 180.72">
  <defs>
    <style>
      .cls-1 {
        fill: #f59b1a;
      }

      .cls-2 {
        fill: #eb4a00;
      }

      .cls-3 {
        fill: #f36900;
      }
    </style>
  </defs>
  <path class="cls-3" d="m36.55,43.77c-.61-.55-2.81-2.65-3.15-6.05-.36-3.57,1.52-6.84,4.18-8.67,4.13-2.84,8.7-1.18,9.11-1.02.62-.17,3.5-.87,6.4.76,2.09,1.17,3.07,2.93,3.42,3.65.96-.61,4.47-2.7,8.93-1.91,4.66.82,8.53,4.45,10.04,9.34.73.13,2.55.56,4.09,2.13,2.41,2.47,2.14,5.73,2.09,6.22,5.52,2.43,8.79,7.98,8.13,13.47-.79,6.62-6.87,9.73-7.33,9.96.29,6.59-4.08,12.02-9.42,12.85-5.86.9-10.15-4.16-10.35-4.4-4.92,2.94-10.89,2.08-14.04-1.56-3.34-3.85-2.04-9.11-1.91-9.6-5.48-.44-10.32-3.73-12.62-8.62-2.54-5.41-1.58-11.93,2.44-16.54Z"/>
  <path class="cls-3" d="m104.39,53.91c-.27-.73-.87-2.69-.13-4.89.89-2.66,3.37-4.61,6.4-5.11.59-1.43,3.02-6.89,8.89-9.29,7.38-3.02,16.54.29,20.39,6.98,2.45,4.26,2.06,8.66,1.78,10.49,1.55,1.25,3.77,3.41,5.29,6.67,3.21,6.92,2.81,17.93-4.31,22.27-5.59,3.41-12.37.9-13.64.4-2.69,3.68-7.24,5.49-11.64,4.62-4.71-.93-8.4-4.77-9.2-9.6-4.54-.39-8.54-2.9-10.22-6.67-2.36-5.29.11-12.46,6.4-15.87Z"/>
  <path class="cls-3" d="m117.68,129.97c-1.11-4.53.2-9.22,3.47-12.05,4.5-3.9,11.19-2.95,15.24.13,3.76,2.86,4.63,7.09,4.84,8.31.77-.16,5.68-1.1,9.73,2.09,3.86,3.04,5.34,8.6,3.55,13.78,5.41,2.4,7,8.65,4.62,12.27-1.91,2.9-6.41,4.18-10.53,2.4-1,3.91-4.11,6.92-8,7.74-5.67,1.19-9.67-2.99-9.86-3.2-6.4,4.64-14.92,2.69-18.17-2.8-2.56-4.33-1.67-10.55,2.53-14.76-2.35-2.74-3.06-6.41-1.78-9.47,1.18-2.82,3.61-4.09,4.35-4.45Z"/>
  <path class="cls-3" d="m31.04,128.55c-.2-.83-1.36-5.98,1.69-9.87,3.41-4.36,10.81-5.5,17.15-1.64,2.89-2.09,6.54-2.65,9.46-1.29,4.13,1.93,6.36,7.49,4.35,12.8,3.82,1.43,6.16,5.22,5.73,9.07-.38,3.4-2.86,6.29-6.26,7.29-1.1,4.85-5.03,8.19-9.2,8.22-4.09.03-6.75-3.12-7.15-3.6-6.97,3.65-15.29,1.05-18.57-4.98-2.69-4.95-1.64-11.58,2.8-16Z"/>
  <path class="cls-3" d="m39.26,89.7c-3.18,1.48-6.77.72-8.66-1.65-2.16-2.7-1.01-6.14-.93-6.36.89-2.54,3.37-4.71,6.31-4.67,3.3.04,6.3,2.85,6.62,6.62,1.55.43,2.62,1.84,2.62,3.42,0,1.72-1.26,3.13-2.8,3.47-1.69.37-3-.71-3.15-.84Z"/>
  <path class="cls-3" d="m26.63,99.81c.85-.45,1.84-.64,2.78-.48,1.1.2,2.1.89,2.67,1.86s.68,2.18.31,3.24c-.37,1.05-1.21,1.92-2.23,2.35-1.18.49-2.59.4-3.69-.26-2.87-1.7-2.74-5.18.16-6.72Z"/>
  <path class="cls-3" d="m70.74,92.05c1.98.09,3.75,1.82,3.88,3.8.06.95-.23,1.93-.81,2.68-.38.49-.88.88-1.44,1.13-1.28.58-2.87.37-3.98-.49-3-2.32-1.63-7.3,2.36-7.12Z"/>
  <path class="cls-3" d="m101.33,81.22c2.31-.09,4.63,1.14,5.86,3.11.62,1,.97,2.15,1.17,3.3.23,1.33.22,2.82-.6,3.89-1.1,1.43-3.17,1.57-4.98,1.59-1.33,0-2.7.01-3.94-.48-2.54-1.01-3.72-4.27-3.48-6.85.25-2.67,3.56-4.47,5.97-4.56Z"/>
  <path class="cls-3" d="m100.77,101.48c.71.24,1.27.82,1.6,1.49.33.67.45,1.43.48,2.18.03.76-.07,1.62-.66,2.11-.58.49-1.42.45-2.17.33-1.53-.25-3.76-1.28-3.57-3.18.18-1.81,2.57-3.53,4.32-2.94Z"/>
  <path class="cls-3" d="m141.45,98.69c1.57-.87,3.65-.53,5.01.64,1.36,1.17,2.02,3.03,1.93,4.82-.08,1.59-.73,3.16-1.91,4.23-2.13,1.93-4.99,1.53-6.77-.59-1.45-1.73-1.28-3.53-.7-5.64.38-1.38,1.15-2.75,2.43-3.47Z"/>
  <path class="cls-3" d="m97.61,115.12c2.56-.25,5.25.83,6.77,2.91,1.44,1.98,1.69,4.71.79,6.98-.9,2.27-2.89,4.04-5.2,4.83-2.37.81-5.15.58-7.19-.87-5.86-4.15-1.41-13.25,4.84-13.85Z"/>
  <path class="cls-3" d="m81.28,154.46c2.75.52,4.95,3.1,5.05,5.9.05,1.45-.44,2.93-1.41,4.01-.97,1.08-2.43,1.72-3.88,1.63-1.19-.08-2.3-.62-3.31-1.25-2.25-1.4-3.3-3.04-3.34-5.7-.03-1.93,1.56-3.37,3.23-4.12,1.14-.51,2.43-.71,3.66-.47Z"/>
  <path class="cls-3" d="m96.88,143c2.39-1.75,5.46-2.03,7.82-.71,4.01,2.25,3.29,7.64,3.24,7.96-.4,2.68-2.3,6.24-6.09,6.94-3.19.59-6.52-1.08-8.13-4.13-.18-.03-3.65-.59-4.84-3.56-1.12-2.78.25-6.45,3.02-7.42,2.41-.85,4.7.74,4.98.93Z"/>
  <path class="cls-1" d="m36.55,43.77c-3.85,4.41-4.9,10.56-2.76,15.82-.02-.97-.07-7.23,4.94-11.81,6.18-5.65,14.31-3.47,14.8-3.33.82-4.47,3.9-8.15,8.04-9.51,4.99-1.65,10.71.33,13.91,4.93-1.51-4.89-5.38-8.52-10.04-9.34-4.46-.78-7.97,1.3-8.93,1.91-.86.71-2.27,2.07-3.29,4.22-.75,1.6-1.01,3.05-1.11,4.05-1.48-.5-5.72-1.72-10.49,0-2.33.84-4.01,2.11-5.07,3.07Z"/>
  <path class="cls-1" d="m81.64,48.22c.05-.49.33-3.75-2.09-6.22-1.54-1.57-3.36-2-4.09-2.13-.56-.03-1.32,0-2.18.22-1.42.37-2.41,1.1-2.93,1.56.61-.18,3.65-.99,6.8.71,3.47,1.87,4.36,5.32,4.49,5.87Z"/>
  <path class="cls-2" d="m76.76,70.18c.49.28,1.07.56,1.73.8.29.11.57.19.84.27.41,4.87-2.51,9.19-6.62,10.36-4.79,1.35-8.74-2.26-8.93-2.45.2-.17.41-.38.62-.62.38-.44.65-.88.84-1.24-3.75,2.96-8.88,3.19-12.57.67-4.76-3.26-4.42-9.27-4.4-9.51.42-.25,1.02-.67,1.6-1.33.56-.65.88-1.29,1.07-1.73-1.16.52-4.06,1.64-7.82,1.11-3.71-.52-6.17-2.37-7.14-3.18.82,1.01,2.35,2.63,4.74,3.89,1.83.96,3.86,1.57,6,1.74-.13.49-1.43,5.75,1.91,9.6,3.15,3.64,9.12,4.49,14.04,1.56.2.25,4.49,5.31,10.35,4.4,5.34-.82,9.71-6.25,9.42-12.85.46-.22,6.54-3.34,7.33-9.96.41-3.43-.71-6.88-2.95-9.57h0c1.74,5.73.49,11.6-3.32,15.04-2.41,2.18-5.21,2.81-6.75,3.02Z"/>
  <path class="cls-2" d="m58.45,56.44c0,.62-.07,2.19-1.16,3.69-.59.81-1.26,1.31-1.73,1.6.87-.04,2.39.02,4.09.71,2.12.87,3.39,2.27,3.95,2.98.01-1.11.16-2.72.8-4.53.84-2.36,2.13-3.99,2.98-4.89-1.06.58-3.73,1.83-6.89,1.16-.79-.17-1.47-.43-2.04-.71Z"/>
  <path class="cls-1" d="m52.81,63.24c3.2-2.59,7.77-2.67,11.02-.22,3.17,2.39,4.38,6.66,2.93,10.4,0-.43.03-5.69-4.44-8.85-4.31-3.04-9.04-1.49-9.51-1.33Z"/>
  <path class="cls-1" d="m147,58.75c-1.51-3.26-3.74-5.42-5.29-6.67.28-1.83.68-6.23-1.78-10.49-3.86-6.69-13.01-10-20.39-6.98-5.87,2.4-8.3,7.86-8.89,9.29-3.03.5-5.51,2.45-6.4,5.11-.73,2.2-.14,4.16.13,4.89-2.03,1.1-3.66,2.59-4.86,4.28.98-.71,2.8-1.82,5.34-2.24,3.91-.65,6.97.78,8.04,1.33-.4-.62-1.53-2.18-3.64-3.07-1.63-.68-3.08-.65-3.82-.58-.01-.68.03-3.06,1.78-5.11,2.64-3.1,6.75-2.62,7.06-2.58-.22-.33-.64-.86-1.33-1.29-.43-.27-.84-.41-1.16-.49.62-.84,4.37-5.75,11.2-6.54,1.5-.17,7.12-.6,11.95,3.51,4.89,4.17,5.32,9.89,5.38,10.89-.49,0-1.22.06-2.04.36-1.03.36-1.73.92-2.13,1.29,1.06-.13,2.96-.22,5.11.53,3.36,1.18,5.15,3.64,5.73,4.53Z"/>
  <path class="cls-1" d="m118.79,59.02c.64-.02,2.41,0,4.13,1.2,2.42,1.68,2.83,4.35,2.89,4.8.17-.8.69-2.78,2.44-4.53,2-2,4.33-2.43,5.11-2.53-.3-.19-1.93-1.17-4.04-.67-2.03.48-3.04,2-3.24,2.31-.55-.39-2.06-1.35-4.18-1.33-1.42.01-2.52.46-3.11.76Z"/>
  <path class="cls-2" d="m128.38,75.96c-.52.49-4.43,4.07-10.09,3.33-4.76-.62-7.48-3.87-8.04-4.58.38-.23.89-.6,1.38-1.16.73-.84,1.05-1.71,1.2-2.22-1.04.3-5.41,1.46-10-.84-3.37-1.69-5.08-4.35-5.71-5.46-.06,1.26.07,2.97.87,4.75,1.68,3.77,5.68,6.28,10.22,6.67.8,4.83,4.49,8.67,9.2,9.6,4.4.87,8.95-.94,11.64-4.62,1.27.5,8.05,3.01,13.64-.4,3.62-2.21,5.5-6.14,6.05-10.38l.09-.79c.02-.27.04-.54.06-.81-2.79,5.43-7.81,8.97-13.18,9.04-3.32.04-5.92-1.25-7.33-2.13Z"/>
  <path class="cls-1" d="m152.71,130.22c-.51-.65-1.1-1.24-1.76-1.76-4.05-3.19-8.96-2.25-9.73-2.09-.21-1.23-1.09-5.46-4.84-8.31-4.05-3.08-10.74-4.03-15.24-.13-3.27,2.83-4.57,7.52-3.47,12.05-.74.35-3.18,1.63-4.35,4.45-.57,1.37-.75,2.86-.55,4.33.33-1.1,1.08-3.09,2.87-4.91,2.86-2.93,6.39-3.41,7.46-3.51-.69-.3-1.71-.63-2.98-.67-.53-.01-1.01.03-1.42.09.26-4.21,2.43-7.97,5.78-9.51,4.87-2.25,11.91.35,14.93,6.89-.3.21-.72.52-1.16.98-.38.4-1.18,1.32-1.02,1.51.17.21,1.32-.69,2.71-1.29,2.31-1,4.44-.82,5.73-.71,3.45.29,5.92,1.8,7.04,2.6Z"/>
  <path class="cls-2" d="m128.56,134.51c-.15,1.13-.52,2.89-1.56,4.8-.97,1.81-2.15,3.04-2.98,3.78.76-.19,2.29-.45,4.13,0,2.05.5,3.38,1.63,3.95,2.18-.08-.72-.13-2.18.58-3.78,1.09-2.46,3.19-3.51,3.78-3.78-.88.09-2.85.16-4.98-.89-1.46-.72-2.4-1.68-2.93-2.31Z"/>
  <path class="cls-2" d="m160.19,150.35c-.13-3.13-2.05-6.49-5.69-8.11.82-2.38.95-4.85.48-7.1.03,4.22-2.1,8.02-5.54,9.77-3.16,1.61-6.27.91-7.2.67,0,.49-.12,5.26-4.18,8.14-3.44,2.44-7.19,1.73-7.82,1.6-.38.85-1.67,3.43-4.58,4.8-3.6,1.69-7.71.6-10.35-1.6-3.99-3.32-3.7-8.38-3.66-8.9-.36,1.29-1.22,5.45.9,9.03,3.25,5.49,11.77,7.44,18.17,2.8.2.21,4.19,4.39,9.86,3.2,3.89-.82,7-3.83,8-7.74,4.12,1.78,8.62.5,10.53-2.4.66-1,1.01-2.2,1.07-3.47v-.7Z"/>
  <path class="cls-1" d="m69.45,136.08c-.25-3.29-2.45-6.29-5.76-7.53,2.01-5.31-.22-10.88-4.35-12.8-2.92-1.36-6.57-.8-9.46,1.29-6.34-3.86-13.74-2.71-17.15,1.64,0,0-.01.01-.02.02,1.54-.88,3.99-1.96,7.12-2.15,1.58-.1,5.55-.34,9.11,2.27,1.66,1.22,2.65,2.64,3.2,3.56-.07-.55-.2-1.22-.44-1.96-.28-.82-.62-1.49-.93-2,.52-.24,3.76-1.69,6.98-.18,3.31,1.56,5.23,5.62,4.4,9.87-.7-.13-1.69-.22-2.84-.04-2.13.33-3.59,1.39-4.27,1.96.9-.26,5.06-1.38,9.33.89,3.07,1.63,4.55,4.14,5.09,5.17Z"/>
  <path class="cls-1" d="m40.28,128.2c2.79-1.19,5.97-.74,8.09,1.16,2.63,2.35,3.21,6.55,1.16,9.87.04-.68.2-4.71-2.89-7.91-2.46-2.55-5.47-3.01-6.35-3.11Z"/>
  <path class="cls-2" d="m31.04,128.55c.36-.25.8-.52,1.33-.76.81-.36,1.56-.54,2.13-.62-.54-.36-1.33-.99-2-2-1.06-1.6-1.18-3.2-1.19-3.91-.35,1.1-.71,2.7-.27,7.29Z"/>
  <path class="cls-2" d="m69.46,137.16s0-.06,0-.09c-.54,2.52-2.29,4.49-4.53,5.05-1.83.46-3.38-.18-3.95-.44.52,3.5-1.45,6.89-4.67,8.14-3.04,1.18-6.57.19-8.62-2.45.17-.32.34-.73.49-1.2.14-.47.22-.89.27-1.24-4.28,3.1-10.03,3.25-14.35.4-4.62-3.05-6.71-8.93-5.02-14.35-.68,1.01-2.07,3.43-2.28,6.83-.15,2.36.32,4.7,1.44,6.76,3.28,6.03,11.6,8.63,18.57,4.98.4.49,3.07,3.64,7.15,3.6,4.17-.04,8.1-3.37,9.2-8.22,3.15-.93,5.51-3.47,6.14-6.54l.16-1.21Z"/>
  <path class="cls-2" d="m84.19,163.07c-1.88,1.15-3.86.85-4.9.69-1.92-.29-3.38-1.18-3.86-1.49-.16-.1-.29-.19-.38-.25.54,1.07,1.43,1.94,2.69,2.72,1.01.63,2.12,1.17,3.31,1.25,1.45.09,2.91-.55,3.88-1.63.87-.97,1.35-2.26,1.41-3.57-.31.57-.96,1.55-2.14,2.27Z"/>
  <path class="cls-2" d="m94.7,149.4c-.27.16-1.6.91-3.24.49-2.12-.54-2.9-2.55-2.96-2.73-.03.62.03,1.45.39,2.33,1.2,2.97,4.66,3.53,4.84,3.56,1.61,3.06,4.94,4.72,8.13,4.13,3.06-.56,4.89-3,5.69-5.33-3.32,3.13-7.71,3.67-10.36,1.77-1.77-1.27-2.31-3.32-2.49-4.22Z"/>
  <path class="cls-1" d="m107.63,146.11c-.42-1.42-1.27-2.89-2.93-3.82-2.35-1.32-5.43-1.04-7.82.71-.27-.2-2.57-1.78-4.98-.93-.73.26-1.36.7-1.87,1.26.73-.25,2.18-.63,3.96-.33,1.18.2,2.09.64,2.67.98-.1.15-.22.36-.31.62-.08.22-.11.42-.13.58.48-.52,2.02-2.03,4.44-2.31,4.14-.49,6.85,3.08,6.97,3.24Z"/>
  <path class="cls-2" d="m105.17,125.01c.2-.5.34-1.03.43-1.56-1.57,2.06-3.85,3.59-6.38,4.18-2.97.7-6.21.1-8.77-1.56.42,1.09,1.17,2.09,2.32,2.9,2.05,1.45,4.82,1.68,7.19.87,2.31-.79,4.3-2.56,5.2-4.83Z"/>
  <path class="cls-2" d="m107.75,91.53c.72-.93.81-2.18.67-3.37-1.7,1.51-3.97,2.4-6.25,2.37-2.58-.04-5.11-1.25-6.81-3.2.24,2.21,1.41,4.49,3.46,5.3,1.24.49,2.61.49,3.94.48,1.81-.01,3.88-.15,4.98-1.59Z"/>
  <path class="cls-2" d="m148.33,102.9c-.69,1.63-2.01,3.01-3.66,3.68-1.89.76-4.12.55-5.88-.45.17.57.47,1.12.93,1.67,1.77,2.12,4.64,2.52,6.77.59,1.18-1.06,1.83-2.64,1.91-4.23.02-.42,0-.84-.06-1.25Z"/>
  <path class="cls-2" d="m102.85,105.33c-.15.26-.33.5-.55.7-.66.63-1.61.95-2.52.84-.76-.09-1.45-.46-2.12-.82-.34-.18-.69-.37-.98-.64-.05-.05-.1-.1-.15-.15.42,1.36,2.2,2.12,3.48,2.33.75.12,1.59.16,2.17-.33.54-.46.67-1.22.66-1.94Z"/>
  <path class="cls-2" d="m73.24,97.89c-1.34.8-3.1.77-4.47.03-.84-.46-1.53-1.16-2.01-1.99,0,1.19.52,2.4,1.62,3.25,1.11.86,2.7,1.07,3.98.49.56-.25,1.06-.65,1.44-1.13.42-.54.69-1.19.78-1.87-.38.48-.82.91-1.35,1.22Z"/>
  <path class="cls-2" d="m32.58,102.79c-.62.93-1.5,1.68-2.52,2.12-1.47.64-3.2.63-4.66-.02-.29-.13-.57-.28-.81-.49.3.81.92,1.57,1.87,2.13,1.1.65,2.51.75,3.69.26,1.03-.43,1.87-1.3,2.23-2.35.18-.53.25-1.09.2-1.65Z"/>
  <path class="cls-2" d="m40.72,87.47c-.77.33-3.78,1.52-7.24.31-2.16-.76-3.51-2.11-4.15-2.84.11.93.44,2.08,1.26,3.11,1.89,2.37,5.49,3.13,8.66,1.65.16.14,1.47,1.22,3.15.84,1.1-.24,2.06-1.03,2.51-2.09-.41.27-1.73,1.05-3.4.8-.66-.1-1.18-.33-1.56-.53.12-.09.29-.23.44-.44.22-.32.29-.63.31-.8Z"/>
  <path class="cls-1" d="m45.18,87.53s0,0,0,0l.03-.49c-.02-1.57-1.09-2.96-2.62-3.39-.32-3.77-3.32-6.58-6.62-6.62-2.46-.03-4.6,1.48-5.76,3.47.25-.19,3.2-2.42,6.87-1.25,3.88,1.24,4.92,5.11,4.98,5.33.24,0,1.34.07,2.22.98.76.78.88,1.7.9,1.97Z"/>
</svg>