<?xml version="1.0" encoding="UTF-8"?>
<svg id="Layer_1" xmlns="http://www.w3.org/2000/svg" viewBox="0 0 180.61 180.72">
  <defs>
    <style>
      .cls-1 {
        fill: #f9b828;
      }

      .cls-2 {
        fill: #eb4a00;
      }

      .cls-3 {
        fill: #f36900;
      }
    </style>
  </defs>
  <path class="cls-3" d="m45.57,28.61c.21-.14,3.48-2.26,7.11-.67,2.48,1.09,4.18,3.49,4.4,6.22,1.06-.51,5.42-2.49,10.66-.93,6.65,1.98,9.19,8.01,9.51,8.8.49-.15,5.06-1.46,9.06,1.51,2.92,2.17,4.44,5.79,4,9.47.61.31,4.4,2.27,5.51,6.62,1.01,3.98-.63,8.35-4.18,11.03.78,3.44-.76,6.91-3.64,8.45-2.34,1.25-5.26,1.07-7.6-.44.8,3.62-1.17,7.31-4.58,8.62-3.5,1.36-7.56-.17-9.33-3.56-5.99,2.16-12.49.73-16.39-3.56-3.99-4.38-3.64-9.94-3.55-11.03-.56-.28-6.81-3.54-7.82-10.71-.85-6.02,2.62-10.33,3.2-11.03-.41-.27-2.83-1.93-3.24-5.02-.23-1.74.28-3.13.58-3.78-3.05-2.63-3.13-7.01-.89-9.25,1.7-1.7,4.66-2.06,7.2-.76Z"/>
  <path class="cls-3" d="m104.3,54.53c-.45-6.68,2.33-13.03,7.51-16.32,7.54-4.78,17.67-1.45,22.84,4.8,5.74,6.94,3.91,15.72,3.64,16.89,6.77,2.78,11,9.45,10.53,16.32-.55,7.96-7.31,14.67-15.91,15.2-1.87,4.43-6.13,7.31-10.75,7.29-6.18-.02-9.56-5.21-9.77-5.56-5.84,2.58-12.72.5-16.13-4.8-3.48-5.43-2.36-12.76,2.67-16.94-.52-.89-2.28-4.11-1.51-8.22,1.09-5.85,6.33-8.41,6.89-8.67Z"/>
  <path class="cls-3" d="m91.46,136.73c-4.48-4.79-4.89-12.05-1.16-17.07,3.4-4.57,9.57-6.42,15.15-4.45.53-1.12,1.5-2.7,3.24-3.82,3.31-2.14,8.02-1.78,12.04.84,4.63-1.45,9.67-.32,13.11,2.98,3.81,3.65,5.03,9.36,3.07,14.4,1.25-.7,4.55-2.32,8.13-1.33,5.14,1.41,8.97,7.66,8.22,15.16.73.04,2.38.25,3.82,1.47,1.98,1.67,2.52,4.37,2.18,5.91-.77,3.45-7.12,6.03-15.82,5.29-.53.42-3.99,3.07-8.71,2.22-4.13-.75-6.37-3.67-6.84-4.31-.32.33-4.16,4.22-9.46,3.25-3.42-.63-5.45-2.92-6.04-3.65-5.06,3.94-12.23,3.86-17.19-.18-4.94-4.02-6.49-10.96-3.73-16.72Z"/>
  <path class="cls-3" d="m79.15,162.74c-3.91-1.53-6.06-5.51-5.29-9.11.96-4.47,6.19-7.12,10.57-5.56,4.28,1.52,6.6,6.64,4.71,11.16.09.2,1.26,3.04-.4,5.47-1.48,2.17-4.56,3.03-6.89,1.82-2.12-1.1-2.64-3.42-2.71-3.78Z"/>
  <path class="cls-3" d="m44.63,108.5c.37-.53,1.22-1.57,2.67-2.09,2.01-.72,4.36-.15,6.13,1.42.38-.24,5.78-3.55,11.06-1.07,4.87,2.29,7.57,8.53,5.73,14.72,4.81-.13,9.01,2.62,10.26,6.4,1.66,4.98-1.87,11.52-8.53,12.98.11,5.48-3.22,10.38-8.13,12.09-4.18,1.46-8.92.42-12.31-2.67-1.33.74-4.99,2.56-9.77,2-5.14-.61-9.03-3.67-11.06-6.54-4.39-6.19-3.42-16.1,3.07-23.78-.26-.47-2.39-4.49-.53-8.49,1.79-3.85,6.54-6.08,11.42-4.98Z"/>
  <path class="cls-3" d="m46.32,84.49c.44-.03,3.49-.2,5.11,1.82,2.25,2.81.6,8.44-3.07,9.51-2.08.61-4.53-.33-6.26-2.22-4.89,1.88-10,.06-11.86-3.42-2.58-4.83,1.44-12.25,6.98-12.71,3.7-.31,7.65,2.52,9.11,7.02Z"/>
  <path class="cls-3" d="m26.55,101.34c-1.34,1.56-1.6,4.07-.35,5.7.65.85,1.61,1.41,2.63,1.74,1.67.55,3.61.49,5.1-.45,1.64-1.03,2.55-3.11,2.2-5.02-.84-4.52-6.85-5.16-9.58-1.98Z"/>
  <path class="cls-3" d="m66.09,96.59c-.15-2.56.89-4.92,2.75-6,3.23-1.87,8.24.55,9.02,4.22.55,2.6-1.02,5.77-3.47,6.62-.81.28-1.58.27-2.18.18-.2.41-.79,1.52-2,1.96-1.91.69-4.36-.66-5.06-2.71-.75-2.19.83-4.14.93-4.27Z"/>
  <path class="cls-3" d="m28.99,59.48c-.25.61-.33,1.57.22,2.25.33.42.88.62,1.42.65.53.03,1.06-.08,1.59-.2.72-.16,1.45-.32,2.08-.71s1.14-1.04,1.17-1.77c.03-.98-.85-1.71-1.48-2.01-1.05-.51-2.09-.14-2.76.1-.7.25-1.79.63-2.23,1.7Z"/>
  <path class="cls-3" d="m103.72,99.83c-2.08.29-2.58-.55-4.22-.04-.42.13-1.49.48-2.13,1.47-.42.64-.42,1.27-.54,2.29-.11.89-.17,1.82.21,2.63.48,1.02,1.58,1.6,2.66,1.9.41.12,3.51,1.1,6.18-.88.17-.13,3.07-2.34,2.55-5.14-.19-1.05-.91-2.41-2.05-2.74-.85-.25-1.1.3-2.66.52Z"/>
  <path class="cls-3" d="m134.76,104.73c-.2,2.2.15,4.66,1.82,6.1,1.31,1.13,3.24,1.38,4.88.83,1.64-.54,2.98-1.81,3.84-3.3.86-1.5,1.27-3.22,1.44-4.94.16-1.59-.2-2.68-.27-2.94-.03-.09-.46-1.49-1.21-2.47-.58-.75-1.81-1.87-3.51-2.09-2.58-.34-4.49,1.6-4.89,2-2.1,2.13-1.94,4.98-2.11,6.8Z"/>
  <path class="cls-3" d="m159.06,80.83c-1.69.48-3.02,2.06-3.2,3.81-.19,1.76.8,3.6,2.38,4.4,1.69.85,3.94.41,5.19-1.02,1.07-1.23,1.23-2.89.77-4.4-.41-1.34-.99-2.14-2.38-2.66-.88-.32-1.85-.38-2.75-.13Z"/>
  <path class="cls-1" d="m41.92,47.42c-.55.66-3.71,4.59-3.29,10.15.08-.61.97-6.33,6.31-9.22,4.61-2.49,9.12-1.01,9.86-.76.09-.45,1.45-6.55,6.71-8.54,5.03-1.9,11.55.74,14.57,6.76.62-.14,4.58-.97,8.13,1.6,4.48,3.25,4.07,8.87,4.04,9.16.48-.39,1.27-1.16,1.73-2.36.17-.44.26-.85.31-1.2.44-3.68-1.08-7.3-4-9.47-4-2.97-8.57-1.66-9.06-1.51-.25-.81-2.18-6.68-8.18-9.02-.42-.16-7.15-2.68-12,1.16-2.16,1.71-3.07,3.99-3.33,4.67-1.03,2.66-.79,5-.62,6.05-.96-.34-2.81-.86-5.11-.53-3.29.47-5.38,2.37-6.09,3.07Z"/>
  <path class="cls-2" d="m75.82,87.3c3.4-1.32,5.38-5,4.58-8.62,2.33,1.51,5.26,1.7,7.6.44,2.88-1.54,4.42-5.01,3.64-8.45,3.54-2.68,5.19-7.05,4.18-11.03-.29-1.14-.77-2.12-1.32-2.95.18,4.03-1.75,7.73-4.99,9.48-3,1.62-6.03.97-6.89.76.33.55,1.14,1.72,2.67,2.53,1.22.65,2.35.78,2.98.8-.29,2.57-1.86,4.77-4.13,5.74-2.53,1.07-4.86.15-5.33-.04-.39,3.56-2.69,6.41-5.69,7.16-2.57.64-4.75-.49-5.38-.84.22-.27.44-.6.67-.98.25-.43.44-.84.58-1.2-.71.33-6.73,3.02-13.06-.22-6.47-3.31-7.74-9.98-7.86-10.71.57-.04,2.3-.23,3.87-1.6,1.37-1.2,1.84-2.63,2-3.2-1.13.49-4.04,1.58-7.73.93-3.17-.56-5.32-2.12-6.27-2.91.69,1.34,1.89,3.26,3.95,4.97,1.33,1.11,2.45,1.69,2.68,1.8-.09,1.08-.44,6.65,3.55,11.03,3.91,4.29,10.4,5.71,16.39,3.56,1.77,3.39,5.83,4.91,9.33,3.56Z"/>
  <path class="cls-2" d="m60.67,61.6c.6-.17,1.47-.51,2.35-1.2,1.54-1.21,2.14-2.75,2.35-3.42.78.25,2.52.68,4.62.18,1.54-.37,2.63-1.08,3.24-1.56.39.55.92,1.17,1.64,1.78,1.65,1.38,3.39,1.89,4.4,2.09-1.14.09-4.52.52-7.2,3.25-1.08,1.1-1.74,2.26-2.13,3.16-.77-.82-2.13-2.07-4.18-3.02-2.09-.97-3.98-1.2-5.11-1.24Z"/>
  <path class="cls-1" d="m57.52,62.67c2.79-1.71,6.26-1.84,9.06-.31,3.21,1.75,5.04,5.4,4.58,9.16-.24-.82-1.64-5.34-6.26-7.69-3.2-1.62-6.22-1.33-7.38-1.16Z"/>
  <path class="cls-2" d="m32.26,61.17c-1.06.41-2.25.42-3.33.07.06.17.15.33.27.48.33.42.88.62,1.42.65.53.03,1.06-.08,1.59-.2.72-.16,1.45-.32,2.08-.71s1.14-1.04,1.17-1.77c.01-.46-.17-.87-.44-1.2-.52,1.21-1.53,2.21-2.75,2.68Z"/>
  <path class="cls-2" d="m42.9,90.63c-.45.3-3.92,2.47-8.09,1.11-3.47-1.13-5.04-3.94-5.37-4.55.04,1.38.44,2.34.79,3,1.86,3.49,6.97,5.3,11.86,3.42,1.74,1.89,4.18,2.84,6.26,2.22,1.99-.59,3.38-2.51,3.88-4.6-.39.29-2.75,1.99-5.79,1.35-1.86-.39-3.06-1.45-3.55-1.96Z"/>
  <path class="cls-1" d="m45.83,85.34c.64-.08,2.4-.22,4.22.8,1.19.67,1.9,1.55,2.26,2.07-.12-.54-.36-1.24-.88-1.9-1.62-2.02-4.67-1.85-5.11-1.82-1.45-4.51-5.41-7.33-9.11-7.02-2.9.24-5.39,2.39-6.72,5.08.47-.41,3.5-2.97,7.83-2.42,4.94.63,7.28,4.78,7.51,5.2Z"/>
  <path class="cls-1" d="m138.29,59.91c.27-1.18,2.1-9.95-3.64-16.89-5.17-6.25-15.3-9.58-22.84-4.8-5.18,3.28-7.96,9.64-7.51,16.32-.56.26-5.79,2.82-6.89,8.67-.28,1.53-.22,2.93,0,4.13.05-.51.64-5.73,5.43-8.49,4.44-2.57,8.89-.93,9.46-.71-.31-.6-1.03-1.79-2.44-2.71-1.78-1.16-3.57-1.18-4.22-1.16.1-.42,2.17-8.69,9.82-11.07,7.75-2.41,14.08,3.45,15.06,4.36,5,4.63,5.62,10.68,5.73,12.23-.51-.02-1.22,0-2.04.22-.93.24-1.63.63-2.09.93,1.9.63,6.47,2.45,10,7.11,5.21,6.9,4.08,14.68,3.84,16.15,0,0,0,0,0,0,0,0,0,0,0,0l1.24-2.07c.91-1.82,1.48-3.81,1.62-5.89.47-6.87-3.76-13.53-10.53-16.32Z"/>
  <path class="cls-2" d="m116.12,88.23c-7.85,2.76-15.63.12-18.48-5.2-2.2-4.09-.86-8.58-.41-9.89-3.56,4.47-3.91,10.64-.96,15.23,3.4,5.31,10.29,7.38,16.13,4.8.22.34,3.6,5.54,9.77,5.56,4.62.02,8.88-2.86,10.75-7.29-.89.56-9.42,5.79-16.26,2.05-.9-.5-1.93-1.23-2.93-2.36.32-.31.65-.65.98-1.02.57-.65,1.04-1.28,1.42-1.87Z"/>
  <path class="cls-1" d="m107.59,70.49c1.02.14,3.5.6,5.82,2.58,1.95,1.66,2.83,3.57,3.2,4.53.82-.53,2.69-1.59,5.24-1.6,4.27-.01,6.97,2.92,7.42,3.42-.14-.48-1.16-3.87-4.67-5.42-3-1.33-5.74-.39-6.31-.18-.47-.64-2.12-2.74-5.15-3.56-2.6-.7-4.75-.06-5.55.22Z"/>
  <path class="cls-2" d="m108.48,102.42c-.48.74-1.63,2.31-3.73,3.33,0,0-2.38,1.16-5.56.8-1.27-.14-2.22-.61-2.22-.61-.02,0-.03-.01-.04-.02.03.08.06.17.1.25.48,1.02,1.58,1.6,2.66,1.9.41.12,3.51,1.1,6.18-.88.16-.12,2.82-2.15,2.6-4.78Z"/>
  <path class="cls-2" d="m141.47,111.66c1.64-.54,2.98-1.81,3.84-3.3.86-1.5,1.27-3.22,1.44-4.94.01-.13.02-.26.03-.39-.34,1.04-1.01,2.58-2.4,3.96-.76.75-2.5,2.48-5.02,2.49-.53,0-1.96-.01-3.24-1.02-.75-.59-1.16-1.29-1.36-1.72.14,1.57.66,3.09,1.83,4.09,1.31,1.13,3.24,1.38,4.88.83Z"/>
  <path class="cls-2" d="m164.39,84.44c-.63,1.59-2.02,2.9-3.69,3.32-1.53.38-3.21,0-4.48-.92.41.93,1.12,1.74,2.03,2.19,1.69.85,3.94.41,5.19-1.02.88-1.01,1.14-2.3.96-3.57Z"/>
  <path class="cls-1" d="m136.37,118.59c-.64-1.24-1.48-2.38-2.52-3.37-3.44-3.29-8.48-4.43-13.11-2.98-4.02-2.62-8.73-2.99-12.04-.84-1.75,1.13-2.72,2.7-3.24,3.82-5.58-1.97-11.75-.12-15.15,4.45-1.01,1.35-1.71,2.87-2.12,4.45.94-1.31,3.31-4.24,7.49-5.83,6.45-2.45,12.17.19,13.24.71-.21-.46-.55-1.07-1.11-1.69-.46-.51-.92-.87-1.29-1.11.66-.89,1.67-1.97,3.15-2.76,4.83-2.57,10.17.3,10.75.62,1.5-.37,4.13-.81,7.29-.18,4.6.92,7.52,3.57,8.65,4.71Z"/>
  <path class="cls-1" d="m111.14,127.31c-.03-2.16,1.2-4.1,3.07-4.89,2.23-.95,4.98-.08,6.4,2.13-.34-.19-3.12-1.7-6.13-.4-2.08.9-3.05,2.61-3.33,3.16Z"/>
  <path class="cls-2" d="m159.26,150.83c.34-1.54-.2-4.24-2.18-5.91-1.44-1.22-3.09-1.42-3.82-1.47.15-1.52.11-2.98-.08-4.37-1.13.53-7.72,3.52-14.51.46-2.84-1.28-4.71-3.17-5.78-4.49.28-.17.63-.41,1.01-.72.05-.04.68-.57,1.23-1.25.96-1.18,1.41-2.54,1.78-3.47.35-.9.74-2.19.88-3.79.11-1.28.03-2.55-.22-3.79-.05.46-.89,7.58-6.79,10.29-2.57,1.18-5.02,1.03-6.31.84-.13.35-1.63,4.1-5.78,5.16-4.15,1.06-7.27-1.54-7.55-1.78.91,1.53,2.82,4.28,6.26,6.4,4.88,3.01,9.72,2.85,11.46,2.71-2.62,4.1-7.01,6.15-10.8,5.2-2.51-.63-4.07-2.39-4.75-3.29-.32.15-8.13,3.51-14.66-1.24-4.47-3.25-5.41-8.18-5.6-9.29.82.08,2.01.07,3.33-.36,3.26-1.06,4.76-3.87,5.11-4.58-1.15.39-4.5,1.38-8.4.09-2.66-.88-4.39-2.42-5.25-3.31.13,1.19.49,3,1.52,4.94.55,1.03,1.25,2.01,2.08,2.91-2.76,5.75-1.21,12.7,3.73,16.72,4.97,4.04,12.13,4.12,17.19.18.59.73,2.62,3.02,6.04,3.65,5.3.97,9.15-2.92,9.46-3.25.47.65,2.71,3.57,6.84,4.31,4.72.85,8.18-1.8,8.71-2.22,8.69.74,15.05-1.84,15.82-5.29Z"/>
  <path class="cls-2" d="m80.79,129.13c-.08.43-1.16,5.77-5.86,7.6-2.06.81-3.96.6-4.98.4.27,6.38-4.09,11.48-9.11,12-3.5.36-7.06-1.53-9.33-4.71-.63.37-7.22,4.04-14.48.76-6.96-3.15-8.7-10.06-8.88-10.86-.19,1.13-.99,6.48,2.53,11.44,2.03,2.86,5.92,5.93,11.06,6.54,4.78.56,8.45-1.26,9.77-2,3.39,3.08,8.13,4.13,12.31,2.67,4.91-1.72,8.25-6.61,8.13-12.09,6.12-1.34,9.59-6.97,8.83-11.73Z"/>
  <path class="cls-2" d="m33.21,113.48c-.38.98-1.01,3.05-.53,5.57.24,1.23.67,2.22,1.06,2.92.45-.35,1.06-.74,1.82-1.07,1.44-.61,2.75-.69,3.55-.67-.59-.08-2.42-.4-3.95-1.96-1.89-1.92-1.95-4.3-1.95-4.8Z"/>
  <path class="cls-2" d="m48.63,125.71c.56-.12,1.34-.35,2.18-.84,1.18-.7,1.9-1.59,2.27-2.13.2.57.71,1.75,1.91,2.67,2.24,1.71,4.94.99,5.29.89-.11.31-.3,1.01-.13,1.87.15.77.51,1.3.71,1.56-2.67.74-5.33,1.48-8,2.22l-4.22-6.22Z"/>
  <path class="cls-1" d="m43.74,123.97c1.15.32,4.63,1.46,6.98,4.89,1.95,2.85,2.12,5.83,2.18,7.16.06,1.37-.08,2.52-.22,3.33.82-1.02,1.13-1.94,1.24-2.62,0,0,.1-.6-.09-3.25h0c.73-.75,2.17-2.01,4.35-2.71,3.69-1.18,6.86.1,7.73.49-.36-.41-2.61-2.84-6.31-2.89-3.43-.05-5.65,1.98-6.09,2.4-.29-.83-1.35-3.46-4.18-5.25-2.35-1.48-4.66-1.57-5.6-1.56Z"/>
  <path class="cls-1" d="m70.8,117.73c.07-4.81-2.43-9.13-6.31-10.96-5.28-2.48-10.68.83-11.06,1.07-1.78-1.58-4.12-2.15-6.13-1.42-1.45.52-2.3,1.56-2.67,2.09-3.21-.72-6.36,0-8.65,1.66.95-.35,2.47-.76,4.34-.68,2.91.11,5.02,1.33,5.95,1.96-.03-.34-.12-.84-.4-1.38-.14-.27-.3-.49-.44-.67.48-.34,1.41-.91,2.71-1.07,2.15-.26,3.74.77,4.18,1.07-.13.19-.27.41-.4.67-.26.51-.41.99-.49,1.38.54-.43,4.85-3.73,10.44-2.4,4.27,1.02,7.69,4.35,8.93,8.69Z"/>
  <path class="cls-1" d="m80.55,128.07c-.02-.06-.04-.13-.06-.19-1.26-3.78-5.45-6.53-10.26-6.4-.64.09-1.6.29-2.62.84-1.48.79-2.34,1.88-2.75,2.49,1.13-.54,3.88-1.66,7.42-1.2,4.72.62,7.55,3.62,8.28,4.46Z"/>
  <path class="cls-2" d="m88.73,164.72s.01-.02.02-.03c1.66-2.43.49-5.27.4-5.47-.72,1.96-2.48,3.32-4.49,3.47-2.69.2-4.36-1.88-4.49-2.05-.43.13-1.62.43-3.02-.04-1.61-.54-2.42-1.75-2.64-2.1.31.63.88,1.58,1.86,2.49.78.72,1.72,1.32,2.78,1.74.07.36.59,2.68,2.71,3.78,1.9.99,4.31.59,5.93-.78.31-.33.62-.68.93-1.02Z"/>
  <path class="cls-1" d="m89.7,154.54l-.11-.55c-.62-2.68-2.51-4.98-5.15-5.92-4.39-1.56-9.61,1.09-10.57,5.56-.13.6-.18,1.2-.15,1.81.24-.74,1.27-3.57,4.24-5.23.64-.36,2.65-1.44,5.15-1.07,2.98.45,5.51,2.79,6.67,5.98,0-.02,0-.04-.07-.57Z"/>
  <path class="cls-2" d="m35.72,105.08c-.69.86-1.66,1.47-2.7,1.86-2.37.89-5.13.58-7.3-.71.12.29.28.56.47.81.65.85,1.61,1.41,2.63,1.74,1.67.55,3.61.49,5.1-.45,1.34-.85,2.2-2.39,2.27-3.97-.13.25-.29.5-.47.72Z"/>
  <path class="cls-2" d="m77.96,95.46c-.05.25-.71,3.51-3.56,4.59-1.21.46-2.32.34-2.93.22-.11.21-.88,1.6-2.53,1.96-1.38.3-2.84-.24-3.78-1.38,1.16,2.25,3.4,3.31,5.06,2.71,1.2-.44,1.8-1.54,2-1.96.6.09,1.37.1,2.18-.18,2.25-.79,3.76-3.52,3.56-5.97Z"/>
</svg>