<?xml version="1.0" encoding="UTF-8"?>
<svg id="Layer_1" xmlns="http://www.w3.org/2000/svg" viewBox="0 0 180.61 180.72">
  <defs>
    <style>
      .cls-1 {
        fill: #f9b828;
      }

      .cls-2 {
        fill: #eb4a00;
      }

      .cls-3 {
        fill: #f36900;
      }

      .cls-4 {
        fill: #fdf49f;
      }

      .cls-5 {
        fill: #fdea3a;
      }
    </style>
  </defs>
  <path class="cls-5" d="m95.1,66.13c2.01-3.46,4.99-8.68,8.44-15.16,4.34-8.14,6.26-12.34,6.98-12.09.57.19.45,3.18-2.93,16.32,2.73-2.6,6.43-6.33,10.53-11.11,3.5-4.08,5.93-7.33,6.62-6.94.6.34-.48,3.19-1.73,6.62-1.45,3.98-3.48,9.71-5.82,16.89,8.8-4.95,15.71-9.46,20.62-12.85,3.67-2.53,6.29-4.48,6.71-4.05.81.84-7.22,9.87-14.88,18.14,7.41-4.01,9.22-4.54,9.42-4.22.23.36-1.57,1.8-4.53,4.67-2.91,2.81-5.15,5.26-6.62,6.94,5.74-2.33,7.07-2.56,7.2-2.31.14.28-1.27,1.19-4.44,3.69-1.66,1.31-2.99,2.41-3.87,3.16,10.13-2.95,12.51-3.17,12.66-2.76.11.31-1.02.94-5.33,3.78-2.09,1.37-3.79,2.52-4.93,3.29,19.73-1.75,23.99-1.2,24.13-.36.17,1.01-5.44,2.51-16.57,6.71-7.56,2.86-13.65,5.45-17.64,7.2-8-8.52-15.99-17.04-23.99-25.56Z"/>
  <path class="cls-4" d="m97.59,67.02c1.26-2.35,2.76-5.15,2.93-5.47,1.19-2.22,1.66-3.1,2-3.02.35.08.57,1.2.13,5.51.2-.26.47-.6.8-.98.54-.62.81-.93.98-.89.16.04.41.34.36,2.22,1.61-1.69,3.96-4.25,6.62-7.56,2.36-2.94,3.77-4.97,4.31-4.71,1.17.56-3.88,10.73-1.6,12.36,2.09,1.5,9.1-5.11,9.77-4.36.58.65-4.56,5.65-3.82,6.58.79.99,7.76-3.43,8.09-2.93.39.6-9.61,7.41-8.71,9.11.41.78,2.91.03,3.24.89.42,1.06-3.05,3.02-2.67,3.87.38.84,4.08-.4,4.44.4.35.78-2.97,2.44-2.71,3.33.55,1.88,16.4-1.42,16.57-.67.08.38-3.8,1.44-9.24,3.47-3.69,1.38-6.67,2.66-8.66,3.56-7.61-6.91-15.22-13.81-22.84-20.72Z"/>
  <path class="cls-5" d="m115.23,96.76c7.75,3.2,14.24,5.74,19.02,7.56,6.55,2.5,10.75,3.99,10.57,4.85-.18.88-4.9.66-9.37.27,13.98,7.57,20.72,11.93,20.22,13.07-.56,1.26-9.93-1.39-28.12-7.96,3.09,3.02,5.59,5.75,5.15,6.31-.64.82-6.99-3.61-7.64-2.8-1.05,1.31,14.27,14.37,13.15,15.83-.46.59-3.39-1.07-11.51-5.11-4.84-2.41-8.82-4.32-11.42-5.56,1.18,1.73,2.96,4.2,5.33,7.02,4.59,5.47,8.28,8.54,8,8.89-.52.65-13.6-10.05-14.84-8.76-1.35,1.41,12.5,15.88,11.55,16.85-.62.63-7.42-4.64-24.66-20.01l14.57-30.45Z"/>
  <path class="cls-4" d="m102.79,125.71c7.51,7.88,9.99,9.91,10.35,9.6.59-.5-4.52-7.09-3.38-8.18.9-.85,4.88,2.42,5.51,1.73.47-.51-1.21-2.88-3.69-5.87.27-1.57.53-3.14.8-4.71,12.27,7.64,15.98,9.32,16.35,8.8.67-.94-9.66-9.34-8.31-11.38.67-1.01,3.79.11,4.22-.89.46-1.06-2.79-2.96-2.44-3.73.63-1.43,12.65,2.83,13.06,1.82.34-.83-7.52-4.54-6.98-6.09.22-.62,1.63-.48,1.69-.84.07-.48-2.33-1.49-11.69-3.69-5.17,7.81-10.34,15.62-15.51,23.43Z"/>
  <path class="cls-5" d="m61.65,83.16c-20.05-13.34-25.83-18.03-25.37-18.81.73-1.23,17.04,8.18,19.19,5.25.86-1.16-1.01-3.6-5.64-10.8-6.91-10.75-10.68-16.62-9.82-17.47.7-.69,4.84,1.53,20.35,14.85-6.35-19.2-7.19-24.78-6.18-25.21,2.04-.86,11.75,19.13,15.77,17.65,1.86-.68,1.18-5.45,2.35-5.69,1.3-.26,4.08,5.22,9.91,24.63-6.86,5.2-13.71,10.4-20.57,15.6Z"/>
  <path class="cls-4" d="m58.67,79.87c-2.53-1.65-5.7-3.89-5.33-4.71.41-.91,4.61,1.09,5.91-.36,2.51-2.8-8.34-15.69-6.71-17.16,1.19-1.07,8.39,4.48,9.2,3.47.23-.29-.18-.94.13-1.2.52-.44,2,1.1,2.53.8,1.29-.72-3.8-11.75-2.93-12.23.8-.44,5.66,8.72,8.18,7.91,1.93-.62,1.11-6.66,2.49-6.94,1.16-.23,2.97,3.78,4.44,7.6-5.97,7.6-11.94,15.2-17.91,22.81Z"/>
  <path class="cls-5" d="m59.25,101.25c-7.82,3.92-14.27,6.76-18.84,8.67-2.17.91-6.37,2.63-6.18,3.33.35,1.27,14.45-3.4,16.88.67,1.49,2.49-1.95,7.32-2.67,8.31-3.33,4.67-7.75,6.14-7.42,7.02.48,1.29,9.48-2.74,11.82,0,3.27,3.83-8.52,18.57-7.2,19.61,1.48,1.16,15.96-17.54,21.99-14.58,1.71.84,3.13,3.61,3.69,5.56.9,3.12.1,5.86.53,5.96.46.1,1.5-2.99,1.95-4.31,1.02-2.98,2.58-7.2,4.84-12.36l-19.42-27.87Z"/>
  <path class="cls-4" d="m63.25,104.1c-1.46.29-3.6.77-6.13,1.56-4.55,1.41-10.31,3.78-10.09,4.62.13.49,2.15.09,5.82.18,3.67.08,6.66.59,8.66,1.02-.71,1.73-1.42,3.47-2.13,5.2-8.51,6.05-10.09,7.85-9.82,8.31.12.21.6.06,1.64,0,.75-.04,5.03-.3,6.44,1.33,1.76,2.04-1.38,6.56-.18,7.38.4.27,1.54-.38,3.82-1.69,2.21-1.27,3.24-2.01,5.2-3.06,1.06-.57,1.95-1,2.49-1.25-1.91-7.87-3.82-15.74-5.73-23.61h0Z"/>
  <path class="cls-4" d="m71.42,129.13c.25.69.62,1.74.98,3.07.63,2.31.71,3.51,1.24,3.6.36.06.72-.4,1.6-1.73.76-1.15,1.57-2.44,2.4-3.87-.68-1.33-1.36-2.67-2.04-4l-4.18,2.93Z"/>
  <path class="cls-3" d="m63.2,68.53c-.8-1.82-.48-3.93.8-5.38,1.79-2.03,4.46-1.63,4.62-1.6.34-.79,1.56-3.3,4.22-4.31,3.44-1.3,7.95.43,10.53,4.53.33-.15,6.99-3.13,12.4.71,2.64,1.88,3.73,4.49,4.13,5.69.44-.16,6.68-2.27,12,1.82,4.71,3.62,4.88,9.17,4.89,9.87.85.48,2.28,1.42,3.47,3.07,2.04,2.83,3.21,7.49.98,10.98-.46.72-1.4,1.91-3.24,2.85,1.14,1.61,2.82,4.45,3.42,8.27,1.17,7.49-2.16,16.65-9.42,20.27-3.02,1.51-5.99,1.7-8.05,1.6-.24.31-3.67,4.61-8.74,4.05-2.42-.27-4.11-1.52-4.89-2.18-.14.26-2.36,4.14-6.66,4.4-3.56.22-7.01-2.14-8.31-5.82-.86.87-2.87,2.63-5.78,2.93-4.83.51-8.65-3.35-10.22-6.09-2.89-5.06-1.51-12.38,3.69-17.9-3.16.21-6.13-1.41-7.55-4.1-1.63-3.08-.95-7.02,1.73-9.51-.52-.59-1.52-1.91-1.78-3.82-.5-3.73,2.27-6.38,2.58-6.67-.33-1.16-.83-3.56-.09-6.4,1.14-4.39,4.41-6.68,5.29-7.25Z"/>
  <path class="cls-2" d="m121.41,105.03c-.03-.22-.07-.44-.11-.65.38,4.41-1.81,8.65-5.62,10.88-3.73,2.18-8.41,2.06-12.04-.31-.75.68-2.22,1.81-4.35,2.27-4.44.95-7.94-1.85-8.44-2.27.27.73,1.27,3.12,3.82,4.45,2.81,1.46,6.38,1.03,9.15-1.07.41.53,1,1.15,1.82,1.69,2.3,1.52,4.76,1.35,5.64,1.24-.28.65-1.08,2.3-2.93,3.51-2.01,1.32-4.02,1.32-4.71,1.29-.43.41-3.28,3.03-7.46,2.62-3.35-.32-5.41-2.37-5.95-2.93-.42.38-3.22,2.83-7.33,2.36-4.12-.47-6.3-3.5-6.62-3.96-.55.34-5.39,3.24-10.26,1.2-4.88-2.05-7.81-8.23-6.17-14.61-.17.29-4.1,7.14-.5,13.46,1.56,2.74,5.39,6.6,10.22,6.09,2.91-.31,4.91-2.07,5.78-2.93,1.3,3.68,4.75,6.04,8.31,5.82,4.31-.26,6.52-4.14,6.66-4.4.77.66,2.47,1.91,4.89,2.18,3.82.42,6.7-1.91,8-3.22h0s0,0,0,0c.02-.02.04-.04.06-.06,0,0,.01-.01.02-.02.02-.02.04-.04.06-.06,0,0,0,0,.01-.01.02-.02.05-.05.07-.07h0c.29-.31.47-.54.52-.6.04,0,.07,0,.11,0h0c1,.06,2.29.04,3.77-.22,1.76-.32,3.18-.88,4.18-1.38,7.26-3.62,10.59-12.78,9.42-20.27Z"/>
  <path class="cls-5" d="m87.02,104.1c3.34,3.25,8.33,8.27,14.17,14.76,2.23,2.48,6.94,7.79,7.42,7.42.66-.51-7.67-11.1-5.73-13.11,1.23-1.28,5.86,1.71,6.62.62.84-1.2-4.45-5.31-3.64-6.8,1.28-2.36,16.67,4.11,17.33,2.71.65-1.39-14.1-8.54-13.11-11.47.79-2.32,11-.79,11.06-1.47.04-.47-4.74-.98-10.26-2.76-4.2-1.35-7.47-2.99-9.6-4.18.04.26.32,2.1-.93,3.47-.56.61-1.21.89-1.6,1.02.13.43.25.95.31,1.56.09.83.04,1.54-.04,2.09-.61,1.38-1.21,2.76-1.82,4.13l-6.35,2.27-1.73-1.64-2.09,1.38Z"/>
  <path class="cls-4" d="m104.97,102.23c3.04.25,4.69.91,4.84.58.35-.74-7.41-4.45-6.84-6.27.34-1.08,3.48-1.02,3.47-1.64,0-.3-.71-.5-1.42-.71-.98-.29-2.43-.72-4.34-1.3-.09.14-.2.28-.32.41-.56.61-1.21.89-1.6,1.02.13.43.25.95.31,1.56.09.83.04,1.54-.04,2.09-.61,1.38-1.21,2.76-1.82,4.13l-6.35,2.27-.53-.51h0c5.12,5.32,7.02,6.63,7.46,6.29.51-.4-.99-2.84-.09-3.69.82-.77,2.8.53,3.33-.13.55-.68-1.5-2.4-.98-3.47.49-.99,2.89-.79,4.93-.62Z"/>
  <path class="cls-2" d="m83.38,61.78c-2.58-4.11-7.09-5.84-10.53-4.53-2.66,1.01-3.88,3.53-4.22,4.31-.16-.03-2.83-.43-4.62,1.6-1.28,1.45-1.6,3.56-.8,5.38,1.6.42,3.93.85,6.75.71,3.09-.15,5.55-.92,7.15-1.56.78-.16,2.25-.57,3.69-1.73,1.92-1.56,2.6-3.52,2.82-4.29-.13.05-.22.09-.25.11Z"/>
  <path class="cls-2" d="m61.78,102.72s0,0,0,0c0,.02,0,.03,0,.05-.8-.23-2.34-.78-3.69-2.18-2.35-2.43-2.33-5.51-2.31-6.16-.1.16-2.35,3.91-.31,7.76,1.36,2.57,4.12,4.16,7.12,4.12l.41-.03c-.2-.38-.41-.81-.59-1.29-.33-.84-.51-1.62-.62-2.27Z"/>
  <path class="cls-1" d="m120.25,82.94c-1.19-1.65-2.61-2.59-3.47-3.07,0-.7-.18-6.25-4.89-9.87-5.32-4.09-11.56-1.98-12-1.82-.41-1.2-1.49-3.81-4.13-5.69-4.86-3.45-10.72-1.4-12.11-.84-.16.06-.31.11-.47.17-.74.29-1.8.81-2.84,1.73-1.61,1.42-2.34,3.04-2.67,3.91-1.37-.53-3.62-1.21-6.44-1.16-3.82.07-6.66,1.44-8.04,2.22-.87.57-4.15,2.86-5.29,7.25-.74,2.85-.24,5.25.09,6.4-.28.26-2.54,2.42-2.63,5.56h0c.16-.37,1.43-3.17,4.63-4.05,3.53-.97,6.25,1.27,6.49,1.47-.17-.38-1.13-2.45-3.51-3.29-1.79-.64-3.34-.21-3.87-.04.15-1.69.75-5.73,3.91-8.89,4.38-4.39,11.85-5.3,18.62-2.09-.3-.53-.8-1.27-1.6-1.96-.53-.45-1.04-.76-1.47-.98.59-.54,4.64-4.11,10.49-3.38,5.03.63,7.92,4,8.53,4.76-.83.82-1.66,1.63-2.49,2.45.49-.31,6.06-3.75,12.35-1.11,5.76,2.41,7.44,7.96,7.64,8.67-.53-.28-1.68-.79-3.2-.76-1.24.03-2.19.41-2.71.67.62.17,8.2,2.37,10.31,9.38.92,3.06.41,5.77.01,7.21h0c.88-.69,1.41-1.4,1.72-1.88,2.23-3.49,1.06-8.16-.98-10.98Z"/>
  <path class="cls-5" d="m62.72,98.81c-10.5,1.15-12.99,1.88-12.97,2.36.03.91,9.37.65,9.86,3.16.37,1.89-4.55,4.02-4.18,4.93.24.57,2.46.44,8.83-1.3.69,1,1.37,1.99,2.06,2.99-9.47,10.62-11.04,13.14-10.71,13.47.23.24,1.45-.6,5.11-3.29,4.8-3.53,8.7-6.49,11.42-8.58-2.64-2.61-5.27-5.22-7.91-7.82-.5-1.97-1.01-3.94-1.51-5.91Z"/>
  <path class="cls-1" d="m73.87,86.32c.17-.35,1.79-3.57,5.51-4.27,4.26-.8,7.17,2.49,7.29,2.62,1.12-1.72,3.19-2.54,5.06-2.05,2.15.57,3.64,2.74,3.38,5.11.24-.12,1.96-.91,3.6-.09,1.69.85,2.6,3.06,1.95,5.29,1.95-2.02,1.72-5.03.09-6.36-1.19-.97-3.11-1.03-4.71-.09.54-2.29-.31-4.6-2-5.65-2.23-1.39-5.77-.49-7.33,2.49-1.33-2.74-4.24-4.3-7.11-3.87-3.22.49-5.72,3.39-5.73,6.85Z"/>
  <path class="cls-1" d="m90.84,89.92c1.61-.91,3.58-.7,4.8.44,1.49,1.4,1.63,3.98.09,5.73.05-.11.94-2.44-.58-4.45-1-1.32-2.66-1.99-4.31-1.73Z"/>
  <path class="cls-2" d="m73.2,90.36c-2.39,4.94-.23,10.94,4.67,13.2,4.78,2.21,10.61.12,12.93-4.71-.06.59-.2,1.33-.49,2.13-.19.53-.41.99-.62,1.38.73.43,2.01,1.01,3.55.84,2.7-.29,5.08-2.75,5.82-6.18.46,3.68-1.55,6.96-4.44,7.87-2.84.89-5.39-.87-5.73-1.11-.84.85-2.93,2.72-6.13,3.29-3.32.59-7.99-.19-10.57-3.87-2.58-3.67-2.25-9.02,1.02-12.85Z"/>
  <path class="cls-5" d="m114.28,77.33c.37-.36.91-.9,1.58-1.54,2.65-2.54,3.71-3.37,3.56-3.6-.16-.26-1.52.5-4.19,1.32-1.33.41-2.45.67-3.19.83,2.8-3.27,3.28-4.2,3.11-4.38-.14-.14-.82.03-7.77,5.61-6.77,5.44-10.15,8.17-9.77,8.85.43.76,3.93-1.15,12.45-3.36,5.95-1.54,9.67-2.02,9.63-2.68-.02-.33-.97-.74-5.41-1.04Z"/>
  <path class="cls-4" d="m107.98,78.15c3.66-1.6,4.39-1.69,4.46-1.55.08.14-.4.69-3.77,2.84.39.03.8.09.83.24.05.31-1.46.78-4.1,1.65-4.44,1.47-4.89,1.7-4.99,1.54-.44-.74,8.5-7.17,8.95-6.63.13.15-.43.87-1.39,1.91Z"/>
  <path class="cls-4" d="m62.48,100.49c-4.75.11-5.94.32-5.94.5-.01.31,3.28.12,4.27,1.96.47.88.37,2.13-.13,2.98-.58.98-1.57,1.25-1.51,1.42.06.17,1.07.07,4.67-.87-.45-2-.89-3.99-1.34-5.99Z"/>
  <path class="cls-4" d="m64.63,116.06c-2.91,2.51-4.44,3.7-4.58,3.56-.2-.21,2.57-3.26,8.31-9.16.35.22.71.44,1.07.66.34.21.68.42,1.02.63-3.47,3.64-5.41,5.3-5.82,4.98-.11-.08-.11-.31,0-.67Z"/>
  <path class="cls-5" d="m51.39,83.56c-.43.07-.96.2-.98.4-.03.45,2.47.98,3.29,1.16,8.09,1.76,16.22,5.1,16.53,4.31.19-.48-2.75-2.06-5.38-3.47-3.87-2.07-7.3-3.37-10.17-4.27-.95-.29-7.84-2.41-8.18-1.6-.13.32.75,1.19,4.89,3.47Z"/>
  <path class="cls-4" d="m56.1,84.29c-.41.06-.91.16-.92.3-.01.23,1.13.41,2.88.82.48.11,1.73.45,4.23,1.12.87.23,2.16.59,3.73,1.05-1.7-.92-4.05-2.08-6.98-3.19-2.15-.81-5.3-1.86-5.4-1.6-.04.1.41.46,2.46,1.5Z"/>
  <path class="cls-2" d="m67.07,107.08c-4.01-5.19-3.23-11.04-3.07-12.09-.6.84-1.45,2.26-1.91,4.18-.34,1.42-.37,2.65-.31,3.55,0,0,0,0,0,0,.11.65.3,1.43.62,2.27.19.48.39.91.59,1.29h.03c.32.75,1.95,4.32,6.04,5.96,3,1.2,5.67.69,6.66.44-1.34-.33-5.53-1.55-8.66-5.6Z"/>
</svg>