<svg version="1.1" xmlns="http://www.w3.org/2000/svg" xmlns:xlink="http://www.w3.org/1999/xlink" width="315.78914" height="409.67308" viewBox="0,0,315.78914,409.67308"><defs><linearGradient x1="71.24136" y1="169.28059" x2="71.24136" y2="169.28309" gradientUnits="userSpaceOnUse" id="color-1"><stop offset="0" stop-color="#000000"/><stop offset="1" stop-color="#86746e"/></linearGradient><radialGradient cx="205.80196" cy="305.22025" r="34.23438" gradientUnits="userSpaceOnUse" id="color-2"><stop offset="0" stop-color="#ffdcdc"/><stop offset="1" stop-color="#d49797"/></radialGradient><radialGradient cx="296.9147" cy="308.22025" r="34.23438" gradientUnits="userSpaceOnUse" id="color-3"><stop offset="0" stop-color="#ffdcdc"/><stop offset="1" stop-color="#d49797"/></radialGradient></defs><g transform="translate(-92.37017,-49.94574)"><g data-paper-data="{&quot;isPaintingLayer&quot;:true}" fill-rule="nonzero" stroke-linecap="butt" stroke-linejoin="miter" stroke-miterlimit="10" stroke-dasharray="" stroke-dashoffset="0" style="mix-blend-mode: normal"><g stroke="#000000"><path d="M151.75775,317.04161c0,12.55094 -5.33799,-2.05882 -12.7451,-2.05882c-3.63207,0 -9.47182,-0.45547 -18.27827,-7.71586c-9.15307,-7.54616 -21.21193,-22.02481 -21.21193,-28.4214c0,-12.55094 -11.8777,-39.86274 -4.47059,-39.86274c6.48005,0 43.67589,21.20697 48.78189,33.98646c0.73048,1.82828 7.92399,27.50151 7.92399,29.07236z" fill="#ffddd1" stroke-width="0.5"/><path d="M133.05185,282.19848c0,1.95873 -4.92216,8.89684 -6.65932,5.83428c-2.22784,-3.9276 -1.61916,-18.53892 -4.24093,-19.82994c-3.06473,-1.50914 -6.84097,5.05447 -8.47231,5.05447c-0.42309,0 1.40225,1.70266 0.6903,-2.47964c-0.81345,-4.77851 -2.02112,-9.68563 -4.09304,-11.96996c-3.27088,-3.60622 -6.05531,-0.25115 -5.7569,2.38403c0.39705,3.50638 1.22155,10.69146 4.66429,18.4519c2.12001,4.77882 9.28323,13.36124 11.64235,17.09903c3.03601,4.81027 1.04909,4.04156 1.04909,2.59309c0,-3.66519 -10.41924,-3.09254 -15.17815,-13.62366c-4.85855,-10.75163 -4.03795,-32.57242 -1.9591,-32.57242c4.11506,0 28.31373,21.65171 28.31373,29.05883z" fill="#be8571" stroke-width="0"/></g><g data-paper-data="{&quot;index&quot;:null}" stroke="#000000"><path d="M356.69574,263.96925c5.106,-12.77949 42.30184,-33.98646 48.78189,-33.98646c7.40711,0 -4.47059,27.3118 -4.47059,39.86274c0,6.39659 -12.05886,20.87524 -21.21193,28.4214c-8.80644,7.26039 -14.64619,7.71586 -18.27826,7.71586c-7.40711,0 -16.7451,-5.39024 -16.7451,-17.94118c0,-1.57085 11.19351,-22.24408 11.92399,-24.07236z" fill="#ffddd1" stroke-width="0.5"/><path d="M395.79135,244.13966c2.07885,0 2.89944,21.8208 -1.95911,32.57242c-4.75891,10.53112 -15.17815,9.95847 -15.17815,13.62366c0,1.44848 -1.98692,2.21719 1.04909,-2.59309c2.35911,-3.73779 9.52233,-12.3202 11.64234,-17.09903c3.44274,-7.76044 4.26723,-14.94552 4.66429,-18.4519c0.29841,-2.63518 -2.48602,-5.99025 -5.7569,-2.38403c-2.07191,2.28433 -3.27959,7.19145 -4.09303,11.96996c-0.71195,4.1823 1.11338,2.47964 0.69029,2.47964c-1.63133,0 -5.40758,-6.56361 -8.47231,-5.05447c-2.62176,1.29102 -2.01308,15.90233 -4.24093,19.82994c-1.73717,3.06256 -6.65932,-3.87555 -6.65932,-5.83428c0,-7.40712 24.19866,-29.05882 28.31373,-29.05882z" fill="#be8571" stroke-width="0"/></g><path d="M306.04526,60.14541c6.27901,10.87925 -12.09143,31.32094 -30.02715,51.48048c-3.8781,4.35895 -6.7019,10.6583 -8.92154,17.32652c-4.77467,14.344 -6.75376,30.3948 -10.41798,32.50962c-10.13477,5.84933 -3.62524,25.29039 -6.27099,12.13328c-0.81214,-4.03868 -12.19136,-4.34125 -14.67085,-8.63732c-10.55713,-18.2917 2.10608,-97.4218 15.3518,-105.06662c13.24572,-7.64482 44.39959,-18.03765 54.95672,0.25405z" fill="#23173a" stroke="none" stroke-width="0"/><path d="M345.81215,169.84458c0.23281,0.35518 8.01939,12.71675 14.41394,24.5714c8.1622,15.13166 12.31492,48.69597 12.17253,50.98819c-0.0925,1.48901 -11.72501,10.83341 -18.15088,13.33286c-8.47217,3.2954 -12.32341,-5.66305 -12.675,12.68708c-0.45242,23.61288 -7.87164,69.97993 -4.52137,94.46528c2.02458,14.79656 -3.40021,33.42807 -3.65663,33.72897c-3.15713,3.70491 -19.55003,70.64999 -30.47319,43.73262c-19.20442,-47.32445 -66.22999,-21.36819 -86.37369,-21.36819c-16.14161,0 -12.90762,25.00855 -21.54478,13.24161c-1.8039,-2.45756 -8.90752,11.65196 -11.50441,3.41953c-1.46026,-4.62918 -7.03307,-26.0407 -10.26133,-46.55456c-4.66575,-29.64834 -3.70062,-95.68814 -9.72463,-98.85779c-15.44339,-8.12585 -30.1113,-34.81672 -33.71022,-36.32558c-3.84072,-1.61024 8.33407,-47.25164 8.33407,-49.91508c0,-6.51022 21.93671,-41.09888 37.55939,-53.59652c17.34885,-13.87852 60.47638,-25.41161 80.82251,-25.41161c38.66787,0 77.11728,23.28462 89.29369,41.86179z" fill="#23173a" stroke="none" stroke-width="NaN"/><path d="M182.717,436.91704c0,0 9.70759,-8.07579 16.77663,-48.72922c4.08512,-23.49318 -6.37509,-62.84345 -2.21941,-74.88416c8.56929,-24.82871 36.5614,-37.36955 36.5614,-37.36955l82.72355,-6.98225c0,0 -9.27628,35.11682 -10.06718,70.02143c-0.49823,21.9882 1.59299,50.49535 3.21403,62.18961c3.56298,25.70344 9.43545,40.91234 9.43545,40.91234c0,0 -14.86286,13.26118 -43.47666,15.6352c-1.79599,0.14901 -12.6107,1.31422 -14.43939,1.49708c-22.23226,2.22314 -43.50842,-5.2905 -43.50842,-5.2905z" fill="#412a6a" stroke="none" stroke-width="0"/><path d="M364.36981,263.48186c2.45446,24.9058 5.94943,59.38567 -29.07519,67.66838c-3.7732,0.8923 -43.96476,55.5603 -47.77081,62.24496c-11.89496,20.89145 -11.46362,2.2354 -21.83939,6.11041c-7.34354,2.74256 -15.03583,9.2241 -25.79281,9.78019c-6.82437,0.35279 -10.46011,-8.73878 -23.38963,-10.4511c0.00662,0.63375 -2.42143,-2.96363 -3.22114,-8.60625c-0.18189,-1.28334 1.34182,0.2625 0.35616,-1.79826c-7.82362,-16.35714 -48.65745,-54.69373 -56.18441,-62.64456c-18.35179,-19.38526 -10.91215,-25.06736 -13.02144,-46.47069c-3.54526,-35.97432 43.65602,-86.36176 97.89178,-90.57151c54.23575,-4.20974 118.50164,38.7641 122.0469,74.73842z" fill="#ffddd1" stroke="#003737" stroke-width="0.5"/><path d="M237.66306,319.13421c4.35187,11.17262 -2.34149,7.30921 -19.75258,10.89915c-17.41109,3.58994 -42.73552,-4.57916 -47.0874,-15.75179c-2.3976,-6.15538 -7.5973,-12.4915 -9.91702,-16.144c-0.99943,-1.57362 -4.58763,-0.15555 -3.43275,-1.29726c1.03004,-1.01829 -3.65577,-2.06325 -0.00257,-2.07646c6.4994,-0.0235 -0.99167,-18.80742 10.43135,-19.11166c6.25877,-0.1667 13.3793,4.29889 21.17353,9.57735c5.96673,4.04083 12.32827,8.55803 19.00027,11.8381c18.99971,9.3406 38.94317,12.84585 40.58719,17.06656z" fill="#86746e" stroke="none" stroke-width="0"/><path d="M359.51111,323.93525c0.77942,2.80479 13.1761,5.25376 10.97971,8.06923c-1.6989,2.17774 -9.63677,-0.88743 -16.70551,-0.34489c-2.14026,0.16427 11.12227,9.28967 9.23017,9.77386c-0.32674,0.08361 -4.16237,0.5685 -8.42252,-0.80831c-3.59699,-1.1625 -7.75514,-4.26137 -7.73278,-3.86109c0.18931,3.39016 7.55076,10.13997 6.15556,10.52767c-1.732,0.4813 -6.62047,-1.11981 -10.41731,-3.28768c-1.1054,-0.63116 -2.20934,-2.9223 -3.70859,-3.09628c-2.40301,-0.27886 6.37008,11.8033 4.10496,10.69739c-1.85928,-0.90777 -13.33446,-9.08509 -13.7286,-8.50805c-1.56977,2.29822 5.78754,11.4237 1.52878,12.02673c-4.03588,0.57147 -11.92988,-6.0768 -18.22108,-7.86716c-6.49886,-1.84946 -23.54639,2.01465 -23.96428,0.51083c-0.35656,-1.28311 15.33799,-6.63883 21.58572,-10.16369c8.56419,-4.83175 20.08486,-10.49618 25.22622,-15.83347c2.24016,-2.32553 5.80791,-8.0038 7.32033,-12.53506c1.04491,-3.13062 -0.02392,-5.37156 1.44148,-6.97996c2.08537,-2.28886 2.31025,2.96905 2.00725,-2.65384c-0.34467,-6.39593 0.20917,-13.02062 0.19554,-20.07102c-0.01117,-5.78476 -0.77694,-12.67348 0.43256,-13.00959c0.52371,-0.14553 4.1922,3.95042 8.89472,5.503c4.36621,1.44154 9.78307,0.28705 10.40416,1.63859c0.65155,1.41784 -14.50778,8.22528 -13.42738,9.4468c0.34306,0.38787 6.18285,-4.36004 13.34182,-6.06819c8.96742,-2.13965 22.34291,-1.53175 22.95834,-1.23494c0.29362,0.14161 -9.12099,3.19133 -14.73725,6.07889c-4.96781,2.55416 -10.52095,3.75237 -10.22094,3.78069c2.67224,0.25221 -1.22918,0.45429 1.65906,0.2563c3.38228,-0.23185 9.15569,-2.82321 12.50233,-3.35712c12.44242,-1.98507 21.20314,-2.10346 21.48012,2.82702c0.03221,0.57341 -2.36003,0.55483 -5.45424,1.22771c-7.69182,1.67268 -20.3489,4.22263 -15.47448,5.91311c-1.447,-1.33877 -4.35679,-0.45646 -2.89745,-0.74394c1.13773,-0.22411 0.51396,-1.57911 1.87866,-1.95647c2.46414,-0.68136 7.15928,-0.45443 10.25013,-0.79502c7.05685,-0.77762 12.49472,-0.17244 13.58868,0.17463c5.09725,1.61718 -13.92063,6.56107 -10.91183,7.87634c1.71786,0.75095 4.98821,-0.90681 6.55055,-0.28707c6.95444,2.75867 10.23166,6.80549 8.29127,9.77534c-0.17346,0.2655 -11.97743,-1.85387 -12.10511,-0.85837c-0.09975,0.77769 1.82745,2.45578 3.46836,4.88478c2.9085,4.30537 6.19191,10.0085 4.78554,10.37968c-1.43061,0.3776 -7.22268,-3.50117 -9.09969,-3.91318c-11.89943,-2.61195 -26.26896,-6.02463 -20.90527,-2.98135c2.06934,1.17412 4.38791,-0.91042 6.09247,0.02466c11.42345,6.26665 9.8311,9.12176 9.48407,9.76421c-3.15377,0.72257 -5.87621,2.37752 -12.89503,1.67814c-7.73574,-0.77082 -14.85207,-1.77436 -14.80915,-1.61989z" fill="#23173a" stroke="none" stroke-width="0"/><path d="M322.64578,190.98279c0,0.79958 5.7193,0.95615 21.54414,15.99651c6.1755,5.86937 22.23018,37.04586 21.58426,37.3619c-0.62789,0.30722 -4.11089,24.64369 -8.12573,34.98228c-5.21221,13.42191 -11.32079,13.53281 -13.24227,12.76886c-2.67172,-1.06223 4.93474,-26.68437 -1.09259,-42.96308c-3.56179,-9.61976 -12.64649,-22.07195 -13.99774,-24.83655c-3.20415,-6.55554 -14.83878,-12.93741 -21.94538,-14.90877c-16.39164,-4.54702 -38.14684,-3.33539 -44.1013,-1.57538c-7.53458,2.22706 -12.00676,16.67423 -13.6664,16.67423c-1.3872,0 -15.56592,-11.27879 -21.66531,-15.86307c-3.59998,-2.70573 -13.11994,-6.68582 -23.42472,-3.73918c-4.32489,1.2367 -13.39449,3.32745 -21.41706,8.71041c-4.33714,2.91012 -16.64931,10.97354 -24.23817,28.69143c-8.03665,18.76336 -3.26212,58.1392 -4.09634,57.72003c-0.83207,-0.41809 -4.12633,2.87632 -8.0129,-9.58972c-3.24285,-10.40135 -7.50569,-36.02829 -5.37883,-43.92765c5.7666,-21.41776 25.90542,-37.3726 35.10052,-47.91891c2.88364,-3.30739 24.3747,-16.68163 24.38284,-17.03086c0.07639,-3.27937 35.25712,-8.36969 35.25712,-10.55248c0,-7.45584 31.47972,-2.5 37.00574,-2.5c5.52602,0 37.53012,10.04416 37.53012,17.5z" fill="#23173a" stroke="none" stroke-width="0"/><path d="M157.02024,205.07419z" fill="url(#color-1)" stroke="none" stroke-width="0"/><path d="M291.37484,262.83954c2.1246,3.75776 0.0391,8.95695 -4.6581,11.6127c-4.6972,2.65575 -21.37806,23.33128 -23.50266,19.57353c-2.1246,-3.75776 11.11158,-30.52583 15.80879,-33.18159c4.6972,-2.65575 10.22737,-1.7624 12.35197,1.99536z" fill="#23173a" stroke="none" stroke-width="0"/><path d="M223.42262,262.88689c4.0987,2.9721 12.88172,27.67494 10.31638,30.5293c-2.56534,2.85436 -15.50761,-17.22063 -19.60632,-20.19275c-4.0987,-2.9721 -5.34174,-7.6954 -2.77639,-10.54976c2.56534,-2.85436 7.96763,-2.75891 12.06633,0.21319z" data-paper-data="{&quot;index&quot;:null}" fill="#23173a" stroke="none" stroke-width="0"/><path d="M155.9961,341.25158c0.01734,-0.18016 -5.56173,2.73585 -11.66159,5.55508c-5.53454,2.55794 -7.89301,1.44009 -10.49382,1.45368c-0.34806,-0.61515 -1.93497,-3.33618 6.50901,-13.1171c1.25998,-1.45946 3.34277,0.23209 4.86811,-1.58235c3.95364,-4.70296 -7.15941,2.70374 -16.38568,8.6027c-1.45535,0.9305 -5.65964,6.65802 -6.84489,6.60962c-1.16518,-0.04758 0.83294,-7.13312 2.68496,-12.59183c1.04487,-3.07968 2.40117,-5.4099 2.23594,-6.23635c-0.21151,-1.0579 -9.41561,4.27712 -9.58347,4.03058c-1.87777,-2.75787 0.29747,-8.02748 5.55418,-12.82478c1.18094,-1.07773 3.97776,-0.09667 5.26861,-1.35782c2.26091,-2.20889 -13.487,-2.7695 -9.58961,-5.84226c0.83646,-0.65947 5.11741,-2.7106 10.84471,-3.66033c2.50851,-0.41597 6.23725,-1.86317 8.28219,-1.74586c1.13253,0.06496 0.78279,1.7085 1.71701,1.66357c1.19832,-0.05765 -1.22499,-0.28132 -2.23468,1.55461c3.71118,-3.09618 -6.68822,-2.65825 -13.02157,-2.52691c-2.54773,0.05284 -4.45825,0.6839 -4.49553,0.04755c-0.32053,-5.47166 6.69652,-7.57849 16.86222,-8.58042c2.73427,-0.26948 7.63486,1.09525 10.36442,0.48577c2.33087,-0.52046 -0.81047,0.25417 1.29821,-0.70431c0.23675,-0.10761 -4.33461,-0.0025 -8.58705,-1.53217c-4.80752,-1.72934 -12.66958,-2.66661 -12.45039,-2.8967c0.4594,-0.48225 11.08604,-4.56276 18.49054,-4.50822c5.91124,0.04354 11.10196,3.75367 11.33359,3.2412c0.72949,-1.61388 -12.13843,-5.2009 -11.77339,-6.92037c0.34798,-1.63907 4.80556,-1.75728 8.13782,-4.45102c3.58892,-2.90122 6.07157,-8.32455 6.50626,-8.29882c1.00394,0.05941 1.14896,7.80095 1.7759,14.14057c0.76412,7.72664 1.93511,14.84209 2.36262,21.93632c0.37584,6.23679 -0.02234,0.41975 1.89647,2.39465c1.34837,1.38777 0.74018,4.11542 1.91971,7.278c1.70724,4.57755 5.18378,9.88685 7.23038,11.8624c4.69713,4.53407 14.53036,7.79792 21.9084,10.90438c5.38242,2.26623 18.51865,4.12635 18.37464,5.62293c-0.16879,1.754 -14.22274,1.87322 -19.21517,5.55824c-4.83291,3.56727 -10.4132,12.86517 -13.70264,13.26949c-3.4711,0.42664 1.40782,-11.44785 -0.09979,-13.56463c-0.37854,-0.53149 -8.65386,11.35562 -10.04053,12.82465c-1.68934,1.7897 3.99645,-13.68503 2.10593,-12.76612c-1.17949,0.57333 -1.81021,3.36492 -2.6246,4.33851c-2.79721,3.34403 -6.52946,6.34588 -7.96706,6.26083c-1.15807,-0.06853 3.98532,-9.3417 3.76402,-13.10369c-0.02613,-0.44418 -3.00984,4.01191 -5.7578,6.20361c-3.25455,2.59577 -6.37438,3.0438 -6.6448,3.03562c-1.56593,-0.04736 8.03411,-13.4293 6.30498,-13.06286c-5.71097,1.21026 -11.72024,6.59437 -13.31786,4.64253c-2.06547,-2.52343 7.57626,-8.37081 7.89107,-11.64221z" data-paper-data="{&quot;index&quot;:null}" fill="#23173a" stroke="none" stroke-width="0"/><path d="M260.03897,320.91444c-0.08221,2.62206 -4.40007,4.61438 -9.64419,4.44996c-5.24413,-0.16442 -9.42868,-2.42333 -9.34647,-5.04539c0.08221,-2.62206 4.40007,-4.61437 9.64419,-4.44995c5.24413,0.16442 9.42868,2.42332 9.34647,5.04538z" fill="#ffddd1" stroke="none" stroke-width="0"/><path d="M289.33747,389.60167c0,5.69956 -6.85433,19.16348 -14.70163,28.82223c-9.26171,11.39967 -19.9066,18.67777 -22.29837,18.67777c-2.40429,0 -13.74058,-4.49763 -23.57588,-15.15865c-8.23867,-8.93035 -15.42412,-23.67701 -15.42412,-29.34135c0,-3.79446 19.33397,10.79128 19.92374,6.48954c0.43109,-3.1443 6.03123,-5.22848 8.10648,-7.96657c4.3835,-5.78358 6.88678,-8.02297 8.96978,-8.02297c2.40852,0 4.37479,9.26228 14.76275,16.97233c8.66811,6.43357 24.23725,-16.12478 24.23725,-10.47233z" fill="#23173a" stroke="none" stroke-width="0"/><path d="M318.96247,295.73279c0,0.62132 -0.50368,1.125 -1.125,1.125c-0.62132,0 -1.125,-0.50368 -1.125,-1.125c0,-0.62132 0.50368,-1.125 1.125,-1.125c0.62132,0 1.125,0.50368 1.125,1.125z" fill="#ffffff" stroke="none" stroke-width="0"/><path d="M239.97384,313.9865c-1.40889,3.89517 -39.44501,1.47415 -51.64986,-2.94038c-12.20485,-4.41452 -17.95671,-11.15085 -16.54782,-15.04602c1.40889,-3.89517 22.44501,0.52585 34.64986,4.94038c12.20485,4.41452 34.95671,9.15085 33.54782,13.04602z" fill="url(#color-2)" stroke="none" stroke-width="0"/><path d="M250.0536,317.1342c1.64402,-4.22071 21.58747,-7.72595 40.58718,-17.06655c15.38752,-7.56478 29.12374,-21.70976 40.17379,-21.41546c11.42302,0.30424 3.93195,19.08816 10.43135,19.11166c3.6532,0.01321 -1.03261,1.05817 -0.00257,2.07646c1.15488,1.14171 -2.43332,-0.27636 -3.43275,1.29726c-2.31972,3.6525 -7.51942,9.98862 -9.91702,16.144c-4.35188,11.17263 -29.67631,19.34173 -47.0874,15.75179c-17.41109,-3.58994 -24.10445,0.27347 -19.75258,-10.89915z" data-paper-data="{&quot;index&quot;:null}" fill="#86746e" stroke="none" stroke-width="0"/><path d="M296.29064,303.94048c12.20486,-4.41452 33.24097,-8.83554 34.64986,-4.94037c1.40889,3.89517 -4.34297,10.6315 -16.54782,15.04602c-12.20486,4.41452 -50.24097,6.83554 -51.64986,2.94037c-1.40889,-3.89517 21.34296,-8.6315 33.54782,-13.04602z" data-paper-data="{&quot;index&quot;:null}" fill="url(#color-3)" stroke="none" stroke-width="0"/><g><path d="M245.48431,310.65729c1.52797,-0.33902 6.03703,-6.03281 10.23897,-0.04675c5.05573,7.20237 12.8484,19.53965 15.10783,30.08264c0.18412,0.85913 3.09382,4.00178 4.11104,4.38914c1.79141,0.68219 3.09648,-1.68314 3.41043,-0.62199c0.33854,1.14427 1.55744,2.25383 1.61739,3.36949c0.73647,13.70765 -19.83335,25.30983 -23.32891,26.08539c-1.19242,0.26456 -5.50637,2.9374 -8.41822,2.36937c-2.30152,-0.44896 -8.96221,-4.4696 -14.77828,-8.4717c-4.39576,-3.02476 -8.30905,-6.03892 -9.49325,-7.49248c-1.55072,-1.90344 8.06638,-5.5617 6.9564,-9.31341c-4.49806,-15.20331 10.79655,-39.51104 14.5766,-40.34972z" fill="#ffcbb8" stroke="#710000" stroke-width="0.5"/><path d="M279.60486,349.21961c0.22058,0.74555 -3.86026,-2.0779 -6.33425,0.3946c-3.89857,3.89624 -9.59093,13.15346 -12.94571,18.53039c-2.12953,3.41315 -2.83052,4.29477 -3.09329,4.35307c-0.39277,0.08714 3.33367,-5.33106 5.7754,-10.2246c0.90137,-1.80645 2.09466,-3.67306 2.98742,-5.24606c2.47297,-4.35721 3.5143,-8.67397 3.17705,-9.81386c-0.78881,-2.66616 -5.72246,-23.83507 -4.78306,-24.04348c0.45711,-0.10142 4.46602,13.76728 8.06893,18.94277c2.66581,3.82937 5.51759,0.31873 5.86011,1.19131c0.1459,0.37168 1.16643,5.50696 1.2874,5.91584z" fill="#e1a088" stroke="#710000" stroke-width="0"/><path d="M266.48695,341.22776c0.34783,6.47325 1.47795,13.69438 -3.36779,19.62147c-2.90628,3.55484 -11.5317,10.29989 -16.47322,11.52277c-6.19863,1.53398 -2.74335,-4.29363 -4.06499,-4.2041c-1.60376,0.10864 -11.11156,-17.48817 -8.11078,-20.61114c4.73045,-4.92307 17.5721,7.88159 20.16601,-1.31093c5.4883,-19.44986 -5.87845,-33.13593 -1.74649,-33.41582c4.13195,-0.27989 12.77913,13.17204 13.59726,28.39775z" fill="#f7b8a2" stroke="none" stroke-width="0"/><path d="M222.6229,356.91346c0.04373,-0.42416 0.10268,-5.65952 0.17775,-6.0517c0.17624,-0.92067 3.62489,2.00576 5.54116,-2.24846c2.58991,-5.7497 3.98053,-20.11907 4.44849,-20.10342c0.96171,0.03215 0.00435,21.74729 -0.28081,24.51303c-0.12192,1.18246 1.69535,5.23415 4.92729,9.06239c1.16676,1.38203 2.68291,2.99742 3.90105,4.60735c3.29983,4.36117 7.95897,9.00185 7.55687,8.9884c-0.26901,-0.009 -1.12014,-0.7467 -3.84092,-3.71011c-4.2862,-4.66844 -11.58358,-12.72124 -16.13207,-15.83426c-2.88643,-1.97548 -6.37856,1.55014 -6.29882,0.77675z" data-paper-data="{&quot;index&quot;:null}" fill="#e1a088" stroke="#710000" stroke-width="0"/></g><path d="M244.27834,315.10373c0,0 -58.31348,-28.14203 -72.26457,-36.94144c-6.69795,-4.22461 -9.12047,-13.62929 -9.12047,-13.62929l13.82835,10.84987l71.88504,34.07073z" fill="#000000" stroke="none" stroke-width="0"/><path d="M258.12284,308.80226l73.40488,-32.77559c0,0 11.25407,-9.6612 11.7107,-8.71127c0.27298,0.56789 -1.50054,3.28703 -4.28909,6.76008c-1.32999,1.65646 -4.82218,5.60886 -4.82218,5.60886c0,0 -3.52618,1.69501 -7.09257,3.40935c-10.94599,5.26167 -66.81232,32.11624 -66.81232,32.11624z" data-paper-data="{&quot;index&quot;:null}" fill="#000000" stroke="none" stroke-width="0"/><path d="M257.3625,306.75576c0,2.76142 -2.07068,5 -4.625,5c-2.55432,0 -4.625,-2.23858 -4.625,-5c0,-2.76142 2.07068,-5 4.625,-5c2.55432,0 4.625,2.23858 4.625,5z" fill="#ffddd1" stroke="none" stroke-width="0"/></g></g></svg>