<svg version="1.1" xmlns="http://www.w3.org/2000/svg" xmlns:xlink="http://www.w3.org/1999/xlink" width="298.36294" height="471.13005" viewBox="0,0,298.36294,471.13005"><defs><linearGradient x1="48.24135" y1="25.28059" x2="48.24135" y2="25.28309" gradientUnits="userSpaceOnUse" id="color-1"><stop offset="0" stop-color="#000000"/><stop offset="1" stop-color="#86746e"/></linearGradient><linearGradient x1="276.54126" y1="132.07269" x2="276.54126" y2="144.07269" gradientUnits="userSpaceOnUse" id="color-2"><stop offset="0" stop-color="#000000"/><stop offset="1" stop-color="#86746e"/></linearGradient><linearGradient x1="178.53525" y1="132.5832" x2="178.53525" y2="144.5832" gradientUnits="userSpaceOnUse" id="color-3"><stop offset="0" stop-color="#000000"/><stop offset="1" stop-color="#86746e"/></linearGradient></defs><g transform="translate(-82.37017,67.05426)"><g data-paper-data="{&quot;isPaintingLayer&quot;:true}" fill-rule="nonzero" stroke-linejoin="miter" stroke-miterlimit="10" stroke-dasharray="" stroke-dashoffset="0" style="mix-blend-mode: normal"><path d="M284.04525,-56.85459c6.27901,10.87925 -12.09143,31.32094 -30.02715,51.48048c-3.8781,4.35895 -6.7019,10.6583 -8.92154,17.32652c-4.77467,14.344 -6.75376,30.3948 -10.41798,32.50962c-10.13477,5.84933 -3.62524,25.29039 -6.27099,12.13328c-0.81214,-4.03868 -12.19136,-4.34125 -14.67085,-8.63732c-10.55713,-18.2917 2.10608,-97.4218 15.3518,-105.06662c13.24572,-7.64482 44.39959,-18.03765 54.95672,0.25405z" fill="#23173a" stroke="none" stroke-width="0" stroke-linecap="butt"/><path d="M326.81214,78.98279c0.52997,1.17002 -2.15959,15.15298 -2.41353,21.06859c-0.21445,4.99554 0.79238,34.3703 0.17412,81.06414c-0.45242,34.16923 -7.87164,101.26507 -4.52137,136.69682c2.02458,21.41149 -3.40021,48.37238 -3.65663,48.80781c-3.15713,5.36122 -23.55003,12.51705 -34.47319,-26.43398c-19.20442,-68.48127 -62.22999,58.79662 -82.37369,58.79662c-19.51284,0 -13.01823,-123.99723 -28.04919,-192.94917c-8.98129,-41.2001 -43.72211,-71.24345 -49.69618,-74.86783c-3.84072,-2.33011 20.33407,-42.32884 20.33407,-46.183c0,-19.88225 56.71403,-55 95.3819,-55c38.66787,0 77.11728,22.11775 89.29369,49z" fill="#23173a" stroke="none" stroke-width="NaN" stroke-linecap="butt"/><path d="M201.28678,404.07579l15.66844,-185.45045l60.93283,-17.73874c0,0 11.97907,95.31395 20.3394,124.56939c7.1019,24.85178 26.66593,39.91709 26.66593,39.91709c0,0 -34.46204,15.19677 -57.18621,22.31198c-16.31624,5.10881 -66.42039,16.39072 -66.42039,16.39072z" fill="#412a6a" stroke="none" stroke-width="0" stroke-linecap="butt"/><path d="M341.3698,128.99424c2.45446,28.06358 -8.05057,42.12577 -43.07519,51.45863c-3.7732,1.00543 -29.96476,87.39411 -33.77081,94.92631c-11.89496,23.54026 -11.46362,2.51883 -21.83939,6.88514c-7.34354,3.09029 -15.03583,10.39362 -25.79281,11.02021c-6.82437,0.39752 -10.46011,-9.84676 -23.38963,-11.77619c0.00662,0.7141 -2.42143,-3.33939 -3.22114,-9.69743c-0.18189,-1.44605 1.34182,0.29578 0.35616,-2.02626c-7.82362,-18.43105 -20.15745,-68.76225 -27.68441,-77.72116c-18.35179,-21.8431 -39.41215,-21.11168 -41.52144,-45.22872c-3.54526,-40.53547 43.65602,-97.3115 97.89178,-102.055c54.23575,-4.74349 118.50164,43.67897 122.0469,84.21444z" fill="#ffddd1" stroke="#003737" stroke-width="0.5" stroke-linecap="butt"/><g stroke="#000000" stroke-linecap="butt"><path d="M141.75774,170.04161c0,12.55094 -5.33799,-2.05882 -12.7451,-2.05882c-3.63207,0 -9.47182,-0.45547 -18.27827,-7.71586c-9.15307,-7.54616 -21.21193,-22.02481 -21.21193,-28.4214c0,-12.55094 -11.8777,-39.86274 -4.47059,-39.86274c6.48005,0 43.67589,21.20697 48.78189,33.98646c0.73048,1.82828 7.92399,27.50151 7.92399,29.07236z" fill="#ffddd1" stroke-width="0.5"/><path d="M123.05185,135.19848c0,1.95873 -4.92216,8.89684 -6.65932,5.83428c-2.22784,-3.9276 -1.61916,-18.53892 -4.24093,-19.82994c-3.06473,-1.50914 -6.84097,5.05447 -8.47231,5.05447c-0.42309,0 1.40225,1.70266 0.6903,-2.47964c-0.81345,-4.77851 -2.02112,-9.68563 -4.09304,-11.96996c-3.27088,-3.60622 -6.05531,-0.25115 -5.7569,2.38403c0.39705,3.50638 1.22155,10.69146 4.66429,18.4519c2.12001,4.77882 9.28323,13.36124 11.64235,17.09903c3.03601,4.81027 1.04909,4.04156 1.04909,2.59309c0,-3.66519 -10.41924,-3.09254 -15.17815,-13.62366c-4.85855,-10.75163 -4.03795,-32.57242 -1.9591,-32.57242c4.11506,0 28.31373,21.65171 28.31373,29.05883z" fill="#be8571" stroke-width="0"/></g><path d="M217.66305,132.13421c4.35187,11.17262 -14.34149,27.30921 -31.75258,30.89915c-17.41109,3.58994 -35.73552,-6.57916 -40.0874,-17.75179c-2.3976,-6.15538 -7.5973,-12.4915 -9.91702,-16.144c-0.99943,-1.57362 -4.58763,-0.15555 -3.43275,-1.29726c1.03004,-1.01829 -3.65577,-2.06325 -0.00257,-2.07646c6.4994,-0.0235 -2.99167,-1.80742 8.43135,-2.11166c24.69409,-0.6577 73.7855,0.84303 76.76098,8.48201z" fill="#86746e" stroke="none" stroke-width="0" stroke-linecap="butt"/><g data-paper-data="{&quot;index&quot;:null}" stroke="#000000" stroke-linecap="butt"><path d="M326.69573,120.96925c5.106,-12.77949 42.30184,-33.98646 48.78189,-33.98646c7.40711,0 -4.47059,27.3118 -4.47059,39.86274c0,6.39659 -12.05886,20.87524 -21.21193,28.4214c-8.80644,7.26039 -14.64619,7.71586 -18.27826,7.71586c-7.40711,0 -16.7451,-5.39024 -16.7451,-17.94118c0,-1.57085 11.19351,-22.24408 11.92399,-24.07236z" fill="#ffddd1" stroke-width="0.5"/><path d="M365.79134,101.13966c2.07885,0 2.89944,21.8208 -1.95911,32.57242c-4.75891,10.53112 -15.17815,9.95847 -15.17815,13.62366c0,1.44848 -1.98692,2.21719 1.04909,-2.59309c2.35911,-3.73779 9.52233,-12.3202 11.64234,-17.09903c3.44274,-7.76044 4.26723,-14.94552 4.66429,-18.4519c0.29841,-2.63518 -2.48602,-5.99025 -5.7569,-2.38403c-2.07191,2.28433 -3.27959,7.19145 -4.09303,11.96996c-0.71195,4.1823 1.11338,2.47964 0.69029,2.47964c-1.63133,0 -5.40758,-6.56361 -8.47231,-5.05447c-2.62176,1.29102 -2.01308,15.90233 -4.24093,19.82994c-1.73717,3.06256 -6.65932,-3.87555 -6.65932,-5.83428c0,-7.40712 24.19866,-29.05882 28.31373,-29.05882z" fill="#be8571" stroke-width="0"/></g><path d="M328.63948,178.05085c-0.24315,2.9009 10.53148,9.5026 7.49403,11.38007c-2.34945,1.4522 -8.72879,-4.17888 -15.54599,-6.12496c-2.0641,-0.58923 7.20388,12.57406 5.26139,12.37102c-0.33544,-0.03507 -4.10074,-0.9124 -7.61759,-3.683c-2.9694,-2.33932 -5.79256,-6.68937 -5.9106,-6.30624c-0.99982,3.2449 3.55937,12.13111 2.11636,12.01015c-1.79135,-0.15015 -5.81952,-3.34929 -8.62719,-6.70081c-0.81741,-0.97576 -1.05697,-3.50768 -2.40248,-4.1915c-2.1566,-1.09603 1.87452,13.28089 0.13445,11.45717c-1.42831,-1.49697 -9.34943,-13.15047 -9.91944,-12.74622c-2.2702,1.61003 1.46007,12.72261 -2.74305,11.80911c-3.98315,-0.86569 -9.077,-9.84162 -14.35488,-13.70538c-5.45209,-3.99129 -22.78053,-6.288 -22.65016,-7.84335c0.11124,-1.32708 16.68891,-0.89901 23.77191,-2.03475c9.70914,-1.55683 22.47993,-2.86777 29.15484,-6.08737c2.90835,-1.40282 8.22601,-5.48866 11.21793,-9.21266c2.06709,-2.57289 1.84302,-5.04554 3.77578,-6.04493c2.75046,-1.42219 1.13536,3.58657 2.80395,-1.79158c1.89798,-6.11755 4.71799,-12.13758 7.15369,-18.7539c1.99847,-5.4286 3.6727,-12.15451 4.92365,-12.04966c0.54166,0.0454 2.55937,5.16043 6.43002,8.24948c3.59384,2.86813 9.07449,3.66668 9.18756,5.14979c0.11861,1.55587 -16.46132,2.67504 -15.87238,4.19573c0.18701,0.48287 7.3122,-1.94147 14.61881,-1.05712c9.15236,1.10775 21.48425,6.3229 21.9583,6.81496c0.22617,0.23477 -9.6616,-0.17486 -15.93111,0.58255c-5.54563,0.66996 -11.16927,-0.13492 -10.89776,-0.00417c2.41833,1.16454 -1.31044,-0.00086 1.46679,0.81651c3.25228,0.95719 9.5663,0.53212 12.89006,1.19367c12.35739,2.45952 20.61396,5.39095 19.16143,10.11075c-0.16893,0.54891 -2.40583,-0.2993 -5.54113,-0.74287c-7.79398,-1.10267 -20.54884,-3.10701 -16.56488,0.17106c-0.89201,-1.75797 -3.9271,-1.94109 -2.45876,-1.70387c1.14475,0.18495 1.03037,-1.30234 2.44118,-1.18227c2.5474,0.2168 6.87151,2.06015 9.88826,2.81416c6.88769,1.7215 11.77694,4.17749 12.68228,4.88288c4.21838,3.28672 -15.33276,1.31832 -12.968,3.59663c1.35015,1.30079 4.99266,0.88195 6.24254,2.00569c5.56356,5.00213 7.23142,9.9352 4.38042,12.04634c-0.25487,0.18873 -10.58814,-5.89804 -11.0536,-5.00884c-0.36362,0.69465 0.86086,2.93758 1.55609,5.78526c1.23229,5.04748 2.33075,11.53592 0.883,11.39559c-1.4727,-0.14273 -5.55725,-5.79157 -7.17435,-6.82979c-10.25173,-6.58185 -22.54174,-14.77242 -18.56876,-10.05583c1.53279,1.81969 4.43098,0.67009 5.70471,2.13893c8.53616,9.84379 6.05138,11.9682 5.50284,12.45014c-3.20842,-0.41765 -6.33615,0.18884 -12.67524,-2.90453c-6.98658,-3.40933 -13.31148,-6.82179 -13.32488,-6.66203z" fill="#23173a" stroke="none" stroke-width="0" stroke-linecap="butt"/><path d="M299.64577,46.98279c0,0.79958 5.7193,0.95615 21.54414,15.99651c6.1755,5.86937 22.23018,37.04586 21.58426,37.3619c-1.44303,0.70607 -8.96645,39.10355 -12.368,37.75114c-4.25055,-1.68995 -20.45247,-50.35673 -24.09033,-57.79963c-3.20415,-6.55554 -14.83878,-12.93741 -21.94538,-14.90877c-16.39164,-4.54702 -38.14684,-3.33539 -44.1013,-1.57538c-7.53458,2.22706 -26.00676,16.67423 -27.6664,16.67423c-1.3872,0 -1.56592,-11.27879 -7.66531,-15.86307c-3.59998,-2.70573 -13.11994,-6.68582 -23.42472,-3.73918c-4.32489,1.2367 -13.39449,3.32745 -21.41706,8.71041c-8.9302,5.99196 -32.71255,44.22644 -34.33451,43.41146c-3.40869,-1.71275 11.05777,-39.33841 27.70879,-58.43628c2.88364,-3.30739 24.3747,-16.68163 24.38284,-17.03086c0.07639,-3.27937 35.25712,-8.36969 35.25712,-10.55248c0,-7.45584 31.47972,-2.5 37.00574,-2.5c5.52602,0 37.53012,10.04416 37.53012,17.5z" fill="#23173a" stroke="none" stroke-width="0" stroke-linecap="butt"/><path d="M318.08787,149.83385c-5.9818,9.64688 -24.80894,16.93896 -45.11851,15.42621c-20.30958,-1.51276 -28.695,-18.27212 -27.75726,-27.55067c0.93774,-9.27856 17.45307,-8.55846 37.94923,-8.89189c15.85792,-0.25798 44.00903,-4.39413 48.54313,2.40168c1.2828,1.92269 -12.47008,16.76569 -13.61658,18.61467z" fill="#86746e" stroke="none" stroke-width="0" stroke-linecap="butt"/><path d="M304.77679,150.45881c-9.03808,5.71718 -11.8979,6.11454 -21.30018,7.79842c-14.92722,2.67334 -26.36129,-2.42463 -29.32874,-6.83866c-0.10142,-0.15085 -2.73358,-2.52522 -2.8246,-2.68189c-2.39601,-4.1241 -4.7338,-9.92845 -7.59199,-12.54043c-3.88461,-3.54997 71.64808,-5.70055 82.87616,-5.2523c4.27558,0.17069 0.86287,-0.29338 -0.80913,1.21479c-7.36333,6.64188 -14.93581,14.45046 -21.02152,18.30006z" fill="#ffffff" stroke="#200000" stroke-width="0.5" stroke-linecap="butt"/><path d="M134.02023,61.07419z" fill="url(#color-1)" stroke="none" stroke-width="0" stroke-linecap="butt"/><path d="M283.57297,107.22377c0,4.31679 -4.37432,7.81625 -9.77031,7.81625c-5.39599,0 -30.09256,9.78816 -30.09256,5.47137c0,-4.31679 24.69656,-21.10387 30.09256,-21.10387c5.39599,0 9.77031,3.49946 9.77031,7.81625z" fill="#23173a" stroke="none" stroke-width="0" stroke-linecap="butt"/><path d="M184.88355,102.12075c5.06098,-0.13867 27.07128,14.10627 26.77479,17.93255c-0.29649,3.82628 -22.78749,-4.21501 -27.84849,-4.07634c-5.06098,0.13867 -8.92338,-2.85074 -8.62688,-6.67703c0.29649,-3.82628 4.63959,-7.04052 9.70057,-7.17919z" data-paper-data="{&quot;index&quot;:null}" fill="#23173a" stroke="none" stroke-width="0" stroke-linecap="butt"/><path d="M143.76024,184.72037c-0.02451,-0.17933 -4.78454,3.94029 -10.07367,8.08534c-4.79895,3.76089 -7.35113,3.2147 -9.87927,3.82537c-0.48006,-0.51875 -2.64959,-2.80248 3.32179,-14.26153c0.89103,-1.70987 3.30669,-0.54199 4.37444,-2.6583c2.76758,-5.4854 -6.34687,4.27604 -13.97135,12.13665c-1.20268,1.23993 -3.97886,7.78007 -5.14353,8.00523c-1.14495,0.22135 -0.8279,-7.13371 -0.27934,-12.87188c0.30949,-3.23735 1.09424,-5.81681 0.74358,-6.5832c-0.44887,-0.98102 -8.18131,6.32563 -8.40132,6.12424c-2.46107,-2.25277 -1.5545,-7.88115 2.45964,-13.75769c0.90179,-1.32019 3.84918,-1.00783 4.81581,-2.53178c1.69304,-2.66918 -13.76253,0.4027 -10.67521,-3.48317c0.6626,-0.83398 4.3579,-3.81365 9.71388,-6.05361c2.34588,-0.98108 5.64246,-3.24612 7.65966,-3.6017c1.11717,-0.19693 1.15432,1.483 2.05324,1.22466c1.15303,-0.33138 -1.25685,0.0076 -1.81781,2.02637c2.90071,-3.86589 -7.12,-1.0508 -13.25382,0.53188c-2.46746,0.63667 -4.18193,1.68973 -4.36439,1.07896c-1.56887,-5.25171 4.77657,-8.9141 14.44027,-12.22443c2.59925,-0.89037 7.68229,-0.68786 10.19885,-1.90806c2.14898,-1.04197 -0.73041,0.43355 1.10171,-0.98369c0.2057,-0.15912 -4.21927,0.99328 -8.70938,0.48136c-5.07621,-0.57875 -12.94333,0.31506 -12.78286,0.04077c0.33634,-0.57488 9.74146,-6.98735 16.96048,-8.63517c5.76317,-1.31551 11.66734,1.10303 11.77506,0.55106c0.33925,-1.73829 -13.00854,-2.27347 -13.04825,-4.03081c-0.03784,-1.67517 4.27338,-2.81419 6.89775,-6.20135c2.8265,-3.64806 3.99695,-9.49665 4.42593,-9.57147c0.99074,-0.1728 2.91021,7.32841 4.97668,13.35448c2.51859,7.34449 5.29278,14.00067 7.33849,20.80699c1.79846,5.98367 0.07468,0.41366 2.39584,1.89497c1.6311,1.04092 1.66575,3.83534 3.54022,6.64239c2.71311,4.06296 7.31629,8.43168 9.76197,9.88427c5.61305,3.33383 15.93308,4.25158 23.82741,5.58014c5.75907,0.96922 18.97131,-0.23796 19.17493,1.25168c0.23864,1.74587 -13.4121,5.09027 -17.42453,9.82357c-3.88422,4.58206 -7.17944,14.91318 -10.28804,16.06231c-3.28027,1.21259 -1.25954,-11.46511 -3.21309,-13.17897c-0.49051,-0.43032 -5.81391,13.03985 -6.82605,14.78814c-1.23305,2.1299 0.74595,-14.23711 -0.88292,-12.90849c-1.01625,0.82894 -0.98884,3.69077 -1.5578,4.82539c-1.95424,3.89716 -4.89712,7.67608 -6.31582,7.92354c-1.14284,0.19933 1.73284,-10.00737 0.65328,-13.61792c-0.12746,-0.4263 -2.00777,4.59602 -4.17878,7.36036c-2.57124,3.27397 -5.50472,4.42668 -5.76979,4.48084c-1.53493,0.31362 4.73439,-14.91572 3.13567,-14.16187c-5.28024,2.48978 -9.89201,9.11031 -11.89527,7.57766c-2.5899,-1.98148 5.45078,-9.88732 5.00569,-13.14356z" data-paper-data="{&quot;index&quot;:null}" fill="#23173a" stroke="none" stroke-width="0" stroke-linecap="butt"/><path d="M239.03896,131.91444c-0.08221,2.62206 -4.40007,4.61438 -9.64419,4.44996c-5.24413,-0.16442 -9.42868,-2.42333 -9.34647,-5.04539c0.08221,-2.62206 4.40007,-4.61437 9.64419,-4.44995c5.24413,0.16442 9.42868,2.42332 9.34647,5.04538z" fill="#ffddd1" stroke="none" stroke-width="0" stroke-linecap="butt"/><path d="M267.33746,269.60167c0,12.42641 -34.58172,43.5 -39,43.5c-4.41828,0 -38,-26.07359 -38,-38.5c0,-3.79446 18.33397,4.79128 18.92374,0.48954c1.34166,-9.78593 14.00713,-18.98954 17.07626,-18.98954c2.40852,0 4.37479,12.26228 14.76275,19.97233c8.66811,6.43357 26.23725,-12.12478 26.23725,-6.47233z" fill="#23173a" stroke="none" stroke-width="0" stroke-linecap="butt"/><path d="M246.27177,221.0754l-39.03604,2.997" fill="none" stroke="#000000" stroke-width="2" stroke-linecap="round"/><path d="M295.96246,151.73279c0,0.62132 -0.50368,1.125 -1.125,1.125c-0.62132,0 -1.125,-0.50368 -1.125,-1.125c0,-0.62132 0.50368,-1.125 1.125,-1.125c0.62132,0 1.125,0.50368 1.125,1.125z" fill="#ffffff" stroke="none" stroke-width="0" stroke-linecap="butt"/><path d="M167.96246,145.98279c0,0.62132 -0.50368,1.125 -1.125,1.125c-0.62132,0 -1.125,-0.50368 -1.125,-1.125c0,-0.62132 0.50368,-1.125 1.125,-1.125c0.62132,0 1.125,0.50368 1.125,1.125z" fill="#ffffff" stroke="none" stroke-width="0" stroke-linecap="butt"/><path d="M154.48584,149.45881c-6.08571,-3.8496 -13.65819,-11.65818 -21.02152,-18.30006c-1.672,-1.50816 -5.0847,-1.04409 -0.80912,-1.21479c11.22807,-0.44825 86.76077,1.70232 82.87615,5.2523c-2.85819,2.61198 -5.19598,8.41633 -7.59199,12.54043c-0.09102,0.15667 -2.72318,2.53104 -2.82459,2.68188c-2.96745,4.41404 -14.40152,9.51201 -29.32874,6.83866c-9.40227,-1.68388 -12.2621,-2.08125 -21.30018,-7.79842z" data-paper-data="{&quot;index&quot;:null}" fill="#ffffff" stroke="#200000" stroke-width="0.5" stroke-linecap="butt"/><g stroke-linecap="butt"><path d="M224.41,125.89969c1.55274,-0.24561 6.56823,-6.81186 10.19955,1.12343c4.36917,9.54766 10.98951,25.80218 12.2659,39.18494c0.10401,1.09055 2.71114,5.33773 3.68825,5.93725c1.72078,1.0558 3.23865,-1.73752 3.45329,-0.38057c0.23145,1.46325 1.3427,2.9849 1.29939,4.38039c-0.53225,17.1458 -22.08539,29.21228 -25.63762,29.77416c-1.21175,0.19167 -5.75405,3.02049 -8.60102,1.97748c-2.25024,-0.82439 -8.51127,-6.59723 -13.933,-12.24951c-4.09772,-4.27196 -7.71601,-8.47505 -8.76095,-10.42084c-1.36836,-2.54801 8.54542,-5.99131 7.78656,-10.78886c-3.07519,-19.44143 14.39833,-47.93027 18.23966,-48.53788z" fill="#ffcbb8" stroke="#710000" stroke-width="0.5"/><path d="M254.82452,177.83275c0.1508,0.95338 -3.65193,-3.03168 -6.34363,-0.23985c-4.24164,4.39943 -10.76437,15.26424 -14.60125,21.56932c-2.43556,4.00231 -3.21495,5.0187 -3.48198,5.06094c-0.39914,0.06313 3.81163,-6.25044 6.69473,-12.05924c1.0643,-2.14432 2.42483,-4.32983 3.45901,-6.18459c2.86469,-5.13769 4.30012,-10.39022 4.06955,-11.84788c-0.53929,-3.40939 -3.49743,-30.32599 -2.5428,-30.47699c0.46452,-0.07348 3.17587,17.65043 6.28556,24.50773c2.30087,5.07374 5.4646,1.03345 5.72509,2.159c0.11096,0.47944 0.65301,6.98868 0.73572,7.51155z" fill="#e1a088" stroke="#710000" stroke-width="0"/><path d="M242.5005,166.37209c-0.2513,8.09689 0.20729,17.21486 -5.16497,24.03262c-3.22207,4.08902 -12.43339,11.48865 -17.46671,12.4404c-6.31378,1.19387 -2.33522,-5.66053 -3.65948,-5.70163c-1.60694,-0.04987 -9.44949,-23.04843 -6.1732,-26.58904c5.16477,-5.58144 16.76937,11.83746 20.20091,0.69561c7.26058,-23.57431 -2.79404,-41.92004 1.34611,-41.79154c4.14014,0.1285 11.50843,17.86893 10.91734,36.91358z" fill="#f7b8a2" stroke="none" stroke-width="0"/><path d="M197.37559,180.83275c0.0827,-0.52287 0.62476,-7.0321 0.73572,-7.51154c0.26049,-1.12555 3.42422,2.91473 5.72508,-2.15901c3.10969,-6.8573 5.82104,-24.58121 6.28556,-24.50773c0.95463,0.151 -2.00351,27.0676 -2.5428,30.47699c-0.23057,1.45765 1.20486,6.71019 4.06955,11.84787c1.03418,1.85475 2.39471,4.04026 3.45901,6.18459c2.88309,5.80881 7.09387,12.12237 6.69473,12.05924c-0.26703,-0.04224 -1.04642,-1.05863 -3.48198,-5.06094c-3.83688,-6.30508 -10.35961,-17.16989 -14.60126,-21.56932c-2.69171,-2.79183 -6.49443,1.19322 -6.34363,0.23985z" data-paper-data="{&quot;index&quot;:null}" fill="#e1a088" stroke="#710000" stroke-width="0"/></g><path d="M282.04126,138.07269c0,3.31371 -2.46244,6 -5.5,6c-3.03757,0 -5.5,-2.68629 -5.5,-6c0,-3.31371 2.46243,-6 5.5,-6c3.03756,0 5.5,2.68629 5.5,6z" fill="url(#color-2)" stroke="none" stroke-width="0" stroke-linecap="butt"/><path d="M184.03525,138.5832c0,3.31371 -2.46243,6 -5.5,6c-3.03757,0 -5.5,-2.68629 -5.5,-6c0,-3.31371 2.46243,-6 5.5,-6c3.03757,0 5.5,2.68629 5.5,6z" fill="url(#color-3)" stroke="none" stroke-width="0" stroke-linecap="butt"/><path d="M269.58408,212.14446c0,1.99986 -4.50647,11.23425 -8.50446,14.61515c-7.60657,6.43249 -11.11228,10.89536 -22.52707,10.89536c-4.98588,0 -23.43923,0.83552 -28.68366,-0.96286c-13.07301,-4.48292 -21.34787,-18.90481 -21.34787,-23.04765c0,-3.13485 3.49219,-0.86608 10.82737,0.96428c6.24737,1.55892 15.69432,2.52521 23.70416,2.52521c3.92664,0 8.44828,-0.17716 13.09696,-0.47906c8.55893,-0.55584 17.54849,-1.53452 24.048,-2.60886c5.62622,-0.92999 9.38658,-3.98763 9.38658,-1.90157z" fill="#bb0000" stroke="none" stroke-width="0" stroke-linecap="butt"/><path d="M250.21378,227.64446c0,0.81781 -1.65198,-7.45609 -7.29804,-6.99998c-3.88616,0.31394 -9.71701,1.99998 -14.95196,1.99998c-1.29197,0 -10.1964,-0.16852 -13.38538,-1.16586c-4.4541,-1.39301 -3.46333,-3.45209 -5.40949,-0.52694c-1.32484,1.99128 -4.20736,8.43576 -5.00271,7.03696c-3.24738,-5.71123 -3.18652,-8.8768 -4.63672,-9.02361c-4.50375,-0.45593 -9.8157,-4.60293 -9.8157,-5.32055c0,-0.72438 6.94349,0.13708 14.92368,1.11976c4.33324,0.5336 7.65833,2.4621 12.54393,3.12052c3.26653,0.44022 8.33659,-0.24029 10.78238,-0.24029c3.0722,0 11.19863,-0.10928 18.9344,-1.25568c9.01256,-1.33561 17.67355,-3.72162 19.95399,-3.46256c1.88913,0.21461 0.87895,1.22754 -3.29075,2.81871c-1.41096,0.53843 -5.39744,1.58581 -6.77578,2.09489c-3.05079,1.12677 -6.57186,9.56584 -6.57186,9.80463z" fill="#ffffff" stroke="none" stroke-width="0" stroke-linecap="butt"/></g></g></svg>