<svg version="1.1" xmlns="http://www.w3.org/2000/svg" xmlns:xlink="http://www.w3.org/1999/xlink" width="303.52744" height="421.85454" viewBox="0,0,303.52744,421.85454"><defs><linearGradient x1="180.55327" y1="139.5832" x2="180.55327" y2="151.5832" gradientUnits="userSpaceOnUse" id="color-1"><stop offset="0" stop-color="#000000"/><stop offset="1" stop-color="#86746e"/></linearGradient><linearGradient x1="66.25937" y1="25.28059" x2="66.25937" y2="25.28309" gradientUnits="userSpaceOnUse" id="color-2"><stop offset="0" stop-color="#000000"/><stop offset="1" stop-color="#86746e"/></linearGradient><linearGradient x1="258.05928" y1="140.57269" x2="258.05928" y2="152.57269" gradientUnits="userSpaceOnUse" id="color-3"><stop offset="0" stop-color="#000000"/><stop offset="1" stop-color="#86746e"/></linearGradient></defs><g transform="translate(-89.37759,17.77875)"><g data-paper-data="{&quot;isPaintingLayer&quot;:true}" fill-rule="nonzero" stroke-linejoin="miter" stroke-miterlimit="10" stroke-dasharray="" stroke-dashoffset="0" style="mix-blend-mode: normal"><path d="M328.33166,97.98279c0.52997,1.17002 -2.15959,15.15298 -2.41353,21.06859c-0.21445,4.99554 0.79238,34.3703 0.17412,81.06414c-0.45242,34.16923 4.12836,92.26507 7.47863,127.69682c2.02458,21.41149 6.59979,34.37238 6.34337,34.80781c-3.15713,5.36122 -29.55003,-2.48295 -40.47319,-41.43398c-19.20442,-68.48127 -38.22999,-200.20338 -58.37369,-200.20338c-31.17213,0 -101.77318,38.87311 -117.74537,29.183c-3.84072,-2.33011 20.33407,-42.32884 20.33407,-46.183c0,-19.88225 56.71403,-55 95.3819,-55c38.66787,0 77.11728,22.11775 89.29369,49z" fill="#23173a" stroke="none" stroke-width="NaN" stroke-linecap="butt"/><path d="M219.3048,404.07579l15.66844,-185.45045l60.93283,-17.73874c0,0 11.97907,95.31395 20.3394,124.56939c7.1019,24.85178 26.66593,39.91709 26.66593,39.91709c0,0 -34.46204,15.19677 -57.18621,22.31198c-16.31624,5.10881 -66.42039,16.39072 -66.42039,16.39072z" fill="#412a6a" stroke="none" stroke-width="0" stroke-linecap="butt"/><g stroke="#000000" stroke-linecap="butt"><path d="M167.77576,162.04161c0,12.55094 -5.33799,-2.05882 -12.7451,-2.05882c-3.63207,0 -9.47182,-0.45547 -18.27827,-7.71586c-9.15307,-7.54616 -21.21193,-22.02481 -21.21193,-28.4214c0,-12.55094 -11.8777,-39.86274 -4.47059,-39.86274c6.48005,0 43.67589,21.20697 48.78189,33.98646c0.73048,1.82828 7.92399,27.50151 7.92399,29.07236z" fill="#ffddd1" stroke-width="0.5"/><path d="M149.06987,127.19848c0,1.95873 -4.92216,8.89684 -6.65932,5.83428c-2.22784,-3.9276 -1.61916,-18.53892 -4.24093,-19.82994c-3.06473,-1.50914 -6.84097,5.05447 -8.47231,5.05447c-0.42309,0 1.40225,1.70266 0.6903,-2.47964c-0.81345,-4.77851 -2.02112,-9.68563 -4.09304,-11.96996c-3.27088,-3.60622 -6.05531,-0.25115 -5.7569,2.38403c0.39705,3.50638 1.22155,10.69146 4.66429,18.4519c2.12001,4.77882 9.28323,13.36124 11.64235,17.09903c3.03601,4.81027 1.04909,4.04156 1.04909,2.59309c0,-3.66519 -10.41924,-3.09254 -15.17815,-13.62366c-4.85855,-10.75163 -4.03795,-32.57242 -1.9591,-32.57242c4.11506,0 28.31373,21.65171 28.31373,29.05883z" fill="#be8571" stroke-width="0"/></g><path d="M324.01217,165.28382c0,24.52692 -10.3658,35.92676 -42.02512,41.36464c-3.41066,0.58582 -32.63599,56.97217 -36.5799,63.21645c-12.32581,19.51513 -10.9053,17.87044 -20.40785,20.87044c-6.72551,2.12327 -15.15592,-0.08356 -24.70629,-0.3561c-6.05888,-0.1729 -7.40765,-1.3762 -18.67962,-4.03049c-0.04932,0.61987 -1.88093,-3.08008 -2.09614,-8.65534c-0.04895,-1.26802 1.16242,0.35833 0.47115,-1.73044c-5.48692,-16.57952 -5.98425,-59.29957 -11.9409,-67.64099c-14.52316,-20.33758 -39.692,-23.17074 -39.692,-44.24848c0,-35.42707 46.08062,-81.09071 94.35515,-81.09071c48.27452,0 101.30154,46.87395 101.30154,82.30102z" fill="#ffddd1" stroke="#003737" stroke-width="0.5" stroke-linecap="butt"/><path d="M188.03826,149.32419c0,14.49748 -14.11852,29.25 -24.75,29.25c-10.63148,0 -18.75,-16.75252 -18.75,-31.25c0,-7.98716 -1.54402,-16.88537 -2.05104,-21.84697c-0.21845,-2.13763 -2.55878,-1.32299 -1.65466,-2.40831c0.80639,-0.968 -1.61207,-3.38359 0.4557,-2.49472c3.67877,1.58139 -1.29303,-2.91184 5.23048,-0.44829c14.10242,5.32567 41.51952,19.28603 41.51952,29.19829z" fill="#86746e" stroke="none" stroke-width="0" stroke-linecap="butt"/><g data-paper-data="{&quot;index&quot;:null}" stroke="#000000" stroke-linecap="butt"><path d="M313.71375,126.96925c5.106,-12.77949 42.30184,-33.98646 48.78189,-33.98646c7.40711,0 -4.47059,27.3118 -4.47059,39.86274c0,6.39659 -12.05886,20.87524 -21.21193,28.4214c-8.80644,7.26039 -14.64619,7.71586 -18.27826,7.71586c-7.40711,0 -16.7451,-5.39024 -16.7451,-17.94118c0,-1.57085 11.19351,-22.24408 11.92399,-24.07236z" fill="#ffddd1" stroke-width="0.5"/><path d="M352.80936,107.13966c2.07885,0 2.89944,21.8208 -1.95911,32.57242c-4.75891,10.53112 -15.17815,9.95847 -15.17815,13.62366c0,1.44848 -1.98692,2.21719 1.04909,-2.59309c2.35911,-3.73779 9.52233,-12.3202 11.64234,-17.09903c3.44274,-7.76044 4.26723,-14.94552 4.66429,-18.4519c0.29841,-2.63518 -2.48602,-5.99025 -5.7569,-2.38403c-2.07191,2.28433 -3.27959,7.19145 -4.09303,11.96996c-0.71195,4.1823 1.11338,2.47964 0.69029,2.47964c-1.63133,0 -5.40758,-6.56361 -8.47231,-5.05447c-2.62176,1.29102 -2.01308,15.90233 -4.24093,19.82994c-1.73717,3.06256 -6.65932,-3.87555 -6.65932,-5.83428c0,-7.40712 24.19866,-29.05882 28.31373,-29.05882z" fill="#be8571" stroke-width="0"/></g><path d="M392.90503,9.91263c0,12.56121 -26.12886,21.08285 -51.74017,29.57743c-5.53774,1.83672 -11.1323,5.88105 -16.38799,10.54685c-11.30551,10.0366 -21.04296,22.94888 -25.27368,22.94888c-11.70163,0 -15.78179,20.09182 -11.49639,7.37392c1.31543,-3.90386 -8.38885,-9.85408 -8.38885,-14.81433c0,-21.11964 50.52258,-83.32413 65.81612,-83.32413c15.29354,0 47.47096,6.57176 47.47096,27.6914z" fill="#23173a" stroke="none" stroke-width="0" stroke-linecap="butt"/><path d="M307.69014,192.17872c0.25684,2.89972 12.00224,7.56028 9.33086,9.92983c-2.06629,1.83282 -9.31513,-2.62356 -16.3648,-3.37437c-2.13448,-0.22733 9.24931,11.15586 7.30073,11.28821c-0.33649,0.02285 -4.19639,-0.19722 -8.13547,-2.32515c-3.32591,-1.79669 -6.85181,-5.59947 -6.90255,-5.20179c-0.4298,3.36813 5.58276,11.34309 4.14033,11.47085c-1.79062,0.1586 -6.30682,-2.30404 -9.64659,-5.12568c-0.97233,-0.82149 -1.64162,-3.27507 -3.0843,-3.71856c-2.31234,-0.71082 4.11951,12.76423 2.09303,11.26517c-1.66341,-1.23048 -11.46185,-11.35662 -11.95428,-10.86079c-1.9612,1.97476 3.61564,12.2851 -0.6818,12.10432c-4.07254,-0.17132 -10.62722,-8.14319 -16.48842,-11.0468c-6.05467,-2.99945 -23.52053,-2.29702 -23.65823,-3.85174c-0.11749,-1.32654 16.28891,-3.74157 23.07309,-6.07261c9.29952,-3.1953 21.65762,-6.67226 27.68313,-10.98659c2.6254,-1.87981 7.16545,-6.81535 9.47598,-10.9964c1.59633,-2.88866 0.95244,-5.2865 2.68567,-6.60188c2.46652,-1.87187 1.73235,3.33938 2.45601,-2.24497c0.82314,-6.3521 2.5714,-12.7659 3.83899,-19.70143c1.04004,-5.69051 1.53863,-12.60371 2.78908,-12.71447c0.54144,-0.04796 3.40468,4.64635 7.74684,7.02749c4.03163,2.21084 9.56809,2.05976 9.93328,3.50165c0.3831,1.51262 -15.76076,5.45246 -14.92029,6.84994c0.26688,0.44375 6.87212,-3.16411 14.22229,-3.54311c9.20692,-0.47475 22.24934,2.55323 22.8006,2.95691c0.26301,0.1926 -9.54901,1.48102 -15.59644,3.30011c-5.34919,1.60905 -11.02761,1.77837 -10.73773,1.86073c2.58194,0.73354 -1.29126,0.2234 1.58488,0.55347c3.3681,0.38654 9.51625,-1.11272 12.90419,-1.0297c12.59599,0.30863 21.23241,1.78395 20.60896,6.68269c-0.07251,0.56972 -2.42156,0.1168 -5.58652,0.21629c-7.86771,0.24731 -20.77742,0.45516 -16.29128,3.00314c-1.17968,-1.5794 -4.20134,-1.24045 -2.71406,-1.25799c1.15951,-0.01367 0.79231,-1.45945 2.20286,-1.58257c2.54693,-0.22231 7.12269,0.8539 10.22397,1.08056c7.08068,0.51748 12.31809,2.10059 13.33078,2.64065c4.71859,2.51639 -14.88101,3.92263 -12.16126,5.76268c1.55283,1.05056 5.06994,0.01459 6.49368,0.90788c6.33747,3.97631 8.82488,8.55121 6.37719,11.11907c-0.21881,0.22956 -11.44124,-3.99919 -11.74768,-3.04346c-0.23939,0.74663 1.35084,2.74694 2.52312,5.43365c2.07784,4.76216 4.27041,10.96692 2.82,11.07641c-1.4754,0.11138 -6.46634,-4.75518 -8.23725,-5.50137c-11.22681,-4.73048 -24.73712,-10.69716 -20.01564,-6.73c1.82157,1.53056 4.48029,-0.09803 5.98658,1.13119c10.09473,8.23788 8.01013,10.75615 7.55215,11.32485c-3.23256,0.13754 -6.21038,1.2703 -12.98531,-0.69269c-7.46694,-2.16349 -14.28249,-4.44329 -14.26835,-4.2836z" fill="#23173a" stroke="none" stroke-width="0" stroke-linecap="butt"/><path d="M263.35548,81.98279c0,0.79958 31.75722,14.95615 44.40983,29.99651c4.93757,5.86937 0.18404,22.04586 -0.3324,22.3619c-1.15376,0.70607 -7.16905,39.10355 -9.88873,37.75114c-3.39849,-1.68995 -16.35259,-50.35673 -19.26121,-57.79963c-2.56185,-6.55554 -11.86422,-12.93741 -17.54624,-14.90877c-13.10579,-4.54702 -30.49997,-3.33539 -35.26081,-1.57538c-6.02421,2.22706 -20.79348,16.67423 -22.12043,16.67423c-1.10912,0 -1.25202,-11.27879 -6.12873,-15.86307c-2.87833,-2.70573 -10.48993,-6.68582 -18.72903,-3.73918c-3.45793,1.2367 -10.70945,3.32745 -17.12382,8.71041c-7.14006,5.99196 -13.36237,15.22644 -14.6592,14.41146c-3.30949,-2.07982 26.42127,-35.48845 26.45812,-37.46714c0.06108,-3.27937 40.18264,1.63031 40.18264,-0.55248c0,-7.45584 3.58172,-13.5 8,-13.5c4.41828,0 42,8.04416 42,15.5z" fill="#23173a" stroke="none" stroke-width="0" stroke-linecap="butt"/><path d="M277.97431,157.20395c-2.42888,13.57928 -18.04628,27.68053 -38.13457,31.24964c-20.08831,3.56911 -33.95823,-14.98589 -36.26133,-26.75515c-2.3031,-11.76927 13.85603,-15.30473 33.48608,-21.21561c15.1878,-4.57326 40.87821,-17.2576 47.5947,-10.03777c1.90025,2.04265 -6.21934,24.15621 -6.68487,26.75889z" fill="#86746e" stroke="none" stroke-width="0" stroke-linecap="butt"/><path d="M268.00976,162.92947c-6.84883,10.39848 -9.49779,11.62972 -18.07795,16.22824c-13.62202,7.30067 -26.49543,2.47018 -30.89149,-3.29194c-0.15024,-0.19692 -3.52362,-3.06039 -3.66572,-3.26817c-3.74069,-5.46943 -7.99822,-13.40294 -11.67279,-16.56149c-4.99416,-4.29282 67.81746,-24.64065 78.90317,-26.54528c4.22137,-0.72527 0.74003,-0.62454 -0.37319,1.95625c-4.9025,11.36564 -9.61042,24.48068 -14.22202,31.48239z" fill="#ffffff" stroke="#200000" stroke-width="0.5" stroke-linecap="butt"/><path d="M144.99355,124.5202c-0.21768,-2.36704 -2.34827,-2.50321 0.1255,-1.78823c6.49637,1.87763 47.73908,21.35577 43.87545,25.20581c-2.84277,2.83276 -6.91398,10.01133 -10.21792,14.95004c-0.12551,0.18761 -2.72868,2.75521 -2.85724,2.93282c-3.76172,5.19719 -12.58676,9.43706 -19.66712,2.60769c-4.45974,-4.30165 -5.87087,-5.45789 -8.20684,-15.02519c-1.5729,-6.44204 -2.0932,-18.4587 -3.05183,-28.88294z" data-paper-data="{&quot;index&quot;:null}" fill="#ffffff" stroke="#200000" stroke-width="0.5" stroke-linecap="butt"/><path d="M186.05327,145.5832c0,3.31371 -2.46243,6 -5.5,6c-3.03757,0 -5.5,-2.68629 -5.5,-6c0,-3.31371 2.46243,-6 5.5,-6c3.03757,0 5.5,2.68629 5.5,6z" fill="url(#color-1)" stroke="none" stroke-width="0" stroke-linecap="butt"/><path d="M152.03825,61.07419z" fill="url(#color-2)" stroke="none" stroke-width="0" stroke-linecap="butt"/><path d="M263.55928,146.57269c0,3.31371 -2.46244,6 -5.5,6c-3.03757,0 -5.5,-2.68629 -5.5,-6c0,-3.31371 2.46243,-6 5.5,-6c3.03756,0 5.5,2.68629 5.5,6z" fill="url(#color-3)" stroke="none" stroke-width="0" stroke-linecap="butt"/><path d="M235.20492,127.40752c0,2.76142 -2.79822,5 -6.25,5c-3.45178,0 -19.25,6.26142 -19.25,3.5c0,-2.76142 15.79822,-13.5 19.25,-13.5c3.45178,0 6.25,2.23858 6.25,5z" fill="#23173a" stroke="none" stroke-width="0" stroke-linecap="butt"/><path d="M179.21491,118.15355c2.29725,1.39978 8.45664,14.95315 7.33682,16.79095c-1.11982,1.8378 -9.0948,-8.7359 -11.39206,-10.13568c-2.29725,-1.39978 -3.25175,-4.02436 -2.13192,-5.86216c1.11982,-1.8378 3.88991,-2.19289 6.18716,-0.79311z" data-paper-data="{&quot;index&quot;:null}" fill="#23173a" stroke="none" stroke-width="0" stroke-linecap="butt"/><path d="M121.97297,170.28228c0.0667,-0.13032 -5.73113,-0.32093 -11.96518,-0.81166c-5.6563,-0.44525 -7.43848,-2.32427 -9.75838,-3.44279c-0.13493,-0.62174 -0.77392,-3.39246 9.52826,-7.2107c1.53725,-0.56974 2.91072,1.62856 4.78527,0.90241c4.85878,-1.88215 -7.14473,-1.039 -17.03908,-0.53045c-1.56073,0.08022 -6.93421,2.63747 -7.97591,2.08596c-1.02406,-0.54217 2.77119,-5.09608 5.97348,-8.4687c1.80667,-1.90276 3.67743,-3.09691 3.76542,-3.80095c0.11263,-0.90122 -9.60153,-0.81453 -9.68087,-1.07602c-0.88752,-2.92515 2.5488,-6.0128 8.59481,-7.4015c1.35826,-0.31198 3.56972,1.65265 5.07804,1.24804c2.6418,-0.70866 -11.22229,-7.97323 -6.87741,-8.63251c0.93249,-0.14149 5.32827,0.14738 10.69867,1.90677c2.35219,0.7706 6.08439,1.28185 7.87204,2.25924c0.99004,0.5413 0.21099,1.64698 1.05571,2.01811c1.08351,0.47604 -1.01082,-0.74697 -2.4323,0.21945c4.18572,-0.75802 -5.19959,-4.93699 -10.87684,-7.5856c-2.2838,-1.06546 -4.16467,-1.41192 -4.01682,-1.91498c1.27131,-4.32556 8.11944,-2.89165 17.45711,0.75436c2.51155,0.98067 6.48727,4.15203 9.09136,4.87052c2.22372,0.61354 -0.79404,-0.15733 1.35645,0.02464c0.24144,0.02043 -3.85928,-1.88342 -7.21089,-4.89963c-3.7891,-3.40992 -10.52364,-7.5397 -10.26299,-7.6206c0.5463,-0.16956 11.17033,1.32106 17.74855,4.57684c5.2516,2.59919 8.81839,7.69097 9.17046,7.39942c1.10877,-0.91815 -9.32962,-9.24816 -8.51534,-10.40529c0.77621,-1.10302 4.77934,0.74142 8.51313,0.12683c4.02138,-0.66193 7.77518,-3.73374 8.15496,-3.52537c0.87711,0.48123 -1.1963,6.46732 -2.44169,11.58997c-1.51786,6.24342 -2.4995,12.19582 -4.13719,17.80927c-1.43974,4.93498 -0.13932,0.31146 1.00752,2.65537c0.80589,1.64708 -0.51175,3.47004 -0.36116,6.40176c0.21795,4.24339 1.80327,9.81465 3.06371,12.21452c2.89282,5.50793 10.72077,12.27342 16.40713,17.85277c4.14831,4.07025 15.31696,11.19545 14.76292,12.27799c-0.64934,1.26874 -13.19837,-4.7404 -18.69258,-4.088c-5.31865,0.63156 -12.93328,5.32327 -15.97757,4.20478c-3.21241,-1.18026 4.51071,-8.14779 3.77041,-10.42177c-0.18588,-0.57096 -10.93709,4.93196 -12.58989,5.45403c-2.01356,0.63603 7.45239,-8.73585 5.50744,-8.85338c-1.21346,-0.07332 -2.56936,1.78879 -3.57156,2.18019c-3.44234,1.34438 -7.61998,2.02109 -8.87598,1.33199c-1.01177,-0.55511 6.20676,-5.41755 7.08001,-8.39195c0.10311,-0.35119 -3.82171,1.76308 -6.89234,2.24719c-3.63672,0.57336 -6.54241,-0.43806 -6.78089,-0.5617c-1.38099,-0.71595 10.9752,-6.78757 9.33113,-7.25776c-5.42998,-1.55296 -12.31309,-0.04194 -13.18046,-2.22879c-1.12137,-2.82725 9.12828,-3.11599 10.33937,-5.48234z" data-paper-data="{&quot;index&quot;:null}" fill="#23173a" stroke="none" stroke-width="0" stroke-linecap="butt"/><g stroke-linecap="butt"><path d="M192.26722,146.78934c1.57204,0 7.55182,-5.70202 9.89878,2.70316c2.82384,10.11303 6.82336,27.20227 5.99322,40.62011c-0.06765,1.09341 1.84391,5.69576 2.71535,6.44057c1.5347,1.31168 3.47034,-1.21019 3.47034,0.16363c0,1.48144 0.85987,3.15802 0.59906,4.52961c-3.20449,16.85209 -26.37816,25.40304 -29.97455,25.40304c-1.22682,0 -7.34956,-3.16665 -9.99862,-4.64165c-5.74859,-3.20082 -9.86492,-6.77507 -9.86492,-20.24911c0,-19.68314 23.27225,-54.96936 27.16134,-54.96936z" fill="#ffcbb8" stroke="#710000" stroke-width="0.5"/><path d="M206.87047,148.10175c-0.49086,2.57702 -5.06696,3.87027 -10.221,2.88855c-5.15404,-0.98172 -8.93429,-3.86666 -8.44343,-6.44368c0.49086,-2.57702 5.06696,-3.87026 10.221,-2.88854c5.15404,0.98172 8.93429,3.86665 8.44343,6.44367z" fill="#ffddd1" stroke="none" stroke-width="0"/><path d="M214.03826,203.82419c0,0.96523 -3.13343,-3.56501 -6.22826,-1.228c-4.8769,3.68271 -13.01699,13.39502 -17.79183,19.02322c-3.03095,3.57264 -3.95957,4.45478 -4.22992,4.45478c-0.4041,0 4.74136,-5.57817 8.49659,-10.8652c1.38625,-1.95171 3.07152,-3.89782 4.38278,-5.56822c3.6322,-4.62703 5.87063,-9.5908 5.87063,-11.06658c0,-3.45178 1.2835,-30.5 2.25,-30.5c0.4703,0 0.37926,17.92986 2.37941,25.1888c1.47992,5.37091 5.23603,1.87452 5.31747,3.02695c0.03469,0.49089 -0.44688,7.00488 -0.44688,7.53425z" fill="#e1a088" stroke="#710000" stroke-width="0"/></g><path d="M238.35548,279.60167c0,12.42641 -46.58172,40.5 -51,40.5c-4.41828,0 -8,-10.07359 -8,-22.5c0,-3.79446 0.33397,-8.20872 0.92374,-12.51046c1.34166,-9.78593 4.00713,-18.98954 7.07626,-18.98954c2.40852,0 14.37479,12.26228 24.76275,19.97233c8.66811,6.43357 26.23725,-12.12478 26.23725,-6.47233z" fill="#23173a" stroke="none" stroke-width="0" stroke-linecap="butt"/><path d="M181.25375,245.0724l36.03604,3.003" fill="none" stroke="#000000" stroke-width="2" stroke-linecap="round"/><path d="M206.51852,185.37209c-0.2513,8.09689 0.20729,17.21486 -5.16497,24.03262c-3.22207,4.08902 -12.43339,11.48865 -17.46671,12.4404c-6.31378,1.19387 -8.33522,-4.66053 -9.65948,-4.70163c-1.60694,-0.04987 0.55051,-2.04843 3.8268,-5.58904c5.16477,-5.58144 12.76937,-10.16254 16.20091,-21.30439c7.26058,-23.57431 -2.79404,-41.92004 1.34611,-41.79154c4.14014,0.1285 11.50843,17.86893 10.91734,36.91358z" fill="#f7b8a2" stroke="none" stroke-width="0" stroke-linecap="butt"/><path d="M262.98048,144.73279c0,0.62132 -0.50368,1.125 -1.125,1.125c-0.62132,0 -1.125,-0.50368 -1.125,-1.125c0,-0.62132 0.50368,-1.125 1.125,-1.125c0.62132,0 1.125,0.50368 1.125,1.125z" fill="#ffffff" stroke="none" stroke-width="0" stroke-linecap="butt"/><path d="M185.98048,145.98279c0,0.62132 -0.50368,1.125 -1.125,1.125c-0.62132,0 -1.125,-0.50368 -1.125,-1.125c0,-0.62132 0.50368,-1.125 1.125,-1.125c0.62132,0 1.125,0.50368 1.125,1.125z" fill="#ffffff" stroke="none" stroke-width="0" stroke-linecap="butt"/></g></g></svg>