<svg version="1.1" xmlns="http://www.w3.org/2000/svg" xmlns:xlink="http://www.w3.org/1999/xlink" width="297.67588" height="433.86656" viewBox="0,0,297.67588,433.86656"><defs><linearGradient x1="159.8806" y1="144.07871" x2="159.8806" y2="156.07871" gradientUnits="userSpaceOnUse" id="color-1"><stop offset="0" stop-color="#000000"/><stop offset="1" stop-color="#86746e"/></linearGradient><linearGradient x1="60.25337" y1="20.7761" x2="60.25337" y2="20.7786" gradientUnits="userSpaceOnUse" id="color-2"><stop offset="0" stop-color="#000000"/><stop offset="1" stop-color="#86746e"/></linearGradient><linearGradient x1="232.38661" y1="148.40153" x2="232.38661" y2="160.40153" gradientUnits="userSpaceOnUse" id="color-3"><stop offset="0" stop-color="#000000"/><stop offset="1" stop-color="#86746e"/></linearGradient></defs><g transform="translate(-77.21114,34.29526)"><g data-paper-data="{&quot;isPaintingLayer&quot;:true}" fill-rule="nonzero" stroke-linejoin="miter" stroke-miterlimit="10" stroke-dasharray="" stroke-dashoffset="0" style="mix-blend-mode: normal"><path d="M322.32566,93.4783c0.52997,1.17002 -2.15959,15.15298 -2.41353,21.06859c-0.21445,4.99554 0.79238,34.3703 0.17412,81.06414c-0.45242,34.16923 4.12836,92.26507 7.47863,127.69682c2.02458,21.41149 6.59979,34.37238 6.34337,34.80781c-3.15713,5.36122 -29.55003,-2.48295 -40.47319,-41.43398c-19.20442,-68.48127 -38.22999,-200.20338 -58.37369,-200.20338c-31.17213,0 -101.77318,38.87311 -117.74537,29.183c-3.84072,-2.33011 20.33407,-42.32884 20.33407,-46.183c0,-19.88225 56.71403,-55 95.3819,-55c38.66787,0 77.11728,22.11775 89.29369,49z" fill="#23173a" stroke="none" stroke-width="NaN" stroke-linecap="butt"/><path d="M213.2988,399.5713l15.66844,-185.45045l60.93283,-17.73874c0,0 11.97907,95.31395 20.3394,124.56939c7.1019,24.85178 26.66593,39.91709 26.66593,39.91709c0,0 -34.46204,15.19677 -57.18621,22.31198c-16.31624,5.10881 -66.42039,16.39072 -66.42039,16.39072z" fill="#412a6a" stroke="none" stroke-width="0" stroke-linecap="butt"/><g stroke="#000000" stroke-linecap="butt"><path d="M161.76976,157.53712c0,12.55094 -5.33799,-2.05882 -12.7451,-2.05882c-3.63207,0 -9.47182,-0.45547 -18.27827,-7.71586c-9.15307,-7.54616 -21.21193,-22.02481 -21.21193,-28.4214c0,-12.55094 -11.8777,-39.86274 -4.47059,-39.86274c6.48005,0 43.67589,21.20697 48.78189,33.98646c0.73048,1.82828 7.92399,27.50151 7.92399,29.07236z" fill="#ffddd1" stroke-width="0.5"/><path d="M143.06387,122.69398c0,1.95873 -4.92216,8.89684 -6.65932,5.83428c-2.22784,-3.9276 -1.61916,-18.53892 -4.24093,-19.82994c-3.06473,-1.50914 -6.84097,5.05447 -8.47231,5.05447c-0.42309,0 1.40225,1.70266 0.6903,-2.47964c-0.81345,-4.77851 -2.02112,-9.68563 -4.09304,-11.96996c-3.27088,-3.60622 -6.05531,-0.25115 -5.7569,2.38403c0.39705,3.50638 1.22155,10.69146 4.66429,18.4519c2.12001,4.77882 9.28323,13.36124 11.64235,17.09903c3.03601,4.81027 1.04909,4.04156 1.04909,2.59309c0,-3.66519 -10.41924,-3.09254 -15.17815,-13.62366c-4.85855,-10.75163 -4.03795,-32.57242 -1.9591,-32.57242c4.11506,0 28.31373,21.65171 28.31373,29.05883z" fill="#be8571" stroke-width="0"/></g><path d="M318.00617,160.77933c0,24.52692 -10.3658,35.92676 -42.02512,41.36464c-3.41066,0.58582 -32.63599,56.97217 -36.5799,63.21645c-12.32581,19.51513 -10.9053,17.87044 -20.40785,20.87044c-6.72551,2.12327 -15.15592,-0.08356 -24.70629,-0.3561c-6.05888,-0.1729 -7.40765,-1.3762 -18.67962,-4.03049c-0.04932,0.61987 -1.88093,-3.08008 -2.09614,-8.65534c-0.04895,-1.26802 1.16242,0.35833 0.47115,-1.73044c-5.48692,-16.57952 -5.98425,-59.29957 -11.9409,-67.64099c-14.52316,-20.33758 -39.692,-23.17074 -39.692,-44.24848c0,-18.69721 11.27809,-53.53791 29.97084,-74.7185c16.72585,-18.95192 39.58746,-25.37221 62.38431,-25.37221c18.29417,0 44.55808,3.46026 61.42948,17.1387c27.64873,22.41612 41.87206,62.16073 41.87206,84.16232z" fill="#ffddd1" stroke="#003737" stroke-width="0.5" stroke-linecap="butt"/><path d="M189.03226,131.96907c0,7.18239 -4.04087,18.84005 -13.19932,26.25351c-4.57434,3.70277 -13.67765,6.84711 -17.69758,6.84711c-12.06838,0 -27.95082,-17.44495 -27.95082,-28.2147c0,-5.93342 3.58063,3.08516 3.00509,-0.60067c-0.24797,-1.58798 -2.57128,1.76006 -1.54496,0.95381c0.91538,-0.7191 -1.43359,-1.25644 0.91365,-0.59612c4.17597,1.17477 -7.14356,-5.87747 0.26163,-4.04737c10.55875,2.60946 30.97678,-6.01919 44.10867,-7.13318c6.77776,-0.57496 12.10364,4.03088 12.10364,6.53761z" fill="#86746e" stroke="none" stroke-width="0" stroke-linecap="butt"/><g data-paper-data="{&quot;index&quot;:null}" stroke="#000000" stroke-linecap="butt"><path d="M307.70775,122.46475c5.106,-12.77949 42.30184,-33.98646 48.78189,-33.98646c7.40711,0 -4.47059,27.3118 -4.47059,39.86274c0,6.39659 -12.05886,20.87524 -21.21193,28.4214c-8.80644,7.26039 -14.64619,7.71586 -18.27826,7.71586c-7.40711,0 -16.7451,-5.39024 -16.7451,-17.94118c0,-1.57085 11.19351,-22.24408 11.92399,-24.07236z" fill="#ffddd1" stroke-width="0.5"/><path d="M346.80336,102.63517c2.07885,0 2.89944,21.8208 -1.95911,32.57242c-4.75891,10.53112 -15.17815,9.95847 -15.17815,13.62366c0,1.44848 -1.98692,2.21719 1.04909,-2.59309c2.35911,-3.73779 9.52233,-12.3202 11.64234,-17.09903c3.44274,-7.76044 4.26723,-14.94552 4.66429,-18.4519c0.29841,-2.63518 -2.48602,-5.99025 -5.7569,-2.38403c-2.07191,2.28433 -3.27959,7.19145 -4.09303,11.96996c-0.71195,4.1823 1.11338,2.47964 0.69029,2.47964c-1.63133,0 -5.40758,-6.56361 -8.47231,-5.05447c-2.62176,1.29102 -2.01308,15.90233 -4.24093,19.82994c-1.73717,3.06256 -6.65932,-3.87555 -6.65932,-5.83428c0,-7.40712 24.19866,-29.05882 28.31373,-29.05882z" fill="#be8571" stroke-width="0"/></g><path d="M374.88702,-6.60388c0,12.56121 -26.12886,21.08285 -51.74017,29.57743c-5.53774,1.83672 -11.1323,5.88105 -16.38799,10.54685c-11.30551,10.0366 -21.04296,22.94888 -25.27368,22.94888c-11.70163,0 -15.78179,20.09182 -11.49639,7.37392c1.31543,-3.90386 -8.38885,-9.85408 -8.38885,-14.81433c0,-21.11964 50.52258,-83.32413 65.81612,-83.32413c15.29354,0 47.47096,6.57176 47.47096,27.6914z" fill="#23173a" stroke="none" stroke-width="0" stroke-linecap="butt"/><path d="M301.15125,183.65768c0.25962,2.70153 12.13197,7.04354 9.43172,9.25114c-2.08862,1.70755 -9.41582,-2.44424 -16.54169,-3.14374c-2.15755,-0.21179 9.34929,10.39337 7.37964,10.51667c-0.34013,0.02129 -4.24175,-0.18374 -8.22341,-2.16623c-3.36186,-1.67389 -6.92587,-5.21675 -6.97716,-4.84625c-0.43445,3.13792 5.6431,10.5678 4.18508,10.68683c-1.80998,0.14776 -6.37499,-2.14656 -9.75086,-4.77534c-0.98284,-0.76534 -1.65936,-3.05122 -3.11764,-3.4644c-2.33733,-0.66224 4.16404,11.89181 2.11565,10.49521c-1.68139,-1.14638 -11.58574,-10.58041 -12.0835,-10.11847c-1.9824,1.83979 3.65472,11.44543 -0.68917,11.277c-4.11656,-0.15961 -10.74209,-7.58661 -16.66665,-10.29176c-6.12012,-2.79444 -23.77477,-2.14002 -23.91396,-3.58848c-0.11876,-1.23587 16.46498,-3.48584 23.32249,-5.65755c9.40004,-2.9769 21.89172,-6.21622 27.98236,-10.23567c2.65378,-1.75133 7.2429,-6.34953 9.57841,-10.24481c1.61358,-2.69122 0.96274,-4.92517 2.7147,-6.15065c2.49318,-1.74393 1.75108,3.11114 2.48256,-2.09153c0.83204,-5.91794 2.59919,-11.89336 3.88049,-18.35486c1.05128,-5.30157 1.55526,-11.74226 2.81923,-11.84545c0.54729,-0.04468 3.44148,4.32878 7.83058,6.54717c4.07521,2.05973 9.67151,1.91898 10.04065,3.26232c0.38724,1.40923 -15.93112,5.07979 -15.08157,6.38175c0.26976,0.41342 6.9464,-2.94785 14.37602,-3.30094c9.30644,-0.4423 22.48984,2.37872 23.04706,2.75481c0.26585,0.17944 -9.65223,1.37979 -15.76502,3.07455c-5.40701,1.49907 -11.14681,1.65682 -10.8538,1.73355c2.60985,0.6834 -1.30522,0.20813 1.60201,0.51564c3.40451,0.36012 9.61911,-1.03667 13.04367,-0.95932c12.73214,0.28754 21.46191,1.66202 20.83173,6.22593c-0.07329,0.53078 -2.44774,0.10882 -5.64691,0.20151c-7.95275,0.23041 -21.00201,0.42405 -16.46737,2.79788c-1.19243,-1.47145 -4.24675,-1.15567 -2.7434,-1.17201c1.17204,-0.01274 0.80087,-1.3597 2.22667,-1.4744c2.57446,-0.20712 7.19968,0.79554 10.33448,1.0067c7.15722,0.48211 12.45124,1.95702 13.47487,2.46016c4.76959,2.3444 -15.04186,3.65452 -12.29271,5.36881c1.56961,0.97876 5.12474,0.01359 6.56387,0.84583c6.40597,3.70453 8.92027,7.96674 6.44612,10.35909c-0.22118,0.21387 -11.56491,-3.72585 -11.87466,-2.83544c-0.24198,0.6956 1.36544,2.55919 2.55039,5.06227c2.1003,4.43667 4.31657,10.21734 2.85048,10.31935c-1.49135,0.10377 -6.53624,-4.43017 -8.32629,-5.12536c-11.34816,-4.40716 -25.00451,-9.96602 -20.23199,-6.27001c1.84126,1.42595 4.52872,-0.09133 6.05129,1.05387c10.20385,7.67483 8.09671,10.02098 7.63378,10.55081c-3.2675,0.12814 -6.27751,1.18348 -13.12567,-0.64535c-7.54765,-2.01562 -14.43687,-4.1396 -14.42258,-3.99082z" fill="#23173a" stroke="none" stroke-width="0" stroke-linecap="butt"/><path d="M274.34948,42.4783c0,0.79958 26.75722,17.95615 39.40983,32.99651c4.93757,5.86937 -2.81596,32.04586 -3.3324,32.3619c-1.15376,0.70607 -7.16905,39.10355 -9.88873,37.75114c-3.39849,-1.68995 -16.35259,-50.35673 -19.26121,-57.79963c-2.56185,-6.55554 -11.86422,-12.93741 -17.54624,-14.90877c-13.10579,-4.54702 -30.49997,-3.33539 -35.26081,-1.57538c-6.02421,2.22706 -20.79348,16.67423 -22.12043,16.67423c-1.10912,0 -1.25202,-11.27879 -6.12873,-15.86307c-2.87833,-2.70573 -10.48993,-6.68582 -18.72903,-3.73918c-3.45793,1.2367 -12.70945,-0.67255 -19.12382,4.71041c-7.14006,5.99196 -11.36237,19.22644 -12.6592,18.41146c-2.05263,-1.28996 -14.55025,10.36862 -10.82563,-0.05094c2.28068,-6.38013 21.26975,-35.66474 21.28375,-36.4162c0.06108,-3.27937 34.28916,-16.46652 36.18264,-17.55248c13,-7.45584 31.58172,-5.5 36,-5.5c4.41828,0 33,1.04416 33,8.5z" fill="#23173a" stroke="none" stroke-width="0" stroke-linecap="butt"/><path d="M278.72908,154.23376c-5.45469,10.46359 -23.53745,15.53563 -43.91094,14.63143c-8.38412,-0.3721 -28.95751,-2.90418 -34.54497,-9.19144c-7.99014,-8.99087 -4.93413,-17.88935 -4.67814,-23.7136c0.22529,-5.12586 0.74691,-11.68067 4.03985,-11.0478c3.06513,0.58909 10.86476,5.747 20.72827,5.23355c15.82998,-0.82404 60.73254,-1.24248 65.63025,5.82538c1.38568,1.99966 0.1145,5.59031 -0.93098,7.59582z" fill="#86746e" stroke="none" stroke-width="0" stroke-linecap="butt"/><path d="M265.77555,149.8885c5.19181,2.12562 4.37958,-0.52556 10.26317,3.25514c1.33599,0.85848 -4.55953,4.6244 -7.78413,4.39199c-7.84168,0.47965 -20.2444,4.76496 -39.51438,3.83302c-7.99265,-0.38655 -24.64718,-3.85559 -23.32216,-4.5308c3.3254,-1.6946 1.78145,-1.38888 4.95735,-3.98805c0.12064,-0.09874 3.51017,-5.30707 3.63984,-5.40264c3.79413,-2.79646 7.35669,-4.64871 21.44981,-3.55904c8.8769,0.68636 7.9333,1.59815 19.64382,3.28254z" data-paper-data="{&quot;index&quot;:null}" fill="#ffffff" stroke="#200000" stroke-width="0.5" stroke-linecap="butt"/><path d="M144.16345,143.59166c3.53905,-1.89542 7.02024,-1.83897 11.79336,-1.82883c7.57789,0.01611 13.2117,3.11536 15.98414,5.41743c0.09475,0.07867 2.15947,1.40435 2.24996,1.48485c2.38192,2.11911 5.16175,5.01436 7.41241,6.46955c1.22583,0.79257 -16.99856,2.28291 -24.90663,1.45962c-11.82547,-1.23112 -12.49458,-5.78411 -16.28758,-6.47637c-2.41023,-0.4399 -0.73583,-0.64054 -0.19645,-1.20061c2.37535,-2.46649 1.56782,-4.04936 3.9508,-5.32562z" data-paper-data="{&quot;index&quot;:null}" fill="#ffffff" stroke="#200000" stroke-width="0.5" stroke-linecap="butt"/><path d="M165.3806,150.07871c0,3.31371 -2.46243,6 -5.5,6c-3.03757,0 -5.5,-2.68629 -5.5,-6c0,-3.31371 2.46243,-6 5.5,-6c3.03757,0 5.5,2.68629 5.5,6z" fill="url(#color-1)" stroke="none" stroke-width="0" stroke-linecap="butt"/><path d="M146.03225,56.5697z" fill="url(#color-2)" stroke="none" stroke-width="0" stroke-linecap="butt"/><path d="M237.88661,154.40153c0,3.31371 -2.46244,6 -5.5,6c-3.03757,0 -5.5,-2.68629 -5.5,-6c0,-3.31371 2.46243,-6 5.5,-6c3.03756,0 5.5,2.68629 5.5,6z" fill="url(#color-3)" stroke="none" stroke-width="0" stroke-linecap="butt"/><path d="M229.19892,100.90303c0,2.76142 -2.79822,5 -6.25,5c-3.45178,0 -19.25,6.26142 -19.25,3.5c0,-2.76142 15.79822,-13.5 19.25,-13.5c3.45178,0 6.25,2.23858 6.25,5z" fill="#23173a" stroke="none" stroke-width="0" stroke-linecap="butt"/><path d="M169.20891,96.64906c2.29725,1.39978 8.45664,14.95315 7.33682,16.79095c-1.11982,1.8378 -9.0948,-8.7359 -11.39206,-10.13568c-2.29725,-1.39978 -3.25175,-4.02436 -2.13192,-5.86216c1.11982,-1.8378 3.88991,-2.19289 6.18716,-0.79311z" data-paper-data="{&quot;index&quot;:null}" fill="#23173a" stroke="none" stroke-width="0" stroke-linecap="butt"/><path d="M111.84648,168.26691c0.05346,-0.12761 -5.73044,0.31154 -11.97772,0.51942c-5.6683,0.18862 -7.62594,-1.36006 -10.04316,-2.14829c-0.19555,-0.56071 -1.10449,-3.05544 8.76249,-7.6804c1.47231,-0.69012 3.05507,1.19724 4.84733,0.32666c4.6455,-2.25651 -7.20695,-0.20253 -16.99518,1.3181c-1.54399,0.23986 -6.63463,3.17539 -7.72489,2.77589c-1.0718,-0.39273 2.25238,-5.00739 5.10359,-8.46655c1.6086,-1.95159 3.35089,-3.25461 3.36887,-3.91509c0.02301,-0.84547 -9.6277,0.26586 -9.73241,0.03244c-1.17131,-2.61118 1.94074,-5.83163 7.81548,-7.75778c1.31978,-0.43272 3.71272,1.14957 5.17257,0.61524c2.55691,-0.93585 -11.94611,-6.18298 -7.69087,-7.25393c0.91325,-0.22984 5.31272,-0.42929 10.82648,0.62786c2.41498,0.46302 6.17657,0.53969 8.05063,1.25389c1.03789,0.39554 0.37241,1.50085 1.249,1.75443c1.12439,0.32526 -1.07886,-0.58355 -2.39689,0.46115c4.08723,-1.14539 -5.65766,-4.01415 -11.56434,-5.86114c-2.37609,-0.74299 -4.28054,-0.86377 -4.1832,-1.34473c0.83705,-4.13554 7.78807,-3.53628 17.43296,-1.15538c2.59418,0.64039 6.86056,3.15148 9.52088,3.53956c2.27173,0.3314 -0.80509,-0.06122 1.35122,-0.1212c0.24209,-0.00673 -4.02343,-1.33226 -7.6539,-3.7661c-4.10436,-2.75153 -11.2086,-5.85618 -10.95741,-5.95867c0.52647,-0.21481 11.23765,0.03608 18.10016,2.34899c5.47855,1.84646 9.52792,6.1771 9.84921,5.87008c1.01185,-0.96687 -10.19001,-7.56303 -9.49457,-8.71966c0.66292,-1.10255 4.82554,0.17839 8.47755,-0.78637c3.93331,-1.03907 21.02928,-27.27857 21.42748,-27.12616c0.91967,0.35197 -14.21767,29.10843 -14.95025,33.97843c-0.89285,5.93549 -1.28125,11.5449 -2.35546,16.91047c-0.94436,4.71706 -0.10778,0.30285 1.264,2.34893c0.96396,1.43779 -0.16625,3.26367 0.27294,5.95915c0.63568,3.90146 2.76211,8.88588 4.25237,10.97166c3.42029,4.78706 11.87199,10.21334 18.07709,14.76992c4.52674,3.32412 16.33578,8.72847 15.89175,9.78849c-0.52041,1.24235 -13.59183,-2.98326 -18.99059,-1.79667c-5.22624,1.14869 -12.33463,6.29621 -15.47215,5.5849c-3.31079,-0.75059 3.68077,-8.01448 2.72014,-10.03904c-0.2412,-0.50833 -10.38835,5.7224 -11.98027,6.3807c-1.93939,0.80199 6.54777,-8.87062 4.6022,-8.77286c-1.21384,0.061 -2.37823,1.92714 -3.33612,2.39552c-3.29016,1.60878 -7.37738,2.67811 -8.69432,2.1741c-1.06086,-0.40601 5.6368,-5.66939 6.21145,-8.51302c0.06785,-0.33575 -3.62604,2.0363 -6.63153,2.80998c-3.55956,0.91632 -6.5487,0.28933 -6.79804,0.20029c-1.44388,-0.51557 10.24304,-7.44265 8.56183,-7.703c-5.55263,-0.8599 -12.24766,1.26824 -13.32605,-0.66224c-1.39418,-2.49581 8.76906,-3.85086 9.73967,-6.16799z" data-paper-data="{&quot;index&quot;:null}" fill="#23173a" stroke="none" stroke-width="0" stroke-linecap="butt"/><g stroke-linecap="butt"><path d="M184.3241,134.40488c1.55208,-0.24971 6.55022,-6.82918 10.20248,1.09649c4.39437,9.53609 11.0576,25.77307 12.36932,39.15242c0.10689,1.09027 2.72523,5.33056 3.70391,5.92749c1.72357,1.05125 3.23405,-1.74606 3.45227,-0.38968c0.23532,1.46263 1.35058,2.98134 1.31095,4.37695c-0.48698,17.14714 -26.00818,31.60382 -29.55891,32.17508c-0.7457,0.11997 -4.3314,-0.20135 -5.8489,-1.73263c-0.94738,-0.95599 0.33523,-3.19722 -0.76006,-3.59521c-6.18403,-2.24706 -10.81584,-5.12209 -12.95609,-18.42506c-3.12652,-19.43324 14.24532,-57.96809 18.08503,-58.58584z" fill="#ffcbb8" stroke="#710000" stroke-width="0.5"/><path d="M197.28374,133.04768c-0.07529,2.62227 -2.7212,4.62598 -7.96574,4.4754c-5.24454,-0.15058 -7.43505,-1.73176 -7.35976,-4.35403c0.07529,-2.62227 -4.2788,-9.9593 0.96574,-9.80873c3.52604,0.10124 9.92245,-2.40675 13.4944,0.44934c0.59335,0.47443 2.41257,-1.06787 2.79434,0.2423c0.73835,2.53385 -1.91272,8.42932 -1.92899,8.99571z" fill="#ffddd1" stroke="none" stroke-width="0"/><path d="M214.87828,187.25745c0.15332,0.95298 -3.65992,-3.02203 -6.34424,-0.2231c-4.23001,4.41061 -10.72403,15.29261 -14.54425,21.6078c-2.42498,4.00872 -10.86836,3.3605 -11.13528,3.40345c-0.39897,0.06419 8.79511,-3.92714 11.66286,-9.74354c1.05864,-2.14713 5.08005,-5.00289 6.10933,-6.86036c1.39438,-2.51635 0.1135,-2.39261 0.79754,-4.50467c0.71463,-2.20652 2.36049,-9.94279 2.24072,-10.68724c-0.54829,-3.40796 -2.57749,-26.98331 -1.62326,-27.13683c0.46433,-0.0747 3.22247,17.64198 6.35025,24.49105c2.31426,5.06765 5.46731,1.01902 5.73077,2.14388c0.05695,0.24313 0.89566,2.70522 1.06232,4.48326c0.16178,1.72596 -0.34819,2.76888 -0.30677,3.02632z" fill="#e1a088" stroke="#710000" stroke-width="0"/></g><path d="M241.68281,262.43051c0,8.58959 -14.77583,32.33351 -31.94653,43.50119c-7.66985,4.98841 -22.52369,8.32089 -23.72014,7.66548c-6.08495,-3.33333 -12.66667,-8.07359 -12.66667,-20.5c0,-3.79446 -0.99936,-16.87539 -0.40959,-21.17713c0.33852,-2.46912 4.33427,10.38973 5.68335,8.06977c3.99776,-6.8748 9.4315,-19.05931 11.72625,-19.05931c1.78645,0 3.21308,13.11285 8.41409,19.9332c1.81108,2.37496 5.33233,0.04779 8.01532,2.03913c14.66811,-2.2331 34.90392,-26.12478 34.90392,-20.47233z" fill="#23173a" stroke="none" stroke-width="0" stroke-linecap="butt"/><path d="M239.95046,221.23757c0,0 -2.2794,4.97345 -7.52469,9.8997c-3.96607,3.72483 -9.81768,8.08936 -13.45577,9.58989c-1.51679,0.6256 -9.87172,3.65101 -13.14117,4.2927c-4.98052,0.97752 -14.86352,0.80013 -16.55684,0.50195c-10.15303,-1.78787 -9.36596,-3.34095 -10.72923,-4.00691c-1.81626,-0.88725 -2.7248,-3.9282 -3.53245,-6.04142c-1.11334,-2.91305 -1.42923,-5.90557 -1.42923,-5.90557" fill="none" stroke="#000000" stroke-width="2" stroke-linecap="round"/><path d="M203.84585,175.8676c-0.2513,8.09689 -1.12604,16.21486 -6.4983,23.03262c-3.22207,4.08902 -5.76672,11.82198 -10.80004,12.77373c-6.31378,1.19387 -12.00189,-4.66053 -13.32615,-4.70163c-1.60694,-0.04987 -8.78282,-12.04843 -5.50653,-15.58904c5.16477,-5.58144 20.43604,0.50413 23.86758,-10.63772c7.26058,-23.57431 -2.79404,-41.92004 1.34611,-41.79154c4.14014,0.1285 11.50843,17.86893 10.91734,36.91358z" fill="#f7b8a2" stroke="none" stroke-width="0" stroke-linecap="butt"/><path d="M230.97448,154.56163c0,0.62132 -0.50368,1.125 -1.125,1.125c-0.62132,0 -1.125,-0.50368 -1.125,-1.125c0,-0.62132 0.50368,-1.125 1.125,-1.125c0.62132,0 1.125,0.50368 1.125,1.125z" fill="#ffffff" stroke="none" stroke-width="0" stroke-linecap="butt"/><path d="M157.97448,150.14496c0,0.62132 -0.50368,1.125 -1.125,1.125c-0.62132,0 -1.125,-0.50368 -1.125,-1.125c0,-0.62132 0.50368,-1.125 1.125,-1.125c0.62132,0 1.125,0.50368 1.125,1.125z" fill="#ffffff" stroke="none" stroke-width="0" stroke-linecap="butt"/><path d="M293.84948,135.43496c0,1.40826 -1.12595,5.02107 -16.95749,4.55525c-9.00342,-0.26491 -32.23504,-4.55525 -39.04251,-4.55525c-18.77768,0 -37,-5.79086 -37,-8c0,-1.26591 -8.00152,-3.39446 -0.19986,-4.12741c5.81305,-0.54611 25.18238,3.12741 33.19986,3.12741c6.04938,0 40.39788,7.34291 46.69108,3.4948c7.69077,-4.70268 -6.70103,-18.69063 0.17774,-17.63778c4.96452,0.75986 13.13117,22.51527 13.13117,23.14298z" fill="#23173a" stroke="none" stroke-width="0" stroke-linecap="butt"/><path d="M180.63842,125.46511c0.23431,1.6402 -10.88326,5.63283 -22.36468,7.27303c-5.08221,0.72603 -23.43993,9.13311 -30.82635,5.5034c-9.30053,-4.57031 8.41041,-24.25589 8.27981,-25.17007c-0.1352,-0.94637 -11.16296,16.09499 -2.47061,19.08638c6.37279,2.19314 32.97847,-8.66558 37.83529,-9.35942c11.48141,-1.6402 9.31222,1.02646 9.54654,2.66667z" fill="#23173a" stroke="none" stroke-width="0" stroke-linecap="butt"/></g></g></svg>