<svg version="1.1" xmlns="http://www.w3.org/2000/svg" xmlns:xlink="http://www.w3.org/1999/xlink" width="339.66801" height="384.11473" viewBox="0,0,339.66801,384.11473"><defs><linearGradient x1="188.08499" y1="103.3331" x2="183.51493" y2="114.42881" gradientUnits="userSpaceOnUse" id="color-1"><stop offset="0" stop-color="#000000"/><stop offset="1" stop-color="#86746e"/></linearGradient><linearGradient x1="136.38737" y1="-31.83493" x2="136.38642" y2="-31.83262" gradientUnits="userSpaceOnUse" id="color-2"><stop offset="0" stop-color="#000000"/><stop offset="1" stop-color="#86746e"/></linearGradient><linearGradient x1="249.81724" y1="141.4464" x2="245.24719" y2="152.5421" gradientUnits="userSpaceOnUse" id="color-3"><stop offset="0" stop-color="#000000"/><stop offset="1" stop-color="#86746e"/></linearGradient></defs><g transform="translate(-106.05867,-33.92918)"><g data-paper-data="{&quot;isPaintingLayer&quot;:true}" fill-rule="nonzero" stroke-linejoin="miter" stroke-miterlimit="10" stroke-dasharray="" stroke-dashoffset="0" style="mix-blend-mode: normal"><path d="M351.04464,135.2047c0.03734,1.28076 -7.73874,13.20054 -10.22303,18.57505c-2.06955,4.47727 -14.73012,27.94743 -19.24936,60.88436c-1.02141,7.44422 -2.82165,46.52005 -2.04275,53.8811c0.36807,3.47851 -1.47872,19.6731 0.01538,28.54845c3.70769,22.02455 12.49919,45.44575 13.48835,57.45413c1.65112,20.04447 -4.82488,3.91518 -6.06636,8.80298c-5.64658,22.23104 -33.64806,-64.33107 -34.2684,-63.85532c-13.56638,10.40444 -1.13594,-163.91552 -29.9323,-175.77606c-28.40547,-11.69954 -107.54471,-2.25384 -118.40894,-17.20841c-2.61245,-3.59602 34.64976,-31.50723 36.11757,-35.07094c7.57191,-18.38396 72.62649,-29.56937 107.86242,-15.05653c35.23593,14.51284 61.8495,49.39468 62.70742,78.82119z" fill="#23173a" stroke="none" stroke-width="NaN" stroke-linecap="butt"/><path d="M206.78005,417.42275c0,0 4.92763,-149.11041 8.95661,-180.81836c2.72997,-21.4848 23.38616,-30.03983 23.38616,-30.03983l56.29151,-30.4772c0,0 -3.50697,74.80648 -1.49891,102.55776c0.79077,10.92835 7.76633,41.87773 17.78602,57.21863c15.55662,23.81836 36.33336,31.19108 36.33336,31.19108c0,0 -71.5485,37.22228 -92.64987,44.7465c-25.2388,8.99953 -48.60488,5.62142 -48.60488,5.62142z" fill="#412a6a" stroke="none" stroke-width="0" stroke-linecap="butt"/><g stroke="#000000" stroke-linecap="butt"><path d="M178.16989,133.28132c-4.77987,11.60512 -4.15165,-3.93658 -11.00058,-6.75749c-3.35836,-1.38323 -8.58458,-4.02837 -13.96236,-14.09547c-5.58945,-10.46333 -11.22555,-28.44337 -8.78949,-34.35792c4.77987,-11.60512 4.19863,-41.38223 11.04755,-38.56133c5.99173,2.46785 32.30814,36.24229 32.16244,50.0033c-0.02085,1.9687 -3.14677,28.4468 -3.745,29.89928z" fill="#ffddd1" stroke-width="0.5"/><path d="M174.14322,93.93999c-0.74596,1.81112 -7.93949,6.35185 -8.3794,2.8585c-0.56417,-4.48007 5.56318,-17.7585 3.63065,-19.9507c-2.25904,-2.56258 -8.25038,2.06827 -9.75879,1.447c-0.39121,-0.16113 0.64814,2.10838 1.58262,-2.02989c1.06769,-4.7282 1.81984,-9.72546 0.77402,-12.62671c-1.65101,-4.58014 -5.50335,-2.53832 -6.231,0.01193c-0.96823,3.39336 -2.94222,10.35098 -2.71439,18.83774c0.14029,5.22608 3.4952,15.88977 4.25304,20.24433c0.97529,5.604 -0.56915,4.13653 -0.01751,2.79721c1.39584,-3.38899 -8.45631,-6.82753 -8.84595,-18.37742c-0.39779,-11.79173 8.67116,-31.65563 10.59335,-30.86392c3.80496,1.56717 17.93427,30.80302 15.11335,37.65195z" fill="#be8571" stroke-width="0"/></g><path d="M321.39785,195.77995c-9.34078,22.67862 -23.26692,29.27169 -54.61141,22.24272c-3.37674,-0.75724 -51.87376,40.24983 -57.89853,44.52156c-18.82906,13.35037 -16.88924,12.3706 -26.81821,11.5256c-7.02731,-0.59807 -13.98197,-5.84921 -22.70885,-9.73836c-5.53645,-2.46732 -6.32531,-4.09361 -15.73699,-10.84067c-0.28167,0.55437 -0.56618,-3.5643 1.3581,-8.80138c0.43765,-1.19111 0.93836,0.77402 1.09466,-1.42061c1.24067,-17.41974 17.05024,-57.10989 14.7192,-67.09123c-5.6834,-24.33595 -27.87659,-36.54085 -19.84938,-56.03021c13.49197,-32.75735 73.49049,-57.43061 118.12713,-39.04584c44.63664,18.38477 75.81626,81.92108 62.32429,114.67843z" fill="#ffddd1" stroke="#003737" stroke-width="0.5" stroke-linecap="butt"/><path d="M201.74872,129.23899c-5.52119,13.40498 -24.19408,21.66891 -34.02439,17.62003c-9.83031,-4.04887 -10.95704,-22.63079 -5.43585,-36.03577c3.04181,-7.38526 5.00292,-16.20094 6.42368,-20.98174c0.6121,-2.05974 -1.86211,-2.19777 -0.61279,-2.85698c1.11427,-0.58795 -0.20199,-3.74255 1.37144,-2.13317c2.79929,2.86323 -0.08665,-3.18484 5.00705,1.57746c11.01147,10.29507 31.04583,33.64488 27.27087,42.81017z" fill="#86746e" stroke="none" stroke-width="0" stroke-linecap="butt"/><g data-paper-data="{&quot;index&quot;:null}" stroke="#000000" stroke-linecap="butt"><path d="M326.46714,156.43067c9.58814,-9.87189 52.05738,-15.31516 58.04911,-12.84731c6.84892,2.82091 -14.53506,23.55106 -19.31494,35.15619c-2.43606,5.91455 -19.10021,14.70965 -30.43738,18.20131c-10.90783,3.35943 -16.48097,1.55658 -19.83934,0.17335c-6.84892,-2.82091 -13.43041,-11.36121 -8.65054,-22.96633c0.59824,-1.45247 18.82138,-16.30489 20.19309,-17.7172z" fill="#ffddd1" stroke-width="0.5"/><path d="M370.16843,152.98449c1.92219,0.7917 -5.62924,21.28064 -14.21629,29.37172c-8.41094,7.92514 -17.82692,3.4276 -19.22276,6.81659c-0.55164,1.33933 -2.68158,1.29341 1.95758,-1.99815c3.60482,-2.55768 13.49674,-7.76531 17.27695,-11.37663c6.13877,-5.8645 9.63748,-12.19413 11.33998,-15.28506c1.2795,-2.32295 -0.01736,-6.48561 -4.41514,-4.39682c-2.78573,1.32313 -5.77122,5.40052 -8.3432,9.50914c-2.25108,3.59599 0.08514,2.7168 -0.30607,2.55567c-1.5084,-0.62127 -2.5004,-8.1284 -5.90892,-7.90015c-2.91586,0.19527 -7.91759,13.9373 -11.47333,16.72048c-2.7726,2.17019 -4.68153,-6.11962 -3.93557,-7.93074c2.82091,-6.84893 33.44179,-17.65323 37.24676,-16.08606z" fill="#be8571" stroke-width="0"/></g><path d="M444.27031,78.35427c-4.78379,11.61462 -32.18899,9.54322 -59.10533,7.64391c-5.81992,-0.41067 -12.53312,1.19826 -19.16966,3.51089c-14.27587,4.97469 -28.197,13.20554 -32.10891,11.59432c-10.81982,-4.45642 -22.24423,12.56743 -13.43831,2.43997c2.70304,-3.10871 -4.00387,-12.30629 -2.11482,-16.89274c8.04316,-19.5281 78.44828,-57.80406 92.58932,-51.9797c14.14105,5.82436 41.39086,24.15527 33.3477,43.68337z" fill="#23173a" stroke="none" stroke-width="0" stroke-linecap="butt"/><path d="M296.06322,214.43205c-0.86684,2.77902 8.21853,11.56146 4.84605,12.73508c-2.60859,0.90778 -7.61401,-5.97341 -13.84649,-9.35242c-1.88705,-1.02309 4.30372,13.83766 2.45158,13.21795c-0.31983,-0.10702 -3.80505,-1.7805 -6.63689,-5.24823c-2.39103,-2.92793 -4.20298,-7.78693 -4.40135,-7.43855c-1.68012,2.95063 0.84217,12.61442 -0.54021,12.18322c-1.71608,-0.53529 -4.95408,-4.53229 -6.96759,-8.41321c-0.5862,-1.12988 -0.27064,-3.65346 -1.4357,-4.61295c-1.86738,-1.53788 -1.05203,13.37121 -2.3549,11.21335c-1.06944,-1.77124 -6.27307,-14.86591 -6.91723,-14.59498c-2.56547,1.07905 -1.33546,12.73629 -5.2402,10.93251c-3.7004,-1.70939 -6.72514,-11.57678 -11.03884,-16.49375c-4.4561,-5.07926 -20.87327,-11.08143 -20.4085,-12.57143c0.39656,-1.27132 16.48634,2.74382 23.64702,3.17212c9.81562,0.5871 22.56659,2.07859 29.78109,0.38413c3.14346,-0.7383 9.22102,-3.57288 12.94973,-6.55892c2.57614,-2.06303 2.89397,-4.52539 4.99753,-5.08157c2.99353,-0.79146 0.33004,3.74747 3.1259,-1.14045c3.18023,-5.55993 7.23936,-10.8246 11.05274,-16.75473c3.12883,-4.8656 6.22265,-11.06795 7.42105,-10.69414c0.5189,0.16186 1.3786,5.59284 4.48672,9.4482c2.88584,3.57963 8.06262,5.54843 7.85116,7.02074c-0.22183,1.54453 -16.64956,-0.96072 -16.40464,0.65153c0.07777,0.51195 7.55926,-0.3085 14.49987,2.14028c8.69391,3.06737 19.6003,10.83422 19.95628,11.41742c0.16984,0.27825 -9.39344,-2.26721 -15.67793,-2.8883c-5.55887,-0.54938 -10.87386,-2.55538 -10.63719,-2.36883c2.10801,1.66156 -1.27903,-0.2852 1.25466,1.11534c2.96708,1.64011 9.22289,2.59528 12.3239,3.9623c11.52924,5.0824 18.95298,9.73562 16.51088,14.02777c-0.28402,0.49917 -2.28356,-0.81422 -5.2479,-1.92757c-7.369,-2.76765 -19.38501,-7.49197 -16.20731,-3.42751c-0.48929,-1.90965 -3.41232,-2.747 -2.03044,-2.19681c1.07734,0.42895 1.28842,-1.04773 2.63956,-0.62438c2.43966,0.76441 6.26074,3.50214 9.04199,4.89281c6.35002,3.17508 10.58984,6.63349 11.32054,7.51852c3.40467,4.12378 -15.25349,-2.04023 -13.43946,0.69695c1.03572,1.56277 4.68232,1.94432 5.65857,3.3125c4.34556,6.09021 4.90323,11.26766 1.66205,12.70983c-0.28975,0.12893 -9.05601,-8.05508 -9.70333,-7.28807c-0.5057,0.5992 0.2029,3.05439 0.26364,5.98508c0.10765,5.19461 -0.22802,11.76681 -1.61083,11.31567c-1.40663,-0.4589 -4.1681,-6.85947 -5.52138,-8.22385c-8.57923,-8.64959 -18.79909,-19.31187 -15.94426,-13.84555c1.1014,2.10894 4.18,1.61562 5.10464,3.32586c6.19671,11.46154 3.31015,12.99615 2.6701,13.34757c-3.04134,-1.10391 -6.22616,-1.19058 -11.74296,-5.58579c-6.08031,-4.84415 -11.51401,-9.54777 -11.56176,-9.39472z" fill="#23173a" stroke="none" stroke-width="0" stroke-linecap="butt"/><path d="M297.03633,95.65597c-0.30451,0.73933 23.66818,25.92344 29.63938,44.64897c2.3302,7.30748 -8.22573,20.45461 -8.82361,20.55016c-1.33571,0.21347 -21.52092,33.42653 -23.5206,31.14028c-2.49879,-2.85687 4.05746,-52.78962 4.20257,-60.77935c0.1278,-7.03718 -6.0431,-16.48082 -10.54616,-20.46755c-10.38648,-9.19555 -26.9313,-14.69959 -32.00365,-14.88532c-6.41839,-0.23501 -25.5767,7.49874 -26.80365,6.99339c-1.02554,-0.42239 3.13772,-10.90566 0.37438,-17.00171c-1.63098,-3.59801 -7.15321,-10.17695 -15.89362,-10.59013c-3.66833,-0.17341 -11.16962,-1.00187 -19.15065,1.53261c-8.88396,2.82121 -18.15421,8.99011 -19.04294,7.74266c-2.26802,-3.18347 37.94556,-22.75188 38.73319,-24.56743c1.30539,-3.00898 36.53367,16.81053 37.36495,14.79223c2.83947,-6.89398 8.45312,-11.11861 12.53845,-9.43596c4.08533,1.68265 35.77143,23.43316 32.93197,30.32714z" fill="#23173a" stroke="none" stroke-width="0" stroke-linecap="butt"/><path d="M281.90644,170.77601c-7.41735,11.63096 -27.22814,18.72187 -47.16187,14.37163c-19.93374,-4.35024 -25.692,-26.78916 -23.33937,-38.54862c2.35264,-11.75947 18.64049,-8.87449 39.04234,-6.86407c15.78495,1.55546 44.37005,-0.38913 47.83081,8.84452c0.97913,2.61241 -14.95026,19.96728 -16.37191,22.19654z" fill="#86746e" stroke="none" stroke-width="0" stroke-linecap="butt"/><path d="M270.87941,172.69676c-10.29285,7.00658 -13.21109,7.13621 -22.89596,8.12054c-15.37586,1.56272 -25.43952,-7.80643 -27.30987,-14.80852c-0.06392,-0.2393 -2.09257,-4.17169 -2.14483,-4.41793c-1.37583,-6.48186 -2.29114,-15.43894 -4.48591,-19.75889c-2.98294,-5.87129 72.09095,3.04369 83.06662,5.50444c4.17947,0.93704 0.92211,-0.29564 -1.09008,1.66671c-8.86152,8.64209 -18.20937,18.97585 -25.13996,23.69365z" fill="#ffffff" stroke="#200000" stroke-width="0.5" stroke-linecap="butt"/><path d="M171.39408,89.91113c0.70018,-2.27156 -1.21799,-3.20888 0.79707,-1.60568c5.29174,4.2102 36.00846,37.92729 30.96975,40.01578c-3.70737,1.53665 -10.20565,6.62379 -15.14146,9.93206c-0.1875,0.12567 -3.57234,1.5084 -3.75885,1.62366c-5.45753,3.37293 -15.23223,3.93238 -19.17815,-5.07881c-2.48543,-5.67592 -3.34988,-7.28244 -1.86623,-17.01839c0.999,-6.5556 5.09431,-17.86486 8.17787,-27.86863z" data-paper-data="{&quot;index&quot;:null}" fill="#ffffff" stroke="#200000" stroke-width="0.5" stroke-linecap="butt"/><path d="M190.88549,110.97556c-1.26199,3.06399 -4.56189,4.61006 -7.37056,3.45324c-2.80866,-1.15682 -4.06249,-4.57846 -2.8005,-7.64246c1.26199,-3.06399 4.56189,-4.61006 7.37056,-3.45324c2.80866,1.15682 4.06249,4.57846 2.8005,7.64246z" fill="url(#color-1)" stroke="none" stroke-width="0" stroke-linecap="butt"/><path d="M202.07055,33.92918z" fill="url(#color-2)" stroke="none" stroke-width="0" stroke-linecap="butt"/><path d="M252.61774,149.08886c-1.26199,3.06399 -4.5619,4.61006 -7.37056,3.45324c-2.80866,-1.15682 -4.06249,-4.57846 -2.8005,-7.64246c1.26199,-3.06399 4.56189,-4.61006 7.37056,-3.45324c2.80865,1.15682 4.06249,4.57846 2.8005,7.64246z" fill="url(#color-3)" stroke="none" stroke-width="0" stroke-linecap="butt"/><path d="M253.70768,126.93677c-1.05165,2.55332 -4.49154,3.55754 -7.6832,2.24297c-3.19166,-1.31457 -20.18394,-1.54156 -19.13229,-4.09488c1.05165,-2.55332 19.74901,-6.4661 22.94067,-5.15153c3.19166,1.31457 4.92648,4.45012 3.87482,7.00345z" fill="#23173a" stroke="none" stroke-width="0" stroke-linecap="butt"/><path d="M205.46124,97.05705c1.59104,2.16918 2.12464,17.04692 0.3893,18.31975c-1.73534,1.27284 -5.08247,-11.54122 -6.67352,-13.7104c-1.59104,-2.16918 -1.47408,-4.95948 0.26127,-6.23231c1.73534,-1.27284 4.43191,-0.54621 6.02295,1.62296z" data-paper-data="{&quot;index&quot;:null}" fill="#23173a" stroke="none" stroke-width="0" stroke-linecap="butt"/><path d="M158.80094,212.80706c0,0 5.33338,-9.33809 7.33454,-10.45348c1.42845,-0.79618 5.26752,-0.66865 5.26752,-0.66865c0,0 6.60614,5.31875 10.06176,9.03119c4.0983,4.4029 14.47094,22.43286 14.47094,22.43286" fill="none" stroke="#000000" stroke-width="2" stroke-linecap="round"/><path d="M132.68035,123.45755c0.1113,-0.0951 -5.17702,-2.47938 -10.75439,-5.30729c-5.06048,-2.56583 -5.99276,-4.98197 -7.71186,-6.89971c0.11202,-0.62627 0.57638,-3.43155 11.55634,-3.03859c1.63838,0.05864 2.07116,2.61435 4.08099,2.65682c5.20943,0.11009 -6.21063,-3.68169 -15.55303,-6.9796c-1.47367,-0.52021 -7.41611,-0.2021 -8.16927,-1.10876c-0.74041,-0.89131 4.50314,-3.65667 8.74853,-5.55559c2.39517,-1.07132 4.57973,-1.46303 4.92921,-2.0805c0.44736,-0.79041 -8.56777,-4.40978 -8.54155,-4.68178c0.29337,-3.04272 4.64663,-4.58901 10.76589,-3.57051c1.37472,0.22881 2.67132,2.88759 4.22007,3.0879c2.7126,0.35084 -7.34009,-11.64626 -3.07155,-10.60116c0.9161,0.2243 4.87061,2.16548 9.16627,5.83754c1.88146,1.60833 5.1377,3.50242 6.41841,5.08696c0.70928,0.87755 -0.43214,1.60322 0.20758,2.26808c0.82056,0.85281 -0.65017,-1.07564 -2.33258,-0.7234c4.15897,0.89318 -2.92757,-6.54515 -7.1683,-11.15628c-1.70593,-1.85493 -3.31312,-2.89158 -2.98482,-3.30043c2.82284,-3.51543 8.60882,0.41845 15.85428,7.34584c1.94881,1.86326 4.41715,6.30974 6.55137,7.96582c1.82249,1.41418 -0.67429,-0.44787 1.24485,0.53937c0.21546,0.11084 -2.85117,-3.21125 -4.80153,-7.27658c-2.20493,-4.59599 -6.85919,-10.97932 -6.58738,-10.95486c0.56971,0.05127 9.82544,5.47559 14.66802,10.99126c3.86598,4.40333 5.22484,10.46977 5.66141,10.33427c1.37488,-0.4267 -5.10451,-12.10431 -3.91091,-12.86413c1.13779,-0.72429 4.13682,2.5057 7.82329,3.3594c3.97042,0.91945 8.61121,-0.49129 8.88301,-0.15399c0.62774,0.779 -3.56915,5.52436 -6.67159,9.78668c-3.78121,5.19487 -6.95577,10.32486 -10.60786,14.8916c-3.21067,4.01478 -0.24744,0.23493 -0.07967,2.83897c0.11789,1.82987 -1.79471,3.01365 -2.77198,5.78179c-1.41452,4.00662 -2.07041,9.76179 -1.81892,12.46083c0.57719,6.19456 5.23869,15.43139 8.37171,22.75587c2.2856,5.34336 9.89905,16.18506 8.97449,16.97502c-1.08359,0.92584 -10.39844,-9.40961 -15.72708,-10.89878c-5.15837,-1.44158 -13.98595,-0.00337 -16.37487,-2.19695c-2.52084,-2.31473 7.27378,-5.81594 7.45528,-8.20049c0.04557,-0.59872 -11.99117,0.39504 -13.71824,0.24832c-2.10405,-0.17874 10.21773,-5.23938 8.46411,-6.08876c-1.09409,-0.52993 -3.05698,0.67548 -4.13271,0.65571c-3.69492,-0.0679 -7.81546,-1.03319 -8.71437,-2.1487c-0.72412,-0.8986 7.80224,-2.64552 9.74245,-5.06321c0.22909,-0.28546 -4.20516,0.17477 -7.22876,-0.54702c-3.58102,-0.85485 -5.88256,-2.89665 -6.05598,-3.10179c-1.00426,-1.18793 12.73309,-2.0963 11.39198,-3.15718c-4.42936,-3.50387 -11.36923,-4.72807 -11.3384,-7.08045c0.03986,-3.04125 9.62708,0.59522 11.6481,-1.13158z" data-paper-data="{&quot;index&quot;:null}" fill="#23173a" stroke="none" stroke-width="0" stroke-linecap="butt"/><g stroke-linecap="butt"><path d="M206.62436,128.50571c1.45357,0.59869 9.15427,-2.39631 8.12336,6.26929c-1.24038,10.42636 -4.05049,27.75095 -9.9281,39.8415c-0.47896,0.98525 -0.46421,5.96877 0.05791,6.98933c0.91951,1.79731 3.66971,0.20264 3.1465,1.47294c-0.56419,1.3698 -0.40762,3.24751 -1.17113,4.41641c-9.38092,14.36176 -34.06479,13.44291 -37.39016,12.07327c-1.13437,-0.46722 -5.58973,-5.72701 -7.47743,-8.09972c-4.09639,-5.14889 -6.54131,-10.02145 -1.40989,-22.48011c7.49609,-18.19985 42.45291,-41.96401 46.04893,-40.4829z" fill="#ffcbb8" stroke="#710000" stroke-width="0.5"/><path d="M219.62732,135.28069c-1.4353,2.19588 -6.15907,1.64892 -10.55083,-1.22167c-4.39176,-2.87059 -6.78845,-6.97779 -5.35315,-9.17367c1.4353,-2.19588 6.15906,-1.64891 10.55083,1.22168c4.39176,2.87059 6.78845,6.97778 5.35315,9.17367z" fill="#ffddd1" stroke="none" stroke-width="0"/><path d="M205.03374,189.53376c-0.3676,0.89249 -1.53961,-4.48969 -5.29124,-3.50742c-5.9119,1.54788 -17.13738,7.42823 -23.69583,10.81386c-4.16314,2.14911 -5.35773,2.61112 -5.60771,2.50816c-0.37365,-0.1539 6.50844,-3.35212 11.99418,-6.81059c2.02507,-1.2767 4.32449,-2.43434 6.17309,-3.47948c5.12063,-2.89507 9.08077,-6.6323 9.6428,-7.99686c1.31457,-3.19166 12.80233,-27.71277 13.696,-27.34469c0.43486,0.17911 -6.47769,16.72313 -7.39275,24.19679c-0.67705,5.52978 4.12756,3.72734 3.76398,4.82394c-0.15487,0.46711 -3.08093,6.30682 -3.28253,6.79629z" fill="#e1a088" stroke="#710000" stroke-width="0"/></g><path d="M198.65952,268.8617c-4.73245,11.48998 -58.49534,19.70791 -62.58067,18.02526c-4.08533,-1.68265 -3.56073,-12.36117 1.17172,-23.85114c1.44507,-3.50852 3.43499,-7.46294 5.61859,-11.2159c4.96741,-8.53753 10.9371,-16.03246 13.77494,-14.86361c2.22702,0.91726 8.62159,16.81268 15.29045,27.89785c5.56475,9.24989 28.87763,-1.21894 26.72497,4.00755z" fill="#23173a" stroke="none" stroke-width="0" stroke-linecap="butt"/><path d="M203.93455,168.10002c-3.90698,7.09635 -7.64625,15.42496 -15.53183,19.05272c-4.72946,2.17578 -16.29859,4.57538 -21.21395,3.13335c-6.1658,-1.80887 -5.30289,-7.94203 -6.46351,-8.58102c-1.40837,-0.7754 1.42206,-1.5738 5.95035,-3.23654c7.13841,-2.62114 15.99456,-3.24158 24.11882,-11.60297c17.18959,-17.6913 16.58075,-38.60279 20.20929,-36.60505c3.62854,1.99774 2.12042,21.1482 -7.06917,37.8395z" fill="#f7b8a2" stroke="none" stroke-width="0" stroke-linecap="butt"/><path d="M249.23949,145.98279c0,0.62132 -0.50368,1.125 -1.125,1.125c-0.62132,0 -1.125,-0.50368 -1.125,-1.125c0,-0.62132 0.50368,-1.125 1.125,-1.125c0.62132,0 1.125,0.50368 1.125,1.125z" fill="#ffffff" stroke="none" stroke-width="0" stroke-linecap="butt"/><path d="M186.98949,108.23279c0,0.62132 -0.50368,1.125 -1.125,1.125c-0.62132,0 -1.125,-0.50368 -1.125,-1.125c0,-0.62132 0.50368,-1.125 1.125,-1.125c0.62132,0 1.125,0.50368 1.125,1.125z" fill="#ffffff" stroke="none" stroke-width="0" stroke-linecap="butt"/></g></g></svg>