<svg version="1.1" xmlns="http://www.w3.org/2000/svg" xmlns:xlink="http://www.w3.org/1999/xlink" width="352.4538" height="409.49494" viewBox="0,0,352.4538,409.49494"><defs><linearGradient x1="140.56397" y1="145.33159" x2="135.99391" y2="156.4273" gradientUnits="userSpaceOnUse" id="color-1"><stop offset="0" stop-color="#000000"/><stop offset="1" stop-color="#86746e"/></linearGradient><linearGradient x1="115.36635" y1="-33.33644" x2="115.3654" y2="-33.33413" gradientUnits="userSpaceOnUse" id="color-2"><stop offset="0" stop-color="#000000"/><stop offset="1" stop-color="#86746e"/></linearGradient><linearGradient x1="213.79622" y1="167.94489" x2="209.22617" y2="179.04059" gradientUnits="userSpaceOnUse" id="color-3"><stop offset="0" stop-color="#000000"/><stop offset="1" stop-color="#86746e"/></linearGradient></defs><g transform="translate(-82.76237,-7.04746)"><g data-paper-data="{&quot;isPaintingLayer&quot;:true}" fill-rule="nonzero" stroke-linejoin="miter" stroke-miterlimit="10" stroke-dasharray="" stroke-dashoffset="0" style="mix-blend-mode: normal"><path d="M342.02963,143.2092c0.03734,1.28076 -19.74475,3.69453 -22.22904,9.06904c-2.06955,4.47727 10.26988,179.94743 5.75064,212.88436c-0.50537,3.68326 -1.45441,-78.98863 -7.74741,-104.47179c-2.31614,-9.37906 -7.30635,-31.87182 -7.15363,-28.55488c0.22251,4.83256 5.3153,24.5265 7.67427,47.50751c3.28196,31.97275 5.57914,80.87244 5.57172,85.14385c-0.0185,10.64973 -3.01583,-32.89756 -6.94754,-68.43589c-1.63537,-14.78191 -5.75938,-38.85122 -7.081,-46.87539c-0.52595,-3.19327 4.63723,30.56468 7.47052,62.40786c2.30057,25.85596 2.38365,50.96053 2.09768,49.90099c-2.38661,-8.84265 -0.83448,-24.10687 -2.73969,-43.52428c-1.9764,-20.14291 -10.90688,-91.98874 -13.23362,-103.19098c-2.12597,-10.23563 4.49945,58.53459 4.54596,58.9741c0.36807,3.47851 4.52128,46.1731 6.01538,55.04845c3.70769,22.02455 0.49919,19.44575 1.48835,31.45413c1.65112,20.04447 -8.32488,-3.58482 -9.56636,1.30298c-5.64658,22.23104 -33.64806,-64.33107 -34.2684,-63.85532c-13.56638,10.40444 -1.13594,-163.91552 -29.9323,-175.77606c-26.14299,-10.76768 -92.7598,6.87562 -112.07368,-3.57642c-1.67147,-0.90454 -5.46993,-12.44087 -6.33526,-13.63199c-1.83443,-2.52508 11.49203,-20.03918 22.78081,-29.69404c4.78781,-4.09483 12.89963,-4.31558 13.33676,-5.3769c5.25128,-12.74966 23.56645,-28.77351 59.85843,-32.55694c16.03807,-1.67196 53.71092,-0.95348 64.50999,3.4944c28.15307,11.59558 48.60329,24.78488 54.3139,51.26807c1.4367,6.66274 3.72107,45.15004 3.89352,51.06514z" fill="#23173a" stroke="none" stroke-width="NaN" stroke-linecap="butt"/><g stroke="#000000" stroke-linecap="butt"><path d="M131.64887,207.27981c-4.77987,11.60512 -4.15165,-3.93658 -11.00058,-6.75749c-3.35836,-1.38323 -8.58458,-4.02837 -13.96236,-14.09547c-5.58945,-10.46333 -11.22555,-28.44337 -8.78949,-34.35792c4.77987,-11.60512 4.19863,-41.38223 11.04755,-38.56133c5.99173,2.46785 32.30814,36.24229 32.16244,50.0033c-0.02085,1.9687 -3.14677,28.4468 -3.745,29.89928z" fill="#ffddd1" stroke-width="0.5"/><path d="M127.6222,167.93848c-0.74596,1.81112 -7.93949,6.35185 -8.3794,2.8585c-0.56417,-4.48007 5.56318,-17.7585 3.63065,-19.9507c-2.25904,-2.56258 -8.25038,2.06827 -9.75879,1.447c-0.39121,-0.16113 0.64814,2.10838 1.58262,-2.02989c1.06769,-4.7282 1.81984,-9.72546 0.77402,-12.62671c-1.65101,-4.58014 -5.50335,-2.53832 -6.231,0.01193c-0.96823,3.39336 -2.94222,10.35098 -2.71439,18.83774c0.14029,5.22608 3.4952,15.88977 4.25304,20.24433c0.97529,5.604 -0.56915,4.13653 -0.01751,2.79721c1.39584,-3.38899 -8.45631,-6.82753 -8.84595,-18.37742c-0.39779,-11.79173 8.67116,-31.65563 10.59335,-30.86392c3.80496,1.56717 17.93427,30.80302 15.11335,37.65195z" fill="#be8571" stroke-width="0"/></g><path d="M107.29384,165.85416c-2.17517,-1.32045 -11.3758,2.59086 -11.70291,-0.02217c-0.25302,-2.02115 6.54009,-3.64106 10.61847,-7.01706c1.23484,-1.02217 -12.52687,-0.68168 -11.63937,-1.78564c0.15326,-0.19064 2.25152,-2.13509 5.73572,-3.16295c2.94185,-0.86787 7.39975,-0.83409 7.1447,-1.06095c-2.16002,-1.9214 -10.81332,-2.72787 -10.17737,-3.56004c0.78946,-1.03305 4.80033,-2.19997 8.47229,-2.56015c1.06905,-0.10486 3.13707,0.7718 4.17618,0.22657c1.6655,-0.87391 -11.07941,-4.22109 -9.00167,-4.54669c1.70547,-0.26727 13.78226,-0.3954 13.6803,-0.90674c-0.40605,-2.03652 -10.48773,-4.24857 -8.19694,-6.44573c2.17091,-2.08216 11.0949,-1.56586 16.09394,-3.22728c5.16405,-1.71627 13.4604,-11.36823 14.62664,-10.66026c0.99508,0.60407 -5.55964,10.55259 -7.33001,15.33596c-2.42676,6.55687 -6.19442,14.88369 -6.18358,20.25979c0.00472,2.34243 1.2016,7.23983 2.98845,10.57107c1.23451,2.30152 3.25043,3.16368 3.30601,4.74749c0.07909,2.25387 -3.22811,-0.7558 0.34762,2.43576c4.06735,3.63034 7.71253,7.78423 11.96779,11.94439c3.49139,3.41335 8.11797,7.15286 7.56667,7.87427c-0.23871,0.31237 -4.99205,-0.52223 -8.8578,0.593c-3.58929,1.03548 -6.26962,4.05906 -7.47077,3.5289c-1.26007,-0.55617 4.08667,-11.13117 2.67761,-11.38596c-0.44742,-0.08091 -1.22686,5.24881 -4.65938,9.35258c-4.29962,5.14043 -13.00126,10.56269 -13.56358,10.65332c-0.26828,0.04324 3.76186,-5.82823 5.52255,-9.96207c1.55741,-3.65655 4.29635,-6.76487 4.09233,-6.65193c-1.81725,1.00602 0.49238,-0.79974 -1.1883,0.56567c-1.96815,1.59897 -4.0052,5.62571 -5.76919,7.38776c-6.55832,6.55112 -11.94661,10.40784 -15.08906,7.61418c-0.36547,-0.32491 1.13655,-1.34796 2.65954,-3.08301c3.78595,-4.31313 10.13777,-11.29082 6.08183,-10.18279c1.70817,0.16562 2.99006,-1.61347 2.25377,-0.81282c-0.57402,0.6242 0.63087,1.15525 0.00771,1.9681c-1.12522,1.46772 -4.18788,3.36307 -5.90891,4.90032c-3.92939,3.50977 -7.68273,5.50266 -8.57353,5.77044c-4.15066,1.24767 4.72318,-9.89401 2.05588,-9.37066c-1.52289,0.29881 -2.5624,2.69195 -3.90934,3.00106c-5.99561,1.37594 -10.47553,0.40124 -11.05515,-2.19234c-0.05181,-0.23185 8.5809,-4.08173 8.06084,-4.72515c-0.40627,-0.50265 -2.61808,-0.66121 -5.10377,-1.38722c-4.40585,-1.28686 -9.88729,-3.23756 -9.23443,-4.06479c0.6641,-0.84148 6.61001,-1.05313 8.02791,-1.62101c8.9889,-3.60006 19.99948,-7.79467 14.82377,-7.27451c-1.99682,0.20068 -2.18612,2.43461 -3.81163,2.61886c-10.89367,1.23478 -11.62108,-1.14058 -11.79179,-1.67019c1.53016,-1.79016 2.22992,-3.94482 7.02525,-6.5654c5.28514,-2.88825 10.32445,-5.37126 10.20466,-5.44398z" data-paper-data="{&quot;index&quot;:null}" fill="#23173a" stroke="none" stroke-width="0" stroke-linecap="butt"/><path d="M185.75903,415.92124c0,0 4.92763,-149.11041 8.95661,-180.81836c2.72997,-21.4848 23.38616,-30.03983 23.38616,-30.03983l56.29151,-30.4772c0,0 -3.50697,74.80648 -1.49891,102.55776c0.79077,10.92835 7.76633,41.87773 17.78602,57.21863c15.55662,23.81836 36.33336,31.19108 36.33336,31.19108c0,0 -71.5485,37.22228 -92.64987,44.7465c-25.2388,8.99953 -48.60488,5.62142 -48.60488,5.62142z" fill="#412a6a" stroke="none" stroke-width="0" stroke-linecap="butt"/><path d="M300.37683,194.27844c-9.34078,22.67862 -26.26692,31.77169 -65.11141,31.24272c-3.37674,-0.75724 -36.36775,35.74983 -42.39252,40.02156c-2.86779,2.03335 -6.26385,9.11372 -9.75511,14.56165c-6.75414,10.53949 -13.86455,21.82591 -18.19551,26.69917c-8.12901,9.14689 -8.38695,-7.25138 -13.8781,-7.7187c-2.3828,-0.20279 -10.44779,1.07733 -13.79858,0.72366c-6.5313,-0.68937 -9.14848,2.11291 -14.91627,-0.45752c-5.53645,-2.46732 -2.82231,-1.59061 -12.23399,-8.33767c-0.12479,0.24561 -2.34681,0.22316 -2.38807,-4.23219c-0.05187,-5.601 2.18192,-16.17636 3.25367,-19.09322c0.43765,-1.19111 6.43836,-44.72598 6.59466,-46.92061c0.43502,-6.10791 2.37851,-13.50318 2.67056,-19.01428c0.54088,-10.20653 -0.93766,-17.59538 -2.45136,-24.07695c-1.75172,-7.50076 4.43482,-19.93295 4.57907,-29.92387c0.07012,-4.85639 -7.75162,-7.87225 -7.57783,-11.43052c0.62868,-12.87195 -2.20108,-7.61328 2.14938,-18.17581c3.67212,-8.9156 22.21836,-35.27691 35.99298,-44.26174c9.77804,-6.37796 40.9231,-18.55841 48.34264,-20.81647c20.53113,-6.24842 38.9276,1.20339 62.79151,11.03237c44.63664,18.38477 49.81626,97.42108 36.32429,130.17843z" fill="#ffddd1" stroke="#003737" stroke-width="0.5" stroke-linecap="butt"/><path d="M167.44501,155.32575c2.00211,12.56517 -9.94379,27.05764 -20.47341,28.34246c-10.52961,1.28483 11.11613,-23.75367 -9.38599,-16.31885c-7.10303,-3.42258 -13.86111,-18.44819 -15.04847,-22.68721c-0.51157,-1.82632 3.28303,-8.83742 4.02861,-9.88735c0.66498,-0.93643 -3.5639,-0.73779 -1.39319,-0.21728c3.86191,0.92602 -9.68276,-0.86747 -2.88154,0.47935c3.10507,0.61489 11.63596,1.65715 18.35055,-1.83238c9.9077,-5.14896 18.80398,-15.45574 24.48577,-13.15125c8.70061,3.5289 1.66445,31.17292 2.31768,35.2725z" fill="#86746e" stroke="none" stroke-width="0" stroke-linecap="butt"/><g data-paper-data="{&quot;index&quot;:null}" stroke="#000000" stroke-linecap="butt"><path d="M310.44612,155.42916c9.58814,-9.87189 52.05738,-15.31516 58.04911,-12.84731c6.84892,2.82091 -14.53506,23.55106 -19.31494,35.15619c-2.43606,5.91455 -19.10021,14.70965 -30.43738,18.20131c-10.90783,3.35943 -16.48097,1.55658 -19.83934,0.17335c-6.84892,-2.82091 -13.43041,-11.36121 -8.65054,-22.96633c0.59824,-1.45247 18.82138,-16.30489 20.19309,-17.7172z" fill="#ffddd1" stroke-width="0.5"/><path d="M354.14741,151.98298c1.92219,0.7917 -5.62924,21.28064 -14.21629,29.37172c-8.41094,7.92514 -17.82692,3.4276 -19.22276,6.81659c-0.55164,1.33933 -2.68158,1.29341 1.95758,-1.99815c3.60482,-2.55768 13.49674,-7.76531 17.27695,-11.37663c6.13877,-5.8645 9.63748,-12.19413 11.33998,-15.28506c1.2795,-2.32295 -0.01736,-6.48561 -4.41514,-4.39682c-2.78573,1.32313 -5.77122,5.40052 -8.3432,9.50914c-2.25108,3.59599 0.08514,2.7168 -0.30607,2.55567c-1.5084,-0.62127 -2.5004,-8.1284 -5.90892,-7.90015c-2.91586,0.19527 -7.91759,13.9373 -11.47333,16.72048c-2.7726,2.17019 -4.68153,-6.11962 -3.93557,-7.93074c2.82091,-6.84893 33.44179,-17.65323 37.24676,-16.08606z" fill="#be8571" stroke-width="0"/></g><path d="M433.7598,51.32724c-4.78379,11.61462 -32.18899,9.54322 -59.10533,7.64391c-5.81992,-0.41067 -12.53312,1.19826 -19.16966,3.51089c-14.27587,4.97469 -28.197,13.20554 -32.10891,11.59432c-10.81982,-4.45642 -22.24423,12.56743 -13.43831,2.43997c2.70304,-3.10871 -4.00387,-12.30629 -2.11482,-16.89274c8.04316,-19.5281 78.44828,-57.80406 92.58932,-51.9797c14.14105,5.82436 41.39086,24.15527 33.3477,43.68337z" fill="#23173a" stroke="none" stroke-width="0" stroke-linecap="butt"/><path d="M275.0422,212.93054c-0.86684,2.77902 8.21853,11.56146 4.84605,12.73508c-2.60859,0.90778 -7.61401,-5.97341 -13.84649,-9.35242c-1.88705,-1.02309 4.30372,13.83766 2.45158,13.21795c-0.31983,-0.10702 -3.80505,-1.7805 -6.63689,-5.24823c-2.39103,-2.92793 -4.20298,-7.78693 -4.40135,-7.43855c-1.68012,2.95063 0.84217,12.61442 -0.54021,12.18322c-1.71608,-0.53529 -4.95408,-4.53229 -6.96759,-8.41321c-0.5862,-1.12988 -0.27064,-3.65346 -1.4357,-4.61295c-1.86738,-1.53788 -1.05203,13.37121 -2.3549,11.21335c-1.06944,-1.77124 -6.27307,-14.86591 -6.91723,-14.59498c-2.56547,1.07905 -1.33546,12.73629 -5.2402,10.93251c-3.7004,-1.70939 -6.72514,-11.57678 -11.03884,-16.49375c-4.4561,-5.07926 -20.87327,-11.08143 -20.4085,-12.57143c0.39656,-1.27132 16.48634,2.74382 23.64702,3.17212c9.81562,0.5871 22.56659,2.07859 29.78109,0.38413c3.14346,-0.7383 9.22102,-3.57288 12.94973,-6.55892c2.57614,-2.06303 2.89397,-4.52539 4.99753,-5.08157c2.99353,-0.79146 0.33004,3.74747 3.1259,-1.14045c3.18023,-5.55993 7.23936,-10.8246 11.05274,-16.75473c3.12883,-4.8656 6.22265,-11.06795 7.42105,-10.69414c0.5189,0.16186 1.3786,5.59284 4.48672,9.4482c2.88584,3.57963 8.06262,5.54843 7.85116,7.02074c-0.22183,1.54453 -16.64956,-0.96072 -16.40464,0.65153c0.07777,0.51195 7.55926,-0.3085 14.49987,2.14028c8.69391,3.06737 19.6003,10.83422 19.95628,11.41742c0.16984,0.27825 -9.39344,-2.26721 -15.67793,-2.8883c-5.55887,-0.54938 -10.87386,-2.55538 -10.63719,-2.36883c2.10801,1.66156 -1.27903,-0.2852 1.25466,1.11534c2.96708,1.64011 9.22289,2.59528 12.3239,3.9623c11.52924,5.0824 18.95298,9.73562 16.51088,14.02777c-0.28402,0.49917 -2.28356,-0.81422 -5.2479,-1.92757c-7.369,-2.76765 -19.38501,-7.49197 -16.20731,-3.42751c-0.48929,-1.90965 -3.41232,-2.747 -2.03044,-2.19681c1.07734,0.42895 1.28842,-1.04773 2.63956,-0.62438c2.43966,0.76441 6.26074,3.50214 9.04199,4.89281c6.35002,3.17508 10.58984,6.63349 11.32054,7.51852c3.40467,4.12378 -15.25349,-2.04023 -13.43946,0.69695c1.03572,1.56277 4.68232,1.94432 5.65857,3.3125c4.34556,6.09021 4.90323,11.26766 1.66205,12.70983c-0.28975,0.12893 -9.05601,-8.05508 -9.70333,-7.28807c-0.5057,0.5992 0.2029,3.05439 0.26364,5.98508c0.10765,5.19461 -0.22802,11.76681 -1.61083,11.31567c-1.40663,-0.4589 -4.1681,-6.85947 -5.52138,-8.22385c-8.57923,-8.64959 -18.79909,-19.31187 -15.94426,-13.84555c1.1014,2.10894 4.18,1.61562 5.10464,3.32586c6.19671,11.46154 3.31015,12.99615 2.6701,13.34757c-3.04134,-1.10391 -6.22616,-1.19058 -11.74296,-5.58579c-6.08031,-4.84415 -11.51401,-9.54777 -11.56176,-9.39472z" fill="#23173a" stroke="none" stroke-width="0" stroke-linecap="butt"/><path d="M327.58051,57.57508c-0.13987,0.78726 -35.91334,20.2809 -26.08687,37.30269c3.83469,6.64261 14.32467,23.23811 13.76091,23.45895c-0.68371,0.26782 -0.10506,25.63649 -4.85226,37.05714c-2.25764,5.43136 -11.72997,12.54867 -14.96129,12.34352c-2.49053,-0.15812 0.95915,-7.10186 0.4734,-7.46148c-1.92376,-1.42425 5.36071,-17.58459 5.81094,-37.57272c0.26368,-11.70655 -12.58728,-27.81046 -13.16413,-30.70507c-1.37558,-6.90261 -13.41811,-18.81336 -18.66766,-21.74829c-12.10828,-6.76954 -38.4462,-7.61939 -43.44152,-6.71935c-5.09759,0.91848 -35.41681,13.94357 -44.7438,17.66784c-2.23829,0.89375 3.80044,-1.57537 3.54759,-1.62029c-1.09202,-0.19402 1.24031,-1.8239 -8.75926,4.30942c-2.36063,-3.16752 7.34139,-25.41775 -1.28613,-23.95784c-3.62095,0.61272 0.37361,-0.09729 -6.88351,4.08059c-1.90524,1.09683 -25.76458,19.04832 -28.27272,22.14095c-8.12633,10.02004 -23.31472,32.27045 -24.18147,31.48393c-1.59497,-1.44733 8.14795,-19.56279 18.2796,-32.24675c0.69117,-0.86529 8.84925,-12.16807 9.466,-12.89625c6.74999,-7.96955 26.20143,-19.3192 26.35875,-20.11803c0.32645,-1.65752 20.52188,-10.49006 33.29534,-13.14117c12.02662,-2.4961 31.17918,-4.33134 31.36435,-5.37355c0.47687,-2.68401 28.30448,-1.64902 44.60022,2.68516c28.27381,7.51998 51.988,21.95618 54.74763,22.44649c4.35016,0.7729 -17.11187,-1.24924 -18.41613,6.09164z" fill="#23173a" stroke="none" stroke-width="0" stroke-linecap="butt"/><path d="M243.88141,183.84778c-9.57418,7.5976 -30.23254,8.47826 -48.66542,0.06492c-18.43289,-8.41334 -19.41667,-27.99488 -14.72606,-36.93921c0.60244,-1.14877 2.03969,-20.96147 2.97537,-21.63797c6.34957,-4.59072 18.04579,27.27142 34.92468,33.05308c8.95144,3.0662 24.02883,7.97159 34.25892,9.68212c6.89389,1.1527 11.06389,-1.5301 11.65275,1.82167c0.41383,2.3555 -18.5852,12.49918 -20.42024,13.95539z" fill="#86746e" stroke="none" stroke-width="0" stroke-linecap="butt"/><path d="M231.83458,179.94212c-8.76912,1.54561 -11.13253,1.1738 -19.0127,0.18157c-12.51069,-1.57529 -20.01167,-7.13961 -21.05775,-10.46868c-0.03575,-0.11377 -1.41262,-2.12698 -1.43851,-2.24207c-0.68145,-3.02954 -0.82757,-7.07124 -2.31285,-9.27789c-0.92529,-1.37468 14.6895,7.92765 28.90866,11.17607c16.80226,3.83854 33.04769,1.96426 37.7566,3.41831c3.31058,1.02226 0.76364,0.00639 -0.98987,0.56706c-7.72232,2.46917 -15.94897,5.60491 -21.85357,6.64563z" fill="#ffffff" stroke="#200000" stroke-width="0.5" stroke-linecap="butt"/><path d="M122.40156,144.2542c0.17383,-1.38296 -1.42003,0.109 0.91933,-0.12303c1.84772,-0.18326 6.05515,-0.24493 11.61326,-0.1494c5.30741,0.09122 17.31835,-6.51162 23.52139,-6.50038c8.89935,0.01613 11.63579,5.26709 9.7931,6.66287c-3.29051,2.49244 -8.51735,7.96328 -12.61297,11.86283c-0.15558,0.14813 -3.16441,2.41442 -3.32137,2.55729c-4.59292,4.18052 0.94253,2.14421 -4.96498,-0.10485c-1.73884,-0.662 5.12237,-2.1026 1.13045,-1.84909c-4.5505,0.28898 -14.41014,0.68047 -14.80634,-2.08787c-6.0008,-3.49926 -8.03744,-2.6779 -7.27187,-8.76837z" data-paper-data="{&quot;index&quot;:null}" fill="#ffffff" stroke="#200000" stroke-width="0.5" stroke-linecap="butt"/><path d="M143.36447,152.97405c-1.26199,3.06399 -4.56189,4.61006 -7.37056,3.45324c-2.80866,-1.15682 -4.06249,-4.57846 -2.8005,-7.64246c0.76224,-1.85064 2.26792,-3.14752 3.95978,-3.62955c1.10925,-0.31604 2.29853,-0.2818 3.41078,0.17631c2.80866,1.15682 4.06249,4.57846 2.8005,7.64246z" fill="url(#color-1)" stroke="none" stroke-width="0" stroke-linecap="butt"/><path d="M181.04953,32.42767z" fill="url(#color-2)" stroke="none" stroke-width="0" stroke-linecap="butt"/><path d="M216.59672,175.58735c-1.26199,3.06399 -4.5619,4.61006 -7.37056,3.45324c-2.80866,-1.15682 -4.06249,-4.57846 -2.8005,-7.64246c1.26199,-3.06399 4.56189,-4.61006 7.37056,-3.45324c2.80865,1.15682 4.06249,4.57846 2.8005,7.64246z" fill="url(#color-3)" stroke="none" stroke-width="0" stroke-linecap="butt"/><path d="M220.02727,92.28911c1.31793,4.35257 -1.36542,8.22501 -5.99344,8.64929c-4.62802,0.42428 -22.82133,12.23548 -24.13927,7.88291c-1.31793,-4.35257 14.73859,-23.22073 19.36661,-23.64502c4.62802,-0.42428 9.44818,2.76024 10.76611,7.11283z" fill="#23173a" stroke="none" stroke-width="0" stroke-linecap="butt"/><path d="M156.68839,91.40503c1.26462,2.96062 -1.63804,18.41851 -3.87284,18.90905c-2.2348,0.49056 -7.97087,-16.13302 -9.2355,-19.09364c-1.26462,-2.96062 4.53726,-3.79731 6.77207,-4.28785c2.2348,-0.49056 5.07165,1.51183 6.33627,4.47244z" data-paper-data="{&quot;index&quot;:null}" fill="#23173a" stroke="none" stroke-width="0" stroke-linecap="butt"/><path d="M178.1355,288.3722c-3.61029,8.76547 -14.74057,30.14318 -33.096,36.65711c-2.92443,1.03782 -16.28402,2.03666 -24.77486,1.20809c-5.94634,-0.58026 -10.80781,-5.65909 -11.2068,-5.82343c-2.33704,-0.96257 -2.62231,-3.85175 -4.12019,-10.01104c-0.60068,-2.47 0.59765,-26.989 2.61475,-27.69639c1.74567,-0.61221 -0.26991,9.13447 0.66966,6.85329c1.44507,-3.50852 8.444,-10.97495 10.6276,-14.72791c5.96741,13.96247 6.42659,12.48406 9.26443,13.65291c1.0553,0.43465 5.1472,4.42374 7.19246,5.93849c2.2709,1.68186 2.71711,1.01178 8.59349,3.95036c5.56475,1.74989 4.38213,2.77806 16.22947,-0.99545z" fill="#23173a" stroke="none" stroke-width="0" stroke-linecap="butt"/><g stroke-linecap="butt"><path d="M173.54635,124.28648c1.55979,0.74463 9.82324,-2.98045 8.71699,7.79752c-1.33102,12.96794 -4.34649,34.51565 -10.65362,49.55344c-0.51396,1.22542 -0.49813,7.42374 0.06214,8.69308c0.98671,2.23543 3.93788,0.25204 3.37644,1.83199c-0.60542,1.70371 -0.43741,4.03914 -1.25671,5.49297c-10.06645,17.86265 -36.55414,16.71981 -40.12252,15.01631c-1.21727,-0.58111 -5.99821,-7.12305 -8.02386,-10.07414c-4.39574,-6.40401 -7.01933,-12.46432 -1.51292,-27.95996c8.04388,-22.63633 45.55524,-52.19335 49.41405,-50.3512z" fill="#ffcbb8" stroke="#710000" stroke-width="0.5"/><path d="M180.57589,127.64147c-1.54019,2.73116 -11.10916,7.05087 -15.82185,3.48053c-2.57798,-1.95308 -0.8695,-7.36259 -0.35254,-10.95073c0.42808,-2.97119 -0.58947,-4.22202 0.10819,-5.45915c1.54019,-2.73116 7.10915,-12.55086 11.82185,-8.98052c4.7127,3.57034 3.28453,20.67872 1.74434,23.40989z" fill="#ffddd1" stroke="none" stroke-width="0"/><path d="M173.81172,196.19061c-0.39446,1.11005 -1.65212,-5.58412 -5.67791,-4.3624c-6.34392,1.9252 -18.38973,9.23897 -25.42745,13.4499c-4.46737,2.67299 -5.74926,3.24762 -6.0175,3.11956c-0.40096,-0.19142 6.98406,-4.16925 12.87068,-8.47077c2.17306,-1.58791 4.64051,-3.02775 6.6242,-4.32765c5.49483,-3.60079 9.74437,-8.24902 10.34747,-9.94621c1.41063,-3.96967 13.73789,-34.46816 14.69686,-34.01036c0.46664,0.22277 -6.95106,20.79964 -7.93299,30.09511c-0.72653,6.87774 4.42919,4.63593 4.03904,5.99985c-0.16619,0.58097 -3.30608,7.8442 -3.52241,8.45298z" fill="#e1a088" stroke="#710000" stroke-width="0"/></g><path d="M170.07474,180.72147c-4.25152,7.72215 -8.32054,16.78522 -16.90152,20.7329c-5.14653,2.36765 -17.73589,4.97886 -23.08472,3.40967c-6.70954,-1.96839 -5.77053,-8.6424 -7.0335,-9.33774c-1.53257,-0.84378 1.54747,-1.71259 6.47509,-3.52196c7.76792,-2.85229 17.40505,-3.52744 26.24576,-12.62619c18.70547,-19.25142 18.04294,-42.00701 21.99146,-39.83309c3.94853,2.17391 2.30741,23.01317 -7.69257,41.1764z" fill="#f7b8a2" stroke="none" stroke-width="0" stroke-linecap="butt"/><path d="M213.21847,174.98128c0,0.62132 -0.50368,1.125 -1.125,1.125c-0.62132,0 -1.125,-0.50368 -1.125,-1.125c0,-0.62132 0.50368,-1.125 1.125,-1.125c0.62132,0 1.125,0.50368 1.125,1.125z" fill="#ffffff" stroke="none" stroke-width="0" stroke-linecap="butt"/><path d="M138.46847,151.73128c0,0.62132 -0.50368,1.125 -1.125,1.125c-0.62132,0 -1.125,-0.50368 -1.125,-1.125c0,-0.62132 0.50368,-1.125 1.125,-1.125c0.62132,0 1.125,0.50368 1.125,1.125z" fill="#ffffff" stroke="none" stroke-width="0" stroke-linecap="butt"/><path d="M262.45392,143.27646c-0.13834,0.0923 5.84093,18.97443 5.31015,25.03782c-0.2231,2.54857 -4.94928,6.1625 -5.97425,5.96338c-8.17038,-1.5872 -28.99056,-8.69801 -43.49819,-15.67946c-11.69704,-5.62892 -24.35093,-16.17877 -28.03545,-21.70135c-0.92801,-1.39096 -5.90381,-8.16106 -6.67406,-9.4974c-7.68874,-13.33959 -0.5094,-21.96604 0.43017,-22.5929c0.84626,-0.56461 0.89671,10.47316 6.63456,22.35504c1.27084,2.63163 3.2277,3.93756 5.07566,6.7074c0.55801,0.83638 6.42112,5.31885 7.21411,6.18523c8.74779,9.55731 37.10178,25.80826 51.97486,26.55093c2.03137,0.10143 5.49335,0.9839 6.58602,-0.99489c3.42751,-6.20712 1.2239,-22.51226 0.95642,-22.3338z" fill="#0d0b0a" stroke="none" stroke-width="0" stroke-linecap="butt"/><path d="M165.88662,105.30091c2.208,2.56099 3.16271,12.68273 -9.38615,23.50191c-6.66775,5.74869 -28.61911,14.75639 -37.06705,15.19125c-2.86902,0.14768 -6.86306,-5.36687 -5.21484,-10.42885c2.63247,-8.08475 7.67875,-13.34136 7.04239,-14.07945c-1.0575,-1.22656 -4.9261,8.47191 -2.10593,13.89343c1.00174,1.92574 5.9058,2.00112 7.82422,2.67928c3.95749,1.39897 18.96475,-4.20824 23.36865,-8.00513c12.54886,-10.81918 13.33071,-25.31344 15.53871,-22.75245z" fill="#0d0b0a" stroke="none" stroke-width="0" stroke-linecap="butt"/><path d="M184.003,220.77241c0,0 -3.43615,13.22642 -12.69501,17.42307c-1.43953,0.65247 -6.38427,3.09449 -9.91912,3.38671c-8.90844,0.73645 -21.06484,-0.97849 -22.82174,-1.1737c-3.20283,-0.35587 -8.01414,-1.06645 -13.63073,-2.72264c-5.87619,-1.73274 -6.99195,-4.90594 -6.99195,-4.90594" fill="none" stroke="#000000" stroke-width="2" stroke-linecap="round"/><path d="M185.90597,217.78905c0,18.2254 -8.18629,53 -11.5,53c-2.14955,0 2.09362,-15.9225 4.28636,-31.03101c1.18754,-8.18246 3.71364,-11.06614 3.71364,-17.46899c0,-18.2254 -12.81371,-45.5 -9.5,-45.5c3.31371,0 13,22.7746 13,41z" fill="#f7b8a2" stroke="none" stroke-width="0" stroke-linecap="butt"/></g></g></svg>