<svg version="1.1" xmlns="http://www.w3.org/2000/svg" xmlns:xlink="http://www.w3.org/1999/xlink" width="276.92895" height="424.96942" viewBox="0,0,276.92895,424.96942"><defs><linearGradient x1="140.7706" y1="146.04234" x2="144.80988" y2="157.34209" gradientUnits="userSpaceOnUse" id="color-1"><stop offset="0" stop-color="#000000"/><stop offset="1" stop-color="#86746e"/></linearGradient><linearGradient x1="14.84255" y1="81.97774" x2="14.84339" y2="81.9801" gradientUnits="userSpaceOnUse" id="color-2"><stop offset="0" stop-color="#000000"/><stop offset="1" stop-color="#86746e"/></linearGradient><linearGradient x1="210.13668" y1="138.32283" x2="214.17597" y2="149.62257" gradientUnits="userSpaceOnUse" id="color-3"><stop offset="0" stop-color="#000000"/><stop offset="1" stop-color="#86746e"/></linearGradient><linearGradient x1="201.56363" y1="255.91874" x2="201.56363" y2="269.25207" gradientUnits="userSpaceOnUse" id="color-4"><stop offset="0" stop-color="#d99881"/><stop offset="1" stop-color="#d99881" stop-opacity="0"/></linearGradient></defs><g transform="translate(-75.10622,3.92251)"><g data-paper-data="{&quot;isPaintingLayer&quot;:true}" fill-rule="nonzero" stroke-linecap="butt" stroke-linejoin="miter" stroke-miterlimit="10" stroke-dasharray="" stroke-dashoffset="0" style="mix-blend-mode: normal"><path d="M346.76581,40.35727c-4.78379,11.61462 -32.18899,9.54322 -59.10533,7.64391c-5.81992,-0.41067 -12.53312,1.19826 -19.16966,3.51089c-14.27587,4.97469 -28.197,13.20554 -32.10891,11.59432c-10.81982,-4.45642 -22.24423,12.56743 -13.43831,2.43997c2.70304,-3.10871 -4.00387,-12.30629 -2.11482,-16.89274c8.04316,-19.5281 78.44828,-57.80406 92.58932,-51.9797c14.14105,5.82436 41.39086,24.15527 33.3477,43.68337z" fill="#23173a" stroke="none" stroke-width="0"/><path d="M346.54014,138.2077c0.03734,1.28076 -7.73874,13.20054 -10.22303,18.57505c-2.06955,4.47727 -14.73012,27.94743 -19.24936,60.88436c-1.02141,7.44422 -2.82165,46.52005 -2.04275,53.8811c0.36807,3.47851 -1.47872,19.6731 0.01538,28.54845c3.70769,22.02455 12.49919,45.44575 13.48835,57.45413c1.65112,20.04447 -4.82488,3.91518 -6.06636,8.80298c-5.64658,22.23104 -33.64806,-64.33107 -34.2684,-63.85532c-13.56638,10.40444 -1.13594,-163.91552 -29.9323,-175.77606c-28.40547,-11.69954 -107.54471,-2.25384 -118.40894,-17.20841c-2.61245,-3.59602 20.31643,-35.50723 21.78424,-39.07094c4.60319,-11.17617 23.11747,-22.35857 50.59476,-24.05738c17.72078,-1.0956 57.78606,7.31081 71.601,13.00085c35.23593,14.51284 61.8495,49.39468 62.70742,78.82119z" fill="#23173a" stroke="none" stroke-width="NaN"/><path d="M202.27555,420.42575c0,0 4.92763,-149.11041 8.95661,-180.81836c2.72997,-21.4848 23.38616,-30.03983 23.38616,-30.03983l56.29151,-30.4772c0,0 -3.50697,74.80648 -1.49891,102.55776c0.79077,10.92835 7.76633,41.87773 17.78602,57.21863c15.55662,23.81836 36.33336,31.19108 36.33336,31.19108c0,0 -71.5485,37.22228 -92.64987,44.7465c-25.2388,8.99953 -48.60488,5.62142 -48.60488,5.62142z" fill="#412a6a" stroke="none" stroke-width="0"/><g stroke="#000000"><path d="M156.46968,176.587c4.22473,11.81853 -5.7195,-0.14188 -12.69438,2.35141c-3.42012,1.22258 -9.07241,2.75939 -19.80886,-1.11302c-11.15904,-4.02482 -27.38781,-13.59948 -29.54095,-19.62279c-4.22473,-11.81853 -24.60265,-33.53844 -17.62778,-36.03173c6.10191,-2.18123 48.26561,5.26784 57.37531,15.58287c1.30326,1.47571 16.71878,23.2294 17.24755,24.70858z" fill="#ffddd1" stroke-width="0.5"/><path d="M127.12693,150.07366c0.65932,1.84443 -1.64019,10.0345 -4.30686,7.7354c-3.41989,-2.9485 -7.765,-16.91207 -10.66835,-17.24524c-3.39388,-0.38947 -4.7404,7.06223 -6.27654,7.61136c-0.3984,0.14242 1.89355,1.1313 -0.18465,-2.5673c-2.37446,-4.22585 -5.16343,-8.4401 -7.88336,-9.89371c-4.29389,-2.29478 -5.7865,1.80176 -4.61848,4.18272c1.55416,3.16812 4.74908,9.65638 10.60314,15.80512c3.60488,3.78635 13.239,9.45675 16.71861,12.18233c4.47801,3.50762 2.34829,3.45259 1.86072,2.08863c-1.23373,-3.45131 -10.8522,0.59512 -18.87825,-7.71958c-8.19411,-8.4888 -14.76642,-29.31247 -12.80887,-30.01222c3.87493,-1.38516 33.94961,10.85763 36.44289,17.83252z" fill="#be8571" stroke-width="0"/></g><path d="M303.68031,127.04976c8.25593,23.09566 2.33229,37.31946 -25.64913,53.09677c-3.01444,1.69968 -29.5543,75.63307 -31.1662,82.84052c-5.03761,22.52528 -9.25362,26.49841 -17.19182,32.52198c-5.61834,4.26322 3.70038,-2.9771 -5.38443,-0.01902c-5.76352,1.87665 -2.43862,-7.80243 -13.94627,-6.50761c0.16221,0.60029 -4.80795,11.73279 -6.88727,6.55532c-0.47292,-1.17755 -13.78479,1.94614 -15.13883,0.21195c-10.74751,-13.76509 -21.59568,-67.82482 -30.01251,-73.67443c-20.52144,-14.26219 -32.17521,-10.45801 -39.27012,-30.30577c-6.73363,-18.83709 -3.06396,-70.69327 11.62305,-93.43178c11.3231,-17.53048 30.14113,-7.61351 49.93034,-14.68749c45.45748,-16.24953 111.16821,10.03984 123.0932,43.39957z" fill="#ffddd1" stroke="#003737" stroke-width="0.5"/><path d="M169.90415,148.83889c5.50251,5.54183 -1.89055,14.70978 -11.67402,17.36689c-9.78346,2.65711 -23.61282,-1.71769 -29.11533,-7.25952c-3.03152,-3.05318 -7.82969,-6.06874 -10.17944,-7.83865c-1.01237,-0.76254 -2.85682,0.13378 -2.43675,-0.50706c0.37466,-0.57157 -2.76773,-0.89052 -0.52752,-1.06753c3.98555,-0.31493 -1.96174,-3.78992 4.97646,-4.47861c7.5578,-0.75019 19.30743,1.25448 29.25608,1.92853c9.79503,0.66364 17.83405,-0.02385 19.70051,1.85595z" fill="#86746e" stroke="none" stroke-width="0"/><path d="M189.46725,214.40646c1.13828,6.95616 1.90249,12.86665 -0.14344,13.20143c-2.04593,0.33479 -2.12724,-5.0329 -3.26552,-11.98906c-1.13828,-6.95616 -2.90249,-12.86665 -0.85656,-13.20143c2.04593,-0.33479 3.12724,5.0329 4.26552,11.98906z" fill="#d99881" stroke="none" stroke-width="0"/><g data-paper-data="{&quot;index&quot;:null}" stroke="#000000"><path d="M296.03175,132.15996c2.26486,-13.57413 34.08594,-42.22172 40.4171,-43.60288c7.23691,-1.57875 1.45337,27.63708 4.12848,39.89963c1.36337,6.2496 -7.33242,22.96579 -14.66678,32.28943c-7.0566,8.97056 -12.66509,10.66025 -16.2137,11.43439c-7.23691,1.57875 -17.5092,-1.69733 -20.18431,-13.95987c-0.33481,-1.53475 6.19521,-24.11873 6.51922,-26.06069z" fill="#ffddd1" stroke-width="0.5"/><path d="M330.00253,104.45318c2.03108,-0.44309 7.4837,20.70141 5.02839,32.24153c-2.40496,11.30345 -12.70684,12.96471 -11.92564,16.54568c0.30873,1.4152 -1.46869,2.58973 0.47229,-2.75711c1.50823,-4.15472 6.67759,-14.06669 7.73033,-19.18757c1.70957,-8.3159 0.98369,-15.51161 0.62428,-19.02205c-0.27011,-2.63823 -3.70566,-5.32274 -6.13275,-1.10223c-1.53741,2.67345 -1.67145,7.72521 -1.4477,12.56729c0.19582,4.23794 1.61631,2.18536 1.20294,2.27554c-1.59385,0.34771 -6.68229,-5.26022 -9.35494,-3.13254c-2.28635,1.82016 1.4226,15.96599 0.08307,20.27819c-1.0445,3.36245 -7.33234,-2.36713 -7.74982,-4.28085c-1.57875,-7.23691 17.44902,-33.54879 21.46953,-34.42588z" fill="#be8571" stroke-width="0"/></g><path d="M302.79606,171.07599c0.83086,2.57976 13.96268,5.46343 11.64244,7.89254c-1.79469,1.87889 -10.20623,-1.32211 -17.69034,-1.21204c-2.26602,0.03332 11.7958,9.00447 9.79319,9.34063c-0.34582,0.05804 -4.40647,0.29014 -8.9203,-1.18512c-3.81119,-1.24561 -8.2204,-4.27347 -8.19594,-3.9101c0.20714,3.07761 8.01557,9.5814 6.53893,9.85703c-1.83309,0.34217 -7.0127,-1.36987 -11.0375,-3.5359c-1.17176,-0.63062 -2.34526,-2.76311 -3.93316,-3.0013c-2.54512,-0.38177 6.76861,11.02279 4.36787,9.90012c-1.97061,-0.92152 -14.13791,-8.93855 -14.55415,-8.43767c-1.65771,1.99486 6.151,10.64793 1.64255,10.96412c-4.27252,0.29964 -12.64466,-6.14097 -19.31001,-8.09982c-6.88537,-2.02349 -24.92958,0.55433 -25.37505,-0.82884c-0.38009,-1.18017 16.22849,-5.18049 22.83735,-8.03318c9.0592,-3.91037 21.24742,-8.41488 26.68114,-12.96706c2.36755,-1.98345 6.13429,-6.92893 7.72688,-10.94733c1.10031,-2.77628 -0.0359,-4.86146 1.51264,-6.23779c2.20372,-1.9586 2.4522,2.81085 2.12027,-2.29305c-0.37758,-5.80559 -9.80417,-24.26976 -9.83248,-30.64968c-0.02323,-5.23465 9.15231,0.9912 10.43242,0.75225c0.55428,-0.10346 0.44696,-8.19982 5.42957,-6.54171c4.62627,1.53952 14.35998,12.78677 15.02031,14.0431c0.69273,1.31796 -15.34625,6.66063 -14.1998,7.82406c0.36404,0.36943 6.5385,-3.61186 14.11585,-4.77171c9.49149,-1.45285 23.65615,-0.18223 24.30842,0.11948c0.3112,0.14395 -9.65203,2.39613 -15.59348,4.70622c-5.25544,2.04337 -11.13337,2.82834 -10.81562,2.87013c2.83016,0.37217 -1.3007,0.34482 1.7573,0.32128c3.58107,-0.02756 9.6895,-2.06118 13.23224,-2.36397c13.17151,-1.12577 22.44811,-0.76092 22.75112,3.7151c0.03523,0.52056 -2.49797,0.37487 -5.77314,0.81698c-8.14167,1.09905 -21.53936,2.72436 -16.37446,4.51651c-1.5349,-1.28928 -4.61435,-0.64772 -3.06961,-0.82921c1.20432,-0.14148 0.54112,-1.40109 1.98548,-1.669c2.60797,-0.48374 7.58015,-0.02548 10.85241,-0.16712c7.47105,-0.32341 13.23047,0.51711 14.38956,0.89007c5.40073,1.73784 -14.72779,5.18649 -11.53914,6.53864c1.82054,0.772 5.28028,-0.55174 6.93588,0.09316c7.36958,2.8707 10.84784,6.70881 8.79898,9.29138c-0.18316,0.23088 -12.68669,-2.32264 -12.81994,-1.42879c-0.1041,0.69829 1.93994,2.32044 3.68231,4.6066c3.08832,4.05218 6.57641,9.38925 5.08791,9.64933c-1.51414,0.26457 -7.65509,-3.55696 -9.64348,-4.03086c-12.60559,-3.00434 -27.82837,-6.86627 -22.14271,-3.82375c2.19355,1.17383 4.64462,-0.58736 6.45143,0.35053c12.10877,6.28548 10.42823,8.78299 10.06202,9.34557c-3.33814,0.48388 -6.21771,1.8346 -13.6514,0.82368c-8.19299,-1.11418 -15.73053,-2.40557 -15.68478,-2.26349z" fill="#23173a" stroke="none" stroke-width="0"/><path d="M248.19019,57.0272c0.26915,0.75292 3.93838,-1.27297 20.91534,8.63075c6.62511,3.86485 27.26075,45.03076 26.88084,45.5022c-0.84876,1.05323 0.74515,23.90149 -2.27105,23.54346c-1.36245,-0.16172 -7.96701,-19.68354 -13.5394,-26.95392c-9.84275,-12.842 -34.70509,-26.13945 -38.05358,-29.98937c-4.619,-5.31066 -15.52671,-8.18887 -21.54073,-8.13259c-13.87156,0.12981 -29.84287,7.12574 -33.73346,10.38558c-4.92303,4.1249 -13.96742,22.70043 -15.21694,23.1471c-1.0444,0.37334 -4.97548,-10.19918 -11.11071,-12.87441c-3.62113,-1.57897 -11.12828,-2.43136 -17.89474,3.11667c-2.83986,2.32849 -7.96446,7.73815 -12.19258,14.96611c-4.70647,8.04569 -9.45728,21.83577 -10.95277,21.50487c-3.81645,-0.84446 9.93381,-40.31111 10.96913,-43.85341c-1.04634,-3.10857 9.38657,-10.32391 8.65182,-12.37932c10.15698,-13.35409 29.16185,-20.25118 33.32231,-21.7384c4.16046,-1.48722 43.59015,-5.89607 59.09984,0.12468z" fill="#23173a" stroke="none" stroke-width="0"/><path d="M255.98738,131.76914c2.96192,4.92686 -5.95855,13.36952 -22.99778,19.60512c-17.03924,6.2356 -38.83283,5.86973 -45.43826,2.71937c-6.60543,-3.15037 8.84721,-10.37721 24.57214,-17.23965c12.1664,-5.30949 30.85582,-15.86118 39.76649,-15.27582c2.52103,0.16561 3.5297,9.24668 4.0974,10.19099z" fill="#86746e" stroke="none" stroke-width="0"/><path d="M251.36097,135.28098c-2.13127,4.47214 -3.70993,2.53323 -9.66511,6.11644c-9.45455,5.68876 -23.2947,11.25445 -29.50998,11.14524c-0.21241,-0.00373 -4.37448,0.28579 -4.58377,0.27711c-5.50943,-0.22862 -12.44594,-0.89815 -16.99499,-0.59222c-3.64571,0.24518 4.48292,-4.99106 21.6009,-10.62757c11.91196,-3.9223 12.16261,-3.38227 15.96539,-4.88507c3.52902,-1.39461 23.09146,-2.69699 23.09216,-1.7567c0.00314,4.14098 1.53048,-2.6885 0.0954,0.32277z" fill="#ffffff" stroke="#200000" stroke-width="0.5"/><path d="M127.38696,148.79797c-0.08142,-0.05574 -0.7858,0.48633 -0.78499,0.44153c0.00921,-0.50636 -1.39327,-0.05599 0.9679,-0.10259c6.7493,-0.13319 44.47511,1.2853 42.13289,2.85234c-1.72336,1.15299 -0.8073,-0.26065 -2.25604,1.57258c-0.05504,0.06964 -7.30869,3.11754 -7.36997,3.18451c-4.12613,0.95968 -6.34235,4.17478 -15.30835,2.88716c-5.64746,-0.81104 -8.0321,-1.67296 -13.45218,-4.28879c-3.64955,-1.76134 -0.18438,-2.34264 -4.59594,-5.36267z" data-paper-data="{&quot;index&quot;:null}" fill="#ffffff" stroke="#200000" stroke-width="0.5"/><path d="M147.96929,150.50754c1.11541,3.12034 -0.29909,5.81207 -3.15941,6.83454c-2.86031,1.02247 -6.08327,-0.67819 -7.19869,-3.79854c-1.11541,-3.12034 -2.03424,-2.81207 0.82608,-3.83454c2.86031,-1.02247 3.74994,-0.32181 9.53202,0.79854z" fill="url(#color-1)" stroke="none" stroke-width="0"/><path d="M107.6642,86.80886z" fill="url(#color-2)" stroke="none" stroke-width="0"/><path d="M217.33537,142.12137c1.11541,3.12034 -0.2991,6.47874 -3.15941,7.50121c-2.86031,1.02247 -6.08327,-0.67819 -7.19869,-3.79854c-1.11541,-3.12034 0.63243,-2.1454 3.49274,-3.16788c2.8603,-1.02246 5.74994,-3.65514 6.86536,-0.5348z" fill="url(#color-3)" stroke="none" stroke-width="0"/><path d="M195.99506,108.7784c1.85599,2.04468 1.28864,5.58296 -1.26722,7.90295c-2.55586,2.31999 -10.04521,17.57446 -11.9012,15.52978c-1.85599,-2.04468 2.6242,-20.61425 5.18006,-22.93424c2.55586,-2.31999 6.13238,-2.54317 7.98837,-0.49848z" fill="#23173a" stroke="none" stroke-width="0"/><path d="M153.56618,118.4476c1.64327,2.12989 2.53813,16.99028 0.83422,18.30489c-1.70391,1.31462 -5.36134,-11.41435 -7.00462,-13.54424c-1.64327,-2.12989 -1.59412,-4.92221 0.10979,-6.23682c1.70391,-1.31462 4.41733,-0.65371 6.0606,1.47617z" data-paper-data="{&quot;index&quot;:null}" fill="#23173a" stroke="none" stroke-width="0"/><path d="M109.54949,193.01338c0.01425,-0.09977 -4.14196,1.11813 -8.68326,2.24273c-4.12043,1.02037 -5.85906,0.21663 -7.78608,0.02945c-0.25307,-0.37115 -1.40757,-2.01643 4.92476,-6.87073c0.94488,-0.72433 2.47481,0.38057 3.61907,-0.52301c2.96589,-2.34208 -5.32541,0.98045 -12.20704,3.59851c-1.08551,0.41297 -4.24509,3.31101 -5.12284,3.19508c-0.86289,-0.11396 0.67276,-3.93906 2.08747,-6.8625c0.79816,-1.64934 1.8212,-2.85493 1.70522,-3.3309c-0.14846,-0.60928 -7.00927,1.69406 -7.13172,1.5432c-1.36971,-1.68773 0.283,-4.48088 4.21505,-6.77826c0.88335,-0.51612 2.94783,0.24372 3.91404,-0.36707c1.6923,-1.06976 -9.97075,-2.56381 -7.05925,-3.99561c0.62486,-0.30728 3.81256,-1.13725 8.06327,-1.24103c1.86177,-0.04545 4.63563,-0.57798 6.14978,-0.35901c0.83857,0.12128 0.56663,1.01705 1.25914,1.06181c0.88827,0.05742 -0.90539,-0.24957 -1.66777,0.7047c2.77371,-1.45888 -4.93449,-1.99216 -9.62782,-2.39287c-1.888,-0.16119 -3.3084,0.04972 -3.33105,-0.31006c-0.1948,-3.09343 5.02048,-3.7497 12.55994,-3.55031c2.02789,0.05363 5.64803,1.18628 7.67508,1.04883c1.73097,-0.11738 -0.60245,0.08188 0.96733,-0.29785c0.17624,-0.04263 -3.21144,-0.32607 -6.35009,-1.50269c-3.54834,-1.3302 -9.36593,-2.44487 -9.20175,-2.55752c0.34413,-0.23611 8.2491,-1.72918 13.73458,-1.14397c4.37923,0.4672 8.19603,2.93726 8.37164,2.66713c0.55305,-0.85069 -8.95265,-3.82674 -8.66878,-4.76397c0.2706,-0.8934 3.57409,-0.62583 6.06393,-1.88733c2.68162,-1.35867 10.06328,-17.21503 10.38514,-17.16803c0.74334,0.10853 -1.7096,15.46215 -1.29455,19.06542c0.50586,4.39164 -1.68206,10.47088 -1.42066,14.48254c0.22981,3.52679 -0.01983,0.23379 1.3864,1.48537c0.98816,0.87949 0.51629,2.36406 1.36552,4.22651c1.22917,2.69574 3.76349,5.93449 5.26437,7.196c3.44467,2.89529 10.70454,5.46274 16.14661,7.758c3.9701,1.67444 13.68806,3.70185 13.56968,4.53059c-0.13873,0.9713 -10.55206,-0.01451 -14.27964,1.67872c-3.60847,1.63913 -7.81536,6.43696 -10.25561,6.41739c-2.57502,-0.02067 1.13233,-6.31643 0.03186,-7.61679c-0.27631,-0.3265 -6.50011,5.72194 -7.53894,6.44216c-1.26558,0.87743 3.06766,-7.37752 1.65984,-7.00363c-0.87834,0.23327 -1.36741,1.75203 -1.97837,2.23717c-2.0985,1.66638 -4.88709,3.07076 -5.95153,2.91536c-0.85747,-0.12519 3.02554,-4.94188 2.89092,-7.06881c-0.01589,-0.25113 -2.26125,2.02511 -4.31427,3.04875c-2.43151,1.21237 -4.74645,1.23002 -4.94673,1.20517c-1.1598,-0.14386 6.05713,-6.93163 4.77317,-6.85558c-4.24063,0.25115 -8.73481,2.82135 -9.90325,1.60676c-1.5106,-1.57027 5.67845,-4.12826 5.93721,-5.93985z" data-paper-data="{&quot;index&quot;:null}" fill="#23173a" stroke="none" stroke-width="0"/><path d="M244.75532,258.38868c2.88872,5.49951 0.29076,18.37433 -8.51975,31.13305c-8.81384,12.76354 -23.84114,25.41014 -25.79726,26.43763c-3.91151,2.05459 -18.76682,-13.198 -24.54534,-24.1991c-1.7645,-3.35924 -3.52156,-4.42248 -4.99982,-8.50507c-1.05846,-2.92318 13.41293,5.73812 14.64072,3.86106c2.67308,-4.08664 6.93148,-13.98511 8.79338,-14.9631c2.13227,-1.12001 5.42821,7.17124 18.21,9.16634c10.66562,1.6648 19.58958,-27.93491 22.21808,-22.9308z" fill="#23173a" stroke="none" stroke-width="0"/><path d="M211.07977,144.74474c0.41619,0.46133 0.37961,1.1727 -0.08172,1.58889c-0.46133,0.41619 -1.1727,0.37961 -1.58889,-0.08172c-0.41619,-0.46133 -0.37961,-1.1727 0.08172,-1.58889c0.46133,-0.41619 1.1727,-0.37961 1.58889,0.08172z" fill="#ffffff" stroke="none" stroke-width="0"/><path d="M142.57262,150.74748c0.41619,0.46133 0.37961,1.1727 -0.08172,1.58889c-0.46133,0.41619 -1.1727,0.37961 -1.58889,-0.08172c-0.41619,-0.46133 -0.37961,-1.1727 0.08172,-1.58889c0.46133,-0.41619 1.1727,-0.37961 1.58889,0.08172z" fill="#ffffff" stroke="none" stroke-width="0"/><path d="M248.87394,126.92931c0,0.5291 -5.07598,-0.51785 -16.50164,2.60399c-4.47617,1.22303 -14.39686,4.52344 -17.99836,6.72935c-9.79601,6 -19.38748,9.40178 -24.46325,12.39564c-5.12909,3.02531 -6.03675,1.97447 -6.03675,1.60436c0,-0.73638 50.8296,-29.33333 65.83333,-29.33333c1.49975,0 -0.06918,-3.84915 -4.90568,-7.19283c-5.66628,-3.91735 -14.82401,-7.38928 -13.88336,-6.89073c1.02839,0.54505 7.33366,0.99223 14.09913,4.1052c5.58286,2.56882 11.69179,7.69736 13.53761,9.64962c2.57228,2.72062 5.5803,7.32844 4.67464,7.76341c-2.47288,1.18769 -14.35567,-1.73071 -14.35567,-1.43468z" fill="#000000" stroke="none" stroke-width="0"/><path d="M170.14059,149.28808c-0.07244,0.91762 -9.72719,0.90392 -21.56448,-0.03061c-3.95096,-0.31192 -18.46178,-2.87443 -22.27173,-4.40792c-1.37414,-0.55309 -5.02975,1.23111 -5.72756,0.69894c-3.16405,-2.413 16.32427,-18.14374 16.36381,-18.64462c0.02008,-0.25436 -10.5573,15.81858 -8.74099,16.55868c4.73625,1.92991 12.08271,1.79644 20.63881,2.47193c11.83729,0.93452 21.37458,2.43598 21.30214,3.3536z" fill="#23173a" stroke="none" stroke-width="0"/><path d="M237.35999,235.22655c0,1.76801 -6.06088,-1.45653 -10.6265,0.09739c-8.27012,2.81475 -24.14418,17.90261 -33.04016,17.90261c-13.80712,0 -10.66667,-2.36277 -16,-7.66667c-0.70421,-0.70033 -2.81484,-3.69906 -3.43985,-6.02548c-0.76729,-2.856 0.41818,-2.8115 2.08187,-5.12917c0.81644,-1.13738 11.32713,0.50049 13.79271,-0.4133c8.90009,-3.29857 22.89909,-8.76538 28.89861,-8.76538c13.80712,0 18.33333,5.02944 18.33333,10z" fill="#940800" stroke="#000000" stroke-width="0.5"/><path d="M232.35229,204.89835c7.96516,11.94775 19.18708,39.12339 16.4299,40.96151c-2.75717,1.83811 -18.44934,-32.35736 -26.41451,-44.30511c-7.96516,-11.94775 -20.18708,-23.12339 -17.4299,-24.96151c2.75717,-1.83811 19.44934,16.35736 27.41451,28.30511z" fill="#d99881" stroke="none" stroke-width="0"/><path d="M165.35999,212.22655c0,2.29555 -0.19734,8.92913 0.52985,12.2117c2.94681,13.30223 10.79466,28.12163 8.13682,28.12163c-1.80215,0 -3.94448,-6.16568 -7.65269,-15.78495c-3.11028,-8.06823 -8.01398,-19.25791 -8.01398,-24.54838c0,-11.59798 2.68629,-29 6,-29c3.31371,0 1,17.40202 1,29z" fill="#d99881" stroke="none" stroke-width="0"/><g><path d="M173.73127,145.79682c1.4803,-0.36709 5.52512,0.51176 10.56438,5.45433c6.06318,5.94685 15.58166,16.17632 19.31649,25.13527c0.30435,0.73006 3.65354,3.29014 4.72484,3.57318c1.88667,0.49848 2.86047,-1.60092 3.32291,-0.70347c0.49866,0.96774 1.87271,1.86216 2.0888,2.81904c2.65504,11.75678 -26.62136,28.75395 -30.00788,29.59375c-1.15523,0.28648 -2.65326,-2.01904 -5.64424,-2.36399c-8.49055,-13.08188 -9.56979,-9.12218 -14.10525,-17.92399c-2.46481,-4.78339 -4.6236,-17.72953 -3.66247,-24.61399c1.62242,-11.62113 7.76933,-17.73317 10.06908,-18.30347z" fill="#ffcbb8" stroke="#710000" stroke-width="0.5"/><path d="M184.92411,145.57744c0.40522,1.79804 -3.46852,3.71142 -8.65225,4.27365c-5.18373,0.56223 -9.71448,-0.4396 -10.1197,-2.23764c-0.40522,-1.79804 3.46852,-3.71141 8.65225,-4.27364c5.18373,-0.56223 9.71447,0.43959 10.1197,2.23764z" fill="#ffddd1" stroke="none" stroke-width="0"/><path d="M213.43019,183.97058c0.3249,0.63053 -4.15059,-1.59712 -6.27817,0.65219c-3.35268,3.54452 -7.74853,11.78981 -10.35024,16.58137c-1.65151,3.04156 -8.229,7.83465 -8.48358,7.89779c-0.38052,0.09436 8.58703,-8.75106 10.34347,-13.08166c0.64839,-1.59865 1.58024,-3.26346 2.25272,-4.66083c1.86275,-3.87073 2.29972,-7.63598 1.80296,-8.60001c-1.16189,-2.25485 -9.05791,-20.22359 -8.14781,-20.44928c0.44286,-0.10982 6.39244,11.62397 10.71928,15.89876c3.20145,3.16292 5.56146,0.00184 6.02607,0.73564c0.19791,0.31257 1.93709,4.68024 2.11528,5.02604z" fill="#e1a088" stroke="#710000" stroke-width="0"/></g><path d="M198.92322,175.07204c1.85262,5.46098 4.65521,11.47774 1.2303,17.00082c-2.05413,3.31252 -9.03673,9.91279 -13.6523,11.45141c-2.75682,0.919 -4.98716,0.59469 -6.7066,0.02539c-1.89163,-0.62632 -3.1649,-1.54916 -3.84055,-1.43925c-0.82296,0.13388 -5.01944,-4.28342 -8.48731,-11.77748c-3.12732,-6.75813 -5.66211,-16.5787 -4.59595,-17.9801c3.54443,-4.65893 13.03778,-5.41931 18.46905,-5.15362c0.02877,-0.53817 3.92973,3.91961 4.35757,6.88677c1.1512,7.98368 0.03703,21.81499 3.75779,24.36233c1.96658,1.34638 6.31914,-22.2217 6.29855,-22.79899c-0.38517,-10.79988 -10.31111,-15.42848 -6.92875,-15.97872c4.03236,-0.65598 5.74062,2.55669 10.09818,15.40143z" fill="#f7b8a2" stroke="none" stroke-width="0"/><path d="M216.39696,262.5854c0,3.6819 -6.64111,6.66667 -14.83333,6.66667c-5.24129,0 -6.84766,1.44491 -9.48613,-0.39949c-1.4855,-1.03843 -5.3472,-4.94091 -5.3472,-6.26717c0,-0.9381 -0.47358,-2.48472 -0.05029,-2.77846c1.23804,-0.85914 5.112,1.44512 11.21696,1.44512c3.31852,0 14.98417,-3.71871 18.17119,-3.93251c4.68059,-0.314 0.32881,3.07541 0.32881,5.26585z" fill="url(#color-4)" stroke="none" stroke-width="0"/><path d="M214.39696,230.0854c0,1.01252 -18.70592,7.5 -25.33333,7.5c-1.86368,0 -6.9914,0.5536 -7.76176,1.97619c-0.66352,1.22529 -0.23605,6.08798 -1.27165,5.30784c-3.21632,-2.42293 -5.29993,-5.6348 -5.29993,-6.11736c0,-0.20063 -1.45191,-3.75565 1.06948,-4.54246c2.79338,-0.87168 8.39541,0.36908 14.33772,-0.32685c3.89167,-0.45577 8.11964,-2.69404 11.13665,-3.58252c2.24891,-0.66228 4.13316,-1.67545 6.24288,-2.32473c1.48867,-0.45814 10.75905,-2.39456 12.89145,-2.44882c11.87584,-0.30218 10.29327,2.05871 11.98849,2.05871c2.21989,0 -1.98859,1.13894 -6.02269,0.95935c-0.89699,-0.03993 -2.46851,-1.37951 -3.31597,-1.3351c-1.50176,0.0787 -2.48993,8.64978 -3.26805,9.14095c-1.26169,0.79641 -1.13218,-1.10537 -2.0811,-2.68548c-1.18978,-1.98117 -3.31219,-3.83804 -3.31219,-3.57973z" fill="#ffffff" stroke="none" stroke-width="0"/><path d="M217.39696,240.75207c0,1.23039 -11.77009,7.84189 -18.68844,10.61157c-1.88037,0.75278 -3.71104,1.22177 -4.47822,1.22177c-1.16259,0 -5.04171,0.93688 -6.60056,0.79836c-1.48273,-0.13175 -3.70054,-0.45126 -4.58706,-2.31192c-1.05939,-2.22349 0.02095,-6.07709 0.02095,-6.65311c0,-0.74495 1.975,4.42615 4.08258,3.76207c1.47515,-0.46481 2.84521,-0.84887 4.37369,-1.06689c0.87486,-0.12479 2.02574,-0.19518 2.7104,-0.19518c1.00853,0 1.17577,-1.57997 3.9379,-2.04335c2.04469,-0.34302 6.56603,0.67921 8.39823,-0.52497c0.94509,-0.62114 3.06465,-1.07393 3.59533,-2.06753c0.53254,-0.99709 1.0613,-2.52853 1.57638,-4.26283c0.57841,-1.94753 1.13957,-4.06385 1.66948,-4.26884c2.28524,-0.88399 3.98935,6.56154 3.98935,7.00085z" fill="#ffffff" stroke="none" stroke-width="0"/></g></g></svg>