<svg version="1.1" xmlns="http://www.w3.org/2000/svg" xmlns:xlink="http://www.w3.org/1999/xlink" width="318.75668" height="395.36737" viewBox="0,0,318.75668,395.36737"><defs><linearGradient x1="321.341" y1="112.8361" x2="325.91106" y2="123.93181" gradientUnits="userSpaceOnUse" id="color-1"><stop offset="0" stop-color="#000000"/><stop offset="1" stop-color="#86746e"/></linearGradient><linearGradient x1="146.89788" y1="-28.83193" x2="146.89693" y2="-28.82962" gradientUnits="userSpaceOnUse" id="color-2"><stop offset="0" stop-color="#000000"/><stop offset="1" stop-color="#86746e"/></linearGradient><linearGradient x1="259.57775" y1="144.1994" x2="255.0077" y2="155.2951" gradientUnits="userSpaceOnUse" id="color-3"><stop offset="0" stop-color="#000000"/><stop offset="1" stop-color="#86746e"/></linearGradient><linearGradient x1="319.875" y1="184.48579" x2="319.875" y2="203.48579" gradientUnits="userSpaceOnUse" id="color-4"><stop offset="0" stop-color="#f7490a"/><stop offset="1" stop-color="#8c0606"/></linearGradient></defs><g transform="translate(-98.82181,-22.07749)"><g data-paper-data="{&quot;isPaintingLayer&quot;:true}" fill-rule="nonzero" stroke-linecap="butt" stroke-linejoin="miter" stroke-miterlimit="10" stroke-dasharray="" stroke-dashoffset="0" style="mix-blend-mode: normal"><path d="M100.27819,66.35729c-8.04316,-19.5281 19.20665,-37.85901 33.3477,-43.68337c14.14104,-5.82436 84.54616,32.4516 92.58932,51.9797c1.88905,4.58645 -4.81786,13.78403 -2.11482,16.89274c8.80592,10.12746 -2.61849,-6.89639 -13.43831,-2.43997c-3.91191,1.61122 -17.83304,-6.61963 -32.10891,-11.59432c-6.63654,-2.31263 -13.34974,-3.92156 -19.16966,-3.51089c-26.91634,1.89931 -54.32154,3.97071 -59.10533,-7.64391z" data-paper-data="{&quot;index&quot;:null}" fill="#23173a" stroke="none" stroke-width="0"/><path d="M238.08877,84.49122c35.23593,-14.74156 100.29051,-3.37987 107.86242,15.29382c1.46781,3.61987 38.73002,31.97096 36.11757,35.62365c-10.86423,15.19025 -90.00347,5.59569 -118.40894,17.47961c-28.79636,12.04746 -16.36592,189.11467 -29.9323,178.54626c-0.62034,-0.48325 -28.62182,87.44306 -34.2684,64.86167c-1.24148,-4.96483 -7.71748,11.41865 -6.06636,-8.94171c0.98916,-12.19763 9.78066,-35.98794 13.48835,-58.3596c1.4941,-9.01522 -0.35269,-25.46504 0.01538,-28.99837c0.7789,-7.47706 -1.02134,-47.16872 -2.04275,-54.73026c-4.51924,-33.45601 -17.17981,-57.29605 -19.24936,-61.84389c-2.48429,-5.45921 -10.26037,-17.56684 -10.22303,-18.86779c0.85792,-29.89027 27.47149,-65.32184 62.70742,-80.0634z" data-paper-data="{&quot;index&quot;:null}" fill="#23173a" stroke="none" stroke-width="NaN"/><path d="M247.04106,414.80433c-17.44546,-6.22061 -37.84038,3.29596 -55.30973,-5.70656c-3.66092,-1.88659 -10.31311,-6.0069 -10.31311,-6.0069c0,0 1.25722,-35.90125 16.81384,-59.71961c10.01969,-15.3409 9.48774,-50.79478 10.27851,-61.72313c2.00806,-27.75128 -1.49891,-102.55776 -1.49891,-102.55776l56.29151,30.4772c0,0 20.65619,8.55503 23.38616,30.03983c4.02898,31.70795 35.98364,167.30485 35.98364,167.30485c0,0 -50.39311,16.89162 -75.63191,7.89209z" data-paper-data="{&quot;index&quot;:null}" fill="#412a6a" stroke="none" stroke-width="0"/><g data-paper-data="{&quot;index&quot;:null}" stroke="#000000"><path d="M323.54354,124.41469c-0.59823,-1.45248 -3.72415,-27.93058 -3.745,-29.89928c-0.1457,-13.76101 26.17071,-47.53545 32.16244,-50.0033c6.84892,-2.8209 6.26768,26.95621 11.04755,38.56133c2.43606,5.91455 -3.20004,23.89459 -8.78949,34.35792c-5.37778,10.0671 -10.604,12.71224 -13.96236,14.09547c-6.84893,2.82091 -6.22071,18.36261 -11.00058,6.75749z" fill="#ffddd1" stroke-width="0.5"/><path d="M333.28278,98.94301c-2.82092,-6.84893 11.30839,-36.08478 15.11335,-37.65195c1.92219,-0.79171 10.99114,19.07219 10.59335,30.86392c-0.38964,11.54989 -10.24179,14.98843 -8.84595,18.37742c0.55164,1.33932 -0.9928,2.80679 -0.01751,-2.79721c0.75784,-4.35456 4.11275,-15.01825 4.25304,-20.24433c0.22783,-8.48676 -1.74616,-15.44438 -2.71439,-18.83774c-0.72765,-2.55025 -4.57999,-4.59207 -6.231,-0.01193c-1.04582,2.90125 -0.29367,7.89851 0.77402,12.62671c0.93448,4.13827 1.97383,1.86876 1.58262,2.02989c-1.50841,0.62127 -7.49975,-4.00958 -9.75879,-1.447c-1.93253,2.1922 4.19482,15.47063 3.63065,19.9507c-0.43991,3.49335 -7.63344,-1.04738 -8.3794,-2.8585z" fill="#be8571" stroke-width="0"/></g><path d="M170.02813,180.78296c-13.49197,-32.75735 17.68765,-96.29366 62.32429,-114.67843c44.63664,-18.38477 110.63516,11.28849 124.12713,44.04584c8.02721,19.48936 -0.16598,27.69426 -5.84938,52.03021c-2.33104,9.98134 -6.52147,48.67149 -5.2808,66.09123c0.1563,2.19463 0.65701,0.2295 1.09466,1.42061c1.92428,5.23708 7.63977,25.35575 7.3581,24.80138c-9.41168,6.74706 -8.20054,8.37335 -13.73699,10.84067c-8.72688,3.88915 -14.68154,7.14029 -21.70885,7.73836c-8.80186,0.74908 -13.34927,-1.39785 -27.83947,-13.01165c-1.85553,-1.4872 -5.8413,-10.99844 -7.97874,-12.51395c-6.02477,-4.27173 -45.52179,-32.2788 -48.89853,-31.52156c-31.34449,7.02897 -54.27063,-12.5641 -63.61141,-35.24272z" data-paper-data="{&quot;index&quot;:null}" fill="#ffddd1" stroke="#003737" stroke-width="0.5"/><path d="M296.67726,120.76735c-1.10127,-2.16845 -3.71095,-3.67242 -2.1927,-7.66243c2.07788,-5.46069 9.26844,-13.83173 14.63956,-18.93552c4.15706,-3.95016 11.42133,-5.54119 14.82401,-8.12124c5.0937,-3.86224 2.20776,1.04276 5.00705,-1.27933c1.57343,-1.30521 0.25717,1.25318 1.37144,1.73001c1.24932,0.53462 -1.22489,0.64656 -0.61279,2.31702c1.42076,3.87725 3.38187,11.02679 6.42368,17.01626c5.52119,10.87149 4.39446,25.94149 -5.43585,29.22513c-9.83031,3.28366 -28.5032,-3.41842 -34.02439,-14.28991z" data-paper-data="{&quot;index&quot;:null}" fill="#86746e" stroke="none" stroke-width="0"/><path d="M191.56024,154.15035c-0.42171,-7.68279 10.40132,-13.24578 24.32407,-19.17152c13.34761,-5.68095 41.52675,-9.86718 53.94716,-8.23985c4.32454,0.5666 2.92818,4.27736 4.67398,6.27237c6.75987,7.72481 10.22575,25.58703 -6.4242,34.78301c-16.64994,9.19598 -37.65657,10.14142 -49.02845,4.0519c-2.1796,-1.16715 -27.37325,-15.52227 -27.49256,-17.69591z" data-paper-data="{&quot;index&quot;:null}" fill="#86746e" stroke="none" stroke-width="0"/><path d="M338.375,214.98579c0,1.34306 -12.32126,-4.4222 -12.92221,-0.48812c-0.68455,4.48134 10.76865,18.74563 12.13791,25.31819c1.63024,7.82524 -6.8585,7.66993 -9.2157,7.66993c-2.56702,0 0.78627,27.53509 -6.0341,24.33418c-9.32079,-4.3744 -38.9659,-32.12336 -38.9659,-34.83418c0,-4.69442 32.92487,-28.5 39,-28.5c6.07513,0 16,1.80558 16,6.5z" fill="#f7b8a2" stroke="none" stroke-width="0"/><g data-paper-data="{&quot;index&quot;:null}" stroke="#000000"><path d="M170.95885,162.43368c1.37171,1.41231 19.59485,16.26473 20.19309,17.7172c4.77987,11.60512 -1.80162,20.14542 -8.65054,22.96633c-3.35837,1.38323 -8.93151,3.18608 -19.83934,-0.17335c-11.33717,-3.49166 -28.00132,-12.28676 -30.43738,-18.20131c-4.77988,-11.60513 -26.16386,-32.33528 -19.31494,-35.15619c5.99173,-2.46785 48.46097,2.97542 58.04911,12.84731z" fill="#ffddd1" stroke-width="0.5"/><path d="M127.25757,158.98748c3.80497,-1.56717 34.42585,9.23713 37.24676,16.08606c0.74596,1.81112 -1.16297,10.10093 -3.93557,7.93074c-3.55574,-2.78318 -8.55747,-16.52521 -11.47333,-16.72048c-3.40852,-0.22825 -4.40052,7.27888 -5.90892,7.90015c-0.39121,0.16113 1.94501,1.04032 -0.30607,-2.55567c-2.57198,-4.10862 -5.55747,-8.18601 -8.3432,-9.50914c-4.39778,-2.08879 -5.69464,2.07387 -4.41514,4.39682c1.7025,3.09093 5.20121,9.42056 11.33998,15.28506c3.78021,3.61132 13.67213,8.81895 17.27695,11.37663c4.63916,3.29156 2.50922,3.33748 1.95758,1.99815c-1.39584,-3.38899 -10.81182,1.10855 -19.22276,-6.81659c-8.58705,-8.09108 -16.13848,-28.58002 -14.21629,-29.37172z" fill="#be8571" stroke-width="0"/></g><path d="M209.38394,205.69005c-0.07184,-0.12668 -4.62448,5.32798 -9.78752,11.05517c-4.68454,5.19641 -7.79018,5.99484 -10.5887,7.6746c-0.68453,-0.17086 -3.76346,-0.89632 0.43008,-12.59426c0.62574,-1.74552 3.72228,-1.9989 4.45589,-4.14257c1.90151,-5.55632 -6.36394,6.33389 -13.3518,16.04491c-1.10226,1.53181 -2.75934,7.90625 -4.06213,8.63672c-1.28072,0.71813 -2.68567,-5.10974 -3.43078,-9.80044c-0.42037,-2.64638 -0.12824,-5.01221 -0.72174,-5.43606c-0.7597,-0.54255 -8.00701,8.79255 -8.31196,8.74228c-3.41118,-0.56218 -3.71264,-5.33927 -0.45298,-11.79331c0.7323,-1.44992 4.24201,-2.61771 5.0007,-4.25589c1.32882,-2.86924 -15.93927,6.88935 -13.27931,2.41463c0.57087,-0.96035 4.15789,-5.02631 9.85843,-9.3152c2.49678,-1.8785 5.79161,-5.20234 8.05631,-6.441c1.25425,-0.686 1.70281,0.59275 2.68793,-0.03633c1.26359,-0.80688 -1.46268,0.60664 -1.6293,2.43279c2.44734,-4.37007 -8.54989,2.59244 -15.31534,6.74588c-2.72154,1.67082 -4.46522,3.30304 -4.82518,2.91889c-3.09506,-3.30312 3.41526,-9.16275 13.87702,-16.33679c2.81389,-1.92961 8.78563,-4.20302 11.42361,-6.34766c2.25266,-1.83136 -0.7465,0.68374 1.04643,-1.28579c0.20129,-0.22112 -4.67677,2.7834 -10.03224,4.53461c-6.05454,1.9798 -15.00586,6.43011 -14.88505,6.14173c0.25322,-0.60443 9.66529,-10.049 17.67953,-14.77145c6.398,-3.77007 13.86115,-4.72576 13.85351,-5.20324c-0.02407,-1.5037 -15.70634,4.46358 -16.17654,3.12632c-0.44822,-1.27473 4.30054,-4.21457 6.54136,-8.08309c2.41341,-4.1665 2.3663,-9.23967 2.84811,-9.50247c1.11274,-0.60693 5.15899,4.26467 9.02066,7.92754c4.70656,4.46426 9.54489,8.27514 13.5706,12.5501c3.53915,3.75825 0.18681,0.28355 3.24884,0.31722c2.1517,0.02368 2.86623,2.16371 5.7276,3.43409c4.14155,1.83873 10.55921,3.00998 13.75941,2.96198c7.34472,-0.11016 19.59125,-4.33491 29.11043,-7.08309c6.94442,-2.00486 22.0484,-9.25202 22.64503,-8.19971c0.69926,1.23332 -14.40008,10.3395 -17.93356,15.9104c-3.42056,5.3929 -4.76789,14.94116 -8.11288,17.31393c-3.5297,2.5038 -4.23355,-8.24622 -6.92335,-8.63509c-0.67538,-0.09764 -3.62869,12.84266 -4.38628,14.67573c-0.92295,2.23319 -2.56546,-11.34415 -4.14292,-9.54018c-0.98418,1.12551 -0.26185,3.32105 -0.65108,4.46865c-1.33696,3.9418 -3.85441,8.26491 -5.44782,9.13404c-1.28356,0.70012 -0.3951,-8.55156 -2.52407,-10.82199c-0.25137,-0.26806 -1.23072,4.50674 -3.09354,7.67788c-2.20624,3.75578 -5.34632,6.04761 -5.6421,6.2161c-1.71287,0.97573 1.91826,-13.77438 0.23724,-12.42838c-5.55201,4.44548 -9.32855,11.75936 -12.03255,11.53409c-3.49582,-0.29123 3.9661,-10.2361 2.66191,-12.53638z" data-paper-data="{&quot;index&quot;:null}" fill="#23173a" stroke="none" stroke-width="0"/><path d="M181.88965,83.15896c-2.83946,-6.89398 21.34664,-21.14449 25.43197,-22.82714c4.08533,-1.68265 53.69898,-11.45802 56.53845,-4.56404c0.45904,1.11452 -0.25904,-0.89864 3.25575,-1.07502c2.85016,-0.14303 10.02466,1.4354 10.6092,2.78279c0.3129,0.72125 -1.60052,-2.65035 8.49455,1.05843c15.31657,5.62709 34.10567,12.5902 32.73864,14.509c-0.88873,1.24745 -24.15898,-5.92145 -33.04294,-8.74266c-7.98103,-2.53448 -14.48232,1.79398 -18.15065,1.96739c-8.74041,0.41318 -3.26264,-5.00788 -4.89362,-1.40987c-2.76334,6.09605 -0.60008,18.57932 -1.62562,19.00171c-0.81905,0.33735 -4.63944,-2.21436 -14.98246,-3.21346c-0.76681,-0.07407 -4.63082,0.39922 -5.55313,0.40767c-5.27311,0.04831 -18.95193,1.7459 -20.76806,1.8124c-5.07235,0.18573 -16.11717,9.68977 -26.50365,18.88532c-4.50306,3.98673 -10.67396,13.43037 -10.54616,20.46755c0.14511,7.98973 6.70136,57.92248 4.20257,60.77935c-1.99968,2.28625 -22.68489,-26.92681 -24.0206,-27.14028c-0.59788,-0.09555 -6.65381,-21.74268 -4.32361,-29.05016c5.9712,-18.72553 14.44389,-32.40964 14.13938,-33.14897z" data-paper-data="{&quot;index&quot;:null}" fill="#23173a" stroke="none" stroke-width="0"/><path d="M228.81091,157.40767c-8.15109,-0.95448 -20.54913,-4.04842 -31.89407,-6.45631c-2.5761,-0.54675 -5.18712,0.57439 -1.60902,-0.57085c9.39641,-3.00749 76.46753,-19.97676 75.75346,-16.79227c-0.52539,2.34306 1.78576,6.57592 2.79088,9.76178c0.03819,0.12103 -0.46886,2.25918 -0.44403,2.37905c0.72651,3.50762 -5.37393,9.50152 -20.30899,11.4352c-9.40722,1.21797 -12.18276,1.66094 -24.28822,0.24339z" data-paper-data="{&quot;index&quot;:null}" fill="#ffffff" stroke="#200000" stroke-width="0.5"/><path d="M326.13991,99.66942c3.04616,4.83143 7.09181,10.29336 8.07869,13.45945c1.46566,4.70208 0.61169,5.47797 -1.8436,8.21921c-3.89807,4.35205 -13.55422,4.08186 -18.94557,2.45287c-0.18425,-0.05567 -3.52804,-0.72347 -3.71326,-0.78416c-4.87595,-1.59776 -11.29542,-4.05465 -14.95783,-4.7968c-4.9776,-1.00866 25.3666,-17.29269 30.59417,-19.32605c1.99062,-0.77428 0.09571,-0.32159 0.7874,0.77548z" data-paper-data="{&quot;index&quot;:null}" fill="#ffffff" stroke="#200000" stroke-width="0.5"/><path d="M321.341,112.8361c2.80867,-1.15682 6.10857,0.38925 7.37056,3.45324c1.26199,3.064 0.00816,6.48564 -2.8005,7.64246c-2.80867,1.15682 -6.10857,-0.38925 -7.37056,-3.45324c-1.26199,-3.064 -0.00816,-6.48564 2.8005,-7.64246z" data-paper-data="{&quot;index&quot;:null}" fill="url(#color-1)" stroke="none" stroke-width="0"/><path d="M212.58106,36.93218z" fill="url(#color-2)" stroke="none" stroke-width="0"/><path d="M262.37825,151.84186c-1.26199,3.06399 -4.5619,4.61006 -7.37056,3.45324c-2.80866,-1.15682 -4.06249,-4.57846 -2.8005,-7.64246c1.26199,-3.06399 4.56189,-4.61006 7.37056,-3.45324c2.80865,1.15682 4.06249,4.57846 2.8005,7.64246z" fill="url(#color-3)" stroke="none" stroke-width="0"/><path d="M225.27486,115.04156c-1.2452,-3.81897 0.80888,-8.50875 4.5879,-10.47492c3.77902,-1.96618 25.91724,3.88609 27.16243,7.70504c1.24518,3.81895 -18.87418,4.15846 -22.65319,6.12463c-3.77902,1.96618 -7.85195,0.46418 -9.09714,-3.35477z" data-paper-data="{&quot;index&quot;:null}" fill="#23173a" stroke="none" stroke-width="0"/><path d="M301.55289,79.43709c2.90912,1.27283 3.10519,4.06313 0.43799,6.23231c-2.66721,2.16918 -8.2783,14.98324 -11.1874,13.7104c-2.9091,-1.27283 -2.01458,-16.15057 0.65262,-18.31975c2.6672,-2.16917 7.18769,-2.8958 10.09679,-1.62296z" data-paper-data="{&quot;index&quot;:null}" fill="#23173a" stroke="none" stroke-width="0"/><path d="M376.79481,132.91154c1.37538,1.9641 13.89469,2.50363 12.39766,4.77404c-1.15794,1.75615 -9.50656,0.32061 -16.21493,1.4248c-2.03114,0.33431 12.80622,5.64838 11.08581,6.19076c-0.29709,0.09366 -3.89491,0.83153 -8.31596,0.25639c-3.73287,-0.48561 -8.43754,-2.32488 -8.32711,-2.03565c0.93523,2.44952 9.54468,6.62581 8.28287,7.04809c-1.5664,0.52422 -6.64422,-0.15119 -10.79326,-1.34881c-1.20794,-0.34866 -2.78285,-1.90621 -4.2698,-1.88248c-2.38331,0.03803 8.77317,7.95541 6.33954,7.37739c-1.99761,-0.47445 -14.89791,-5.27749 -15.15061,-4.81779c-1.00646,1.83091 8.12618,7.73745 4.14582,8.60378c-3.77206,0.82099 -12.87341,-3.22794 -19.34835,-3.90043c-6.68867,-0.69468 -22.29995,3.82917 -23.03737,2.77609c-0.6292,-0.89852 13.344,-6.37273 18.59742,-9.56611c7.2012,-4.37736 17.07374,-9.65764 20.85611,-14.05974c1.64802,-1.91805 3.83455,-6.41056 4.29006,-9.86169c0.31471,-2.38435 -1.21515,-3.90885 -0.15643,-5.227c1.50665,-1.87582 2.8907,1.93011 1.35017,-2.13374c-1.75234,-4.62257 -2.68744,-9.50184 -4.2652,-14.63415c-1.29455,-4.211 -3.56304,-9.15013 -2.46917,-9.51621c0.47363,-0.1585 4.92655,2.45589 9.81397,3.11462c4.53789,0.61161 9.51465,-0.77245 10.41459,0.14936c0.94408,0.96703 -12.18992,7.44462 -10.87513,8.22566c0.41748,0.24801 5.00538,-3.79498 11.54225,-5.75697c8.18817,-2.4576 21.24448,-3.35682 21.90489,-3.20244c0.31508,0.07365 -8.10314,3.23876 -12.88793,5.90475c-4.23235,2.35817 -9.33106,3.78774 -9.03495,3.77825c2.6375,-0.08442 -1.08664,0.45411 1.65962,0.02019c3.216,-0.50813 8.21835,-2.97421 11.33288,-3.69871c11.5795,-2.69366 20.01653,-3.65874 21.37827,-0.09645c0.15837,0.41429 -2.15679,0.64076 -4.99663,1.44113c-7.05951,1.98961 -18.721,5.11611 -13.63693,5.85802c-1.69498,-0.82965 -4.31018,0.10471 -2.96418,-0.25101c1.04936,-0.27733 0.14608,-1.20138 1.3807,-1.61305c2.22928,-0.74333 6.81539,-1.04912 9.72572,-1.60719c6.64472,-1.27417 12.03228,-1.37905 13.16612,-1.23608c5.28309,0.66618 -11.99202,6.17394 -8.79348,6.82978c1.82619,0.37446 4.61764,-1.16072 6.26448,-0.86619c7.33055,1.31102 11.39457,3.92889 10.17911,6.28603c-0.10866,0.21071 -11.98223,-0.14828 -11.88466,0.58938c0.07622,0.57627 2.31039,1.60482 4.43464,3.20886c3.76518,2.84314 8.20275,6.66642 6.92649,7.07779c-1.29824,0.41846 -7.75444,-1.82476 -9.65916,-1.93645c-12.07508,-0.70809 -26.71413,-1.75143 -20.85718,-0.07358c2.25965,0.64733 4.03691,-1.10312 5.89111,-0.59325c12.42632,3.417 11.52161,5.65567 11.32894,6.15826c-2.88635,0.84253 -5.14911,2.32069 -12.08485,2.51558c-7.64418,0.2148 -14.74162,0.19801 -14.66588,0.30618z" data-paper-data="{&quot;index&quot;:null}" fill="#23173a" stroke="none" stroke-width="0"/><path d="M289.97793,260.86471c-2.15266,-5.22649 22.16022,13.24234 27.72497,3.99245c6.66886,-11.08517 13.06343,-26.98059 15.29045,-27.89785c2.83784,-1.16885 8.80753,6.32608 13.77494,14.86361c2.1836,3.75296 9.17352,-7.29262 10.61859,-3.7841c4.73245,11.48997 0.25705,37.16849 -3.82828,38.85114c-1.00399,0.41352 -6.00826,8.22909 -11.54777,7.5451c-17.0013,-2.09925 -47.46347,-16.90409 -51.0329,-25.57036z" data-paper-data="{&quot;index&quot;:null}" fill="#23173a" stroke="none" stroke-width="0"/><g data-paper-data="{&quot;index&quot;:null}"><path d="M287.09199,116.49064c3.70418,-1.18201 33.09163,16.10066 37.12,29.68665c2.7576,9.30026 1.5685,19.01841 -3.25168,22.9749c-2.22124,1.82323 -9.40478,-0.13015 -10.57327,0.24271c-3.42539,1.09305 -27.24729,2.23406 -33.74838,-8.42392c-0.52912,-0.86745 -0.05326,-2.28603 -0.35646,-3.30857c-0.28117,-0.94827 2.07856,0.20413 3.27185,-1.16769c0.67758,-0.77895 1.55632,-4.53664 1.26811,-5.27079c-3.53678,-9.00917 -3.22492,-22.02034 -2.60508,-29.85896c0.51517,-6.51487 7.37761,-4.39657 8.8749,-4.87436z" fill="#ffcbb8" stroke="#710000" stroke-width="0.5"/><path d="M271.70165,120.58487c-0.99494,-1.62957 2.01515,-4.76978 6.72321,-7.01386c4.70807,-2.24408 9.33126,-2.74226 10.3262,-1.1127c0.99494,1.62956 -2.01515,4.76978 -6.72321,7.01386c-4.70806,2.24408 -9.33126,2.74225 -10.3262,1.11269z" fill="#ffddd1" stroke="none" stroke-width="0"/><path d="M276.27887,161.22498c-0.10834,-0.36538 0.09982,-2.96521 0.0324,-3.31458c-0.15828,-0.8202 2.13481,-1.29846 2.44515,-5.45545c0.41943,-5.61829 -3.33682,-17.96644 -2.88888,-18.10938c0.92055,-0.29375 7.67873,17.9858 8.38518,20.36834c0.30203,1.01863 3.44993,3.76447 7.8564,5.85428c1.59078,0.75443 3.59421,1.5855 5.31399,2.51132c4.65873,2.50796 10.70118,4.79435 10.31629,4.91717c-0.2575,0.08217 -1.3225,-0.24448 -4.94052,-1.78925c-5.69969,-2.43357 -15.44048,-6.66333 -20.8392,-7.72303c-3.42598,-0.67248 -5.48326,3.4068 -5.68081,2.74057z" fill="#e1a088" stroke="#710000" stroke-width="0"/></g><path d="M278.00181,145.85309c-5.91352,-12.41785 -4.03677,-26.82931 -0.21178,-28.40143c3.82499,-1.57212 -2.63665,17.20554 10.77235,30.23209c6.33745,6.1567 10.9695,11.96368 17.35779,13.81031c2.03482,0.5882 7.78565,2.33077 11.82396,2.50376c4.00417,0.17152 6.30781,-1.22536 5.56865,-0.92156c-0.95765,0.3936 2.26137,1.14245 -0.3661,1.83112c-0.38045,0.09972 0.05663,2.48443 -1.06517,3.59266c-1.02859,1.01615 -3.60668,0.76005 -4.25354,0.91341c-1.78585,0.42342 -5.3801,0.01589 -9.44352,-1.39189c-7.22719,-2.50387 -15.93855,-7.09025 -18.59901,-8.08535c-6.9299,-2.59203 -9.06949,-8.80364 -11.58364,-14.08312z" data-paper-data="{&quot;index&quot;:null}" fill="#f7b8a2" stroke="none" stroke-width="0"/><path d="M245.375,130.48579c-9.0172,0 -26.82654,4.7375 -37.70662,10.54921c-11.7769,6.29076 -16.29338,13.66847 -16.29338,12.95079c0,-0.65662 -3.45099,-7.90812 8.58433,-14.28456c13.27219,-7.03175 35.56796,-14.21544 45.41567,-14.21544c3.34066,0 19.5972,-1.5873 24.87682,-3.30505c6.44301,-2.09626 1.92039,-4.3868 4.99212,-4.22388c8.55957,0.45399 4.13106,9.19362 4.13106,10.02893c0,1.38071 -15.22232,2.5 -34,2.5z" fill="#1f1b1a" stroke="none" stroke-width="0"/><path d="M292.31977,120.11677c-0.29276,-0.61937 -5.28577,-4.45886 -1.71461,-9.89965c1.28157,-1.95251 0.11339,2.44277 3.65596,0.15506c2.90291,-1.87462 10.54385,-10.39162 11.99972,-12.3837c4.29165,-5.8723 16.52593,-13.84096 24.77446,-16.54141c7.47983,-2.44879 8.51739,4.98591 8.74752,5.47278c0.25153,0.53215 -4.3025,-2.24505 -11.63968,0.11318c-6.77845,2.17865 -16.20019,9.2858 -20.12991,14.66286c-8.18335,11.19734 -15.20956,19.44465 -15.69347,18.42088z" data-paper-data="{&quot;index&quot;:null}" fill="#1f1b1a" stroke="none" stroke-width="0"/><path d="M342.375,198.98579c0,5.24671 -11.17816,0.5 -22.5,0.5c-5.7116,0 -19.45859,8.53446 -27.71586,13.34576c-8.11072,4.72591 -13.78414,10.7541 -13.78414,8.15424c0,-3.21636 6.21352,-19.32697 16.72655,-27.44439c1.94231,-1.49972 4.49446,-5.89727 7.24293,-7.12399c6.64241,-2.96469 14.43153,-4.93162 17.53052,-4.93162c11.32184,0 22.5,12.25329 22.5,17.5z" fill="url(#color-4)" stroke="#006464" stroke-width="0.5"/><path d="M285.97197,92.05227c6.86811,11.25607 5.67667,24.50514 -2.66116,29.59263c-8.33783,5.08749 -20.66468,0.08687 -27.53278,-11.1692c-3.70556,-6.073 16.93497,4.27385 17.77817,-1.36463c0.71964,-4.81222 -18.95631,-25.88536 -15.117,-28.22799c0.53784,-0.32817 -4.80168,-3.31978 -4.0441,-3.03982c6.22138,2.29915 24.99052,25.91368 30.15146,28.853c3.9531,2.25141 -1.36137,-19.21123 1.42543,-14.64398z" fill="#f7b8a2" stroke="none" stroke-width="0"/><path d="M332.87501,193.73581c0,0.29521 2.56287,4.6098 4.62655,5.21799c0.68875,0.20298 2.34432,-2.58918 2.93566,-2.38488c2.0829,0.71961 2.36899,4.39533 1.50177,4.66034c-2.51199,0.76762 -15.32118,-1.43226 -22.6466,-1.67071c-1.36279,-0.04436 -2.53579,1.42725 -3.41739,1.42725c-0.36337,0 -3.68555,0.91635 -4.42888,1.21938c-5.09514,2.07708 -16.7758,9.74668 -25.01933,14.88731c-4.20368,2.62139 -7.69857,4.95515 -8.58937,4.79174c-0.77544,-0.14224 1.21044,-0.84226 2.69206,-2.95427c1.04256,-1.48613 1.45678,-4.17625 2.12755,-5.67117c0.56594,-1.26129 6.36192,3.99503 5.34746,2.10648c-1.13571,-2.11426 0.49764,-6.49235 1.38042,-7.3702c0.40759,-0.40532 4.81146,3.16841 5.20924,2.73942c0.84729,-0.91378 1.91694,-8.58992 2.68611,-9.35219c0.52616,-0.52145 4.2787,5.97961 4.7503,5.50913c1.03106,-1.0286 1.75089,-3.19052 2.04523,-4.25569c0.76054,-2.75226 1.29921,-3.00501 1.29921,-3.14994c0,-0.45491 5.15916,2.61044 5.90367,2.21172c1.77437,-0.95027 1.51468,-4.88805 3.73385,-5.7201c0.80622,-0.30228 2.5056,3.25838 4.36248,3.25838c1.39886,0 3.07998,-3.6934 4.12224,-3.59558c2.67286,0.25085 2.93247,3.02278 5.10919,3.55631c2.50381,0.61369 4.26857,-6.33605 4.26857,-5.46074z" fill="#ffffff" stroke="#005050" stroke-width="0.5"/><path d="M339.75,192.36079c0,0.38454 -1.68729,0.71712 -3.79671,-0.38803c-0.91384,-0.47877 -2.95383,-3.78969 -4.05776,-4.38283c-1.00789,-0.54153 -1.48563,5.64008 -2.52761,5.08286c-0.58545,-0.31308 -2.94118,-6.62264 -3.58393,-6.92193c-0.57471,-0.26761 -1.09771,-0.83347 -1.60126,-0.48816c-1.00863,0.69168 -0.68921,2.03002 -1.80094,1.67977c-1.63058,-0.51371 -3.67233,-4.83168 -5.00679,-4.83168c-1.07896,0 -0.52924,7.10278 -3.11171,5.89891c-1.38794,-0.64701 -4.31406,-4.02154 -5.58602,-3.64379c-1.03062,0.30608 -0.64054,7.0645 -1.82968,7.22373c-1.65095,0.22106 -4.74331,-2.89693 -6.14739,-2.27608c-1.24039,0.54847 -0.01633,6.0257 -1.31405,6.37861c-1.67139,0.45453 -3.53115,-1.62611 -5.00662,-1.27967c-1.56632,0.36777 1.14864,8.68172 -0.31432,8.31146c-0.68532,-0.17345 -4.38165,-4.36182 -5.05666,-4.15635c-0.79802,0.24291 -0.88775,1.61538 -1.3224,2.35998c-1.02027,1.7478 -1.68615,3.41857 -1.68615,3.18321c0,-0.15117 1.96486,-1.15323 2.81774,-2.60693c0.67609,-1.15237 0.23821,-2.58856 0.99758,-4.10968c0.79546,-1.59342 2.80735,-3.28003 4.3934,-4.83122c1.66106,-1.62456 4.60826,-3.54638 6.18062,-4.90757c0.78262,-0.67752 2.72238,-1.71615 3.23776,-2.0101c0.76,-0.43347 3.11194,-1.61588 4.02438,-2.03795c5.22653,-2.4177 10.18789,-2.24655 13.47353,-2.24655c2.20162,0 4.9559,1.49422 8.0999,3.04365c4.31535,2.12669 7.17292,3.82836 8.0655,4.67685c0.63899,0.60742 2.4596,2.91558 2.4596,3.2795z" fill="#ffffff" stroke="#005050" stroke-width="0.5"/><path d="M259.75,148.98579c0,0.62132 -0.50368,1.125 -1.125,1.125c-0.62132,0 -1.125,-0.50368 -1.125,-1.125c0,-0.62132 0.50368,-1.125 1.125,-1.125c0.62132,0 1.125,0.50368 1.125,1.125z" fill="#ffffff" stroke="none" stroke-width="0"/><path d="M325.5,118.23579c0,0.62132 -0.50368,1.125 -1.125,1.125c-0.62132,0 -1.125,-0.50368 -1.125,-1.125c0,-0.62132 0.50368,-1.125 1.125,-1.125c0.62132,0 1.125,0.50368 1.125,1.125z" fill="#ffffff" stroke="none" stroke-width="0"/></g></g></svg>