<svg version="1.1" xmlns="http://www.w3.org/2000/svg" xmlns:xlink="http://www.w3.org/1999/xlink" width="310.04451" height="406.49536" viewBox="0,0,310.04451,406.49536"><defs><linearGradient x1="318.21158" y1="91.98999" x2="320.31996" y2="103.80333" gradientUnits="userSpaceOnUse" id="color-1"><stop offset="0" stop-color="#000000"/><stop offset="1" stop-color="#86746e"/></linearGradient><linearGradient x1="151.40239" y1="-46.84995" x2="151.40144" y2="-46.84764" gradientUnits="userSpaceOnUse" id="color-2"><stop offset="0" stop-color="#000000"/><stop offset="1" stop-color="#86746e"/></linearGradient><linearGradient x1="252.69502" y1="114.51532" x2="245.87196" y2="124.38678" gradientUnits="userSpaceOnUse" id="color-3"><stop offset="0" stop-color="#000000"/><stop offset="1" stop-color="#86746e"/></linearGradient><linearGradient x1="272.8469" y1="127.54052" x2="314.89098" y2="127.54052" gradientUnits="userSpaceOnUse" id="color-4"><stop offset="0" stop-color="#c6856e"/><stop offset="1" stop-color="#f7b8a2"/></linearGradient><linearGradient x1="303.05664" y1="169.1925" x2="299.01998" y2="187.75875" gradientUnits="userSpaceOnUse" id="color-5"><stop offset="0" stop-color="#f7490a"/><stop offset="1" stop-color="#8c0606"/></linearGradient></defs><g transform="translate(-103.32632,-4.05947)"><g data-paper-data="{&quot;isPaintingLayer&quot;:true}" fill-rule="nonzero" stroke-linecap="butt" stroke-linejoin="miter" stroke-miterlimit="10" stroke-dasharray="" stroke-dashoffset="0" style="mix-blend-mode: normal"><path d="M221.54161,43.47999c35.67449,-13.64606 100.34705,-0.28019 107.33851,18.61849c1.35529,3.66348 19.03216,29.04508 16.30812,32.61532c-11.32828,14.8474 -71.4416,6.91976 -100.20062,17.92054c-18.05499,6.90632 -19.25867,32.51227 -22.98771,82.69931c-2.29253,30.85383 -1.40153,58.4778 -6.43976,54.29657c-0.06532,-0.05421 -7.3074,74.78993 -8.00408,76.52766c-5.7564,14.3583 -23.71232,67.94625 -28.12464,47.65677c-0.17128,-0.78763 -0.37608,-1.336 -0.70009,-2.61561c-1.73323,-6.84489 6.92735,-11.91448 8.84764,-29.01693c1.36549,-12.16125 1.33044,-22.52218 5.72744,-44.76862c1.77187,-8.96477 -1.06738,-32.97129 -0.59034,-36.49156c1.0095,-7.44943 -10.0885,-23.25582 -10.87584,-30.8453c-1.13203,-10.91208 -15.04483,-42.47796 -19.48093,-52.14517c-9.21507,-20.08161 -17.90806,-43.18297 -19.20958,-46.29463c-2.31447,-5.53335 13.16366,-8.76956 13.24118,-10.06873c1.78085,-29.8495 29.47623,-64.44204 65.15073,-78.0881z" data-paper-data="{&quot;index&quot;:null}" fill="#23173a" stroke="none" stroke-width="NaN"/><path d="M104.7827,48.33927c-8.04316,-19.5281 19.20665,-37.85901 33.3477,-43.68337c14.14104,-5.82436 84.54616,32.4516 92.58932,51.9797c1.88905,4.58645 -4.81786,13.78403 -2.11482,16.89274c8.80592,10.12746 -2.61849,-6.89639 -13.43831,-2.43997c-3.91191,1.61122 -17.83304,-6.61963 -32.10891,-11.59432c-6.63654,-2.31263 -13.34974,-3.92156 -19.16966,-3.51089c-26.91634,1.89931 -54.32154,3.97071 -59.10533,-7.64391z" data-paper-data="{&quot;index&quot;:null}" fill="#23173a" stroke="none" stroke-width="0"/><path d="M251.54557,396.78631c-21.10137,-7.52422 -83.64987,13.76852 -83.64987,13.76852c0,0 19.77674,-62.88774 35.33336,-86.7061c10.01969,-15.3409 8.99525,-49.29028 9.78602,-60.21863c2.00806,-27.75128 -1.49891,-102.55776 -1.49891,-102.55776l56.29151,30.4772c0,0 20.65619,8.55503 23.38616,30.03983c2.47174,19.4525 9.79813,82.90352 15.09234,129.04647c3.33545,29.07095 26.88529,51.27189 26.88529,51.27189c0,0 -56.3871,3.87811 -81.6259,-5.12142z" data-paper-data="{&quot;index&quot;:null}" fill="#412a6a" stroke="none" stroke-width="0"/><g data-paper-data="{&quot;index&quot;:null}" stroke="#000000"><path d="M319.4039,111.27219c-0.27598,-1.54642 2.29489,-28.08416 2.69278,-30.01235c2.78123,-13.47781 35.67244,-40.89012 42.05169,-42.02866c7.29188,-1.30141 0.39759,27.67242 2.60276,40.02812c1.12387,6.29708 -8.20353,22.66922 -15.88838,31.70617c-7.39382,8.69473 -13.06271,10.16915 -16.63827,10.80729c-7.29189,1.30141 -9.97994,16.62178 -12.18511,4.26608z" fill="#ffddd1" stroke-width="0.5"/><path d="M334.3324,88.45117c-1.30142,-7.29189 18.71665,-32.85845 22.7677,-33.58146c2.04651,-0.36526 6.68822,20.97192 3.79429,32.40994c-2.83459,11.20343 -13.19236,12.47032 -12.54839,16.0785c0.2545,1.42594 -1.56645,2.53179 0.57717,-2.73707c1.66569,-4.09414 7.20957,-13.80161 8.45697,-18.87858c2.02569,-8.24461 1.57495,-15.46278 1.34977,-18.98437c-0.16922,-2.64662 -3.49982,-5.46028 -6.08622,-1.33547c-1.63833,2.61283 -1.96505,7.6558 -1.92627,12.5029c0.03395,4.24233 1.53174,2.24545 1.11523,2.31979c-1.60597,0.28662 -6.47668,-5.51141 -9.22858,-3.48728c-2.35416,1.73158 0.81223,16.00866 -0.69088,20.26659c-1.17205,3.32014 -7.23665,-2.64524 -7.5808,-4.5735z" fill="#be8571" stroke-width="0"/></g><path d="M157.41737,134.23835c-3.2781,-18.36734 5.86464,-53.44423 23.61641,-73.36144c15.95537,-17.90166 39.15376,-21.44294 61.64917,-25.45779c47.52357,-8.48174 105.71112,34.53588 111.93559,69.41185c3.70332,20.74986 -6.046,27.02675 -16.76997,49.59966c-4.39842,9.25823 -10.71314,39.17483 -13.20172,56.46047c-0.31353,2.17773 -1.90675,19.36385 -1.73215,20.62075c0.7677,5.52635 -1.42162,14.40001 -1.57908,13.79845c-10.63027,4.59346 -9.79229,6.43994 -15.72655,7.67468c-9.35392,1.94629 -15.86337,3.8581 -22.85731,2.94952c-8.76007,-1.13803 -12.74753,-4.20207 -24.43951,-18.62926c-1.4972,-1.84747 -23.37126,-32.98837 -25.13793,-34.9234c-4.97967,-5.45421 -17.62473,-20.21327 -21.08527,-20.19073c-32.12226,0.20918 -50.36235,-23.80739 -54.67168,-47.95277z" data-paper-data="{&quot;index&quot;:null}" fill="#ffddd1" stroke="#003737" stroke-width="0.5"/><path d="M293.92585,102.00022c-0.61543,-2.35292 -2.846,-4.37699 -0.51471,-7.95335c3.1906,-4.89457 11.99548,-11.54683 18.32831,-15.39297c4.90139,-2.97679 12.33785,-2.98816 16.21099,-4.78639c5.79797,-2.69188 1.93582,1.48801 5.16454,-0.18635c1.81481,-0.94113 7.48505,2.27921 8.47258,2.98189c1.10722,0.78784 4.66571,3.37156 4.90893,5.13393c0.56458,4.09058 -0.53804,-1.00645 1.16183,5.49254c3.08543,11.79631 -19.21729,19.78289 -29.52081,20.90306c-10.30352,1.12019 -21.12623,5.60395 -24.21166,-6.19236z" data-paper-data="{&quot;index&quot;:null}" fill="#86746e" stroke="none" stroke-width="0"/><path d="M330.58773,173.42499c0,3.51833 1.76589,2.78604 1.40572,3.24279c-0.20521,0.26022 -4.60053,27.75721 -6.90572,27.75721c-1.78399,0 4.00458,-16.6163 1.93399,-29.45123c-0.75234,-4.66354 -7.75013,-10.56382 -9.15799,-12.53049c-5.86961,-8.19937 -13.95933,-14.85787 -14.73701,-16.98385c-0.35008,-0.95703 -4.53899,-5.47655 -4.53899,-6.53444c0,-5.52285 2.64873,0 9,0c6.35127,0 23,28.97715 23,34.5z" fill="#be8571" stroke="none" stroke-width="0"/><path d="M289.56565,71.66628c4.3199,12.45827 0.34081,25.15175 -8.88754,28.35167c-9.22835,3.19992 -20.21137,-4.30545 -24.53126,-16.76372c-2.33072,-6.72163 15.64035,7.77422 17.66223,2.4436c1.7256,-4.54947 -13.02405,-29.32179 -8.77468,-30.79526c0.59528,-0.20641 -3.98675,-4.26414 -3.30595,-3.82962c5.59088,3.56843 18.91449,30.63147 23.33313,34.60016c3.38453,3.03987 2.75125,-19.06188 4.50409,-14.00683z" fill="#f7b8a2" stroke="none" stroke-width="0"/><path d="M176.61652,112.28837c1.32386,-7.59699 14.08084,-10.73357 30.20778,-13.56605c15.46075,-2.71548 46.30145,-0.81931 59.09454,3.40965c4.4543,1.47244 2.1185,4.80182 3.50955,7.12219c5.38622,8.98463 5.94336,14.67542 -13.82881,20.12408c-5.94053,1.63705 -24.93173,2.19196 -33.49402,1.9403c-19.93602,-0.58595 -36.96809,-1.04448 -44.4203,-6.89729c-2.04179,-1.60357 -1.44329,-9.98352 -1.06874,-12.13288z" data-paper-data="{&quot;index&quot;:null}" fill="#86746e" stroke="none" stroke-width="0"/><path d="M311.87951,198.46777c0,1.34306 -12.32126,-4.4222 -12.92221,-0.48812c-0.68455,4.48134 10.76865,18.74563 12.13791,25.31819c1.63024,7.82524 -6.8585,7.66993 -9.2157,7.66993c-2.56702,0 0.78627,27.53509 -6.0341,24.33418c-5.0978,-2.39248 -15.27524,1.72299 -24.35714,-6.73313c-7.52339,-7.00498 -25.10876,-45.87286 -25.10876,-47.10105c0,-2.28243 15.41068,-0.39129 26.29311,-3.49722c11.50015,-3.28222 20.08549,-6.00278 23.20689,-6.00278c6.07513,0 16,1.80558 16,6.5z" fill="#f7b8a2" stroke="none" stroke-width="0"/><g data-paper-data="{&quot;index&quot;:null}" stroke="#000000"><path d="M162.22525,116.00571c1.04034,1.6715 15.69197,20.05646 15.96797,21.60287c2.20517,12.35569 -6.0405,19.30275 -13.33239,20.60416c-3.57558,0.63815 -9.40451,1.21579 -19.34959,-4.38438c-10.33653,-5.8206 -24.75167,-17.95531 -25.87554,-24.25239c-2.20518,-12.35571 -18.69673,-37.15575 -11.40485,-38.45717c6.37925,-1.13853 46.72249,13.20331 53.9944,24.88689z" fill="#ffddd1" stroke-width="0.5"/><path d="M120.25381,103.35359c4.05106,-0.723 31.67745,16.34023 32.97886,23.63212c0.34415,1.92826 -3.28242,9.62325 -5.53066,6.91355c-2.88326,-3.47508 -4.85123,-17.96604 -7.65904,-18.77634c-3.28221,-0.9472 -5.8465,6.17779 -7.45246,6.46441c-0.41651,0.07434 1.67958,1.4298 0.24388,-2.56235c-1.64036,-4.56126 -3.69143,-9.17985 -6.13246,-11.06461c-3.85361,-2.97544 -6.00524,0.81666 -5.24848,3.35842c1.00695,3.38207 3.08102,10.31052 7.83369,17.34536c2.92666,4.332 11.48637,11.52234 14.4655,14.7875c3.83394,4.20203 1.74287,3.79439 1.48837,2.36843c-0.64396,-3.60818 -10.80051,-1.21379 -17.33569,-10.74496c-6.67202,-9.73074 -9.69805,-31.35627 -7.65155,-31.72152z" fill="#be8571" stroke-width="0"/></g><path d="M190.58305,166.4382c-0.04329,-0.13905 -5.65087,4.22385 -11.91281,8.72337c-5.6816,4.08252 -8.88597,4.20291 -11.97748,5.24976c-0.6326,-0.31239 -3.48711,-1.67543 3.09599,-12.21537c0.9823,-1.57273 4.06198,-1.16245 5.23428,-3.10132c3.03857,-5.02549 -7.56433,4.83723 -16.45582,12.84195c-1.40254,1.26266 -4.37608,7.13952 -5.80432,7.57653c-1.40405,0.42964 -1.53876,-5.56367 -1.2703,-10.30559c0.15147,-2.67527 0.93956,-4.92503 0.44966,-5.4653c-0.62709,-0.69157 -9.69224,6.89068 -9.97955,6.77677c-3.21387,-1.27407 -2.49352,-6.00615 2.06292,-11.62031c1.02363,-1.26124 4.70132,-1.65671 5.79073,-3.0963c1.90807,-2.52142 -17.03907,3.34568 -13.48915,-0.46176c0.76187,-0.81714 5.13084,-4.02819 11.61244,-7.00806c2.83888,-1.30516 6.76466,-3.85311 9.24082,-4.58235c1.37136,-0.40387 1.538,0.94099 2.63428,0.53557c1.40617,-0.52 -1.55817,0.28204 -2.10896,2.0311c3.31992,-3.75035 -8.90548,0.71678 -16.3989,3.33804c-3.01438,1.05447 -5.06503,2.27897 -5.33516,1.82712c-2.32263,-3.88528 5.28397,-8.22798 17.03106,-13.01558c3.15961,-1.28773 9.47802,-2.24051 12.51141,-3.77573c2.59032,-1.31096 -0.87472,0.50953 1.29571,-1.03412c0.24367,-0.17331 -5.16135,1.72625 -10.76662,2.29968c-6.33694,0.64828 -16.0294,3.09523 -15.85008,2.8391c0.37585,-0.53683 11.57961,-7.76614 20.4142,-10.67811c7.05291,-2.32471 14.54872,-1.67299 14.6427,-2.14119c0.29595,-1.47449 -16.29609,1.02477 -16.47145,-0.38185c-0.16716,-1.34086 5.09777,-3.20468 8.10933,-6.50881c3.24351,-3.55864 4.2753,-8.526 4.80195,-8.68044c1.21628,-0.35667 4.13516,5.26337 7.13047,9.66305c3.65065,5.36228 1.06888,2.61409 4.09445,7.64674c2.65989,4.42437 6.6223,7.81677 9.60728,8.50021c2.09755,0.48028 2.3411,2.72326 4.86725,4.57255c3.65635,2.67665 16.17866,3.18463 19.316,3.81763c7.20045,1.45278 20.56497,-0.57367 30.4507,-1.2367c7.21183,-0.48371 18.5107,-13.35649 18.87014,-12.20144c0.3108,0.99873 -12.4194,27.30716 -18.88134,32.16938c-2.29691,1.72828 -2.80723,-10.16298 -4.02306,-8.93229c-4.48822,4.54307 -7.83338,13.5871 -11.60612,15.19503c-3.98107,1.69673 -2.38494,-8.95741 -4.93072,-9.90886c-0.63922,-0.2389 -6.27435,11.77853 -7.40409,13.4088c-1.37633,1.98612 -0.09676,-11.63022 -2.02147,-10.20257c-1.20083,0.89072 -0.96145,3.1896 -1.58561,4.22831c-2.1439,3.56777 -5.52235,7.25734 -7.26403,7.76809c-1.403,0.41144 1.43075,-8.44027 -0.16725,-11.11118c-0.18868,-0.31535 -2.16011,4.14238 -4.65413,6.84536c-2.95381,3.20131 -6.50912,4.77369 -6.83394,4.87549c-1.88107,0.58955 4.80092,-13.05237 2.87231,-12.09425c-6.36973,3.16444 -11.61393,9.509 -14.20834,8.71439c-3.35414,-1.02729 6.05028,-9.15979 5.26457,-11.68464z" data-paper-data="{&quot;index&quot;:null}" fill="#23173a" stroke="none" stroke-width="0"/><path d="M189.44823,40.31433c12.19003,-10.33986 24.65225,-16.07779 29.00181,-16.85408c4.34955,-0.77628 17.40739,-2.28777 48.71737,2.05208c0.3835,2.14883 2.16995,-2.68555 7.30627,1.53208c0.38392,1.94144 49.02203,26.60673 46.12944,29.23567c-1.13347,1.03016 -18.88147,-9.46743 -26.96323,-14.11169c-7.26036,-4.17224 -13.76641,0.54362 -17.38784,-0.06629c-8.62865,-1.4532 -2.1242,-5.58672 -4.48237,-2.41736c-3.9954,5.36979 -5.8084,23.8907 -6.90027,24.08556c-0.87202,0.15564 -7.7593,-4.97648 -17.65393,-8.15021c-4.92762,-1.58054 -14.59472,-2.00456 -16.69638,-2.38155c-4.99601,-0.89616 -23.83249,-9.03282 -35.9355,-2.25387c-5.24726,2.93901 -17.78364,19.85602 -19.15385,26.75969c-1.55567,7.83816 0.2424,59.02389 -2.80631,61.28466c-1.22607,0.9092 -1.5607,-9.17038 -7.71965,-18.49136c-4.56015,-6.90134 -12.38071,-13.37557 -16.2954,-16.30313c-1.31909,-0.98647 -2.1947,-1.57024 -2.35265,-1.63197c-0.56393,-0.22039 1.91431,-14.31005 5.74383,-20.95564c9.81323,-17.02942 34.08915,-38.54545 33.94867,-39.3326z" data-paper-data="{&quot;index&quot;:null}" fill="#23173a" stroke="none" stroke-width="0"/><path d="M217.77028,109.74141c11.40243,-4.30538 9.70266,-3.04737 19.12496,-4.14251c10.7875,-1.25381 4.62831,-0.84694 12.65876,-0.34366c1.517,0.09507 9.27395,4.02521 9.31413,5.02331c0.00492,0.12232 5.01441,4.57417 5.00665,4.70084c-0.20414,3.33441 -0.42206,5.5008 0.65482,7.64703c1.46361,2.91697 -67.72048,2.686 -77.56543,2.04222c-3.7489,-0.24515 -0.94416,0.21069 1.42301,-0.94332c10.42482,-5.0822 21.70537,-11.08494 29.38309,-13.98391z" data-paper-data="{&quot;index&quot;:null}" fill="#ffffff" stroke="#200000" stroke-width="0.5"/><path d="M336.79628,94.65894c-4.55251,2.29585 -40.30876,16.64055 -37.91737,13.15208c1.75953,-2.56674 2.71502,-5.57703 4.6552,-9.26392c0.0737,-0.14005 4.41797,-5.97917 4.4944,-6.1164c1.73942,-3.12373 8.33772,-6.46112 12.44851,-8.44932c1.17385,-0.56773 10.56165,-1.44392 11.7314,-1.54559c3.31705,-0.28832 6.17449,1.03288 8.37751,4.00833c1.48337,2.00348 2.60332,2.39191 3.92101,6.39058c0.29921,0.90798 -5.97711,0.95 -7.71066,1.82424z" data-paper-data="{&quot;index&quot;:null}" fill="#ffffff" stroke="#200000" stroke-width="0.5"/><path d="M318.21158,91.98999c2.99032,-0.53369 5.88642,1.67817 6.46863,4.94032c0.58221,3.26217 -1.36994,6.33931 -4.36025,6.873c-2.99032,0.53369 -5.88642,-1.67817 -6.46863,-4.94032c-0.58221,-3.26217 1.36994,-6.33931 4.36025,-6.873z" data-paper-data="{&quot;index&quot;:null}" fill="url(#color-1)" stroke="none" stroke-width="0"/><path d="M217.08557,18.91416z" fill="url(#color-2)" stroke="none" stroke-width="0"/><path d="M253.8079,122.57829c-1.88414,2.72592 -5.43719,3.53561 -7.93596,1.80849c-2.49877,-1.72713 -2.99702,-5.33704 -1.11288,-8.06297c1.88414,-2.72592 5.43718,-3.53561 7.93596,-1.80849c2.49876,1.72712 2.99702,5.33704 1.11288,8.06297z" fill="url(#color-3)" stroke="none" stroke-width="0"/><path d="M227.77929,81.65495c-0.48518,-2.71847 0.3762,-6.91387 3.77428,-7.52034c0.60689,-0.10831 8.2095,-0.90077 9.61416,-0.47126c6.46029,1.97541 14.30979,11.14612 14.70832,13.37907c0.48517,2.71846 -17.66741,-2.16984 -21.06549,-1.56337c-3.39808,0.60647 -6.54609,-1.10565 -7.03127,-3.82411z" data-paper-data="{&quot;index&quot;:null}" fill="#23173a" stroke="none" stroke-width="0"/><path d="M304.49221,64.41907c1.73535,1.27283 7.35231,3.56313 5.76127,5.73231c-1.59105,2.16918 -10.43818,15.48324 -12.17352,14.2104c-1.73534,-1.27283 -1.20174,-16.15057 0.3893,-18.31975c1.59104,-2.16917 4.28761,-2.8958 6.02295,-1.62296z" data-paper-data="{&quot;index&quot;:null}" fill="#23173a" stroke="none" stroke-width="0"/><path d="M369.63427,130.88861c0.9267,2.21147 13.04557,5.39848 11.10036,7.29901c-1.50461,1.47005 -9.35765,-1.70643 -16.14746,-2.05269c-2.0558,-0.10485 11.31383,8.24019 9.51746,8.40468c-0.31021,0.0284 -3.98266,-0.01495 -8.18058,-1.51624c-3.54448,-1.26759 -7.75098,-4.06441 -7.70452,-3.75832c0.39346,2.59229 7.91909,8.50237 6.59637,8.64693c-1.64201,0.17946 -6.46042,-1.55934 -10.26029,-3.61111c-1.10629,-0.59733 -2.31433,-2.45393 -3.77238,-2.74665c-2.33698,-0.46919 6.88271,9.63771 4.62744,8.55584c-1.85121,-0.88802 -13.43657,-8.32216 -13.78116,-7.92664c-1.37247,1.57528 5.2968,5.78726 1.22325,5.78817c-2.18881,0.00048 -12.82659,-9.83957 -17.99283,-13.10271c-3.94537,-2.492 5.59266,7.56085 2.91486,6.68065c-6.38838,-2.09987 -19.60439,-7.996 -20.10124,-9.18171c-0.42394,-1.01168 -1.10671,-2.89223 4.70523,-4.89659c7.9668,-2.74749 29.23578,2.69026 33.86705,-0.80776c2.0179,-1.52413 5.10897,-5.44954 6.2873,-8.72511c0.81409,-2.26305 1.14305,-3.07778 2.45765,-4.14091c1.87078,-1.5129 0.91464,1.50019 0.27267,-2.79818c-0.27936,-1.87045 -0.16561,-7.32537 -1.1788,-9.32594c-1.63528,-3.22891 -4.60123,-3.07675 -4.87991,-6.38028c-0.37034,-4.3899 -4.0377,-9.19823 -2.89103,-9.32355c0.49649,-0.05426 11.79231,3.4465 16.4282,5.12855c4.30435,1.56175 9.46155,1.26663 10.1451,2.35859c0.71708,1.14553 -13.49329,4.68484 -12.37445,5.72739c0.35526,0.33104 5.69738,-2.64492 12.50185,-3.17332c8.52337,-0.66187 21.47266,1.23333 22.08519,1.52449c0.29224,0.13891 -8.60624,1.44326 -13.84821,3.03183c-4.63674,1.40515 -9.92277,1.71883 -9.6314,1.77247c2.59522,0.47786 -1.15831,0.21288 1.61744,0.37233c3.25054,0.18673 8.66262,-1.16027 11.85997,-1.20653c11.88743,-0.17203 20.33689,0.67742 20.91071,4.44769c0.06674,0.43848 -2.24369,0.16791 -5.18874,0.34667c-7.32105,0.44435 -19.38056,1.02192 -14.57018,2.82704c-1.48002,-1.17082 -4.23403,-0.8134 -2.84318,-0.87504c1.08432,-0.04806 0.39799,-1.14292 1.69188,-1.28289c2.33631,-0.25274 6.88269,0.4228 9.84515,0.49579c6.76373,0.16663 12.05058,1.20876 13.12816,1.58936c5.02095,1.7734 -13.02994,3.48522 -10.04376,4.80563c1.70494,0.7539 4.75882,-0.15318 6.30549,0.48451c6.88466,2.83851 10.29972,6.26004 8.61122,8.30514c-0.15095,0.18281 -11.67718,-2.69059 -11.73856,-1.94904c-0.04795,0.57931 1.91669,2.05904 3.65166,4.07777c3.07518,3.57817 6.59917,8.25695 5.26464,8.38778c-1.35751,0.13309 -7.18973,-3.43058 -9.02724,-3.94439c-11.64898,-3.25735 -25.73216,-7.38702 -20.36539,-4.50313c2.07053,1.11263 4.17911,-0.22027 5.88266,0.67189c11.41667,5.97904 10.057,7.97439 9.76195,8.42457c-2.99946,0.21007 -5.5246,1.17375 -12.34341,-0.10935c-7.5153,-1.41416 -14.44715,-2.93846 -14.39612,-2.81666z" data-paper-data="{&quot;index&quot;:null}" fill="#23173a" stroke="none" stroke-width="0"/><path d="M254.99018,237.41427c-2.27642,-5.52697 23.43423,14.00365 29.3189,4.22198c7.05226,-11.72247 13.81446,-28.53173 16.16951,-29.50172c3.00099,-1.23605 14.31388,16.68977 19.56687,25.71813c2.30914,3.96872 1.20091,-18.21188 2.72906,-14.50165c5.00452,12.15054 3.77183,39.80534 -0.54837,41.58472c-1.06171,0.43729 -6.35368,8.70219 -12.21166,7.97887c-17.97872,-2.21994 -50.19218,-17.87592 -53.96682,-27.04042z" data-paper-data="{&quot;index&quot;:null}" fill="#23173a" stroke="none" stroke-width="0"/><g data-paper-data="{&quot;index&quot;:null}" stroke="#710000"><path d="M285.71582,95.73968c3.87398,-0.33228 24.204,17.02972 25.1234,31.17049c0.29498,4.53687 5.95363,-0.54289 8.43625,1.59271c1.18588,1.02012 0.87525,8.70346 0.35534,10.46768c-0.71397,2.42272 -16.33633,16.76584 -18.05083,17.62381c-2.56987,1.28601 -12.1424,-5.70982 -13.36445,-5.60501c-1.11706,0.09582 -3.8426,-1.09719 -6.49737,-1.76698c-5.85908,-1.47822 -13.30884,-4.27875 -16.04726,-12.42209c-0.32386,-0.96309 0.45436,-2.24106 0.38515,-3.30535c-0.06417,-0.98699 1.98173,0.6594 3.44921,-0.41407c0.83327,-0.60954 2.52241,-4.0793 2.40395,-4.85905c-1.45367,-9.56874 1.73207,-22.18773 4.07255,-29.69441c1.94524,-6.23899 8.16812,-2.65345 9.73404,-2.78777z" fill="#ffcbb8" stroke-width="0.5"/><path d="M265.26379,136.96831c-0.02473,-0.3803 0.75405,-2.86947 0.76568,-3.22509c0.0273,-0.83489 2.36937,-0.79341 3.59266,-4.77844c1.65331,-5.38588 0.72512,-18.25929 1.19359,-18.29947c0.96275,-0.08258 3.50468,19.23978 3.66592,21.71961c0.06893,1.06023 2.53053,4.43505 6.36474,7.44888c1.38419,1.08801 3.15381,2.34215 4.62584,3.62586c3.98759,3.47746 9.37362,7.04531 8.97108,7.07984c-0.2693,0.0231 -1.23551,-0.53131 -4.42156,-2.83901c-5.01918,-3.63546 -13.5813,-9.9175 -18.61125,-12.14655c-3.19197,-1.41454 -6.1016,2.10781 -6.1467,1.41437z" fill="#e1a088" stroke-width="0"/></g><path d="M273.84714,125.54556c-3.14027,-13.39072 1.75543,-27.07445 5.82711,-27.79804c1.60893,-0.28593 -5.62314,19.33307 -1.62085,22.35735c6.1262,4.62919 16.47299,-14.94911 22.72429,-5.52679c7.88474,3.86258 6.17732,11.02109 12.02744,14.1828c0.80984,0.43768 3.02045,10.38186 1.62445,14.22091c-1.81613,4.9944 -6.8127,-1.34291 -4.60236,-0.76224c3.87632,1.01831 4.42414,3.14275 3.63731,3.28257c-1.01941,0.18116 -4.53298,7.09681 -7.24677,7.21154c-0.39295,0.01661 -4.97249,-1.06026 -6.30413,-0.21566c-1.221,0.77442 4.31418,3.97644 3.64951,3.98887c-1.83504,0.03434 -1.26065,-0.62751 -4.93222,-2.86645c-6.53024,-3.98217 -14.06832,-10.31462 -16.45663,-11.85224c-6.221,-4.00515 -6.99205,-10.52953 -8.32715,-16.22262z" data-paper-data="{&quot;index&quot;:null}" fill="url(#color-4)" stroke="none" stroke-width="0"/><path d="M235.23005,101.59732c-8.81134,-1.91576 -27.22062,-1.07011 -39.08704,2.29738c-12.84455,3.64507 -18.82536,9.8948 -18.67288,9.19351c0.1395,-0.64163 -1.69208,-8.46077 11.42319,-12.13466c14.46313,-4.05146 37.77612,-6.33429 47.39901,-4.24208c3.26439,0.70974 19.48704,2.61248 25.01108,2.05563c6.74128,-0.67955 2.80855,-3.87865 5.77554,-3.06685c8.26771,2.26216 2.08351,9.8614 1.90604,10.67764c-0.29334,1.34919 -15.40594,-0.79115 -33.75494,-4.78058z" fill="#1f1b1a" stroke="none" stroke-width="0"/><path d="M289.80606,100.43871c-0.15449,-0.66743 -4.21779,-5.48006 0.42777,-10.03793c1.66713,-1.63566 -0.40818,2.41109 3.53955,0.92825c3.23491,-1.21508 12.5109,-7.91428 14.35676,-9.55158c5.44128,-4.82645 19.08925,-10.01395 27.7232,-10.9003c7.82933,-0.80375 7.26366,6.68165 7.3851,7.2063c0.13273,0.57344 -3.7273,-3.10789 -11.398,-2.36232c-7.08657,0.68879 -17.80317,5.63198 -22.78557,10.0514c-10.37547,9.20311 -18.99347,15.76938 -19.24882,14.66617z" data-paper-data="{&quot;index&quot;:null}" fill="#1f1b1a" stroke="none" stroke-width="0"/><path d="M328.96237,178.14174c-1.11469,5.12693 -18.0292,8.11372 -29.09257,5.70833c-5.58121,-1.21346 -20.82756,4.20553 -29.91851,7.15269c-8.92961,2.89485 -24.25423,1.58007 -23.70187,-0.96044c0.68333,-3.14293 10.6778,-12.56565 22.67542,-18.2642c2.21659,-1.05283 13.64476,-3.80776 16.59111,-4.42255c7.12063,-1.48579 15.14982,-1.75297 18.17806,-1.09457c11.06337,2.40539 26.38306,6.75381 25.26836,11.88074z" fill="url(#color-5)" stroke="#006464" stroke-width="0.5"/><path d="M251.84644,121.72903c-0.132,0.60714 -0.73119,0.99231 -1.33833,0.8603c-0.60714,-0.132 -0.99231,-0.73119 -0.8603,-1.33833c0.132,-0.60714 0.73119,-0.99231 1.33833,-0.8603c0.60714,0.132 0.99231,0.73119 0.8603,1.33833z" fill="#ffffff" stroke="none" stroke-width="0"/><path d="M323.62843,100.15001c-0.132,0.60714 -0.73119,0.99231 -1.33833,0.8603c-0.60714,-0.132 -0.99231,-0.73119 -0.8603,-1.33833c0.132,-0.60714 0.73119,-0.99231 1.33833,-0.8603c0.60714,0.132 0.99231,0.73119 0.8603,1.33833z" fill="#ffffff" stroke="none" stroke-width="0"/><path d="M248.08773,190.42499c0,1.07167 1.01732,22.02888 1.04763,22.88313c0.19668,5.54402 1.10329,11.13332 1.34935,9.33078c0.18496,-1.35498 -0.00332,-9.71391 -1.14697,-9.71391c-2.89949,0 -3.25,-18.24517 -3.25,-31.5c0,-6.17559 1.80903,-14.27592 6.70508,-24.90554c5.61248,-12.18503 14.49634,-26.59446 16.04492,-26.59446c1.39141,0 2.20841,2.26471 -3.55955,14.92737c-6.25163,13.72447 -17.19045,38.67853 -17.19045,45.57263z" fill="#be8571" stroke="none" stroke-width="0"/><path d="M276.08773,184.72112c0,0 -4.85486,-8.87873 -6.81764,-8.51525c-1.15544,0.21397 -3.02084,2.24174 -6.23846,3.26272c-3.56254,1.13043 -8.4439,1.25253 -8.4439,1.25253c0,0 3.03776,-3.53234 7.70664,-6.12837c2.39227,-1.33017 5.58151,-1.67707 8.24396,-2.70861c9.42109,-3.65008 26.16257,-6.16302 30.0494,-6.16302c5.72916,0 26,8.5 26,8.5c0,0 -6.55616,0.52449 -8.86328,0.70906c-1.47784,0.11823 -5.13672,5.79094 -5.13672,5.79094c0,0 -4.01439,-14.5128 -4.5,-11c-0.25032,1.81074 -3.53628,2.33651 -7.00136,2.46277c-2.37967,0.08671 -6.57964,1.98499 -8.99857,1.98166c-3.69624,-0.00509 -6.7039,-0.86106 -10.0815,-1.26703c-4.52462,-0.54384 -5.91858,11.8226 -5.91858,11.8226z" fill="#ffffff" stroke="none" stroke-width="0"/><path d="M312.08773,183.97112c0,0.45472 0.0953,0.49877 2.3986,-1.861c1.10762,-1.13478 4.26335,-7.90044 5.2573,-7.629c1.97945,0.54058 4.31729,8.01223 3.35583,8.28185c-1.1635,0.32628 -9.23139,2.28262 -14.53614,2.17636c-4.38117,-0.08776 -11.58286,-1.21821 -12.9756,-1.21821c-0.94841,0 -3.69975,0.79682 -7.18756,1.91494c-4.47622,1.43499 -12.86837,4.1695 -20.11161,5.91733c-6.68883,1.61405 -12.3979,2.31306 -13.13858,2.08416c-0.83995,-0.25959 4.80636,-2.75445 10.35265,-3.95986c1.35531,-0.29456 0.7143,-8.66062 2.04951,-9.07203c1.69103,-0.52105 6.84392,5.68588 8.40291,5.55346c6.22647,-0.52886 2.95505,-2.49509 2.63267,-2.18799c-1.5,1.42893 11.87258,-3.75 18.5,-3.75c6.62742,0 15,1.67893 15,3.75z" fill="#ffffff" stroke="none" stroke-width="0"/></g></g></svg>