<svg version="1.1" xmlns="http://www.w3.org/2000/svg" xmlns:xlink="http://www.w3.org/1999/xlink" width="320.28981" height="463.51201" viewBox="0,0,320.28981,463.51201"><defs><linearGradient x1="320.71157" y1="96.5005" x2="322.81995" y2="108.31384" gradientUnits="userSpaceOnUse" id="color-1"><stop offset="0" stop-color="#000000"/><stop offset="1" stop-color="#86746e"/></linearGradient><linearGradient x1="151.40238" y1="-36.33944" x2="151.40143" y2="-36.33713" gradientUnits="userSpaceOnUse" id="color-2"><stop offset="0" stop-color="#000000"/><stop offset="1" stop-color="#86746e"/></linearGradient><linearGradient x1="247.69501" y1="118.02583" x2="240.87195" y2="127.89729" gradientUnits="userSpaceOnUse" id="color-3"><stop offset="0" stop-color="#000000"/><stop offset="1" stop-color="#86746e"/></linearGradient><linearGradient x1="267.84689" y1="144.26656" x2="309.89097" y2="144.26656" gradientUnits="userSpaceOnUse" id="color-4"><stop offset="0" stop-color="#c6856e"/><stop offset="1" stop-color="#f7b8a2"/></linearGradient></defs><g transform="translate(-93.08102,42.44667)"><g data-paper-data="{&quot;isPaintingLayer&quot;:true}" fill-rule="nonzero" stroke-linejoin="miter" stroke-miterlimit="10" stroke-dasharray="" stroke-dashoffset="0" style="mix-blend-mode: normal"><path d="M222.0416,48.9905c35.67449,-13.64606 100.34705,-0.28019 107.33851,18.61849c0.42182,1.14022 6.92472,7.88429 9.40152,11.91979c5.48103,8.93037 8.78281,18.23649 6.9066,20.69553c-11.32828,14.8474 -71.4416,6.91976 -100.20062,17.92054c-18.05499,6.90632 -19.25867,32.51227 -22.98771,82.69931c-1.03682,13.954 -7.2974,-9.43459 -11.57203,6.38055c-0.9882,3.6561 -6.26704,-1.16934 -6.89963,5.60397c-2.17255,23.26188 -0.47911,46.84495 -1.13533,62.13499c-0.06802,1.5849 1.88928,19.33471 4.61373,31.35569c3.43283,15.14657 7.78978,25.01746 7.5535,24.82137c-0.01348,-0.01119 1.1999,11.31575 1.54092,13.44409c1.31089,8.18136 -7.99214,-14.29542 -8.545,-12.91643c-5.7564,14.3583 -23.71232,67.94625 -28.12464,47.65677c-0.17128,-0.78763 -0.37608,-1.336 -0.70009,-2.61561c-1.73323,-6.84489 5.42735,-102.91448 7.34764,-120.01693c1.36549,-12.16125 -6.16956,125.97782 -1.77256,103.73138c0.77758,-3.93417 -0.8723,-2.17102 -2.81548,-6.49337c-1.6762,-3.72849 -3.57064,-7.5206 -4.31347,-11.23694c-0.35831,-1.79261 -1.04849,3.38154 -0.96138,2.73875c0.2946,-2.17396 -0.39891,-5.55131 -1.25074,-15.5224c-0.60825,-7.11988 -1.29721,-20.05235 -1.76479,-27.11918c-1.12145,-16.94932 0.03319,-58.91058 -0.36032,-62.70372c-0.02616,-0.25216 3.72044,-42.18157 1.81074,-41.46805c-1.07576,0.40194 1.29889,4.77717 0.40474,9.61294c-2.57945,13.95031 -3.39585,51.08888 -4.20051,70.68528c-0.43327,10.55158 1.30248,36.29446 1.33091,43.97346c0.00969,2.61789 3.63981,24.14234 3.86335,26.55932c1.8807,20.33508 6.87381,14.06237 5.89174,10.81935c-0.58003,-1.91539 -2.61148,15.3138 -6.60939,-2.13986c-1.75353,-7.65539 -4.95086,-27.11154 -6.64229,-38.73856c-1.5445,-10.617 -1.66718,-32.45956 -1.64497,-39.00256c0.11297,-33.27045 3.76752,-76.71196 2.46875,-72.58214c-2.03685,6.47674 -5.20179,66.38551 -5.94634,74.34566c-0.7598,8.12319 8.39217,66.43989 7.45588,64.10596c-0.48595,-1.21136 6.00009,16.54591 5.46771,19.83357c-0.23615,1.45829 -7.16605,-14.5142 -9.47485,-27.26118c-3.47516,-19.1865 -5.80875,-48.09998 -6.51697,-47.5394c-0.18509,0.1465 2.3158,33.73154 2.56332,36.0604c2.66417,25.06597 9.6644,56.2058 8.62568,41.32789c-0.17826,-2.55336 -6.85022,-11.05843 -10.85226,-31.51229c-1.76533,-9.02234 -1.80302,-30.03472 -2.58407,-37.49196c-0.87677,-8.37122 0.05059,-24.45847 0.08419,-25.85312c0.76297,-31.66847 4.95524,-88.34988 4.02371,-90.37988c-9.21507,-20.08161 -17.90806,-43.18297 -19.20958,-46.29463c-2.31447,-5.53335 13.16366,-8.76956 13.24118,-10.06873c1.78085,-29.8495 29.47623,-64.44204 65.15073,-78.0881z" data-paper-data="{&quot;index&quot;:null}" fill="#23173a" stroke="none" stroke-width="NaN" stroke-linecap="butt"/><path d="M113.60944,-11.9288c-1.2752,-21.0811 30.44671,-29.58374 45.71235,-30.50716c15.26563,-0.92342 69.45192,58.11704 70.72712,79.19814c0.2995,4.9512 -9.0278,11.4765 -7.47906,15.29382c5.04549,12.43595 -0.24037,-7.37285 -11.92065,-6.66631c-4.22301,0.25545 -14.72232,-12.04533 -26.61322,-21.38099c-5.52782,-4.33995 -11.35637,-8.0391 -16.9949,-9.5381c-26.07747,-6.93268 -52.6732,-13.86111 -53.43165,-26.39941z" data-paper-data="{&quot;index&quot;:null}" fill="#23173a" stroke="none" stroke-width="0" stroke-linecap="butt"/><path d="M251.54556,407.29682c-21.10137,-7.52422 -83.64987,13.76852 -83.64987,13.76852c0,0 19.77674,-62.88774 35.33336,-86.7061c10.01969,-15.3409 8.99525,-49.29028 9.78602,-60.21863c2.00806,-27.75128 -1.49891,-102.55776 -1.49891,-102.55776l56.29151,30.4772c0,0 20.65619,8.55503 23.38616,30.03983c2.47174,19.4525 9.79813,82.90352 15.09234,129.04647c3.33545,29.07095 26.88529,51.27189 26.88529,51.27189c0,0 -56.3871,3.87811 -81.6259,-5.12142z" data-paper-data="{&quot;index&quot;:null}" fill="#412a6a" stroke="none" stroke-width="0" stroke-linecap="butt"/><g data-paper-data="{&quot;index&quot;:null}" stroke="#000000" stroke-linecap="butt"><path d="M319.81378,120.24911c0.10246,-1.56751 8.95487,-26.71698 9.80302,-28.49374c5.92851,-12.41932 44.42814,-31.1555 50.8944,-30.73293c7.39134,0.48304 -6.24214,26.96213 -7.06063,39.48636c-0.41714,6.38297 -13.39452,20.04441 -23.02022,26.97761c-9.26117,6.67065 -15.1182,6.74433 -18.74253,6.50746c-7.39135,-0.48304 -13.67072,13.74752 -12.85223,1.22329z" fill="#ffddd1" stroke-width="0.5"/><path d="M339.77387,101.66809c0.48303,-7.39135 26.04215,-27.41892 30.14846,-27.15056c2.07443,0.13556 1.47029,21.96342 -4.07906,32.37533c-5.43555,10.19836 -15.79526,8.94746 -16.03428,12.60485c-0.09445,1.44539 -2.12727,2.08289 1.21596,-2.51915c2.59784,-3.57599 10.3055,-11.673 12.73264,-16.30341c3.94149,-7.51942 5.23278,-14.63544 5.85766,-18.10845c0.46963,-2.61011 -2.09008,-6.13962 -5.58918,-2.75438c-2.21647,2.14436 -3.74158,6.96227 -4.86492,11.67757c-0.98317,4.12697 0.94932,2.54697 0.52713,2.51939c-1.62787,-0.10639 -4.96804,-6.90229 -8.12466,-5.59622c-2.70038,1.1173 -3.04584,15.73721 -5.52507,19.51117c-1.93318,2.94276 -6.3924,-4.30158 -6.26467,-6.25614z" fill="#be8571" stroke-width="0"/></g><path d="M157.41736,144.74886c-2.5586,-14.33592 -19.05043,-37.35128 -8.28798,-56.89268c3.02652,-5.49525 9.50808,-29.09717 13.40439,-33.46876c15.95537,-17.90166 56.65376,-17.44294 79.14917,-21.45779c47.52357,-8.48174 106.71112,47.53588 112.93559,82.41185c3.70332,20.74986 -6.046,27.02675 -16.76997,49.59966c-4.39842,9.25823 -10.71314,39.17483 -13.20172,56.46047c-0.31353,2.17773 -1.90675,19.36385 -1.73215,20.62075c0.7677,5.52635 -1.42162,14.40001 -1.57908,13.79845c-10.63027,4.59346 -9.79229,6.43994 -15.72655,7.67468c-9.35392,1.94629 -15.86337,3.8581 -22.85731,2.94952c-8.76007,-1.13803 -12.74753,-4.20207 -24.43951,-18.62926c-1.4972,-1.84747 -23.37126,-32.98837 -25.13793,-34.9234c-4.97967,-5.45421 -17.62473,-20.21327 -21.08527,-20.19073c-32.12226,0.20918 -50.36235,-23.80739 -54.67168,-47.95277z" data-paper-data="{&quot;index&quot;:null}" fill="#ffddd1" stroke="#003737" stroke-width="0.5" stroke-linecap="butt"/><path d="M293.92584,112.51073c-0.61543,-2.35292 -2.846,-4.37699 -0.51471,-7.95335c3.1906,-4.89457 11.99548,-11.54683 18.32831,-15.39297c4.90139,-2.97679 12.33785,-2.98816 16.21099,-4.78639c5.79797,-2.69188 1.93582,1.48801 5.16454,-0.18635c1.81481,-0.94113 7.48505,2.27921 8.47258,2.98189c1.10722,0.78784 4.66571,3.37156 4.90893,5.13393c0.56458,4.09058 -0.53804,-1.00645 1.16183,5.49254c3.08543,11.79631 -19.21729,19.78289 -29.52081,20.90306c-10.30352,1.12019 -21.12623,5.60395 -24.21166,-6.19236z" data-paper-data="{&quot;index&quot;:null}" fill="#86746e" stroke="none" stroke-width="0" stroke-linecap="butt"/><path d="M251.38263,210.2665c0.09627,1.06734 2.99202,21.84844 3.09895,22.69651c0.69389,5.50394 2.09892,10.9892 2.18206,9.17185c0.0625,-1.36612 -0.87589,-9.67434 -2.01492,-9.57161c-2.88777,0.26046 -4.87579,-17.87947 -6.06645,-31.08071c-0.55474,-6.15062 0.51934,-14.38071 4.44075,-25.40716c4.49523,-12.63993 12.0488,-27.78913 13.59112,-27.92823c1.38578,-0.12499 2.40292,2.05718 -2.20426,15.18677c-4.99351,14.23056 -13.64653,40.06635 -13.02724,46.93258z" fill="#be8571" stroke="none" stroke-width="0" stroke-linecap="butt"/><path d="M324.58772,186.9355c0,3.51833 1.76589,2.78604 1.40572,3.24279c-0.20521,0.26022 -4.60053,27.75721 -6.90572,27.75721c-1.78399,0 4.00458,-16.6163 1.93399,-29.45123c-0.75234,-4.66354 -7.75013,-10.56382 -9.15799,-12.53049c-5.86961,-8.19937 -13.95933,-14.85787 -14.73701,-16.98385c-0.35008,-0.95703 -4.53899,-5.47655 -4.53899,-6.53444c0,-5.52285 2.64873,0 9,0c6.35127,0 23,28.97715 23,34.5z" fill="#be8571" stroke="none" stroke-width="0" stroke-linecap="butt"/><path d="M289.56564,82.17679c4.3199,12.45827 0.34081,25.15175 -8.88754,28.35167c-9.22835,3.19992 -20.21137,-4.30545 -24.53126,-16.76372c-2.33072,-6.72163 15.64035,7.77422 17.66223,2.4436c1.7256,-4.54947 -13.02405,-29.32179 -8.77468,-30.79526c0.59528,-0.20641 -3.98675,-4.26414 -3.30595,-3.82962c5.59088,3.56843 18.91449,30.63147 23.33313,34.60016c3.38453,3.03987 2.75125,-19.06188 4.50409,-14.00683z" fill="#f7b8a2" stroke="none" stroke-width="0" stroke-linecap="butt"/><path d="M176.61651,122.79888c1.32386,-7.59699 14.08084,-10.73357 30.20778,-13.56605c15.46075,-2.71548 46.30145,-0.81931 59.09454,3.40965c4.4543,1.47244 2.1185,4.80182 3.50955,7.12219c5.38622,8.98463 5.94336,14.67542 -13.82881,20.12408c-5.94053,1.63705 -24.93173,2.19196 -33.49402,1.9403c-19.93602,-0.58595 -36.96809,-1.04448 -44.4203,-6.89729c-2.04179,-1.60357 -1.44329,-9.98352 -1.06874,-12.13288z" data-paper-data="{&quot;index&quot;:null}" fill="#86746e" stroke="none" stroke-width="0" stroke-linecap="butt"/><path d="M306.3795,215.47828c0,1.34306 8.67874,18.0778 8.07779,22.01188c-0.68455,4.48134 2.76865,3.74563 4.13791,10.31819c1.63024,7.82524 -6.8585,7.66993 -9.2157,7.66993c-2.56702,0 0.78627,27.53509 -6.0341,24.33418c-5.0978,-2.39248 -15.27524,1.72299 -24.35714,-6.73313c-4.47727,-4.16876 -14.01808,-10.62206 -19.79535,-22.71121c-3.93058,-8.22488 -5.31341,-23.89256 -5.31341,-24.38984c0,-2.28243 5.91068,-2.39129 16.79311,-5.49722c11.50015,-3.28222 19.08549,-12.00278 22.20689,-12.00278c6.07513,0 13.5,2.30558 13.5,7z" fill="#f7b8a2" stroke="none" stroke-width="0" stroke-linecap="butt"/><g data-paper-data="{&quot;index&quot;:null}" stroke="#000000" stroke-linecap="butt"><path d="M153.63301,123.91408c1.53971,1.22699 21.49897,13.64894 22.27655,15.01384c6.21275,10.90539 0.76725,20.21126 -5.66873,23.87781c-3.15588,1.79789 -8.45545,4.29283 -19.7012,2.34356c-11.6884,-2.02599 -29.33321,-8.63719 -32.49955,-14.19512c-6.21277,-10.90541 -30.05262,-28.75687 -23.61665,-32.42342c5.63046,-3.20765 48.44711,-3.19317 59.20956,5.38332z" fill="#ffddd1" stroke-width="0.5"/><path d="M109.84749,126.03676c3.57555,-2.03697 35.31922,4.79758 38.98576,11.23355c0.96958,1.70192 0.12716,10.16686 -2.89824,8.36574c-3.87993,-2.30987 -10.58371,-15.3068 -13.5008,-15.13078c-3.40995,0.20577 -3.44208,7.77809 -4.85954,8.58561c-0.36762,0.20944 2.06121,0.78531 -0.62765,-2.49623c-3.07217,-3.74935 -6.55056,-7.41529 -9.48157,-8.37452c-4.62714,-1.51432 -5.38572,2.77918 -3.82202,4.92115c2.08067,2.85011 6.35371,8.68504 13.18651,13.72385c4.20759,3.10286 14.67998,7.01422 18.58,9.09419c5.01907,2.67677 2.91214,2.99239 2.19513,1.73381c-1.81428,-3.18466 -10.584,2.47048 -19.93192,-4.32424c-9.54365,-6.93699 -19.63201,-26.30308 -17.82572,-27.33212z" fill="#be8571" stroke-width="0"/></g><path d="M190.58304,176.94871c-0.04329,-0.13905 -5.65087,4.22385 -11.91281,8.72337c-5.6816,4.08252 -8.88597,4.20291 -11.97748,5.24976c-0.6326,-0.31239 -3.48711,-1.67543 3.09599,-12.21537c0.9823,-1.57273 4.06198,-1.16245 5.23428,-3.10132c3.03857,-5.02549 -7.56433,4.83723 -16.45582,12.84195c-1.40254,1.26266 -4.37608,7.13952 -5.80432,7.57653c-1.40405,0.42964 -1.53876,-5.56367 -1.2703,-10.30559c0.15147,-2.67527 0.93956,-4.92503 0.44966,-5.4653c-0.62709,-0.69157 -9.69224,6.89068 -9.97955,6.77677c-3.21387,-1.27407 -2.49352,-6.00615 2.06292,-11.62031c1.02363,-1.26124 4.70132,-1.65671 5.79073,-3.0963c1.90807,-2.52142 -17.03907,3.34568 -13.48915,-0.46176c0.76187,-0.81714 5.13084,-4.02819 11.61244,-7.00806c2.83888,-1.30516 6.76466,-3.85311 9.24082,-4.58235c1.37136,-0.40387 1.538,0.94099 2.63428,0.53557c1.40617,-0.52 -1.55817,0.28204 -2.10896,2.0311c3.31992,-3.75035 -8.90548,0.71678 -16.3989,3.33804c-3.01438,1.05447 -5.06503,2.27897 -5.33516,1.82712c-2.32263,-3.88528 5.28397,-8.22798 17.03106,-13.01558c3.15961,-1.28773 9.47802,-2.24051 12.51141,-3.77573c2.59032,-1.31096 -0.87472,0.50953 1.29571,-1.03412c0.24367,-0.17331 -5.16135,1.72625 -10.76662,2.29968c-6.33694,0.64828 -16.0294,3.09523 -15.85008,2.8391c0.37585,-0.53683 11.57961,-7.76614 20.4142,-10.67811c7.05291,-2.32471 14.54872,-1.67299 14.6427,-2.14119c0.29595,-1.47449 -16.29609,1.02477 -16.47145,-0.38185c-0.16716,-1.34086 5.09777,-3.20468 8.10933,-6.50881c3.24351,-3.55864 4.2753,-8.526 4.80195,-8.68044c1.21628,-0.35667 4.13516,5.26337 7.13047,9.66305c3.65065,5.36228 1.06888,2.61409 4.09445,7.64674c2.65989,4.42437 6.6223,7.81677 9.60728,8.50021c2.09755,0.48028 2.3411,2.72326 4.86725,4.57255c3.65635,2.67665 16.17866,3.18463 19.316,3.81763c7.20045,1.45278 20.56497,-0.57367 30.4507,-1.2367c7.21183,-0.48371 18.5107,-13.35649 18.87014,-12.20144c0.3108,0.99873 -12.4194,27.30716 -18.88134,32.16938c-2.29691,1.72828 -2.80723,-10.16298 -4.02306,-8.93229c-4.48822,4.54307 -7.83338,13.5871 -11.60612,15.19503c-3.98107,1.69673 -2.38494,-8.95741 -4.93072,-9.90886c-0.63922,-0.2389 -6.27435,11.77853 -7.40409,13.4088c-1.37633,1.98612 -0.09676,-11.63022 -2.02147,-10.20257c-1.20083,0.89072 -0.96145,3.1896 -1.58561,4.22831c-2.1439,3.56777 -5.52235,7.25734 -7.26403,7.76809c-1.403,0.41144 1.43075,-8.44027 -0.16725,-11.11118c-0.18868,-0.31535 -2.16011,4.14238 -4.65413,6.84536c-2.95381,3.20131 -6.50912,4.77369 -6.83394,4.87549c-1.88107,0.58955 4.80092,-13.05237 2.87231,-12.09425c-6.36973,3.16444 -11.61393,9.509 -14.20834,8.71439c-3.35414,-1.02729 6.05028,-9.15979 5.26457,-11.68464z" data-paper-data="{&quot;index&quot;:null}" fill="#23173a" stroke="none" stroke-width="0" stroke-linecap="butt"/><path d="M175.44822,34.32484c12.19003,-10.33986 31.15225,-11.07779 35.50181,-11.85408c4.34955,-0.77628 6.90739,-4.78777 38.21737,-0.44792c0.3835,2.14883 20.66995,1.81445 25.80627,6.03208c0.05586,0.28246 25.63312,12.54592 27.4245,13.65254c10.52135,6.49955 29.17669,26.83667 21.70494,23.58313c-1.13347,1.03016 -28.38147,-18.96743 -36.46323,-23.61169c-7.26036,-4.17224 -11.26641,-3.45638 -14.88784,-4.06629c-8.62865,-1.4532 -9.1242,-0.58672 -11.48237,2.58264c-3.9954,5.36979 -5.8084,23.8907 -6.90027,24.08556c-0.87202,0.15564 -7.7593,-4.97648 -17.65393,-8.15021c-4.92762,-1.58054 -14.59472,-2.00456 -16.69638,-2.38155c-4.99601,-0.89616 -23.83249,-9.03282 -35.9355,-2.25387c-1.83605,1.02838 -12.42159,4.2579 -16.36621,8.31801c-7.32871,7.5433 -8.89688,17.95365 -9.78764,22.44168c-0.57156,2.87977 -5.62569,15.26096 -2.45367,23.5593c5.4616,14.28812 20.57596,26.2952 18.64736,27.72536c-1.22607,0.9092 -12.0607,0.32962 -18.21965,-8.99136c-4.56015,-6.90134 -13.88071,-3.87557 -17.7954,-6.80313c-1.31909,-0.98647 -9.6947,-1.07024 -9.85265,-1.13197c-0.22775,-0.08901 -10.71704,1.88853 -13.0636,0.41412c-1.48122,-0.93069 0.39132,-9.5376 2.22841,-13.95719c2.45881,-5.91529 17.27236,-30.14505 18.57902,-32.41257c9.81323,-17.02942 27.08915,-28.04545 26.94867,-28.8326z" data-paper-data="{&quot;index&quot;:null}" fill="#23173a" stroke="none" stroke-width="0" stroke-linecap="butt"/><path d="M225.77027,117.75192c11.40243,-4.30538 4.70266,-1.54737 14.12496,-2.64251c10.7875,-1.25381 1.62831,0.15306 9.65876,0.65634c1.517,0.09507 9.27395,4.02521 9.31413,5.02331c0.00492,0.12232 3.51441,2.57417 3.50665,2.70084c1.29586,3.33441 1.57794,3.5008 2.65482,5.64703c0.63209,1.25975 -3.61289,4.99918 -18.88746,6.97954c-10.05406,1.30352 -16.16467,0.01299 -25.44093,-2.09597c-6.60357,-1.50132 -17.01534,-4.19606 -19.23704,-4.34134c-3.7489,-0.24515 -11.94416,-2.78931 -9.57699,-3.94332c14.92482,-1.5822 8.20537,-0.58494 22.88309,-3.98391z" data-paper-data="{&quot;index&quot;:null}" fill="#ffffff" stroke="#200000" stroke-width="0.5" stroke-linecap="butt"/><path d="M336.29627,109.16945c-1.80358,0.90955 -17.76925,4.0824 -24.77125,6.1579c-10.6721,3.16337 -13.09011,5.10062 -11.64612,2.99418c1.75953,-2.56674 2.71502,-5.57703 4.6552,-9.26392c0.0737,-0.14005 4.41797,-5.97917 4.4944,-6.1164c1.73942,-3.12373 8.33772,-6.46112 12.44851,-8.44932c1.17385,-0.56773 10.56165,-1.44392 11.7314,-1.54559c3.31705,-0.28832 6.17449,1.03288 8.37751,4.00833c1.48337,2.00348 2.60332,2.39191 3.92101,6.39058c0.29921,0.90798 -7.47711,4.95 -9.21066,5.82424z" data-paper-data="{&quot;index&quot;:null}" fill="#ffffff" stroke="#200000" stroke-width="0.5" stroke-linecap="butt"/><path d="M320.71157,96.5005c2.99032,-0.53369 5.88642,1.67817 6.46863,4.94032c0.58221,3.26217 -1.36994,6.33931 -4.36025,6.873c-2.99032,0.53369 -5.88642,-1.67817 -6.46863,-4.94032c-0.58221,-3.26217 1.36994,-6.33931 4.36025,-6.873z" data-paper-data="{&quot;index&quot;:null}" fill="url(#color-1)" stroke="none" stroke-width="0" stroke-linecap="butt"/><path d="M217.08556,29.42467z" fill="url(#color-2)" stroke="none" stroke-width="0" stroke-linecap="butt"/><path d="M248.80789,126.0888c-1.88414,2.72592 -5.43719,3.53561 -7.93596,1.80849c-2.49877,-1.72713 -2.99702,-5.33704 -1.11288,-8.06297c1.88414,-2.72592 5.43718,-3.53561 7.93596,-1.80849c2.49876,1.72712 2.99702,5.33704 1.11288,8.06297z" fill="url(#color-3)" stroke="none" stroke-width="0" stroke-linecap="butt"/><path d="M227.77928,92.16546c-0.48518,-2.71847 0.3762,-6.91387 3.77428,-7.52034c0.60689,-0.10831 8.2095,-0.90077 9.61416,-0.47126c6.46029,1.97541 14.30979,11.14612 14.70832,13.37907c0.48517,2.71846 -17.66741,-2.16984 -21.06549,-1.56337c-3.39808,0.60647 -6.54609,-1.10565 -7.03127,-3.82411z" data-paper-data="{&quot;index&quot;:null}" fill="#23173a" stroke="none" stroke-width="0" stroke-linecap="butt"/><path d="M304.4922,74.92958c1.73535,1.27283 7.35231,3.56313 5.76127,5.73231c-1.59105,2.16918 -10.43818,15.48324 -12.17352,14.2104c-1.73534,-1.27283 -1.20174,-16.15057 0.3893,-18.31975c1.59104,-2.16917 4.28761,-2.8958 6.02295,-1.62296z" data-paper-data="{&quot;index&quot;:null}" fill="#23173a" stroke="none" stroke-width="0" stroke-linecap="butt"/><path d="M369.63426,141.39912c0.9267,2.21147 13.04557,5.39848 11.10036,7.29901c-1.50461,1.47005 -9.35765,-1.70643 -16.14746,-2.05269c-2.0558,-0.10485 11.31383,8.24019 9.51746,8.40468c-0.31021,0.0284 -3.98266,-0.01495 -8.18058,-1.51624c-3.54448,-1.26759 -7.75098,-4.06441 -7.70452,-3.75832c0.39346,2.59229 7.91909,8.50237 6.59637,8.64693c-1.64201,0.17946 -6.46042,-1.55934 -10.26029,-3.61111c-1.10629,-0.59733 -2.31433,-2.45393 -3.77238,-2.74665c-2.33698,-0.46919 6.88271,9.63771 4.62744,8.55584c-1.85121,-0.88802 -13.43657,-8.32216 -13.78116,-7.92664c-1.37247,1.57528 5.2968,5.78726 1.22325,5.78817c-2.18881,0.00048 -12.82659,-9.83957 -17.99283,-13.10271c-3.94537,-2.492 5.59266,7.56085 2.91486,6.68065c-6.38838,-2.09987 -19.60439,-7.996 -20.10124,-9.18171c-0.42394,-1.01168 -1.10671,-2.89223 4.70523,-4.89659c7.9668,-2.74749 29.23578,2.69026 33.86705,-0.80776c2.0179,-1.52413 5.10897,-5.44954 6.2873,-8.72511c0.81409,-2.26305 1.14305,-3.07778 2.45765,-4.14091c1.87078,-1.5129 0.91464,1.50019 0.27267,-2.79818c-0.27936,-1.87045 -0.16561,-7.32537 -1.1788,-9.32594c-1.63528,-3.22891 -4.60123,-3.07675 -4.87991,-6.38028c-0.37034,-4.3899 -4.0377,-9.19823 -2.89103,-9.32355c0.49649,-0.05426 11.79231,3.4465 16.4282,5.12855c4.30435,1.56175 9.46155,1.26663 10.1451,2.35859c0.71708,1.14553 -13.49329,4.68484 -12.37445,5.72739c0.35526,0.33104 5.69738,-2.64492 12.50185,-3.17332c8.52337,-0.66187 21.47266,1.23333 22.08519,1.52449c0.29224,0.13891 -8.60624,1.44326 -13.84821,3.03183c-4.63674,1.40515 -9.92277,1.71883 -9.6314,1.77247c2.59522,0.47786 -1.15831,0.21288 1.61744,0.37233c3.25054,0.18673 8.66262,-1.16027 11.85997,-1.20653c11.88743,-0.17203 20.33689,0.67742 20.91071,4.44769c0.06674,0.43848 -2.24369,0.16791 -5.18874,0.34667c-7.32105,0.44435 -19.38056,1.02192 -14.57018,2.82704c-1.48002,-1.17082 -4.23403,-0.8134 -2.84318,-0.87504c1.08432,-0.04806 0.39799,-1.14292 1.69188,-1.28289c2.33631,-0.25274 6.88269,0.4228 9.84515,0.49579c6.76373,0.16663 12.05058,1.20876 13.12816,1.58936c5.02095,1.7734 -13.02994,3.48522 -10.04376,4.80563c1.70494,0.7539 4.75882,-0.15318 6.30549,0.48451c6.88466,2.83851 10.29972,6.26004 8.61122,8.30514c-0.15095,0.18281 -11.67718,-2.69059 -11.73856,-1.94904c-0.04795,0.57931 1.91669,2.05904 3.65166,4.07777c3.07518,3.57817 6.59917,8.25695 5.26464,8.38778c-1.35751,0.13309 -7.18973,-3.43058 -9.02724,-3.94439c-11.64898,-3.25735 -25.73216,-7.38702 -20.36539,-4.50313c2.07053,1.11263 4.17911,-0.22027 5.88266,0.67189c11.41667,5.97904 10.057,7.97439 9.76195,8.42457c-2.99946,0.21007 -5.5246,1.17375 -12.34341,-0.10935c-7.5153,-1.41416 -14.44715,-2.93846 -14.39612,-2.81666z" data-paper-data="{&quot;index&quot;:null}" fill="#23173a" stroke="none" stroke-width="0" stroke-linecap="butt"/><path d="M258.99017,250.42478c-2.27642,-5.52697 20.93423,18.50365 26.8189,8.72198c7.05226,-11.72247 13.81446,-28.53173 16.16951,-29.50172c3.00099,-1.23605 14.31388,16.68977 19.56687,25.71813c2.30914,3.96872 1.20091,-18.21188 2.72906,-14.50165c5.00452,12.15054 3.77183,39.80534 -0.54837,41.58472c-1.06171,0.43729 -9.85368,9.20219 -15.71166,8.47887c-9.63054,-1.18914 -10.75883,0.41846 -18.66845,-3.41983c-6.85641,-3.3272 -17.54567,-12.36518 -19.29837,-16.62059z" data-paper-data="{&quot;index&quot;:null}" fill="#23173a" stroke="none" stroke-width="0" stroke-linecap="butt"/><g data-paper-data="{&quot;index&quot;:null}" stroke="#710000" stroke-linecap="butt"><path d="M284.7682,105.73982c3.88788,-0.26307 23.30762,22.53356 23.49855,40.4652c0.06126,5.75312 5.97665,-0.44507 8.34732,2.35827c1.1324,1.33909 0.42663,11.04926 -0.18364,13.26064c-0.83806,3.03679 -17.18564,20.55233 -18.94288,21.56837c-2.63393,1.52294 -11.83853,-7.71882 -13.06497,-7.63584c-1.12107,0.07586 -3.78296,-1.54457 -6.40107,-2.50002c-5.77817,-2.10867 -13.07765,-5.95528 -15.39474,-16.37145c-0.27403,-1.23189 0.56931,-2.81746 0.55493,-4.16707c-0.01332,-1.25158 1.94616,0.91496 3.46767,-0.38383c0.86395,-0.73748 2.73026,-5.05961 2.65202,-6.05115c-0.96004,-12.16772 2.87247,-28.00682 5.59733,-37.41096c2.26471,-7.81601 8.29793,-3.02588 9.86947,-3.13222z" fill="#ffcbb8" stroke-width="0.5"/><path d="M262.21135,157.08107c-0.00514,-0.48225 0.9011,-3.6005 0.93102,-4.05004c0.07024,-1.05539 2.40824,-0.90773 3.8356,-5.90084c1.92911,-6.74832 1.66418,-23.07654 2.13433,-23.10835c0.9662,-0.06538 2.51166,24.48917 2.54515,27.63379c0.01431,1.34446 2.3002,5.71511 5.97615,9.68472c1.32706,1.43305 3.03067,3.092 4.43542,4.77627c3.80534,4.56254 9.00331,9.29629 8.59933,9.32363c-0.27027,0.01829 -1.20715,-0.72254 -4.27181,-3.77226c-4.82795,-4.8044 -13.05971,-13.10185 -17.97079,-16.12696c-3.11654,-1.91972 -6.20503,2.41937 -6.21441,1.54003z" fill="#e1a088" stroke-width="0"/></g><path d="M268.84713,141.73997c-3.14027,-16.95914 1.75543,-34.28937 5.82711,-35.20578c1.60893,-0.36213 -5.62314,24.48503 -1.62085,28.31523c6.1262,5.8628 16.47299,-18.93281 22.72429,-6.99959c7.88474,4.8919 6.17732,13.95804 12.02744,17.96229c0.80984,0.55431 3.02045,13.14846 1.62445,18.01056c-1.81613,6.32533 -6.8127,-1.70077 -4.60236,-0.96537c3.87632,1.28967 4.42414,3.98024 3.63731,4.15732c-1.01941,0.22944 -4.53298,8.988 -7.24677,9.1333c-0.39295,0.02104 -4.97249,-1.3428 -6.30413,-0.27313c-1.221,0.98079 4.31418,5.0361 3.64951,5.05184c-1.83504,0.04349 -1.26065,-0.79473 -4.93222,-3.63031c-6.53024,-5.04336 -14.06832,-13.06331 -16.45663,-15.01068c-6.221,-5.07246 -6.99205,-13.33549 -8.32715,-20.54569z" data-paper-data="{&quot;index&quot;:null}" fill="url(#color-4)" stroke="none" stroke-width="0" stroke-linecap="butt"/><path d="M235.23004,112.10783c-8.81134,-1.91576 -27.22062,-1.07011 -39.08704,2.29738c-12.84455,3.64507 -18.82536,9.8948 -18.67288,9.19351c0.1395,-0.64163 -1.69208,-8.46077 11.42319,-12.13466c14.46313,-4.05146 37.77612,-6.33429 47.39901,-4.24208c3.26439,0.70974 19.48704,2.61248 25.01108,2.05563c6.74128,-0.67955 2.80855,-3.87865 5.77554,-3.06685c8.26771,2.26216 2.08351,9.8614 1.90604,10.67764c-0.29334,1.34919 -15.40594,-0.79115 -33.75494,-4.78058z" fill="#1f1b1a" stroke="none" stroke-width="0" stroke-linecap="butt"/><path d="M289.80605,110.94922c-0.15449,-0.66743 -4.21779,-5.48006 0.42777,-10.03793c1.66713,-1.63566 -0.40818,2.41109 3.53955,0.92825c3.23491,-1.21508 12.5109,-7.91428 14.35676,-9.55158c5.44128,-4.82645 19.08925,-10.01395 27.7232,-10.9003c7.82933,-0.80375 7.26366,6.68165 7.3851,7.2063c0.13273,0.57344 -3.7273,-3.10789 -11.398,-2.36232c-7.08657,0.68879 -17.80317,5.63198 -22.78557,10.0514c-10.37547,9.20311 -18.99347,15.76938 -19.24882,14.66617z" data-paper-data="{&quot;index&quot;:null}" fill="#1f1b1a" stroke="none" stroke-width="0" stroke-linecap="butt"/><path d="M246.34643,122.23954c-0.132,0.60714 -0.73119,0.99231 -1.33833,0.8603c-0.60714,-0.132 -0.99231,-0.73119 -0.8603,-1.33833c0.132,-0.60714 0.73119,-0.99231 1.33833,-0.8603c0.60714,0.132 0.99231,0.73119 0.8603,1.33833z" fill="#ffffff" stroke="none" stroke-width="0" stroke-linecap="butt"/><path d="M321.62842,102.66052c-0.132,0.60714 -0.73119,0.99231 -1.33833,0.8603c-0.60714,-0.132 -0.99231,-0.73119 -0.8603,-1.33833c0.132,-0.60714 0.73119,-0.99231 1.33833,-0.8603c0.60714,0.132 0.99231,0.73119 0.8603,1.33833z" fill="#ffffff" stroke="none" stroke-width="0" stroke-linecap="butt"/><path d="M257.692,216.89067c0,0 32.22034,-18.91544 40.53527,-20.28603c6.26142,-1.0321 17.46473,12.28603 17.46473,12.28603" fill="none" stroke="#000000" stroke-width="2" stroke-linecap="round"/></g></g></svg>