<svg version="1.1" xmlns="http://www.w3.org/2000/svg" xmlns:xlink="http://www.w3.org/1999/xlink" width="346.64936" height="486.61583" viewBox="0,0,346.64936,486.61583"><defs><linearGradient x1="211.53747" y1="-58.70741" x2="211.53911" y2="-58.70552" gradientUnits="userSpaceOnUse" id="color-1"><stop offset="0" stop-color="#000000"/><stop offset="1" stop-color="#86746e"/></linearGradient><linearGradient x1="103.64309" y1="121.34132" x2="109.50353" y2="131.81296" gradientUnits="userSpaceOnUse" id="color-2"><stop offset="0" stop-color="#000000"/><stop offset="1" stop-color="#86746e"/></linearGradient><linearGradient x1="89.49097" y1="176.24982" x2="47.44853" y2="175.8781" gradientUnits="userSpaceOnUse" id="color-3"><stop offset="0" stop-color="#c6856e"/><stop offset="1" stop-color="#f7b8a2"/></linearGradient><linearGradient x1="93.4485" y1="229.34899" x2="94.03591" y2="236.3243" gradientUnits="userSpaceOnUse" id="color-4"><stop offset="0" stop-color="#c70000"/><stop offset="1" stop-color="#c70000" stop-opacity="0"/></linearGradient><linearGradient x1="90.57725" y1="227.84965" x2="92.46562" y2="221.10917" gradientUnits="userSpaceOnUse" id="color-5"><stop offset="0" stop-color="#c70000"/><stop offset="1" stop-color="#c70000" stop-opacity="0"/></linearGradient></defs><g transform="translate(-42.55746,64.67317)"><g data-paper-data="{&quot;isPaintingLayer&quot;:true}" fill-rule="nonzero" stroke-linecap="butt" stroke-linejoin="miter" stroke-miterlimit="10" stroke-dasharray="" stroke-dashoffset="0" style="mix-blend-mode: normal"><path d="M302.11668,38.9421c-0.06396,0.65169 22.17742,26.71056 25.22697,39.27063c3.89536,16.04371 -3.72551,53.4618 -3.39379,58.25081c0.20922,3.02046 -9.16069,28.69359 -17.76167,36.78065c-11.49577,10.80888 -26.98251,14.56116 -36.09293,29.41336c-6.55474,10.68583 -8.38383,28.74331 -23.07796,35.64591c-14.67786,6.89496 5.4316,-6.44773 2.75944,-5.2593c-9.9672,4.43289 -18.37643,-21.64201 -8.35669,-45.33709c6.9174,-16.35853 3.74022,-20.56867 -0.55706,-20.76489c-2.44202,-0.11151 -25.18734,-100.33374 -27.98747,-100.59042c-7.6735,-0.70338 -8.34768,-5.24377 -19.71859,-8.4883c-14.41826,-4.11405 -40.11385,-6.85838 -53.96075,-4.90552c-16.47424,2.3234 -39.57471,13.53799 -39.27525,10.48696c0.3447,-3.51201 9.08646,-19.13757 29.9482,-25.58899c24.50844,-7.57915 72.14479,-24.07455 87.79923,-22.63959c10.7612,0.98642 36.61407,-2.55327 47.69406,2.26981c18.75811,8.16534 37.22553,16.65428 36.75425,21.45597z" fill="#23173a" stroke="none" stroke-width="0"/><path d="M389.15371,-27.20629c-0.99938,15.27535 -33.45198,23.55946 -65.27303,31.85184c-6.88043,1.793 -14.0056,6.26609 -20.76811,11.5219c-14.54685,11.30577 -27.4156,26.23333 -32.56047,25.89673c-14.23004,-0.93098 -20.79033,23.17751 -14.56712,8.05256c1.91025,-4.64273 -9.41746,-12.65071 -9.02282,-18.68273c1.68029,-25.68302 68.06847,-97.30863 86.66652,-96.09187c18.59807,1.21676 57.20531,11.76856 55.52502,37.45159z" data-paper-data="{&quot;index&quot;:null}" fill="#23173a" stroke="none" stroke-width="0"/><path d="M173.95321,48.97055c38.16484,1.52635 75.46498,25.45077 86.6941,53.16486c0.48875,1.20623 16.18926,-0.67511 15.76502,5.30776c-0.23856,3.36444 -1.09085,28.03253 -3.40312,50.00619c-1.11312,10.57804 -4.20558,44.9351 -1.79005,55.63651c1.68003,7.44296 16.58368,61.31161 19.9215,68.04749c1.5773,3.18308 24.97533,47.00966 29.51992,54.93767c11.27761,19.67367 11.05156,22.24159 16.23288,33.32827c7.28652,15.59128 0.26283,-7.29471 0.80858,-0.25492c0.10203,1.31604 -1.51503,-2.83655 -1.42555,-2.03549c2.30493,20.63538 -48.66635,-42.99776 -58.71051,-54.76261c-1.21561,-1.42385 -32.00244,-70.02607 -32.047,-69.95383c-3.43731,5.57237 -11.42335,-20.88704 -23.45836,-49.38921c-19.57621,-46.3618 -28.90195,-70.23949 -48.21731,-71.01198c-30.76661,-1.23047 -85.19176,25.49709 -100.67179,15.04991c-3.72238,-2.51215 4.91352,-32.21263 5.02663,-36.11713c0.18108,-6.2512 3.43399,-21.87968 9.59007,-32.51864c0.37293,-0.6445 11.00827,-14.29598 11.39241,-14.85246c5.54229,-8.0287 16.37121,-15.35611 25.44635,-20.32367c5.18613,-2.83879 16.87107,-8.91454 30.59423,-13.52688c5.70638,-1.91791 33.12595,-8.00607 51.49271,-9.11685c9.84781,-0.59557 40.33998,2.5964 45.0699,5.1197c5.78449,3.08589 -12.23193,9.00067 -11.02088,8.58503c12.42335,-4.26374 -77.89794,24.23679 -66.80969,24.68025z" data-paper-data="{&quot;index&quot;:null}" fill="#23173a" stroke="none" stroke-width="NaN"/><path d="M182.42226,421.94266c0,0 15.21746,-28.56406 9.08507,-57.17593c-9.73365,-45.41428 -23.07445,-107.87811 -26.9506,-127.1001c-4.28111,-21.2302 12.55659,-35.93934 12.55659,-35.93934l43.59565,-46.87231c0,0 20.58972,72.00258 31.36341,97.65591c4.24264,10.10218 14.12423,42.59778 28.52209,53.93088c22.35419,17.59582 61.19602,70.86213 61.19602,70.86213c0,0 -66.07316,-0.18126 -83.66219,13.69346c-21.03778,16.59519 -75.70604,30.9453 -75.70604,30.9453z" data-paper-data="{&quot;index&quot;:null}" fill="#412a6a" stroke="none" stroke-width="0"/><path d="M259.85073,154.34693c-3.47836,13.53609 -15.49483,19.89273 -23.10595,23.33844c-11.57818,5.24167 -10.84594,4.92043 -24.95844,11.52654c-1.5616,-0.1597 -8.1167,3.99938 -14.60226,9.84825c-7.81245,7.0455 -15.82467,16.24226 -18.85077,19.33116c-1.96484,2.00561 -34.15556,67.37643 -35.8428,69.30919c-13.17607,15.09318 -4.86462,12.32102 -13.70674,12.77148c-7.05944,0.35963 -20.84373,3.6046 -29.94859,0.53625c-5.77626,-1.94659 2.76211,-3.94048 -7.3315,-10.10129c-0.22082,0.6605 -6.32167,14.60912 -4.9689,8.47725c0.30767,-1.39462 -6.20896,-55.46462 -6.28918,-57.93913c-0.63673,-19.64137 -1.06542,-18.45476 -4.45829,-29.2642c-6.58429,-20.9771 4.59784,-54.66403 1.42849,-79.04101c-0.81252,-6.24949 -8.99077,-13.43473 -11.09568,-17.81583c-7.62396,-15.86831 33.47244,-48.45416 52.47899,-61.88492c13.81833,-9.76457 8.57116,-6.4429 18.63431,-10.87717c4.764,-2.09924 23.94864,-4.18908 34.92255,-0.87623c0.87668,0.26466 12.00755,2.53176 16.07919,4.73684c3.74192,2.02651 6.39345,3.90537 7.98312,5.6569c0.9182,1.01168 2.81575,5.31422 4.08357,6.24485c2.89122,2.12227 0.15189,14.24588 0.98541,14.50183c1.48532,0.4561 8.86284,3.02755 11.81626,5.42179c3.12424,2.53272 4.81357,13.57348 5.78193,14.53102c6.93533,6.85786 1.8963,0.5046 11.41602,9.20677c4.22012,3.8577 17.34897,-15.79447 20.51724,-10.89746c15.55149,24.03707 18.25141,33.61412 13.03204,53.92536z" data-paper-data="{&quot;index&quot;:null}" fill="#ffddd1" stroke="#003737" stroke-width="0.5"/><path d="M80.59927,96.20398c1.77834,-4.90906 -6.94076,18.47385 -4.14163,15.68583c3.65439,-3.63988 16.09902,-29.64399 20.58568,-32.80287c0.54634,-0.38465 -3.23773,3.33237 -2.81539,3.57976c3.01486,1.76605 -10.27192,25.38928 -9.42073,30.03991c0.99733,5.44914 15.70474,-7.71675 13.34011,-1.18924c-4.38274,12.09848 -13.24334,18.79709 -19.79071,14.96178c-2.95948,-1.7336 -14.46612,-0.19936 -15.343,-4.72967c-1.06308,-5.49225 10.44642,-11.32914 12.84812,-17.95897z" data-paper-data="{&quot;index&quot;:null}" fill="#f7b8a2" stroke="none" stroke-width="0"/><path d="M181.46576,123.5464c-5.82348,7.47515 -22.24391,12.02172 -41.45214,17.39125c-8.24971,2.30616 -26.81567,6.34088 -32.9756,6.18256c-20.50241,-0.52694 -21.33208,-6.18443 -18.26797,-16.20172c0.79134,-2.58707 -2.27748,-5.25598 1.69116,-7.75774c11.39823,-7.18524 43.87472,-22.45242 59.53441,-23.53998c16.33445,-1.13443 26.13801,0.50448 29.25236,7.5591c0.88112,1.99591 3.81333,14.31846 2.21778,16.36653z" data-paper-data="{&quot;index&quot;:null}" fill="#86746e" stroke="none" stroke-width="0"/><path d="M136.39969,115.78203c8.10629,1.28039 20.37037,4.86874 31.60969,7.72939c2.55212,0.64956 5.20597,-0.36603 1.58485,0.63488c-9.5094,2.62848 -77.20673,16.896 -76.3656,13.74268c0.61888,-2.32012 -0.03419,-4.3972 -0.91082,-7.62078c-0.03331,-0.12246 3.96839,-5.49836 3.94838,-5.61914c-0.16323,-0.98548 6.63464,-6.40815 8.10077,-6.80913c7.76117,-2.12264 1.64759,-1.27099 12.46505,-2.23267c9.44847,-0.83997 7.52875,-1.72682 19.56768,0.17476z" data-paper-data="{&quot;index&quot;:null}" fill="#ffffff" stroke="#200000" stroke-width="0.5"/><path d="M170.32274,24.60253z" data-paper-data="{&quot;index&quot;:null}" fill="url(#color-1)" stroke="none" stroke-width="0"/><path d="M103.64309,121.34132c2.6507,-1.48345 6.11141,-0.34187 7.72973,2.54978c1.61832,2.89167 0.78142,6.4384 -1.86928,7.92186c-2.65069,1.48345 -6.11141,0.34187 -7.72973,-2.54978c-1.61832,-2.89167 -0.78141,-6.43841 1.86928,-7.92186z" data-paper-data="{&quot;index&quot;:null}" fill="url(#color-2)" stroke="none" stroke-width="0"/><path d="M128.48064,88.93527c-0.00729,2.76141 -2.81141,4.9926 -6.26317,4.9835c-3.45176,-0.00911 -20.48415,7.94762 -20.47687,5.18622c0.00599,-2.26823 6.14954,-12.65925 12.17036,-15.72312c1.30911,-0.66617 8.93412,-1.20169 9.5506,-1.20007c3.45176,0.00911 5.02637,3.99207 5.01908,6.75348z" data-paper-data="{&quot;index&quot;:null}" fill="#23173a" stroke="none" stroke-width="0"/><path d="M144.04514,295.29252c-4.62316,8.76712 -32.16503,31.82181 -50.27304,32.33414c-5.90011,0.16693 -14.8925,-5.55774 -15.90817,-6.09334c-4.13287,-2.17938 -4.25017,-43.34052 1.87933,-54.9642c1.87167,-3.54935 -4.97468,13.65713 -2.3011,9.92419c6.08205,-8.49199 4.42122,-8.27273 7.29209,-6.75882c2.25293,1.18804 9.46572,12.58754 15.37954,24.92356c2.34772,4.89726 16.18406,-3.14359 28.17152,-7.62798c13.20921,-4.94142 22.99363,-14.03698 21.53196,-11.26513z" data-paper-data="{&quot;index&quot;:null}" fill="#23173a" stroke="none" stroke-width="0"/><path d="M101.61409,129.05959c0.61689,-0.07409 1.17703,0.36594 1.25111,0.98283c0.07409,0.61689 -0.36594,1.17703 -0.98283,1.25111c-0.61689,0.07409 -1.17703,-0.36594 -1.25111,-0.98283c-0.07409,-0.61689 0.36594,-1.17703 0.98283,-1.25111z" data-paper-data="{&quot;index&quot;:null}" fill="#ffffff" stroke="none" stroke-width="0"/><path d="M107.71214,233.13474c0.65099,-6.8633 -7.88259,-32.73878 -12.81031,-46.99226c-4.54648,-13.15074 -3.51928,-15.32818 -2.13409,-15.19679c1.54166,0.14623 9.02517,15.33016 13.46197,27.99072c3.87044,11.04445 4.90649,19.27941 4.32334,25.4274c-1.25162,13.1956 -3.32342,31.32615 -6.20995,31.05236c-1.13854,-0.10799 -2.11529,8.19581 -2.05911,9.5622c0.07475,1.81772 1.5051,-3.661 2.22441,-9.16167c0.11084,-0.84757 3.10256,-21.61507 3.20375,-22.68196z" data-paper-data="{&quot;index&quot;:null}" fill="#be8571" stroke="none" stroke-width="0"/><g><g data-paper-data="{&quot;index&quot;:null}" stroke="#710000"><path d="M72.06339,126.25684c1.56404,0.21956 7.83523,-5.21689 9.69591,4.3557c2.23874,11.51762 5.25347,30.87253 3.67029,45.51478c-0.12901,1.19319 1.51307,6.52227 2.33806,7.46318c1.45289,1.65706 3.521,-0.8464 3.44347,0.66467c-0.08362,1.62941 0.67726,3.59358 0.34038,5.06575c-2.84859,12.4478 -10.33598,16.67112 -16.21485,18.8833c-2.66374,1.00235 -5.40532,2.80542 -6.52104,2.64879c-1.22058,-0.17133 -10.88747,10.45857 -13.43983,8.46625c-1.70281,-1.32919 -6.24067,-10.90695 -6.92181,-14.6238c-0.496,-2.70661 -6.69235,-15.65994 -5.4927,-17.21183c2.51144,-3.24885 3.20119,-6.76349 3.5576,-13.70937c1.11085,-21.64931 21.67518,-48.06051 25.54451,-47.51735z" fill="#ffcbb8" stroke-width="0.5"/><path d="M85.82899,187.3613c-5.05994,3.36945 -13.70679,12.91507 -18.775,18.43862c-3.21718,3.50621 -4.19085,4.34678 -4.45983,4.30902c-0.40206,-0.05644 5.03208,-5.4732 9.0666,-10.76388c1.48936,-1.95306 3.27589,-3.85821 4.67476,-5.51232c3.87487,-4.58196 6.38208,-9.72894 6.46536,-11.35213c0.19481,-3.79658 2.9983,-33.36746 3.95989,-33.23247c0.46791,0.06568 -0.63457,19.77387 0.94574,28.03729c1.16928,6.11413 3.51182,6.07131 3.52781,7.35023c0.00681,0.54476 0.75186,4.36395 0.72198,4.94619c-0.05449,1.06165 -2.91631,-4.35877 -6.12731,-2.22054z" fill="#e1a088" stroke-width="0"/></g><path d="M79.97128,197.95787c-2.40904,2.33384 -10.03257,11.96572 -16.61648,18.00692c-3.70175,3.39661 -3.13634,4.41535 -4.97084,4.34653c-0.66448,-0.02491 4.91385,-4.88006 3.70338,-6.07693c-1.32015,-1.30533 -5.91409,0.30347 -6.3068,0.27456c-2.71213,-0.19971 -6.13192,-10.82251 -7.14883,-11.10898c-0.78491,-0.2211 -0.20834,-3.46996 3.68162,-4.99529c2.21812,-0.86979 -2.86407,8.79201 -4.6125,1.12673c-1.34396,-5.89208 1.00122,-21.10264 1.81696,-21.76581c5.89271,-4.79063 -1.83737,-2.26195 6.09936,-8.10802c4.10554,-9.25267 0.07554,9.33368 5.51595,15.4994c1.7653,2.00064 9.86676,10.97517 15.17544,4.44521c3.74969,-4.61232 7.16392,-23.74866 8.07684,-24.78654c4.04309,-4.59648 -2.92303,-34.7081 -1.31804,-34.25595c4.06172,1.14422 8.77193,22.14496 5.45046,42.62589c-1.41214,8.70751 -2.27151,18.69317 -8.5465,24.77229z" data-paper-data="{&quot;index&quot;:null}" fill="url(#color-3)" stroke="none" stroke-width="0"/></g><g data-paper-data="{&quot;index&quot;:null}" stroke="#000000"><path d="M235.28064,89.32545c3.15559,-13.39511 36.79758,-39.88061 43.20607,-40.84101c7.3253,-1.09779 -0.37337,27.67274 1.48678,40.08508c0.94803,6.32594 -8.83179,22.43192 -16.76537,31.25131c-7.63313,8.48539 -13.34088,9.80134 -16.93284,10.33964c-7.32531,1.0978 -17.35905,-2.84894 -19.21921,-15.26126c-0.23281,-1.5535 7.77313,-23.65739 8.22458,-25.57374z" fill="#ffddd1" stroke-width="0.5"/><path d="M271.00559,63.92056c2.05588,-0.3081 6.10145,21.15009 2.89003,32.50306c-3.14555,11.12013 -13.5346,12.09802 -12.99138,15.72273c0.21468,1.4325 -1.63637,2.48718 0.65318,-2.71994c1.77908,-4.04615 7.59121,-13.59543 8.97954,-18.63568c2.25455,-8.18498 2.00504,-15.41291 1.87804,-18.93941c-0.09545,-2.65031 -3.34637,-5.55565 -6.04666,-1.50448c-1.71047,2.56617 -2.17754,7.59808 -2.27378,12.44438c-0.08424,4.24163 1.46859,2.28725 1.05017,2.34995c-1.61332,0.24178 -6.32065,-5.68967 -9.12786,-3.74298c-2.40147,1.66533 0.36601,16.02506 -1.25513,20.23948c-1.2641,3.2862 -7.16017,-2.84578 -7.45047,-4.78288c-1.0978,-7.32531 19.62465,-32.32434 23.69427,-32.93424z" fill="#be8571" stroke-width="0"/></g><path d="M109.68577,231.494c0.16221,1.92618 -6.84447,4.08878 -15.64986,4.8303c-3.71195,0.31259 -4.57063,7.13023 -7.31936,6.89309c-3.77174,-0.3254 -8.82408,-7.9239 -8.91791,-9.03809c-0.16221,-1.92618 -3.45592,-7.23552 5.34947,-7.97704c8.80539,-0.74152 26.37545,3.36557 26.53766,5.29175z" fill="url(#color-4)" stroke="none" stroke-width="0"/><path d="M79.86893,229.00367c-8.50895,-2.38382 -4.27576,-6.97922 -3.7543,-8.84055c0.30164,-1.07668 6.69248,-7.58978 10.45814,-7.20024c2.7443,0.28388 2.30587,7.14138 5.89285,8.14628c8.50895,2.38382 14.98408,5.82519 14.46262,7.68652c-0.52146,1.86133 -18.55037,2.5918 -27.05932,0.20798z" data-paper-data="{&quot;index&quot;:null}" fill="url(#color-5)" stroke="none" stroke-width="0"/><path d="M120.79449,109.76674c-16.75163,8.48435 -30.83724,14.36375 -31.46109,13.13202c-0.37742,-0.74518 -8.27695,-6.54089 -0.84606,-10.81338c2.66669,-1.53324 -0.33302,2.55362 6.36197,1.51254c4.01841,-0.62486 13.92571,-6.63979 19.75354,-8.97975c2.12856,-0.85465 7.46852,-1.57479 8.26581,-1.97861c8.78517,-4.44951 27.58779,-5.44817 42.60512,-5.17192c1.74882,0.03217 10.35818,2.93787 6.851,-2.40585c-3.16072,-4.81583 -14.78401,-15.00792 -13.48495,-14.16821c1.71707,1.1099 13.31774,6.53865 17.53891,11.88137c5.25247,6.64804 3.10014,13.34564 3.20735,13.55733c0.32427,0.64024 -7.03838,-3.90076 -20.38695,-4.19159c-12.33206,-0.26868 -30.36039,3.5518 -38.40466,7.62605z" data-paper-data="{&quot;index&quot;:null}" fill="#1f1b1a" stroke="none" stroke-width="0"/><path d="M228.93003,182.28188c0.23263,1.50389 5.80986,3.04269 10.81574,5.40182c6.4806,3.05412 16.57163,13.36579 18.55641,15.7462c1.16288,1.39468 -4.08422,-3.08772 -5.00718,-2.28072c-7.87358,0.17924 -16.85006,-7.74203 -27.44464,-10.15166c-0.47301,-0.10758 4.00289,0.85747 8.04207,3.60426c4.61898,3.14108 9.64123,11.20188 10.67049,12.58839c1.36525,1.83912 -7.7221,-3.79332 -12.70956,-4.61695c-2.40981,-0.39796 -6.22951,-7.27376 -7.16103,-6.81124c-1.03014,0.51149 1.70169,2.62492 2.63805,5.1923c1.82286,4.99805 3.3508,11.71649 2.67839,11.68552c-0.49905,-0.02298 -3.94501,-1.0428 -10.0577,-5.06792c-5.16118,-3.39854 -11.84695,-12.31081 -11.87772,-11.69615c-0.08677,1.73382 1.61614,3.72711 2.95809,6.50208c2.68733,5.55706 5.93393,12.24199 4.50934,12.2074c-2.65159,-0.06436 -9.66245,-4.71515 -14.96001,-9.72318c-1.5423,-1.45803 -2.81709,-5.42212 -5.01793,-6.36968c-1.66538,-0.71701 1.52212,1.90242 2.5523,7.04667c1.15191,5.75208 0.19057,14.07689 -1.49359,12.6491c-1.10243,-0.93461 -2.19406,-3.27873 -6.0426,-6.36732c-1.63322,-1.31072 -2.61604,-4.42217 -4.08569,-5.95021c-3.29363,-3.42449 -2.9813,-9.0782 -3.25282,-8.8014c-1.76516,1.79952 -1.66174,8.07764 -0.86264,13.07779c0.42361,2.65063 1.106,6.47377 -1.1207,6.11529c-2.86351,-0.46099 -6.63589,-5.81754 -9.21494,-11.58539c-1.10951,-2.48133 0.17497,-5.85371 -1.73715,-7.60087c-1.72371,-1.575 0.45013,18.52069 -2.82075,18.89599c-2.60636,0.29906 -10.73846,-19.10267 -12.05557,-19.91296c-1.19929,-0.73781 0.54505,3.53656 2.15184,7.88794c1.68355,4.55925 3.21608,9.20304 1.05345,8.25461c-2.04251,-0.89575 -11.43354,-2.10186 -14.54668,-4.5988c-15.01085,-12.03962 -34.72719,-38.59047 -34.95987,-40.09473c-0.2755,-1.78101 15.13802,6.77343 28.67851,9.82457c1.99385,0.44928 22.16524,-0.90325 23.6636,-1.27878c13.50323,-3.3844 15.54019,-1.73127 24.03615,-7.44254c3.70181,-2.48849 11.54049,-4.36919 17.51309,-11.85427c1.24649,-2.57962 6.59878,-7.4938 7.75175,-8.73137c0.74668,-0.80147 3.54956,-8.12564 4.50684,-8.81721c2.79919,-10.50378 1.6804,-2.6617 2.12885,-11.29115c0.69554,-3.27415 1.08278,-5.35057 1.30271,-6.86829c0.57378,-3.95949 0.00891,-4.1165 0.80904,-11.81754c0.90813,-8.7406 -3.46232,-31.49297 -1.61062,-31.44804c0.80179,0.01946 6.93364,19.88042 13.67584,24.37301c6.26004,4.17127 14.49687,4.90226 15.20407,7.22691c0.74189,2.43866 -22.88102,5.79392 -21.47027,8.13203c0.44797,0.74243 9.88793,-3.75981 20.80295,-3.06913c13.67233,0.86515 33.45811,7.8929 34.3255,8.62222c0.41384,0.34797 -14.06871,0.65284 -22.87901,2.44789c-7.79306,1.58779 -16.23947,0.86059 -15.79803,1.0404c3.93203,1.60152 -1.89982,0.12456 2.42526,1.14489c5.06489,1.19489 14.06144,-0.08109 19.12164,0.64135c18.81324,2.68589 31.85516,6.50889 31.47872,14.08089c-0.0438,0.88061 -3.59694,-0.24018 -8.30411,-0.6375c-11.70147,-0.98763 -30.92411,-2.91855 -23.94843,1.86079c-1.937,-2.68265 -6.40347,-2.67941 -4.1882,-2.44694c1.72709,0.18127 1.01643,-2.14985 3.10542,-2.09629c3.77193,0.09671 10.71509,2.58406 15.36414,3.48161c10.61448,2.04922 33.60125,9.44702 35.17196,10.47084c7.31867,4.77046 -36.74214,-0.45096 -32.47976,2.90961c2.43359,1.91869 7.56003,0.90918 9.78342,2.5587c9.89692,7.34253 21.12169,21.28391 17.76247,24.88228c-0.3003,0.3217 -24.50834,-14.60396 -24.85728,-13.15898c-0.27261,1.12885 2.32396,4.54325 4.37492,8.96077c3.6353,7.83008 7.60447,17.94211 5.45452,17.86021c-2.18698,-0.08326 -10.17699,-8.58629 -12.90134,-10.06585c-17.27121,-9.3798 -38.08627,-21.09705 -30.59954,-14.05135c2.88843,2.71828 6.33493,2.62952 8.71931,4.82021c15.97942,14.68127 18.15595,21.59872 17.53737,22.41032c-4.80367,-0.34946 -13.78188,-4.42725 -24.10369,-8.68947c-11.37612,-4.69758 -21.79426,-9.46367 -21.75517,-9.21079z" data-paper-data="{&quot;index&quot;:null}" fill="#23173a" stroke="none" stroke-width="0"/></g></g></svg>