<svg version="1.1" xmlns="http://www.w3.org/2000/svg" xmlns:xlink="http://www.w3.org/1999/xlink" width="298.44836" height="435.46942" viewBox="0,0,298.44836,435.46942"><defs><linearGradient x1="374.68985" y1="155.84361" x2="379.25991" y2="166.93932" gradientUnits="userSpaceOnUse" id="color-1"><stop offset="0" stop-color="#000000"/><stop offset="1" stop-color="#86746e"/></linearGradient><linearGradient x1="404.88747" y1="-21.32442" x2="404.88842" y2="-21.32211" gradientUnits="userSpaceOnUse" id="color-2"><stop offset="0" stop-color="#000000"/><stop offset="1" stop-color="#86746e"/></linearGradient><linearGradient x1="311.54785" y1="162.47929" x2="316.9374" y2="175.00321" gradientUnits="userSpaceOnUse" id="color-3"><stop offset="0" stop-color="#000000"/><stop offset="1" stop-color="#86746e"/></linearGradient></defs><g transform="translate(-149.54817,6.915)"><g data-paper-data="{&quot;isPaintingLayer&quot;:true}" fill-rule="nonzero" stroke-linejoin="miter" stroke-miterlimit="10" stroke-dasharray="" stroke-dashoffset="0" style="mix-blend-mode: normal"><path d="M252.93762,66.89402c35.23593,-14.51284 100.29051,-3.32743 107.86242,15.05653c1.46781,3.56371 38.73002,31.47492 36.11757,35.07094c-10.86423,14.95457 -90.00347,5.50887 -118.40894,17.20841c-28.79636,11.86054 -16.36592,186.1805 -29.9323,175.77606c-0.62034,-0.47575 -28.62182,86.08636 -34.2684,63.85532c-1.24148,-4.8878 -7.71748,11.24149 -6.06636,-8.80298c0.98916,-12.00838 9.78066,-35.42958 13.48835,-57.45413c1.4941,-8.87535 -0.35269,-25.06994 0.01538,-28.54845c0.7789,-7.36105 -1.02134,-46.43688 -2.04275,-53.8811c-4.51924,-32.93693 -17.17981,-56.40709 -19.24936,-60.88436c-1.5718,-3.40044 -9.76195,-1.92099 -12.25123,-6.20935c-1.44511,-2.48953 2.01449,-11.89528 2.0282,-12.3657c0.85792,-29.42651 27.47149,-64.30835 62.70742,-78.82119z" data-paper-data="{&quot;index&quot;:null}" fill="#23173a" stroke="none" stroke-width="NaN" stroke-linecap="butt"/><path d="M285.88991,422.31184c-21.10137,-7.52422 -92.64987,-44.7465 -92.64987,-44.7465c0,0 20.77674,-7.37272 36.33336,-31.19108c10.01969,-15.3409 16.99525,-46.29028 17.78602,-57.21863c2.00806,-27.75128 -1.49891,-102.55776 -1.49891,-102.55776l56.29151,30.4772c0,0 20.65619,8.55503 23.38616,30.03983c4.02898,31.70795 8.95661,180.81836 8.95661,180.81836c0,0 -23.36608,3.37811 -48.60488,-5.62142z" data-paper-data="{&quot;index&quot;:null}" fill="#412a6a" stroke="none" stroke-width="0" stroke-linecap="butt"/><g data-paper-data="{&quot;index&quot;:null}" stroke="#000000" stroke-linecap="butt"><path d="M390.88488,195.43872c-0.59823,-1.45248 -3.72415,-27.93058 -3.745,-29.89928c-0.1457,-13.76101 26.17071,-47.53545 32.16244,-50.0033c6.84892,-2.8209 6.26768,26.95621 11.04755,38.56133c2.43606,5.91455 -3.20004,23.89459 -8.78949,34.35792c-5.37778,10.0671 -10.604,12.71224 -13.96236,14.09547c-6.84893,2.82091 -6.22071,18.36261 -11.00058,6.75749z" fill="#ffddd1" stroke-width="0.5"/><path d="M400.62412,169.96704c-2.82092,-6.84893 11.30839,-36.08478 15.11335,-37.65195c1.92219,-0.79171 10.99114,19.07219 10.59335,30.86392c-0.38964,11.54989 -10.24179,14.98843 -8.84595,18.37742c0.55164,1.33932 -0.9928,2.80679 -0.01751,-2.79721c0.75784,-4.35456 4.11275,-15.01825 4.25304,-20.24433c0.22783,-8.48676 -1.74616,-15.44438 -2.71439,-18.83774c-0.72765,-2.55025 -4.57999,-4.59207 -6.231,-0.01193c-1.04582,2.90125 -0.29367,7.89851 0.77402,12.62671c0.93448,4.13827 1.97383,1.86876 1.58262,2.02989c-1.50841,0.62127 -7.49975,-4.00958 -9.75879,-1.447c-1.93253,2.1922 4.19482,15.47063 3.63065,19.9507c-0.43991,3.49335 -7.63344,-1.04738 -8.3794,-2.8585z" fill="#be8571" stroke-width="0"/></g><path d="M220.87698,207.29047c-13.49197,-32.75735 1.68765,-110.79366 46.32429,-129.17843c24.2724,-9.99723 53.0791,-17.6146 80.13076,-7.63644c7.53945,2.78097 15.07328,1.2718 21.99887,6.57743c13.9225,10.66591 25.38692,30.62471 29.4975,40.60484c1.42456,3.45871 7.7021,17.43314 8.70084,21.66796c3.09186,13.10999 19.01175,29.21542 12.84972,39.74047c-2.58589,4.41684 -15.39137,18.4967 -18.22827,22.10002c-0.524,0.66556 -14.92965,0.48543 -15.17167,1.52177c-1.08958,4.66553 2.0343,-6.42796 5.53117,5.91108c2.72328,9.60936 -0.89277,24.8906 0.71267,36.08855c0.74338,5.18505 1.26625,2.15543 1.47537,5.09161c0.1563,2.19463 4.65701,17.7295 5.09466,18.92061c1.92428,5.23708 5.13977,17.85575 4.8581,17.30138c-2.39923,1.71997 3.02182,16.06205 1.90915,17.8931c-3.25211,5.35176 -9.52104,3.60922 -13.64614,5.44757c-8.72688,3.88915 -15.18154,-4.35971 -22.20885,-3.76164c-9.92897,0.845 -12.48915,-5.17523 -31.31821,-18.5256c-6.02477,-4.27173 -60.52179,-58.2788 -63.89853,-57.52156c-31.34449,7.02897 -45.27063,0.4359 -54.61141,-22.24272z" data-paper-data="{&quot;index&quot;:null}" fill="#ffddd1" stroke="#003737" stroke-width="0.5" stroke-linecap="butt"/><path d="M342.04062,157.71131c1.36916,-4.386 1.62098,-10.34684 10.50643,-12.8856c10.28322,-2.93813 29.75448,-2.14125 37.82751,-2.61411c6.96125,-0.40773 5.87642,-5.10015 9.85929,-5.51348c2.2387,-0.23234 3.71031,0.35286 4.19161,1.51718c0.53964,1.30543 0.54839,16.83041 -0.29712,18.80584c-0.5611,1.31096 -6.5661,10.18996 -9.19909,12.38321c-2.04199,1.70095 -10.07055,7.51238 -14.01646,8.67519c-8.76148,2.5819 -21.08054,-0.56889 -22.25235,3.18492c-10.32001,13.83888 8.43831,14.91116 -1.71019,11.74316c-10.14851,-3.168 -19.22963,-21.45741 -14.90962,-35.29629z" data-paper-data="{&quot;index&quot;:null}" fill="#86746e" stroke="none" stroke-width="0" stroke-linecap="butt"/><path d="M418.89251,195.92919c0.1775,2.64755 7.17503,6.74799 5.61352,8.95083c-1.20781,1.70388 -5.54028,-2.27131 -9.72233,-2.86143c-1.26623,-0.17869 5.57596,10.0728 4.42298,10.22043c-0.1991,0.0255 -2.48723,-0.12297 -4.83895,-2.01461c-1.98566,-1.59718 -4.1073,-5.02568 -4.13388,-4.66141c-0.22509,3.08516 3.40592,10.29408 2.55269,10.43059c-1.05919,0.16947 -3.75567,-2.02029 -5.75849,-4.55433c-0.5831,-0.73775 -1.00099,-2.9718 -1.85935,-3.35754c-1.37581,-0.61827 2.55167,11.61334 1.33828,10.27052c-0.99599,-1.10223 -6.88819,-10.22612 -7.17551,-9.7661c-1.14432,1.8322 2.24905,11.18218 -0.2979,11.07561c-2.41365,-0.101 -6.36572,-10.04968 -9.8627,-12.62422c-3.61241,-2.65951 -12.70121,-7.77872 -12.79638,-9.19823c-0.0812,-1.21118 8.3651,5.10676 12.36294,2.88295c5.4801,-3.04832 9.26932,-2.39593 12.80046,-6.4226c5.28855,-2.75447 1.68442,-0.82878 8.01634,-5.68285c0.65241,-1.88781 2.39532,-4.29263 3.27973,-6.40599c0.36304,-0.86752 0.45779,-3.30955 0.75321,-3.66642c1.19453,-5.99504 -0.44471,-1.47066 -0.06496,-6.586c0.43195,-5.81862 -0.58869,-12.20628 -3.8986,-23.06436c0.08856,-0.81598 -5.0384,-16.11175 -5.31279,-17.71771c-1.47988,-8.66123 -1.7482,-9.84468 -1.12423,-9.94452c0.32027,-0.05124 5.53494,19.20139 8.12763,21.319c0.92945,0.75914 3.55399,2.08776 6.43927,3.50853c4.58755,2.25899 9.83428,4.75093 9.97481,5.55713c0.24014,1.37767 -9.28731,5.2002 -8.77727,6.46635c0.16195,0.40205 4.04263,-2.98664 8.39279,-3.43356c5.44907,-0.55981 13.20053,2.03031 13.53058,2.39185c0.15747,0.17249 -5.64288,1.48445 -9.20882,3.23016c-3.15422,1.54414 -6.51605,1.77651 -6.34363,1.84784c1.53569,0.63537 -0.76285,0.22188 0.94356,0.48436c1.9983,0.30737 5.6267,-1.1473 7.63409,-1.11769c7.46326,0.1101 12.59148,1.3409 12.26509,5.82806c-0.03796,0.52186 -1.43326,0.13987 -3.30698,0.27407c-4.65785,0.3336 -12.30239,0.69998 -9.62298,2.96817c-0.71254,-1.42784 -2.49929,-1.07668 -1.61854,-1.11303c0.68665,-0.02835 0.45652,-1.34512 1.2909,-1.47695c1.50658,-0.23803 4.22621,0.68337 6.06507,0.84822c4.19839,0.37638 7.31433,1.75218 7.91887,2.23208c2.81682,2.23612 -8.77963,3.78954 -7.15263,5.43464c0.92893,0.93926 3.00304,-0.05592 3.85413,0.74132c3.78845,3.54873 5.30178,7.69733 3.8745,10.07842c-0.12759,0.21285 -6.81161,-3.49994 -6.98474,-2.62198c-0.13525,0.68587 0.82414,2.49292 1.54199,4.93321c1.27236,4.32539 2.62532,9.96811 1.7672,10.08802c-0.87289,0.12198 -3.8716,-4.25905 -4.92703,-4.91706c-6.69098,-4.17144 -14.7453,-9.44188 -11.91407,-5.87942c1.09231,1.37442 2.6528,-0.15082 3.55573,0.9524c6.05115,7.39353 4.83849,9.72432 4.57222,10.2505c-1.91343,0.16991 -3.66726,1.24621 -7.6972,-0.45588c-4.44157,-1.87595 -8.49834,-3.86713 -8.48857,-3.72133z" data-paper-data="{&quot;index&quot;:null}" fill="#23173a" stroke="none" stroke-width="0" stroke-linecap="butt"/><g data-paper-data="{&quot;index&quot;:null}" stroke="#000000" stroke-linecap="butt"><path d="M216.63402,167.36626c1.18403,2.01013 17.88466,24.13629 18.19334,25.99245c2.4663,14.83056 -7.01776,23.12019 -15.38091,24.64347c-4.10087,0.74694 -10.78387,1.40968 -22.15366,-5.35836c-11.81731,-7.03444 -28.27773,-21.66294 -29.53467,-29.22134c-2.46631,-14.83058 -21.24393,-44.66036 -12.88077,-46.18364c7.31644,-1.33263 53.48043,16.07683 61.75668,30.12741z" fill="#ffddd1" stroke-width="0.5"/><path d="M168.59573,151.97503c4.64621,-0.84626 36.22285,19.76157 37.67837,28.51405c0.15038,0.90426 12.10181,17.86115 11.22462,19.71562c-1.368,2.89212 -16.03525,-9.46488 -17.59701,-11.45216c-3.28718,-4.18282 -5.47111,-21.57315 -8.68496,-22.5595c-3.75685,-1.15298 -6.73073,7.37937 -8.57262,7.71485c-0.4777,0.08701 1.91781,1.72354 0.29213,-3.07198c-1.85743,-5.47915 -4.18525,-11.02918 -6.97346,-13.30233c-4.40169,-3.58856 -6.88623,0.94851 -6.03148,4.00095c1.13732,4.06159 3.48012,12.38214 8.89217,20.84411c3.3327,5.21082 13.10696,13.87894 16.50504,17.81047c4.37311,5.05962 1.97868,4.55991 1.69405,2.84833c-0.37902,-2.27915 5.71462,4.92192 1.48749,3.47924c-3.80538,-1.29873 -17.77591,-11.02436 -21.30179,-16.45597c-7.59838,-11.70528 -10.95973,-37.65815 -8.61256,-38.08567z" fill="#be8571" stroke-width="0"/></g><path d="M151.00454,37.3648c-8.04316,-19.5281 19.20665,-37.85901 33.3477,-43.68337c14.14104,-5.82436 84.54616,32.4516 92.58932,51.9797c1.88905,4.58645 -4.81786,13.78403 -2.11482,16.89274c8.80592,10.12746 -2.61849,-6.89639 -13.43831,-2.43997c-3.91191,1.61122 -17.83304,-6.61963 -32.10891,-11.59432c-6.63654,-2.31263 -13.34974,-3.92156 -19.16966,-3.51089c-26.91634,1.89931 -54.32154,3.97071 -59.10533,-7.64391z" data-paper-data="{&quot;index&quot;:null}" fill="#23173a" stroke="none" stroke-width="0" stroke-linecap="butt"/><path d="M245.21166,224.94258c-0.04775,-0.15305 -5.48145,4.55057 -11.56176,9.39472c-5.5168,4.39521 -8.70162,4.48188 -11.74296,5.58579c-0.64005,-0.35142 -3.52661,-1.88603 2.6701,-13.34757c0.92464,-1.71024 4.00324,-1.21692 5.10464,-3.32586c2.85483,-5.46632 -7.36503,5.19596 -15.94426,13.84555c-1.35328,1.36438 -4.11475,7.76495 -5.52138,8.22385c-1.38281,0.45114 -1.71848,-6.12106 -1.61083,-11.31567c0.06074,-2.93069 0.76934,-5.38588 0.26364,-5.98508c-0.64732,-0.76701 -9.41358,7.417 -9.70333,7.28807c-3.24118,-1.44217 -2.68351,-6.61962 1.66205,-12.70983c0.97625,-1.36818 4.62285,-1.74973 5.65857,-3.3125c1.81403,-2.73718 -16.84413,3.42683 -13.43946,-0.69695c0.7307,-0.88503 4.97052,-4.34344 11.32054,-7.51852c2.78125,-1.39067 6.60233,-4.1284 9.04199,-4.89281c1.35114,-0.42335 1.56222,1.05333 2.63956,0.62438c1.38188,-0.55019 -1.54115,0.28716 -2.03044,2.19681c3.1777,-4.06446 -8.83831,0.65986 -16.20731,3.42751c-2.96434,1.11335 -4.96388,2.42674 -5.2479,1.92757c-2.4421,-4.29215 4.98164,-8.94537 16.51088,-14.02777c3.10101,-1.36702 9.35682,-2.32219 12.3239,-3.9623c2.53369,-1.40054 -0.85335,0.54622 1.25466,-1.11534c0.23667,-0.18655 -5.07832,1.81945 -10.63719,2.36883c-6.28449,0.62109 -15.84777,3.16655 -15.67793,2.8883c0.35598,-0.5832 11.26237,-8.35005 19.95628,-11.41742c6.94061,-2.44878 14.4221,-1.62833 14.49987,-2.14028c0.24492,-1.61225 -16.18281,0.893 -16.40464,-0.65153c-0.21146,-1.47231 4.96532,-3.44111 7.85116,-7.02074c3.10812,-3.85536 3.96782,-9.28634 4.48672,-9.4482c1.1984,-0.37381 4.29222,5.82854 7.42105,10.69414c3.81338,5.93013 -0.62749,-1.3052 2.55274,4.25473c2.79586,4.88792 8.63237,12.84899 11.6259,13.64045c2.10356,0.55618 2.42139,3.01854 4.99753,5.08157c3.72871,2.98604 9.80627,5.82062 12.94973,6.55892c7.2145,1.69446 19.96547,0.20297 29.78109,-0.38413c7.16068,-0.4283 23.25046,-4.44344 23.64702,-3.17212c0.46477,1.49 -15.9524,7.49217 -20.4085,12.57143c-4.3137,4.91697 -7.33844,14.78436 -11.03884,16.49375c-3.90474,1.80378 -2.67473,-9.85346 -5.2402,-10.93251c-0.64416,-0.27093 -5.84779,12.82374 -6.91723,14.59498c-1.30287,2.15786 -0.48752,-12.75123 -2.3549,-11.21335c-1.16506,0.95949 -0.8495,3.48307 -1.4357,4.61295c-2.01351,3.88092 -5.25151,7.87792 -6.96759,8.41321c-1.38238,0.4312 1.13991,-9.23259 -0.54021,-12.18322c-0.19837,-0.34838 -2.01032,4.51062 -4.40135,7.43855c-2.83184,3.46773 -6.31706,5.14121 -6.63689,5.24823c-1.85214,0.61971 4.33863,-14.24104 2.45158,-13.21795c-6.23248,3.37901 -11.2379,10.2602 -13.84649,9.35242c-3.37248,-1.17362 5.71289,-9.95606 4.84605,-12.73508z" data-paper-data="{&quot;index&quot;:null}" fill="#23173a" stroke="none" stroke-width="0" stroke-linecap="butt"/><path d="M253.97248,46.64942c22.20612,-7.45299 42.49585,-4.45514 46.91244,-4.333c4.4166,0.12214 25.32985,5.76301 42.12374,11.716c8.93965,2.68195 34.1816,15.8833 34.15201,19.1631c-0.01064,1.17868 6.11792,4.72698 19.26184,23.1909c8.92416,12.53622 11.01147,40.6896 9.6504,41.49335c-0.72467,0.42793 -7.83345,-19.14354 -15.24841,-33.38674c-6.07996,-11.67884 -15.36578,-22.63697 -18.50679,-25.42446c-6.26311,-5.55823 -7.95405,-5.84864 -11.37647,-7.18046c-8.1545,-3.17328 -13.37321,4.09487 -16.32524,6.72c-5.00157,4.44771 -8.45622,20.21825 -9.56492,20.18758c-1.32644,-0.03668 -19.69068,-14.88661 -25.65102,-17.27937c-4.71037,-1.89095 -17.0644,-9.08297 -30.29088,-4.89999c-5.73434,1.81353 -11.20958,-1.5642 -23.95168,6.91802c-0.45188,1.06822 -15.51852,14.38846 -17.02247,17.57966c-4.87054,10.33463 -9.99001,23.08291 -13.65138,42.14554c-2.99736,15.60555 12.14738,54.40596 10.82215,55.01986c-0.78073,0.36167 -12.34489,-18.25101 -16.63646,-26.73597c-1.87882,-3.71466 -7.60956,-9.28817 -8.76798,-13.29242c-3.10824,-10.7441 4.35329,-1.3564 2.60563,0.53422c-1.36517,1.47685 -12.2478,-5.32415 -12.54252,-5.51591c-0.40215,-0.26166 -7.66561,-2.00543 -9.78777,-4.94682c-0.55592,-0.77052 -7.48454,-2.22616 -6.42631,-3.41572c4.04697,-17.85591 11.52614,-44.29171 23.99988,-62.48574c1.27568,-1.8607 15.21796,-16.11763 15.22222,-16.2716c0,0 10.36077,-9.00317 15.13105,-11.55281c4.89325,-2.61536 15.86894,-7.9472 15.86894,-7.9472z" data-paper-data="{&quot;index&quot;:null}" fill="#23173a" stroke="none" stroke-width="0" stroke-linecap="butt"/><path d="M233.12038,144.56008c1.22848,-2.52868 0.98303,-2.0248 6.5768,-2.99206c11.67514,-2.01885 44.14464,8.7854 55.83964,7.89632c22.35781,-1.69968 45.70721,-8.13876 48.2854,1.80315c2.57818,9.94189 -9.23213,32.9126 -31.07696,36.59046c-21.84481,3.67785 -43.55489,-2.31707 -51.68336,-12.15032c-1.55795,-1.8847 -29.01452,-28.93892 -27.94152,-31.14755z" data-paper-data="{&quot;index&quot;:null}" fill="#86746e" stroke="none" stroke-width="0" stroke-linecap="butt"/><path d="M264.89542,170.76518c-6.93059,-2.66631 -8.27844,-6.96348 -17.13996,-11.84764c-2.01219,-1.10904 15.73045,1.90222 19.90992,1.37264c3.76171,-0.47664 30.76524,-3.49304 38.22649,-3.56898c14.30869,-0.14563 23.30072,2.52056 21.34013,4.70152c-2.19477,2.44146 -3.11008,7.50365 -4.48591,11.16694c-0.05226,0.13916 -2.08091,2.36159 -2.14483,2.49684c-1.87035,3.9573 -5.43401,7.70931 -20.80987,6.82612c-9.68487,-0.55631 -12.60311,0.52773 -22.89596,-3.43211z" data-paper-data="{&quot;index&quot;:null}" fill="#ffffff" stroke="#200000" stroke-width="0.5" stroke-linecap="butt"/><path d="M403.71907,153.62765c-5.04739,5.36427 -10.32987,11.68479 -14.34776,14.77049c-5.96711,4.58268 -7.72288,4.87246 -13.53075,6.13541c-9.22068,2.00508 -15.61373,-2.33225 -16.98314,-5.99841c-0.04681,-0.12528 -1.40594,-2.11072 -1.44595,-2.24066c-1.0532,-3.42051 -1.91389,-8.22131 -3.38659,-10.40493c-2.00155,-2.96779 43.58914,-3.76291 50.2943,-3.24993c2.55327,0.19535 0.54602,-0.23002 -0.6001,0.98804z" data-paper-data="{&quot;index&quot;:null}" fill="#ffffff" stroke="#200000" stroke-width="0.5" stroke-linecap="butt"/><path d="M374.68985,155.84361c2.80867,-1.15682 6.10857,0.38925 7.37056,3.45324c1.26199,3.064 0.00816,6.48564 -2.8005,7.64246c-2.80867,1.15682 -6.10857,-0.38925 -7.37056,-3.45324c-1.26199,-3.064 -0.00816,-6.48564 2.8005,-7.64246z" data-paper-data="{&quot;index&quot;:null}" fill="url(#color-1)" stroke="none" stroke-width="0" stroke-linecap="butt"/><path d="M339.20429,44.43969z" data-paper-data="{&quot;index&quot;:null}" fill="url(#color-2)" stroke="none" stroke-width="0" stroke-linecap="butt"/><path d="M311.54785,162.47929c3.31232,-1.30572 7.20394,0.43935 8.69223,3.89773c1.48829,3.45839 0.00962,7.32046 -3.30268,8.62619c-3.3123,1.30572 -7.20394,-0.43936 -8.69223,-3.89774c-1.48829,-3.45839 -0.00961,-7.32046 3.30268,-8.62618z" data-paper-data="{&quot;index&quot;:null}" fill="url(#color-3)" stroke="none" stroke-width="0" stroke-linecap="butt"/><path d="M301.94901,113.88955c1.39875,-3.95489 6.54026,-5.74356 11.48386,-3.99511c4.94361,1.74844 22.1302,25.13048 20.73144,29.08535c-1.39876,3.95487 -20.85317,-13.01502 -25.79678,-14.76346c-4.94361,-1.74844 -7.81727,-6.37192 -6.41851,-10.32679z" data-paper-data="{&quot;index&quot;:null}" fill="#23173a" stroke="none" stroke-width="0" stroke-linecap="butt"/><path d="M375.20275,110.54077c1.71779,2.85858 0.21363,6.91658 -3.3596,9.06381c-3.57324,2.14722 -16.03233,18.45642 -17.75011,15.59783c-1.71778,-2.85858 7.95627,-23.80245 11.5295,-25.94968c3.57322,-2.14721 7.86243,-1.57054 9.58021,1.28805z" data-paper-data="{&quot;index&quot;:null}" fill="#23173a" stroke="none" stroke-width="0" stroke-linecap="butt"/><path d="M387.4739,241.39861c0,0 -7.77496,3.50348 -10.69223,3.92195c-2.08238,0.29871 -7.67895,1.75087 -7.67895,1.75087c0,0 -13.63038,0.0045 -18.66796,-1.38834c-5.97447,-1.65189 -14.59562,-7.9164 -14.59562,-7.9164" data-paper-data="{&quot;index&quot;:null}" fill="none" stroke="#000000" stroke-width="2" stroke-linecap="round"/><g data-paper-data="{&quot;index&quot;:null}" stroke-linecap="butt"><path d="M347.61708,145.37721c3.83697,-0.63461 32.55527,30.38109 35.76716,49.8004c2.19869,13.29343 -1.27923,17.49148 -6.42845,21.58745c-2.37286,1.8875 -7.89681,6.01082 -9.10719,6.21101c-3.54818,0.58686 -27.80658,-4.068 -33.71803,-20.17131c-0.48113,-1.31064 0.09364,-3.10507 -0.14811,-4.56665c-0.22418,-1.35541 2.09703,0.8168 3.39712,-0.72773c0.73822,-0.87703 1.87314,-5.72962 1.62798,-6.79734c-3.00853,-13.10253 -1.85124,-30.61535 -0.71549,-41.05363c0.94396,-8.6755 7.77404,-4.02568 9.325,-4.28221z" fill="#ffcbb8" stroke="#710000" stroke-width="0.5"/><path d="M338.42372,149.55498c-0.9048,-2.46239 2.35403,-5.92551 7.27878,-7.7351c4.92476,-1.80959 9.65055,-1.28042 10.55535,1.18196c0.9048,2.46238 -2.35402,5.92551 -7.27878,7.73511c-4.92476,1.8096 -9.65055,1.28041 -10.55535,-1.18197z" fill="#ffddd1" stroke="none" stroke-width="0"/><path d="M335.44478,205.20017c-0.08638,-0.52227 -1.62445,-6.87037 -1.67032,-7.36034c-0.1077,-1.15027 4.1686,1.68633 4.75226,-3.85408c0.78883,-7.48803 -2.22678,-25.16271 -1.76278,-25.23945c0.95355,-0.15771 6.63356,26.31852 7.19682,29.72403c0.24081,1.45599 3.25923,5.98797 7.59778,9.96028c1.56626,1.43403 3.5465,3.07906 5.23265,4.7784c4.56763,4.60338 10.55437,9.26715 10.15568,9.33309c-0.26673,0.04412 -1.32684,-0.67466 -4.90015,-3.70483c-5.62925,-4.77361 -15.24508,-13.02744 -20.65756,-15.86498c-3.4347,-1.80068 -5.78688,3.18016 -5.94439,2.22787z" fill="#e1a088" stroke="#710000" stroke-width="0"/></g><path d="M336.11532,284.37222c-1.28781,-3.12671 10.1857,8.8691 20.88353,13.01332c7.18427,2.78311 13.19521,2.68216 17.84144,1.97913c7.68306,-2.45985 9.67425,-6.94112 11.24102,-11.95976c2.32751,-7.45542 2.2184,-14.88987 3.54943,-15.43809c2.83784,-1.16885 6.30753,8.82608 11.27494,17.36361c4.1836,2.25296 1.67352,-9.79262 3.11859,-6.2841c4.73245,11.48997 3.75705,29.66849 -0.32828,31.35114c-1.61706,0.66603 -14.51727,9.28089 -25.57931,7.25567c-16.88511,-3.09131 -23.64211,-10.33891 -29.50136,-17.78093z" data-paper-data="{&quot;index&quot;:null}" fill="#23173a" stroke="none" stroke-width="0" stroke-linecap="butt"/><path d="M337.51263,187.78544c-5.20123,-18.33017 1.13526,-39.82935 5.12008,-40.96006c3.98482,-1.13071 -4.81039,21.60841 7.96113,42.71178c6.03616,9.97403 14.52603,12.56989 20.89228,16.72899c4.03846,2.63835 6.6169,4.05273 5.07024,4.4916c-1.27458,0.36166 -1.81281,6.5318 -8.22745,6.90796c-5.11374,0.29988 -15.84706,-4.6396 -19.96619,-7.82308c-6.86795,-5.30794 -8.63878,-14.26407 -10.8501,-22.05719z" data-paper-data="{&quot;index&quot;:null}" fill="#f7b8a2" stroke="none" stroke-width="0" stroke-linecap="butt"/><path d="M318.66035,166.8683c0.62132,0 1.125,0.50368 1.125,1.125c0,0.62132 -0.50368,1.125 -1.125,1.125c-0.62132,0 -1.125,-0.50368 -1.125,-1.125c0,-0.62132 0.50368,-1.125 1.125,-1.125z" data-paper-data="{&quot;index&quot;:null}" fill="#ffffff" stroke="none" stroke-width="0" stroke-linecap="butt"/><path d="M380.91035,160.6183c0.62132,0 1.125,0.50368 1.125,1.125c0,0.62132 -0.50368,1.125 -1.125,1.125c-0.62132,0 -1.125,-0.50368 -1.125,-1.125c0,-0.62132 0.50368,-1.125 1.125,-1.125z" data-paper-data="{&quot;index&quot;:null}" fill="#ffffff" stroke="none" stroke-width="0" stroke-linecap="butt"/><path d="M341.41648,145.83827c0,2.23644 -3.85176,6.56941 -23.97924,6.73744c-0.9969,0.00832 -19.50429,0.51256 -20.52076,0.51256c-12.75326,0 -40.06252,-2.14701 -52.46945,-5.60949c-8.54724,-2.38533 -12.03055,-3.68308 -12.03055,-4.64051c0,-0.2619 0.61686,-8.05123 5.62113,-13.72795c4.98102,-5.65034 14.34586,-9.18912 15.92378,-9.05459c1.73382,0.14783 -8.97564,7.5163 -11.59362,12.85488c-1.61545,3.29423 3.87508,5.19631 5.24191,6.00271c10.52805,6.21136 40.81366,8.67495 53.3068,8.67495c4.75934,0 9.39279,-0.20004 13.72363,-0.48641c15.26902,-1.00961 26.77637,-3.09216 26.77637,-1.26359z" fill="#0f0d0c" stroke="none" stroke-width="0" stroke-linecap="butt"/><path d="M370.01196,143.08827c6.27796,0 21.49686,0.53642 26.78734,-5.67495c1.79995,-2.11325 -0.5982,-14.61855 0.8107,-14.85759c1.58956,-0.26969 6.80649,13.75996 6.80649,14.28254c0,0.95743 -0.49915,3.75518 -4.79425,6.14051c-6.23463,3.46248 -21.19154,5.60949 -27.60022,5.60949c-0.51079,0 -9.81099,-0.50424 -10.31195,-0.51256c-10.11431,-0.16803 -10.79358,-4.001 -10.79358,-6.23744c0,-2.34721 8.2718,1.25 19.09548,1.25z" data-paper-data="{&quot;index&quot;:null}" fill="#0f0d0c" stroke="none" stroke-width="0" stroke-linecap="butt"/></g></g></svg>