<svg version="1.1" xmlns="http://www.w3.org/2000/svg" xmlns:xlink="http://www.w3.org/1999/xlink" width="298.00061" height="456.27189" viewBox="0,0,298.00061,456.27189"><defs><linearGradient x1="370.67035" y1="136.84361" x2="375.24041" y2="147.93932" gradientUnits="userSpaceOnUse" id="color-1"><stop offset="0" stop-color="#000000"/><stop offset="1" stop-color="#86746e"/></linearGradient><linearGradient x1="385.36797" y1="-21.32442" x2="385.36892" y2="-21.32211" gradientUnits="userSpaceOnUse" id="color-2"><stop offset="0" stop-color="#000000"/><stop offset="1" stop-color="#86746e"/></linearGradient><linearGradient x1="295.01934" y1="143.45977" x2="300.40889" y2="155.98369" gradientUnits="userSpaceOnUse" id="color-3"><stop offset="0" stop-color="#000000"/><stop offset="1" stop-color="#86746e"/></linearGradient></defs><g transform="translate(-124.47641,27.71747)"><g data-paper-data="{&quot;isPaintingLayer&quot;:true}" fill-rule="nonzero" stroke-linejoin="miter" stroke-miterlimit="10" stroke-dasharray="" stroke-dashoffset="0" style="mix-blend-mode: normal"><path d="M137.00582,12.13368c-5.75861,-20.31939 23.40767,-35.41583 38.12172,-39.58586c14.71404,-4.17003 80.28331,41.90166 86.04192,62.22105c1.35249,4.7723 -6.36165,13.14308 -4.03162,16.54035c7.59076,11.06752 -1.81315,-7.15047 -13.07139,-3.95983c-4.07042,1.15357 -16.95964,-8.61438 -30.57341,-15.18804c-6.32875,-3.05596 -12.81408,-5.42159 -18.6428,-5.67877c-26.95704,-1.18938 -54.41941,-2.26366 -57.84443,-14.34891z" data-paper-data="{&quot;index&quot;:null}" fill="#23173a" stroke="none" stroke-width="0" stroke-linecap="butt"/><path d="M233.41812,66.89402c35.23593,-14.51284 100.29051,-3.32743 107.86242,15.05653c1.46781,3.56371 38.73002,31.47492 36.11757,35.07094c-10.86423,14.95457 -90.00347,5.50887 -118.40894,17.20841c-19.26762,7.93588 -33.32153,35.09023 -41.59546,72.92414c-4.09185,18.71064 5.64177,152.84131 1.15265,149.39847c-0.62034,-0.47575 -18.11131,39.53981 -23.75789,17.30877c-1.24148,-4.8878 -8.71748,18.24149 -7.06636,-1.80298c0.19394,-2.35439 1.3977,-121.15032 1.63035,-129.11138c0.37635,-12.87839 -5.61044,152.57346 -6.15487,133.74634c-0.83558,-28.89528 2.19305,-137.9477 3.99785,-148.66867c0.58738,-3.48919 -2.41628,50.20001 -6.58636,92.84358c-2.22574,22.76063 2.22374,59.39237 -0.29791,56.30132c-4.77139,-5.84881 -2.25549,-105.74169 -2.10936,-107.12278c0.7789,-7.36105 -4.02434,114.72078 -5.04575,107.27656c-4.51924,-32.93693 -5.1678,-178.52571 -7.23735,-183.00298c-1.5718,-3.40044 5.25307,-31.95102 2.76379,-36.23938c-1.44511,-2.48953 2.01449,-11.89528 2.0282,-12.3657c0.85792,-29.42651 27.47149,-64.30835 62.70742,-78.82119z" data-paper-data="{&quot;index&quot;:null}" fill="#23173a" stroke="none" stroke-width="NaN" stroke-linecap="butt"/><path d="M266.37041,422.31184c-21.10137,-7.52422 -92.64987,-44.7465 -92.64987,-44.7465c0,0 20.77674,-7.37272 36.33336,-31.19108c10.01969,-15.3409 16.99525,-46.29028 17.78602,-57.21863c2.00806,-27.75128 -1.49891,-102.55776 -1.49891,-102.55776l56.29151,30.4772c0,0 20.65619,8.55503 23.38616,30.03983c4.02898,31.70795 8.95661,180.81836 8.95661,180.81836c0,0 -23.36608,3.37811 -48.60488,-5.62142z" data-paper-data="{&quot;index&quot;:null}" fill="#412a6a" stroke="none" stroke-width="0" stroke-linecap="butt"/><g data-paper-data="{&quot;index&quot;:null}" stroke="#000000" stroke-linecap="butt"><path d="M368.86538,172.93872c-0.59823,-1.45248 -3.72415,-27.93058 -3.745,-29.89928c-0.1457,-13.76101 26.17071,-47.53545 32.16244,-50.0033c6.84892,-2.8209 6.26768,26.95621 11.04755,38.56133c2.43606,5.91455 -3.20004,23.89459 -8.78949,34.35792c-5.37778,10.0671 -10.604,12.71224 -13.96236,14.09547c-6.84893,2.82091 -6.22071,18.36261 -11.00058,6.75749z" fill="#ffddd1" stroke-width="0.5"/><path d="M378.60462,147.46704c-2.82092,-6.84893 11.30839,-36.08478 15.11335,-37.65195c1.92219,-0.79171 10.99114,19.07219 10.59335,30.86392c-0.38964,11.54989 -10.24179,14.98843 -8.84595,18.37742c0.55164,1.33932 -0.9928,2.80679 -0.01751,-2.79721c0.75784,-4.35456 4.11275,-15.01825 4.25304,-20.24433c0.22783,-8.48676 -1.74616,-15.44438 -2.71439,-18.83774c-0.72765,-2.55025 -4.57999,-4.59207 -6.231,-0.01193c-1.04582,2.90125 -0.29367,7.89851 0.77402,12.62671c0.93448,4.13827 1.97383,1.86876 1.58262,2.02989c-1.50841,0.62127 -7.49975,-4.00958 -9.75879,-1.447c-1.93253,2.1922 4.19482,15.47063 3.63065,19.9507c-0.43991,3.49335 -7.63344,-1.04738 -8.3794,-2.8585z" fill="#be8571" stroke-width="0"/></g><path d="M196.85297,198.66552c-9.02041,-24.05192 -16.22479,-76.33123 0.6216,-110.39939c8.35101,-16.88813 20.90905,-28.27555 35.70269,-34.96718c24.2724,-10.97917 63.0791,-15.84474 90.13076,-4.8865c7.53945,3.05412 15.07328,1.39672 21.99887,7.22348c13.9225,11.71353 25.38692,33.63272 29.4975,44.59312c1.42456,3.79843 7.7021,19.14546 8.70084,23.79623c3.09186,14.39767 19.01175,32.08502 12.84972,43.64386c-2.58589,4.85067 -15.39137,20.31348 -18.22827,24.27073c-0.524,0.73093 6.07035,-6.46689 5.82833,-5.32876c-1.08958,5.12378 -6.4657,-3.05933 -7.96883,18.49168c-0.77672,13.55321 -1.89277,24.8354 -0.28733,37.13323c0.74338,5.69433 2.26625,12.36714 2.47537,15.59171c0.1563,2.41019 3.65701,17.47093 4.09466,18.77903c1.92428,5.75148 3.13977,15.10957 2.8581,14.50075c-2.39923,1.88891 -1.47818,11.6397 -2.59085,13.6506c-3.25211,5.87742 -9.52104,3.96373 -13.64614,5.98264c-8.72688,4.27115 -15.18154,-4.78793 -22.20885,-4.13112c-9.92897,0.928 -6.98915,8.81645 -25.81821,-5.84522c-6.02477,-4.6913 -46.02179,-62.50305 -49.39853,-61.67143c-45.84449,-17.78063 -65.27063,-15.52129 -74.61141,-40.42744z" data-paper-data="{&quot;index&quot;:null}" fill="#ffddd1" stroke="#003737" stroke-width="0.5" stroke-linecap="butt"/><path d="M304.39697,220.23051c0,1.12799 -1.51886,10.23998 -1.5555,11.33202c-0.45225,13.47804 4.40579,45.00385 3.0555,41.41798c-4.14213,-11 -10.5,-36.20024 -10.5,-51.25c0,-15.04976 20.85787,-63.25 25,-63.25c1.83537,0 6.28638,15.36528 3.43498,27.10563c-0.8134,3.34909 -7.02694,-0.41763 -8.41708,2.67786c-4.73466,10.54289 -11.0179,25.48756 -11.0179,31.96651z" fill="#f7b8a2" stroke="none" stroke-width="0" stroke-linecap="butt"/><path d="M368.89697,218.98051c0,10.21727 4.15685,38.5 2.5,38.5c-1.08829,0 -1.65994,-17.69384 -7.07154,-35.47823c-2.82726,-9.29134 -12.42846,-21.5156 -12.42846,-25.02177c0,-10.21727 -0.65685,-11.5 1,-11.5c0.90283,0 0.01795,3.46786 4.48665,11.00791c3.73212,6.29722 11.51335,17.8423 11.51335,22.49209z" fill="#f7b8a2" stroke="none" stroke-width="0" stroke-linecap="butt"/><path d="M325.52862,145.06496c1.36916,-4.87891 1.62098,-11.50965 10.50643,-14.33372c10.28322,-3.26833 29.75448,-2.38189 37.82751,-2.90789c6.96125,-0.45355 5.87642,-5.67332 9.85929,-6.1331c2.2387,-0.25845 3.71031,0.39251 4.19161,1.68768c0.53964,1.45214 -5.45161,19.83423 -6.29712,22.03167c-0.5611,1.45829 -9.5661,9.11037 -12.19909,11.55011c-2.04199,1.8921 -12.57055,5.01949 -16.51646,6.31298c-8.76148,2.87206 -9.58054,3.81671 -10.75235,7.99238c-10.32001,15.39413 8.43831,16.58692 -1.71019,13.06288c-10.14851,-3.52403 -19.22963,-23.86885 -14.90962,-39.26298z" data-paper-data="{&quot;index&quot;:null}" fill="#86746e" stroke="none" stroke-width="0" stroke-linecap="butt"/><path d="M393.37301,173.92919c0.1775,2.64755 7.17503,6.74799 5.61352,8.95083c-1.20781,1.70388 -5.54028,-2.27131 -9.72233,-2.86143c-1.26623,-0.17869 5.57596,10.0728 4.42298,10.22043c-0.1991,0.0255 -2.48723,-0.12297 -4.83895,-2.01461c-1.98566,-1.59718 -4.1073,-5.02568 -4.13388,-4.66141c-0.22509,3.08516 3.40592,10.29408 2.55269,10.43059c-1.05919,0.16947 -3.75567,-2.02029 -5.75849,-4.55433c-0.5831,-0.73775 -1.00099,-2.9718 -1.85935,-3.35754c-1.37581,-0.61827 2.55167,11.61334 1.33828,10.27052c-0.99599,-1.10223 -6.88819,-10.22612 -7.17551,-9.7661c-1.14432,1.8322 2.24905,11.18218 -0.2979,11.07561c-2.41365,-0.101 -6.36572,-10.04968 -9.8627,-12.62422c-3.61241,-2.65951 -12.70121,-7.77872 -12.79638,-9.19823c-0.0812,-1.21118 8.3651,5.10676 12.36294,2.88295c5.4801,-3.04832 9.26932,-2.39593 12.80046,-6.4226c5.28855,-2.75447 1.68442,-0.82878 8.01634,-5.68285c0.65241,-1.88781 2.39532,-4.29263 3.27973,-6.40599c0.36304,-0.86752 0.45779,-3.30955 0.75321,-3.66642c1.19453,-5.99504 -0.44471,-1.47066 -0.06496,-6.586c0.43195,-5.81862 -0.58869,-12.20628 -3.8986,-23.06436c0.08856,-0.81598 -5.0384,-16.11175 -5.31279,-17.71771c-1.47988,-8.66123 -5.2482,-9.84468 -4.62423,-9.94452c0.32027,-0.05124 9.03494,19.20139 11.62763,21.319c0.92945,0.75914 3.55399,2.08776 6.43927,3.50853c4.58755,2.25899 9.83428,4.75093 9.97481,5.55713c0.24014,1.37767 -9.28731,5.2002 -8.77727,6.46635c0.16195,0.40205 4.04263,-2.98664 8.39279,-3.43356c5.44907,-0.55981 13.20053,2.03031 13.53058,2.39185c0.15747,0.17249 -5.64288,1.48445 -9.20882,3.23016c-3.15422,1.54414 -6.51605,1.77651 -6.34363,1.84784c1.53569,0.63537 -0.76285,0.22188 0.94356,0.48436c1.9983,0.30737 5.6267,-1.1473 7.63409,-1.11769c7.46326,0.1101 12.59148,1.3409 12.26509,5.82806c-0.03796,0.52186 -1.43326,0.13987 -3.30698,0.27407c-4.65785,0.3336 -12.30239,0.69998 -9.62298,2.96817c-0.71254,-1.42784 -2.49929,-1.07668 -1.61854,-1.11303c0.68665,-0.02835 0.45652,-1.34512 1.2909,-1.47695c1.50658,-0.23803 4.22621,0.68337 6.06507,0.84822c4.19839,0.37638 7.31433,1.75218 7.91887,2.23208c2.81682,2.23612 -8.77963,3.78954 -7.15263,5.43464c0.92893,0.93926 3.00304,-0.05592 3.85413,0.74132c3.78845,3.54873 5.30178,7.69733 3.8745,10.07842c-0.12759,0.21285 -6.81161,-3.49994 -6.98474,-2.62198c-0.13525,0.68587 0.82414,2.49292 1.54199,4.93321c1.27236,4.32539 2.62532,9.96811 1.7672,10.08802c-0.87289,0.12198 -3.8716,-4.25905 -4.92703,-4.91706c-6.69098,-4.17144 -14.7453,-9.44188 -11.91407,-5.87942c1.09231,1.37442 2.6528,-0.15082 3.55573,0.9524c6.05115,7.39353 4.83849,9.72432 4.57222,10.2505c-1.91343,0.16991 -3.66726,1.24621 -7.6972,-0.45588c-4.44157,-1.87595 -8.49834,-3.86713 -8.48857,-3.72133z" data-paper-data="{&quot;index&quot;:null}" fill="#23173a" stroke="none" stroke-width="0" stroke-linecap="butt"/><g data-paper-data="{&quot;index&quot;:null}" stroke="#000000" stroke-linecap="butt"><path d="M188.61452,153.86626c1.18403,2.01013 17.88466,24.13629 18.19334,25.99245c2.4663,14.83056 -7.01776,23.12019 -15.38091,24.64347c-4.10087,0.74694 -10.78387,1.40968 -22.15366,-5.35836c-11.81731,-7.03444 -28.27773,-21.66294 -29.53467,-29.22134c-2.46631,-14.83058 -21.24393,-44.66036 -12.88077,-46.18364c7.31644,-1.33263 53.48043,16.07683 61.75668,30.12741z" fill="#ffddd1" stroke-width="0.5"/><path d="M140.57623,138.47503c4.64621,-0.84626 36.22285,19.76157 37.67837,28.51405c0.15038,0.90426 12.10181,17.86115 11.22462,19.71562c-1.368,2.89212 -16.03525,-9.46488 -17.59701,-11.45216c-3.28718,-4.18282 -5.47111,-21.57315 -8.68496,-22.5595c-3.75685,-1.15298 -6.73073,7.37937 -8.57262,7.71485c-0.4777,0.08701 1.91781,1.72354 0.29213,-3.07198c-1.85743,-5.47915 -4.18525,-11.02918 -6.97346,-13.30233c-4.40169,-3.58856 -6.88623,0.94851 -6.03148,4.00095c1.13732,4.06159 3.48012,12.38214 8.89217,20.84411c3.3327,5.21082 13.10696,13.87894 16.50504,17.81047c4.37311,5.05962 1.97868,4.55991 1.69405,2.84833c-0.37902,-2.27915 5.71462,4.92192 1.48749,3.47924c-3.80538,-1.29873 -17.77591,-11.02436 -21.30179,-16.45597c-7.59838,-11.70528 -10.95973,-37.65815 -8.61256,-38.08567z" fill="#be8571" stroke-width="0"/></g><path d="M212.94292,206.70513c-0.0543,-0.19947 -6.74648,5.7811 -14.2253,11.92985c-6.7857,5.5789 -10.6462,5.62224 -14.35646,6.98755c-0.76728,-0.4695 -4.22881,-2.52173 3.54454,-17.24757c1.1599,-2.19733 4.87825,-1.49099 6.26154,-4.2014c3.58551,-7.02534 -9.04345,6.57703 -19.63806,17.60547c-1.67118,1.73962 -5.16525,9.97825 -6.88007,10.54274c-1.68577,0.55494 -1.93997,-7.97337 -1.68904,-14.70597c0.14157,-3.7984 1.05702,-6.96624 0.45825,-7.75409c-0.76645,-1.00848 -11.57685,9.41225 -11.92489,9.23881c-3.8933,-1.94007 -3.09757,-8.64067 2.30847,-16.44258c1.21449,-1.75271 5.64129,-2.16835 6.93234,-4.17208c2.26125,-3.5095 -20.48656,4.07782 -16.26606,-1.19495c0.9058,-1.13162 6.12267,-5.52362 13.88953,-9.50254c3.40181,-1.74275 8.09465,-5.20945 11.06809,-6.14764c1.64676,-0.5196 1.86822,1.39953 3.18341,0.86674c1.68695,-0.68337 -1.8738,0.3389 -2.51088,2.8042c3.94415,-5.20078 -10.72314,0.66393 -19.71506,4.09252c-3.6172,1.37922 -6.07016,3.03871 -6.40267,2.38538c-2.85909,-5.61783 6.2429,-11.4899 20.32875,-17.82943c3.78866,-1.70515 11.38989,-2.80794 15.02262,-4.87007c3.10212,-1.7609 -1.04652,0.68969 1.54592,-1.41887c0.29106,-0.23674 -6.19471,2.24888 -12.94216,2.84066c-7.62821,0.66902 -19.27341,3.76196 -19.06119,3.40488c0.44481,-0.74842 13.83834,-10.58191 24.44237,-14.37036c8.46552,-3.02445 17.51049,-1.79853 17.61659,-2.4606c0.33413,-2.08501 -19.62658,0.80698 -19.85949,-1.20034c-0.22203,-1.91347 6.09544,-4.35385 9.67474,-8.93237c3.855,-4.93119 5.02254,-11.95397 5.65496,-12.15256c1.46056,-0.45868 5.06491,7.6499 8.74268,14.0261c4.48243,7.77123 -0.72994,-1.70583 2.99401,5.57171c3.27386,6.39792 10.16024,16.84618 13.76861,17.93722c2.5356,0.7667 2.86354,3.9661 5.93674,6.69672c4.44815,3.95231 11.74549,7.75917 15.53675,8.78454c8.70122,2.3533 24.18394,0.69597 36.08942,0.14757c8.68527,-0.40008 28.27157,-5.25701 28.72252,-3.60011c0.52852,1.9419 -19.50052,9.36796 -25.01703,15.85676c-5.34022,6.28146 -9.23368,19.00922 -13.75646,21.14527c-4.77253,2.254 -3.0119,-12.83325 -6.09499,-14.28787c-0.77413,-0.36522 -7.38224,16.49954 -8.71899,18.77281c-1.62851,2.76948 -0.29482,-16.54286 -2.59288,-14.58944c-1.43376,1.21874 -1.10999,4.49748 -1.8464,5.94969c-2.52944,4.98806 -6.54509,10.10007 -8.63658,10.75689c-1.68479,0.5291 1.59521,-11.94557 -0.37184,-15.80756c-0.23225,-0.45598 -2.54018,5.80456 -5.5049,9.54886c-3.51129,4.43461 -7.77255,6.52877 -8.1625,6.66058c-2.25828,0.76332 5.58673,-18.36981 3.27679,-17.08426c-7.62919,4.24586 -13.85302,13.05899 -16.99233,11.82548c-4.05861,-1.59474 7.15228,-12.78443 6.16655,-16.40629z" data-paper-data="{&quot;index&quot;:null}" fill="#23173a" stroke="none" stroke-width="0" stroke-linecap="butt"/><path d="M200.01451,48.93759c19.10657,-11.99049 39.39732,-14.63723 43.66091,-15.66273c4.2636,-1.0255 25.91477,-1.59247 43.71234,-0.84201c9.33328,-0.01304 37.31256,4.71868 38.23165,7.50487c0.33029,1.00129 7.22257,2.4408 25.13974,14.72345c12.16499,8.3394 28.29584,50.65722 27.22496,51.68607c-0.32121,0.30861 -3.82013,-10.77271 -11.0025,-21.89049c-5.5666,-8.61669 -7.84407,-11.55562 -12.74012,-15.99673c-9.19437,-8.34007 -12.74976,-10.75008 -16.06207,-12.80871c-1.08769,-0.4447 -9.05461,-5.32196 -9.92377,-5.6427c-5.20529,-1.92092 -1.40453,-1.31527 -4.5419,-1.53247c1.27648,5.39608 1.37975,3.38764 -0.68813,6.36623c-0.51223,0.73783 6.38241,15.72104 4.86496,15.15534c-8.86162,-3.30362 -30.77683,-15.32733 -31.69064,-15.10754c-0.80394,0.19337 -17.1329,-2.18991 -24.80427,-2.25444c-4.54741,-0.03825 -11.86374,1.85981 -14.24464,1.67241c-5.05579,-0.39793 -17.46069,2.667 -28.91501,9.59177c-4.96602,3.00223 -10.68356,4.54022 -20.43225,14.98347c-0.12404,1.0205 -6.70065,17.15669 -7.21866,20.2447c-1.6776,10.00046 -2.8963,22.10937 -0.89506,39.19504c1.63831,13.98712 27.3455,42.98728 26.2541,43.84613c-0.64297,0.50598 -17.0907,-12.30653 -23.65032,-18.39792c-2.87176,-2.66677 -6.96819,-7.42371 -9.23391,-10.51997c-6.07933,-8.30781 0.77589,-0.76193 -0.35113,1.28653c-0.88037,1.60014 -12.26363,-10.87978 -12.60118,-10.9669c-0.46059,-0.11888 -9.41813,-3.23949 -12.29948,-5.18895c-0.7548,-0.51067 -7.80853,-5.47278 -7.13903,-6.75108c-1.28349,-16.16191 -1.25954,-21.97 5.42683,-40.57244c0.68381,-1.90247 9.91341,-17.5448 9.87301,-17.67633c0,0 7.3184,-10.27588 11.14882,-13.6553c3.92917,-3.46654 12.89678,-10.78926 12.89678,-10.78926z" data-paper-data="{&quot;index&quot;:null}" fill="#23173a" stroke="none" stroke-width="0" stroke-linecap="butt"/><path d="M210.59787,126.54206c1.22848,-2.52868 0.98303,-2.0248 6.5768,-2.99206c11.67514,-2.01885 51.14464,6.2854 62.83964,5.39632c22.35781,-1.69968 38.70721,-5.63876 41.2854,4.30315c2.57818,9.94189 -1.73213,28.4126 -23.57696,32.09046c-21.84481,3.67785 -51.05489,2.18293 -59.18336,-7.65032c-1.55795,-1.8847 -29.01452,-28.93892 -27.94152,-31.14755z" data-paper-data="{&quot;index&quot;:null}" fill="#86746e" stroke="none" stroke-width="0" stroke-linecap="butt"/><path d="M248.37892,152.4185c-6.93059,-2.03403 -8.27844,-5.3122 -17.13996,-9.03816c-2.01219,-0.84605 15.73045,1.45114 19.90992,1.04714c3.76171,-0.36361 30.76524,-2.66472 38.22649,-2.72265c14.30869,-0.1111 23.30072,1.92285 21.34013,3.58663c-2.19477,1.8625 -3.11008,5.72428 -4.48591,8.51888c-0.05226,0.10616 -2.08091,1.80157 -2.14483,1.90475c-1.87035,3.01889 -5.43401,5.88117 -20.80987,5.20741c-9.68487,-0.42439 -12.60311,0.40258 -22.89596,-2.61824z" data-paper-data="{&quot;index&quot;:null}" fill="#ffffff" stroke="#200000" stroke-width="0.5" stroke-linecap="butt"/><path d="M383.69957,138.45178c-5.04739,4.53154 -10.32987,9.8709 -14.34776,12.47759c-5.96711,3.87129 -7.72288,4.11608 -13.53075,5.18298c-9.22068,1.69382 -15.61373,-1.9702 -16.98314,-5.06724c-0.04681,-0.10583 -1.40594,-1.78306 -1.44595,-1.89283c-1.0532,-2.88952 -1.91389,-6.94507 -3.38659,-8.78972c-2.00155,-2.50708 43.58914,-3.17878 50.2943,-2.74543c2.55327,0.16503 0.54602,-0.19431 -0.6001,0.83467z" data-paper-data="{&quot;index&quot;:null}" fill="#ffffff" stroke="#200000" stroke-width="0.5" stroke-linecap="butt"/><path d="M370.67035,136.84361c2.80867,-1.15682 6.10857,0.38925 7.37056,3.45324c1.26199,3.064 0.00816,6.48564 -2.8005,7.64246c-2.80867,1.15682 -6.10857,-0.38925 -7.37056,-3.45324c-1.26199,-3.064 -0.00816,-6.48564 2.8005,-7.64246z" data-paper-data="{&quot;index&quot;:null}" fill="url(#color-1)" stroke="none" stroke-width="0" stroke-linecap="butt"/><path d="M319.68479,44.43969z" data-paper-data="{&quot;index&quot;:null}" fill="url(#color-2)" stroke="none" stroke-width="0" stroke-linecap="butt"/><path d="M295.01934,143.45977c3.31232,-1.30572 7.20394,0.43935 8.69223,3.89773c1.48829,3.45839 0.00962,7.32046 -3.30268,8.62619c-3.3123,1.30572 -7.20394,-0.43936 -8.69223,-3.89774c-1.48829,-3.45839 -0.00961,-7.32046 3.30268,-8.62618z" data-paper-data="{&quot;index&quot;:null}" fill="url(#color-3)" stroke="none" stroke-width="0" stroke-linecap="butt"/><path d="M280.07259,92.09933c0.75741,-3.96009 5.38427,-6.40286 10.33437,-5.45608c4.95011,0.94676 24.66048,20.67987 23.90305,24.63994c-0.75742,3.96007 -21.69579,-9.35247 -26.64589,-10.29923c-4.95011,-0.94676 -8.34895,-4.92457 -7.59152,-8.88464z" data-paper-data="{&quot;index&quot;:null}" fill="#23173a" stroke="none" stroke-width="0" stroke-linecap="butt"/><path d="M361.81353,94.54798c1.4064,2.3404 0.17491,5.66279 -2.75059,7.42079c-2.92551,1.75799 -13.1261,15.11077 -14.5325,12.77036c-1.40639,-2.3404 6.51402,-19.48771 9.43952,-21.2457c2.92549,-1.75798 6.43718,-1.28585 7.84357,1.05456z" data-paper-data="{&quot;index&quot;:null}" fill="#23173a" stroke="none" stroke-width="0" stroke-linecap="butt"/><path d="M364.43621,229.51195c0,0 6.09532,10.84128 3.29268,10.151c-1.41949,-0.34962 -0.87835,-3.61323 -3.20843,-5.34828c-2.48354,-1.84931 -9.32081,-0.66618 -10.09738,-0.70386c-2.10122,-0.10195 -10.30938,2.97756 -10.30938,2.97756c0,0 -13.57063,4.27479 -18.45525,6.13428c-13.79307,-0.79467 -21.78821,-11.24868 -21.78821,-11.24868" data-paper-data="{&quot;index&quot;:null}" fill="none" stroke="#000000" stroke-width="2" stroke-linecap="round"/><g data-paper-data="{&quot;index&quot;:null}" stroke-linecap="butt"><path d="M331.59758,128.37721c3.83697,-0.63461 32.55527,30.38109 35.76716,49.8004c2.19869,13.29343 3.72077,8.99148 -2.42845,21.58745c-2.37286,1.8875 -7.39681,10.01082 -8.60719,10.21101c-3.54818,0.58686 -32.30658,-8.068 -38.21803,-24.17131c-0.48113,-1.31064 0.09364,-3.10507 -0.14811,-4.56665c-0.22418,-1.35541 2.09703,0.8168 3.39712,-0.72773c0.73822,-0.87703 1.87314,-5.72962 1.62798,-6.79734c-3.00853,-13.10253 -1.85124,-30.61535 -0.71549,-41.05363c0.94396,-8.6755 7.77404,-4.02568 9.325,-4.28221z" fill="#ffcbb8" stroke="#710000" stroke-width="0.5"/><path d="M322.40422,132.55498c-0.9048,-2.46239 2.35403,-5.92551 7.27878,-7.7351c4.92476,-1.80959 9.65055,-1.28042 10.55535,1.18196c0.9048,2.46238 -2.35402,5.92551 -7.27878,7.73511c-4.92476,1.8096 -9.65055,1.28041 -10.55535,-1.18197z" fill="#ffddd1" stroke="none" stroke-width="0"/><path d="M319.42528,188.20017c-0.08638,-0.52227 -1.62445,-6.87037 -1.67032,-7.36034c-0.1077,-1.15027 4.1686,1.68633 4.75226,-3.85408c0.78883,-7.48803 -2.22678,-25.16271 -1.76278,-25.23945c0.95355,-0.15771 6.63356,26.31852 7.19682,29.72403c0.24081,1.45599 3.25923,5.98797 7.59778,9.96028c1.56626,1.43403 3.5465,3.07906 5.23265,4.7784c4.56763,4.60338 10.55437,9.26715 10.15568,9.33309c-0.26673,0.04412 -1.32684,-0.67466 -4.90015,-3.70483c-5.62925,-4.77361 -15.24508,-13.02744 -20.65756,-15.86498c-3.4347,-1.80068 -5.78688,3.18016 -5.94439,2.22787z" fill="#e1a088" stroke="#710000" stroke-width="0"/></g><path d="M308.09582,288.87222c-1.28781,-3.12671 16.1857,7.8691 26.88353,12.01332c7.18427,2.78311 15.69521,-0.81784 20.34144,-1.52087c7.68306,-2.45985 9.67425,-6.94112 11.24102,-11.95976c2.32751,-7.45542 2.2184,-14.88987 3.54943,-15.43809c2.83784,-1.16885 6.30753,8.82608 11.27494,17.36361c4.1836,2.25296 1.67352,-9.79262 3.11859,-6.2841c4.73245,11.48997 5.75705,33.66849 1.67172,35.35114c-1.61706,0.66603 -19.01727,9.78089 -30.07931,7.75567c-16.88511,-3.09131 -28.14211,-8.83891 -34.00136,-16.28093z" data-paper-data="{&quot;index&quot;:null}" fill="#23173a" stroke="none" stroke-width="0" stroke-linecap="butt"/><path d="M321.99313,169.78544c-5.20123,-18.33017 1.13526,-39.82935 5.12008,-40.96006c3.98482,-1.13071 -4.81039,21.60841 7.96113,42.71178c6.03616,9.97403 14.52603,12.56989 20.89228,16.72899c4.03846,2.63835 6.6169,4.05273 5.07024,4.4916c-1.27458,0.36166 -1.81281,6.5318 -8.22745,6.90796c-5.11374,0.29988 -15.84706,-4.6396 -19.96619,-7.82308c-6.86795,-5.30794 -8.63878,-14.26407 -10.8501,-22.05719z" data-paper-data="{&quot;index&quot;:null}" fill="#f7b8a2" stroke="none" stroke-width="0" stroke-linecap="butt"/><path d="M301.64085,146.8683c0.62132,0 1.125,0.50368 1.125,1.125c0,0.62132 -0.50368,1.125 -1.125,1.125c-0.62132,0 -1.125,-0.50368 -1.125,-1.125c0,-0.62132 0.50368,-1.125 1.125,-1.125z" data-paper-data="{&quot;index&quot;:null}" fill="#ffffff" stroke="none" stroke-width="0" stroke-linecap="butt"/><path d="M374.89085,141.1183c0.62132,0 1.125,0.50368 1.125,1.125c0,0.62132 -0.50368,1.125 -1.125,1.125c-0.62132,0 -1.125,-0.50368 -1.125,-1.125c0,-0.62132 0.50368,-1.125 1.125,-1.125z" data-paper-data="{&quot;index&quot;:null}" fill="#ffffff" stroke="none" stroke-width="0" stroke-linecap="butt"/><path d="M327.39247,135.32176c0,2.23644 -26.85176,-5.43059 -46.97924,-5.26256c-0.9969,0.00832 -30.00429,-0.48744 -31.02076,-0.48744c-1.06436,0 -15.5699,-0.98013 -16.52625,-0.94572c-10.5027,0.37794 -10.07173,1.00974 -21.4432,-2.16377c-8.54724,-2.38533 -6.53055,-8.18308 -6.53055,-9.14051c0,-0.2619 -0.38314,-2.55123 4.62113,-8.22795c4.98102,-5.65034 14.34586,-9.18912 15.92378,-9.05459c1.73382,0.14783 -8.97564,7.5163 -11.59362,12.85488c-1.61545,3.29423 3.87508,5.19631 5.24191,6.00271c2.76022,1.62847 0.6723,1.62129 5.16766,2.19982c12.65093,1.6281 35.92141,0.97513 45.13914,0.97513c4.75934,0 35.39279,2.79996 39.72363,2.51359c15.26902,-1.00961 18.27637,8.90784 18.27637,10.73641z" fill="#0f0d0c" stroke="none" stroke-width="0" stroke-linecap="butt"/><path d="M358.0511,125.07326c5.95675,0 16.60163,0.03642 21.62143,-6.17495c1.70785,-2.11325 -5.31177,-14.11855 -3.97495,-14.35759c1.50823,-0.26969 11.20241,13.25996 11.20241,13.78254c0,0.95743 -0.47361,3.75518 -4.54895,6.14051c-5.91564,3.46248 -20.10728,5.60949 -26.18806,5.60949c-0.48465,0 -7.88576,2.99576 -8.36109,2.98744c-9.59681,-0.16803 -6.92041,-0.501 -6.92041,-2.73744c0,-2.34721 3.1044,-5.75 13.37428,-5.75z" data-paper-data="{&quot;index&quot;:null}" fill="#0f0d0c" stroke="none" stroke-width="0" stroke-linecap="butt"/></g></g></svg>