<svg version="1.1" xmlns="http://www.w3.org/2000/svg" xmlns:xlink="http://www.w3.org/1999/xlink" width="384.08187" height="458.42537" viewBox="0,0,384.08187,458.42537"><defs><linearGradient x1="244.50193" y1="-65.66563" x2="244.50071" y2="-65.66345" gradientUnits="userSpaceOnUse" id="color-1"><stop offset="0" stop-color="#000000"/><stop offset="1" stop-color="#86746e"/></linearGradient><linearGradient x1="386.72727" y1="88.7063" x2="383.11664" y2="100.15022" gradientUnits="userSpaceOnUse" id="color-2"><stop offset="0" stop-color="#000000"/><stop offset="1" stop-color="#86746e"/></linearGradient><linearGradient x1="411.74024" y1="139.59419" x2="452.83026" y2="130.68826" gradientUnits="userSpaceOnUse" id="color-3"><stop offset="0" stop-color="#c6856e"/><stop offset="1" stop-color="#f7b8a2"/></linearGradient><linearGradient x1="418.65367" y1="192.38991" x2="419.49572" y2="199.33908" gradientUnits="userSpaceOnUse" id="color-4"><stop offset="0" stop-color="#c70000"/><stop offset="1" stop-color="#c70000" stop-opacity="0"/></linearGradient><linearGradient x1="421.16041" y1="190.33848" x2="417.94193" y2="184.12226" gradientUnits="userSpaceOnUse" id="color-5"><stop offset="0" stop-color="#c70000"/><stop offset="1" stop-color="#c70000" stop-opacity="0"/></linearGradient></defs><g transform="translate(-76.12499,46.99322)"><g data-paper-data="{&quot;isPaintingLayer&quot;:true}" fill-rule="nonzero" stroke-linecap="butt" stroke-linejoin="miter" stroke-miterlimit="10" stroke-dasharray="" stroke-dashoffset="0" style="mix-blend-mode: normal"><path d="M175.65191,48.35056c-1.43703,-4.60579 14.92046,-16.66978 31.62833,-28.47599c9.86896,-6.97366 35.90178,-8.76045 46.23811,-11.9127c15.03638,-4.58562 65.0306,1.88722 90.56775,4.32879c21.73738,2.07828 33.47153,15.60182 34.52259,18.97055c0.91311,2.92655 -23.98407,-3.3607 -40.58675,-2.28849c-13.95486,0.90121 -38.55692,8.809 -51.83858,15.76667c-10.47453,5.48714 -10.21216,10.06981 -17.5827,12.31758c-2.68958,0.82024 -4.59785,103.57336 -6.96628,104.1787c-4.16778,1.06523 -6.4233,5.83308 3.67346,20.44497c5.32556,7.70708 -4.4693,64.83186 -8.13661,80.78496c-6.40382,27.85716 -12.58471,16.32616 -19.36295,14.85393c-2.85788,-0.62073 -10.48699,74.424 -26.25959,70.65502c-9.59847,-2.29362 22.35212,-112.76301 26.93744,-152.81691c1.10662,-9.66659 0.66515,29.24349 -2.37679,72.0625c-2.88167,40.56302 -20.26306,68.57956 -23.45888,62.4419c-2.4476,-4.7007 1.50501,-129.54776 0.5908,-130.51967c-1.76784,-1.87941 -6.80346,135.39566 -12.05159,132.46965c-6.58779,-3.67293 1.50458,-153.64889 0.29011,-137.89917c-1.15273,14.94918 -10.29883,189.30158 -12.20394,157.92784c-0.21816,-3.59272 -0.66737,15.95914 -1.1433,6.22971c-0.80281,-16.41193 -7.0974,18.35739 -8.83856,-13.67034c-0.16636,-3.0601 -3.07518,5.71672 -2.79842,-0.10326c1.39675,-29.37229 10.44669,-99.8499 11.12108,-108.14307c1.02616,-12.61894 4.47485,-79.06773 3.79952,-78.09858c-1.92797,2.7668 -3.44724,46.1264 -6.60651,70.91138c-5.67186,44.49666 -25.30362,154.27045 -26.3461,142.49687c-0.9958,-11.24639 21.95617,-100.92398 22.7956,-142.7383c0.47054,-23.43892 0.5981,-41.27439 -0.32507,-41.8404c-1.23389,-0.75652 -25.91099,192.66941 -26.14221,187.50242c-1.11863,-24.99755 18.14718,-131.91483 18.77842,-175.69511c0.30257,-20.98512 0.63392,-49.36522 0.5177,-50.21809c-0.64821,-4.75652 -15.71254,-39.84579 -15.1581,-56.34631c0.43405,-12.91769 16.91703,-42.95193 16.72199,-43.57703z" data-paper-data="{&quot;index&quot;:null}" fill="#23173a" stroke="none" stroke-width="0"/><path d="M76.99058,1.26562c-6.86339,-24.80595 28.79474,-42.98169 46.75768,-47.95173c17.96293,-4.97004 97.51893,51.67323 104.38232,76.47917c1.61196,5.82603 -7.85246,15.96849 -5.03877,20.12626c9.16642,13.54508 -2.15528,-8.72768 -15.89936,-4.92493c-4.96917,1.37489 -20.60242,-10.62671 -37.1429,-18.74112c-7.68931,-3.77221 -15.57469,-6.70435 -22.6759,-7.06202c-32.84214,-1.65418 -66.30099,-3.17196 -70.38309,-17.92565z" data-paper-data="{&quot;index&quot;:null}" fill="#23173a" stroke="none" stroke-width="0"/><path d="M303.17968,32.13023c10.76688,-2.68706 -83.46113,-12.24213 -70.43061,-10.59143c1.27024,0.16092 -17.57214,-1.97001 -12.53527,-6.1668c4.11859,-3.43167 33.32625,-12.75231 43.08966,-14.16999c18.20936,-2.64405 46.29398,-2.25384 52.27101,-1.53533c14.37404,1.72794 27.0497,5.30288 32.70443,7.02876c9.89514,3.02011 21.98694,7.99452 29.04486,14.72971c0.48919,0.46683 13.67634,11.67274 14.17244,12.22802c8.18925,9.1663 14.54962,23.8079 15.99701,29.89192c0.90405,3.80008 15.39421,31.12648 12.25988,34.34253c-13.03455,13.37443 -71.75489,-1.73784 -101.62979,5.71797c-18.75554,4.68077 -23.03542,29.95519 -32.78377,79.32739c-5.99307,30.3529 -8.43665,57.88299 -12.93443,53.12522c-0.05831,-0.06168 -16.26476,73.36478 -17.16572,75.00591c-7.44434,13.56018 -15.89531,57.69365 -17.83104,37.02037c-0.07514,-0.80253 12.69874,-5.41702 12.53126,-6.72634c-0.89594,-7.00384 -27.1473,25.84085 -23.18052,9.09433c2.82072,-11.90815 -15.94037,14.15194 -8.89518,-7.40271c2.83903,-8.686 16.84458,-56.35235 17.74225,-59.78951c1.89964,-7.27355 5.54768,-63.04668 5.68045,-70.67574c0.19089,-10.96898 -9.81756,-43.98113 -13.05665,-54.11238c-6.72854,-21.04555 -12.57499,-45.02596 -13.49214,-48.27176c-1.63096,-5.77189 14.12432,-7.11974 14.3578,-8.40011c5.3641,-29.41752 37.02541,-60.42138 74.08411,-69.67003z" data-paper-data="{&quot;index&quot;:null}" fill="#23173a" stroke="none" stroke-width="NaN"/><path d="M241.45355,380.48685c-17.58903,-13.87472 -83.66219,-13.69346 -83.66219,-13.69346c0,0 38.84183,-53.26631 61.19602,-70.86213c14.39786,-11.3331 24.27945,-43.8287 28.52209,-53.93088c10.77369,-25.65333 31.36341,-97.65591 31.36341,-97.65591l66.11817,33.3588c0,0 -5.68482,28.22265 -9.96593,49.45285c-3.87615,19.22199 -17.21695,81.68582 -26.9506,127.1001c-6.13239,28.61187 9.08507,57.17593 9.08507,57.17593c0,0 -54.66826,-14.35011 -75.70604,-30.9453z" data-paper-data="{&quot;index&quot;:null}" fill="#412a6a" stroke="none" stroke-width="0"/><path d="M234.67076,144.43501c-9.23724,-18.82715 -8.53945,-28.75301 1.80395,-55.44839c2.10724,-5.43858 18.95508,11.13624 22.30339,6.50158c7.5531,-10.45483 3.90999,-3.21028 9.30733,-11.33419c0.75361,-1.13431 0.1645,-12.28802 2.709,-15.40268c2.40537,-2.94436 9.10656,-6.96111 10.46823,-7.70947c0.76413,-0.41996 -4.38127,-11.73414 -1.98155,-14.39957c1.0523,-1.16881 2.0361,-5.76714 2.7296,-6.94428c1.20065,-2.03798 3.41514,-4.41637 6.66727,-7.16088c3.5387,-2.98634 13.97679,-7.46767 14.78141,-7.90493c10.07193,-5.47337 29.28103,-7.32496 34.37218,-6.23743c10.75419,2.2972 4.94158,0.11091 20.45561,6.86428c21.33891,9.28897 68.19877,32.84541 63.95787,49.93174c-1.17088,4.71739 -7.71869,13.41437 -7.24452,19.6986c1.84954,24.51247 19.64278,55.22485 17.45784,77.10218c-1.1259,11.27333 -1.78673,10.19857 1.58045,29.55963c0.42421,2.4392 5.02917,56.70545 5.61377,58.00847c2.5704,5.72913 -6.23721,-6.68902 -6.58763,-7.29088c-8.63136,8.08308 0.13403,8.3006 -5.12625,11.38018c-8.29154,4.85423 -22.44762,4.47756 -29.43289,5.55974c-8.74922,1.35543 -0.04789,2.38109 -16.01569,-9.72023c-2.04474,-1.54964 -46.84574,-59.01664 -49.17709,-60.58122c-3.59057,-2.40965 -13.30423,-9.7867 -22.3852,-15.09796c-7.53863,-4.40917 -14.80203,-7.14967 -16.29861,-6.67603c-15.16034,-3.60102 -14.37811,-3.43525 -26.77977,-6.2152c-8.15245,-1.82745 -21.2098,-5.61006 -27.3658,-18.15711z" data-paper-data="{&quot;index&quot;:null}" fill="#ffddd1" stroke="#003737" stroke-width="0.5"/><path d="M410.36331,65.87708c3.69862,6.00358 16.15397,9.38029 16.22895,14.97398c0.06185,4.61398 -11.5165,5.4496 -14.06203,7.74833c-5.63157,5.08558 -15.66835,0.32693 -22.41778,-10.62874c-3.64154,-5.91093 13.43409,3.99218 13.30349,-1.54594c-0.11145,-4.72657 -17.92075,-25.15754 -15.32759,-27.4993c0.36327,-0.32804 -4.09708,-3.1987 -3.48399,-2.93308c5.03488,2.18142 22.50333,25.11471 26.82103,27.93619c3.3072,2.16116 -9.98086,-18.96254 -7.24221,-14.51719z" data-paper-data="{&quot;index&quot;:null}" fill="#f7b8a2" stroke="none" stroke-width="0"/><path d="M309.82206,90.20124c1.61607,-7.54024 10.88217,-11.1368 27.10641,-13.34478c15.55403,-2.11678 50.45505,6.23356 63.0754,10.9531c4.39416,1.64325 1.9316,4.88 3.23206,7.25233c5.03546,9.1858 5.37256,14.89386 -14.59516,19.57538c-5.99928,1.40656 -24.99776,1.22813 -33.54395,0.64621c-19.89855,-1.35491 -36.90024,-2.47043 -44.12102,-8.60648c-1.97839,-1.68118 -1.61097,-14.34246 -1.15374,-16.47576z" data-paper-data="{&quot;index&quot;:null}" fill="#86746e" stroke="none" stroke-width="0"/><path d="M353.52439,89.91827c11.40147,-4.30793 9.70198,-3.04953 19.12404,-4.14678c10.78722,-1.25621 4.62812,-0.84798 12.65868,-0.34648c1.51702,0.09474 9.27485,4.02315 9.31525,5.02124c0.00495,0.12233 5.01543,4.57305 5.00769,4.69973c-0.2034,3.33445 -0.42083,5.5009 0.65653,7.64689c1.46426,2.91665 -67.71987,2.70111 -77.56497,2.05953c-3.74895,-0.24431 -0.94411,0.2109 1.4228,-0.94364c10.42368,-5.08453 21.7029,-11.08979 29.37997,-13.99047z" data-paper-data="{&quot;index&quot;:null}" fill="#ffffff" stroke="#200000" stroke-width="0.5"/><path d="M301.78351,7.53287z" data-paper-data="{&quot;index&quot;:null}" fill="url(#color-1)" stroke="none" stroke-width="0"/><path d="M390.16709,96.08314c-0.99706,3.16014 -4.15365,4.98104 -7.05046,4.06708c-2.89681,-0.91396 -4.43687,-4.21668 -3.43981,-7.37684c0.99706,-3.16014 4.15364,-4.98104 7.05046,-4.06708c2.8968,0.91396 4.43687,4.21668 3.43981,7.37684z" data-paper-data="{&quot;index&quot;:null}" fill="url(#color-2)" stroke="none" stroke-width="0"/><path d="M355.82368,62.02254c-0.56819,-2.70233 0.16434,-6.92214 3.54226,-7.63237c0.60329,-0.12684 8.17807,-1.1517 9.59522,-0.7654c6.51774,1.77669 14.64435,10.70276 15.11106,12.92246c0.56818,2.70232 -17.72557,-1.62789 -21.10348,-0.91766c-3.37792,0.71022 -6.57687,-0.90471 -7.14506,-3.60704z" data-paper-data="{&quot;index&quot;:null}" fill="#23173a" stroke="none" stroke-width="0"/><path d="M372.89117,249.29046c-1.99435,-2.41706 9.43398,4.50084 23.37165,6.65541c12.64855,1.95531 27.82999,7.01725 29.13375,1.74513c3.2841,-13.28026 8.03036,-25.90745 9.99492,-27.52845c2.5034,-2.06562 0.83267,-1.94287 8.51322,5.13628c3.37626,3.11188 -6.82322,-12.34471 -4.26945,-9.24967c8.36329,10.13588 16.61135,50.46233 13.00747,53.43595c-0.88567,0.73079 -8.52739,8.16308 -14.33835,9.19839c-17.83441,3.17745 -49.48596,-13.80056 -55.79395,-21.44551z" data-paper-data="{&quot;index&quot;:null}" fill="#23173a" stroke="none" stroke-width="0"/><path d="M391.49864,96.87667c0.0528,0.61907 -0.40625,1.16373 -1.02533,1.21652c-0.61907,0.0528 -1.16373,-0.40625 -1.21652,-1.02533c-0.0528,-0.61907 0.40625,-1.16373 1.02533,-1.21652c0.61907,-0.0528 1.16373,0.40625 1.21652,1.02533z" data-paper-data="{&quot;index&quot;:null}" fill="#ffffff" stroke="none" stroke-width="0"/><path d="M405.4567,198.99472c0.31584,1.02408 7.4646,20.75058 7.74533,21.55795c1.8219,5.23979 4.33556,10.31363 4.03944,8.51864c-0.22261,-1.3493 -2.86611,-9.28146 -3.95896,-8.9444c-2.7707,0.85455 -8.48296,-16.4769 -12.38948,-29.14298c-1.8201,-5.90128 -2.4788,-14.17498 -0.93304,-25.77544c1.77195,-13.29794 6.01438,-29.68563 7.49418,-30.14204c1.3296,-0.41009 2.77778,1.51324 0.99803,15.31342c-1.92899,14.95738 -5.02734,42.02697 -2.99547,48.61485z" data-paper-data="{&quot;index&quot;:null}" fill="#be8571" stroke="none" stroke-width="0"/><g data-paper-data="{&quot;index&quot;:null}"><g data-paper-data="{&quot;index&quot;:null}" stroke="#710000"><path d="M418.64703,87.10316c3.67827,-1.31798 29.17977,20.36419 34.66604,41.33625c1.7602,6.72859 3.14965,10.02979 6.2688,12.70061c1.48993,1.27578 -1.94539,15.21788 -1.88112,17.96881c0.08824,3.77772 -2.40901,14.07769 -3.80625,15.72512c-2.09433,2.46934 -13.71933,-5.97478 -14.87964,-5.55903c-1.06063,0.38005 -4.11136,-0.82839 -6.92319,-1.26863c-6.20571,-0.9716 -14.395,-3.58558 -19.71326,-15.19499c-0.62896,-1.37302 -0.28302,-3.45081 -0.69595,-5.02925c-0.38292,-1.4638 2.15069,0.56726 3.2366,-1.35043c0.61661,-1.0889 1.14171,-6.64046 0.77296,-7.78255c-4.5251,-14.01519 -5.50568,-33.57892 -5.65372,-45.31116c-0.12304,-9.75097 7.1219,-5.70206 8.60871,-6.23482z" fill="#ffcbb8" stroke-width="0.5"/><path d="M417.58342,149.7299c-3.57846,-1.44124 -5.2793,4.44758 -5.54835,3.41914c-0.14755,-0.56403 -0.19401,-4.45493 -0.29802,-4.98971c-0.24419,-1.25549 2.05819,-1.68951 1.96085,-7.91368c-0.13157,-8.41214 -5.21526,-27.48527 -4.77046,-27.64465c0.91411,-0.32755 9.66718,28.05696 10.6293,31.73477c0.41133,1.57241 3.91199,6.10264 8.63698,9.80175c1.70577,1.33539 3.84211,2.83783 5.69722,4.44755c5.0253,4.36062 11.44665,8.56032 11.06444,8.69727c-0.2557,0.09162 -1.37984,-0.53359 -5.24229,-3.31302c-6.08475,-4.37861 -16.49067,-11.96831 -22.12966,-14.23943z" fill="#e1a088" stroke-width="0"/></g><path d="M425.47189,158.91532c-7.37923,-4.6774 -10.24951,-14.28019 -13.40135,-22.51917c-7.4134,-19.37891 -7.06826,-40.89862 -3.32373,-42.84422c1.47965,-0.76881 0.77675,30.13009 5.6694,33.80925c1.10475,0.83075 8.33579,18.87427 12.94438,22.62854c6.52468,5.31517 12.63376,-5.11819 13.95576,-7.43576c4.07422,-7.14247 -3.64801,-24.52236 2.25181,-16.29682c8.95896,4.11159 0.87635,3.20621 7.61949,6.69967c0.93347,0.4836 6.32013,14.90042 6.20133,20.94267c-0.15457,7.86064 -7.09379,-0.56707 -4.74522,-0.16609c4.11873,0.70317 5.34336,3.76713 4.61975,4.14309c-0.9375,0.48711 -2.12767,11.58316 -4.74266,12.32974c-0.37865,0.1081 -5.20363,-0.53378 -6.23104,1.01255c-0.94205,1.41784 5.50638,5.03835 4.86082,5.19775c-1.78225,0.44011 -1.43562,-0.67226 -5.75027,-3.24592c-7.67401,-4.57751 -17.09548,-12.45958 -19.92845,-14.25529z" data-paper-data="{&quot;index&quot;:null}" fill="url(#color-3)" stroke="none" stroke-width="0"/></g><g data-paper-data="{&quot;index&quot;:null}" stroke="#000000"><path d="M251.33053,84.10366c0.83139,1.78466 13.1613,21.80091 13.24898,23.36931c0.70051,12.53137 -8.32207,18.43439 -15.71764,18.84781c-3.62641,0.20272 -9.48248,0.07389 -18.68042,-6.68365c-9.55998,-7.02354 -22.40815,-20.80657 -22.76517,-27.19318c-0.70052,-12.53138 -14.08407,-39.13766 -6.68851,-39.55108c6.46995,-0.36168 44.79144,18.7362 50.60276,31.21078z" fill="#ffddd1" stroke-width="0.5"/><path d="M211.18913,66.48703c4.10865,-0.22967 29.47806,20.03767 29.89148,27.43323c0.10932,1.95568 -4.4179,9.15769 -6.32331,6.19687c-2.44359,-3.79714 -2.65137,-18.41965 -5.3411,-19.56232c-3.14418,-1.33573 -6.5482,5.42841 -8.177,5.51946c-0.42243,0.02362 1.49509,1.62174 0.55082,-2.5143c-1.07888,-4.72566 -2.55856,-9.55772 -4.75474,-11.72285c-3.46706,-3.41804 -6.05989,0.08721 -5.61487,2.70163c0.59215,3.47875 1.81637,10.60662 5.68688,18.16281c2.38342,4.65305 10.0145,12.82228 12.57855,16.42257c3.29975,4.63333 1.27303,3.97674 1.19218,2.5305c-0.20456,-3.65948 -10.5756,-2.50618 -15.91488,-12.75527c-5.45108,-10.4637 -5.84965,-32.29628 -3.77405,-32.41231z" fill="#be8571" stroke-width="0"/></g><path d="M403.19089,197.7892c-0.23252,-1.91896 16.13661,-9.51018 24.909,-10.57316c8.77239,-1.06298 6.6261,4.80482 6.85863,6.72378c0.1345,1.11001 -3.26863,9.57654 -6.89559,10.66147c-2.64322,0.79067 -4.86916,-5.71031 -8.5672,-5.26221c-8.77239,1.06298 -16.07231,0.36907 -16.30484,-1.54989z" data-paper-data="{&quot;index&quot;:null}" fill="url(#color-4)" stroke="none" stroke-width="0"/><path d="M431.87985,189.29276c-7.84714,4.0629 -25.64843,7.01069 -26.53719,5.29413c-0.88876,-1.71656 4.75212,-6.40173 12.59926,-10.46464c3.30799,-1.71272 1.48544,-8.33812 4.11482,-9.17365c3.60797,-1.1465 11.18881,3.93229 11.70292,4.92523c0.88876,1.71656 5.96732,5.35603 -1.87982,9.41894z" data-paper-data="{&quot;index&quot;:null}" fill="url(#color-5)" stroke="none" stroke-width="0"/><path d="M367.58196,80.85787c-8.70427,-2.35488 -27.1328,-2.43277 -39.15306,0.33587c-13.01106,2.99686 -19.29753,8.93905 -19.1101,8.24628c0.06196,-0.22906 -3.40626,-6.34966 0.38594,-13.92621c3.04762,-6.08892 13.30334,-13.7614 14.7591,-15.19702c1.10136,-1.08613 -8.20872,11.25494 -10.32506,16.6125c-2.34832,5.94483 5.49111,1.35053 7.19691,0.96372c14.64798,-3.32163 33.26133,-6.16402 42.76729,-3.59224c0.86271,0.23341 6.2376,-0.14642 8.49541,0.25794c6.1817,1.10709 17.10444,4.98365 21.16599,4.77903c6.76687,-0.34089 2.99938,-3.73304 5.92196,-2.77358c8.14396,2.67361 1.58674,9.95342 1.36859,10.75974c-0.36058,1.33279 -15.34695,-1.56214 -33.47299,-6.46602z" data-paper-data="{&quot;index&quot;:null}" fill="#1f1b1a" stroke="none" stroke-width="0"/><path d="M276.43514,173.83113c-0.0131,-0.25555 -9.2456,6.52784 -19.43001,13.43878c-9.24055,6.27045 -17.20299,12.08734 -21.83546,13.40549c-0.77057,-0.66899 -0.04489,-7.88438 12.61837,-25.50605c1.88955,-2.62944 5.2822,-3.24278 7.5581,-6.49122c5.89907,-8.41986 -12.10119,7.28209 -27.10643,19.97533c-2.36692,2.00222 -8.46267,11.95127 -10.58712,12.47713c-2.08847,0.51701 -0.25659,-10.19055 1.71201,-18.59591c1.11065,-4.74208 2.95934,-8.61283 2.46307,-9.66274c-0.63525,-1.34395 -21.30585,18.18887 -21.66524,17.93489c-4.02025,-2.84081 4.13786,-18.772 12.33654,-27.97218c1.84187,-2.06685 7.0665,-2.11996 9.0595,-4.49308c3.49069,-4.15649 -38.59026,9.90808 -32.39347,3.75015c1.32993,-1.32159 22.33421,-13.23543 32.31095,-17.3985c4.36972,-1.8234 10.6627,-5.66954 14.33631,-6.5306c2.03454,-0.47687 1.81232,1.95001 3.46656,1.42162c2.12183,-0.67771 -2.25214,0.22659 -3.60369,3.24684c5.85914,-6.09694 -12.57025,-0.30073 -23.82699,3.04374c-4.52826,1.34541 -7.77958,3.16473 -8.00138,2.31139c-1.90703,-7.33758 10.08613,-13.73064 27.96127,-20.18288c4.80788,-1.73548 13.87603,-2.31398 18.5925,-4.51301c4.02756,-1.8778 -1.38257,0.75324 2.14206,-1.61376c0.3957,-0.26575 -7.72679,2.16238 -15.67991,2.19106c-8.99125,0.03242 -23.23367,2.6764 -22.89916,2.25161c0.70112,-0.89034 18.64635,-11.79148 31.85774,-15.41646c10.54703,-2.89393 20.70484,-0.40356 20.99262,-1.22152c0.90628,-2.57597 -22.90562,-1.06167 -22.67468,-3.6002c0.22014,-2.41985 8.13665,-4.80911 13.41862,-10.16526c5.68879,-5.76873 7.6575,-26.46128 8.43861,-26.64324c1.80395,-0.42021 2.14737,22.74557 4.81242,31.11935c2.3481,7.37785 1.82691,7.64635 3.19319,11.40668c0.52371,1.44138 1.32474,3.39581 2.671,6.46036c2.19238,8.35835 -0.49638,0.90714 4.37853,10.62312c1.07782,0.48265 5.31033,7.08458 6.20427,7.71763c1.38036,0.9775 7.61946,4.70173 9.36406,6.97429c7.36881,6.11548 15.4261,6.36433 19.5563,8.0488c9.47914,3.86598 11.13774,1.83347 25.04695,2.40377c1.54341,0.06327 21.56887,-2.71073 23.42985,-3.55574c12.63815,-5.73859 25.99214,-17.24624 26.08424,-15.44641c0.0778,1.52016 -13.83284,31.52309 -26.08445,46.36142c-2.54089,3.07737 -11.491,6.16635 -13.30891,7.4584c-1.92483,1.36804 -1.36776,-3.49026 -0.64565,-8.29647c0.68919,-4.58708 1.5287,-9.1267 0.50433,-8.16062c-1.12501,1.06099 -5.14555,21.71029 -7.75831,21.94701c-3.27891,0.29709 -5.23335,-19.82112 -6.60111,-17.92876c-1.51726,2.09921 0.42561,5.14028 -0.15661,7.79528c-1.35338,6.17154 -3.95876,12.18282 -6.66888,13.21599c-2.10742,0.80341 -2.21603,-3.07863 -2.3398,-5.76004c-0.23347,-5.05822 -1.40777,-11.2264 -3.50173,-12.62975c-0.3221,-0.21586 1.13241,5.25647 -1.39675,9.27872c-1.12854,1.79476 -1.45869,5.041 -2.79154,6.65621c-3.14075,3.8061 -3.73334,6.32312 -4.62289,7.46222c-1.35894,1.74019 -3.99162,-6.21567 -4.03242,-12.08181c-0.03649,-5.24626 2.55233,-8.45868 1.06736,-7.41826c-1.96242,1.37495 -2.40521,5.51537 -3.61911,7.25634c-4.16956,5.97991 -10.08927,11.95812 -12.67248,12.55988c-1.38785,0.32331 0.43283,-6.88182 1.93505,-12.86897c0.75016,-2.98974 2.01256,-5.28744 1.57533,-6.96747c-0.15501,-0.59559 -4.89058,9.48917 -9.25362,13.86545c-5.16739,5.18311 -8.33428,6.88179 -8.81825,7.00569c-0.65209,0.16694 -0.52104,-6.72181 0.24832,-11.98597c0.3952,-2.70408 2.64066,-5.32846 1.52808,-5.61999c-1.00606,-0.26361 -3.3491,7.24484 -5.6278,8.12412c-4.71609,1.81978 -12.46953,9.18106 -11.50642,7.10291c0.72609,-1.56671 4.00583,-10.47978 7.89029,-14.4938c3.39685,-3.51016 7.58332,-5.36447 7.14204,-5.16303c-9.88403,4.51192 -17.06388,14.09177 -24.80965,15.51598c-1.06767,-0.60265 -5.29462,4.85234 -4.43936,3.25048c1.45974,-2.73402 9.24523,-14.88086 14.97014,-19.18797c4.42215,-3.32699 9.57041,-5.96685 9.49264,-7.48664z" data-paper-data="{&quot;index&quot;:null}" fill="#23173a" stroke="none" stroke-width="0"/></g></g></svg>