<svg version="1.1" xmlns="http://www.w3.org/2000/svg" xmlns:xlink="http://www.w3.org/1999/xlink" width="145.54742" height="270.90808" viewBox="0,0,145.54742,270.90808"><defs><radialGradient cx="297.40505" cy="198.89927" r="37" gradientUnits="userSpaceOnUse" id="color-1"><stop offset="0" stop-color="#ffffff"/><stop offset="1" stop-color="#594384"/></radialGradient><radialGradient cx="335.77792" cy="302.0855" r="47.95574" gradientUnits="userSpaceOnUse" id="color-2"><stop offset="0" stop-color="#ffffff"/><stop offset="1" stop-color="#594384"/></radialGradient><radialGradient cx="259.38331" cy="361.75137" r="29.55412" gradientUnits="userSpaceOnUse" id="color-3"><stop offset="0" stop-color="#ffffff"/><stop offset="1" stop-color="#594384"/></radialGradient></defs><g transform="translate(-225.32953,-153.41101)"><g data-paper-data="{&quot;isPaintingLayer&quot;:true}" fill-rule="nonzero" stroke-linecap="butt" stroke-linejoin="miter" stroke-miterlimit="10" stroke-dasharray="" stroke-dashoffset="0" style="mix-blend-mode: normal"><path d="M333.19884,306.29976c0,0 1.41734,-6.23512 -4.63898,-16.12545c-6.76282,-11.04409 -21.6101,-26.64595 -32.99769,-43.21335c-2.89021,-4.20487 -1.82586,-6.32851 -4.7673,-10.27379c-2.76369,-3.70687 -13.13522,-11.25627 -16.67358,-14.56765c-2.63815,-2.46891 -27.38406,-31.19141 -30.02493,-33.91964c-7.98097,-8.245 -7.63815,-7.6675 -8.92965,-10.27945c-2.62321,-5.30525 1.9355,-15.2374 1.9355,-15.2374c0,0 15.78131,-6.26711 20.70205,-8.70021c4.62223,-2.28549 27.00097,3.01826 27.00097,3.01826c0,0 17.17186,11.67962 22.24117,21.93195c2.41686,4.88792 3.1347,8.25759 4.99718,18.39209c1.75159,9.53104 4.6311,8.73854 7.34031,16.53076c0.99376,2.85825 9.9501,13.20832 10.82954,15.78516c8.49227,10.2328 12.16815,24.03336 12.16815,24.03336c0,0 5.19999,16.3008 12.17198,27.73606c6.52699,10.70537 14.85415,14.52859 14.88699,16.30791c0.17509,9.48836 -36.24171,8.58137 -36.24171,8.58137z" fill="#412a6a" stroke="none" stroke-width="0"/><path d="M336.40505,241.39927c0,4.49999 -19.22118,-24.70352 -34.36147,-37.44677c-6.2287,-5.24256 -12.93595,-5.05323 -16.63853,-5.05323c-12.70255,0 -23,5.85127 -23,-0.5c0,-6.35127 22.29745,-6.5 35,-6.5c4.95988,0 11.68754,13.96868 18.04627,21.62303c9.92637,11.9489 20.95373,24.00564 20.95373,27.87697z" fill="url(#color-1)" stroke="none" stroke-width="0"/><path d="M246.61446,389.17823c0,2.26881 0.78917,7.72258 2.5746,11.99696c2.775,6.6435 5.78128,13.05298 5.06387,13.57882c-0.19996,0.14657 -0.42751,3.51954 -1.21968,3.07188c-0.85666,-0.48411 -4.96915,-7.62245 -5.20982,-7.62245c-2.29982,0 -9.53736,-15.99916 -9.53736,-21.02521c0,-5.02605 -1.35952,-13.17999 0.9403,-13.17999c2.29982,0 7.38809,8.15394 7.38809,13.17999z" fill="#e6a892" stroke="#003737" stroke-width="0.5"/><path d="M264.55393,407.30833c0.02924,0.50078 0.31351,-1.78026 3.12651,-1.01871c1.2816,0.34697 2.38541,0.78172 3.59425,1.22389c2.94948,1.07883 5.71435,1.95164 3.04434,2.82501c-2.95635,0.96703 -25.3187,2.29783 -26.94978,2.42775c-5.03309,0.40094 -9.20323,-0.81593 -9.31428,-2.71794c-0.11106,-1.90201 -3.42929,-19.17691 0.69422,-15.7822c0.89707,0.73852 2.03054,9.26296 5.36704,12.01638c3.1592,2.60711 8.00197,0.45387 10.38027,0.38071c19.18019,-0.59005 9.99277,-0.46226 10.05742,0.64512z" fill="#f1c1b0" stroke="#003737" stroke-width="0.5"/><path d="M264.26128,412.31811c0,0.50195 0.41649,-1.75122 3.17861,-0.76787c1.25841,0.44802 2.33435,0.9695 3.51463,1.5067c2.8798,1.31074 5.58742,2.40128 2.87273,3.06041c-3.00583,0.72983 -25.39388,0.28027 -27.02874,0.28027c-5.04478,0 -9.13438,-1.54547 -9.13438,-3.4519c0,-1.90643 -2.30426,-19.40501 1.61195,-15.69046c0.85197,0.80811 1.48625,9.40287 4.65463,12.41508c3.00001,2.85214 7.95699,1.08878 10.33403,1.20482c19.17011,0.93568 9.99654,0.33299 9.99654,1.44294z" fill="#d59d89" stroke="#003737" stroke-width="0.5"/><path d="M264.52994,416.39762c0,0.50195 0.41649,-1.75122 3.17861,-0.76787c1.25841,0.44802 2.33435,0.9695 3.51463,1.5067c2.8798,1.31074 5.58742,2.40128 2.87273,3.06041c-3.00583,0.72983 -25.39388,0.28027 -27.02874,0.28027c-5.04478,0 -9.13438,-1.54547 -9.13438,-3.4519c0,-1.90643 -2.30426,-19.40501 1.61195,-15.69046c0.85197,0.80811 1.48625,9.40287 4.65463,12.41508c3.00001,2.85214 7.95699,1.08878 10.33403,1.20482c19.17011,0.93568 9.99654,0.33299 9.99654,1.44294z" fill="#f1c1b0" stroke="#003737" stroke-width="0.5"/><path d="M242.51059,381.89565c2.08778,6.67422 0.60178,23.76683 -2.32487,25.0159c-2.92665,1.24907 -6.18567,-13.8184 -8.27346,-20.49261c-2.08778,-6.67422 -1.40775,-13.09731 1.5189,-14.34638c2.92665,-1.24907 6.99165,3.14889 9.07943,9.82311z" fill="#f1c1b0" stroke="#003737" stroke-width="0.5"/><path d="M239.00742,394.74479c0,1.96395 -0.32338,6.773 0.85901,9.20049c0.93576,1.92115 0.03199,8.22366 1.41327,10.05451c1.25996,1.67005 3.59538,1.0064 6.54429,2.05186c0.75633,0.26814 4.77505,1.40966 6.37975,1.09877c5.00071,-0.96885 10.49901,-8.24601 11.61564,-7.45682c2.00127,1.41442 0.40538,7.34507 -3.02217,10.0746c-2.68064,2.13473 -7.10762,3.84702 -7.6703,3.84702c-2.46069,0 -16.41088,2.9674 -21.14437,-6.27264c-2.11663,-4.13181 -7.87071,-19.49177 -7.87071,-22.59779c0,-10.0521 -1.94907,-23.84949 1.61195,-23.84949c2.42053,0 6.76386,0.09867 9.29765,7.33895c1.19385,3.41143 1.98599,13.29116 1.98599,16.51055z" fill="#ffddd1" stroke="#003737" stroke-width="0.5"/><path d="M232.46673,367.17837c0,0 84.39286,-64.53626 98.89873,-72.0471c5.1021,-2.64176 25.98836,-4.27823 25.98836,-4.27823c0,0 11.01086,4.86324 12.97295,8.8855c1.84305,3.77825 -1.53519,14.56192 -1.53519,14.56192c0,0 -16.59153,15.93317 -26.45125,21.03833c-9.12158,4.72296 -27.58527,12.2139 -42.90178,18.20301c-2.7229,1.06472 -8.94189,5.77927 -11.3957,6.72507c-2.6964,1.0393 -5.31516,2.40959 -7.69278,3.84808c-6.21463,3.75993 -10.78182,7.98594 -10.78182,7.98594c0,0 -16.20581,18.79092 -19.63676,19.12628c-8.84635,0.86464 -8.54276,-6.20479 -8.54276,-6.20479z" fill="#412a6a" stroke="none" stroke-width="0"/><path d="M343.58467,301.52788c0,20.0179 -29.52863,46.28286 -35.68799,46.28286c-4.11397,0 13.41233,-12.23165 21.062,-29.28297c3.80328,-8.4776 9.76478,-17.30082 7.93449,-23.6914c-6.6915,-23.36365 -45.1931,-42.93712 -39.03374,-42.93712c6.15936,0 45.72524,29.61072 45.72524,49.62861z" fill="url(#color-2)" stroke="none" stroke-width="0"/><path d="M288.49047,350.87444c-2.98349,8.09805 -18.33152,6.54533 -27.43441,14.64149c-8.11349,7.21619 -16.81085,27.96536 -18.58127,27.31309c-3.75673,-1.38406 4.46365,-18.2678 10.10635,-33.58372c5.64271,-15.3159 31.10645,-32.18615 34.86318,-30.80209c2.11393,0.77882 -24.28559,22.78519 -30.25163,30.95629c-4.63636,6.34998 33.76529,-15.22262 31.29778,-8.52508z" fill="url(#color-3)" stroke="none" stroke-width="0"/></g></g></svg>