<svg version="1.1" xmlns="http://www.w3.org/2000/svg" xmlns:xlink="http://www.w3.org/1999/xlink" width="164.20278" height="247.35619" viewBox="0,0,164.20278,247.35619"><defs><radialGradient cx="297.40505" cy="198.89927" r="37" gradientUnits="userSpaceOnUse" id="color-1"><stop offset="0" stop-color="#ffffff"/><stop offset="1" stop-color="#594384"/></radialGradient><radialGradient cx="330.76462" cy="296.18423" r="47.95574" gradientUnits="userSpaceOnUse" id="color-2"><stop offset="0" stop-color="#ffffff"/><stop offset="1" stop-color="#594384"/></radialGradient><radialGradient cx="244.4744" cy="340.34474" r="29.55412" gradientUnits="userSpaceOnUse" id="color-3"><stop offset="0" stop-color="#ffffff"/><stop offset="1" stop-color="#594384"/></radialGradient></defs><g transform="translate(-205.2384,-153.41102)"><g data-paper-data="{&quot;isPaintingLayer&quot;:true}" fill-rule="nonzero" stroke-linecap="butt" stroke-linejoin="miter" stroke-miterlimit="10" stroke-dasharray="" stroke-dashoffset="0" style="mix-blend-mode: normal"><path d="M333.19884,306.29976c0,0 1.41734,-6.23512 -4.63898,-16.12545c-6.76282,-11.04409 -21.6101,-26.64595 -32.99769,-43.21335c-2.89021,-4.20487 -1.82586,-6.32851 -4.7673,-10.27379c-2.76369,-3.70687 -13.13522,-11.25627 -16.67358,-14.56765c-2.63815,-2.46891 -27.38406,-31.19141 -30.02493,-33.91964c-7.98097,-8.245 -7.63815,-7.6675 -8.92965,-10.27945c-2.62321,-5.30525 1.9355,-15.2374 1.9355,-15.2374c0,0 15.78131,-6.26711 20.70205,-8.70021c4.62223,-2.28549 27.00097,3.01826 27.00097,3.01826c0,0 17.17186,11.67962 22.24117,21.93195c2.41686,4.88792 3.1347,8.25759 4.99718,18.39209c1.75159,9.53104 4.6311,8.73854 7.34031,16.53076c0.99376,2.85825 9.9501,13.20832 10.82954,15.78516c8.49227,10.2328 12.16815,24.03336 12.16815,24.03336c0,0 5.19999,16.3008 12.17198,27.73606c6.52699,10.70537 14.85415,14.52859 14.88699,16.30791c0.17509,9.48836 -36.24171,8.58137 -36.24171,8.58137z" fill="#412a6a" stroke="none" stroke-width="0"/><path d="M336.40505,241.39927c0,4.49999 -19.22118,-24.70352 -34.36147,-37.44677c-6.2287,-5.24256 -12.93595,-5.05323 -16.63853,-5.05323c-12.70255,0 -23,5.85127 -23,-0.5c0,-6.35127 22.29745,-6.5 35,-6.5c4.95988,0 11.68754,13.96868 18.04627,21.62303c9.92637,11.9489 20.95373,24.00564 20.95373,27.87697z" fill="url(#color-1)" stroke="none" stroke-width="0"/><path d="M226.75444,364.86573c-0.42858,2.22796 -0.68385,7.73262 0.26199,12.26731c1.47006,7.04809 3.21145,13.91007 2.40763,14.29092c-0.22405,0.10616 -1.08466,3.37542 -1.77801,2.78617c-0.74979,-0.63722 -3.43979,-8.4239 -3.67612,-8.46936c-2.25841,-0.43444 -6.34337,-17.51274 -5.39393,-22.4483c0.94943,-4.93556 1.15469,-13.19951 3.4131,-12.76507c2.25841,0.43444 5.71477,9.40276 4.76534,14.33832z" fill="#e6a892" stroke="#003737" stroke-width="0.5"/><path d="M240.94611,386.05823c-0.06589,0.49729 0.64416,-1.68899 3.26266,-0.40976c1.19298,0.58282 2.19479,1.21826 3.29834,1.88082c2.69258,1.61657 5.2428,2.99596 2.45588,3.34923c-3.0858,0.39116 -25.29692,-2.52631 -26.92318,-2.70684c-5.01821,-0.55704 -8.8834,-2.53975 -8.63316,-4.4285c0.25023,-1.88875 0.25502,-19.47945 3.66302,-15.36692c0.74141,0.89468 0.24419,9.47976 3.00049,12.81388c2.60983,3.15695 7.77216,1.95729 10.12147,2.33471c18.94633,3.04376 9.90018,1.43372 9.75448,2.53338z" fill="#f1c1b0" stroke="#003737" stroke-width="0.5"/><path d="M239.71237,390.92253c-0.09482,0.49291 0.7398,-1.64101 3.26643,-0.1536c1.15112,0.67767 2.10918,1.39301 3.16673,2.1435c2.58035,1.83114 5.03322,3.41352 2.24289,3.54798c-3.08958,0.14888 -24.98963,-4.52174 -26.59505,-4.83057c-4.95395,-0.95297 -8.67798,-3.24315 -8.31785,-5.11526c0.36013,-1.87211 1.40288,-19.49092 4.54689,-15.10347c0.68398,0.9545 -0.31673,9.51434 2.22559,13.07083c2.40722,3.3675 7.60806,2.57227 9.92038,3.13525c18.64822,4.54011 9.75366,2.21537 9.54399,3.30533z" fill="#d59d89" stroke="#003737" stroke-width="0.5"/><path d="M239.20556,394.97934c-0.09482,0.49291 0.7398,-1.64101 3.26643,-0.1536c1.15112,0.67767 2.10918,1.39301 3.16673,2.1435c2.58035,1.83114 5.03322,3.41352 2.24289,3.54798c-3.08958,0.14888 -24.98963,-4.52174 -26.59505,-4.83057c-4.95395,-0.95297 -8.67798,-3.24315 -8.31785,-5.11526c0.36013,-1.87211 1.40288,-19.49092 4.54689,-15.10347c0.68398,0.9545 -0.31673,9.51434 2.22559,13.07083c2.40722,3.3675 7.60806,2.57227 9.92038,3.13525c18.64822,4.54011 9.75366,2.21537 9.54399,3.30533z" fill="#f1c1b0" stroke="#003737" stroke-width="0.5"/><path d="M224.10016,356.93904c0.78941,6.94844 -3.89867,23.45261 -7.00858,24.12634c-3.10991,0.67373 -3.46397,-14.7381 -4.2534,-21.68654c-0.78941,-6.94844 1.09171,-13.12743 4.20162,-13.80116c3.10991,-0.67373 6.27094,4.41294 7.06035,11.36138z" fill="#f1c1b0" stroke="#003737" stroke-width="0.5"/><path d="M218.23283,368.89508c-0.37099,1.92859 -1.59699,6.58997 -0.89445,9.19711c0.556,2.06333 -1.52206,8.08164 -0.5115,10.14046c0.9218,1.87799 3.34054,1.66746 6.03886,3.25115c0.69206,0.40618 4.42279,2.2863 6.05733,2.28414c5.09369,-0.00676 11.86768,-6.11426 12.81512,-5.12834c1.69805,1.767 -0.98942,7.28941 -4.87088,9.32232c-3.03563,1.58992 -7.70636,2.43511 -8.25891,2.32882c-2.41639,-0.46483 -16.67597,-0.18608 -19.57877,-10.15393c-1.29801,-4.45726 -4.04696,-20.62763 -3.46023,-23.67773c1.89887,-9.87112 2.59125,-23.78828 6.08816,-23.1156c2.37695,0.45724 6.62344,1.3746 7.74391,8.96317c0.52793,3.57553 -0.5605,13.42702 -1.16865,16.58845z" fill="#ffddd1" stroke="#003737" stroke-width="0.5"/><path d="M217.01726,340.58942c0,0 95.0645,-47.43232 110.72802,-52.06774c5.50928,-1.6304 26.32863,0.70806 26.32863,0.70806c0,0 9.89394,6.85566 11.06089,11.17615c1.09615,4.05838 -4.25833,14.00974 -4.25833,14.00974c0,0 -19.30263,12.51213 -29.94921,15.66285c-9.84953,2.91484 -29.39586,6.78307 -45.56796,9.77103c-2.875,0.53119 -9.87262,3.98607 -12.46091,4.45132c-2.84418,0.51123 -5.67464,1.36216 -8.28119,2.32561c-6.813,2.51828 -12.09627,5.80545 -12.09627,5.80545c0,0 -19.46369,15.39129 -22.89622,15.0725c-8.85041,-0.82202 -7.21685,-7.70683 -7.21685,-7.70683z" fill="#412a6a" stroke="none" stroke-width="0"/><path d="M338.53616,297.11136c-3.78143,19.65749 -37.73994,39.87155 -43.7884,38.70803c-4.0399,-0.77714 15.48144,-9.47781 26.21442,-24.77709c5.33624,-7.60652 12.85714,-15.14474 12.267,-21.76601c-2.15757,-24.20705 -36.26851,-50.70116 -30.22004,-49.53764c6.04847,1.16352 39.30846,37.71521 35.52703,57.3727z" fill="url(#color-2)" stroke="none" stroke-width="0"/><path d="M275.11219,335.16205c-4.45952,7.38866 -19.23791,2.96462 -29.70629,9.19545c-9.33057,5.55361 -21.79091,24.28626 -23.40624,23.31129c-3.42764,-2.0688 7.83412,-17.09571 16.26844,-31.06996c8.43433,-13.97423 36.62645,-25.73058 40.05409,-23.66178c1.92875,1.16412 -28.15253,17.78735 -35.55469,24.68434c-5.75241,5.35983 36.03297,-8.5702 32.3447,-2.45937z" fill="url(#color-3)" stroke="none" stroke-width="0"/></g></g></svg>