<svg version="1.1" xmlns="http://www.w3.org/2000/svg" xmlns:xlink="http://www.w3.org/1999/xlink" width="186.33421" height="177.54201" viewBox="0,0,186.33421,177.54201"><defs><radialGradient cx="304.39305" cy="202.75098" r="37" gradientUnits="userSpaceOnUse" id="color-1"><stop offset="0" stop-color="#ffffff"/><stop offset="1" stop-color="#594384"/></radialGradient><radialGradient cx="406.36303" cy="266.85848" r="43" gradientUnits="userSpaceOnUse" id="color-2"><stop offset="0" stop-color="#ffffff"/><stop offset="1" stop-color="#594384"/></radialGradient><radialGradient cx="365.98046" cy="189.89259" r="26.5" gradientUnits="userSpaceOnUse" id="color-3"><stop offset="0" stop-color="#ffffff"/><stop offset="1" stop-color="#594384"/></radialGradient></defs><g transform="translate(-234.69705,-120.31636)"><g data-paper-data="{&quot;isPaintingLayer&quot;:true}" fill-rule="nonzero" stroke-linecap="butt" stroke-linejoin="miter" stroke-miterlimit="10" stroke-dasharray="" stroke-dashoffset="0" style="mix-blend-mode: normal"><path d="M378.89044,288.30096c0,0 -5.6873,-5.91748 -14.73928,-13.16725c-10.10795,-8.0955 -29.36703,-17.73641 -45.69903,-29.45912c-4.14512,-2.97527 -3.86419,-5.33403 -7.96945,-8.04773c-3.85718,-2.5497 -16.17455,-6.13366 -20.62633,-8.04856c-3.31919,-1.42772 -42.64817,-14.02498 -46.05787,-15.69572c-10.30445,-5.04916 -4.7624,-7.90529 -6.86328,-9.92434c-4.26719,-4.10098 -1.12093,-25.43848 -1.12093,-25.43848c0,0 2.20791,-10.83964 6.01166,-14.79756c3.573,-3.71781 32.99051,-3.53038 32.99051,-3.53038c0,0 23.11848,9.66722 31.36475,17.59232c3.93151,3.77839 5.74975,6.70481 10.93933,15.60679c4.88058,8.3719 7.32058,6.64969 12.51222,13.06104c1.90434,2.35173 13.84036,9.05033 15.5417,11.17612c11.45969,6.7457 19.59866,18.48131 19.59866,18.48131c0,0 10.42078,13.57068 20.85817,21.96321c9.77121,7.85685 18.90151,8.62894 19.53593,10.29164c2.27934,5.97381 4.64961,21.91071 -1.75261,27.34409c-3.10013,2.63099 -17.29829,-2.28037 -17.29829,-2.28037z" fill="#412a6a" stroke="none" stroke-width="0"/><path d="M355.4966,229.50313c1.52634,4.23323 -26.46088,-16.71943 -45.026,-23.57181c-7.63767,-2.81906 -13.88308,-0.36594 -17.36617,0.88994c-11.94952,4.30857 -19.65183,13.30575 -21.80611,7.331c-2.15428,-5.97475 18.77089,-13.67772 30.72041,-17.98629c4.66585,-1.68234 15.73271,9.17631 24.31075,14.22008c13.39085,7.87363 27.85402,15.47526 29.16713,19.11709z" fill="url(#color-1)" stroke="none" stroke-width="0"/><path d="M305.91828,146.00298c-0.93475,1.53232 3.19181,3.99698 -0.69792,1.62416c-1.91867,-1.17044 -7.77672,-2.43691 -11.33504,-8.45754c-3.65547,-6.185 -7.66504,-11.56386 -7.19137,-12.34034c0.61956,-1.01563 2.8186,0.85585 7.03675,4.84783c2.14595,2.03089 6.7549,2.51934 8.06651,3.31945c1.73268,1.05698 0.72143,3.58591 2.03325,5.46265c1.63312,2.33643 2.6062,4.69405 2.08783,5.54379z" fill="#463d3a" stroke="#003737" stroke-width="0.5"/><path d="M346.29525,171.87881c-2.24547,2.97578 -18.29858,-8.09228 -26.234,-14.08019c-7.93541,-5.98791 -25.51904,-15.90074 -23.27357,-18.87653c1.06206,-1.40749 5.20708,-5.59451 10.11729,-1.63699c1.84246,1.48498 7.76567,5.80375 11.27096,7.26435c5.44964,2.27077 8.82939,1.48943 11.06353,2.16181c3.57047,1.07455 4.1251,-0.42434 6.18707,1.1316c7.93541,5.98791 13.11418,21.06016 10.86871,24.03594z" fill="#ffddd1" stroke="#003737" stroke-width="0.5"/><path d="M361.56756,154.54013c-0.27386,0.52489 1.93782,9.26713 2.53154,14.24262c0.56953,4.77278 -0.46974,5.79178 -1.07934,6.04984c-2.97342,1.25871 -10.40873,5.37044 -16.50136,-0.91401c-1.94389,-2.00508 -13.08506,-11.87635 -15.15407,-16.36453c-2.30641,-5.00316 -3.88637,-9.16219 -6.12743,-10.12606c-12.30678,-5.2931 -12.45405,-11.80026 -9.7716,-16.94154c2.68245,-5.14128 15.17734,-3.92451 27.90813,2.71775c6.83691,3.56714 11.36856,0.12923 14.59377,4.24104c2.78035,3.54466 4.84224,14.71471 3.60037,17.09493z" fill="#ffddd1" stroke="#003737" stroke-width="0.5"/><path d="M345.72464,158.96333c-1.37311,2.63175 2.86606,10.8235 0.16412,9.41349c-0.69132,-0.36077 -0.30031,-8.6386 -1.39763,-9.21112c-1.29379,-0.67504 -2.69864,0.0872 -3.68189,-0.78297c-3.11005,-2.75236 -4.25836,-7.77855 -2.94815,-10.28974c1.72443,-3.30511 7.79707,-8.62108 13.18317,-5.8109c2.73322,1.42605 1.68338,2.38784 1.26066,5.87046c-0.4103,3.38024 -5.73092,9.1829 -6.58028,10.8108z" fill="#c9927d" stroke="#003737" stroke-width="0"/><path d="M365.51044,165.27637c0,0 43.39622,84.80316 47.69537,98.80498c1.51213,4.92481 -0.39452,23.61308 -0.39452,23.61308c0,0 -6.05656,8.93363 -9.91972,10.01936c-3.6288,1.01986 -12.6002,-3.69019 -12.6002,-3.69019c0,0 -11.39474,-17.19278 -14.31689,-26.7099c-2.70339,-8.80462 -6.35012,-26.29481 -9.17678,-40.76767c-0.50251,-2.57292 -3.66409,-8.81554 -4.10485,-11.13199c-0.48435,-2.54546 -1.27313,-5.07552 -2.16077,-7.40381c-2.32011,-6.08564 -5.31565,-10.79269 -5.31565,-10.79269c0,0 -13.9777,-17.31091 -13.7232,-20.39147c0.65625,-7.9429 6.84418,-6.54108 6.84418,-6.54108z" fill="#412a6a" stroke="none" stroke-width="0"/><path d="M405.60269,273.83501c-17.65969,-3.21105 -36.09387,-33.47421 -35.10585,-38.90796c0.65992,-3.62932 8.63925,13.79436 22.45477,23.27805c6.86883,4.71512 13.69634,11.38965 19.62767,10.80008c21.68467,-2.15548 -5.08526,16.09583 -6.07328,21.52959c-0.98802,5.43376 16.75639,-13.48871 -0.9033,-16.69975z" fill="url(#color-2)" stroke="none" stroke-width="0"/><path d="M370.90699,217.31554c-6.66548,-3.93103 -2.83373,-17.2219 -8.51593,-26.55113c-5.06461,-8.31521 -21.97429,-19.31634 -21.11488,-20.77356c1.82362,-3.09215 15.39976,6.86813 28.00625,14.3029c12.60648,7.43478 23.40472,32.6049 21.5811,35.69706c-1.02616,1.73997 -16.20535,-25.07958 -22.45686,-31.65351c-4.8582,-5.10877 8.01307,32.22942 2.50034,28.97825z" fill="url(#color-3)" stroke="none" stroke-width="0"/><g stroke="#003737" stroke-width="0.5"><path d="M326.59814,130.94943c-4.80666,2.71991 -10.62274,6.6624 -12.18668,3.89857c-0.19389,-0.34264 5.59732,10.91472 7.43258,17.16998c1.35599,4.62173 -0.92481,4.72979 -1.72165,4.64821c-2.17807,-0.223 -14.14017,-23.24662 -13.66301,-24.14577c1.01779,-1.91789 11.25654,-6.14902 13.82354,-7.60159c4.80666,-2.71991 15.30414,-6.08403 16.86809,-3.32019c1.56395,2.76383 -5.7462,6.63091 -10.55286,9.3508z" fill="#e6a892"/><path d="M322.26347,157.56079c-1.04378,1.28673 3.48052,9.26154 1.12149,7.34794c-2.35902,-1.91359 -9.66803,-16.65407 -8.62424,-17.94081c1.04378,-1.28673 2.7623,2.88455 5.12131,4.79814c2.35902,1.91359 3.42522,4.50798 2.38144,5.79472z" fill="#463d3a"/></g><g stroke="#003737" stroke-width="0.5"><path d="M336.11057,134.7746c-5.07326,2.93847 -11.24306,7.17288 -12.71943,4.32638c-0.18303,-0.35288 5.23498,11.25372 6.82355,17.73294c1.17373,4.78721 -1.17707,4.94913 -1.99267,4.88133c-2.22935,-0.1853 -13.43154,-23.92063 -12.89785,-24.868c1.13834,-2.02073 11.87036,-6.65159 14.57974,-8.22089c2.04111,-1.18222 4.62982,-4.96006 7.57505,-5.91926c4.37526,-1.42493 9.04884,0.39313 9.93123,2.0944c1.47637,2.84649 -6.22637,7.03462 -11.29963,9.97309z" fill="#f4b7a2"/><path d="M330.38125,162.60126c-1.13493,1.36355 3.13697,9.57662 0.80231,7.63338c-2.33466,-1.94324 -9.14721,-17.14692 -8.01228,-18.51045c1.13493,-1.36355 2.70301,2.94639 5.03766,4.88963c2.33466,1.94324 3.30723,4.62391 2.1723,5.98744z" fill="#463d3a"/></g><g stroke="#003737" stroke-width="0.5"><path d="M343.22869,140.58818c-4.81134,2.43647 -10.63161,6.00096 -12.20533,3.34107c-0.19509,-0.32975 5.63463,10.48773 7.48818,16.45909c1.3695,4.41198 -0.91618,4.44911 -1.71501,4.34916c-2.1835,-0.27319 -14.22464,-22.40052 -13.74845,-23.23771c1.01574,-1.78573 11.268,-5.49709 13.83751,-6.79829c1.37924,-0.69844 7.37092,-8.295 9.34241,-8.92581c4.90585,-1.56971 6.4336,4.36827 7.5562,6.26566c1.57373,2.65989 -5.74414,6.11036 -10.55548,8.54683z" fill="#ffc6b3"/><path d="M338.94446,165.64514c-1.04322,1.18776 3.5093,8.86299 1.14064,6.98492c-2.36866,-1.87806 -9.7275,-16.03472 -8.68428,-17.22248c1.04322,-1.18776 2.77505,2.80832 5.14371,4.68639c2.36866,1.87806 3.44315,4.36341 2.39993,5.55117z" fill="#463d3a"/></g><g stroke="#003737" stroke-width="0.5"><path d="M347.6635,144.95116c-3.89716,2.25727 -8.63665,5.51003 -9.77076,3.32343c-0.07573,-0.146 4.18035,5.10972 5.46898,8.24287c1.10401,2.68428 -0.79036,3.08258 -0.22729,5.37914c0.90163,3.67742 -0.9042,3.8018 -1.53073,3.74972c-1.71254,-0.14234 -10.31778,-18.37526 -9.90783,-19.103c0.87445,-1.55227 9.83166,-7.55733 11.91294,-8.76284c2.47438,-1.43319 6.38522,-6.69725 9.48268,-7.17265c1.78106,-0.27335 5.99894,4.14933 6.41298,4.94762c1.13411,2.18662 -7.94382,7.13844 -11.84099,9.3957z" fill="#ffd0c1"/><path d="M343.26237,166.32696c-0.87183,1.04744 2.40974,7.35653 0.61631,5.86378c-1.79343,-1.49275 -7.02668,-13.17186 -6.15484,-14.21929c0.87183,-1.04744 2.0764,2.26335 3.86982,3.75609c1.79343,1.49275 2.54054,3.55198 1.66871,4.59942z" fill="#463d3a"/></g></g></g></svg>