<svg version="1.1" xmlns="http://www.w3.org/2000/svg" xmlns:xlink="http://www.w3.org/1999/xlink" width="326.51974" height="140.46699" viewBox="0,0,326.51974,140.46699"><defs><radialGradient cx="304.39305" cy="202.75098" r="37" gradientUnits="userSpaceOnUse" id="color-1"><stop offset="0" stop-color="#ffffff"/><stop offset="1" stop-color="#594384"/></radialGradient><radialGradient cx="409.1274" cy="280.7552" r="43" gradientUnits="userSpaceOnUse" id="color-2"><stop offset="0" stop-color="#ffffff"/><stop offset="1" stop-color="#594384"/></radialGradient><radialGradient cx="489.19858" cy="246.94534" r="26.5" gradientUnits="userSpaceOnUse" id="color-3"><stop offset="0" stop-color="#ffffff"/><stop offset="1" stop-color="#594384"/></radialGradient></defs><g transform="translate(-234.69705,-156.01638)"><g data-paper-data="{&quot;isPaintingLayer&quot;:true}" fill-rule="nonzero" stroke-linecap="butt" stroke-linejoin="miter" stroke-miterlimit="10" stroke-dasharray="" stroke-dashoffset="0" style="mix-blend-mode: normal"><g stroke="#003737" stroke-width="0.5"><path d="M524.41519,178.79254c-1.68178,-0.62719 -3.31914,3.89189 -1.72704,-0.37724c0.78534,-2.10582 0.91788,-8.09774 6.15444,-12.73326c5.37952,-4.76208 9.90038,-9.71896 10.7526,-9.40114c1.1147,0.41571 -0.30579,2.92976 -3.42538,7.82841c-1.58707,2.49215 -1.1926,7.1101 -1.72945,8.54964c-0.70921,1.90169 -3.38402,1.38838 -4.97793,3.03231c-1.98432,2.04657 -4.11462,3.4491 -5.04724,3.10129z" fill="#463d3a"/><path d="M513.84901,227.82084c-3.52208,-1.22161 2.0733,-19.90036 5.33091,-29.29259c3.25761,-9.39222 7.2831,-29.1721 10.80519,-27.9505c1.66588,0.57779 6.92463,3.23445 4.66878,9.1237c-0.84646,2.20982 -3.13457,9.17407 -3.44651,12.95866c-0.48496,5.88386 1.29781,8.85958 1.34501,11.19223c0.07545,3.7279 1.67226,3.79474 0.82578,6.23526c-3.25761,9.39222 -16.00707,18.95483 -19.52916,17.73323z" fill="#ffddd1"/></g><path d="M378.89044,288.30096c0,0 -5.6873,-5.91748 -14.73928,-13.16725c-10.10795,-8.0955 -29.36703,-17.73641 -45.69903,-29.45912c-4.14512,-2.97527 -3.86419,-5.33403 -7.96945,-8.04773c-3.85718,-2.5497 -16.17455,-6.13366 -20.62633,-8.04856c-3.31919,-1.42772 -42.64817,-14.02498 -46.05787,-15.69572c-10.30445,-5.04916 -4.7624,-7.90529 -6.86328,-9.92434c-4.26719,-4.10098 -1.12093,-25.43848 -1.12093,-25.43848c0,0 2.20791,-10.83964 6.01166,-14.79756c3.573,-3.71781 32.99051,-3.53038 32.99051,-3.53038c0,0 23.11848,9.66722 31.36475,17.59232c3.93151,3.77839 5.74975,6.70481 10.93933,15.60679c4.88058,8.3719 7.32058,6.64969 12.51222,13.06104c1.90434,2.35173 13.84036,9.05033 15.5417,11.17612c11.45969,6.7457 19.59866,18.48131 19.59866,18.48131c0,0 10.42078,13.57068 20.85817,21.96321c9.77121,7.85685 18.90151,8.62894 19.53593,10.29164c2.27934,5.97381 4.64961,21.91071 -1.75261,27.34409c-3.10013,2.63099 -17.29829,-2.28037 -17.29829,-2.28037z" fill="#412a6a" stroke="none" stroke-width="0"/><path d="M355.4966,229.50313c1.52634,4.23323 -26.46088,-16.71943 -45.026,-23.57181c-7.63767,-2.81906 -13.88308,-0.36594 -17.36617,0.88994c-11.94952,4.30857 -19.65183,13.30575 -21.80611,7.331c-2.15428,-5.97475 18.77089,-13.67772 30.72041,-17.98629c4.66585,-1.68234 15.73271,9.17631 24.31075,14.22008c13.39085,7.87363 27.85402,15.47526 29.16713,19.11709z" fill="url(#color-1)" stroke="none" stroke-width="0"/><path d="M524.79615,245.50203c-0.50017,-0.31676 -9.39665,1.15666 -14.40435,1.33253c-4.80368,0.16871 -5.73227,-0.95207 -5.93849,-1.58111c-1.00584,-3.0682 -4.48188,-10.82109 2.28971,-16.36727c2.1605,-1.76954 12.92824,-12.04688 17.57361,-13.7336c5.17839,-1.88027 9.4549,-3.10716 10.60267,-5.25984c6.30298,-11.82143 12.79968,-11.42443 17.69883,-8.32174c4.89915,3.10269 2.64252,15.4522 -5.04032,27.58342c-4.12597,6.51492 -1.07877,11.318 -5.4457,14.18834c-3.7646,2.47442 -15.06788,3.5957 -17.336,2.15928z" fill="#ffddd1" stroke="#003737" stroke-width="0.5"/><path d="M521.7123,229.3449c-2.5078,-1.58822 -11.02514,1.95159 -9.39428,-0.62307c0.41728,-0.65876 8.63348,0.42261 9.29569,-0.62304c0.78079,-1.23286 0.13861,-2.69649 1.0879,-3.60359c3.00262,-2.86918 8.10718,-3.59347 10.50011,-2.078c3.14945,1.99458 7.93938,8.4902 4.68895,13.62264c-1.64946,2.6045 -2.52016,1.47796 -5.95527,0.7657c-3.33413,-0.69133 -8.67189,-6.47822 -10.22312,-7.46065z" fill="#c9927d" stroke="#003737" stroke-width="0"/><path d="M513.76798,248.53397c0,0 -88.13287,36.15806 -102.44497,39.27214c-5.03394,1.09531 -23.49753,-2.36631 -23.49753,-2.36631c0,0 -8.39628,-6.7819 -9.1554,-10.72227c-0.71306,-3.70133 4.73019,-12.24777 4.73019,-12.24777c0,0 18.08482,-9.91821 27.81284,-12.03487c8.99973,-1.9582 26.73348,-4.13064 41.39192,-5.73803c2.60591,-0.28575 9.09089,-2.91462 11.43607,-3.16027c2.57703,-0.26995 5.16415,-0.84455 7.55848,-1.53453c6.25823,-1.80346 11.19913,-4.39519 11.19913,-4.39519c0,0 18.41838,-12.48227 21.4669,-11.97124c7.86028,1.31769 5.94628,7.36683 5.94628,7.36683z" fill="#412a6a" stroke="none" stroke-width="0"/><path d="M402.23881,279.41454c4.67551,-17.3296 36.37324,-33.17044 41.70542,-31.73181c3.56148,0.96089 -14.46803,7.45634 -25.07302,20.43106c-5.27261,6.4508 -12.49432,12.69669 -12.40245,18.65654c0.33591,21.78895 -15.6146,-6.41249 -20.94679,-7.85111c-5.33219,-1.43862 12.04132,17.82494 16.71683,0.49534z" fill="url(#color-2)" stroke="none" stroke-width="0"/><path d="M461.45987,249.56311c4.47427,-6.31368 17.39846,-1.38471 27.16988,-6.26746c8.70934,-4.35206 21.08501,-20.28331 22.46532,-19.30514c2.92895,2.07563 -8.13095,14.77198 -16.59315,26.71311c-8.46221,11.94112 -34.44663,20.59831 -37.37559,18.52268c-1.64814,-1.16797 26.34603,-14.05295 33.41936,-19.73326c5.49687,-4.41431 -32.78629,5.29187 -29.08583,0.07009z" fill="url(#color-3)" stroke="none" stroke-width="0"/><g stroke="#003737" stroke-width="0.5"><path d="M551.22648,212.62621c-2.30874,-5.01713 -5.75143,-11.14232 -2.86658,-12.46983c0.35764,-0.16458 -11.34427,4.66568 -17.73101,5.97181c-4.71888,0.96504 -4.63597,-1.31681 -4.48809,-2.10405c0.40423,-2.15182 24.34691,-12.14816 25.20304,-11.59754c1.82613,1.17449 5.18689,11.731 6.41987,14.4104c2.30874,5.01713 4.7839,15.75901 1.89903,17.08654c-2.88485,1.32753 -6.12755,-6.2802 -8.43627,-11.29733z" fill="#e6a892"/><path d="M525.07041,206.08299c-1.19501,-1.14765 -9.51999,2.69443 -7.41596,0.50355c2.10402,-2.19086 17.40371,-8.24256 18.59873,-7.09489c1.19501,1.14765 -3.10529,2.5116 -5.20931,4.70245c-2.10402,2.19086 -4.77843,3.03654 -5.97345,1.88889z" fill="#463d3a"/></g><g stroke="#003737" stroke-width="0.5"><path d="M546.61981,221.78573c-2.50426,-5.30106 -6.20829,-11.80312 -3.24838,-13.03647c0.36694,-0.1529 -11.65181,4.27628 -18.24111,5.31787c-4.86855,0.76959 -4.83346,-1.58652 -4.69774,-2.3936c0.37094,-2.20607 24.95934,-11.38569 25.8588,-10.7747c1.91854,1.30322 5.63641,12.38467 6.97381,15.21571c1.00752,2.13276 4.55583,5.0281 5.26557,8.04319c1.05434,4.47903 -1.1479,8.98434 -2.91696,9.72148c-2.9599,1.23335 -6.48972,-6.79243 -8.99398,-12.09349z" fill="#f4b7a2"/><path d="M519.36923,213.75118c-1.26394,-1.2449 -9.80526,2.32575 -7.67373,0.16164c2.13153,-2.16411 17.85131,-7.68237 19.11524,-6.43747c1.26394,1.2449 -3.16196,2.44735 -5.29349,4.61145c-2.13153,2.16411 -4.8841,2.90928 -6.14802,1.66438z" fill="#463d3a"/></g><g stroke="#003737" stroke-width="0.5"><path d="M540.23175,228.39316c-2.0259,-4.99811 -5.09157,-11.09588 -2.30947,-12.44183c0.3449,-0.16685 -10.92189,4.73854 -17.02726,6.08662c-4.51099,0.99603 -4.35699,-1.28476 -4.19064,-2.07244c0.45469,-2.15303 23.51082,-12.30304 24.30529,-11.75856c1.69461,1.16141 4.53628,11.68794 5.61821,14.3572c0.58074,1.43278 7.65005,8.03829 8.11391,10.0556c1.15427,5.01986 -4.8906,6.04607 -6.87516,7.0062c-2.78209,1.34596 -5.60899,-6.23465 -7.63489,-11.23276z" fill="#ffc6b3"/><path d="M515.62043,222.03008c-1.09643,-1.13882 -9.12524,2.75641 -7.05581,0.55297c2.06942,-2.20344 16.7915,-8.35357 17.88793,-7.21475c1.09643,1.13882 -3.03039,2.53067 -5.09982,4.73411c-2.06942,2.20344 -4.63587,3.06649 -5.7323,1.92767z" fill="#463d3a"/></g><g stroke="#003737" stroke-width="0.5"><path d="M535.51345,232.44787c-1.92372,-4.07215 -4.76906,-9.06688 -2.49534,-10.0143c0.15182,-0.06326 -5.44117,3.73875 -8.67104,4.76106c-2.76715,0.87584 -3.00575,-1.04518 -5.34133,-0.67599c-3.7399,0.59118 -3.71295,-1.21873 -3.60869,-1.83871c0.28495,-1.69466 19.17317,-8.74621 19.86411,-8.27688c1.47377,1.0011 6.70934,10.42878 7.73671,12.60352c1.22141,2.58549 6.14026,6.92253 6.35517,10.04888c0.12356,1.79767 -4.63611,5.63123 -5.4662,5.97711c-2.27374,0.94742 -6.44967,-8.51254 -8.37337,-12.58471z" fill="#ffd0c1"/><path d="M514.58018,226.27592c-0.97092,-0.95631 -7.53217,1.78658 -5.89477,0.12416c1.63739,-1.66242 13.71296,-5.90143 14.68387,-4.94511c0.97092,0.95631 -2.42894,1.88001 -4.06633,3.54242c-1.63739,1.66242 -3.75185,2.23484 -4.72278,1.27853z" fill="#463d3a"/></g></g></g></svg>