<svg version="1.1" xmlns="http://www.w3.org/2000/svg" xmlns:xlink="http://www.w3.org/1999/xlink" width="207.9298" height="141.81929" viewBox="0,0,207.9298,141.81929"><defs><radialGradient cx="303.71141" cy="186.73432" r="37" gradientUnits="userSpaceOnUse" id="color-1"><stop offset="0" stop-color="#ffffff"/><stop offset="1" stop-color="#594384"/></radialGradient><radialGradient cx="422.48144" cy="206.76753" r="43" gradientUnits="userSpaceOnUse" id="color-2"><stop offset="0" stop-color="#ffffff"/><stop offset="1" stop-color="#594384"/></radialGradient><radialGradient cx="355.63862" cy="151.21091" r="26.5" gradientUnits="userSpaceOnUse" id="color-3"><stop offset="0" stop-color="#ffffff"/><stop offset="1" stop-color="#594384"/></radialGradient></defs><g transform="translate(-230.10132,-97.25568)"><g data-paper-data="{&quot;isPaintingLayer&quot;:true}" fill-rule="nonzero" stroke-linecap="butt" stroke-linejoin="miter" stroke-miterlimit="10" stroke-dasharray="" stroke-dashoffset="0" style="mix-blend-mode: normal"><path d="M405.34974,237.11597c0,0 -7.52366,-3.2797 -18.66565,-6.49742c-12.44176,-3.59309 -33.92646,-5.09885 -53.50796,-9.65085c-4.96986,-1.15532 -5.61629,-3.4411 -10.44889,-4.37021c-4.54057,-0.87295 -17.28981,0.54804 -22.13561,0.48955c-3.61296,-0.0436 -44.76398,3.42826 -48.55383,3.19503c-11.45333,-0.70487 -7.43305,-5.47027 -10.1482,-6.52773c-5.51487,-2.14784 -10.80393,-23.05749 -10.80393,-23.05749c0,0 -2.12405,-10.85638 -0.13189,-15.97155c1.87131,-4.80485 29.10518,-15.92878 29.10518,-15.92878c0,0 25.05827,0.04796 35.71566,4.19864c5.08104,1.97889 7.88368,3.98268 16.0939,10.20917c7.72135,5.85572 9.3129,3.32855 16.56856,7.25459c2.66144,1.4401 16.25466,3.04138 18.6419,4.35081c13.1715,1.82769 25.19315,9.53791 25.19315,9.53791c0,0 14.8332,8.52832 27.69321,12.26915c12.0392,3.50205 20.76592,0.7087 21.99021,2.00028c4.39865,4.64044 12.7073,18.44512 8.88252,25.92049c-1.85206,3.61978 -16.84764,4.53741 -16.84764,4.53741z" fill="#412a6a" stroke="none" stroke-width="0"/><path d="M361.16996,191.8103c3.03496,3.32249 -30.8526,-5.27587 -50.62568,-4.47342c-8.13462,0.33013 -12.95911,4.99353 -15.69284,7.4907c-9.37869,8.56709 -13.03529,19.83226 -17.31883,15.14292c-4.28354,-4.68934 12.07906,-19.83741 21.45774,-28.4045c3.66203,-3.34514 18.05029,2.43099 27.90752,3.79386c15.38774,2.12752 31.66113,3.59211 34.2721,6.45043z" fill="url(#color-1)" stroke="none" stroke-width="0"/><path d="M283.32719,133.75182c-0.27463,1.77379 4.482,2.46478 -0.02069,1.76764c-2.22103,-0.34388 -8.11626,0.73638 -13.7138,-3.45614c-5.75036,-4.30697 -11.5181,-7.73364 -11.37893,-8.63248c0.18203,-1.17568 2.93115,-0.29218 8.35887,1.77385c2.76131,1.05108 7.20444,-0.26787 8.72274,-0.03279c2.00573,0.31055 2.04318,3.03391 3.97513,4.26298c2.40514,1.53013 4.20899,3.33329 4.05668,4.31694z" fill="#463d3a" stroke="#003737" stroke-width="0.5"/><path d="M330.5451,142.13792c-0.93053,3.60992 -20.00313,-0.44473 -29.62958,-2.92613c-9.62644,-2.4814 -29.66858,-4.88165 -28.73805,-8.49157c0.44012,-1.70742 2.6594,-7.16518 8.71289,-5.39674c2.27145,0.66357 9.399,2.37655 13.19642,2.37904c5.90381,0.00387 8.72436,-2.01546 11.0454,-2.25259c3.70935,-0.37898 3.64585,-1.97593 6.14723,-1.33114c9.62644,2.4814 20.19621,14.40921 19.26568,18.01913z" fill="#ffddd1" stroke="#003737" stroke-width="0.5"/><path d="M337.98794,120.2638c-0.05129,0.58981 5.34802,7.81239 7.80692,12.17838c2.35872,4.18811 1.79045,5.52808 1.32669,6.00045c-2.26206,2.30406 -7.54826,8.95584 -15.5871,5.49297c-2.56484,-1.10484 -16.64253,-5.94076 -20.27646,-9.29026c-4.05089,-3.73382 -7.10686,-6.96721 -9.54624,-6.99656c-13.39581,-0.16116 -16.03069,-6.11283 -15.52828,-11.89001c0.5024,-5.77719 12.5065,-9.45203 26.81192,-8.20799c7.68254,0.6681 10.54649,-4.24646 15.10343,-1.68848c3.92839,2.20515 10.12173,11.72691 9.88914,14.40153z" fill="#ffddd1" stroke="#003737" stroke-width="0.5"/><path d="M325.05841,130.43188c-0.25717,2.95726 6.80277,8.89296 3.76653,8.62867c-0.77686,-0.06763 -3.5947,-7.8609 -4.82774,-7.96812c-1.45382,-0.12644 -2.45823,1.11685 -3.70025,0.69099c-3.92855,-1.34699 -6.91898,-5.54681 -6.67359,-8.36861c0.32297,-3.71391 3.88853,-10.9543 9.94082,-10.42798c3.07128,0.26709 2.47129,1.55829 3.41839,4.93621c0.91925,3.27862 -1.76505,10.67959 -1.92414,12.50884z" fill="#c9927d" stroke="#003737" stroke-width="0"/><path d="M345.75146,128.66267c0,0 72.63508,61.63565 81.9816,72.91289c3.28742,3.9665 8.70368,21.95402 8.70368,21.95402c0,0 -2.16145,10.57449 -5.31145,13.06051c-2.95891,2.3352 -13.05118,1.43152 -13.05118,1.43152c0,0 -17.12345,-11.49867 -23.47633,-19.16388c-5.87728,-7.09135 -15.96101,-21.84003 -24.12884,-34.11767c-1.45204,-2.18266 -6.76851,-6.7325 -8.06504,-8.70208c-1.42473,-2.16428 -3.12462,-4.19744 -4.83832,-6.00633c-4.47924,-4.72804 -9.0527,-7.92382 -9.0527,-7.92382c0,0 -19.55372,-10.61582 -20.50174,-13.55791c-2.44432,-7.58588 3.80747,-8.66785 3.80747,-8.66785z" fill="#412a6a" stroke="none" stroke-width="0"/><path d="M424.45854,213.50112c-17.53873,3.81688 -46.18118,-17.04668 -47.3556,-22.44321c-0.78442,-3.60446 13.27417,9.41899 29.67232,12.87004c8.15287,1.7158 17.02004,5.25663 22.27017,2.4345c19.19422,-10.31761 1.48582,16.81452 2.66024,22.21106c1.17442,5.39654 10.29161,-18.88928 -7.24712,-15.07239z" fill="url(#color-2)" stroke="none" stroke-width="0"/><path d="M370.71843,174.63927c-7.664,-1.06992 -9.23005,-14.81317 -18.05919,-21.24498c-7.8695,-5.73271 -27.70729,-9.39661 -27.47338,-11.07213c0.49634,-3.55537 16.85648,0.42765 31.35147,2.45118c14.49498,2.02354 34.13115,21.11694 33.63482,24.67232c-0.27929,2.00062 -24.59391,-16.93335 -32.89061,-20.6025c-6.44757,-2.85139 19.77548,26.68099 13.43692,25.79612z" fill="url(#color-3)" stroke="none" stroke-width="0"/><g stroke="#003737" stroke-width="0.5"><path d="M296.64049,111.91099c-3.3936,4.35722 -7.24972,10.23092 -9.75511,8.2796c-0.3106,-0.24191 9.35964,7.92832 13.45634,12.99917c3.02687,3.74662 0.96245,4.72228 0.19538,4.95295c-2.0967,0.63053 -21.98318,-16.03401 -21.8879,-17.04746c0.20324,-2.16169 8.03207,-10.0003 9.84442,-12.32728c3.3936,-4.35722 11.79427,-11.49466 14.29968,-9.54334c2.50541,1.95132 -2.75918,8.32915 -6.15279,12.68635z" fill="#e6a892"/><path d="M302.85755,138.1465c-0.46961,1.5889 6.77029,7.2148 3.85727,6.35385c-2.913,-0.86095 -15.32226,-11.66436 -14.85264,-13.25327c0.46961,-1.5889 3.65823,1.60259 6.57122,2.46354c2.913,0.86095 4.89375,2.84696 4.42414,4.43588z" fill="#463d3a"/></g><g stroke="#003737" stroke-width="0.5"><path d="M306.89249,111.78987c-3.55582,4.6614 -7.62644,10.94048 -10.08272,8.8792c-0.30451,-0.25553 9.15526,8.38048 13.11019,13.75285c2.92213,3.96941 0.81376,5.02167 0.03466,5.27228c-2.12957,0.68503 -21.58772,-16.92847 -21.45876,-18.00815c0.27505,-2.30294 8.40583,-10.70006 10.30481,-13.18949c1.43061,-1.8754 2.37005,-6.3577 4.72109,-8.37438c3.49258,-2.99587 8.50598,-3.11197 9.97404,-1.88001c2.45628,2.06127 -3.0475,8.8863 -6.60333,13.5477z" fill="#f4b7a2"/><path d="M312.28854,139.68308c-0.52427,1.69484 6.57408,7.63765 3.67218,6.73998c-2.90189,-0.89768 -15.03064,-12.31942 -14.50636,-14.01424c0.52427,-1.69484 3.62723,1.68246 6.52912,2.58014c2.90189,0.89768 4.82933,2.99932 4.30505,4.69413z" fill="#463d3a"/></g><g stroke="#003737" stroke-width="0.5"><path d="M315.69737,114.42417c-3.50677,4.09731 -7.51191,9.62361 -9.98643,7.77201c-0.30676,-0.22955 9.23011,7.51975 13.23467,12.32144c2.95879,3.54777 0.86263,4.4598 0.08667,4.67429c-2.12099,0.58627 -21.73625,-15.22035 -21.61807,-16.17622c0.2521,-2.03887 8.29301,-9.40276 10.16581,-11.59094c1.00527,-1.17455 3.62028,-10.48957 5.19836,-11.82911c3.92688,-3.33331 7.61781,1.56268 9.38297,2.88348c2.47452,1.85159 -2.95719,7.84772 -6.46395,11.94503z" fill="#ffc6b3"/><path d="M321.36407,139.2051c-0.5071,1.49731 6.64381,6.83576 3.73555,6.01131c-2.90826,-0.82444 -15.13932,-11.06966 -14.63222,-12.56697c0.5071,-1.49731 3.64073,1.52731 6.54899,2.35175c2.90826,0.82444 4.85479,2.70659 4.34769,4.2039z" fill="#463d3a"/></g><g stroke="#003737" stroke-width="0.5"><path d="M321.46762,116.74955c-2.7315,3.58079 -5.85845,8.40421 -7.7453,6.82079c-0.12599,-0.10572 5.82206,3.11258 8.21509,5.51063c2.05018,2.05449 0.45402,3.14974 1.85585,5.05397c2.24471,3.0492 0.62511,3.85753 0.02662,4.05004c-1.63589,0.52623 -16.58316,-13.00405 -16.48412,-13.83342c0.21129,-1.76906 6.17562,-10.75344 7.63437,-12.66577c1.73428,-2.27352 3.32373,-8.6358 6.00112,-10.26424c1.53952,-0.93636 7.1324,1.52745 7.82125,2.10553c1.88686,1.58343 -4.5934,9.6417 -7.32491,13.22248z" fill="#ffd0c1"/><path d="M325.61274,138.17646c-0.40274,1.30193 5.05004,5.86706 2.82088,5.17749c-2.22917,-0.68957 -11.54619,-9.46349 -11.14344,-10.76541c0.40274,-1.30193 2.78637,1.29242 5.01552,1.98199c2.22917,0.68957 3.70978,2.304 3.30704,3.60593z" fill="#463d3a"/></g></g></g></svg>