<svg version="1.1" xmlns="http://www.w3.org/2000/svg" xmlns:xlink="http://www.w3.org/1999/xlink" width="180.53854" height="124.7975" viewBox="0,0,180.53854,124.7975"><defs><radialGradient cx="295.65446" cy="194.09088" r="37" gradientUnits="userSpaceOnUse" id="color-1"><stop offset="0" stop-color="#ffffff"/><stop offset="1" stop-color="#594384"/></radialGradient></defs><g transform="translate(-225.05367,-154.298)"><g data-paper-data="{&quot;isPaintingLayer&quot;:true}" fill-rule="nonzero" stroke="none" stroke-width="0" stroke-linecap="butt" stroke-linejoin="miter" stroke-miterlimit="10" stroke-dasharray="" stroke-dashoffset="0" style="mix-blend-mode: normal"><path d="M377.38749,272.75709c0,0 -6.18571,-5.39434 -15.84026,-11.81987c-10.78079,-7.17511 -30.81319,-15.08477 -48.11293,-25.32561c-4.39074,-2.59917 -4.31836,-4.97349 -8.64638,-7.31561c-4.06649,-2.20057 -16.65134,-4.6873 -21.25429,-6.20323c-3.4319,-1.13025 -43.71643,-10.21962 -47.25986,-11.58398c-10.7086,-4.12329 -5.43924,-7.45579 -7.70955,-9.28224c-4.61135,-3.70978 -3.35396,-25.24131 -3.35396,-25.24131c0,0 1.24598,-10.99182 4.68688,-15.26895c3.23216,-4.01765 32.55216,-6.41829 32.55216,-6.41829c0,0 23.87914,7.59643 32.79048,14.76554c4.24859,3.41796 6.31717,6.17313 12.26959,14.58417c5.59799,7.91019 7.87707,5.98006 13.61248,11.90994c2.1038,2.17513 14.58272,7.79797 16.46444,9.76587c12.00858,5.71165 21.14819,16.68594 21.14819,16.68594c0,0 11.57397,12.60156 22.70906,20.04357c10.42438,6.967 19.5872,6.93306 20.3654,8.53352c2.79592,5.75018 6.55869,21.41685 0.65916,27.39227c-2.85671,2.89346 -17.43182,-0.75011 -17.43182,-0.75011z" fill="#412a6a"/><path d="M348.91289,216.24467c1.89275,4.08258 -27.82886,-14.32733 -46.92471,-19.52032c-7.85601,-2.13638 -13.86147,0.85653 -17.2206,2.41389c-11.52426,5.34286 -18.40539,14.98262 -21.07682,9.22049c-2.67143,-5.76213 17.49516,-15.27566 29.01942,-20.61853c4.4998,-2.0862 16.47882,7.75702 25.46723,12.02678c14.03146,6.66536 29.10717,12.96546 30.7355,16.47768z" fill="url(#color-1)"/></g></g></svg>