<svg version="1.1" xmlns="http://www.w3.org/2000/svg" xmlns:xlink="http://www.w3.org/1999/xlink" width="128.15134" height="187.16449" viewBox="0,0,128.15134,187.16449"><defs><radialGradient cx="286.50036" cy="222.7433" r="37" gradientUnits="userSpaceOnUse" id="color-1"><stop offset="0" stop-color="#ffffff"/><stop offset="1" stop-color="#594384"/></radialGradient><radialGradient cx="331.34366" cy="318.80515" r="43" gradientUnits="userSpaceOnUse" id="color-2"><stop offset="0" stop-color="#ffffff"/><stop offset="1" stop-color="#594384"/></radialGradient></defs><g transform="translate(-223.09808,-161.18371)"><g data-paper-data="{&quot;isPaintingLayer&quot;:true}" fill-rule="nonzero" stroke="none" stroke-width="0" stroke-linecap="butt" stroke-linejoin="miter" stroke-miterlimit="10" stroke-dasharray="" stroke-dashoffset="0" style="mix-blend-mode: normal"><path d="M319.08834,331.40187c0,0 -2.74087,-7.73625 -7.9976,-18.07378c-5.86993,-11.54346 -19.43934,-28.26863 -29.48361,-45.68323c-2.54927,-4.4199 -1.32063,-6.45289 -3.94145,-10.61805c-2.46246,-3.91345 -12.2057,-12.25801 -15.47163,-15.83835c-2.43504,-2.66945 -33.06911,-30.36447 -35.48639,-33.29263c-7.30523,-8.84925 -1.07855,-9.16574 -2.15982,-11.87149c-2.19625,-5.49577 9.46935,-23.63693 9.46935,-23.63693c0,0 6.48156,-8.96448 11.579,-11.00156c4.78821,-1.91349 31.51052,10.38869 31.51052,10.38869c0,0 17.07448,18.3407 21.31868,28.96119c2.02347,5.06345 2.47308,8.47927 3.52977,18.72916c0.99378,9.63955 3.92686,9.07685 6.01252,17.0586c0.76504,2.92778 8.87643,13.95253 9.54973,16.59074c7.65803,10.87123 10.23308,24.91888 10.23308,24.91888c0,0 3.89703,16.66041 9.94461,28.61033c5.66159,11.18719 13.66097,15.65579 13.55325,17.43215c-0.38702,6.38216 -4.79988,21.87828 -12.87302,24.18794c-3.90923,1.1184 -14.81849,-9.21105 -14.81849,-9.21105z" fill="#412a6a"/><path d="M322.02387,268.18922c-0.35522,4.48595 -17.2112,-26.14369 -31.29833,-40.0423c-5.79543,-5.71786 -12.4967,-6.05859 -16.18773,-6.35086c-12.66291,-1.0027 -23.39011,4.01748 -22.88876,-2.31397c0.50135,-6.33146 22.74097,-4.71963 35.40388,-3.71694c4.94441,0.39151 10.54843,14.84768 16.28311,22.98007c8.95219,12.69517 18.99344,25.58476 18.68785,29.444z" fill="url(#color-1)"/><path d="M333.65936,325.42993c-17.32283,4.70056 -38.08685,-40.66224 -39.53317,-45.99234c-0.96602,-3.56009 5.94188,12.37825 20.08767,27.41221c8.22933,1.30054 18.56443,14.30272 23.66484,11.21823c18.64684,-11.27682 2.33581,16.71765 3.78212,22.04776c1.44632,5.33011 9.32138,-19.38644 -8.00144,-14.68586z" fill="url(#color-2)"/></g></g></svg>