<svg version="1.1" xmlns="http://www.w3.org/2000/svg" xmlns:xlink="http://www.w3.org/1999/xlink" width="117.11199" height="344.522" viewBox="0,0,117.11199,344.522"><defs><radialGradient cx="289.24119" cy="230.12406" r="37" gradientUnits="userSpaceOnUse" id="color-1"><stop offset="0" stop-color="#ffffff"/><stop offset="1" stop-color="#594384"/></radialGradient><radialGradient cx="331.99208" cy="353.97755" r="43" gradientUnits="userSpaceOnUse" id="color-2"><stop offset="0" stop-color="#ffffff"/><stop offset="1" stop-color="#594384"/></radialGradient><radialGradient cx="302.02428" cy="435.5645" r="26.5" gradientUnits="userSpaceOnUse" id="color-3"><stop offset="0" stop-color="#ffffff"/><stop offset="1" stop-color="#594384"/></radialGradient></defs><g transform="translate(-228.84876,-164.26757)"><g data-paper-data="{&quot;isPaintingLayer&quot;:true}" fill-rule="nonzero" stroke-linecap="butt" stroke-linejoin="miter" stroke-miterlimit="10" stroke-dasharray="" stroke-dashoffset="0" style="mix-blend-mode: normal"><path d="M308.71544,341.8801c0,0 -1.80425,-8.00666 -5.79814,-18.89456c-4.4598,-12.15804 -15.95034,-30.37416 -23.85888,-48.85688c-2.00722,-4.69098 -0.54617,-6.56396 -2.65464,-11.01049c-1.98106,-4.17782 -10.66615,-13.61878 -13.4845,-17.56112c-2.10134,-2.93935 -29.23545,-34.07132 -31.28848,-37.26546c-6.20442,-9.65302 0.01587,-9.22897 -0.73697,-12.04384c-1.52912,-5.71741 12.20521,-22.34738 12.20521,-22.34738c0,0 7.49877,-8.13272 12.8018,-9.55101c4.98132,-1.33225 30.05642,14.05165 30.05642,14.05165c0,0 14.77934,20.23587 17.73432,31.28468c1.40882,5.26766 1.45024,8.71269 1.28412,19.01557c-0.15621,9.68939 2.8229,9.47842 3.94744,17.65118c0.4125,2.99783 7.15944,14.90659 7.51516,17.60603c6.31498,11.70256 7.20621,25.95644 7.20621,25.95644c0,0 1.89409,17.00495 6.48208,29.58764c4.29516,11.77957 11.70826,17.16515 11.39068,18.91621c-1.14104,6.29125 -7.36016,21.15481 -15.65021,22.49093c-4.01427,0.64698 -13.62178,-10.90312 -13.62178,-10.90312z" fill="#412a6a" stroke="none" stroke-width="0"/><path d="M319.12549,279.46146c-0.88463,4.41219 -13.98987,-28.00002 -26.32966,-43.47091c-5.07657,-6.36471 -11.69016,-7.4976 -15.3205,-8.22546c-12.45469,-2.49708 -23.70146,1.21573 -22.45292,-5.01161c1.24854,-6.22734 23.14015,-1.9899 35.59484,0.50718c4.8631,0.97502 8.7135,15.99368 13.44345,24.74867c7.38375,13.66709 15.82582,27.65635 15.06478,31.45214z" fill="url(#color-1)" stroke="none" stroke-width="0"/><g><g data-paper-data="{&quot;index&quot;:null}" stroke="#003737" stroke-width="0.5"><path d="M246.76771,480.32157c0.70461,0.70304 0.31669,3.22392 -0.71755,5.88029c-0.83077,2.13375 0.74986,4.35178 -0.6837,5.78855c-1.08518,1.0876 -5.44789,2.65218 -7.05266,5.13296c-3.15442,4.8763 -4.84848,7.21475 -5.69066,6.37445c-0.64387,-0.64244 1.97992,-6.81696 4.06899,-13.69099c2.03355,-6.69136 7.42592,-9.30729 9.01336,-10.89828c3.21823,-3.22541 -0.2084,0.14524 1.06222,1.41303z" fill="#463d3a"/><path d="M286.94142,450.29676c2.57745,2.69337 -0.80672,18.26705 -7.98899,25.14024c-1.86627,1.78597 -2.59206,0.36206 -6.0127,1.84601c-2.14039,0.92855 -5.58823,0.54702 -10.73559,3.43835c-3.31086,1.85975 -8.6895,6.84035 -10.34604,8.53022c-4.41474,4.50358 -9.02013,0.82898 -10.23921,-0.44493c-2.57744,-2.69337 13.729,-14.59077 20.91127,-21.46396c7.18228,-6.87319 21.83382,-19.73928 24.41127,-17.04594z" fill="#ffddd1"/></g><path d="M302.27372,471.19041c1.54255,2.19732 0.95951,13.54111 -1.33327,17.41901c-2.65964,4.49836 -7.60206,1.68278 -13.91362,6.11359c-11.75254,8.25048 -23.9809,11.09124 -27.31283,6.34502c-3.33193,-4.74622 -4.03711,-11.21673 7.47154,-18.07418c2.09572,-1.24874 3.11807,-5.57871 4.75021,-10.84057c1.46413,-4.72025 11.21833,-15.96408 12.88324,-18.2062c5.21822,-7.02742 13.1275,-3.92362 16.24001,-3.06467c0.63813,0.1761 1.80175,1.0504 1.86144,5.85667c0.06223,5.0104 -0.98689,13.96683 -0.64673,14.45139z" data-paper-data="{&quot;index&quot;:null}" fill="#ffddd1" stroke="#003737" stroke-width="0.5"/><path d="M285.98831,468.87763c1.05501,1.50281 7.08895,6.55963 7.93789,9.85715c0.87465,3.39739 2.04128,4.21359 -0.48192,5.98492c-4.97223,3.49058 -11.68807,-0.98536 -13.83001,-4.03649c-1.62744,-2.31823 -1.14646,-7.45144 1.57683,-10.58697c0.86098,-0.99131 2.35346,-0.41939 3.54784,-1.25787c1.01301,-0.71114 -0.45746,-8.86669 0.18073,-9.31479c2.49428,-1.75133 -0.63691,6.92456 1.06865,9.35407z" data-paper-data="{&quot;index&quot;:null}" fill="#c9927d" stroke="#003737" stroke-width="0"/><path d="M287.09767,457.31148c0,0 -5.95138,2.19921 -7.641,-5.5896c-0.65528,-3.0208 10.93791,-22.01137 10.93791,-22.01137c0,0 2.35408,-5.05844 3.8582,-11.39528c0.57546,-2.42441 1.0265,-5.0359 1.17372,-7.62285c0.13396,-2.3542 2.45179,-8.95675 2.61342,-11.57329c0.90921,-14.71825 2.23673,-32.53518 3.76517,-41.61778c1.65213,-9.81759 10.7,-28.35317 10.7,-28.35317c0,0 8.2782,-5.84311 12.00923,-5.3067c3.97198,0.57107 11.1451,8.63569 11.1451,8.63569c0,0 4.33485,18.27829 3.47992,23.35859c-2.43065,14.44388 -34.36102,104.19498 -34.36102,104.19498z" data-paper-data="{&quot;index&quot;:null}" fill="#412a6a" stroke="none" stroke-width="0"/><path d="M330.3257,347.16041c17.08792,-5.4935 -2.97924,-21.93225 -1.28894,-16.67442c1.69031,5.25783 30.61766,19.85058 8.83735,20.55016c-5.95749,0.19136 -11.85325,7.70164 -18.04628,13.27475c-12.45627,11.2094 -18.08787,29.52713 -19.21687,26.01532c-1.69032,-5.25782 12.62679,-37.6723 29.71471,-43.16579z" data-paper-data="{&quot;index&quot;:null}" fill="url(#color-2)" stroke="none" stroke-width="0"/><path d="M303.32135,407.73274c5.04009,-3.94435 -2.83644,34.75669 1.31175,29.05632c5.33787,-7.33519 16.8784,-35.90988 18.12335,-34.31908c2.21243,2.82705 -5.20056,29.1934 -16.72619,38.21334c-11.52564,9.01992 -23.68224,20.67049 -25.89467,17.84346c-1.04264,-1.33228 14.2827,-14.45081 18.2161,-23.35707c4.41303,-9.99235 -1.12435,-22.66779 4.96964,-27.43695z" data-paper-data="{&quot;index&quot;:null}" fill="url(#color-3)" stroke="none" stroke-width="0"/><g data-paper-data="{&quot;index&quot;:null}" stroke="#003737" stroke-width="0.5"><path d="M270.69062,499.15274c5.12114,2.06777 12.87433,4.94539 11.68535,7.89005c-1.18898,2.94468 -12.03632,0.98262 -17.15746,-1.08517c-2.73495,-1.1043 -13.4392,-3.95976 -14.69911,-5.72804c-0.59067,-0.82901 8.25695,-25.21954 10.38714,-25.72554c0.77933,-0.18511 3.05466,-0.37633 2.31489,4.38307c-1.00124,6.44158 -5.27014,18.35974 -5.12273,17.99469c1.18896,-2.94466 7.47079,0.20316 12.59193,2.27095z" fill="#e6a892"/><path d="M262.91221,473.33706c1.20313,1.13915 0.48545,3.85072 -1.60298,6.05644c-2.08842,2.20572 -3.24654,6.56596 -4.44967,5.42682c-1.20315,-1.13915 4.11489,-16.70906 6.20332,-18.91478c2.08845,-2.20574 -1.3538,6.29237 -0.15068,7.43151z" fill="#463d3a"/></g><g data-paper-data="{&quot;index&quot;:null}" stroke="#003737" stroke-width="0.5"><path d="M279.62094,494.11615c5.41404,2.2496 13.59845,5.39416 12.50711,8.40931c-0.65227,1.80208 -5.04787,4.21587 -9.57193,3.3755c-3.0454,-0.5657 -6.10604,-3.97246 -8.28426,-4.87752c-2.89138,-1.2014 -14.13694,-4.38863 -15.52983,-6.24309c-0.65303,-0.86942 7.34812,-25.86615 9.53408,-26.34147c0.79972,-0.17391 3.1515,-0.32089 2.61407,4.57872c-0.72738,6.63134 -4.58059,18.84694 -4.4453,18.47315c1.09134,-3.01516 7.76203,0.3758 13.17607,2.6254z" fill="#f4b7a2"/><path d="M268.93047,473.49817c-2.0604,2.23193 -3.05123,6.70996 -4.35477,5.50659c-1.30354,-1.20336 3.4617,-17.16755 5.52211,-19.39948c2.06041,-2.23193 -1.10045,6.46937 0.20309,7.67274c1.30354,1.20335 0.68997,3.98821 -1.37043,6.22015z" fill="#463d3a"/></g><g data-paper-data="{&quot;index&quot;:null}" stroke="#003737" stroke-width="0.5"><path d="M285.91748,487.42139c5.08871,1.78617 12.79506,4.24975 11.58278,7.09264c-0.86477,2.02793 -1.60265,8.11473 -6.67168,7.20024c-2.03707,-0.3675 -8.97096,-7.11503 -10.42971,-7.62704c-2.71764,-0.9539 -13.36729,-3.29229 -14.60789,-4.92981c-0.58161,-0.76771 8.46163,-24.27999 10.59063,-24.83645c0.77889,-0.20358 3.04979,-0.46576 2.26918,4.08745c-1.05651,6.16252 -5.42112,17.64963 -5.27085,17.29719c1.21226,-2.8429 7.44879,-0.07037 12.5375,1.7158z" fill="#ffc6b3"/><path d="M276.73918,468.95756c-2.10264,2.17177 -3.29687,6.36005 -4.48649,5.31896c-1.18962,-1.04109 4.25417,-16.03872 6.35681,-18.21048c2.10264,-2.17177 -1.40677,6.03302 -0.21715,7.07411c1.18962,1.04109 0.44947,3.64564 -1.65317,5.8174z" fill="#463d3a"/></g><g data-paper-data="{&quot;index&quot;:null}" stroke="#003737" stroke-width="0.5"><path d="M289.74341,482.51582c4.15896,1.72807 13.80662,5.44988 12.96829,7.76606c-0.30605,0.84558 -3.90917,5.782 -5.71068,5.74398c-3.13303,-0.06615 -7.69885,-4.77341 -10.33944,-5.87061c-2.22109,-0.9229 -11.88685,-5.70468 -12.95683,-7.12923c-0.50162,-0.66786 5.64465,-19.86975 7.32386,-20.23489c0.61433,-0.1336 2.42091,-0.2465 2.00807,3.51727c-0.25782,2.35048 1.67237,2.49755 0.92897,5.30319c-0.86772,3.27479 -4.39973,9.04208 -4.34376,8.88743c0.83833,-2.31616 5.9626,0.28868 10.12154,2.01678z" fill="#ffd0c1"/><path d="M282.58398,461.89936c1.00136,0.9244 0.53003,3.06367 -1.05272,4.77819c-1.58275,1.71452 -2.34389,5.15442 -3.34524,4.23003c-1.00136,-0.92438 2.65919,-13.1877 4.24195,-14.90221c1.58276,-1.71453 -0.84534,4.96962 0.15602,5.89401z" fill="#463d3a"/></g></g></g></g></svg>