<svg version="1.1" xmlns="http://www.w3.org/2000/svg" xmlns:xlink="http://www.w3.org/1999/xlink" width="84.75006" height="371.31683" viewBox="0,0,84.75006,371.31683"><defs><radialGradient cx="264.64278" cy="236.85262" r="37" gradientUnits="userSpaceOnUse" id="color-1"><stop offset="0" stop-color="#ffffff"/><stop offset="1" stop-color="#594384"/></radialGradient><radialGradient cx="277.02844" cy="370.92977" r="43" gradientUnits="userSpaceOnUse" id="color-2"><stop offset="0" stop-color="#ffffff"/><stop offset="1" stop-color="#594384"/></radialGradient><radialGradient cx="261.84346" cy="456.50965" r="26.5" gradientUnits="userSpaceOnUse" id="color-3"><stop offset="0" stop-color="#ffffff"/><stop offset="1" stop-color="#594384"/></radialGradient></defs><g transform="translate(-204.98884,-164.60733)"><g data-paper-data="{&quot;isPaintingLayer&quot;:true}" fill-rule="nonzero" stroke-linecap="butt" stroke-linejoin="miter" stroke-miterlimit="10" stroke-dasharray="" stroke-dashoffset="0" style="mix-blend-mode: normal"><g><path d="M253.90643,349.78352c0,0 0.37469,-8.19887 -0.60146,-19.75503c-1.09002,-12.90425 -7.36091,-33.50851 -10.1066,-53.42376c-0.69687,-5.05456 1.20702,-6.47511 0.34792,-11.32064c-0.80718,-4.55272 -6.69011,-15.95244 -8.36705,-20.4992c-1.25032,-3.39 -19.19764,-40.58346 -20.33406,-44.20644c-3.43435,-10.94901 2.45302,-8.89701 2.47043,-11.81076c0.03537,-5.91825 17.67452,-18.32986 17.67452,-18.32986c0,0 9.38061,-5.86318 14.86992,-5.83037c5.15631,0.03082 25.2774,21.49164 25.2774,21.49164c0,0 8.9094,23.42097 8.84103,34.85791c-0.0326,5.4527 -0.90261,8.78632 -3.78421,18.67942c-2.70999,9.30401 0.21904,9.88743 -0.85509,18.06697c-0.39399,3.00032 2.96778,16.26826 2.59785,18.96579c2.99962,12.95497 0.09421,26.93803 0.09421,26.93803c0,0 -2.66482,16.90132 -1.56334,30.249c1.03119,12.49573 6.75848,19.64812 5.98966,21.25311c-2.76227,5.76642 -12.68654,18.4594 -21.03509,17.55836c-4.04259,-0.43632 -10.25808,-14.11392 -10.25808,-14.11392z" fill="#412a6a" stroke="none" stroke-width="0"/><path d="M280.43388,292.33137c-2.01864,4.02183 -6.09716,-30.70085 -13.91226,-48.88169c-3.21512,-7.47958 -9.29459,-10.31913 -12.60374,-11.98005c-11.35279,-5.69815 -23.18082,-5.08789 -20.33175,-10.76428c2.84907,-5.67639 22.84394,4.19295 34.19672,9.8911c4.43285,2.22492 4.17951,17.72723 6.42895,27.42064c3.51152,15.13203 7.95869,30.85433 6.22206,34.31429z" fill="url(#color-1)" stroke="none" stroke-width="0"/><g><g data-paper-data="{&quot;index&quot;:null}" stroke="#003737" stroke-width="0.5"><path d="M215.29886,510.26915c0.81705,0.56848 0.87754,3.11831 0.32552,5.91496c-0.44342,2.24643 1.50192,4.15265 0.34275,5.8187c-0.87748,1.26116 -4.89791,3.56707 -6.04242,6.29098c-2.24972,5.3542 -3.50712,7.95365 -4.48369,7.27418c-0.74662,-0.51948 0.75288,-7.05863 1.6032,-14.19259c0.82772,-6.94439 5.67734,-10.46603 6.96094,-12.31091c2.60226,-3.74012 -0.17968,0.17956 1.29371,1.20469z" fill="#463d3a"/><path d="M249.58005,473.66018c3.01011,2.19925 2.4115,18.12514 -3.45313,26.15208c-1.52389,2.08577 -2.4883,0.81132 -5.59543,2.87253c-1.94422,1.28976 -5.40551,1.51921 -9.96559,5.26899c-2.93311,2.41191 -7.35423,8.25912 -8.68851,10.21347c-3.55589,5.20844 -8.73467,2.39906 -10.15839,1.35886c-3.0101,-2.19926 10.9554,-16.77365 16.82002,-24.8006c5.86464,-8.02695 18.03092,-23.26458 21.04103,-21.06536z" fill="#ffddd1"/></g><path d="M268.34105,491.53891c1.90422,1.89252 3.32096,13.16258 1.74429,17.38266c-1.82895,4.89529 -7.18877,2.99076 -12.62482,8.46042c-10.12227,10.1849 -21.66233,15.12754 -25.77547,11.0397c-4.11314,-4.08784 -5.94289,-10.33418 4.18374,-19.10487c1.84405,-1.59714 2.09067,-6.03933 2.77407,-11.50595c0.61305,-4.90394 8.24269,-17.68505 9.48829,-20.18455c3.90399,-7.83411 12.23522,-6.16648 15.45016,-5.86708c0.65913,0.06138 1.95812,0.71791 2.86034,5.43912c0.94054,4.92172 1.47947,13.92327 1.89939,14.34062z" data-paper-data="{&quot;index&quot;:null}" fill="#ffddd1" stroke="#003737" stroke-width="0.5"/><path d="M251.9025,492.11996c1.30237,1.29434 8.13009,5.21379 9.54454,8.31115c1.45729,3.19117 2.74905,3.78997 0.57586,5.97661c-4.2825,4.30899 -11.67961,1.08108 -14.32375,-1.54681c-2.00901,-1.99665 -2.43633,-7.13461 -0.30556,-10.69939c0.67365,-1.12702 2.24334,-0.82589 3.27204,-1.86096c0.87249,-0.87788 -2.00638,-8.64881 -1.45673,-9.20195c2.14823,-2.16187 0.58817,6.92887 2.69362,9.02137z" data-paper-data="{&quot;index&quot;:null}" fill="#c9927d" stroke="#003737" stroke-width="0"/><path d="M250.96489,480.53862c0,0 -5.47308,3.20949 -8.50334,-4.16193c-1.17523,-2.85892 6.90538,-23.58928 6.90538,-23.58928c0,0 1.42984,-5.39306 1.79856,-11.89552c0.14107,-2.48777 0.12682,-5.13789 -0.18223,-7.71053c-0.28126,-2.34117 0.84191,-9.24802 0.54186,-11.85232c-1.68782,-14.6494 -3.5076,-32.42279 -3.59679,-41.63267c-0.0964,-9.95517 5.55823,-29.79091 5.55823,-29.79091c0,0 7.12432,-7.20518 10.89158,-7.33185c4.01056,-0.13484 12.48762,6.54581 12.48762,6.54581c0,0 7.47525,17.23391 7.52513,22.3854c0.14184,14.64628 -15.54253,108.60803 -15.54253,108.60803z" data-paper-data="{&quot;index&quot;:null}" fill="#412a6a" stroke="none" stroke-width="0"/><path d="M274.19158,364.51086c15.85868,-8.40702 -6.78191,-21.06906 -4.19514,-16.18945c2.58678,4.8796 33.6261,14.16941 12.30657,18.68037c-5.83145,1.23387 -10.31773,9.66225 -15.43663,16.23569c-10.29582,13.2214 -12.62543,32.24315 -14.3532,28.98397c-2.58679,-4.87959 5.8197,-39.30355 21.67838,-47.71056z" data-paper-data="{&quot;index&quot;:null}" fill="url(#color-2)" stroke="none" stroke-width="0"/><path d="M258.23619,428.88218c4.26968,-4.76763 3.30705,34.71507 6.39051,28.3752c3.96777,-8.1581 10.31462,-38.3146 11.81942,-36.96696c2.67422,2.39492 0.00332,29.653 -9.76053,40.5556c-9.76386,10.90258 -19.68724,24.50572 -22.36145,22.11082c-1.26026,-1.12863 11.52507,-16.73303 13.83446,-26.19135c2.59098,-10.61173 -5.08489,-22.1187 0.07759,-27.88328z" data-paper-data="{&quot;index&quot;:null}" fill="url(#color-3)" stroke="none" stroke-width="0"/><g data-paper-data="{&quot;index&quot;:null}" stroke="#003737" stroke-width="0.5"><path d="M242.15521,524.60983c5.40454,1.13697 13.5424,2.60932 12.88864,5.71693c-0.65376,3.10764 -11.67709,3.07963 -17.08163,1.94265c-2.8863,-0.6072 -13.92554,-1.53985 -15.47621,-3.05959c-0.72699,-0.71249 3.70302,-26.27718 5.71135,-27.14915c0.73475,-0.319 2.94121,-0.90655 3.04815,3.90881c0.14474,6.51732 -1.96639,18.99968 -1.88533,18.61442c0.65375,-3.10761 7.3905,-1.11105 12.79505,0.02594z" fill="#e6a892"/><path d="M229.9671,500.55982c1.38437,0.91033 1.15368,3.70577 -0.51525,6.24376c-1.66893,2.53799 -2.04389,7.0338 -3.42826,6.12348c-1.38439,-0.91033 1.11875,-17.17188 2.78768,-19.70987c1.66895,-2.53801 -0.22854,6.4323 1.15582,7.34262z" fill="#463d3a"/></g><g data-paper-data="{&quot;index&quot;:null}" stroke="#003737" stroke-width="0.5"><path d="M250.06307,518.08422c5.7248,1.26458 14.33404,2.92405 13.78877,6.08393c-0.3259,1.88858 -4.22969,5.0363 -8.83102,5.0029c-3.09741,-0.02248 -6.70841,-2.83926 -9.01166,-3.34802c-3.05734,-0.67535 -14.68771,-1.83962 -16.38443,-3.42086c-0.79547,-0.74133 2.69482,-26.75426 4.76344,-27.60582c0.75679,-0.31155 3.04628,-0.86897 3.37703,4.04892c0.44765,6.65608 -1.20204,19.35831 -1.13445,18.96658c0.54527,-3.15989 7.70752,-0.9922 13.43233,0.27238z" fill="#f4b7a2"/><path d="M235.92024,499.66228c-1.63674,2.55887 -1.82634,7.14129 -3.32083,6.18536c-1.49449,-0.95593 0.39523,-17.50862 2.03198,-20.0675c1.63675,-2.55888 0.05194,6.56209 1.54643,7.51803c1.49449,0.95592 1.37916,3.80523 -0.25758,6.36412z" fill="#463d3a"/></g><g data-paper-data="{&quot;index&quot;:null}" stroke="#003737" stroke-width="0.5"><path d="M255.08702,510.38837c5.32319,0.86543 13.34229,1.93838 12.64772,4.9499c-0.49547,2.14822 -0.15372,8.27005 -5.30457,8.25932c-2.06995,-0.00431 -10.08036,-5.43029 -11.60633,-5.67836c-2.84287,-0.46218 -13.73761,-0.89536 -15.24633,-2.28976c-0.70731,-0.65373 4.0694,-25.38813 6.06771,-26.30957c0.73108,-0.33711 2.92072,-0.99374 2.95127,3.6258c0.04135,6.25229 -2.23964,18.32708 -2.15356,17.95374c0.69454,-3.01152 7.32084,-1.37647 12.64404,-0.51104z" fill="#ffc6b3"/><path d="M242.81093,493.82178c-1.68888,2.50706 -2.12958,6.83992 -3.48344,6.02375c-1.35386,-0.81617 1.3735,-16.53638 3.06239,-19.04343c1.68888,-2.50706 -0.3262,6.18627 1.02766,7.00244c1.35386,0.81617 1.08227,3.51019 -0.60662,6.01724z" fill="#463d3a"/></g><g data-paper-data="{&quot;index&quot;:null}" stroke="#003737" stroke-width="0.5"><path d="M257.9927,504.88751c4.39768,0.97139 14.54876,2.94237 14.12991,5.36973c-0.15291,0.88617 -2.83382,6.37829 -4.61404,6.65701c-3.09602,0.48469 -8.41706,-3.34826 -11.20922,-3.96503c-2.34858,-0.5188 -12.7035,-3.53012 -14.00687,-4.74479c-0.61104,-0.56947 2.0701,-20.55198 3.65917,-21.20614c0.58135,-0.23934 2.34008,-0.66752 2.59416,3.11029c0.15867,2.35925 2.08471,2.16531 1.84521,5.05786c-0.27956,3.37625 -2.74465,9.67387 -2.71669,9.5118c0.41886,-2.42733 5.92073,-0.76218 10.31839,0.20925z" fill="#ffd0c1"/><path d="M247.32638,485.84741c1.14804,0.73432 1.05945,2.92311 -0.19786,4.88878c-1.25731,1.96567 -1.40296,5.48576 -2.55099,4.75144c-1.14804,-0.73431 0.3036,-13.4497 1.56092,-15.41537c1.25731,-1.96568 0.0399,5.04085 1.18794,5.77516z" fill="#463d3a"/></g></g></g></g></g></svg>