<svg version="1.1" xmlns="http://www.w3.org/2000/svg" xmlns:xlink="http://www.w3.org/1999/xlink" width="319.59447" height="374.98936" viewBox="0,0,319.59447,374.98936"><defs><linearGradient x1="308.375" y1="297.98764" x2="244.375" y2="297.98764" gradientUnits="userSpaceOnUse" id="color-1"><stop offset="0" stop-color="#a02400"/><stop offset="1" stop-color="#6d2000"/></linearGradient><linearGradient x1="174.8735" y1="297.48914" x2="238.8735" y2="297.48914" gradientUnits="userSpaceOnUse" id="color-2"><stop offset="0" stop-color="#a02400"/><stop offset="1" stop-color="#6d2000"/></linearGradient><linearGradient x1="181.375" y1="180.95461" x2="200.875" y2="180.95461" gradientUnits="userSpaceOnUse" id="color-3"><stop offset="0" stop-color="#bd8946"/><stop offset="1" stop-color="#bd8946" stop-opacity="0"/></linearGradient><linearGradient x1="262.375" y1="179.20461" x2="311.375" y2="179.20461" gradientUnits="userSpaceOnUse" id="color-4"><stop offset="0" stop-color="#bd8946" stop-opacity="0"/><stop offset="1" stop-color="#bd8946"/></linearGradient><linearGradient x1="241.875" y1="77.70126" x2="241.875" y2="127.20126" gradientUnits="userSpaceOnUse" id="color-5"><stop offset="0" stop-color="#bd8946" stop-opacity="0"/><stop offset="1" stop-color="#bd8946"/></linearGradient><linearGradient x1="301.89839" y1="159.54473" x2="287.96263" y2="160.88425" gradientUnits="userSpaceOnUse" id="color-6"><stop offset="0" stop-color="#e8c290"/><stop offset="1" stop-color="#e8c290" stop-opacity="0"/></linearGradient><linearGradient x1="288.81854" y1="150.91868" x2="274.88001" y2="149.60818" gradientUnits="userSpaceOnUse" id="color-7"><stop offset="0" stop-color="#e8c290"/><stop offset="1" stop-color="#e8c290" stop-opacity="0"/></linearGradient><linearGradient x1="193.56063" y1="162.34383" x2="207.38435" y2="160.12915" gradientUnits="userSpaceOnUse" id="color-8"><stop offset="0" stop-color="#e8c290"/><stop offset="1" stop-color="#e8c290" stop-opacity="0"/></linearGradient><linearGradient x1="193.91405" y1="68.95125" x2="235.83595" y2="68.95125" gradientUnits="userSpaceOnUse" id="color-9"><stop offset="0" stop-color="#113a9e"/><stop offset="1" stop-color="#002573"/></linearGradient><radialGradient cx="236.9553" cy="139.87357" r="11.56974" gradientUnits="userSpaceOnUse" id="color-10"><stop offset="0" stop-color="#ff0000"/><stop offset="1" stop-color="#a02400"/></radialGradient><linearGradient x1="204.875" y1="125.95126" x2="204.875" y2="142.95126" gradientUnits="userSpaceOnUse" id="color-11"><stop offset="0" stop-color="#720000" stop-opacity="0"/><stop offset="1" stop-color="#720000"/></linearGradient><linearGradient x1="278.51225" y1="120.72577" x2="278.51225" y2="140.0591" gradientUnits="userSpaceOnUse" id="color-12"><stop offset="0" stop-color="#680000" stop-opacity="0"/><stop offset="1" stop-color="#680000"/></linearGradient><linearGradient x1="211.68187" y1="159.62114" x2="229.06813" y2="164.28138" gradientUnits="userSpaceOnUse" id="color-13"><stop offset="0" stop-color="#691900"/><stop offset="1" stop-color="#691900" stop-opacity="0"/></linearGradient><linearGradient x1="264.84122" y1="158.59522" x2="247.92227" y2="164.73924" gradientUnits="userSpaceOnUse" id="color-14"><stop offset="0" stop-color="#691900"/><stop offset="1" stop-color="#691900" stop-opacity="0"/></linearGradient><linearGradient x1="185.60724" y1="49.61117" x2="180.86137" y2="82.7733" gradientUnits="userSpaceOnUse" id="color-15"><stop offset="0" stop-color="#824b34" stop-opacity="0"/><stop offset="1" stop-color="#824b34"/></linearGradient><linearGradient x1="136.37665" y1="57.61531" x2="108.45955" y2="129.92436" gradientUnits="userSpaceOnUse" id="color-16"><stop offset="0" stop-color="#ecd486"/><stop offset="1" stop-color="#ba998b"/></linearGradient><linearGradient x1="164.64248" y1="69.31828" x2="187.35976" y2="68.62049" gradientUnits="userSpaceOnUse" id="color-17"><stop offset="0" stop-color="#aa7159" stop-opacity="0"/><stop offset="1" stop-color="#aa7159"/></linearGradient><linearGradient x1="136.15071" y1="86.29434" x2="136.6306" y2="105.1463" gradientUnits="userSpaceOnUse" id="color-18"><stop offset="0" stop-color="#aa7159" stop-opacity="0"/><stop offset="1" stop-color="#aa7159"/></linearGradient><linearGradient x1="151.50134" y1="74.1301" x2="133.89642" y2="108.3753" gradientUnits="userSpaceOnUse" id="color-19"><stop offset="0" stop-color="#53220e" stop-opacity="0"/><stop offset="1" stop-color="#53220e"/></linearGradient><linearGradient x1="163.11052" y1="72.63122" x2="145.5056" y2="106.87642" gradientUnits="userSpaceOnUse" id="color-20"><stop offset="0" stop-color="#53220e" stop-opacity="0"/><stop offset="1" stop-color="#53220e"/></linearGradient><linearGradient x1="142.75814" y1="73.82751" x2="125.15321" y2="108.07272" gradientUnits="userSpaceOnUse" id="color-21"><stop offset="0" stop-color="#53220e" stop-opacity="0"/><stop offset="1" stop-color="#53220e"/></linearGradient><linearGradient x1="138.31484" y1="74.71206" x2="114.41037" y2="105.0875" gradientUnits="userSpaceOnUse" id="color-22"><stop offset="0" stop-color="#824b34" stop-opacity="0"/><stop offset="1" stop-color="#824b34"/></linearGradient><linearGradient x1="134.58439" y1="73.49925" x2="105.60911" y2="99.28545" gradientUnits="userSpaceOnUse" id="color-23"><stop offset="0" stop-color="#53220e" stop-opacity="0"/><stop offset="1" stop-color="#53220e"/></linearGradient><linearGradient x1="168.03789" y1="72.72107" x2="157.06411" y2="109.4987" gradientUnits="userSpaceOnUse" id="color-24"><stop offset="0" stop-color="#824b34" stop-opacity="0"/><stop offset="1" stop-color="#824b34"/></linearGradient><linearGradient x1="176.51631" y1="76.91477" x2="166.70588" y2="114.00067" gradientUnits="userSpaceOnUse" id="color-25"><stop offset="0" stop-color="#53220e" stop-opacity="0"/><stop offset="1" stop-color="#53220e"/></linearGradient><linearGradient x1="148.4246" y1="58.83191" x2="148.4246" y2="100.33191" gradientUnits="userSpaceOnUse" id="color-26"><stop offset="0" stop-color="#630505"/><stop offset="1" stop-color="#630505" stop-opacity="0"/></linearGradient><linearGradient x1="150.9817" y1="28.96465" x2="125.43271" y2="91.51563" gradientUnits="userSpaceOnUse" id="color-27"><stop offset="0" stop-color="#ecd486"/><stop offset="1" stop-color="#ba998b"/></linearGradient><linearGradient x1="174.99399" y1="40.96987" x2="194.51351" y2="40.96987" gradientUnits="userSpaceOnUse" id="color-28"><stop offset="0" stop-color="#aa7159" stop-opacity="0"/><stop offset="1" stop-color="#aa7159"/></linearGradient><linearGradient x1="149.72072" y1="55.48939" x2="149.72072" y2="72.00591" gradientUnits="userSpaceOnUse" id="color-29"><stop offset="0" stop-color="#aa7159" stop-opacity="0"/><stop offset="1" stop-color="#aa7159"/></linearGradient><linearGradient x1="163.60631" y1="44.82893" x2="147.74289" y2="74.3349" gradientUnits="userSpaceOnUse" id="color-30"><stop offset="0" stop-color="#53220e" stop-opacity="0"/><stop offset="1" stop-color="#53220e"/></linearGradient><linearGradient x1="173.60631" y1="43.82894" x2="157.74289" y2="73.3349" gradientUnits="userSpaceOnUse" id="color-31"><stop offset="0" stop-color="#53220e" stop-opacity="0"/><stop offset="1" stop-color="#53220e"/></linearGradient><linearGradient x1="158.10631" y1="44.32894" x2="142.24289" y2="73.8349" gradientUnits="userSpaceOnUse" id="color-32"><stop offset="0" stop-color="#53220e" stop-opacity="0"/><stop offset="1" stop-color="#53220e"/></linearGradient><linearGradient x1="152.27211" y1="44.98381" x2="131.0847" y2="70.93267" gradientUnits="userSpaceOnUse" id="color-33"><stop offset="0" stop-color="#824b34" stop-opacity="0"/><stop offset="1" stop-color="#824b34"/></linearGradient><linearGradient x1="149.09578" y1="43.82177" x2="123.65505" y2="65.6167" gradientUnits="userSpaceOnUse" id="color-34"><stop offset="0" stop-color="#53220e" stop-opacity="0"/><stop offset="1" stop-color="#53220e"/></linearGradient><linearGradient x1="177.83481" y1="44.04009" x2="167.60931" y2="75.94133" gradientUnits="userSpaceOnUse" id="color-35"><stop offset="0" stop-color="#824b34" stop-opacity="0"/><stop offset="1" stop-color="#824b34"/></linearGradient><linearGradient x1="185.02243" y1="47.93937" x2="175.78901" y2="80.14176" gradientUnits="userSpaceOnUse" id="color-36"><stop offset="0" stop-color="#53220e" stop-opacity="0"/><stop offset="1" stop-color="#53220e"/></linearGradient><linearGradient x1="186.9246" y1="12.91427" x2="186.9246" y2="49.91427" gradientUnits="userSpaceOnUse" id="color-37"><stop offset="0" stop-color="#630505"/><stop offset="1" stop-color="#630505" stop-opacity="0"/></linearGradient><linearGradient x1="348.1334" y1="58.11531" x2="376.0505" y2="130.42436" gradientUnits="userSpaceOnUse" id="color-38"><stop offset="0" stop-color="#ecd486"/><stop offset="1" stop-color="#ba998b"/></linearGradient><linearGradient x1="319.86757" y1="69.81828" x2="297.1503" y2="69.1205" gradientUnits="userSpaceOnUse" id="color-39"><stop offset="0" stop-color="#aa7159" stop-opacity="0"/><stop offset="1" stop-color="#aa7159"/></linearGradient><linearGradient x1="348.35934" y1="86.79434" x2="347.87945" y2="105.6463" gradientUnits="userSpaceOnUse" id="color-40"><stop offset="0" stop-color="#aa7159" stop-opacity="0"/><stop offset="1" stop-color="#aa7159"/></linearGradient><linearGradient x1="333.00871" y1="74.6301" x2="350.61364" y2="108.87531" gradientUnits="userSpaceOnUse" id="color-41"><stop offset="0" stop-color="#53220e" stop-opacity="0"/><stop offset="1" stop-color="#53220e"/></linearGradient><linearGradient x1="321.39953" y1="73.13122" x2="339.00445" y2="107.37642" gradientUnits="userSpaceOnUse" id="color-42"><stop offset="0" stop-color="#53220e" stop-opacity="0"/><stop offset="1" stop-color="#53220e"/></linearGradient><linearGradient x1="341.75192" y1="74.32751" x2="359.35684" y2="108.57272" gradientUnits="userSpaceOnUse" id="color-43"><stop offset="0" stop-color="#53220e" stop-opacity="0"/><stop offset="1" stop-color="#53220e"/></linearGradient><linearGradient x1="346.19521" y1="75.21206" x2="370.09968" y2="105.58751" gradientUnits="userSpaceOnUse" id="color-44"><stop offset="0" stop-color="#824b34" stop-opacity="0"/><stop offset="1" stop-color="#824b34"/></linearGradient><linearGradient x1="349.92567" y1="73.99925" x2="378.90094" y2="99.78545" gradientUnits="userSpaceOnUse" id="color-45"><stop offset="0" stop-color="#53220e" stop-opacity="0"/><stop offset="1" stop-color="#53220e"/></linearGradient><linearGradient x1="316.47216" y1="73.22107" x2="327.44594" y2="109.9987" gradientUnits="userSpaceOnUse" id="color-46"><stop offset="0" stop-color="#824b34" stop-opacity="0"/><stop offset="1" stop-color="#824b34"/></linearGradient><linearGradient x1="307.99374" y1="77.41477" x2="317.80417" y2="114.50067" gradientUnits="userSpaceOnUse" id="color-47"><stop offset="0" stop-color="#53220e" stop-opacity="0"/><stop offset="1" stop-color="#53220e"/></linearGradient><linearGradient x1="336.08546" y1="59.33192" x2="336.08546" y2="100.83192" gradientUnits="userSpaceOnUse" id="color-48"><stop offset="0" stop-color="#630505"/><stop offset="1" stop-color="#630505" stop-opacity="0"/></linearGradient><linearGradient x1="333.52835" y1="29.46466" x2="359.07734" y2="92.01564" gradientUnits="userSpaceOnUse" id="color-49"><stop offset="0" stop-color="#ecd486"/><stop offset="1" stop-color="#ba998b"/></linearGradient><linearGradient x1="309.51606" y1="41.46988" x2="289.99654" y2="41.46988" gradientUnits="userSpaceOnUse" id="color-50"><stop offset="0" stop-color="#aa7159" stop-opacity="0"/><stop offset="1" stop-color="#aa7159"/></linearGradient><linearGradient x1="334.78933" y1="55.9894" x2="334.78933" y2="72.50591" gradientUnits="userSpaceOnUse" id="color-51"><stop offset="0" stop-color="#aa7159" stop-opacity="0"/><stop offset="1" stop-color="#aa7159"/></linearGradient><linearGradient x1="320.90375" y1="45.32894" x2="336.76717" y2="74.8349" gradientUnits="userSpaceOnUse" id="color-52"><stop offset="0" stop-color="#53220e" stop-opacity="0"/><stop offset="1" stop-color="#53220e"/></linearGradient><linearGradient x1="310.90375" y1="44.32894" x2="326.76717" y2="73.8349" gradientUnits="userSpaceOnUse" id="color-53"><stop offset="0" stop-color="#53220e" stop-opacity="0"/><stop offset="1" stop-color="#53220e"/></linearGradient><linearGradient x1="326.40375" y1="44.82894" x2="342.26717" y2="74.3349" gradientUnits="userSpaceOnUse" id="color-54"><stop offset="0" stop-color="#53220e" stop-opacity="0"/><stop offset="1" stop-color="#53220e"/></linearGradient><linearGradient x1="332.23794" y1="45.48382" x2="353.42536" y2="71.43267" gradientUnits="userSpaceOnUse" id="color-55"><stop offset="0" stop-color="#824b34" stop-opacity="0"/><stop offset="1" stop-color="#824b34"/></linearGradient><linearGradient x1="335.41427" y1="44.32178" x2="360.85501" y2="66.1167" gradientUnits="userSpaceOnUse" id="color-56"><stop offset="0" stop-color="#53220e" stop-opacity="0"/><stop offset="1" stop-color="#53220e"/></linearGradient><linearGradient x1="306.67524" y1="44.54009" x2="316.90074" y2="76.44133" gradientUnits="userSpaceOnUse" id="color-57"><stop offset="0" stop-color="#824b34" stop-opacity="0"/><stop offset="1" stop-color="#824b34"/></linearGradient><linearGradient x1="299.48762" y1="48.43938" x2="308.72104" y2="80.64176" gradientUnits="userSpaceOnUse" id="color-58"><stop offset="0" stop-color="#53220e" stop-opacity="0"/><stop offset="1" stop-color="#53220e"/></linearGradient><linearGradient x1="297.58546" y1="13.41427" x2="297.58546" y2="50.41427" gradientUnits="userSpaceOnUse" id="color-59"><stop offset="0" stop-color="#630505"/><stop offset="1" stop-color="#630505" stop-opacity="0"/></linearGradient></defs><g transform="translate(-82.45778,-6.28432)"><g data-paper-data="{&quot;isPaintingLayer&quot;:true}" fill-rule="nonzero" stroke-linecap="butt" stroke-linejoin="miter" stroke-miterlimit="10" stroke-dasharray="" stroke-dashoffset="0" style="mix-blend-mode: normal"><path d="M244.375,380.27067v-164.56607h64v164.56607z" data-paper-data="{&quot;index&quot;:null}" fill="url(#color-1)" stroke="none" stroke-width="0"/><path d="M174.8735,381.27368v-167.56907h64v167.56907z" fill="url(#color-2)" stroke="none" stroke-width="0"/><path d="M228.03826,109.70876c0,0 1.79783,-15.54805 -3.15856,-31.71871c-1.92065,-6.26627 -6.48529,-20.02271 -10.89227,-33.16191c-5.28478,-15.75629 -10.34285,-30.62495 -10.34285,-30.62495l8.77426,-7.53557c0,0 8.24075,13.82763 9.1149,15.73112c0.48852,1.06377 7.5187,13.8074 7.98453,15.09966c2.01354,5.58569 9.25179,9.51028 12.85225,17.00382c0.34256,0.71296 -2.29803,13.93559 -1.91991,14.66809c4.45993,8.64009 -7.60396,1.07887 -5.55094,6.41333c2.86373,7.441 6.88509,19.08782 6.88509,19.08782z" fill="#f4f4f4" stroke="#004a4a" stroke-width="0.5"/><path d="M171.90131,225.6513c0,0 9.16269,-55.19085 9.43236,-82.45709c0.34375,-34.75679 -4.45867,-117.05199 -4.45867,-117.05199c0,0 14.45001,-8.19568 21.6873,-9.22743c6.45813,-0.92068 11.14501,13.58545 13.32646,16.90553c9.07627,13.81378 16.45487,52.51736 25.43361,52.51736c8.74656,0 16.92917,-36.86781 28.66234,-48.45912c5.35059,-5.2859 8.84389,-24.01456 13.46537,-25.29765c2.25829,-0.62698 5.61705,-0.61983 10.02647,0.81073c6.57708,2.13382 14.26688,6.20968 14.26688,6.20968c0,0 -0.82592,45.7382 -0.02999,68.60967c0.41905,12.04171 -0.52409,26.47824 1.34264,45.52153c3.58731,36.59583 14.81894,81.93242 14.81894,81.93242c0,0 1.38201,21.95598 0.07822,24.22859c-3.83499,6.68471 -5.10349,3.93487 -22.5311,8.47959c-11.06192,2.88469 -54.26234,1.93531 -61.23367,1.87516c-7.60175,-0.06559 -33.53904,-1.99897 -48.90677,-7.65808c-3.55641,-2.40521 -5.43424,-1.53909 -9.58099,-3.11825c-4.59937,-1.75153 -9.29936,-5.32064 -9.29936,-5.32064z" fill="#ffefda" stroke="none" stroke-width="0"/><path d="M200.875,180.95461c0,27.20002 9.13478,52.25 3.75,52.25c-0.22026,0 7.05532,12.02334 6.82746,12.06625c-2.21686,0.4175 -14.88967,-0.08103 -22.98077,0.33126c-5.81744,0.29643 -15.33417,-4.98715 -17.93441,-8.40183c-2.49888,-3.28158 0.83772,-8.26608 0.83772,-15.74568c0,-9.78364 3.77635,-23.43458 5.66145,-39.46619c3.35577,-28.53875 6.14064,-60.28381 9.58855,-60.28381c5.38478,0 14.25,32.04998 14.25,59.25z" fill="url(#color-3)" stroke="none" stroke-width="0"/><path d="M319.875,234.70461c0,10.89562 -2.85167,11.61256 -12.31649,12.87538c-12.60411,1.68168 -33.45563,1.62462 -41.18351,1.62462c-13.53098,0 -4,-44.5949 -4,-70c0,-25.4051 14.46902,-65.5 28,-65.5c13.53098,0 29.5,95.5949 29.5,121z" fill="url(#color-4)" stroke="none" stroke-width="0"/><path d="M182.875,127.20126l-2,-74.5l120,-1.5l3,73c0,0 -49.2474,9.7582 -70.99263,10.29734c-17.78775,0.44102 -50.00737,-7.29734 -50.00737,-7.29734z" fill="url(#color-5)" stroke="none" stroke-width="0"/><path d="M295.71147,131.75922c3.84826,-0.3699 5.92455,-11.52407 7.47021,4.55615c0.50767,5.28152 0.30833,62.85576 -5.15618,73.51348c-11.17286,21.79097 -32.9157,-0.28476 -35.5,-0.03635c-3.84826,0.3699 26.98279,-32.82802 25.43713,-48.90823c-1.54566,-16.08022 3.90059,-28.75514 7.74884,-29.12504z" data-paper-data="{&quot;index&quot;:null}" fill="url(#color-6)" stroke="none" stroke-width="0"/><path d="M287.97831,122.4651c3.84902,0.36188 7.98999,-10.2012 6.47783,5.8822c-0.49667,5.28256 -11.54161,61.78781 -18.91655,71.22487c-15.07895,19.29519 -32.27236,-6.48224 -34.85717,-6.72526c-3.84902,-0.36188 32.68544,-27.15532 34.1976,-43.23872c1.51216,-16.0834 9.24927,-27.50497 13.09829,-27.14309z" data-paper-data="{&quot;index&quot;:null}" fill="url(#color-7)" stroke="none" stroke-width="0"/><path d="M207.38435,160.12915c2.55548,15.95092 40.75594,40.31032 36.93862,40.92188c-2.56352,0.4107 -18.04319,27.25225 -34.3457,8.97912c-7.97337,-8.93718 -22.67164,-64.60399 -23.51098,-69.84304c-2.55548,-15.95092 2.26404,-5.67967 6.08135,-6.29124c3.81731,-0.61157 12.28122,10.28235 14.83671,26.23327z" fill="url(#color-8)" stroke="none" stroke-width="0"/><path d="M232.20163,85.5343c0,0 -6.38972,8.88661 -3.485,1.46152c0.52614,-1.34492 -1.206,-26.06408 -0.24946,-28.07015c2.8675,-6.01377 6.70213,-11.63966 11.89586,-18.4915c10.56573,-13.93883 22.61759,-29.74344 22.61759,-29.74344c0,0 2.91301,-4.26768 5.63946,-3.02886c1.22364,0.55599 9.30508,1.95777 10.77986,5.9038c2.31102,6.18354 -0.13986,9.20351 -0.13986,9.20351c0,0 -29.18369,37.40859 -38.55158,53.62804c-7.52217,13.0238 -4.84341,7.72236 -4.84341,7.72236z" data-paper-data="{&quot;index&quot;:null}" fill="#ffffff" stroke="#006a6a" stroke-width="0.5"/><path d="M232.43682,88.86459l-38.02277,-72.4201l10.89914,-5.90658c0,0 21.43728,37.31922 27.40373,52.9151c0.4916,1.28499 5.94266,7.91233 6.34317,8.84732c1.09666,2.56013 -4.61098,1.32977 -2.53362,4.04913c6.33113,8.28775 -4.19051,0.10855 -4.19051,0.10855z" fill="url(#color-9)" stroke="none" stroke-width="0"/><path d="M198.375,136.45125c0,0 -19.54438,-2.27376 -10.32545,-15.42886c4.07913,-5.82079 -3.1831,-1.31369 -3.32218,-3.91604c-0.05575,-1.04324 -5.26146,-2.80937 1.53883,-7.48623c14.44761,-17.46138 53.03702,-43.4643 62.13836,-60.7343c8.04215,-15.26019 24.97044,-40.93457 24.97044,-40.93457l18,4c0,0 -5.48158,-1.22042 -11.12482,10.48451c-2.29012,4.75007 -6.94218,9.32315 -8.46696,12.79334c-2.95374,6.72231 -17.40822,28.72215 -17.40822,28.72215c0,0 -11.59432,15.69904 -14.98651,19.85638c-0.93791,1.14947 -30.66926,25.02819 -31.00809,25.39855c-4.62327,5.05344 -3.28475,4.91393 -11.33791,11.76673c-8.28466,7.0498 9.54519,9.06342 2.60795,11.76412c-10.5919,4.12348 -6.80965,5.02071 -7.67251,3.26591c-5.67628,-11.54386 4.39707,-4.55169 4.39707,-4.55169z" fill="#113a9e" stroke="none" stroke-width="0"/><path d="M183.375,141.45126c0,0 -3.60491,2.92637 -3.92478,-1.87168c-0.34491,-5.17362 -0.57522,-31.12832 -0.57522,-31.12832c0,0 8.38199,6.26808 11.16354,7.49196c7.78257,3.42433 41.33646,17.50804 41.33646,17.50804l7,12z" fill="#a02400" stroke="none" stroke-width="0"/><path d="M235.375,144.50389l7.94737,-14.47368l60.05263,-26.57895c0,0 2.19282,12.10783 1.8116,17.82604c-0.25386,3.80788 1.28307,11.05227 0.19627,14.2708c-0.42675,1.2638 -4.21839,1.06106 -4.21839,1.06106z" data-paper-data="{&quot;index&quot;:null}" fill="#a02400" stroke="none" stroke-width="0"/><path d="M206.375,175.45126l18,-46h13l-8,59z" fill="#a02400" stroke="none" stroke-width="0"/><path d="M248.375,189.45126l-8,-59h13l18,46z" data-paper-data="{&quot;index&quot;:null}" fill="#a02400" stroke="none" stroke-width="0"/><path d="M233.4853,145.36721l-9.54246,-16.51l29.07186,0.6915l-8.65564,14.03768z" fill="url(#color-10)" stroke="none" stroke-width="0"/><path d="M178.875,141.95126l1.5,-18c0,0 16.46496,3.29299 24.23077,4.84615c7.18974,1.43795 26.76923,5.15385 26.76923,5.15385l-6,9z" fill="url(#color-11)" stroke="none" stroke-width="0"/><path d="M255.19853,140.0591l-6.82353,-10.23529c0,0 22.26687,-4.22592 30.44344,-5.86124c8.83171,-1.76634 27.55656,-5.51131 27.55656,-5.51131l-0.54902,19.10784z" data-paper-data="{&quot;index&quot;:null}" fill="url(#color-12)" stroke="none" stroke-width="0"/><path d="M207.40998,175.55855l16.04377,-46.37482l4.38626,11.66024l-9.04377,42.37482z" fill="url(#color-13)" stroke="none" stroke-width="0"/><path d="M259.7909,182.71902l-12.66876,-41.4357l3.3631,-11.99541l19.98799,44.81636z" data-paper-data="{&quot;index&quot;:null}" fill="url(#color-14)" stroke="none" stroke-width="0"/><path d="M177.31503,88.38878l9.49189,-49.27812l3.72724,-7.33561l-9.47794,55.13045z" fill="url(#color-15)" stroke="none" stroke-width="0"/><g stroke="none" stroke-width="0"><g><path d="M173.13985,37.16648l19.92151,2.00906l-10.26776,78.62755c0,0 -2.1384,9.18537 -3.82397,13.23543c-0.2762,0.66366 -3.31932,7.60658 -4.16391,2.95102c-0.73584,-4.05615 2.29948,-18.80753 1.08311,-18.20526c-1.67084,0.82729 -4.40754,23.16602 -5.74615,20.73819c-1.65632,-3.00405 3.09798,-24.28492 1.46717,-24.2157c-2.26932,0.09632 -5.00457,12.39651 -7.01607,19.29324c-1.20724,4.13922 -2.15379,4.4127 -2.58244,4.3111c-2.95194,-0.69966 6.07897,-22.80281 2.56165,-21.32021c-3.5919,1.51404 -8.93433,17.43366 -11.29581,17.07169c-1.23223,-0.18888 9.54814,-25.1965 8.3709,-24.96606c-1.9701,0.38563 -15.32147,21.43796 -16.91444,23.42319c-1.64609,2.05142 6.22811,-19.42939 4.66519,-17.51266c-7.48798,9.18315 -11.53235,19.51453 -11.44745,16.27151c0.06776,-2.58831 8.55186,-19.20801 7.22828,-19.01232c-2.91352,0.43076 -9.78612,14.71939 -12.5263,14.80779c-1.14538,0.03695 8.78171,-17.25713 7.76329,-17.73845c-3.41365,-1.61336 -12.7151,16.16953 -15.58181,15.76385c-1.58723,-0.22462 6.57468,-17.69799 10.86136,-23.85254c1.27994,-1.83765 4.94693,0.97719 4.47859,0.99202c-7.01158,0.222 -18.11564,22.98534 -21.82416,21.94274c-0.23669,-0.06654 12.59077,-21.38309 8.633,-19.36391c-4.7152,2.4056 -16.33527,16.07803 -16.53248,13.93473c-0.43734,-4.75305 15.62427,-24.15332 12.70336,-22.90242c-6.09341,2.60955 -18.86249,25.68187 -19.4808,22.12152c-0.30225,-1.74044 2.03548,-1.24053 6.11842,-7.31674c5.23953,-7.79744 12.38286,-22.22024 10.19926,-21.42745c-1.89848,0.68927 -13.09769,16.83599 -19.53492,22.71876c-4.39362,4.01518 -4.43226,-2.09261 -6.18823,-0.14254c-1.30419,1.44834 12.31395,-16.4385 9.96749,-17.41714c-1.10979,-0.46286 -6.12252,9.0171 -10.11108,12.63834c-4.27677,3.88291 -7.52573,1.92825 -8.13827,1.44938c-0.44661,-0.34915 20.47064,-19.88512 18.53315,-19.15199c-3.77636,1.42895 -20.90038,16.3802 -21.58606,15.825c-2.53536,-2.05292 5.88992,-10.40598 5.88992,-10.40598z" fill="url(#color-16)"/><path d="M181.28598,104.8253c0.36141,14.1977 -8.71128,-4.87789 -14.98449,-4.6852c-6.2732,0.19269 -18.29254,2.7646 -18.65395,-11.4331c-0.13871,-5.44922 -11.31433,6.98843 -10.14229,2.79071c1.14039,-4.08434 -9.165,-13.33815 1.16031,-25.97282c6.71175,-8.2129 9.33874,-5.98647 10.86155,-6.03324c3.63828,-0.11175 35.98477,-24.67335 38.21692,-18.71527c1.61658,4.31499 -6.60985,58.08548 -6.45805,64.04894z" fill="url(#color-17)"/><path d="M179.20399,94.40525c0.13252,5.20582 17.03422,26.05653 -6.61093,26.78281c-4.7832,0.14692 -16.09116,-7.65203 -22.47398,-7.96925c-10.48463,-0.52108 -22.86935,0.89236 -33.61497,-2.52307c-15.05075,-4.78379 -28.19481,-14.50408 -28.25648,-16.92697c-0.04019,-1.57891 2.17546,-2.82083 5.94198,-3.80518c8.65205,-2.26115 25.48747,-3.16325 41.96111,-3.66926c23.64515,-0.72629 42.92076,2.90509 43.05328,8.11092z" fill="url(#color-18)"/><path d="M127.89066,113.18941l28.85092,-50.01159l6.84695,-6.61385l-31.01876,56.36079z" fill="url(#color-19)"/><path d="M139.49984,111.69053l28.85092,-50.01159l6.84695,-6.61385l-31.01876,56.36079z" fill="url(#color-20)"/><path d="M119.14745,112.88682l28.85092,-50.01159l6.84695,-6.61385l-31.01876,56.36079z" fill="url(#color-21)"/><path d="M107.5878,108.69864l37.98959,-43.77405l7.99647,-5.22318l-41.34674,49.61036z" fill="url(#color-22)"/><path d="M98.25086,101.66075l45.23739,-36.54651l8.80285,-3.76021l-49.58969,41.71534z" fill="url(#color-23)"/><path d="M152.04549,115.29949l19.11794,-54.27092l5.51262,-7.71861l-20.0734,60.89385z" fill="url(#color-24)"/><path d="M161.87168,119.94987l17.40041,-54.81459l5.26756,-7.88072l-18.14666,61.46204z" fill="url(#color-25)"/></g><path d="M187.6746,78.58191c0,3.24061 -3.81568,46.80771 -6.16189,49.5403c-5.9508,6.9308 -18.53104,-27.7903 -33.08811,-27.7903c-2.60287,0 -16.14694,20.28024 -17.84662,17.73186c-1.42343,-2.13418 9.044,-27.14815 6.68898,-27.34378c-16.76068,-1.39229 -37.09237,3.62139 -37.09237,-5.13809c0,-0.86448 -15.79881,8.60604 -15.42266,7.45695c2.52183,-7.70383 28.9079,-31.2841 39.25714,-36.06524c8.57082,-3.95955 15.91476,1.85829 24.41552,1.85829c20.29646,0 39.25,8.29009 39.25,19.75z" fill="url(#color-26)"/><g><path d="M182.99224,12.05164l17.06002,2.29449l-10.53398,68.55699c0,0 -8.55112,12.54821 -10.75899,11.0346c-2.18604,-1.49865 1.9841,-17.06773 -0.62147,-15.38748c-3.60069,2.32198 -6.24574,16.48571 -8.29415,15.4885c-2.24937,-1.09505 0.62593,-13.39722 2.08248,-17.76743c1.38177,-4.14586 -9.74824,16.24075 -12.77734,16.30283c-0.71488,0.01465 8.89656,-17.48953 6.8228,-17.18947c-3.39171,0.49076 -11.27883,17.95785 -11.33675,14.43966c-0.07315,-4.44361 9.8188,-18.11085 8.75883,-18.81994c-1.2209,-0.81676 -3.31132,8.07754 -5.62852,11.39087c-3.18326,4.55168 -6.79452,4.33775 -9.16747,6.41605c-2.12139,1.85798 8.87365,-15.22839 6.06243,-15.26176c-0.50976,-0.00605 -5.89548,10.14573 -8.09422,11.62032c-3.36199,2.25472 -3.95581,-3.73583 -4.98159,-2.95681c-4.53589,3.44481 -1.33417,3.23582 -3.68621,2.67739c-2.08353,-0.49468 6.56497,-9.98916 5.05263,-10.47352c-0.31816,-0.1019 -9.24677,9.67737 -11.73207,9.80102c-2.62744,0.13072 1.12294,-9.35365 -1.50376,-7.9058c-3.16371,1.74386 -7.18999,2.61607 -8.85183,2.43872c-2.08555,-0.22257 8.61681,-12.94258 8.01451,-14.6354c-0.96221,-2.70438 -9.92587,10.66064 -14.34562,14.31135c-1.87697,1.55038 6.75602,-12.2141 8.63601,-16.0064c1.96662,-3.96705 -11.4067,12.20357 -13.79366,11.01154c-1.93431,-0.96598 7.83578,-8.52359 6.46382,-9.68326c-1.58585,-1.34048 -12.46615,6.45541 -13.53795,5.50575c-1.50778,-1.33597 7.09499,-11.16835 7.09499,-11.16835z" fill="url(#color-27)"/><path d="M188.50751,72.50141c0,12.43885 -7.3726,-4.5045 -12.76276,-4.5045c-5.39017,0 -15.76577,1.92834 -15.76577,-10.51051c0,-4.77415 -9.86683,5.81366 -8.76881,2.17035c1.06836,-3.5449 -7.57724,-11.92309 1.56385,-22.70624c5.94197,-7.00936 8.14876,-4.98963 9.45721,-4.98963c3.12614,0 31.43452,-20.63222 33.22075,-15.3563c1.29363,3.82095 -6.94447,50.67216 -6.94447,55.89684z" fill="url(#color-28)"/><path d="M186.50751,63.74765c0,4.56091 14.05552,23.26877 -6.26126,23.26877c-4.1099,0 -13.64808,-7.13152 -19.12121,-7.58086c-8.99035,-0.7381 -19.65434,0.16625 -28.80551,-3.11268c-12.8175,-4.5926 -23.8901,-13.4555 -23.8901,-15.57823c0,-1.38331 1.92943,-2.41094 5.18474,-3.17139c7.47777,-1.74683 21.95179,-2.08386 36.10655,-2.08386c20.31678,0 36.78679,3.69735 36.78679,8.25826z" fill="url(#color-29)"/><path d="M142.48134,78.38783l25.86342,-43.00596l6.0231,-5.60586l-27.86342,48.50596z" fill="url(#color-30)"/><path d="M152.48134,77.38783l25.86342,-43.00596l6.0231,-5.60586l-27.86342,48.50596z" fill="url(#color-31)"/><path d="M136.98134,77.88783l25.86342,-43.00596l6.0231,-5.60586l-27.86342,48.50596z" fill="url(#color-32)"/><path d="M125.14815,73.91051l33.57325,-37.29968l6.97964,-4.35752l-36.58314,42.3187z" fill="url(#color-33)"/><path d="M117.28559,67.49825l39.638,-30.77756l7.64001,-3.05511l-43.4877,35.18549z" fill="url(#color-34)"/><path d="M163.17372,80.88458l17.60011,-46.99644l4.90164,-6.60888l-18.56518,52.76867z" fill="url(#color-35)"/><path d="M171.50851,85.2199l16.13738,-47.51857l4.69478,-6.7574l-16.92337,53.31789z" fill="url(#color-36)"/></g><path d="M196.6746,29.91427c0,10.21727 -6.29822,20 -9.75,20c-3.29008,0 -29.98641,-3.02491 -30.2318,-12.57753c-0.01206,-0.46948 -5.0182,-1.44385 -5.0182,-1.92247c0,-10.21727 31.79822,-22.5 35.25,-22.5c0.67037,0 10.31609,-0.1876 10.92144,0.39071c2.51168,2.39943 -1.17144,8.37632 -1.17144,16.60929z" fill="url(#color-37)"/></g><g data-paper-data="{&quot;index&quot;:null}" stroke="none" stroke-width="0"><g><path d="M395.68664,92.8412c0,0 8.42528,8.35306 5.88992,10.40598c-0.68568,0.55521 -17.8097,-14.39604 -21.58606,-15.825c-1.93749,-0.73313 18.97976,18.80284 18.53315,19.15198c-0.61254,0.47886 -3.86151,2.43353 -8.13827,-1.44938c-3.98855,-3.62123 -9.00128,-13.1012 -10.11108,-12.63833c-2.34646,0.97864 11.27168,18.86549 9.96749,17.41714c-1.75597,-1.95006 -1.79462,4.15772 -6.18823,0.14254c-6.43723,-5.88276 -17.63644,-22.02949 -19.53492,-22.71875c-2.18361,-0.79279 4.95973,13.63001 10.19926,21.42745c4.08294,6.07621 6.42067,5.5763 6.11841,7.31674c-0.61831,3.56036 -13.38738,-19.51197 -19.48079,-22.12151c-2.9209,-1.2509 13.14071,18.14937 12.70336,22.90242c-0.19721,2.14331 -11.81727,-11.52912 -16.53247,-13.93472c-3.95777,-2.01918 8.86969,19.29737 8.633,19.36391c-3.70852,1.0426 -14.81258,-21.72073 -21.82416,-21.94274c-0.46833,-0.01483 3.19866,-2.82967 4.47859,-0.99202c4.28669,6.15455 12.44859,23.62792 10.86137,23.85254c-2.86671,0.40569 -12.16816,-17.37721 -15.5818,-15.76385c-1.01842,0.48132 8.90868,17.77541 7.76329,17.73846c-2.74018,-0.0884 -9.61279,-14.37704 -12.5263,-14.8078c-1.32358,-0.19569 7.16052,16.42401 7.22828,19.01232c0.0849,3.24302 -3.95946,-7.08836 -11.44745,-16.2715c-1.56292,-1.91674 6.31128,19.56408 4.66519,17.51265c-1.59298,-1.98523 -14.94434,-23.03756 -16.91444,-23.42319c-1.17724,-0.23043 9.60313,24.77719 8.3709,24.96606c-2.36148,0.36197 -7.70392,-15.55765 -11.29581,-17.07169c-3.51732,-1.48261 5.51358,20.62054 2.56165,21.32021c-0.42866,0.1016 -1.3752,-0.17188 -2.58245,-4.3111c-2.0115,-6.89673 -4.74675,-19.19692 -7.01607,-19.29324c-1.63081,-0.06921 3.12349,21.21165 1.46717,24.2157c-1.3386,2.42783 -4.07531,-19.9109 -5.74615,-20.7382c-1.21637,-0.60227 1.81896,14.14912 1.08311,18.20527c-0.84458,4.65557 -3.8877,-2.28736 -4.1639,-2.95102c-1.68557,-4.05006 -3.82397,-13.23543 -3.82397,-13.23543l-10.26776,-78.62755l19.92152,-2.00906z" fill="url(#color-38)"/><path d="M296.76602,41.27637c2.23215,-5.95808 34.57864,18.60352 38.21692,18.71527c1.52281,0.04677 4.1498,-2.17966 10.86155,6.03324c10.32531,12.63468 0.01993,21.88849 1.16032,25.97283c1.17204,4.19773 -10.00358,-8.23992 -10.14229,-2.79071c-0.36141,14.19771 -12.38075,11.62579 -18.65395,11.4331c-6.2732,-0.19269 -15.3459,18.8829 -14.98449,4.6852c0.1518,-5.96345 -8.07463,-59.73394 -6.45805,-64.04893z" fill="url(#color-39)"/><path d="M348.35934,86.79434c16.47365,0.50601 33.30906,1.40811 41.96111,3.66926c3.76652,0.98435 5.98217,2.22627 5.94197,3.80518c-0.06167,2.42289 -13.20572,12.14318 -28.25648,16.92697c-10.74563,3.41544 -23.13035,2.00199 -33.61498,2.52307c-6.38282,0.31722 -17.69077,8.11617 -22.47397,7.96925c-23.64515,-0.72629 -6.74345,-21.57699 -6.61093,-26.78281c0.13252,-5.20583 19.40813,-8.8372 43.05328,-8.11091z" fill="url(#color-40)"/><path d="M351.94029,113.42477l-31.01877,-56.36079l6.84695,6.61384l28.85091,50.01159z" fill="url(#color-41)"/><path d="M340.33111,111.92588l-31.01876,-56.36079l6.84695,6.61384l28.85091,50.01159z" fill="url(#color-42)"/><path d="M360.6835,113.12218l-31.01877,-56.36079l6.84695,6.61385l28.85091,50.01159z" fill="url(#color-43)"/><path d="M372.28294,109.81176l-41.34674,-49.61036l7.99647,5.22318l37.98959,43.77405z" fill="url(#color-44)"/><path d="M381.80864,103.56936l-49.58969,-41.71534l8.80285,3.76022l45.23739,36.54651z" fill="url(#color-45)"/><path d="M327.90741,114.70381l-20.07341,-60.89385l5.51263,7.71861l19.11793,54.27093z" fill="url(#color-46)"/><path d="M318.11706,119.2166l-18.14666,-61.46204l5.26756,7.88072l17.4004,54.81459z" fill="url(#color-47)"/></g><path d="M336.08546,59.33192c8.50076,0 15.84471,-5.81784 24.41552,-1.85829c10.34923,4.78114 36.73531,28.36141 39.25714,36.06524c0.37615,1.1491 -15.42266,-8.32143 -15.42266,-7.45695c0,8.75948 -20.33169,3.74579 -37.09236,5.13809c-2.35501,0.19563 8.11242,25.2096 6.68899,27.34378c-1.69968,2.54838 -15.24375,-17.73186 -17.84662,-17.73186c-14.55707,0 -27.13732,34.72111 -33.08811,27.79031c-2.34621,-2.7326 -6.16189,-46.29969 -6.16189,-49.5403c0,-11.45991 18.95353,-19.75 39.25,-19.75z" fill="url(#color-48)"/><g><path d="M375.11486,58.58611c0,0 8.60278,9.83238 7.09499,11.16835c-1.07179,0.94966 -11.95209,-6.84623 -13.53795,-5.50575c-1.37195,1.15968 8.39813,8.71728 6.46383,9.68326c-2.38696,1.19203 -15.76027,-14.97858 -13.79366,-11.01154c1.87999,3.7923 10.51297,17.55678 8.63601,16.0064c-4.41975,-3.65072 -13.38341,-17.01573 -14.34562,-14.31135c-0.6023,1.69282 10.10005,14.41284 8.01451,14.6354c-1.66184,0.17735 -5.68811,-0.69486 -8.85183,-2.43873c-2.6267,-1.44786 1.12368,8.03653 -1.50376,7.9058c-2.4853,-0.12365 -11.41391,-9.90292 -11.73207,-9.80103c-1.51234,0.48436 7.13616,9.97884 5.05263,10.47352c-2.35205,0.55843 0.84968,0.76742 -3.68622,-2.67739c-1.02577,-0.77903 -1.6196,5.21153 -4.98158,2.95681c-2.19874,-1.47459 -7.58446,-11.62637 -8.09422,-11.62032c-2.81121,0.03337 8.18383,17.11974 6.06243,15.26176c-2.37295,-2.0783 -5.9842,-1.86436 -9.16746,-6.41605c-2.31721,-3.31333 -4.40762,-12.20762 -5.62852,-11.39087c-1.05997,0.7091 8.83198,14.37633 8.75883,18.81995c-0.05792,3.51819 -7.94504,-13.94891 -11.33675,-14.43967c-2.07376,-0.30006 7.53768,17.20412 6.8228,17.18946c-3.02909,-0.06208 -14.1591,-20.44869 -12.77733,-16.30283c1.45655,4.37022 4.33185,16.67239 2.08248,17.76743c-2.04841,0.99721 -4.69346,-13.16653 -8.29415,-15.48851c-2.60557,-1.68026 1.56457,13.88884 -0.62146,15.38748c-2.20787,1.51361 -10.75899,-11.03459 -10.75899,-11.03459l-10.53397,-68.55699l17.06001,-2.29449z" fill="url(#color-49)"/><path d="M289.05807,17.10456c1.78623,-5.27592 30.09461,15.35631 33.22075,15.35631c1.30845,0 3.51524,-2.01973 9.45721,4.98963c9.14109,10.78316 0.49549,19.16135 1.56385,22.70625c1.09802,3.64331 -8.76881,-6.9445 -8.76881,-2.17035c0,12.43885 -10.3756,10.51051 -15.76576,10.51051c-5.39017,0 -12.76277,16.94335 -12.76277,4.50451c0,-5.22468 -8.2381,-52.07589 -6.94447,-55.89685z" fill="url(#color-50)"/><path d="M334.78933,55.9894c14.15476,0 28.62878,0.33703 36.10655,2.08386c3.25531,0.76045 5.18474,1.78808 5.18474,3.1714c0,2.12273 -11.07259,10.98563 -23.89009,15.57823c-9.15117,3.27893 -19.81516,2.37458 -28.80551,3.11268c-5.47313,0.44934 -15.0113,7.58086 -19.12121,7.58086c-20.31678,0 -6.26127,-18.70786 -6.26127,-23.26877c0,-4.56091 16.47001,-8.25825 36.78679,-8.25825z" fill="url(#color-51)"/><path d="M338.00562,78.78197l-27.86342,-48.50596l6.0231,5.60586l25.86342,43.00596z" fill="url(#color-52)"/><path d="M328.00562,77.78197l-27.86342,-48.50596l6.0231,5.60586l25.86342,43.00596z" fill="url(#color-53)"/><path d="M343.50562,78.28197l-27.86342,-48.50596l6.0231,5.60586l25.86342,43.00596z" fill="url(#color-54)"/><path d="M355.39215,75.07201l-36.58314,-42.3187l6.97965,4.35752l33.57325,37.29968z" fill="url(#color-55)"/><path d="M363.43415,69.35107l-43.48769,-35.18549l7.64,3.05511l39.63799,30.77756z" fill="url(#color-56)"/><path d="M317.39977,80.54792l-18.56519,-52.76867l4.90164,6.60889l17.60011,46.99644z" fill="url(#color-57)"/><path d="M309.09275,84.76183l-16.92337,-53.31789l4.69478,6.7574l16.13738,47.51856z" fill="url(#color-58)"/></g><path d="M286.66401,13.80498c0.60536,-0.57831 10.25108,-0.39071 10.92145,-0.39071c3.45178,0 35.25,12.28273 35.25,22.5c0,0.47862 -5.00614,1.45299 -5.0182,1.92247c-0.24539,9.55262 -26.94171,12.57753 -30.2318,12.57753c-3.45178,0 -9.75,-9.78273 -9.75,-20c0,-8.23298 -3.68312,-14.20986 -1.17145,-16.60929z" fill="url(#color-59)"/></g></g></g></svg>