<svg version="1.1" xmlns="http://www.w3.org/2000/svg" xmlns:xlink="http://www.w3.org/1999/xlink" width="301.2755" height="374.98936" viewBox="0,0,301.2755,374.98936"><defs><linearGradient x1="145.63553" y1="172.18882" x2="169.65956" y2="172.18882" gradientUnits="userSpaceOnUse" id="color-1"><stop offset="0" stop-color="#f3dd93"/><stop offset="1" stop-color="#bd8946"/></linearGradient><linearGradient x1="308.375" y1="297.98764" x2="244.375" y2="297.98764" gradientUnits="userSpaceOnUse" id="color-2"><stop offset="0" stop-color="#a02400"/><stop offset="1" stop-color="#6d2000"/></linearGradient><linearGradient x1="174.8735" y1="297.48914" x2="238.8735" y2="297.48914" gradientUnits="userSpaceOnUse" id="color-3"><stop offset="0" stop-color="#a02400"/><stop offset="1" stop-color="#6d2000"/></linearGradient><linearGradient x1="181.375" y1="180.95461" x2="200.875" y2="180.95461" gradientUnits="userSpaceOnUse" id="color-4"><stop offset="0" stop-color="#bd8946"/><stop offset="1" stop-color="#bd8946" stop-opacity="0"/></linearGradient><linearGradient x1="262.375" y1="179.20461" x2="311.375" y2="179.20461" gradientUnits="userSpaceOnUse" id="color-5"><stop offset="0" stop-color="#bd8946" stop-opacity="0"/><stop offset="1" stop-color="#bd8946"/></linearGradient><linearGradient x1="241.875" y1="77.70126" x2="241.875" y2="127.20126" gradientUnits="userSpaceOnUse" id="color-6"><stop offset="0" stop-color="#bd8946" stop-opacity="0"/><stop offset="1" stop-color="#bd8946"/></linearGradient><linearGradient x1="184.375" y1="78.23859" x2="204.375" y2="78.23859" gradientUnits="userSpaceOnUse" id="color-7"><stop offset="0" stop-color="#bd8946"/><stop offset="1" stop-color="#bd8946" stop-opacity="0"/></linearGradient><linearGradient x1="301.89839" y1="159.54473" x2="287.96263" y2="160.88425" gradientUnits="userSpaceOnUse" id="color-8"><stop offset="0" stop-color="#e8c290"/><stop offset="1" stop-color="#e8c290" stop-opacity="0"/></linearGradient><linearGradient x1="288.81854" y1="150.91868" x2="274.88001" y2="149.60818" gradientUnits="userSpaceOnUse" id="color-9"><stop offset="0" stop-color="#e8c290"/><stop offset="1" stop-color="#e8c290" stop-opacity="0"/></linearGradient><linearGradient x1="193.56063" y1="162.34383" x2="207.38435" y2="160.12915" gradientUnits="userSpaceOnUse" id="color-10"><stop offset="0" stop-color="#e8c290"/><stop offset="1" stop-color="#e8c290" stop-opacity="0"/></linearGradient><linearGradient x1="193.91405" y1="68.95125" x2="235.83595" y2="68.95125" gradientUnits="userSpaceOnUse" id="color-11"><stop offset="0" stop-color="#113a9e"/><stop offset="1" stop-color="#002573"/></linearGradient><radialGradient cx="246.23613" cy="83.84831" r="63.06306" gradientUnits="userSpaceOnUse" id="color-12"><stop offset="0" stop-color="#c97979"/><stop offset="1" stop-color="#962a26"/></radialGradient><linearGradient x1="271.375" y1="94.23859" x2="304.375" y2="94.23859" gradientUnits="userSpaceOnUse" id="color-13"><stop offset="0" stop-color="#bd8946" stop-opacity="0"/><stop offset="1" stop-color="#bd8946"/></linearGradient><radialGradient cx="236.9553" cy="139.87357" r="11.56974" gradientUnits="userSpaceOnUse" id="color-14"><stop offset="0" stop-color="#ff0000"/><stop offset="1" stop-color="#a02400"/></radialGradient><linearGradient x1="204.875" y1="125.95126" x2="204.875" y2="142.95126" gradientUnits="userSpaceOnUse" id="color-15"><stop offset="0" stop-color="#720000" stop-opacity="0"/><stop offset="1" stop-color="#720000"/></linearGradient><linearGradient x1="278.51225" y1="120.72577" x2="278.51225" y2="140.0591" gradientUnits="userSpaceOnUse" id="color-16"><stop offset="0" stop-color="#680000" stop-opacity="0"/><stop offset="1" stop-color="#680000"/></linearGradient><linearGradient x1="211.68187" y1="159.62114" x2="229.06813" y2="164.28138" gradientUnits="userSpaceOnUse" id="color-17"><stop offset="0" stop-color="#691900"/><stop offset="1" stop-color="#691900" stop-opacity="0"/></linearGradient><linearGradient x1="264.84122" y1="158.59522" x2="247.92227" y2="164.73924" gradientUnits="userSpaceOnUse" id="color-18"><stop offset="0" stop-color="#691900"/><stop offset="1" stop-color="#691900" stop-opacity="0"/></linearGradient><linearGradient x1="185.60724" y1="49.61117" x2="180.86137" y2="82.7733" gradientUnits="userSpaceOnUse" id="color-19"><stop offset="0" stop-color="#824b34" stop-opacity="0"/><stop offset="1" stop-color="#824b34"/></linearGradient><linearGradient x1="144.06275" y1="42.82465" x2="98.70102" y2="102.35852" gradientUnits="userSpaceOnUse" id="color-20"><stop offset="0" stop-color="#ecd486"/><stop offset="1" stop-color="#ba998b"/></linearGradient><linearGradient x1="161.0857" y1="62.12554" x2="178.20632" y2="68.1692" gradientUnits="userSpaceOnUse" id="color-21"><stop offset="0" stop-color="#aa7159" stop-opacity="0"/><stop offset="1" stop-color="#aa7159"/></linearGradient><linearGradient x1="134.13241" y1="69.63462" x2="128.07179" y2="87.44323" gradientUnits="userSpaceOnUse" id="color-22"><stop offset="0" stop-color="#aa7159" stop-opacity="0"/><stop offset="1" stop-color="#aa7159"/></linearGradient><linearGradient x1="149.68148" y1="62.76062" x2="124.94063" y2="89.66319" gradientUnits="userSpaceOnUse" id="color-23"><stop offset="0" stop-color="#53220e" stop-opacity="0"/><stop offset="1" stop-color="#53220e"/></linearGradient><linearGradient x1="158.81944" y1="64.7786" x2="134.0786" y2="91.68118" gradientUnits="userSpaceOnUse" id="color-24"><stop offset="0" stop-color="#53220e" stop-opacity="0"/><stop offset="1" stop-color="#53220e"/></linearGradient><linearGradient x1="143.28668" y1="59.89934" x2="118.54583" y2="86.80192" gradientUnits="userSpaceOnUse" id="color-25"><stop offset="0" stop-color="#53220e" stop-opacity="0"/><stop offset="1" stop-color="#53220e"/></linearGradient><linearGradient x1="139.6834" y1="59.41831" x2="111.57811" y2="80.83708" gradientUnits="userSpaceOnUse" id="color-26"><stop offset="0" stop-color="#824b34" stop-opacity="0"/><stop offset="1" stop-color="#824b34"/></linearGradient><linearGradient x1="137.32383" y1="57.1819" x2="107.01221" y2="72.80486" gradientUnits="userSpaceOnUse" id="color-27"><stop offset="0" stop-color="#53220e" stop-opacity="0"/><stop offset="1" stop-color="#53220e"/></linearGradient><linearGradient x1="162.45079" y1="66.31551" x2="141.77605" y2="97.54637" gradientUnits="userSpaceOnUse" id="color-28"><stop offset="0" stop-color="#824b34" stop-opacity="0"/><stop offset="1" stop-color="#824b34"/></linearGradient><linearGradient x1="167.32426" y1="72.74528" x2="147.40916" y2="104.60802" gradientUnits="userSpaceOnUse" id="color-29"><stop offset="0" stop-color="#53220e" stop-opacity="0"/><stop offset="1" stop-color="#53220e"/></linearGradient><linearGradient x1="152.60245" y1="47.51681" x2="138.47572" y2="86.40858" gradientUnits="userSpaceOnUse" id="color-30"><stop offset="0" stop-color="#630505"/><stop offset="1" stop-color="#630505" stop-opacity="0"/></linearGradient><linearGradient x1="164.66975" y1="20.28057" x2="124.38963" y2="71.36783" gradientUnits="userSpaceOnUse" id="color-31"><stop offset="0" stop-color="#ecd486"/><stop offset="1" stop-color="#ba998b"/></linearGradient><linearGradient x1="178.42865" y1="38.61067" x2="192.93522" y2="44.36549" gradientUnits="userSpaceOnUse" id="color-32"><stop offset="0" stop-color="#aa7159" stop-opacity="0"/><stop offset="1" stop-color="#aa7159"/></linearGradient><linearGradient x1="154.70351" y1="44.76649" x2="149.08123" y2="60.24496" gradientUnits="userSpaceOnUse" id="color-33"><stop offset="0" stop-color="#aa7159" stop-opacity="0"/><stop offset="1" stop-color="#aa7159"/></linearGradient><linearGradient x1="168.65189" y1="38.86983" x2="146.81855" y2="61.84447" gradientUnits="userSpaceOnUse" id="color-34"><stop offset="0" stop-color="#53220e" stop-opacity="0"/><stop offset="1" stop-color="#53220e"/></linearGradient><linearGradient x1="176.42412" y1="40.88093" x2="154.59078" y2="63.85555" gradientUnits="userSpaceOnUse" id="color-35"><stop offset="0" stop-color="#53220e" stop-opacity="0"/><stop offset="1" stop-color="#53220e"/></linearGradient><linearGradient x1="164.73458" y1="36.77973" x2="142.90124" y2="59.75436" gradientUnits="userSpaceOnUse" id="color-36"><stop offset="0" stop-color="#53220e" stop-opacity="0"/><stop offset="1" stop-color="#53220e"/></linearGradient><linearGradient x1="160.17579" y1="35.67338" x2="135.5966" y2="53.74483" gradientUnits="userSpaceOnUse" id="color-37"><stop offset="0" stop-color="#824b34" stop-opacity="0"/><stop offset="1" stop-color="#824b34"/></linearGradient><linearGradient x1="158.21076" y1="33.64792" x2="131.88458" y2="46.57253" gradientUnits="userSpaceOnUse" id="color-38"><stop offset="0" stop-color="#53220e" stop-opacity="0"/><stop offset="1" stop-color="#53220e"/></linearGradient><linearGradient x1="179.49479" y1="42.32547" x2="161.03609" y2="69.20703" gradientUnits="userSpaceOnUse" id="color-39"><stop offset="0" stop-color="#824b34" stop-opacity="0"/><stop offset="1" stop-color="#824b34"/></linearGradient><linearGradient x1="183.50917" y1="48.09876" x2="165.68526" y2="75.55503" gradientUnits="userSpaceOnUse" id="color-40"><stop offset="0" stop-color="#53220e" stop-opacity="0"/><stop offset="1" stop-color="#53220e"/></linearGradient><linearGradient x1="196.84549" y1="15.83576" x2="184.25057" y2="50.51035" gradientUnits="userSpaceOnUse" id="color-41"><stop offset="0" stop-color="#630505"/><stop offset="1" stop-color="#630505" stop-opacity="0"/></linearGradient><linearGradient x1="336.83026" y1="39.39913" x2="378.78434" y2="94.92327" gradientUnits="userSpaceOnUse" id="color-42"><stop offset="0" stop-color="#ecd486"/><stop offset="1" stop-color="#ba998b"/></linearGradient><linearGradient x1="319.04303" y1="55.71414" x2="301.80962" y2="60.19637" gradientUnits="userSpaceOnUse" id="color-43"><stop offset="0" stop-color="#aa7159" stop-opacity="0"/><stop offset="1" stop-color="#aa7159"/></linearGradient><linearGradient x1="345.33868" y1="63.84561" x2="350.46053" y2="80.05581" gradientUnits="userSpaceOnUse" id="color-44"><stop offset="0" stop-color="#aa7159" stop-opacity="0"/><stop offset="1" stop-color="#aa7159"/></linearGradient><linearGradient x1="330.29372" y1="56.8867" x2="353.44918" y2="82.20275" gradientUnits="userSpaceOnUse" id="color-45"><stop offset="0" stop-color="#53220e" stop-opacity="0"/><stop offset="1" stop-color="#53220e"/></linearGradient><linearGradient x1="321.1548" y1="58.20152" x2="344.31025" y2="83.51758" gradientUnits="userSpaceOnUse" id="color-46"><stop offset="0" stop-color="#53220e" stop-opacity="0"/><stop offset="1" stop-color="#53220e"/></linearGradient><linearGradient x1="336.76028" y1="54.67376" x2="359.91573" y2="79.98982" gradientUnits="userSpaceOnUse" id="color-47"><stop offset="0" stop-color="#53220e" stop-opacity="0"/><stop offset="1" stop-color="#53220e"/></linearGradient><linearGradient x1="340.34849" y1="54.43606" x2="367.10133" y2="75.03845" gradientUnits="userSpaceOnUse" id="color-48"><stop offset="0" stop-color="#824b34" stop-opacity="0"/><stop offset="1" stop-color="#824b34"/></linearGradient><linearGradient x1="342.79247" y1="52.56619" x2="372.01232" y2="68.11501" gradientUnits="userSpaceOnUse" id="color-49"><stop offset="0" stop-color="#53220e" stop-opacity="0"/><stop offset="1" stop-color="#53220e"/></linearGradient><linearGradient x1="317.48701" y1="59.37974" x2="336.40763" y2="88.34128" gradientUnits="userSpaceOnUse" id="color-50"><stop offset="0" stop-color="#824b34" stop-opacity="0"/><stop offset="1" stop-color="#824b34"/></linearGradient><linearGradient x1="312.35038" y1="64.85719" x2="330.48851" y2="94.3421" gradientUnits="userSpaceOnUse" id="color-51"><stop offset="0" stop-color="#53220e" stop-opacity="0"/><stop offset="1" stop-color="#53220e"/></linearGradient><linearGradient x1="328.152" y1="43.13155" x2="340.21901" y2="78.57993" gradientUnits="userSpaceOnUse" id="color-52"><stop offset="0" stop-color="#630505"/><stop offset="1" stop-color="#630505" stop-opacity="0"/></linearGradient><linearGradient x1="317.55047" y1="18.19122" x2="354.89187" y2="65.90961" gradientUnits="userSpaceOnUse" id="color-53"><stop offset="0" stop-color="#ecd486"/><stop offset="1" stop-color="#ba998b"/></linearGradient><linearGradient x1="303.03988" y1="33.81356" x2="288.40663" y2="38.17699" gradientUnits="userSpaceOnUse" id="color-54"><stop offset="0" stop-color="#aa7159" stop-opacity="0"/><stop offset="1" stop-color="#aa7159"/></linearGradient><linearGradient x1="326.20842" y1="40.56618" x2="331.01095" y2="54.67422" gradientUnits="userSpaceOnUse" id="color-55"><stop offset="0" stop-color="#aa7159" stop-opacity="0"/><stop offset="1" stop-color="#aa7159"/></linearGradient><linearGradient x1="312.69903" y1="34.56426" x2="333.17088" y2="56.22146" gradientUnits="userSpaceOnUse" id="color-56"><stop offset="0" stop-color="#53220e" stop-opacity="0"/><stop offset="1" stop-color="#53220e"/></linearGradient><linearGradient x1="304.91153" y1="35.9455" x2="325.38339" y2="57.6027" gradientUnits="userSpaceOnUse" id="color-57"><stop offset="0" stop-color="#53220e" stop-opacity="0"/><stop offset="1" stop-color="#53220e"/></linearGradient><linearGradient x1="316.67684" y1="32.90769" x2="337.1487" y2="54.56489" gradientUnits="userSpaceOnUse" id="color-58"><stop offset="0" stop-color="#53220e" stop-opacity="0"/><stop offset="1" stop-color="#53220e"/></linearGradient><linearGradient x1="321.24099" y1="32.16289" x2="344.6698" y2="49.59155" gradientUnits="userSpaceOnUse" id="color-59"><stop offset="0" stop-color="#824b34" stop-opacity="0"/><stop offset="1" stop-color="#824b34"/></linearGradient><linearGradient x1="323.28431" y1="30.46026" x2="348.69388" y2="43.38993" gradientUnits="userSpaceOnUse" id="color-60"><stop offset="0" stop-color="#53220e" stop-opacity="0"/><stop offset="1" stop-color="#53220e"/></linearGradient><linearGradient x1="301.80293" y1="37.07111" x2="318.74467" y2="62.03461" gradientUnits="userSpaceOnUse" id="color-61"><stop offset="0" stop-color="#824b34" stop-opacity="0"/><stop offset="1" stop-color="#824b34"/></linearGradient><linearGradient x1="297.54836" y1="42.00853" x2="313.83393" y2="67.45103" gradientUnits="userSpaceOnUse" id="color-62"><stop offset="0" stop-color="#53220e" stop-opacity="0"/><stop offset="1" stop-color="#53220e"/></linearGradient><linearGradient x1="285.93807" y1="12.51607" x2="296.69661" y2="44.12065" gradientUnits="userSpaceOnUse" id="color-63"><stop offset="0" stop-color="#630505"/><stop offset="1" stop-color="#630505" stop-opacity="0"/></linearGradient><linearGradient x1="142.63253" y1="187.20383" x2="223.71361" y2="187.20383" gradientUnits="userSpaceOnUse" id="color-64"><stop offset="0" stop-color="#f3dd93"/><stop offset="1" stop-color="#bd8946"/></linearGradient><radialGradient cx="207.94784" cy="160.17681" r="63.31331" gradientUnits="userSpaceOnUse" id="color-65"><stop offset="0" stop-color="#c97979"/><stop offset="1" stop-color="#962a26"/></radialGradient><radialGradient cx="207.19709" cy="126.39302" r="22.52252" gradientUnits="userSpaceOnUse" id="color-66"><stop offset="0" stop-color="#c97979"/><stop offset="1" stop-color="#962a26"/></radialGradient><linearGradient x1="241.73163" y1="81.34798" x2="279.26917" y2="81.34798" gradientUnits="userSpaceOnUse" id="color-67"><stop offset="0" stop-color="#513030"/><stop offset="1" stop-color="#962a26"/></linearGradient><linearGradient x1="178.375" y1="129.23859" x2="209.375" y2="129.23859" gradientUnits="userSpaceOnUse" id="color-68"><stop offset="0" stop-color="#513030"/><stop offset="1" stop-color="#962a26"/></linearGradient><linearGradient x1="213.375" y1="154.23859" x2="222.375" y2="154.23859" gradientUnits="userSpaceOnUse" id="color-69"><stop offset="0" stop-color="#513030"/><stop offset="1" stop-color="#962a26"/></linearGradient></defs><g transform="translate(-88.8752,-6.28432)"><g data-paper-data="{&quot;isPaintingLayer&quot;:true}" fill-rule="nonzero" stroke-linecap="butt" stroke-linejoin="miter" stroke-miterlimit="10" stroke-dasharray="" stroke-dashoffset="0" style="mix-blend-mode: normal"><path d="M178.66857,160.17681c0,15.75587 -20.39298,54.05405 -27.02703,54.05405c-4.18936,0 -10.57687,-3.28809 -13.60901,-11.8925c-1.7694,-5.02107 -1.406,-13.8329 -1.406,-19.63903c0,-8.38563 1.87133,-20.80449 13.05062,-31.99284c9.82561,-9.83358 28.89117,-19.05821 31.99443,-19.05821c6.63405,0 -3.003,12.77266 -3.003,28.52853z" fill="url(#color-1)" stroke="none" stroke-width="0"/><path d="M244.375,380.27067v-164.56607h64v164.56607z" data-paper-data="{&quot;index&quot;:null}" fill="url(#color-2)" stroke="none" stroke-width="0"/><path d="M174.8735,381.27368v-167.56907h64v167.56907z" fill="url(#color-3)" stroke="none" stroke-width="0"/><path d="M228.03826,109.70876c0,0 1.79783,-15.54805 -3.15856,-31.71871c-1.92065,-6.26627 -6.48529,-20.02271 -10.89227,-33.16191c-5.28478,-15.75629 -10.34285,-30.62495 -10.34285,-30.62495l8.77426,-7.53557c0,0 8.24075,13.82763 9.1149,15.73112c0.48852,1.06377 7.5187,13.8074 7.98453,15.09966c2.01354,5.58569 9.25179,9.51028 12.85225,17.00382c0.34256,0.71296 -2.29803,13.93559 -1.91991,14.66809c4.45993,8.64009 -7.60396,1.07887 -5.55094,6.41333c2.86373,7.441 6.88509,19.08782 6.88509,19.08782z" fill="#f4f4f4" stroke="#004a4a" stroke-width="0.5"/><path d="M171.90131,225.6513c0,0 9.16269,-55.19085 9.43236,-82.45709c0.34375,-34.75679 -4.45867,-117.05199 -4.45867,-117.05199c0,0 14.45001,-8.19568 21.6873,-9.22743c6.45813,-0.92068 11.14501,13.58545 13.32646,16.90553c9.07627,13.81378 16.45487,52.51736 25.43361,52.51736c8.74656,0 16.92917,-36.86781 28.66234,-48.45912c5.35059,-5.2859 8.84389,-24.01456 13.46537,-25.29765c2.25829,-0.62698 5.61705,-0.61983 10.02647,0.81073c6.57708,2.13382 14.26688,6.20968 14.26688,6.20968c0,0 -0.82592,45.7382 -0.02999,68.60967c0.41905,12.04171 -0.52409,26.47824 1.34264,45.52153c3.58731,36.59583 14.81894,81.93242 14.81894,81.93242c0,0 1.38201,21.95598 0.07822,24.22859c-3.83499,6.68471 -5.10349,3.93487 -22.5311,8.47959c-11.06192,2.88469 -54.26234,1.93531 -61.23367,1.87516c-7.60175,-0.06559 -33.53904,-1.99897 -48.90677,-7.65808c-3.55641,-2.40521 -5.43424,-1.53909 -9.58099,-3.11825c-4.59937,-1.75153 -9.29936,-5.32064 -9.29936,-5.32064z" fill="#ffefda" stroke="none" stroke-width="0"/><path d="M200.875,180.95461c0,27.20002 9.13478,52.25 3.75,52.25c-0.22026,0 7.05532,12.02334 6.82746,12.06625c-2.21686,0.4175 -14.88967,-0.08103 -22.98077,0.33126c-5.81744,0.29643 -15.33417,-4.98715 -17.93441,-8.40183c-2.49888,-3.28158 0.83772,-8.26608 0.83772,-15.74568c0,-9.78364 3.77635,-23.43458 5.66145,-39.46619c3.35577,-28.53875 6.14064,-60.28381 9.58855,-60.28381c5.38478,0 14.25,32.04998 14.25,59.25z" fill="url(#color-4)" stroke="none" stroke-width="0"/><path d="M319.875,234.70461c0,10.89562 -2.85167,11.61256 -12.31649,12.87538c-12.60411,1.68168 -33.45563,1.62462 -41.18351,1.62462c-13.53098,0 -4,-44.5949 -4,-70c0,-25.4051 14.46902,-65.5 28,-65.5c13.53098,0 29.5,95.5949 29.5,121z" fill="url(#color-5)" stroke="none" stroke-width="0"/><path d="M182.875,127.20126l-2,-74.5l120,-1.5l3,73c0,0 -49.2474,9.7582 -70.99263,10.29734c-17.78775,0.44102 -50.00737,-7.29734 -50.00737,-7.29734z" fill="url(#color-6)" stroke="none" stroke-width="0"/><path d="M181.375,120.73859c0,0 -7,-22.93207 -7,-34c0,-14.82072 6,-62 6,-62l24,13v81z" fill="url(#color-7)" stroke="none" stroke-width="0"/><path d="M295.71147,131.75922c3.84826,-0.3699 5.92455,-11.52407 7.47021,4.55615c0.50767,5.28152 0.30833,62.85576 -5.15618,73.51348c-11.17286,21.79097 -32.9157,-0.28476 -35.5,-0.03635c-3.84826,0.3699 26.98279,-32.82802 25.43713,-48.90823c-1.54566,-16.08022 3.90059,-28.75514 7.74884,-29.12504z" data-paper-data="{&quot;index&quot;:null}" fill="url(#color-8)" stroke="none" stroke-width="0"/><path d="M287.97831,122.4651c3.84902,0.36188 7.98999,-10.2012 6.47783,5.8822c-0.49667,5.28256 -11.54161,61.78781 -18.91655,71.22487c-15.07895,19.29519 -32.27236,-6.48224 -34.85717,-6.72526c-3.84902,-0.36188 32.68544,-27.15532 34.1976,-43.23872c1.51216,-16.0834 9.24927,-27.50497 13.09829,-27.14309z" data-paper-data="{&quot;index&quot;:null}" fill="url(#color-9)" stroke="none" stroke-width="0"/><path d="M207.38435,160.12915c2.55548,15.95092 40.75594,40.31032 36.93862,40.92188c-2.56352,0.4107 -18.04319,27.25225 -34.3457,8.97912c-7.97337,-8.93718 -22.67164,-64.60399 -23.51098,-69.84304c-2.55548,-15.95092 2.26404,-5.67967 6.08135,-6.29124c3.81731,-0.61157 12.28122,10.28235 14.83671,26.23327z" fill="url(#color-10)" stroke="none" stroke-width="0"/><path d="M232.20163,85.5343c0,0 -6.38972,8.88661 -3.485,1.46152c0.52614,-1.34492 -1.206,-26.06408 -0.24946,-28.07015c2.8675,-6.01377 6.70213,-11.63966 11.89586,-18.4915c10.56573,-13.93883 22.61759,-29.74344 22.61759,-29.74344c0,0 2.91301,-4.26768 5.63946,-3.02886c1.22364,0.55599 9.30508,1.95777 10.77986,5.9038c2.31102,6.18354 -0.13986,9.20351 -0.13986,9.20351c0,0 -29.18369,37.40859 -38.55158,53.62804c-7.52217,13.0238 -4.84341,7.72236 -4.84341,7.72236z" data-paper-data="{&quot;index&quot;:null}" fill="#ffffff" stroke="#006a6a" stroke-width="0.5"/><path d="M204.51331,248.07361l-23.08239,-108.43127l14.80578,-2.23877l22.08239,111.43127z" fill="#113a9e" stroke="none" stroke-width="0"/><path d="M232.43682,88.86459l-38.02277,-72.4201l10.89914,-5.90658c0,0 21.43728,37.31922 27.40373,52.9151c0.4916,1.28499 5.94266,7.91233 6.34317,8.84732c1.09666,2.56013 -4.61098,1.32977 -2.53362,4.04913c6.33113,8.28775 -4.19051,0.10855 -4.19051,0.10855z" fill="url(#color-11)" stroke="none" stroke-width="0"/><path d="M198.375,136.45125c0,0 -20.54438,3.72624 -11.32545,-9.42886c4.07913,-5.82079 -2.1831,-7.31369 -2.32218,-9.91604c-0.05575,-1.04324 -5.26146,-2.80937 1.53883,-7.48623c14.44761,-17.46138 53.03702,-43.4643 62.13836,-60.7343c8.04215,-15.26019 24.97044,-40.93457 24.97044,-40.93457l18,4c0,0 -5.48158,-1.22042 -11.12482,10.48451c-2.29012,4.75007 -6.94218,9.32315 -8.46696,12.79334c-2.95374,6.72231 -17.40822,28.72215 -17.40822,28.72215c0,0 -11.59432,15.69904 -14.98651,19.85638c-0.93791,1.14947 -30.66926,25.02819 -31.00809,25.39855c-4.62327,5.05344 -3.28475,4.91393 -11.33791,11.76673c-8.28466,7.0498 9.54519,9.06342 2.60795,11.76412c-10.5919,4.12348 -6.80965,5.02071 -7.67251,3.26591c-5.67628,-11.54386 4.39707,-4.55169 4.39707,-4.55169z" fill="#113a9e" stroke="none" stroke-width="0"/><path d="M183.375,141.45126c0,0 -3.60491,2.92637 -3.92478,-1.87168c-0.34491,-5.17362 -0.57522,-31.12832 -0.57522,-31.12832c0,0 8.38199,6.26808 11.16354,7.49196c7.78257,3.42433 41.33646,17.50804 41.33646,17.50804l7,12z" fill="#a02400" stroke="none" stroke-width="0"/><path d="M309.2992,48.31495c0,16.1705 -28.61693,47.2973 -43.54354,47.2973c-14.92661,0 -82.58258,60.46479 -82.58258,44.29429c0,-16.1705 85.67399,-114.86486 100.6006,-114.86486c14.92661,0 25.52553,7.10277 25.52553,23.27327z" fill="url(#color-12)" stroke="none" stroke-width="0"/><path d="M312.375,69.23859c0,18.50154 -15.3873,58.5 -24.5,58.5c-9.1127,0 -24.5,-9.99846 -24.5,-28.5c0,-18.50154 12.3873,-61.5 21.5,-61.5c9.1127,0 27.5,12.99846 27.5,31.5z" fill="url(#color-13)" stroke="none" stroke-width="0"/><path d="M235.375,144.50389l7.94737,-14.47368l60.05263,-26.57895c0,0 2.19282,12.10783 1.8116,17.82604c-0.25386,3.80788 1.28307,11.05227 0.19627,14.2708c-0.42675,1.2638 -4.21839,1.06106 -4.21839,1.06106z" data-paper-data="{&quot;index&quot;:null}" fill="#a02400" stroke="none" stroke-width="0"/><path d="M206.375,175.45126l18,-46h13l-8,59z" fill="#a02400" stroke="none" stroke-width="0"/><path d="M248.375,189.45126l-8,-59h13l18,46z" data-paper-data="{&quot;index&quot;:null}" fill="#a02400" stroke="none" stroke-width="0"/><path d="M233.4853,145.36721l-9.54246,-16.51l29.07186,0.6915l-8.65564,14.03768z" fill="url(#color-14)" stroke="none" stroke-width="0"/><path d="M178.875,141.95126l1.5,-18c0,0 16.46496,3.29299 24.23077,4.84615c7.18974,1.43795 26.76923,5.15385 26.76923,5.15385l-6,9z" fill="url(#color-15)" stroke="none" stroke-width="0"/><path d="M255.19853,140.0591l-6.82353,-10.23529c0,0 22.26687,-4.22592 30.44344,-5.86124c8.83171,-1.76634 27.55656,-5.51131 27.55656,-5.51131l-0.54902,19.10784z" data-paper-data="{&quot;index&quot;:null}" fill="url(#color-16)" stroke="none" stroke-width="0"/><path d="M207.40998,175.55855l16.04377,-46.37482l4.38626,11.66024l-9.04377,42.37482z" fill="url(#color-17)" stroke="none" stroke-width="0"/><path d="M259.7909,182.71902l-12.66876,-41.4357l3.3631,-11.99541l19.98799,44.81636z" data-paper-data="{&quot;index&quot;:null}" fill="url(#color-18)" stroke="none" stroke-width="0"/><path d="M177.31503,88.38878l9.49189,-49.27812l3.72724,-7.33561l-9.47794,55.13045z" fill="url(#color-19)" stroke="none" stroke-width="0"/><g stroke="none" stroke-width="0"><g><path d="M178.34537,34.49967l14.12143,7.75613l-34.39588,70.65871c0,0 -4.71595,7.97763 -7.34729,11.2762c-0.43118,0.54052 -5.05616,6.1499 -4.09908,1.53793c0.83386,-4.01817 8.11108,-16.94755 7.00208,-16.74175c-1.52335,0.28269 -11.16139,20.41061 -11.32978,17.74071c-0.20836,-3.30357 10.56903,-21.84528 9.33348,-22.26121c-1.71931,-0.57878 -7.93912,10.14194 -11.7817,16.01218c-2.3062,3.52315 -3.10276,3.50038 -3.38674,3.27879c-1.95566,-1.52599 12.27993,-19.57745 9.16124,-19.22502c-3.18482,0.35991 -12.57431,13.70392 -14.20611,12.66848c-0.85148,-0.5403 15.67298,-20.79791 14.71963,-20.92903c-1.59541,-0.21944 -18.6842,15.57347 -20.54385,16.96429c-1.92166,1.43718 11.24245,-16.37208 9.42845,-15.0366c-8.69091,6.39836 -15.21345,14.88805 -14.04642,11.87388c0.93143,-2.40566 12.89406,-15.47951 11.84379,-15.68635c-2.31191,-0.45529 -12.2834,10.90911 -14.34995,10.18408c-0.8638,-0.30306 12.4008,-13.58348 11.80777,-14.3348c-1.98777,-2.51839 -14.9538,11.40458 -16.94619,10.17922c-1.10314,-0.67846 10.91064,-14.64732 16.19145,-19.15124c1.57677,-1.3448 3.34383,2.37425 2.99072,2.25007c-5.28645,-1.85913 -21.28751,16.19981 -23.68871,14.12938c-0.15325,-0.13214 16.63611,-16.32713 13.00743,-15.60169c-4.32313,0.86426 -17.6131,10.25152 -17.03008,8.18478c1.29293,-4.58326 19.83355,-18.0289 17.23697,-17.71777c-5.41682,0.64906 -22.76046,18.50668 -22.00803,14.9878c0.36782,-1.72017 1.93501,-0.56246 7.03774,-5.05303c6.5482,-5.76264 16.76657,-17.17296 14.87388,-17.07377c-1.64555,0.08623 -15.465,11.91635 -22.25155,15.53155c-4.63204,2.46749 -2.58165,-3.26783 -4.55046,-1.95802c-1.46227,0.97281 14.74723,-11.77491 13.33651,-13.38384c-0.66722,-0.76096 -7.6196,6.64532 -11.81651,8.86305c-4.50018,2.37798 -6.24937,-0.4117 -6.54159,-1.04107c-0.21306,-0.45888 21.98238,-12.60013 20.29291,-12.48429c-3.29294,0.22578 -21.10867,9.18879 -21.42926,8.46633c-1.18542,-2.67138 7.91951,-8.01549 7.91951,-8.01549z" fill="url(#color-20)"/><path d="M161.36816,100.30788c-4.56435,13.41194 -4.81362,-7.13961 -9.54136,-8.80852c-4.72773,-1.66891 -14.53578,-2.80223 -9.97143,-16.21417c1.75184,-5.14764 -10.7875,3.21348 -8.48754,-0.37487c2.23784,-3.49143 -2.27092,-15.20192 9.70355,-23.99837c7.78375,-5.71794 8.9782,-2.85694 10.12585,-2.45181c2.74195,0.96792 35.14214,-12.51349 34.77289,-6.27178c-0.26742,4.5204 -24.6848,52.48613 -26.60197,58.11954z" fill="url(#color-21)"/><path d="M163.36788,89.9289c-1.67359,4.91771 3.78981,29.441 -14.03008,23.15048c-3.6048,-1.27251 -9.3539,-11.91516 -13.98951,-14.09425c-7.61462,-3.57945 -17.29987,-5.90615 -24.1232,-12.27499c-9.55704,-8.92045 -16.01666,-21.90501 -15.23773,-24.19381c0.5076,-1.49153 2.57698,-2.00217 5.71127,-1.81419c7.19976,0.43179 20.01863,4.54987 32.4338,8.93248c17.8199,6.29051 30.90906,15.37657 29.23547,20.29429z" fill="url(#color-22)"/><path d="M118.83852,92.4041l38.4656,-38.36247l7.33991,-4.17953l-42.23799,43.6735z" fill="url(#color-23)"/><path d="M127.97648,94.42209l38.4656,-38.36247l7.33991,-4.17953l-42.23799,43.6735z" fill="url(#color-24)"/><path d="M112.44372,89.54282l38.4656,-38.36247l7.33991,-4.17953l-42.23799,43.6735z" fill="url(#color-25)"/><path d="M105.27846,82.2098l43.13403,-29.82266l7.72082,-2.53736l-47.6157,34.3024z" fill="url(#color-26)"/><path d="M100.73512,72.86149l46.06019,-20.91254l7.82211,-0.9286l-51.05423,24.47335z" fill="url(#color-27)"/><path d="M136.07169,101.50298l32.68211,-45.22362l6.72432,-5.60825l-35.64666,51.14862z" fill="url(#color-28)"/><path d="M141.79134,108.75809l31.59074,-46.23949l6.59738,-5.83242l-34.40815,52.24915z" fill="url(#color-29)"/></g><path d="M175.0494,77.59737c-1.10311,3.03694 -18.76924,42.74094 -21.44308,44.61007c-6.7818,4.74077 -4.31204,-31.5071 -15.1306,-35.79887c-1.93441,-0.76739 -18.90358,14.24515 -19.29928,11.35582c-0.33139,-2.41971 15.96266,-22.77553 14.27904,-23.65318c-11.98231,-6.24623 -28.79914,-7.54192 -25.81738,-15.75088c0.29427,-0.81015 -14.67092,3.40729 -14.00022,2.44132c4.49659,-6.47616 32.13306,-20.79519 41.45195,-22.22464c7.71753,-1.18381 11.19501,6.43355 17.51262,8.93977c15.08398,5.98388 26.34795,19.3409 22.44696,30.08057z" fill="url(#color-30)"/><g><path d="M194.21667,13.86799l11.89766,7.17998l-31.16568,61.14258c0,0 -10.62649,9.23849 -11.75211,7.16908c-1.11448,-2.04896 7.28446,-15.41008 4.77608,-14.60362c-3.46638,1.11448 -10.25351,13.60821 -11.4364,12.06975c-1.29893,-1.68939 5.02564,-12.37068 7.59575,-16.0368c2.43817,-3.47792 -12.77312,12.34602 -15.04543,11.51115c-0.53627,-0.19703 12.56526,-13.76741 10.92194,-14.09761c-2.68772,-0.54004 -14.49514,13.50395 -13.34058,10.1898c1.45825,-4.1859 13.46215,-14.07779 12.91578,-15.05481c-0.62932,-1.12538 -5.21054,6.59362 -8.06051,9.01554c-3.91515,3.32711 -6.52615,2.06194 -8.99715,3.31002c-2.20904,1.11577 11.77853,-11.65514 9.70064,-12.51523c-0.37679,-0.15596 -7.83506,7.76995 -9.97108,8.50363c-3.26609,1.12182 -1.6682,-4.6673 -2.69572,-4.23967c-4.54362,1.89102 -2.09302,2.63911 -3.65092,1.42234c-1.38005,-1.07786 8.27931,-7.42584 7.32025,-8.32563c-0.20176,-0.1893 -10.16625,6.34299 -12.05537,5.72614c-1.99717,-0.65213 4.01856,-8.43471 1.57359,-7.85227c-2.94483,0.70152 -6.23399,0.33187 -7.40867,-0.32428c-1.47418,-0.82345 10.80956,-9.58871 10.93818,-11.35271c0.20548,-2.81809 -11.00565,7.06425 -15.53304,9.18247c-1.92269,0.89956 9.17867,-9.45462 11.86676,-12.45431c2.81195,-3.13792 -12.6314,8.07362 -13.99957,6.25278c-1.10872,-1.47555 8.72487,-5.67772 8.10001,-7.16899c-0.72227,-1.72378 -11.46207,2.37438 -11.93534,1.16841c-0.66579,-1.69654 9.07461,-8.37466 9.07461,-8.37466z" fill="url(#color-31)"/><path d="M177.73823,72.14459c-4.23422,11.65708 -3.94584,-6.39501 -7.95172,-7.98416c-4.00588,-1.58915 -12.37326,-2.84098 -8.13904,-14.49806c1.62514,-4.4741 -9.31184,2.5393 -7.25562,-0.55131c2.00068,-3.00713 -1.57262,-13.40769 8.8915,-20.81812c6.80198,-4.81699 7.7545,-2.27359 8.72692,-1.88783c2.32329,0.92166 30.38486,-10.06786 29.91642,-4.5969c-0.33926,3.9622 -22.40997,45.44007 -24.18847,50.33639z" fill="url(#color-32)"/><path d="M179.23167,63.35135c-1.55255,4.27426 2.52506,25.95025 -12.57402,19.96038c-3.05441,-1.2117 -7.71542,-10.70709 -11.63,-12.7418c-6.43022,-3.34228 -14.66336,-5.63877 -20.34819,-11.4096c-7.96241,-8.08286 -13.17441,-19.65321 -12.45183,-21.64252c0.47088,-1.29637 2.25461,-1.69057 4.93276,-1.44349c6.15198,0.56758 17.02354,4.51902 27.54311,8.69218c15.09908,5.98987 26.08071,14.3106 24.52817,18.58486z" fill="url(#color-33)"/><path d="M141.52862,64.09144l33.86061,-32.67793l6.38452,-3.47778l-37.21919,37.24261z" fill="url(#color-34)"/><path d="M149.30085,66.10253l33.86061,-32.67793l6.38452,-3.47778l-37.21919,37.24261z" fill="url(#color-35)"/><path d="M137.61132,62.00134l33.86061,-32.67793l6.38452,-3.47778l-37.21919,37.24261z" fill="url(#color-36)"/><path d="M130.17099,54.78528l37.64798,-25.05724l6.67046,-2.02589l-41.59337,28.87343z" fill="url(#color-37)"/><path d="M126.51043,46.45796l39.93505,-17.157l6.71789,-0.61064l-44.29656,20.15291z" fill="url(#color-38)"/><path d="M156.05694,72.53188l29.07783,-38.85383l5.8925,-4.7484l-31.75994,43.97876z" fill="url(#color-39)"/><path d="M160.77545,79.05203l28.16849,-39.77439l5.78932,-4.94857l-30.72673,44.9775z" fill="url(#color-40)"/></g><path d="M198.30467,34.64186c-3.47799,9.57512 -11.48879,16.88616 -14.05409,15.86849c-2.44513,-0.96999 -21.25569,-11.6755 -18.18632,-20.7001c0.15085,-0.44353 -3.23795,-2.83259 -3.07502,-3.28113c3.47799,-9.57512 31.29096,-11.71103 33.85626,-10.69336c0.49821,0.19764 7.7306,2.86562 7.98363,3.58605c1.04986,2.98913 -3.72192,7.50451 -6.52445,15.22004z" fill="url(#color-41)"/></g><g data-paper-data="{&quot;index&quot;:null}" stroke="none" stroke-width="0"><g><path d="M382.57691,58.43108c0,0 8.74503,5.2516 7.44127,7.57191c-0.3526,0.62753 -17.5374,-8.31556 -20.78393,-8.69198c-1.66566,-0.19311 19.69593,11.8182 19.46264,12.21626c-0.31997,0.54596 -2.18727,2.94188 -6.52248,0.58122c-4.04306,-2.20157 -10.55747,-9.17859 -11.25486,-8.53513c-1.47452,1.36046 13.93561,13.59479 12.53676,12.64918c-1.88342,-1.27317 -0.13643,3.9526 -4.5977,1.50508c-6.53635,-3.58593 -19.6271,-14.87462 -21.25076,-15.03898c-1.86751,-0.18906 7.68139,10.53374 13.87659,16.02289c4.82766,4.27746 6.43483,3.32786 6.7143,4.88208c0.57172,3.1794 -15.70967,-13.67405 -21.03652,-14.54093c-2.55344,-0.41555 15.12855,12.56529 16.18273,16.72301c0.47537,1.87485 -12.21142,-7.20626 -16.44576,-8.20703c-3.55415,-0.84001 12.26048,14.50064 12.10239,14.61038c-2.47702,1.71957 -17.42035,-15.24213 -22.74129,-13.86439c-0.35541,0.09202 1.57516,-3.13208 3.06903,-1.84851c5.00318,4.29883 16.20269,17.39966 15.07811,17.94634c-2.03113,0.98736 -14.17493,-12.12313 -16.26492,-9.98195c-0.62353,0.63879 11.84717,13.1919 10.97776,13.41638c-2.07994,0.53704 -11.38688,-10.13169 -13.69631,-9.84834c-1.04915,0.12872 10.14368,12.42835 10.94708,14.62408c1.00662,2.75114 -5.02939,-5.16961 -13.31312,-11.33977c-1.72901,-1.28786 10.42007,15.30037 8.58954,13.91605c-1.77146,-1.33964 -17.90202,-16.33749 -19.49108,-16.22648c-0.94955,0.06633 14.4037,19.01742 13.53485,19.45421c-1.66509,0.83708 -10.29914,-11.56685 -13.43212,-12.05717c-3.06794,-0.48014 10.12924,16.38109 8.1197,17.63861c-0.29181,0.18261 -1.08093,0.1606 -3.18954,-3.10516c-3.51334,-5.44138 -9.14042,-15.33648 -10.86968,-14.91147c-1.2427,0.30544 8.50933,17.42029 8.14113,20.35654c-0.29757,2.37303 -8.84467,-16.09645 -10.3378,-16.4296c-1.087,-0.24254 5.47778,11.67925 6.10555,15.30842c0.72055,4.16548 -3.5796,-1.08475 -3.97963,-1.58989c-2.44127,-3.08268 -6.71521,-10.45059 -6.71521,-10.45059l-30.56009,-64.86663l14.35044,-6.16939z" fill="url(#color-42)"/><path d="M293.42526,36.49844c-0.05906,-5.58824 31.33203,8.16094 34.09204,7.44309c1.15521,-0.30046 2.47721,-2.78947 9.8969,2.72545c11.4144,8.48412 6.37948,18.69221 8.42201,21.92603c2.09923,3.32361 -9.89534,-4.80214 -8.41486,-0.11654c3.85735,12.20816 -5.90106,12.69811 -10.65994,13.93584c-4.75888,1.23773 -6.0138,19.5598 -9.87114,7.35165c-1.6202,-5.12778 -23.42224,-49.21838 -23.46501,-53.26552z" fill="url(#color-43)"/><path d="M345.33868,63.84561c12.49698,-3.25033 25.38033,-6.24319 32.52401,-6.24586c3.10988,-0.00116 5.132,0.56437 5.56097,1.92202c0.65827,2.08336 -6.36908,13.32446 -16.26123,20.77514c-7.06259,5.31949 -16.75807,6.88065 -24.4666,9.6695c-4.69279,1.69779 -10.90234,10.88728 -14.53089,11.83103c-17.93731,4.6653 -11.32935,-16.92314 -12.7437,-21.39946c-1.41436,-4.47633 11.98014,-11.88707 29.91745,-16.55236z" fill="url(#color-44)"/><path d="M355.76658,85.79224l-39.64202,-41.20814l7.05609,4.11882l36.17067,36.2694z" fill="url(#color-45)"/><path d="M346.62766,87.10706l-39.64201,-41.20814l7.05609,4.11882l36.17067,36.2694z" fill="url(#color-46)"/><path d="M362.23314,83.5793l-39.64202,-41.20814l7.05609,4.11882l36.17067,36.2694z" fill="url(#color-47)"/><path d="M369.96635,78.15866l-45.42179,-33.13334l7.51349,2.67398l41.20799,28.89856z" fill="url(#color-48)"/><path d="M375.2924,70.69715l-49.30566,-24.54695l7.69262,1.24409l44.53991,21.10477z" fill="url(#color-49)"/><path d="M338.1217,92.25712l-32.75467,-47.52692l6.37702,5.36076l30.11262,42.08336z" fill="url(#color-50)"/><path d="M332.09433,98.3004l-31.47545,-48.44297l6.24043,5.55402l28.98311,42.93169z" fill="url(#color-51)"/></g><path d="M328.152,43.13155c6.37279,-1.90027 10.18669,-8.51142 17.76331,-7.0452c9.14875,1.77046 35.78614,16.01381 39.91674,22.03051c0.61611,0.89745 -13.98158,-3.66037 -13.73021,-2.92195c2.547,7.48215 -14.15294,7.74455 -26.31312,12.68053c-1.7086,0.69355 13.41189,19.72001 12.96534,21.86118c-0.53321,2.55672 -16.58374,-11.73854 -18.53504,-11.15669c-10.91304,3.25411 -10.24821,35.72432 -16.72463,31.13444c-2.55345,-1.80965 -18.08202,-38.17072 -19.0243,-40.93878c-3.33221,-9.7888 8.46621,-21.10692 23.68192,-25.64402z" fill="url(#color-52)"/><g><path d="M357.19442,33.7698c0,0 9.30824,6.47552 8.56636,7.95373c-0.52736,1.05077 -10.95084,-3.17611 -11.74995,-1.67659c-0.69131,1.29726 8.83058,5.56877 7.66137,6.82629c-1.44283,1.55179 -16.17038,-9.27129 -13.54257,-6.32235c2.51207,2.81904 12.98629,12.64652 11.12838,11.7418c-4.37489,-2.13036 -14.98086,-11.54271 -14.91585,-9.01759c0.0407,1.58061 11.76257,10.05334 10.26381,10.70965c-1.19427,0.52298 -4.46627,0.678 -7.34509,-0.10436c-2.39016,-0.64955 3.17918,6.61344 1.17145,7.08911c-1.89912,0.44995 -11.43618,-5.90737 -11.64507,-5.74921c-0.99292,0.7518 8.25134,6.92847 6.83322,7.81677c-1.60089,1.00278 0.86013,0.46557 -3.54197,-1.46294c-0.99551,-0.43613 0.30119,4.81362 -2.8748,3.63923c-2.0771,-0.76805 -9.06648,-8.23554 -9.44687,-8.11642c-2.09778,0.65693 11.11312,12.79387 8.98252,11.68105c-2.38325,-1.24478 -5.02829,-0.25478 -8.7382,-3.43114c-2.70057,-2.31218 -6.8539,-9.44219 -7.53169,-8.47162c-0.58844,0.84264 10.80132,10.30562 12.03856,14.11762c0.97957,3.01811 -10.01212,-10.1388 -12.69749,-9.79981c-1.64189,0.20727 10.65326,13.01039 10.11307,13.15767c-2.28888,0.6241 -16.56058,-14.30167 -14.31921,-11.06925c2.36267,3.40734 8.09532,13.27283 6.72744,14.71102c-1.24568,1.3097 -7.34701,-10.19737 -10.72151,-11.37585c-2.4419,-0.85279 5.21139,11.51379 4.00835,13.28256c-1.21507,1.78644 -11.27426,-7.02042 -11.27426,-7.02042l-27.83143,-56.20507l12.12225,-5.77353z" fill="url(#color-53)"/><path d="M280.61835,17.57447c-0.195,-4.90587 27.02628,6.38962 29.36986,5.69079c0.98091,-0.29249 2.048,-2.51101 8.54065,2.14795c9.98826,7.16732 5.94302,16.25644 7.7747,19.04559c1.88253,2.86658 -8.593,-3.97164 -7.20481,0.10633c3.61686,10.62499 -4.72215,11.29722 -8.76301,12.50215c-4.04086,1.20493 -4.64126,17.32564 -8.25812,6.70066c-1.51919,-4.46281 -21.31805,-42.64051 -21.45928,-46.19346z" fill="url(#color-54)"/><path d="M326.20842,40.56618c10.61144,-3.16418 21.56021,-6.11184 27.67402,-6.29133c2.66153,-0.07814 4.40678,0.36833 4.80901,1.54993c0.61723,1.81319 -5.10651,11.85887 -13.38005,18.64701c-5.90696,4.84646 -14.16442,6.45783 -20.68963,9.09802c-3.9724,1.60729 -9.04927,9.83105 -12.13035,10.74979c-15.23093,4.54165 -10.13361,-14.58018 -11.45979,-18.47601c-1.32618,-3.89583 9.94585,-10.73575 25.17679,-15.2774z" fill="url(#color-55)"/><path d="M335.24701,59.31611l-34.99258,-35.20407l6.14538,3.44199l31.894,30.95318z" fill="url(#color-56)"/><path d="M327.45951,60.69735l-34.99258,-35.20407l6.14538,3.44199l31.894,30.95318z" fill="url(#color-57)"/><path d="M339.22482,57.65955l-34.99258,-35.20407l6.14538,3.44199l31.894,30.95318z" fill="url(#color-58)"/><path d="M347.20247,52.26053l-39.73044,-27.96983l6.49949,2.16185l36.01462,24.35553z" fill="url(#color-59)"/><path d="M351.56785,45.57611l-42.83246,-20.33335l6.61584,0.90175l38.66475,17.42876z" fill="url(#color-60)"/><path d="M320.31285,65.43082l-29.26143,-40.92373l5.5963,4.54945l26.85954,36.20895z" fill="url(#color-61)"/><path d="M315.31059,70.88721l-28.1903,-41.75987l5.48441,4.72254l25.91478,36.98192z" fill="url(#color-62)"/></g><path d="M277.86417,15.29121c0.28567,-0.6293 7.57135,-2.62528 8.07391,-2.77514c2.58771,-0.77162 29.99743,2.61179 32.96832,11.33915c0.13917,0.40883 -3.33048,2.36019 -3.20301,2.76391c2.59367,8.21449 -16.54028,16.76604 -19.00677,17.50152c-2.58771,0.77162 -10.15385,-6.17666 -13.12473,-14.90402c-2.39391,-7.03243 -6.89295,-11.31441 -5.70771,-13.92542z" fill="url(#color-63)"/></g><path d="M221.71361,129.66029c0,9.58644 -9.88792,49.85561 -25.41664,68.95793c-9.99365,12.29346 -22.37483,21.61865 -31.14192,21.61865c-22.38992,0 -27.02703,-9.76965 -27.02703,-25.52553c0,-15.75587 10.65512,-32.03604 33.04505,-32.03604c9.34614,0 30.9536,-17.36166 37.81056,-22.4628c9.5698,-7.11931 14.72998,-5.73118 14.72998,3.44778z" fill="url(#color-64)" stroke="none" stroke-width="0"/><path d="M229.34424,167.68432c0,19.0729 -13.05353,10.51051 -19.89489,10.51051c-6.84137,0 -3.37838,-4.95113 -3.37838,-24.02402c0,-19.0729 -4.96449,-28.52853 1.87688,-28.52853c6.84137,0 21.3964,22.96915 21.3964,42.04204z" fill="url(#color-65)" stroke="none" stroke-width="0"/><path d="M229.71962,115.88251c0,4.56091 -10.08368,18.76877 -22.52252,18.76877c-6.35516,0 -17.38393,-1.42332 -22.24561,-4.89257c-4.654,-3.32105 -3.27992,-8.64252 -3.27992,-10.8732c0,-4.56091 13.08668,-0.75075 25.52553,-0.75075c12.43885,0 22.52252,-6.81316 22.52252,-2.25225z" fill="url(#color-66)" stroke="none" stroke-width="0"/><path d="M191.18809,113.39001c0,-0.43882 12.66086,11.25723 19.58184,5.43921c1.428,-1.20042 4.8245,-6.55044 6.11571,-8.06455c4.49915,-5.27581 -3.46246,-2.63502 1.68089,-9.34665c17.29165,-22.56414 48.76962,-58.11162 51.93153,-60.86628c3.10212,-2.70257 -46.16791,55.04788 -38.55375,56.01096c12.73345,1.6106 54.23462,-57.46511 48.46225,-48.18173c-4.20779,6.76715 -50.52515,61.36103 -49.16452,61.58203c10.27897,1.66957 55.57019,-44.38079 60.78989,-44.38079c10.36571,0 -12.76276,7.05858 -12.76276,15.76577c0,8.70719 -8.40307,12.76276 -18.76877,12.76276c-4.32871,0 -23.34663,19.8761 -33.53675,26.65315c-14.21154,9.45154 -35.77556,-2.3028 -35.77556,-7.37387z" fill="url(#color-67)" stroke="none" stroke-width="0"/><path d="M219.375,125.23859c0,1.933 -17.93959,10.5 -26.5,10.5c-5.07829,0 -11.82657,-0.29372 -13.22214,-7.44455c-0.49235,-2.52279 -1.87464,-10.16805 5.638,-12.24901c7.08884,-1.96357 28.08414,6.57529 28.08414,6.19356c0,-0.65574 -18.98867,-3.58164 -27.43019,-1.80007c-10.83054,2.28577 -11.40652,9.73611 -7.81254,12.19181c1.86227,1.27245 7.81214,0.10825 9.74272,0.10825c8.56041,0 31.5,-9.433 31.5,-7.5z" fill="url(#color-68)" stroke="none" stroke-width="0"/><path d="M227.375,182.23859c5.73029,20.75353 -7.09658,-40.29247 -10.16891,-36.42972c-2.28924,2.87818 -8.26994,32.92972 -9.33109,32.92972c-2.48528,0 2.5,-28.28273 2.5,-38.5c0,-10.21727 5.01472,-4.5 7.5,-4.5c1.45647,0 3.53461,11.5876 5.55288,23.9914c1.42564,8.76166 2.82142,18.43162 3.94712,22.5086z" fill="url(#color-69)" stroke="none" stroke-width="0"/></g></g></svg>